<svg width="20" height="20" viewBox="0 0 20 20" fill="none" xmlns="http://www.w3.org/2000/svg">
<circle cx="10" cy="10" r="10" fill="#E1F0FF"/>
<path d="M7.86 14C7.692 14 7.56 13.952 7.464 13.856C7.368 13.76 7.32 13.632 7.32 13.472C7.32 13.304 7.368 13.176 7.464 13.088C7.56 13 7.692 12.956 7.86 12.956H9.324V6.572H9.948L8.196 7.688C8.068 7.76 7.948 7.788 7.836 7.772C7.732 7.756 7.64 7.712 7.56 7.64C7.488 7.568 7.436 7.48 7.404 7.376C7.38 7.272 7.388 7.164 7.428 7.052C7.476 6.94 7.56 6.848 7.68 6.776L9.336 5.732C9.472 5.652 9.6 5.588 9.72 5.54C9.848 5.484 9.968 5.456 10.08 5.456C10.216 5.456 10.328 5.496 10.416 5.576C10.512 5.648 10.56 5.772 10.56 5.948V12.956H11.904C12.08 12.956 12.216 13 12.312 13.088C12.408 13.176 12.456 13.304 12.456 13.472C12.456 13.64 12.408 13.772 12.312 13.868C12.216 13.956 12.08 14 11.904 14H7.86Z" fill="#3898FC"/>
</svg>
