<svg width="20" height="20" viewBox="0 0 20 20" fill="none" xmlns="http://www.w3.org/2000/svg">
<circle cx="10" cy="10" r="10" fill="#DCDCEF"/>
<path d="M7.572 14C7.356 14 7.2 13.952 7.104 13.856C7.008 13.752 6.96 13.612 6.96 13.436C6.96 13.324 6.988 13.216 7.044 13.112C7.1 13.008 7.18 12.9 7.284 12.788L9.84 10.052C10.232 9.636 10.512 9.256 10.68 8.912C10.856 8.56 10.944 8.208 10.944 7.856C10.944 7.408 10.808 7.068 10.536 6.836C10.264 6.604 9.864 6.488 9.336 6.488C9.016 6.488 8.708 6.536 8.412 6.632C8.116 6.728 7.82 6.884 7.524 7.1C7.404 7.18 7.292 7.216 7.188 7.208C7.084 7.2 6.992 7.16 6.912 7.088C6.84 7.016 6.792 6.928 6.768 6.824C6.744 6.72 6.748 6.612 6.78 6.5C6.812 6.388 6.888 6.292 7.008 6.212C7.336 5.964 7.716 5.772 8.148 5.636C8.58 5.5 9.02 5.432 9.468 5.432C10.052 5.432 10.544 5.524 10.944 5.708C11.352 5.884 11.66 6.144 11.868 6.488C12.076 6.832 12.18 7.252 12.18 7.748C12.18 8.084 12.124 8.412 12.012 8.732C11.908 9.052 11.744 9.38 11.52 9.716C11.304 10.044 11.02 10.392 10.668 10.76L8.244 13.304V12.956H12.06C12.236 12.956 12.372 13 12.468 13.088C12.564 13.176 12.612 13.304 12.612 13.472C12.612 13.64 12.564 13.772 12.468 13.868C12.372 13.956 12.236 14 12.06 14H7.572Z" fill="rgba(56, 152, 252, 1)"/>
</svg>
