<svg width="20" height="20" viewBox="0 0 20 20" fill="none" xmlns="http://www.w3.org/2000/svg">
<circle cx="10" cy="10" r="10" fill="#DCDCEF"/>
<path d="M9.468 14.108C9.02 14.108 8.564 14.048 8.1 13.928C7.636 13.8 7.232 13.612 6.888 13.364C6.76 13.284 6.672 13.188 6.624 13.076C6.584 12.956 6.576 12.848 6.6 12.752C6.624 12.648 6.672 12.56 6.744 12.488C6.824 12.416 6.92 12.376 7.032 12.368C7.144 12.352 7.268 12.384 7.404 12.464C7.748 12.672 8.084 12.824 8.412 12.92C8.74 13.008 9.08 13.052 9.432 13.052C9.816 13.052 10.14 12.996 10.404 12.884C10.668 12.772 10.864 12.608 10.992 12.392C11.128 12.176 11.196 11.916 11.196 11.612C11.196 11.156 11.044 10.816 10.74 10.592C10.444 10.36 10.012 10.244 9.444 10.244H8.628C8.444 10.244 8.304 10.2 8.208 10.112C8.112 10.016 8.064 9.884 8.064 9.716C8.064 9.556 8.112 9.432 8.208 9.344C8.304 9.248 8.444 9.2 8.628 9.2H9.324C9.668 9.2 9.96 9.144 10.2 9.032C10.44 8.912 10.624 8.748 10.752 8.54C10.888 8.324 10.956 8.064 10.956 7.76C10.956 7.352 10.82 7.04 10.548 6.824C10.284 6.6 9.896 6.488 9.384 6.488C9.056 6.488 8.744 6.532 8.448 6.62C8.16 6.708 7.86 6.864 7.548 7.088C7.428 7.168 7.312 7.204 7.2 7.196C7.096 7.18 7.004 7.14 6.924 7.076C6.852 7.004 6.8 6.916 6.768 6.812C6.744 6.708 6.752 6.6 6.792 6.488C6.832 6.376 6.912 6.28 7.032 6.2C7.368 5.952 7.748 5.764 8.172 5.636C8.596 5.5 9.032 5.432 9.48 5.432C10.04 5.432 10.52 5.52 10.92 5.696C11.328 5.872 11.636 6.124 11.844 6.452C12.06 6.78 12.168 7.172 12.168 7.628C12.168 7.972 12.104 8.284 11.976 8.564C11.848 8.844 11.664 9.084 11.424 9.284C11.192 9.476 10.908 9.612 10.572 9.692V9.56C11.156 9.656 11.608 9.896 11.928 10.28C12.248 10.656 12.408 11.128 12.408 11.696C12.408 12.192 12.288 12.624 12.048 12.992C11.816 13.352 11.48 13.628 11.04 13.82C10.6 14.012 10.076 14.108 9.468 14.108Z" fill="#5052B2"/>
</svg>
