<svg width="20" height="20" viewBox="0 0 20 20" fill="none" xmlns="http://www.w3.org/2000/svg">
<circle cx="10" cy="10" r="10" fill="#DCDCEF"/>
<path d="M10.992 14.084C10.8 14.084 10.648 14.032 10.536 13.928C10.424 13.816 10.368 13.664 10.368 13.472V12.284H7.152C6.952 12.284 6.792 12.24 6.672 12.152C6.552 12.064 6.492 11.928 6.492 11.744C6.492 11.64 6.516 11.528 6.564 11.408C6.62 11.288 6.716 11.132 6.852 10.94L10.344 5.864C10.432 5.728 10.532 5.628 10.644 5.564C10.756 5.492 10.884 5.456 11.028 5.456C11.196 5.456 11.332 5.508 11.436 5.612C11.548 5.708 11.604 5.86 11.604 6.068V11.24H12.36C12.552 11.24 12.692 11.284 12.78 11.372C12.876 11.46 12.924 11.588 12.924 11.756C12.924 11.932 12.876 12.064 12.78 12.152C12.692 12.24 12.552 12.284 12.36 12.284H11.604V13.472C11.604 13.664 11.548 13.816 11.436 13.928C11.332 14.032 11.184 14.084 10.992 14.084ZM10.368 11.24V7.004H10.692L7.56 11.576V11.24H10.368Z" fill="#5052B2"/>
</svg>
