<svg width="20" height="20" viewBox="0 0 20 20" fill="none" xmlns="http://www.w3.org/2000/svg">
<circle cx="10" cy="10" r="10" fill="#DCDCEF"/>
<path d="M9.732 14.108C9.292 14.108 8.848 14.048 8.4 13.928C7.952 13.8 7.544 13.604 7.176 13.34C7.056 13.268 6.976 13.176 6.936 13.064C6.896 12.952 6.888 12.844 6.912 12.74C6.936 12.628 6.984 12.536 7.056 12.464C7.136 12.392 7.232 12.352 7.344 12.344C7.456 12.328 7.576 12.36 7.704 12.44C8.016 12.64 8.336 12.792 8.664 12.896C9 13 9.348 13.052 9.708 13.052C10.076 13.052 10.392 12.984 10.656 12.848C10.92 12.712 11.12 12.524 11.256 12.284C11.4 12.036 11.472 11.748 11.472 11.42C11.472 10.916 11.324 10.504 11.028 10.184C10.732 9.864 10.32 9.704 9.792 9.704C9.488 9.704 9.204 9.76 8.94 9.872C8.676 9.976 8.424 10.152 8.184 10.4C8.128 10.464 8.052 10.524 7.956 10.58C7.868 10.628 7.768 10.652 7.656 10.652C7.488 10.652 7.36 10.608 7.272 10.52C7.184 10.432 7.14 10.312 7.14 10.16V6.092C7.14 5.916 7.188 5.78 7.284 5.684C7.38 5.588 7.516 5.54 7.692 5.54H11.712C11.888 5.54 12.024 5.584 12.12 5.672C12.216 5.76 12.264 5.888 12.264 6.056C12.264 6.224 12.216 6.356 12.12 6.452C12.024 6.54 11.888 6.584 11.712 6.584H8.352V9.632H8.016C8.232 9.328 8.516 9.092 8.868 8.924C9.228 8.756 9.624 8.672 10.056 8.672C10.592 8.672 11.056 8.784 11.448 9.008C11.84 9.232 12.144 9.548 12.36 9.956C12.576 10.356 12.684 10.824 12.684 11.36C12.684 11.904 12.564 12.384 12.324 12.8C12.084 13.208 11.744 13.528 11.304 13.76C10.864 13.992 10.34 14.108 9.732 14.108Z" fill="#5052B2"/>
</svg>
