<svg width="303" height="132" viewBox="0 0 303 132" fill="none" xmlns="http://www.w3.org/2000/svg">
<g filter="url(#filter0_d_1969_10696)">
<path d="M216.823 26.7656V107.851C216.823 111.849 213.582 115.09 209.588 115.09H93.235C89.241 115.09 86 111.849 86 107.851V26.7656H216.823Z" fill="white"/>
<path d="M216.822 17.3394V27.7651H86V17.3394C86 14.9929 87.8722 13.0707 90.2104 13.0042C90.2561 13 90.2977 13 90.3434 13H212.483C214.879 13 216.822 14.9471 216.822 17.3394Z" fill="#C6CFD5"/>
<path d="M96.7608 20.7913C96.9847 19.4114 96.0476 18.1113 94.6678 17.8874C93.2879 17.6634 91.9878 18.6005 91.7639 19.9803C91.5399 21.3602 92.477 22.6603 93.8568 22.8842C95.2367 23.1082 96.5368 22.1711 96.7608 20.7913Z" fill="#F45F31"/>
<path d="M105.852 20.7913C106.076 19.4114 105.138 18.1113 103.759 17.8874C102.379 17.6634 101.079 18.6005 100.855 19.9803C100.631 21.3602 101.568 22.6603 102.948 22.8842C104.328 23.1082 105.628 22.1711 105.852 20.7913Z" fill="#F2B233"/>
<path d="M114.235 22.1713C115.223 21.1829 115.223 19.5803 114.235 18.5919C113.246 17.6034 111.644 17.6034 110.655 18.5919C109.667 19.5803 109.667 21.1829 110.655 22.1713C111.644 23.1598 113.246 23.1598 114.235 22.1713Z" fill="#15B56C"/>
<path d="M199.176 22.9127H127.126C126.567 22.9127 126.114 22.4594 126.114 21.9002V18.8628C126.114 18.3036 126.567 17.8503 127.126 17.8503H199.176C199.735 17.8503 200.189 18.3036 200.189 18.8628V21.9002C200.189 22.4594 199.735 22.9127 199.176 22.9127Z" fill="#F0F0F0"/>
<path d="M134.605 58.0397L133.121 51.2846L132.38 47.9138H119V51.2846H129.67L131.153 58.0397L131.895 61.4105L133.394 68.2307L134.135 71.6015L135.533 77.9656H134.277C131.416 77.9656 129.088 80.2938 129.088 83.1545C129.088 86.0175 131.416 88.3455 134.277 88.3455H136.045C135.852 88.8825 135.746 89.4579 135.746 90.0602C135.746 92.8646 138.029 95.1457 140.832 95.1457C143.636 95.1457 145.917 92.8648 145.917 90.0602C145.917 89.4579 145.811 88.8827 145.618 88.3455H153.084C152.89 88.8825 152.785 89.4579 152.785 90.0602C152.785 92.8646 155.065 95.1457 157.87 95.1457C160.674 95.1457 162.955 92.8648 162.955 90.0602C162.955 89.4579 162.85 88.8827 162.656 88.3455H165.809V84.9747H134.277C133.274 84.9747 132.458 84.1589 132.458 83.1545C132.458 82.1522 133.274 81.3364 134.277 81.3364H166.043L166.818 77.9656L168.283 71.6015L169.059 68.2307L170.627 61.4105L171.403 58.0397H134.605ZM157.87 88.3457C158.816 88.3457 159.585 89.1142 159.585 90.0604C159.585 91.0064 158.816 91.7749 157.87 91.7749C156.924 91.7749 156.155 91.0064 156.155 90.0604C156.155 89.1142 156.924 88.3457 157.87 88.3457ZM140.832 88.3457C141.778 88.3457 142.546 89.1142 142.546 90.0604C142.546 91.0064 141.778 91.7749 140.832 91.7749C139.888 91.7749 139.117 91.0064 139.117 90.0604C139.117 89.1142 139.888 88.3457 140.832 88.3457ZM135.346 61.4105H143.636L144.245 68.2307H136.845L135.346 61.4105ZM138.985 77.9656L137.584 71.6015H144.546L145.115 77.9656H138.985ZM147.02 61.4105H155.142L154.688 68.2307H147.63L147.02 61.4105ZM148.499 77.9656L147.931 71.6015H154.465L154.043 77.9656H148.499ZM163.36 77.9656H157.421L157.843 71.6015H164.823L163.36 77.9656ZM165.6 68.2307H158.068L158.522 61.4105H167.169L165.6 68.2307Z" fill="#76A6F5"/>
<path d="M168.34 74.3198C159.705 74.3198 152.68 67.2948 152.68 58.6598C152.68 50.025 159.705 43 168.34 43C176.975 43 184 50.025 184 58.6598C184 67.295 176.975 74.3198 168.34 74.3198Z" fill="white"/>
<path d="M168.336 69.7925C174.482 69.7925 179.464 64.8104 179.464 58.6647C179.464 52.519 174.482 47.5369 168.336 47.5369C162.19 47.5369 157.208 52.519 157.208 58.6647C157.208 64.8104 162.19 69.7925 168.336 69.7925Z" fill="#31C048"/>
<path d="M165.985 63.9649L161.9 59.8807L163.694 58.0866L165.985 60.3769L172.993 53.3687L174.787 55.1627L165.985 63.9649Z" fill="white"/>
</g>
<defs>
<filter id="filter0_d_1969_10696" x="76" y="5" width="150.823" height="122.09" filterUnits="userSpaceOnUse" color-interpolation-filters="sRGB">
<feFlood flood-opacity="0" result="BackgroundImageFix"/>
<feColorMatrix in="SourceAlpha" type="matrix" values="0 0 0 0 0 0 0 0 0 0 0 0 0 0 0 0 0 0 127 0" result="hardAlpha"/>
<feOffset dy="2"/>
<feGaussianBlur stdDeviation="5"/>
<feComposite in2="hardAlpha" operator="out"/>
<feColorMatrix type="matrix" values="0 0 0 0 0 0 0 0 0 0 0 0 0 0 0 0 0 0 0.08 0"/>
<feBlend mode="normal" in2="BackgroundImageFix" result="effect1_dropShadow_1969_10696"/>
<feBlend mode="normal" in="SourceGraphic" in2="effect1_dropShadow_1969_10696" result="shape"/>
</filter>
</defs>
</svg>
