<svg width="40" height="40" viewBox="0 0 40 40" fill="none" xmlns="http://www.w3.org/2000/svg">
<path d="M28.5586 37.0002V20.6802H33.3186V37.0002H28.5586Z" fill="#3B3B3B"/>
<path d="M1 36.7961L12.0393 8.37842H15.6729L26.7122 36.7961H22.2134L19.2719 28.815L21.1406 30.2258H6.53694L8.40566 28.815L5.49877 36.7961H1ZM13.8042 13.9813L8.95936 27.4042L8.0596 26.1143H19.618L18.7528 27.4042L13.8734 13.9813H13.8042Z" fill="#3B3B3B"/>
<path d="M31.0319 3C31.0319 5.2834 30.5245 9.34277 24.3086 9.72334C26.4651 9.72334 31.0319 10.3576 31.0319 16.4467C30.9896 14.2056 32.2751 9.72334 37.7553 9.72334C35.5142 9.68106 31.2856 8.32793 31.0319 3Z" stroke="#F8464B" stroke-width="3" stroke-linecap="round" stroke-linejoin="round"/>
</svg>
