<svg width="31" height="34" viewBox="0 0 31 34" fill="none" xmlns="http://www.w3.org/2000/svg">
<path d="M20.9104 14.0162C20.7023 15.8465 19.9657 17.5766 18.7907 18.9953C17.6156 20.414 16.0529 21.4598 14.2933 22.005C12.5338 22.5503 10.6535 22.5714 8.88215 22.0659C7.11079 21.5603 5.52496 20.5498 4.31831 19.158C3.11166 17.7661 2.33641 16.0529 2.08721 14.2278C1.838 12.4026 2.12564 10.5444 2.91499 8.87994C3.70434 7.21553 4.96125 5.81696 6.53224 4.85502C8.10324 3.89308 9.92034 3.40939 11.7617 3.463" stroke="#3B3B3B" stroke-width="3" stroke-linecap="round"/>
<path d="M17.5659 20.4844L20.4846 23.403" stroke="#3B3B3B" stroke-width="3" stroke-linecap="round"/>
<rect x="19.6864" y="26.0975" width="4.13607" height="8.41772" rx="2.06804" transform="rotate(-46.6145 19.6864 26.0975)" stroke="#3B3B3B" stroke-width="3" stroke-linecap="round"/>
<path d="M17.8094 2C17.8094 3.89987 17.3872 7.27741 12.2153 7.59405C14.0097 7.59405 17.8094 8.12179 17.8094 13.1881C17.7742 11.3234 18.8438 7.59405 23.4034 7.59405C21.5388 7.55887 18.0205 6.43302 17.8094 2Z" stroke="#F8464B" stroke-width="3" stroke-linecap="round" stroke-linejoin="round"/>
</svg>
