<svg width="750" height="500" viewBox="0 0 750 500" fill="none" xmlns="http://www.w3.org/2000/svg">
<g clip-path="url(#clip0_1496_8954)">
<path d="M750 0H0V500H750V0Z" fill="white"/>
<path d="M430.272 352.188H320.252C320.252 352.188 324.814 422.268 303.029 422.268C309.999 422.268 440.525 422.268 447.495 422.268C425.71 422.268 430.272 352.188 430.272 352.188Z" fill="#C0D9FF"/>
<path opacity="0.55" d="M319.003 394.314L429.92 371.841C429.717 360.727 430.272 352.188 430.272 352.188H320.252C320.252 352.188 321.721 374.784 319.003 394.314Z" fill="#3898FC"/>
<path d="M577.605 373.317H172.919C162.744 373.317 154.496 365.069 154.496 354.894V102.006C154.496 91.831 162.744 83.583 172.919 83.583H577.605C587.78 83.583 596.028 91.831 596.028 102.006V354.894C596.028 365.068 587.78 373.317 577.605 373.317Z" fill="#C0D9FF"/>
<path d="M568.878 363.048H181.648C173.5 363.048 166.896 356.443 166.896 348.296V108.604C166.896 100.457 173.501 93.852 181.648 93.852H568.879C577.027 93.852 583.63 100.457 583.63 108.604V348.296C583.63 356.443 577.026 363.048 568.878 363.048Z" fill="white" stroke="#3898FC" stroke-width="2" stroke-miterlimit="10"/>
<path d="M166.895 127.804H583.63" stroke="#3898FC" stroke-width="2" stroke-miterlimit="10"/>
<path d="M533.582 117.23H246.48C242.546 117.23 239.357 114.041 239.357 110.107C239.357 106.173 242.546 102.984 246.48 102.984H533.582C537.516 102.984 540.705 106.173 540.705 110.107C540.705 114.041 537.516 117.23 533.582 117.23Z" fill="#E0EBFC"/>
<path d="M187.345 110.459C187.345 112.558 185.644 114.259 183.545 114.259C181.446 114.259 179.745 112.558 179.745 110.459C179.745 108.36 181.446 106.659 183.545 106.659C185.644 106.659 187.345 108.36 187.345 110.459Z" stroke="#3898FC" stroke-width="1.5" stroke-miterlimit="10"/>
<path d="M205.08 110.459C205.08 112.558 203.379 114.259 201.28 114.259C199.181 114.259 197.48 112.558 197.48 110.459C197.48 108.36 199.182 106.659 201.28 106.659C203.379 106.658 205.08 108.36 205.08 110.459Z" stroke="#3898FC" stroke-width="1.5" stroke-miterlimit="10"/>
<path d="M222.815 110.459C222.815 112.558 221.114 114.259 219.015 114.259C216.916 114.259 215.215 112.558 215.215 110.459C215.215 108.36 216.916 106.659 219.015 106.659C221.114 106.659 222.815 108.36 222.815 110.459Z" stroke="#3898FC" stroke-width="1.5" stroke-miterlimit="10"/>
<path d="M491.574 226.346H258.95C250.138 226.346 242.994 219.202 242.994 210.39C242.994 201.578 250.138 194.434 258.95 194.434H491.575C500.387 194.434 507.531 201.578 507.531 210.39C507.53 219.203 500.387 226.346 491.574 226.346Z" stroke="#3898FC" stroke-width="1.5" stroke-miterlimit="10"/>
<path d="M491.574 194.434H464.797V226.346H491.574C500.386 226.346 507.53 219.202 507.53 210.39C507.53 201.578 500.387 194.434 491.574 194.434Z" fill="#3898FC"/>
<path d="M496.236 218.088L490.954 212.805C492.022 211.377 492.605 209.631 492.605 207.843C492.605 203.268 488.884 199.547 484.31 199.547C479.735 199.547 476.013 203.269 476.013 207.843C476.013 212.417 479.735 216.139 484.31 216.139C485.637 216.139 486.952 215.814 488.134 215.196L493.63 220.693C493.979 221.041 494.441 221.232 494.933 221.232C495.425 221.232 495.887 221.04 496.236 220.692C496.584 220.344 496.776 219.881 496.776 219.389C496.776 218.899 496.584 218.436 496.236 218.088ZM490.265 207.844C490.265 211.128 487.594 213.799 484.311 213.799C481.027 213.799 478.355 211.128 478.355 207.844C478.355 204.56 481.027 201.889 484.311 201.889C487.594 201.888 490.265 204.56 490.265 207.844Z" fill="white"/>
<path opacity="0.75" d="M325.913 217.258H259.339C255.546 217.258 252.471 214.183 252.471 210.39C252.471 206.597 255.546 203.522 259.339 203.522H325.913C329.706 203.522 332.781 206.597 332.781 210.39C332.781 214.183 329.706 217.258 325.913 217.258Z" fill="#E0EBFC"/>
<path d="M467.143 420.268H283.382V430.494H467.143V420.268Z" fill="#C0D9FF"/>
<path opacity="0.75" d="M344.038 260.565H298.989C294.751 260.565 291.315 257.129 291.315 252.891C291.315 248.653 294.751 245.217 298.989 245.217H344.038C348.276 245.217 351.712 248.653 351.712 252.891C351.713 257.129 348.277 260.565 344.038 260.565Z" fill="#E0EBFC"/>
<path d="M299.57 254.807H343.457" stroke="#3898FC" stroke-width="1.5" stroke-miterlimit="10"/>
<path opacity="0.75" d="M451.536 260.565H371.563C367.325 260.565 363.889 257.129 363.889 252.891C363.889 248.653 367.325 245.217 371.563 245.217H451.536C455.774 245.217 459.21 248.653 459.21 252.891C459.21 257.129 455.774 260.565 451.536 260.565Z" fill="#E0EBFC"/>
<path d="M380.617 254.807H442.481" stroke="#3898FC" stroke-width="1.5" stroke-miterlimit="10"/>
<path d="M502.002 140.663H518.862" stroke="#3898FC" stroke-width="1.5" stroke-miterlimit="10"/>
<path d="M527.028 140.663H543.888" stroke="#3898FC" stroke-width="1.5" stroke-miterlimit="10"/>
<path opacity="0.75" d="M552.226 136.096H549.958V138.364H552.226V136.096Z" fill="#E0EBFC"/>
<path opacity="0.75" d="M555.391 136.096H553.123V138.364H555.391V136.096Z" fill="#E0EBFC"/>
<path opacity="0.75" d="M558.556 136.096H556.288V138.364H558.556V136.096Z" fill="#E0EBFC"/>
<path opacity="0.75" d="M552.226 139.529H549.958V141.797H552.226V139.529Z" fill="#E0EBFC"/>
<path opacity="0.75" d="M555.391 139.529H553.123V141.797H555.391V139.529Z" fill="#E0EBFC"/>
<path opacity="0.75" d="M558.556 139.529H556.288V141.797H558.556V139.529Z" fill="#E0EBFC"/>
<path opacity="0.75" d="M552.226 142.962H549.958V145.23H552.226V142.962Z" fill="#E0EBFC"/>
<path opacity="0.75" d="M555.391 142.962H553.123V145.23H555.391V142.962Z" fill="#E0EBFC"/>
<path opacity="0.75" d="M558.556 142.962H556.288V145.23H558.556V142.962Z" fill="#E0EBFC"/>
<path opacity="0.75" d="M567.929 146.413C571.104 146.413 573.679 143.839 573.679 140.663C573.679 137.487 571.104 134.913 567.929 134.913C564.753 134.913 562.179 137.487 562.179 140.663C562.179 143.839 564.753 146.413 567.929 146.413Z" fill="#E0EBFC"/>
<path opacity="0.65" d="M275.616 150H154.5V193H275.616C278.313 193 280.5 190.92 280.5 188.353V154.648C280.499 152.08 278.313 150 275.616 150Z" fill="#C0D9FF"/>
<path d="M572.121 104.484C572.95 104.484 573.621 103.812 573.621 102.984C573.621 102.156 572.95 101.484 572.121 101.484C571.293 101.484 570.621 102.156 570.621 102.984C570.621 103.812 571.293 104.484 572.121 104.484Z" fill="#3898FC"/>
<path d="M572.121 111.607C572.95 111.607 573.621 110.935 573.621 110.107C573.621 109.279 572.95 108.607 572.121 108.607C571.293 108.607 570.621 109.279 570.621 110.107C570.621 110.935 571.293 111.607 572.121 111.607Z" fill="#3898FC"/>
<path d="M572.121 118.73C572.95 118.73 573.621 118.058 573.621 117.23C573.621 116.402 572.95 115.73 572.121 115.73C571.293 115.73 570.621 116.402 570.621 117.23C570.621 118.058 571.293 118.73 572.121 118.73Z" fill="#3898FC"/>
<path d="M442.481 420.814H348.449" stroke="#3898FC" stroke-width="1.5" stroke-miterlimit="10"/>
<path d="M337.9 420.814H307.202" stroke="#3898FC" stroke-width="1.5" stroke-miterlimit="10"/>
<path opacity="0.65" d="M562.448 347.167H364.817C360.87 347.167 357.67 343.967 357.67 340.02V288.187C357.67 284.24 360.87 281.04 364.817 281.04H562.448C566.395 281.04 569.595 284.24 569.595 288.187V340.02C569.595 343.967 566.396 347.167 562.448 347.167Z" fill="#C0D9FF"/>
<path d="M553.552 340.225H355.921C351.974 340.225 348.774 337.025 348.774 333.078V281.245C348.774 277.298 351.974 274.098 355.921 274.098H553.552C557.499 274.098 560.699 277.298 560.699 281.245V333.078C560.699 337.025 557.499 340.225 553.552 340.225Z" fill="white" stroke="#3898FC" stroke-width="1.5" stroke-miterlimit="10"/>
<path d="M546.652 304.33H422.612C420.506 304.33 418.798 302.622 418.798 300.516C418.798 298.41 420.506 296.702 422.612 296.702H546.652C548.758 296.702 550.466 298.41 550.466 300.516C550.466 302.622 548.758 304.33 546.652 304.33Z" fill="#E0EBFC"/>
<path d="M546.652 317.62H422.612C420.506 317.62 418.798 315.912 418.798 313.806C418.798 311.7 420.506 309.992 422.612 309.992H546.652C548.758 309.992 550.466 311.7 550.466 313.806C550.466 315.912 548.758 317.62 546.652 317.62Z" fill="#E0EBFC"/>
<path d="M546.652 291.04H422.612C420.506 291.04 418.798 289.332 418.798 287.226C418.798 285.12 420.506 283.412 422.612 283.412H546.652C548.758 283.412 550.466 285.12 550.466 287.226C550.466 289.332 548.758 291.04 546.652 291.04Z" fill="#E0EBFC"/>
<path d="M450.068 330.91H422.612C420.506 330.91 418.798 329.203 418.798 327.096C418.798 324.99 420.506 323.282 422.612 323.282H450.068C452.174 323.282 453.882 324.99 453.882 327.096C453.882 329.202 452.174 330.91 450.068 330.91Z" fill="#E0EBFC"/>
<path opacity="0.65" d="M552.421 149.213H411.391C407.6 149.213 404.527 146.14 404.527 142.349V92.571C404.527 88.78 407.6 85.707 411.391 85.707H552.42C556.211 85.707 559.284 88.78 559.284 92.571V142.349C559.284 146.14 556.211 149.213 552.421 149.213Z" fill="#C0D9FF"/>
<path d="M541.877 142.506H400.848C397.057 142.506 393.984 139.433 393.984 135.642V85.864C393.984 82.073 397.057 79 400.848 79H541.877C545.668 79 548.741 82.073 548.741 85.864V135.642C548.741 139.433 545.668 142.506 541.877 142.506Z" fill="white" stroke="#3898FC" stroke-width="1.5" stroke-miterlimit="10"/>
<path d="M534.249 108.035H463.894C461.871 108.035 460.231 106.395 460.231 104.372C460.231 102.349 461.871 100.709 463.894 100.709H534.249C536.272 100.709 537.912 102.349 537.912 104.372C537.912 106.395 536.272 108.035 534.249 108.035Z" fill="#E0EBFC"/>
<path d="M534.249 120.798H463.894C461.871 120.798 460.231 119.158 460.231 117.135C460.231 115.112 461.871 113.472 463.894 113.472H534.249C536.272 113.472 537.912 115.112 537.912 117.135C537.912 119.158 536.272 120.798 534.249 120.798Z" fill="#E0EBFC"/>
<path d="M534.249 95.272H463.894C461.871 95.272 460.231 93.632 460.231 91.609C460.231 89.586 461.871 87.946 463.894 87.946H534.249C536.272 87.946 537.912 89.586 537.912 91.609C537.912 93.632 536.272 95.272 534.249 95.272Z" fill="#E0EBFC"/>
<path d="M490.261 133.561H463.894C461.871 133.561 460.231 131.921 460.231 129.898C460.231 127.875 461.871 126.235 463.894 126.235H490.261C492.284 126.235 493.924 127.875 493.924 129.898C493.924 131.921 492.284 133.561 490.261 133.561Z" fill="#E0EBFC"/>
<path d="M267.547 187.246H131.165C128.589 187.246 126.5 185.157 126.5 182.581V148.751C126.5 146.175 128.589 144.086 131.165 144.086H267.546C270.122 144.086 272.211 146.175 272.211 148.751V182.581C272.211 185.158 270.123 187.246 267.547 187.246Z" fill="white" stroke="#3898FC" stroke-width="1.5" stroke-miterlimit="10"/>
<path d="M263.042 163.819H174.692C173.317 163.819 172.203 162.705 172.203 161.33C172.203 159.955 173.318 158.841 174.692 158.841H263.042C264.417 158.841 265.531 159.956 265.531 161.33C265.532 162.704 264.417 163.819 263.042 163.819Z" fill="#E0EBFC"/>
<path d="M263.042 172.493H174.692C173.317 172.493 172.203 171.378 172.203 170.004C172.203 168.629 173.318 167.515 174.692 167.515H263.042C264.417 167.515 265.531 168.63 265.531 170.004C265.532 171.378 264.417 172.493 263.042 172.493Z" fill="#E0EBFC"/>
<path d="M263.042 155.145H174.692C173.317 155.145 172.203 154.03 172.203 152.656C172.203 151.281 173.318 150.167 174.692 150.167H263.042C264.417 150.167 265.531 151.281 265.531 152.656C265.532 154.03 264.417 155.145 263.042 155.145Z" fill="#E0EBFC"/>
<path d="M233.147 181.167H174.692C173.317 181.167 172.203 180.053 172.203 178.678C172.203 177.303 173.318 176.189 174.692 176.189H233.147C234.522 176.189 235.636 177.304 235.636 178.678C235.637 180.052 234.522 181.167 233.147 181.167Z" fill="#E0EBFC"/>
<path d="M145.704 158.772V172.561C145.704 173.726 147.027 174.398 147.968 173.71L157.399 166.816C158.177 166.247 158.177 165.086 157.399 164.517L147.968 157.623C147.027 156.935 145.704 157.607 145.704 158.772Z" fill="white"/>
<mask id="mask0_1496_8954" style="mask-type:luminance" maskUnits="userSpaceOnUse" x="454" y="172" width="77" height="77">
<path d="M526.227 227.229C535.608 208.593 528.104 185.88 509.468 176.5C490.832 167.119 468.119 174.622 458.738 193.258C449.358 211.895 456.861 234.607 475.497 243.988C494.134 253.369 516.846 245.866 526.227 227.229Z" fill="white"/>
</mask>
<g mask="url(#mask0_1496_8954)">
<path d="M502.654 159.162C502.654 159.162 449.767 251.871 449.471 252.521H472.84L526.023 159.162H502.654Z" fill="url(#paint0_linear_1496_8954)"/>
<path d="M538.307 159.162C538.307 159.162 485.42 251.871 485.124 252.521H492.518L545.701 159.162H538.307Z" fill="url(#paint1_linear_1496_8954)"/>
</g>
<path d="M509.276 248.133L501.473 250.69L511.895 282.486L519.698 279.928L509.276 248.133Z" fill="#3898FC"/>
<path d="M479.527 170.656C457.663 177.822 445.747 201.357 452.914 223.221C460.08 245.086 483.615 257.001 505.479 249.834C527.344 242.668 539.259 219.133 532.092 197.269C524.926 175.405 501.391 163.49 479.527 170.656ZM503.632 244.2C484.879 250.346 464.695 240.127 458.549 221.374C452.403 202.622 462.622 182.437 481.374 176.291C500.127 170.145 520.311 180.364 526.457 199.116C532.603 217.869 522.384 238.054 503.632 244.2Z" fill="#19202D"/>
<path d="M525.839 311.954C522.64 313.003 519.196 311.259 518.148 308.06L503.877 264.561L515.463 260.764L529.734 304.263C530.782 307.462 529.038 310.906 525.839 311.954Z" fill="#19202D"/>
<path d="M286.35 319.507C298.259 319.507 307.913 309.853 307.913 297.944C307.913 286.035 298.259 276.381 286.35 276.381C274.441 276.381 264.787 286.035 264.787 297.944C264.787 309.853 274.441 319.507 286.35 319.507Z" fill="#E0EBFC"/>
<g clip-path="url(#clip1_1496_8954)">
<rect x="132" y="151" width="31" height="31" rx="4" fill="#E0EBFC"/>
<path d="M154.889 157H140.111C138.95 157 138 157.95 138 159.111V166.5C138 167.661 138.95 168.611 140.111 168.611H154.889C156.05 168.611 157 167.661 157 166.5V159.111C157 157.95 156.05 157 154.889 157ZM154.889 163.333H151.574C151.078 163.333 150.688 163.682 150.551 164.157C150.171 165.487 148.925 166.5 147.5 166.5C146.075 166.5 144.829 165.487 144.449 164.157C144.312 163.682 143.922 163.333 143.426 163.333H140.111V160.167C140.111 159.586 140.586 159.111 141.167 159.111H153.833C154.414 159.111 154.889 159.586 154.889 160.167V163.333ZM151.585 170.722H155.944C156.525 170.722 157 171.197 157 171.778V173.889C157 175.05 156.05 176 154.889 176H140.111C138.95 176 138 175.05 138 173.889V171.778C138 171.197 138.475 170.722 139.056 170.722H143.415C143.911 170.722 144.312 171.081 144.449 171.567C144.819 172.907 146.043 173.889 147.5 173.889C148.957 173.889 150.181 172.907 150.551 171.567C150.688 171.081 151.089 170.722 151.585 170.722Z" fill="#3898FC"/>
</g>
<g clip-path="url(#clip2_1496_8954)">
<rect x="404" y="88" width="46" height="46" rx="4" fill="#E0EBFC"/>
<path d="M436.95 95H418.05C417.308 95 416.7 95.6 416.7 96.3333C416.7 97.0667 417.308 97.6667 418.05 97.6667H436.95C437.693 97.6667 438.3 97.0667 438.3 96.3333C438.3 95.6 437.693 95 436.95 95ZM418.05 127H436.95C437.693 127 438.3 126.4 438.3 125.667C438.3 124.933 437.693 124.333 436.95 124.333H418.05C417.308 124.333 416.7 124.933 416.7 125.667C416.7 126.4 417.308 127 418.05 127ZM438.3 100.333H416.7C415.215 100.333 414 101.533 414 103V119C414 120.467 415.215 121.667 416.7 121.667H438.3C439.785 121.667 441 120.467 441 119V103C441 101.533 439.785 100.333 438.3 100.333ZM427.5 104C429.174 104 430.538 105.347 430.538 107C430.538 108.653 429.174 110 427.5 110C425.826 110 424.463 108.653 424.463 107C424.463 105.347 425.826 104 427.5 104ZM434.25 117.667H420.75V115.667C420.75 113.44 425.246 112.333 427.5 112.333C429.755 112.333 434.25 113.44 434.25 115.667V117.667Z" fill="#3898FC"/>
</g>
<rect x="358" y="284" width="47" height="47" rx="4" fill="#E0EBFC"/>
<path opacity="0.5" d="M368.408 294.408C366.531 296.284 366.531 299.327 368.408 301.204L371.054 303.85C371.074 303.827 371.978 304.688 372 304.666L378.667 298C378.688 297.978 377.827 297.074 377.85 297.054L375.204 294.408C373.327 292.531 370.284 292.531 368.408 294.408Z" fill="#3898FC"/>
<path opacity="0.5" d="M370.557 313.512C370.825 312.829 371.787 312.829 372.056 313.512L372.317 314.177C372.399 314.386 372.563 314.551 372.771 314.633L373.434 314.896C374.114 315.165 374.114 316.131 373.434 316.4L372.771 316.663C372.563 316.745 372.399 316.91 372.317 317.118L372.056 317.784C371.787 318.466 370.825 318.466 370.557 317.784L370.295 317.118C370.213 316.91 370.049 316.745 369.841 316.663L369.178 316.4C368.498 316.131 368.498 315.165 369.178 314.896L369.841 314.633C370.049 314.551 370.213 314.386 370.295 314.177L370.557 313.512Z" fill="#3898FC"/>
<path opacity="0.2" d="M395.277 303.217C395.546 302.534 396.508 302.534 396.776 303.217L397.038 303.882C397.12 304.091 397.284 304.256 397.492 304.338L398.155 304.601C398.835 304.87 398.835 305.836 398.155 306.105L397.492 306.368C397.284 306.45 397.12 306.615 397.038 306.823L396.776 307.489C396.508 308.171 395.546 308.171 395.277 307.489L395.016 306.823C394.934 306.615 394.77 306.45 394.562 306.368L393.899 306.105C393.219 305.836 393.219 304.87 393.899 304.601L394.562 304.338C394.77 304.256 394.934 304.091 395.016 303.882L395.277 303.217Z" fill="#3898FC"/>
<path opacity="0.7" d="M388.832 291.845C389.1 291.163 390.063 291.163 390.331 291.845L391.048 293.671C391.13 293.879 391.295 294.044 391.502 294.126L393.321 294.846C394.001 295.116 394.001 296.082 393.321 296.351L391.502 297.071C391.295 297.153 391.13 297.318 391.048 297.527L390.331 299.352C390.063 300.035 389.1 300.035 388.832 299.352L388.115 297.527C388.033 297.318 387.868 297.153 387.661 297.071L385.842 296.351C385.162 296.082 385.162 295.116 385.842 294.846L387.661 294.126C387.868 294.044 388.033 293.879 388.115 293.671L388.832 291.845Z" fill="#3898FC"/>
<path d="M379.614 298.817C379.594 298.84 378.689 297.979 378.667 298L372 304.667C371.979 304.689 372.84 305.594 372.817 305.614L388.797 321.593C390.673 323.47 393.716 323.47 395.593 321.593C397.47 319.716 397.47 316.673 395.593 314.797L379.614 298.817Z" fill="#3898FC"/>
<g clip-path="url(#clip3_1496_8954)">
<path d="M294.167 301.5H277.834C277.192 301.5 276.667 300.975 276.667 300.333C276.667 299.692 277.192 299.167 277.834 299.167H294.167C294.809 299.167 295.334 299.692 295.334 300.333C295.334 300.975 294.809 301.5 294.167 301.5ZM294.167 303.833H277.834C277.192 303.833 276.667 304.358 276.667 305C276.667 305.642 277.192 306.167 277.834 306.167H294.167C294.809 306.167 295.334 305.642 295.334 305C295.334 304.358 294.809 303.833 294.167 303.833ZM289.5 296.833L294.844 293.042C295.147 292.82 295.334 292.47 295.334 292.097C295.334 291.152 294.26 290.592 293.49 291.14L289.5 293.975L283.667 289.833L277.227 293.753C276.877 293.975 276.667 294.348 276.667 294.757C276.667 295.667 277.659 296.227 278.44 295.748L283.574 292.622L289.5 296.833Z" fill="#3898FC"/>
</g>
<path opacity="0.65" d="M154.5 250H253.5C255.709 250 257.5 251.791 257.5 254V346C257.5 350.418 253.918 354 249.5 354H154.5V250Z" fill="#C0D9FF"/>
<g clip-path="url(#clip4_1496_8954)">
<path d="M247.5 242H142.5V347H247.5V242Z" fill="white"/>
<path d="M203.267 300.162C205.932 286.79 197.251 273.79 183.879 271.125C170.507 268.461 157.506 277.142 154.842 290.514C152.177 303.886 160.858 316.886 174.23 319.551C187.603 322.215 200.603 313.535 203.267 300.162Z" fill="#75B5FD"/>
<path d="M179.062 295.339L170.254 318.403C160.712 314.758 154.373 305.552 154.373 295.339C154.373 281.794 165.519 270.649 179.062 270.649C192.606 270.649 203.751 281.794 203.751 295.339H179.062Z" fill="#DBDBDB"/>
<path d="M179.062 295.339L198.894 310.043C194.241 316.319 186.875 320.028 179.062 320.028C165.518 320.028 154.373 308.883 154.373 295.339C154.373 281.794 165.519 270.649 179.062 270.649C192.606 270.649 203.751 281.794 203.751 295.339H179.062Z" fill="#C0D9FF"/>
<path d="M179.062 295.339L157.144 306.704C155.323 303.192 154.373 299.294 154.373 295.339C154.373 281.794 165.519 270.649 179.062 270.649C192.606 270.649 203.751 281.794 203.751 295.339H179.062Z" fill="#3898FC"/>
<path d="M189.091 284.551L188.714 284.175L200.547 272.343H215.583V272.874H200.767L189.091 284.551Z" fill="#3179D0"/>
<path d="M215.584 299.127H192.557V299.658H215.584V299.127Z" fill="#3179D0"/>
<path d="M215.582 325.132H199.944L199.864 325.034L188.695 311.349L189.107 311.013L200.196 324.601H215.582V325.132Z" fill="#3179D0"/>
<path d="M216.726 272.609C216.726 273.239 216.214 273.751 215.583 273.751C214.953 273.751 214.441 273.239 214.441 272.609C214.441 271.978 214.953 271.466 215.583 271.466C216.214 271.466 216.726 271.978 216.726 272.609Z" fill="#3179D0"/>
<path d="M216.726 299.392C216.726 300.023 216.214 300.534 215.583 300.534C214.953 300.534 214.441 300.023 214.441 299.392C214.441 298.762 214.953 298.25 215.583 298.25C216.214 298.25 216.726 298.762 216.726 299.392Z" fill="#3179D0"/>
<path d="M216.726 324.866C216.726 325.497 216.214 326.008 215.583 326.008C214.953 326.008 214.441 325.497 214.441 324.866C214.441 324.236 214.953 323.724 215.583 323.724C216.214 323.724 216.726 324.236 216.726 324.866Z" fill="#3179D0"/>
<path d="M229.927 272.343H220.175C220.028 272.343 219.909 272.462 219.909 272.608C219.909 272.755 220.028 272.874 220.175 272.874H229.927C230.074 272.874 230.192 272.755 230.192 272.608C230.192 272.462 230.074 272.343 229.927 272.343Z" fill="#75B5FD"/>
<path d="M234.007 274.044H220.175C220.028 274.044 219.909 274.163 219.909 274.31C219.909 274.456 220.028 274.575 220.175 274.575H234.007C234.154 274.575 234.273 274.456 234.273 274.31C234.273 274.163 234.154 274.044 234.007 274.044Z" fill="#75B5FD"/>
<path d="M231.996 275.746H220.175C220.028 275.746 219.909 275.865 219.909 276.011C219.909 276.158 220.028 276.277 220.175 276.277H231.996C232.143 276.277 232.262 276.158 232.262 276.011C232.262 275.865 232.143 275.746 231.996 275.746Z" fill="#75B5FD"/>
<path d="M235.361 277.446H220.175C220.028 277.446 219.909 277.565 219.909 277.712C219.909 277.859 220.028 277.978 220.175 277.978H235.361C235.508 277.978 235.627 277.859 235.627 277.712C235.627 277.565 235.508 277.446 235.361 277.446Z" fill="#75B5FD"/>
<path d="M233.261 279.148H220.175C220.028 279.148 219.909 279.267 219.909 279.413C219.909 279.56 220.028 279.679 220.175 279.679H233.261C233.407 279.679 233.526 279.56 233.526 279.413C233.526 279.267 233.407 279.148 233.261 279.148Z" fill="#75B5FD"/>
<path d="M231.307 280.849H220.175C220.028 280.849 219.909 280.968 219.909 281.115C219.909 281.261 220.028 281.38 220.175 281.38H231.307C231.453 281.38 231.572 281.261 231.572 281.115C231.572 280.968 231.453 280.849 231.307 280.849Z" fill="#75B5FD"/>
<path d="M233.835 299.127H220.175C220.028 299.127 219.909 299.246 219.909 299.393C219.909 299.539 220.028 299.658 220.175 299.658H233.835C233.982 299.658 234.101 299.539 234.101 299.393C234.101 299.246 233.982 299.127 233.835 299.127Z" fill="#75B5FD"/>
<path d="M229.238 300.828H220.175C220.028 300.828 219.909 300.947 219.909 301.094C219.909 301.24 220.028 301.359 220.175 301.359H229.238C229.385 301.359 229.504 301.24 229.504 301.094C229.504 300.947 229.385 300.828 229.238 300.828Z" fill="#75B5FD"/>
<path d="M232.686 302.53H220.175C220.028 302.53 219.909 302.649 219.909 302.796C219.909 302.942 220.028 303.061 220.175 303.061H232.686C232.832 303.061 232.951 302.942 232.951 302.796C232.951 302.649 232.832 302.53 232.686 302.53Z" fill="#75B5FD"/>
<path d="M233.835 304.231H220.175C220.028 304.231 219.909 304.35 219.909 304.497C219.909 304.644 220.028 304.762 220.175 304.762H233.835C233.982 304.762 234.101 304.644 234.101 304.497C234.101 304.35 233.982 304.231 233.835 304.231Z" fill="#75B5FD"/>
<path d="M235.361 305.932H220.175C220.028 305.932 219.909 306.051 219.909 306.198C219.909 306.345 220.028 306.464 220.175 306.464H235.361C235.508 306.464 235.627 306.345 235.627 306.198C235.627 306.051 235.508 305.932 235.361 305.932Z" fill="#75B5FD"/>
<path d="M231.307 307.633H220.175C220.028 307.633 219.909 307.752 219.909 307.899C219.909 308.046 220.028 308.165 220.175 308.165H231.307C231.453 308.165 231.572 308.046 231.572 307.899C231.572 307.752 231.453 307.633 231.307 307.633Z" fill="#75B5FD"/>
<path d="M231.537 324.601H220.175C220.028 324.601 219.909 324.72 219.909 324.867C219.909 325.013 220.028 325.132 220.175 325.132H231.537C231.683 325.132 231.802 325.013 231.802 324.867C231.802 324.72 231.683 324.601 231.537 324.601Z" fill="#75B5FD"/>
<path d="M235.361 326.302H220.175C220.028 326.302 219.909 326.421 219.909 326.568C219.909 326.715 220.028 326.834 220.175 326.834H235.361C235.508 326.834 235.627 326.715 235.627 326.568C235.627 326.421 235.508 326.302 235.361 326.302Z" fill="#75B5FD"/>
<path d="M229.577 328.003H220.175C220.028 328.003 219.909 328.122 219.909 328.268C219.909 328.415 220.028 328.534 220.175 328.534H229.577C229.723 328.534 229.842 328.415 229.842 328.268C229.842 328.122 229.723 328.003 229.577 328.003Z" fill="#75B5FD"/>
<path d="M235.361 329.704H220.175C220.028 329.704 219.909 329.823 219.909 329.969C219.909 330.116 220.028 330.235 220.175 330.235H235.361C235.508 330.235 235.627 330.116 235.627 329.969C235.627 329.823 235.508 329.704 235.361 329.704Z" fill="#75B5FD"/>
<path d="M233.222 331.405H220.175C220.028 331.405 219.909 331.524 219.909 331.671C219.909 331.818 220.028 331.937 220.175 331.937H233.222C233.369 331.937 233.488 331.818 233.488 331.671C233.488 331.524 233.369 331.405 233.222 331.405Z" fill="#75B5FD"/>
<path d="M228.012 333.107H220.175C220.028 333.107 219.909 333.225 219.909 333.372C219.909 333.519 220.028 333.638 220.175 333.638H228.012C228.159 333.638 228.278 333.519 228.278 333.372C228.278 333.225 228.159 333.107 228.012 333.107Z" fill="#75B5FD"/>
<path d="M189.318 295.338C189.318 301.002 184.726 305.593 179.063 305.593C173.399 305.593 168.808 301.002 168.808 295.338C168.808 289.674 173.399 285.083 179.063 285.083C184.726 285.083 189.318 289.674 189.318 295.338Z" fill="white"/>
<rect x="150.5" y="251" width="32" height="6" rx="1" fill="#E0EBFC"/>
</g>
<rect x="141.75" y="241.25" width="106.5" height="106.5" rx="4.75" stroke="#3898FC" stroke-width="1.5"/>
</g>
<defs>
<linearGradient id="paint0_linear_1496_8954" x1="487.747" y1="252.521" x2="487.747" y2="159.162" gradientUnits="userSpaceOnUse">
<stop stop-color="white" stop-opacity="0.2"/>
<stop offset="0.6741" stop-color="white" stop-opacity="0.6265"/>
<stop offset="0.7903" stop-color="white" stop-opacity="0.7"/>
</linearGradient>
<linearGradient id="paint1_linear_1496_8954" x1="515.412" y1="252.521" x2="515.412" y2="159.162" gradientUnits="userSpaceOnUse">
<stop stop-color="white" stop-opacity="0.2"/>
<stop offset="0.6741" stop-color="white" stop-opacity="0.6265"/>
<stop offset="0.7903" stop-color="white" stop-opacity="0.7"/>
</linearGradient>
<clipPath id="clip0_1496_8954">
<rect width="750" height="500" fill="white"/>
</clipPath>
<clipPath id="clip1_1496_8954">
<rect x="132" y="151" width="31" height="31" rx="4" fill="white"/>
</clipPath>
<clipPath id="clip2_1496_8954">
<rect x="404" y="88" width="46" height="46" rx="4" fill="white"/>
</clipPath>
<clipPath id="clip3_1496_8954">
<rect width="28" height="28" fill="white" transform="translate(272 284)"/>
</clipPath>
<clipPath id="clip4_1496_8954">
<rect x="142.5" y="242" width="105" height="105" rx="4" fill="white"/>
</clipPath>
</defs>
</svg>
