<svg width="331" height="247" viewBox="0 0 331 247" fill="none" xmlns="http://www.w3.org/2000/svg">
<path d="M330.383 216.334H0V216.499H330.383V216.334Z" fill="#EBEBEB"/>
<path d="M156.602 186.865H29.0143C28.0148 186.863 27.0568 186.465 26.3507 185.757C25.6445 185.05 25.2479 184.091 25.2479 183.092V3.73994C25.2566 2.74616 25.6571 1.79595 26.3623 1.0957C27.0675 0.395441 28.0205 0.00170239 29.0143 0H156.602C157.602 0 158.562 0.397509 159.27 1.10508C159.977 1.81265 160.375 2.77232 160.375 3.77298V183.092C160.375 184.092 159.977 185.052 159.27 185.76C158.562 186.467 157.602 186.865 156.602 186.865ZM29.0143 0.132154C28.0586 0.133904 27.1426 0.51478 26.4675 1.19118C25.7923 1.86758 25.4131 2.78424 25.4131 3.73994V183.092C25.4131 184.047 25.7923 184.964 26.4675 185.641C27.1426 186.317 28.0586 186.698 29.0143 186.7H156.602C157.558 186.698 158.475 186.317 159.151 185.641C159.827 184.965 160.208 184.048 160.209 183.092V3.73994C160.208 2.78363 159.827 1.86699 159.151 1.19078C158.475 0.514565 157.558 0.1339 156.602 0.132154H29.0143Z" fill="#EBEBEB"/>
<path d="M299.532 186.865H171.938C170.938 186.863 169.979 186.465 169.272 185.758C168.565 185.051 168.167 184.092 168.165 183.092V3.73994C168.175 2.74556 168.577 1.79535 169.284 1.09528C169.99 0.39521 170.944 0.00168382 171.938 0H299.532C300.525 0.00343896 301.476 0.397946 302.18 1.09801C302.884 1.79808 303.283 2.7473 303.292 3.73994V183.092C303.292 184.09 302.896 185.048 302.191 185.755C301.487 186.462 300.53 186.861 299.532 186.865ZM171.938 0.132154C170.982 0.1339 170.065 0.514565 169.389 1.19078C168.713 1.86699 168.332 2.78363 168.33 3.73994V183.092C168.332 184.048 168.713 184.965 169.389 185.641C170.065 186.317 170.982 186.698 171.938 186.7H299.532C300.488 186.698 301.405 186.317 302.081 185.641C302.757 184.965 303.138 184.048 303.14 183.092V3.73994C303.138 2.78363 302.757 1.86699 302.081 1.19078C301.405 0.514565 300.488 0.1339 299.532 0.132154H171.938Z" fill="#EBEBEB"/>
<path d="M297.279 226.965H280.099V227.13H297.279V226.965Z" fill="#EBEBEB"/>
<path d="M235.253 228.764H205.498V228.929H235.253V228.764Z" fill="#EBEBEB"/>
<path d="M279.438 220.836H239.27V221.001H279.438V220.836Z" fill="#EBEBEB"/>
<path d="M47.3704 221.945H34.6638V222.111H47.3704V221.945Z" fill="#EBEBEB"/>
<path d="M89.7915 221.945H53.2578V222.111H89.7915V221.945Z" fill="#EBEBEB"/>
<path d="M161.32 224.732H112.112V224.898H161.32V224.732Z" fill="#EBEBEB"/>
<path d="M250.16 212.951H255.446V115.125H250.16V212.951Z" fill="#F0F0F0"/>
<path d="M224.793 216.322H254.058V212.946H224.793V216.322Z" fill="#F0F0F0"/>
<path d="M250.166 115.119H223.392V212.946H250.166V115.119Z" fill="#F5F5F5"/>
<path d="M247.312 166.066H226.246V183.537H247.312V166.066Z" fill="#F0F0F0"/>
<path d="M247.312 188.926H226.246V206.396H247.312V188.926Z" fill="#F0F0F0"/>
<path d="M233.971 175.996H239.581C240.011 175.996 240.36 175.647 240.36 175.216V174.377C240.36 173.947 240.011 173.598 239.581 173.598H233.971C233.54 173.598 233.191 173.947 233.191 174.377V175.216C233.191 175.647 233.54 175.996 233.971 175.996Z" fill="#F5F5F5"/>
<path d="M233.971 198.859H239.581C240.011 198.859 240.36 198.51 240.36 198.08V197.241C240.36 196.81 240.011 196.461 239.581 196.461H233.971C233.54 196.461 233.191 196.81 233.191 197.241V198.08C233.191 198.51 233.54 198.859 233.971 198.859Z" fill="#F5F5F5"/>
<path d="M247.312 120.518H226.246V137.988H247.312V120.518Z" fill="#F0F0F0"/>
<path d="M247.312 143.197H226.246V160.668H247.312V143.197Z" fill="#F0F0F0"/>
<path d="M233.971 130.449H239.581C240.011 130.449 240.36 130.1 240.36 129.67V128.83C240.36 128.4 240.011 128.051 239.581 128.051H233.971C233.54 128.051 233.191 128.4 233.191 128.83V129.67C233.191 130.1 233.54 130.449 233.971 130.449Z" fill="#F5F5F5"/>
<path d="M233.971 153.131H239.581C240.011 153.131 240.36 152.782 240.36 152.351V151.512C240.36 151.081 240.011 150.732 239.581 150.732H233.971C233.54 150.732 233.191 151.081 233.191 151.512V152.351C233.191 152.782 233.54 153.131 233.971 153.131Z" fill="#F5F5F5"/>
<path d="M279.465 212.951H295.323V115.125H279.465V212.951Z" fill="#F0F0F0"/>
<path d="M254.078 216.322H293.691V212.946H254.078V216.322Z" fill="#F0F0F0"/>
<path d="M279.465 115.119H252.69V212.946H279.465V115.119Z" fill="#F5F5F5"/>
<path d="M276.61 166.066H255.545V183.537H276.61V166.066Z" fill="#F0F0F0"/>
<path d="M276.61 188.926H255.545V206.396H276.61V188.926Z" fill="#F0F0F0"/>
<path d="M263.269 175.996H268.879C269.31 175.996 269.659 175.647 269.659 175.216V174.377C269.659 173.947 269.31 173.598 268.879 173.598H263.269C262.839 173.598 262.489 173.947 262.489 174.377V175.216C262.489 175.647 262.839 175.996 263.269 175.996Z" fill="#F5F5F5"/>
<path d="M263.269 198.859H268.879C269.31 198.859 269.659 198.51 269.659 198.08V197.241C269.659 196.81 269.31 196.461 268.879 196.461H263.269C262.839 196.461 262.489 196.81 262.489 197.241V198.08C262.489 198.51 262.839 198.859 263.269 198.859Z" fill="#F5F5F5"/>
<path d="M276.61 120.518H255.545V137.988H276.61V120.518Z" fill="#F0F0F0"/>
<path d="M276.61 143.197H255.545V160.668H276.61V143.197Z" fill="#F0F0F0"/>
<path d="M263.269 130.449H268.879C269.31 130.449 269.659 130.1 269.659 129.67V128.83C269.659 128.4 269.31 128.051 268.879 128.051H263.269C262.839 128.051 262.489 128.4 262.489 128.83V129.67C262.489 130.1 262.839 130.449 263.269 130.449Z" fill="#F5F5F5"/>
<path d="M263.269 153.131H268.879C269.31 153.131 269.659 152.782 269.659 152.351V151.512C269.659 151.081 269.31 150.732 268.879 150.732H263.269C262.839 150.732 262.489 151.081 262.489 151.512V152.351C262.489 152.782 262.839 153.131 263.269 153.131Z" fill="#F5F5F5"/>
<path d="M193.36 94.6992L282.372 94.6992V16.557L193.36 16.557V94.6992Z" fill="#E6E6E6"/>
<path d="M183.819 13.5195H288.134C288.369 13.5195 288.594 13.6128 288.76 13.7789C288.926 13.9449 289.019 14.1701 289.019 14.405C289.018 14.6386 288.923 14.8622 288.758 15.0268C288.592 15.1914 288.368 15.2838 288.134 15.2838H183.819C183.586 15.282 183.364 15.1889 183.199 15.0245C183.035 14.86 182.942 14.6375 182.94 14.405C182.94 14.1713 183.032 13.9471 183.197 13.7812C183.361 13.6153 183.585 13.5213 183.819 13.5195Z" fill="#E6E6E6"/>
<path d="M189.587 94.6992L280.614 94.6992V16.557L189.587 16.557V94.6992Z" fill="#F0F0F0"/>
<path d="M193.36 94.6992H282.372V97.2035H190.757L193.36 94.6992Z" fill="#E6E6E6"/>
<path d="M183.29 94.6992H274.317L271.714 97.2035H180.687L183.29 94.6992Z" fill="#F0F0F0"/>
<path d="M275.322 89.4157V21.8457L194.873 21.8457V89.4157H275.322Z" fill="#FAFAFA"/>
<path d="M257.058 89.4157L226.022 21.8457H211.373L242.409 89.4157H257.058Z" fill="white"/>
<path d="M239.264 89.4157L208.227 21.8457H202.512L233.548 89.4157H239.264Z" fill="white"/>
<path d="M195.541 89.4157V21.8457H194.867V89.4157H195.541Z" fill="#E6E6E6"/>
<g opacity="0.4">
<path d="M275.256 76.416H284.354V11.9318H275.256V76.416Z" fill="#F0F0F0"/>
<path d="M271.714 76.416H278.804V11.9318H271.714V76.416Z" fill="#E6E6E6"/>
<path d="M266.163 76.416H275.262V11.9318H266.163V76.416Z" fill="#F0F0F0"/>
<path d="M262.615 76.416H269.705V11.9318H262.615V76.416Z" fill="#E6E6E6"/>
<path d="M257.058 76.416H266.157V11.9318H257.058V76.416Z" fill="#F0F0F0"/>
</g>
<g opacity="0.4">
<path d="M198.256 76.416H203.503V11.9318H198.256V76.416Z" fill="#F0F0F0"/>
<path d="M196.215 76.416H200.298V11.9318H196.215V76.416Z" fill="#E6E6E6"/>
<path d="M193.01 76.416H198.256V11.9318H193.01V76.416Z" fill="#F0F0F0"/>
<path d="M190.975 76.416H195.058V11.9318H190.975V76.416Z" fill="#E6E6E6"/>
<path d="M187.763 76.416H193.01V11.9318H187.763V76.416Z" fill="#F0F0F0"/>
</g>
<path d="M108.511 63.8946H121.105L119.619 31.9531H108.511V63.8946Z" fill="#F5F5F5"/>
<path d="M128.222 65.6211L130.937 79.8077H128.222L111.564 65.6211H128.222Z" fill="#F5F5F5"/>
<path d="M130.937 65.6211V79.8077L114.28 65.6211H130.937Z" fill="#E6E6E6"/>
<path d="M62.8917 65.6211L65.6075 79.8077H62.8917L46.2338 65.6211H62.8917Z" fill="#F5F5F5"/>
<path d="M65.6075 65.6211V79.8077L48.9496 65.6211H65.6075Z" fill="#E6E6E6"/>
<path d="M143.168 63.9434H125.05V65.9917H143.168V63.9434Z" fill="#E6E6E6"/>
<path d="M34.9744 65.9922L125.05 65.9922V63.9438L34.9744 63.9438V65.9922Z" fill="#F5F5F5"/>
<path d="M90.003 63.8952H117.042L120.385 25.1875H93.3465L90.003 63.8952Z" fill="#E6E6E6"/>
<path d="M88.6022 63.8952H115.641L118.984 25.1875H91.9456L88.6022 63.8952Z" fill="#F0F0F0"/>
<path d="M113.374 59.6083L116.434 29.4707H94.2187L91.1594 59.6083H113.374Z" fill="white"/>
<path d="M77.8978 63.8973H86.5736L85.5494 41.9004H77.8978V63.8973Z" fill="#E0E0E0"/>
<path d="M65.1582 63.8956H83.772L86.0781 37.2402H67.4577L65.1582 63.8956Z" fill="#F0F0F0"/>
<path d="M64.1935 63.8956H82.8139L85.1134 37.2402H66.493L64.1935 63.8956Z" fill="#F5F5F5"/>
<path d="M81.2479 60.9434L83.3491 40.1953H68.059L65.9511 60.9434H81.2479Z" fill="#E0E0E0"/>
<path d="M173.359 119.889C173.42 120.628 173.261 121.368 172.902 122.016C172.543 122.665 171.999 123.192 171.34 123.531C170.681 123.871 169.936 124.007 169.199 123.922C168.463 123.838 167.768 123.537 167.202 123.058C166.637 122.579 166.226 121.942 166.023 121.229C165.819 120.517 165.831 119.759 166.058 119.054C166.285 118.348 166.716 117.725 167.297 117.265C167.878 116.804 168.583 116.526 169.321 116.466C169.811 116.425 170.304 116.482 170.773 116.632C171.241 116.782 171.675 117.022 172.05 117.34C172.425 117.658 172.733 118.047 172.958 118.484C173.183 118.922 173.319 119.399 173.359 119.889Z" fill="#E0E0E0"/>
<path d="M180.317 121.843C180.378 122.582 180.219 123.323 179.86 123.971C179.501 124.619 178.957 125.147 178.298 125.486C177.639 125.825 176.894 125.961 176.157 125.877C175.421 125.793 174.726 125.492 174.16 125.013C173.595 124.533 173.184 123.897 172.981 123.184C172.777 122.471 172.789 121.714 173.016 121.008C173.243 120.302 173.674 119.68 174.255 119.219C174.836 118.759 175.54 118.481 176.279 118.421C177.268 118.34 178.249 118.655 179.006 119.297C179.763 119.939 180.234 120.854 180.317 121.843Z" fill="#E0E0E0"/>
<path d="M185.345 119.601C185.405 120.34 185.245 121.08 184.885 121.727C184.525 122.375 183.98 122.901 183.321 123.24C182.662 123.578 181.917 123.713 181.181 123.628C180.445 123.543 179.75 123.241 179.185 122.762C178.621 122.282 178.211 121.645 178.008 120.933C177.805 120.22 177.818 119.463 178.045 118.758C178.272 118.052 178.703 117.43 179.284 116.97C179.865 116.51 180.569 116.232 181.308 116.172C182.297 116.093 183.278 116.41 184.035 117.053C184.791 117.696 185.262 118.612 185.345 119.601Z" fill="#E0E0E0"/>
<path d="M190.651 120.999C190.71 121.736 190.549 122.473 190.189 123.119C189.829 123.764 189.285 124.289 188.627 124.626C187.969 124.962 187.226 125.097 186.492 125.012C185.758 124.926 185.065 124.626 184.502 124.147C183.938 123.668 183.529 123.034 183.326 122.323C183.124 121.612 183.136 120.857 183.362 120.153C183.588 119.449 184.017 118.828 184.596 118.368C185.175 117.909 185.877 117.631 186.614 117.569C187.104 117.529 187.598 117.585 188.066 117.736C188.535 117.886 188.969 118.128 189.344 118.446C189.719 118.765 190.028 119.154 190.252 119.592C190.476 120.03 190.612 120.508 190.651 120.999Z" fill="#E0E0E0"/>
<path d="M195.415 121.58C195.415 121.58 194.979 131.981 178.275 131.981C161.571 131.981 161.095 121.58 161.095 121.58H195.415Z" fill="#F0F0F0"/>
<path d="M39.5667 216.334H45.6392L45.6392 132H39.5667L39.5667 216.334Z" fill="#E6E6E6"/>
<path d="M37.9478 216.334H41.5226L41.5226 132H37.9478L37.9478 216.334Z" fill="#F0F0F0"/>
<path d="M123.041 132H36.8378V138.324H123.041V132Z" fill="#F0F0F0"/>
<path d="M204.679 216.334H210.751V132H204.679V216.334Z" fill="#E6E6E6"/>
<path d="M203.542 216.334H207.117V132H203.542V216.334Z" fill="#F0F0F0"/>
<path d="M211.835 132H125.632V138.324H211.835V132Z" fill="#E6E6E6"/>
<path d="M123.55 216.334H129.623V132H123.55L123.55 216.334Z" fill="#E6E6E6"/>
<path d="M121.931 216.334H125.506L125.506 132H121.931L121.931 216.334Z" fill="#F0F0F0"/>
<path d="M143.479 103.953H98.474L90.4523 130.529H135.464L143.479 103.953Z" fill="#E6E6E6"/>
<path d="M135.464 130.525L135.285 131.999H90.2739L90.4523 130.525H135.464Z" fill="#E6E6E6"/>
<path d="M142.098 103.953H97.0864L89.0714 130.529H134.076L142.098 103.953Z" fill="#F0F0F0"/>
<path d="M133.197 129.319L140.479 105.168H97.9718L90.6836 129.319H133.197Z" fill="white"/>
<path d="M122.354 130.525L122.169 131.999H72.605L72.7835 130.525H122.354Z" fill="#F0F0F0"/>
<path d="M165.192 246.171C235.948 246.171 293.308 242.822 293.308 238.691C293.308 234.56 235.948 231.211 165.192 231.211C94.4351 231.211 37.0756 234.56 37.0756 238.691C37.0756 242.822 94.4351 246.171 165.192 246.171Z" fill="#F5F5F5"/>
<path d="M249.472 35.774H173.425C170.816 35.8169 168.318 36.8304 166.417 38.6167C164.515 40.403 163.348 42.8338 163.143 45.4344L151.315 227.515C151.219 228.755 151.382 230.001 151.793 231.175C152.205 232.348 152.856 233.423 153.706 234.331C154.555 235.239 155.585 235.961 156.728 236.449C157.872 236.938 159.105 237.183 160.348 237.169H236.422C239.03 237.128 241.529 236.116 243.43 234.33C245.331 232.545 246.498 230.115 246.704 227.515L255.188 96.6438C255.548 96.518 255.865 96.2909 256.099 95.9896C256.334 95.6884 256.476 95.3259 256.509 94.9456L258.029 71.5281C258.056 71.1643 257.963 70.8017 257.765 70.4953C257.567 70.1889 257.275 69.9553 256.932 69.8299L258.512 45.4344C258.608 44.1937 258.445 42.9466 258.033 41.7723C257.621 40.598 256.969 39.5223 256.119 38.6137C255.269 37.705 254.239 36.9833 253.095 36.4944C251.95 36.0055 250.717 35.7602 249.472 35.774Z" fill="#FF725E"/>
<path d="M156.985 82.9171H158.478C158.94 82.9088 159.383 82.729 159.72 82.4128C160.057 82.0965 160.264 81.6663 160.302 81.2057L160.963 71.4263C160.979 71.2063 160.95 70.9853 160.876 70.7772C160.803 70.5691 160.687 70.3786 160.536 70.2177C160.385 70.0568 160.202 69.929 159.999 69.8425C159.796 69.7559 159.578 69.7125 159.357 69.7149H157.87C157.408 69.7218 156.964 69.901 156.627 70.2175C156.29 70.5341 156.083 70.9651 156.047 71.4263L155.386 81.2057C155.369 81.4251 155.399 81.6456 155.472 81.8532C155.545 82.0608 155.66 82.251 155.81 82.4118C155.96 82.5726 156.142 82.7006 156.345 82.7875C156.547 82.8745 156.765 82.9186 156.985 82.9171Z" fill="#FF725E"/>
<path d="M155.855 100.378H157.342C157.806 100.37 158.25 100.189 158.588 99.8718C158.926 99.5543 159.134 99.1224 159.172 98.66L159.833 88.8873C159.849 88.6672 159.82 88.4462 159.746 88.2381C159.673 88.0301 159.557 87.8396 159.406 87.6786C159.255 87.5177 159.072 87.39 158.869 87.3034C158.666 87.2169 158.448 87.1734 158.227 87.1759H156.74C156.277 87.1826 155.833 87.3616 155.495 87.678C155.156 87.9944 154.948 88.4255 154.91 88.8873L154.249 98.66C154.231 98.8808 154.259 99.103 154.331 99.3123C154.404 99.5216 154.52 99.7133 154.671 99.8752C154.822 100.037 155.006 100.165 155.21 100.252C155.414 100.339 155.633 100.382 155.855 100.378Z" fill="#FF725E"/>
<path d="M232.378 237.169H156.331C155.087 237.183 153.855 236.938 152.711 236.449C151.567 235.96 150.538 235.239 149.688 234.331C148.839 233.423 148.188 232.348 147.776 231.175C147.364 230.001 147.202 228.755 147.298 227.515L159.099 45.4343C159.306 42.8331 160.475 40.4023 162.377 38.6161C164.279 36.83 166.778 35.8167 169.387 35.7739H245.428C246.672 35.761 247.905 36.007 249.049 36.4963C250.192 36.9856 251.222 37.7075 252.071 38.6161C252.921 39.5246 253.572 40.6 253.983 41.7738C254.395 42.9476 254.557 44.1942 254.461 45.4343L242.66 227.515C242.455 230.115 241.287 232.545 239.386 234.33C237.485 236.116 234.986 237.128 232.378 237.169Z" fill="#263238"/>
<path opacity="0.2" d="M199.524 229.429C202.188 226.85 202.388 222.736 199.972 220.239C197.555 217.743 193.437 217.81 190.773 220.389C188.109 222.968 187.908 227.082 190.325 229.578C192.741 232.074 196.86 232.007 199.524 229.429Z" fill="white"/>
<path d="M239.25 213.533H152.802C152.508 213.533 152.217 213.472 151.947 213.355C151.677 213.238 151.433 213.066 151.232 212.851C151.031 212.637 150.876 212.383 150.777 212.106C150.677 211.828 150.636 211.534 150.655 211.24L160.771 55.0878C160.816 54.5485 161.061 54.0455 161.459 53.6785C161.856 53.3114 162.377 53.1069 162.919 53.1055H249.373C249.668 53.1058 249.959 53.1664 250.229 53.2836C250.499 53.4008 250.742 53.5722 250.943 53.787C251.145 54.0019 251.3 54.2557 251.399 54.5329C251.498 54.81 251.54 55.1046 251.521 55.3983L241.398 211.518C241.363 212.063 241.121 212.575 240.722 212.95C240.323 213.324 239.797 213.532 239.25 213.533Z" fill="white"/>
<path opacity="0.2" d="M215.13 151.987C224.8 142.626 225.527 127.691 216.755 118.629C207.983 109.568 193.033 109.811 183.363 119.172C173.693 128.533 172.965 143.467 181.737 152.529C190.51 161.59 205.46 161.348 215.13 151.987Z" fill="#6EC125"/>
<path opacity="0.2" d="M196.908 171.964C176.841 171.964 161.571 155.636 162.872 135.569C164.174 115.501 181.552 99.1738 201.626 99.1738C221.7 99.1738 236.964 115.501 235.662 135.569C234.361 155.636 216.956 171.964 196.908 171.964ZM201.534 99.8346C181.83 99.8346 164.762 115.865 163.487 135.569C162.212 155.273 177.198 171.303 196.902 171.303C216.606 171.303 233.673 155.273 234.955 135.569C236.237 115.865 221.264 99.8346 201.534 99.8346Z" fill="#6EC125"/>
<path d="M193.605 147.01L191.622 143.184C187.327 134.852 177.436 127.405 173.98 125.238L177.244 120.355C181.334 122.918 189.508 129.268 194.635 136.814C204.117 125.581 217.518 114.011 235.458 101.529L238.517 106.155C219.355 119.489 205.564 131.68 196.393 143.429L193.605 147.01Z" fill="#148412"/>
<path opacity="0.2" d="M192.667 46.1668C193.745 45.1236 193.824 43.4575 192.845 42.4454C191.865 41.4333 190.197 41.4585 189.119 42.5017C188.042 43.5449 187.962 45.2111 188.942 46.2232C189.922 47.2353 191.59 47.21 192.667 46.1668Z" fill="white"/>
<path opacity="0.2" d="M200.153 41.6994H222.018C222.357 41.6954 222.694 41.7625 223.007 41.8965C223.319 42.0304 223.6 42.2281 223.831 42.477C224.063 42.7259 224.24 43.0204 224.351 43.3416C224.462 43.6629 224.504 44.0038 224.476 44.3425C224.421 45.0527 224.104 45.7172 223.586 46.206C223.068 46.6948 222.386 46.9728 221.674 46.9855H199.816C199.476 46.9884 199.139 46.9206 198.827 46.7864C198.515 46.6522 198.234 46.4546 198.002 46.206C197.77 45.9575 197.593 45.6635 197.481 45.3427C197.369 45.0218 197.325 44.6812 197.351 44.3425C197.405 43.6322 197.722 42.9677 198.241 42.4789C198.759 41.9901 199.441 41.7121 200.153 41.6994Z" fill="white"/>
<path d="M118.766 90.5233C117.649 91.6664 116.453 92.9285 115.35 94.1839C114.246 95.4394 113.143 96.7279 112.106 98.0494C111.068 99.3709 110.123 100.692 109.145 102.087L108.485 103.124L107.824 104.175C107.606 104.525 107.407 104.882 107.216 105.245L106.687 106.216C106.472 106.772 106.349 107.359 106.324 107.954C106.271 108.72 106.271 109.488 106.324 110.254C106.453 111.906 106.674 113.549 106.985 115.176C107.275 116.842 107.645 118.513 108.035 120.178C108.425 121.844 108.855 123.529 109.291 125.167L106.846 126.086C105.344 122.854 104.085 119.514 103.079 116.095C102.569 114.333 102.178 112.538 101.91 110.723C101.776 109.755 101.708 108.779 101.705 107.802C101.69 106.651 101.884 105.507 102.28 104.426C102.432 104.056 102.511 103.91 102.617 103.686L102.921 103.058C103.119 102.642 103.324 102.225 103.582 101.822L104.242 100.607L104.943 99.4238C105.876 97.8657 106.893 96.3591 107.989 94.9108C109.073 93.4637 110.196 92.0562 111.379 90.6951C112.561 89.3339 113.757 88.052 115.132 86.7305L118.766 90.5233Z" fill="#B55B52"/>
<path d="M119.05 82.5977C115.469 82.7563 112.066 88.7032 112.066 88.7032L116.797 98.357C116.797 98.357 123.206 93.018 123.286 87.7847C123.339 84.3554 122.572 82.4325 119.05 82.5977Z" fill="#FF725E"/>
<path opacity="0.7" d="M119.05 82.5977C115.469 82.7563 112.066 88.7032 112.066 88.7032L116.797 98.357C116.797 98.357 123.206 93.018 123.286 87.7847C123.339 84.3554 122.572 82.4325 119.05 82.5977Z" fill="white"/>
<path opacity="0.2" d="M119.903 89.534C118.859 91.1133 118.356 95.21 118.198 97.0337C119.774 95.5005 121.111 93.7385 122.162 91.8071C121.455 90.0428 120.59 88.4966 119.903 89.534Z" fill="black"/>
<path d="M108.584 124.166L112.938 125.488L110.037 128.421C110.037 128.421 106.899 127.45 106.463 125.316L108.584 124.166Z" fill="#B55B52"/>
<path d="M115.575 128.809L114.841 131.617L110.037 128.393L112.938 125.459L115.575 128.809Z" fill="#B55B52"/>
<path d="M144.225 71.1317C144.087 71.5216 144.186 71.918 144.443 72.0105C144.701 72.103 145.018 71.8718 145.151 71.4819C145.283 71.0921 145.19 70.689 144.932 70.5965C144.675 70.504 144.364 70.7352 144.225 71.1317Z" fill="#263238"/>
<path d="M144.814 70.5762L145.851 70.6621C145.851 70.6621 145.111 71.2105 144.814 70.5762Z" fill="#263238"/>
<path d="M144.424 71.6328C144.463 72.6608 144.641 73.6788 144.952 74.6591C144.7 74.7251 144.437 74.7356 144.18 74.69C143.923 74.6444 143.68 74.5437 143.466 74.3948L144.424 71.6328Z" fill="#A02724"/>
<path d="M145.507 69.6059C145.46 69.5993 145.416 69.5788 145.381 69.547C145.346 69.5152 145.321 69.4736 145.309 69.4275C145.237 69.1288 145.097 68.8504 144.902 68.6135C144.706 68.3765 144.459 68.1872 144.179 68.0597C144.119 68.0373 144.07 67.9922 144.043 67.9341C144.016 67.876 144.012 67.8096 144.034 67.7491C144.044 67.7188 144.06 67.6909 144.082 67.667C144.103 67.6432 144.129 67.6239 144.158 67.6103C144.187 67.5967 144.219 67.5892 144.251 67.588C144.283 67.5869 144.315 67.5922 144.344 67.6037C144.704 67.76 145.022 67.9987 145.272 68.3006C145.522 68.6026 145.698 68.9591 145.785 69.3416C145.793 69.3728 145.794 69.4053 145.79 69.4372C145.785 69.4691 145.774 69.4997 145.758 69.5273C145.741 69.555 145.719 69.579 145.693 69.5982C145.667 69.6173 145.638 69.6312 145.606 69.6389L145.507 69.6059Z" fill="#263238"/>
<path d="M130.653 72.791C130.746 75.9164 130.429 81.5396 128.01 83.132C128.01 83.132 128.334 86.3433 133.957 87.4336C140.135 88.6296 137.413 84.9557 137.413 84.9557C134.175 83.502 134.671 81.0308 135.642 78.8106L130.653 72.791Z" fill="#B55B52"/>
<path d="M149.016 94.1816C149.571 95.6948 150.205 97.3335 150.879 98.8863C151.553 100.439 152.201 102.012 152.987 103.512C153.774 105.012 154.54 106.518 155.373 107.978C155.802 108.699 156.232 109.419 156.694 110.106C156.919 110.463 157.15 110.807 157.395 111.13L157.751 111.632L157.93 111.89L158.022 112.016L158.082 112.082C158.511 112.571 159.005 113 159.549 113.357C160.204 113.804 160.883 114.215 161.584 114.586C163.031 115.366 164.584 116.073 166.163 116.74C167.742 117.408 169.354 118.062 170.986 118.637C172.619 119.211 174.29 119.819 175.896 120.381L175.281 122.925C171.74 122.333 168.242 121.51 164.808 120.46C163.05 119.924 161.325 119.287 159.641 118.551C158.758 118.159 157.898 117.718 157.064 117.229C156.097 116.678 155.221 115.98 154.467 115.161L154.309 114.983L154.196 114.844L153.978 114.573L153.542 114.018C153.245 113.654 152.961 113.284 152.696 112.908C152.135 112.161 151.619 111.395 151.111 110.622C150.108 109.088 149.184 107.504 148.342 105.877C147.503 104.258 146.71 102.626 145.983 100.961C145.256 99.296 144.602 97.6573 144.001 95.8336L149.016 94.1816Z" fill="#B55B52"/>
<path d="M175.024 120.366L178.922 118.859L178.731 123.359C178.731 123.359 175.572 124.198 174.105 122.606L175.024 120.366Z" fill="#B55B52"/>
<path d="M181.863 120.406L183.198 123.28L178.731 123.359L178.922 118.859L181.863 120.406Z" fill="#B55B52"/>
<path d="M117.207 233.178L122.367 233.561L123.9 221.713L118.74 221.33L117.207 233.178Z" fill="#B55B52"/>
<path d="M76.3317 206.375L79.7016 210.379L89.7056 203.95L86.3357 199.945L76.3317 206.375Z" fill="#B55B52"/>
<path d="M81.2742 209.868L78.5585 204.647C78.5153 204.557 78.4402 204.485 78.3477 204.446C78.2551 204.407 78.1514 204.404 78.0563 204.436L73.7415 205.929C73.6332 205.973 73.5354 206.039 73.4545 206.123C73.3736 206.207 73.3114 206.307 73.2721 206.417C73.2327 206.527 73.2171 206.644 73.2263 206.76C73.2355 206.877 73.2692 206.99 73.3252 207.092C74.3032 208.896 74.8648 209.735 76.0542 212.015C76.7943 213.422 77.7259 215.563 78.7369 217.513C79.7479 219.462 81.6773 218.596 81.4262 217.691C80.2897 213.654 81.043 212.537 81.4262 210.786C81.4807 210.471 81.4271 210.148 81.2742 209.868Z" fill="#263238"/>
<path d="M122.691 232.828H116.89C116.79 232.827 116.693 232.862 116.616 232.926C116.54 232.99 116.489 233.08 116.473 233.178L115.694 237.764C115.677 237.878 115.686 237.995 115.719 238.106C115.752 238.216 115.808 238.319 115.884 238.406C115.96 238.493 116.053 238.563 116.158 238.61C116.263 238.658 116.378 238.683 116.493 238.683C118.522 238.65 119.493 238.531 122.043 238.531C123.616 238.531 126.854 238.696 129.021 238.696C131.189 238.696 131.36 236.555 130.462 236.357C126.438 235.491 124.878 234.288 123.543 233.145C123.308 232.938 123.005 232.826 122.691 232.828Z" fill="#263238"/>
<path opacity="0.2" d="M123.9 221.713L123.048 228.3L117.907 227.785L118.74 221.336L123.9 221.713Z" fill="black"/>
<path opacity="0.2" d="M86.3357 199.945L89.7056 203.95L85.5626 206.612L82.0671 202.687L86.3357 199.945Z" fill="black"/>
<path d="M117.616 114.017L138.312 118.028C148.091 89.2381 145.752 88.2932 145.752 88.2932C144.232 87.4717 142.663 86.7435 141.054 86.1126L140.77 86.0069C139.448 85.5246 139.171 85.4519 137.4 84.9365C134.347 84.2162 131.512 83.6149 128.004 83.1194L127.343 83.0269C126.682 82.9476 126.074 82.8815 125.466 82.822C125.057 82.7758 124.647 82.7493 124.257 82.7229L122.936 82.6502C120.676 82.5379 119.057 82.5709 119.057 82.5709C120.193 100.55 119.328 105.724 117.616 114.017Z" fill="#FF725E"/>
<path opacity="0.7" d="M117.616 114.017L138.312 118.028C148.091 89.2381 145.752 88.2932 145.752 88.2932C144.232 87.4717 142.663 86.7435 141.054 86.1126L140.77 86.0069C139.448 85.5246 139.171 85.4519 137.4 84.9365C134.347 84.2162 131.512 83.6149 128.004 83.1194L127.343 83.0269C126.682 82.9476 126.074 82.8815 125.466 82.822C125.057 82.7758 124.647 82.7493 124.257 82.7229L122.936 82.6502C120.676 82.5379 119.057 82.5709 119.057 82.5709C120.193 100.55 119.328 105.724 117.616 114.017Z" fill="white"/>
<path opacity="0.2" d="M142.778 95.011L140.908 94.707C140.908 97.1717 141.847 101.401 142.759 104.09C143.532 101.447 144.133 99.2729 144.589 97.4426L142.778 95.011Z" fill="black"/>
<path d="M145.032 87.9431C148.091 88.921 150.318 94.9736 151.15 97.5836L145.203 104.568C145.203 104.568 139.111 95.8128 140.082 93.097C141.034 90.269 143.551 87.4607 145.032 87.9431Z" fill="#FF725E"/>
<path opacity="0.7" d="M145.032 87.9431C148.091 88.921 150.318 94.9736 151.15 97.5836L145.203 104.568C145.203 104.568 139.111 95.8128 140.082 93.097C141.034 90.269 143.551 87.4607 145.032 87.9431Z" fill="white"/>
<path d="M147.014 65.5943C146.399 67.3982 143.71 68.1184 141.034 67.2132C138.358 66.3079 136.666 64.0943 137.281 62.2905C137.895 60.4866 140.585 59.7663 143.228 60.6782C145.871 61.59 147.622 63.7904 147.014 65.5943Z" fill="#263238"/>
<path d="M131.493 65.0995C130.118 70.0156 129.431 72.064 131.004 75.4471C133.369 80.5416 139.699 81.3412 142.514 76.9735C145.045 73.0486 146.869 65.6678 142.825 61.9741C141.971 61.1493 140.917 60.5613 139.767 60.2682C138.617 59.975 137.411 59.9868 136.267 60.3023C135.122 60.6179 134.08 61.2263 133.243 62.0676C132.406 62.9088 131.803 63.9539 131.493 65.0995Z" fill="#B55B52"/>
<path d="M139.171 59.3562C137.188 60.4927 132.979 53.3762 127.753 59.3562C124.013 63.6445 126.398 69.9284 126.398 69.9284C126.398 69.9284 123.418 64.6885 121.039 67.2457C117.934 70.5495 121.145 82.3706 131.387 81.5579C141.629 80.7452 140.637 72.4327 140.637 72.4327C140.637 72.4327 145.435 67.5563 145.197 63.182C145.018 59.9046 142.474 57.4862 139.171 59.3562Z" fill="#263238"/>
<path d="M140.413 69.3181C140.157 70.2329 140.19 71.2041 140.505 72.0999C140.928 73.362 141.9 73.3686 142.415 72.4964C142.93 71.6242 143.214 70.111 142.481 69.0935C141.748 68.0759 140.743 68.3071 140.413 69.3181Z" fill="#B55B52"/>
<path d="M132.814 116.958C132.814 116.958 130.607 124.61 127.772 134.706C125.889 141.433 123.722 149.243 121.746 156.597C120.616 160.806 119.552 164.864 118.634 168.491C113.44 189.008 87.5383 206.644 87.5383 206.644L82.5231 201.126C82.5231 201.126 99.9277 186.471 104.989 167.328C115.211 128.469 109.463 121.914 117.61 114.018L132.814 116.958Z" fill="#263238"/>
<path opacity="0.2" d="M130.581 123.813C129.814 126.78 128.849 130.526 127.786 134.716C125.902 141.442 123.735 149.253 121.759 156.607C120.914 147.224 120.438 129.971 127.343 124.606C128.704 123.562 129.781 123.344 130.581 123.813Z" fill="black"/>
<path d="M87.9678 207.432L81.7037 200.54L83.6001 198.637L91.2848 205.879L87.9678 207.432Z" fill="#FF725E"/>
<path opacity="0.7" d="M87.9678 207.432L81.7037 200.54L83.6001 198.637L91.2848 205.879L87.9678 207.432Z" fill="white"/>
<path d="M82.2192 212.668C82.1561 212.666 82.0937 212.655 82.0341 212.635C81.4196 212.41 81.0298 211.234 80.8514 210.553C80.8456 210.53 80.8469 210.506 80.8552 210.483C80.8634 210.461 80.8782 210.442 80.8976 210.428C80.9168 210.414 80.94 210.406 80.9637 210.406C80.9874 210.406 81.0106 210.414 81.0298 210.428C81.2148 210.533 82.8403 211.485 82.8733 212.152C82.8788 212.225 82.8645 212.298 82.8319 212.363C82.7993 212.428 82.7497 212.483 82.6883 212.522C82.5533 212.623 82.3876 212.675 82.2192 212.668ZM81.1685 210.785C81.4395 211.677 81.7831 212.278 82.12 212.397C82.1921 212.419 82.2686 212.423 82.3425 212.408C82.4164 212.393 82.4853 212.36 82.5429 212.311C82.6288 212.251 82.6354 212.192 82.6288 212.152C82.5958 211.809 81.8095 211.188 81.1685 210.785Z" fill="#FF725E"/>
<path d="M137.981 118.025C137.981 118.025 139.303 158.873 136.382 174.263C133.382 190.299 124.224 226.641 124.224 226.641L116.784 225.683C116.784 225.683 121.488 188.905 123.491 173.007C125.665 155.669 122.83 115.064 122.83 115.064L137.981 118.025Z" fill="#263238"/>
<path d="M125.823 227.099L115.218 225.731L115.343 223.207L126.887 223.709L125.823 227.099Z" fill="#FF725E"/>
<path opacity="0.7" d="M125.823 227.099L115.218 225.731L115.343 223.207L126.887 223.709L125.823 227.099Z" fill="white"/>
<path d="M82.4703 211.068C81.9214 211.041 81.3857 210.89 80.9043 210.625C80.8862 210.614 80.8713 210.598 80.8609 210.58C80.8505 210.561 80.845 210.54 80.8448 210.519C80.8477 210.498 80.8551 210.477 80.8665 210.459C80.8779 210.441 80.893 210.425 80.9109 210.413C80.9703 210.413 82.2324 209.72 82.9592 209.99C83.0504 210.023 83.1331 210.076 83.2016 210.145C83.2701 210.213 83.3227 210.296 83.3557 210.387C83.3991 210.475 83.4117 210.575 83.3913 210.671C83.3709 210.767 83.3188 210.853 83.2434 210.916C83.0087 211.048 82.7376 211.101 82.4703 211.068ZM81.2346 210.532C81.8095 210.797 82.8139 210.942 83.0914 210.724C83.1376 210.684 83.1839 210.625 83.0914 210.473C83.0719 210.414 83.0391 210.361 82.9955 210.318C82.9519 210.274 82.8988 210.241 82.8403 210.222C82.286 210.16 81.7258 210.268 81.2346 210.532Z" fill="#FF725E"/>
<path d="M124.607 233.725C124.063 233.713 123.521 233.651 122.988 233.54C122.963 233.537 122.94 233.525 122.921 233.507C122.903 233.489 122.892 233.466 122.889 233.441C122.885 233.415 122.89 233.389 122.902 233.367C122.913 233.344 122.932 233.326 122.955 233.315C123.193 233.189 125.281 232.139 125.902 232.489C125.962 232.522 126.011 232.57 126.046 232.628C126.081 232.686 126.1 232.752 126.101 232.819C126.113 232.93 126.098 233.041 126.057 233.144C126.015 233.247 125.949 233.337 125.863 233.408C125.492 233.651 125.049 233.763 124.607 233.725ZM123.398 233.368C124.535 233.56 125.38 233.507 125.704 233.229C125.76 233.18 125.803 233.119 125.829 233.05C125.856 232.981 125.865 232.906 125.856 232.833C125.858 232.806 125.852 232.779 125.839 232.756C125.826 232.732 125.807 232.713 125.783 232.701C125.446 232.516 124.257 232.958 123.398 233.368Z" fill="#FF725E"/>
<path d="M123.015 233.546C122.991 233.553 122.966 233.553 122.942 233.546C122.924 233.534 122.91 233.517 122.901 233.497C122.892 233.477 122.888 233.455 122.889 233.434C122.889 233.341 123.147 231.108 124.396 231.24C124.726 231.273 124.825 231.438 124.845 231.577C124.938 232.158 123.689 233.282 123.061 233.559L123.015 233.546ZM124.297 231.451C123.557 231.451 123.259 232.674 123.167 233.202C123.828 232.819 124.66 231.94 124.607 231.59C124.607 231.59 124.607 231.478 124.369 231.458L124.297 231.451Z" fill="#FF725E"/>
<path d="M117.484 112.752L116.249 114.411C116.156 114.543 116.301 114.721 116.539 114.767L138.246 118.97C138.431 118.97 138.602 118.97 138.629 118.831L139.124 117.021C139.124 116.902 139.012 116.756 138.807 116.717L117.848 112.66C117.784 112.643 117.718 112.642 117.654 112.658C117.59 112.675 117.532 112.707 117.484 112.752Z" fill="#FF725E"/>
<path d="M119.916 115.633L119.354 115.521C119.242 115.521 119.169 115.429 119.189 115.363L119.85 113.017C119.85 112.951 119.982 112.911 120.088 112.931L120.649 113.043C120.762 113.043 120.841 113.136 120.821 113.202L120.16 115.548C120.134 115.633 120.028 115.633 119.916 115.633Z" fill="#263238"/>
<path d="M134.089 118.401L133.528 118.296C133.415 118.296 133.343 118.197 133.363 118.13L134.023 115.791C134.023 115.719 134.149 115.679 134.261 115.705L134.823 115.811C134.929 115.811 135.008 115.91 134.988 115.976L134.327 118.316C134.307 118.388 134.202 118.428 134.089 118.401Z" fill="#263238"/>
</svg>
