<svg width="12" height="7" viewBox="0 0 12 7" fill="none" xmlns="http://www.w3.org/2000/svg">
<path d="M11.2883 0.710413C11.1958 0.617709 11.0859 0.544162 10.9649 0.49398C10.8439 0.443799 10.7142 0.417969 10.5833 0.417969C10.4523 0.417969 10.3226 0.443799 10.2016 0.49398C10.0807 0.544162 9.97078 0.617709 9.87827 0.710413L5.99827 4.59041L2.11827 0.710413C2.02569 0.617831 1.91578 0.544392 1.79481 0.494287C1.67385 0.444182 1.5442 0.418392 1.41327 0.418392C1.28234 0.418392 1.15269 0.444182 1.03173 0.494287C0.910762 0.544392 0.80085 0.617831 0.708268 0.710413C0.615686 0.802995 0.542248 0.912906 0.492143 1.03387C0.442038 1.15483 0.416249 1.28448 0.416249 1.41541C0.416249 1.54634 0.442038 1.67599 0.492143 1.79696C0.542248 1.91792 0.615686 2.02783 0.708268 2.12041L5.29827 6.71041C5.39078 6.80312 5.50067 6.87666 5.62164 6.92685C5.74262 6.97703 5.8723 7.00286 6.00327 7.00286C6.13424 7.00286 6.26392 6.97703 6.38489 6.92685C6.50587 6.87666 6.61576 6.80312 6.70827 6.71041L11.2983 2.12041C11.6783 1.74041 11.6783 1.10041 11.2883 0.710413Z" fill="rgba(56, 152, 252, 1)"/>
</svg>
