<svg width="110" height="80" viewBox="0 0 110 80" fill="none" xmlns="http://www.w3.org/2000/svg">
<path d="M32.6039 26.6743L32.1767 25.4729C31.5711 23.7697 29.8734 22.7115 28.0832 22.9215L11.0702 24.9179C8.94781 25.1668 7.42881 27.0947 7.67694 29.224L12.5198 70.7608C12.6899 72.2208 14.0078 73.2661 15.4631 73.0954L76.3329 65.9529C77.7882 65.7822 78.8302 64.46 78.66 63L74.474 27.0929C74.3038 25.6329 72.986 24.5875 71.5307 24.7583L36.1844 28.9058C34.6184 29.0893 33.1336 28.164 32.6039 26.6743Z" fill="#3B495E"/>
<path d="M34.3075 8.60862L15.0747 12.4551L20.3568 39.038L39.5896 35.1915L34.3075 8.60862Z" fill="#D3E4FF"/>
<path opacity="0.7" d="M34.3075 8.60862L15.0747 12.4551L20.3568 39.038L39.5896 35.1915L34.3075 8.60862Z" fill="white"/>
<path d="M31.7366 15.0096L19.889 17.3786C19.3145 17.4936 18.7559 17.1193 18.6413 16.5428C18.5267 15.9664 18.8998 15.4061 19.4743 15.2911L31.3219 12.9221C31.8965 12.8071 32.455 13.1814 32.5697 13.7578C32.6843 14.3343 32.3112 14.8946 31.7366 15.0096Z" fill="#D3E4FF"/>
<path d="M32.6097 19.4047L20.7621 21.7736C20.1875 21.8886 19.629 21.5143 19.5143 20.9379C19.3997 20.3614 19.7728 19.8011 20.3474 19.6861L32.195 17.3172C32.7695 17.2022 33.3281 17.5764 33.4427 18.1529C33.557 18.7296 33.1843 19.29 32.6097 19.4047Z" fill="#D3E4FF"/>
<path d="M33.4832 23.8006L21.6356 26.1696C21.0611 26.2846 20.5025 25.9103 20.3879 25.3339C20.2733 24.7574 20.6463 24.1971 21.2209 24.0821L33.0685 21.7131C33.6431 21.5981 34.2016 21.9724 34.3162 22.5489C34.4305 23.1253 34.0578 23.6856 33.4832 23.8006Z" fill="#D3E4FF"/>
<path d="M34.3563 28.1962L22.5087 30.5651C21.9341 30.6801 21.3756 30.3058 21.2609 29.7294C21.1463 29.1529 21.5194 28.5926 22.0939 28.4776L33.9415 26.1087C34.5161 25.9937 35.0747 26.3679 35.1893 26.9444C35.3036 27.5212 34.9308 28.0815 34.3563 28.1962Z" fill="#D3E4FF"/>
<path d="M31.9917 33.2391L23.3822 34.9605C22.8076 35.0755 22.2491 34.7013 22.1345 34.1248C22.0198 33.5484 22.3929 32.988 22.9675 32.873L31.577 31.1516C32.1516 31.0366 32.7101 31.4109 32.8248 31.9873C32.939 32.5638 32.5663 33.1241 31.9917 33.2391Z" fill="#D3E4FF"/>
<path d="M61.7122 3.48588L42.2812 6.15381L45.9449 33.0105L65.3758 30.3426L61.7122 3.48588Z" fill="#D3E4FF"/>
<path opacity="0.7" d="M61.7122 3.48588L42.2812 6.15381L45.9449 33.0105L65.3758 30.3426L61.7122 3.48588Z" fill="white"/>
<path d="M58.7581 9.71324L46.7891 11.3568C46.2088 11.4365 45.6738 11.029 45.5944 10.4468C45.515 9.86467 45.9212 9.32789 46.5014 9.24824L58.4704 7.60467C59.0507 7.52503 59.5857 7.93253 59.6651 8.51467C59.7449 9.09717 59.3387 9.6336 58.7581 9.71324Z" fill="#D3E4FF"/>
<path d="M59.3635 14.1538L47.3945 15.7974C46.8143 15.877 46.2792 15.4695 46.1999 14.8874C46.1205 14.3049 46.5266 13.7684 47.1069 13.6888L59.0759 12.0456C59.6562 11.9659 60.1912 12.3734 60.2706 12.9556C60.35 13.5374 59.9438 14.0742 59.3635 14.1538Z" fill="#D3E4FF"/>
<path d="M51.2989 19.785L48.001 20.2379C47.4207 20.3175 46.8857 19.91 46.8063 19.3279C46.7269 18.7454 47.1331 18.2089 47.7134 18.1293L51.0112 17.6764C51.5915 17.5968 52.1265 18.0043 52.2059 18.5864C52.2853 19.1689 51.8795 19.7054 51.2989 19.785Z" fill="#D3E4FF"/>
<path d="M57.6939 18.9071L54.396 19.3599C53.8158 19.4396 53.2807 19.0321 53.2013 18.4499C53.1219 17.8678 53.5281 17.331 54.1084 17.2514L57.4062 16.7985C57.9865 16.7189 58.5215 17.1264 58.6009 17.7085C58.6803 18.2907 58.2741 18.8274 57.6939 18.9071Z" fill="#D3E4FF"/>
<path d="M60.5755 23.0355L48.6065 24.6791C48.0262 24.7587 47.4912 24.3512 47.4118 23.7691C47.3324 23.1866 47.7386 22.6502 48.3188 22.5705L60.2878 20.9269C60.8684 20.8473 61.4031 21.2548 61.4825 21.8369C61.5623 22.4191 61.1561 22.9555 60.5755 23.0355Z" fill="#D3E4FF"/>
<path d="M57.9098 27.9252L49.2119 29.1194C48.6317 29.1991 48.0966 28.7916 48.0172 28.2094C47.9379 27.6273 48.344 27.0905 48.9243 27.0109L57.6221 25.8166C58.2024 25.7369 58.7374 26.1444 58.8168 26.7266C58.8966 27.3087 58.4904 27.8455 57.9098 27.9252Z" fill="#D3E4FF"/>
<path d="M43.3713 7.40891L23.8345 9.1167L26.1797 36.1198L45.7165 34.412L43.3713 7.40891Z" fill="white"/>
<path opacity="0.8" d="M43.3713 7.40891L23.8345 9.1167L26.1797 36.1198L45.7165 34.412L43.3713 7.40891Z" fill="white"/>
<path d="M40.1223 13.4858L28.0874 14.5379C27.504 14.589 26.9896 14.1558 26.9386 13.5701C26.8877 12.9847 27.3196 12.4686 27.9034 12.4176L39.9382 11.3654C40.5217 11.3143 41.0361 11.7476 41.087 12.3333C41.1375 12.919 40.7057 13.4347 40.1223 13.4858Z" fill="#D3E4FF"/>
<path d="M40.5105 17.951L28.4756 19.0031C27.8921 19.0542 27.3777 18.621 27.3268 18.0353C27.2759 17.4499 27.7077 16.9338 28.2916 16.8828L40.3264 15.8303C40.9099 15.7792 41.4243 16.2124 41.4752 16.7981C41.5261 17.3838 41.0943 17.8999 40.5105 17.951Z" fill="#D3E4FF"/>
<path d="M40.8982 22.4159L28.8633 23.4681C28.2798 23.5192 27.7654 23.0859 27.7145 22.5002C27.6636 21.9145 28.0954 21.3988 28.6793 21.3477L40.7141 20.2956C41.2976 20.2445 41.812 20.6777 41.8629 21.2634C41.9138 21.8488 41.4816 22.3649 40.8982 22.4159Z" fill="#D3E4FF"/>
<path d="M41.2863 26.8813L29.2515 27.9334C28.6677 27.9845 28.1536 27.5513 28.1027 26.9656C28.0518 26.3802 28.4836 25.8641 29.0674 25.8131L41.1023 24.7609C41.6858 24.7099 42.2002 25.1431 42.2511 25.7288C42.3016 26.3141 41.8698 26.8302 41.2863 26.8813Z" fill="#D3E4FF"/>
<path d="M38.3847 31.6342L29.6392 32.3989C29.0557 32.4499 28.5413 32.0167 28.4904 31.431C28.4395 30.8456 28.8713 30.3296 29.4551 30.2785L38.2007 29.5139C38.7841 29.4628 39.2985 29.896 39.3494 30.4817C39.4 31.0671 38.9682 31.5831 38.3847 31.6342Z" fill="#D3E4FF"/>
<path d="M67.1811 6.08926L47.5933 7.0376L48.8955 34.1111L68.4833 33.1628L67.1811 6.08926Z" fill="white"/>
<path opacity="0.8" d="M67.1811 6.08926L47.5933 7.0376L48.8955 34.1111L68.4833 33.1628L67.1811 6.08926Z" fill="white"/>
<path d="M63.7019 12.037L51.6354 12.6213C51.0501 12.6495 50.5528 12.1966 50.5247 11.6095C50.4966 11.0224 50.948 10.5234 51.5328 10.4952L63.5994 9.91092C64.1846 9.8827 64.6816 10.3356 64.7101 10.9227C64.7385 11.5095 64.2868 12.0084 63.7019 12.037Z" fill="#D3E4FF"/>
<path d="M63.9172 16.514L51.8507 17.0983C51.2655 17.1265 50.7685 16.6737 50.74 16.0865C50.7119 15.4994 51.1633 15.0005 51.7485 14.9723L63.8151 14.388C64.4003 14.3598 64.8976 14.8126 64.9257 15.3998C64.9539 15.9865 64.5025 16.4855 63.9172 16.514Z" fill="#D3E4FF"/>
<path d="M55.3914 21.4139L52.0665 21.575C51.4813 21.6032 50.984 21.1504 50.9558 20.5632C50.9277 19.9761 51.3791 19.4775 51.964 19.4489L55.2889 19.2879C55.8742 19.2597 56.3715 19.7125 56.3996 20.2997C56.4281 20.8868 55.9767 21.3857 55.3914 21.4139Z" fill="#D3E4FF"/>
<path d="M61.8382 21.1014L58.5133 21.2625C57.9281 21.2907 57.4307 20.8379 57.4026 20.2507C57.3745 19.6636 57.8259 19.165 58.4111 19.1364L61.736 18.9754C62.3213 18.9472 62.8186 19.4 62.8467 19.9872C62.8749 20.5743 62.4235 21.0729 61.8382 21.1014Z" fill="#D3E4FF"/>
<path d="M64.3479 25.4677L52.2814 26.0519C51.6961 26.0801 51.1992 25.6273 51.1707 25.0402C51.1426 24.453 51.594 23.9541 52.1792 23.9259L64.2457 23.3416C64.831 23.3134 65.3283 23.7662 65.3564 24.3534C65.3845 24.9405 64.9331 25.4391 64.3479 25.4677Z" fill="#D3E4FF"/>
<path d="M61.2663 30.1039L52.4977 30.5285C51.9124 30.5567 51.4151 30.1039 51.387 29.5167C51.3589 28.9296 51.8103 28.4307 52.3955 28.4025L61.1642 27.9778C61.7494 27.9496 62.2467 28.4025 62.2749 28.9896C62.3026 29.5767 61.8512 30.0757 61.2663 30.1039Z" fill="#D3E4FF"/>
<path d="M38.0375 27.4435L37.7257 26.2682C37.2835 24.6017 35.7015 23.5699 33.9113 23.7799L16.8983 25.776C14.7759 26.0249 13.0956 27.9164 13.1451 30.0007L14.1105 70.6596C14.1444 72.0889 15.3519 73.1089 16.8071 72.9382L77.677 65.7957C79.1323 65.6249 80.2846 64.3278 80.2508 62.8985L79.4164 27.7507C79.3826 26.3214 78.175 25.3014 76.7198 25.4721L41.3735 29.6196C39.8078 29.8032 38.4241 28.9007 38.0375 27.4435Z" fill="#76A6F5"/>
<path opacity="0.3" d="M38.0375 27.4435L37.7257 26.2682C37.2835 24.6017 35.7015 23.5699 33.9113 23.7799L16.8983 25.776C14.7759 26.0249 13.0956 27.9164 13.1451 30.0007L14.1105 70.6596C14.1444 72.0889 15.3519 73.1089 16.8071 72.9382L77.677 65.7957C79.1323 65.6249 80.2846 64.3278 80.2508 62.8985L79.4164 27.7507C79.3826 26.3214 78.175 25.3014 76.7198 25.4721L41.3735 29.6196C39.8078 29.8032 38.4241 28.9007 38.0375 27.4435Z" fill="#76A6F5"/>
<path d="M103.296 34.2856L105.355 11.8531L100.958 8.47558L87.5364 7.23486L85.2061 32.6138L103.296 34.2856Z" fill="white"/>
<path opacity="0.8" d="M103.296 34.2856L105.355 11.8531L100.958 8.47558L87.5364 7.23486L85.2061 32.6138L103.296 34.2856Z" fill="white"/>
<path d="M105.355 11.8531L100.958 8.47559L102.111 12.5181L105.355 11.8531Z" fill="#76A6F5"/>
<path d="M86.7784 36.5357C89.8057 36.5357 92.2598 34.0736 92.2598 31.0364C92.2598 27.9992 89.8057 25.5371 86.7784 25.5371C83.751 25.5371 81.2969 27.9992 81.2969 31.0364C81.2969 34.0736 83.751 36.5357 86.7784 36.5357Z" fill="#407BFF"/>
<path d="M89.4908 34.4777C91.3853 32.9762 91.7078 30.2182 90.2112 28.3175C88.7146 26.4169 85.9655 26.0933 84.071 27.5948C82.1764 29.0963 81.8539 31.8543 83.3505 33.7549C84.8472 35.6556 87.5962 35.9792 89.4908 34.4777Z" fill="white"/>
<path d="M89.4801 30.6508L87.5514 30.424L87.7778 28.4887L86.3948 28.3262L86.1687 30.2612L84.2396 30.034L84.0776 31.4212L86.0064 31.6483L85.78 33.5833L87.1626 33.7462L87.389 31.8112L89.3178 32.038L89.4801 30.6508Z" fill="#407BFF"/>
<path d="M102.072 16.5024C101.996 17.3281 101.268 17.9356 100.445 17.8596L90.6549 16.956C89.8318 16.8799 89.2263 16.1492 89.3018 15.3238C89.3776 14.4981 90.1059 13.8906 90.929 13.9663L100.719 14.8699C101.542 14.946 102.148 15.6767 102.072 16.5024Z" fill="#D3E4FF"/>
<path d="M98.7374 20.5555C98.6616 21.3812 97.9332 21.9887 97.1105 21.9127L90.2688 21.2812C89.4461 21.2052 88.8403 20.4744 88.9161 19.6487C88.9919 18.823 89.7203 18.2155 90.5429 18.2916L97.3847 18.923C98.2073 18.9991 98.8129 19.7298 98.7374 20.5555Z" fill="#D3E4FF"/>
</svg>
