<svg width="368" height="132" viewBox="0 0 368 132" fill="none" xmlns="http://www.w3.org/2000/svg">
<rect x="74" y="48.1738" width="148" height="47.6531" rx="3.5" fill="white"/>
<rect x="74" y="48.1738" width="148" height="47.6531" rx="3.5" stroke="#3898FC" stroke-dasharray="2 2"/>
<path d="M129.279 77.7686C127.963 77.7686 126.955 77.4232 126.255 76.7326C125.564 76.0419 125.219 75.0199 125.219 73.6666V67.7726H126.675V73.6386C126.675 74.5999 126.894 75.3186 127.333 75.7946C127.781 76.2706 128.429 76.5086 129.279 76.5086C130.137 76.5086 130.786 76.2706 131.225 75.7946C131.663 75.3186 131.883 74.5999 131.883 73.6386V67.7726H133.311V73.6666C133.311 75.0199 132.97 76.0419 132.289 76.7326C131.607 77.4232 130.604 77.7686 129.279 77.7686ZM135.402 80.1626V70.8106H136.788V72.3506H136.634C136.784 71.8466 137.078 71.4452 137.516 71.1466C137.955 70.8386 138.473 70.6846 139.07 70.6846C139.677 70.6846 140.204 70.8292 140.652 71.1186C141.11 71.4079 141.46 71.8139 141.702 72.3366C141.954 72.8592 142.08 73.4892 142.08 74.2266C142.08 74.9452 141.954 75.5752 141.702 76.1166C141.46 76.6486 141.114 77.0592 140.666 77.3486C140.218 77.6286 139.686 77.7686 139.07 77.7686C138.482 77.7686 137.969 77.6192 137.53 77.3206C137.092 77.0219 136.798 76.6252 136.648 76.1306H136.816V80.1626H135.402ZM138.72 76.6766C139.308 76.6766 139.775 76.4666 140.12 76.0466C140.475 75.6266 140.652 75.0199 140.652 74.2266C140.652 73.4239 140.475 72.8172 140.12 72.4066C139.775 71.9959 139.308 71.7906 138.72 71.7906C138.142 71.7906 137.675 71.9959 137.32 72.4066C136.966 72.8172 136.788 73.4239 136.788 74.2266C136.788 75.0199 136.966 75.6266 137.32 76.0466C137.675 76.4666 138.142 76.6766 138.72 76.6766ZM145.9 77.7686C145.153 77.7686 144.593 77.5586 144.22 77.1386C143.856 76.7092 143.674 76.0932 143.674 75.2906V67.7726H145.088V75.2066C145.088 75.5052 145.13 75.7619 145.214 75.9766C145.298 76.1819 145.424 76.3359 145.592 76.4386C145.76 76.5412 145.97 76.5926 146.222 76.5926C146.334 76.5926 146.441 76.5879 146.544 76.5786C146.646 76.5692 146.744 76.5506 146.838 76.5226L146.81 77.6566C146.651 77.6939 146.497 77.7219 146.348 77.7406C146.198 77.7592 146.049 77.7686 145.9 77.7686ZM150.853 77.7686C150.162 77.7686 149.565 77.6239 149.061 77.3346C148.566 77.0452 148.179 76.6346 147.899 76.1026C147.619 75.5706 147.479 74.9452 147.479 74.2266C147.479 73.4986 147.619 72.8732 147.899 72.3506C148.179 71.8186 148.566 71.4079 149.061 71.1186C149.565 70.8292 150.162 70.6846 150.853 70.6846C151.534 70.6846 152.122 70.8292 152.617 71.1186C153.121 71.4079 153.513 71.8186 153.793 72.3506C154.073 72.8826 154.213 73.5079 154.213 74.2266C154.213 74.9452 154.073 75.5706 153.793 76.1026C153.513 76.6346 153.121 77.0452 152.617 77.3346C152.122 77.6239 151.534 77.7686 150.853 77.7686ZM150.839 76.6766C151.427 76.6766 151.898 76.4666 152.253 76.0466C152.607 75.6266 152.785 75.0199 152.785 74.2266C152.785 73.4239 152.607 72.8172 152.253 72.4066C151.898 71.9959 151.427 71.7906 150.839 71.7906C150.26 71.7906 149.793 71.9959 149.439 72.4066C149.084 72.8172 148.907 73.4239 148.907 74.2266C148.907 75.0199 149.084 75.6266 149.439 76.0466C149.793 76.4666 150.26 76.6766 150.839 76.6766ZM157.985 77.7686C157.509 77.7686 157.079 77.6752 156.697 77.4886C156.323 77.3019 156.029 77.0499 155.815 76.7326C155.6 76.4152 155.493 76.0559 155.493 75.6546C155.493 75.1506 155.619 74.7539 155.871 74.4646C156.132 74.1659 156.557 73.9559 157.145 73.8346C157.742 73.7039 158.545 73.6386 159.553 73.6386H160.211V74.5066H159.567C159.063 74.5066 158.638 74.5252 158.293 74.5626C157.947 74.5999 157.672 74.6606 157.467 74.7446C157.261 74.8192 157.112 74.9266 157.019 75.0666C156.935 75.2066 156.893 75.3746 156.893 75.5706C156.893 75.9252 157.014 76.2146 157.257 76.4386C157.499 76.6532 157.835 76.7606 158.265 76.7606C158.61 76.7606 158.913 76.6812 159.175 76.5226C159.436 76.3546 159.641 76.1306 159.791 75.8506C159.949 75.5706 160.029 75.2486 160.029 74.8846V73.2746C160.029 72.7426 159.917 72.3599 159.693 72.1266C159.469 71.8932 159.1 71.7766 158.587 71.7766C158.195 71.7766 157.803 71.8372 157.411 71.9586C157.019 72.0706 156.617 72.2526 156.207 72.5046L155.773 71.5106C156.015 71.3426 156.295 71.1979 156.613 71.0766C156.93 70.9552 157.261 70.8619 157.607 70.7966C157.961 70.7219 158.302 70.6846 158.629 70.6846C159.254 70.6846 159.767 70.7826 160.169 70.9786C160.579 71.1746 160.883 71.4732 161.079 71.8746C161.275 72.2759 161.373 72.7939 161.373 73.4286V77.6426H160.043V76.1166H160.169C160.094 76.4619 159.954 76.7606 159.749 77.0126C159.553 77.2552 159.305 77.4419 159.007 77.5726C158.708 77.7032 158.367 77.7686 157.985 77.7686ZM165.924 77.7686C165.327 77.7686 164.8 77.6286 164.342 77.3486C163.894 77.0592 163.544 76.6486 163.292 76.1166C163.04 75.5752 162.914 74.9452 162.914 74.2266C162.914 73.4892 163.04 72.8592 163.292 72.3366C163.544 71.8139 163.894 71.4079 164.342 71.1186C164.8 70.8292 165.327 70.6846 165.924 70.6846C166.522 70.6846 167.035 70.8339 167.464 71.1326C167.903 71.4219 168.197 71.8139 168.346 72.3086H168.192V67.7726H169.606V77.6426H168.22V76.1026H168.36C168.211 76.6066 167.917 77.0126 167.478 77.3206C167.049 77.6192 166.531 77.7686 165.924 77.7686ZM166.288 76.6766C166.867 76.6766 167.334 76.4666 167.688 76.0466C168.043 75.6266 168.22 75.0199 168.22 74.2266C168.22 73.4239 168.043 72.8172 167.688 72.4066C167.334 71.9959 166.867 71.7906 166.288 71.7906C165.7 71.7906 165.229 71.9959 164.874 72.4066C164.52 72.8172 164.342 73.4239 164.342 74.2266C164.342 75.0199 164.52 75.6266 164.874 76.0466C165.229 76.4666 165.7 76.6766 166.288 76.6766ZM177.453 77.7686C176.977 77.7686 176.548 77.6752 176.165 77.4886C175.792 77.3019 175.498 77.0499 175.283 76.7326C175.069 76.4152 174.961 76.0559 174.961 75.6546C174.961 75.1506 175.087 74.7539 175.339 74.4646C175.601 74.1659 176.025 73.9559 176.613 73.8346C177.211 73.7039 178.013 73.6386 179.021 73.6386H179.679V74.5066H179.035C178.531 74.5066 178.107 74.5252 177.761 74.5626C177.416 74.5999 177.141 74.6606 176.935 74.7446C176.73 74.8192 176.581 74.9266 176.487 75.0666C176.403 75.2066 176.361 75.3746 176.361 75.5706C176.361 75.9252 176.483 76.2146 176.725 76.4386C176.968 76.6532 177.304 76.7606 177.733 76.7606C178.079 76.7606 178.382 76.6812 178.643 76.5226C178.905 76.3546 179.11 76.1306 179.259 75.8506C179.418 75.5706 179.497 75.2486 179.497 74.8846V73.2746C179.497 72.7426 179.385 72.3599 179.161 72.1266C178.937 71.8932 178.569 71.7766 178.055 71.7766C177.663 71.7766 177.271 71.8372 176.879 71.9586C176.487 72.0706 176.086 72.2526 175.675 72.5046L175.241 71.5106C175.484 71.3426 175.764 71.1979 176.081 71.0766C176.399 70.9552 176.73 70.8619 177.075 70.7966C177.43 70.7219 177.771 70.6846 178.097 70.6846C178.723 70.6846 179.236 70.7826 179.637 70.9786C180.048 71.1746 180.351 71.4732 180.547 71.8746C180.743 72.2759 180.841 72.7939 180.841 73.4286V77.6426H179.511V76.1166H179.637C179.563 76.4619 179.423 76.7606 179.217 77.0126C179.021 77.2552 178.774 77.4419 178.475 77.5726C178.177 77.7032 177.836 77.7686 177.453 77.7686ZM186.873 77.6426V71.9026H185.543V70.8106H187.279L186.873 71.1886V70.6846C186.873 69.7512 187.111 69.0466 187.587 68.5706C188.072 68.0852 188.814 67.8146 189.813 67.7586L190.373 67.7306L190.457 68.7946L189.883 68.8226C189.5 68.8412 189.192 68.9159 188.959 69.0466C188.725 69.1772 188.553 69.3639 188.441 69.6066C188.338 69.8399 188.287 70.1339 188.287 70.4886V70.9786V70.8106H192.641V77.6426H191.227V71.9026H188.287V77.6426H186.873ZM191.101 69.2286V67.7586H192.753V69.2286H191.101ZM196.841 77.7686C196.094 77.7686 195.534 77.5586 195.161 77.1386C194.797 76.7092 194.615 76.0932 194.615 75.2906V67.7726H196.029V75.2066C196.029 75.5052 196.071 75.7619 196.155 75.9766C196.239 76.1819 196.365 76.3359 196.533 76.4386C196.701 76.5412 196.911 76.5926 197.163 76.5926C197.275 76.5926 197.382 76.5879 197.485 76.5786C197.588 76.5692 197.686 76.5506 197.779 76.5226L197.751 77.6566C197.592 77.6939 197.438 77.7219 197.289 77.7406C197.14 77.7592 196.99 77.7686 196.841 77.7686ZM202.032 77.7686C201.285 77.7686 200.641 77.6286 200.1 77.3486C199.568 77.0592 199.153 76.6532 198.854 76.1306C198.565 75.5986 198.42 74.9686 198.42 74.2406C198.42 73.5312 198.565 72.9106 198.854 72.3786C199.143 71.8466 199.54 71.4312 200.044 71.1326C200.548 70.8339 201.122 70.6846 201.766 70.6846C202.401 70.6846 202.942 70.8246 203.39 71.1046C203.847 71.3752 204.197 71.7626 204.44 72.2666C204.683 72.7706 204.804 73.3726 204.804 74.0726V74.5486H199.54V73.6806H203.852L203.614 73.8766C203.614 73.1766 203.46 72.6352 203.152 72.2526C202.844 71.8699 202.401 71.6786 201.822 71.6786C201.383 71.6786 201.01 71.7812 200.702 71.9866C200.403 72.1919 200.175 72.4766 200.016 72.8406C199.857 73.2046 199.778 73.6292 199.778 74.1146V74.1986C199.778 74.7399 199.862 75.1972 200.03 75.5706C200.207 75.9346 200.464 76.2099 200.8 76.3966C201.136 76.5832 201.551 76.6766 202.046 76.6766C202.438 76.6766 202.821 76.6159 203.194 76.4946C203.577 76.3639 203.936 76.1632 204.272 75.8926L204.692 76.8726C204.384 77.1526 203.987 77.3719 203.502 77.5306C203.017 77.6892 202.527 77.7686 202.032 77.7686Z" fill="#3898FC"/>
<rect x="86.2188" y="60.1484" width="24" height="24" rx="4" fill="#3898FC" fill-opacity="0.2"/>
<path d="M93.4209 74.0677V76.2806C93.4209 76.616 93.5473 76.9376 93.7724 77.1748C93.9974 77.4119 94.3026 77.5451 94.6209 77.5451H101.821C102.139 77.5451 102.444 77.4119 102.669 77.1748C102.894 76.9376 103.021 76.616 103.021 76.2806V74.0677M98.2213 73.9106L98.2213 66.7451M98.2213 66.7451L95.4785 69.483M98.2213 66.7451L100.964 69.483" stroke="#3898FC" stroke-width="1.5" stroke-linecap="round" stroke-linejoin="round"/>
<g filter="url(#filter0_d_1210_5571)">
<path d="M240.233 49.6551L239.724 48.2317C239.004 46.2139 236.983 44.9603 234.851 45.2091L214.598 47.5742C212.072 47.8691 210.264 50.153 210.559 52.6756L216.324 101.884C216.527 103.614 218.095 104.852 219.828 104.65L292.29 96.1881C294.022 95.9859 295.263 94.4195 295.06 92.6899L290.077 50.1509C289.874 48.4213 288.306 47.1828 286.573 47.3851L244.495 52.2986C242.631 52.5161 240.864 51.4198 240.233 49.6551Z" fill="#3B495E"/>
<path d="M242.248 28.756L218.863 33.2734L225.337 64.7422L248.722 60.2248L242.248 28.756Z" fill="#C6CFD5"/>
<path opacity="0.7" d="M242.248 28.7609L218.863 33.2783L225.337 64.7471L248.722 60.2296L242.248 28.7609Z" fill="white"/>
<path d="M239.281 35.5092L225.141 38.0158C224.455 38.1375 223.788 37.7415 223.652 37.1315C223.515 36.5216 223.96 35.9287 224.646 35.807L238.786 33.3003C239.472 33.1786 240.138 33.5747 240.275 34.1846C240.412 34.7945 239.967 35.3875 239.281 35.5092Z" fill="#C6CFD5"/>
<path d="M240.471 40.2689L226.331 42.7756C225.646 42.8973 224.979 42.5012 224.842 41.8913C224.705 41.2814 225.151 40.6884 225.836 40.5667L239.976 38.0601C240.662 37.9384 241.329 38.3344 241.466 38.9444C241.602 39.5547 241.157 40.1476 240.471 40.2689Z" fill="#C6CFD5"/>
<path d="M241.663 46.2182L227.523 48.7248C226.837 48.8465 226.17 48.4505 226.033 47.8405C225.897 47.2306 226.342 46.6376 227.028 46.5159L241.168 44.0093C241.854 43.8876 242.52 44.2836 242.657 44.8936C242.793 45.5035 242.348 46.0965 241.663 46.2182Z" fill="#C6CFD5"/>
<path d="M242.853 50.9779L228.713 53.4846C228.027 53.6063 227.361 53.2102 227.224 52.6003C227.087 51.9903 227.532 51.3974 228.218 51.2757L242.358 48.769C243.044 48.6474 243.711 49.0434 243.847 49.6533C243.984 50.2637 243.539 50.8566 242.853 50.9779Z" fill="#C6CFD5"/>
<path d="M240.449 57.3023L229.939 59.4301C229.238 59.5723 228.556 59.1096 228.416 58.3971C228.276 57.6846 228.731 56.9919 229.433 56.8498L239.942 54.722C240.644 54.5798 241.326 55.0425 241.465 55.755C241.605 56.4675 241.15 57.1601 240.449 57.3023Z" fill="#C6CFD5"/>
<path d="M275.812 22.9511L252.209 26.1445L256.615 57.9681L280.217 54.7747L275.812 22.9511Z" fill="#C6CFD5"/>
<path opacity="0.7" d="M275.812 22.9462L252.209 26.1396L256.615 57.9633L280.217 54.7698L275.812 22.9462Z" fill="white"/>
<path d="M271.369 30.0022L257.207 32.076C256.52 32.1765 255.887 31.6624 255.793 30.9278C255.699 30.1933 256.18 29.516 256.866 29.4155L271.029 27.3416C271.715 27.2412 272.348 27.7553 272.442 28.4899C272.537 29.2249 272.056 29.9017 271.369 30.0022Z" fill="#C6CFD5"/>
<path d="M272.559 34.7618L258.397 36.8358C257.71 36.9363 257.077 36.4221 256.983 35.6875C256.889 34.9524 257.37 34.2755 258.057 34.175L272.219 32.1014C272.906 32.0009 273.539 32.5151 273.633 33.2498C273.727 33.9839 273.246 34.6613 272.559 34.7618Z" fill="#C6CFD5"/>
<path d="M261.919 42.1572L258.295 42.7834C257.658 42.8935 257.07 42.33 256.983 41.525C256.895 40.7195 257.342 39.9777 257.979 39.8675L261.603 39.2413C262.24 39.1312 262.828 39.6947 262.915 40.4997C263.003 41.3052 262.557 42.047 261.919 42.1572Z" fill="#C6CFD5"/>
<path d="M270.256 40.9677L266.632 41.594C265.995 41.7041 265.407 41.1406 265.319 40.3356C265.232 39.5305 265.679 38.7882 266.316 38.6781L269.94 38.0518C270.577 37.9417 271.165 38.5052 271.252 39.3102C271.339 40.1153 270.893 40.8576 270.256 40.9677Z" fill="#C6CFD5"/>
<path d="M273.751 45.471L259.588 47.5448C258.902 47.6453 258.269 47.1311 258.175 46.3966C258.081 45.6616 258.561 44.9847 259.248 44.8842L273.41 42.8104C274.097 42.7099 274.73 43.2241 274.824 43.9586C274.918 44.6932 274.438 45.37 273.751 45.471Z" fill="#C6CFD5"/>
<path d="M270.153 51.023L259.622 52.306C258.919 52.3916 258.271 51.9538 258.175 51.3284C258.079 50.703 258.571 50.1263 259.273 50.0408L269.804 48.7578C270.507 48.6722 271.155 49.11 271.251 49.7354C271.348 50.3608 270.856 50.9374 270.153 51.023Z" fill="#C6CFD5"/>
<path d="M253.315 27.6994L229.582 29.71L232.343 60.5234L256.076 58.5128L253.315 27.6994Z" fill="white"/>
<path opacity="0.8" d="M253.315 27.6994L229.582 29.71L232.343 60.5234L256.076 58.5128L253.315 27.6994Z" fill="white"/>
<path d="M248.686 34.4731L234.512 35.6539C233.825 35.7112 233.219 35.225 233.159 34.5677C233.099 33.9108 233.608 33.3316 234.295 33.2743L248.469 32.0935C249.156 32.0361 249.762 32.5223 249.822 33.1797C249.882 33.837 249.373 34.4158 248.686 34.4731Z" fill="#C6CFD5"/>
<path d="M248.686 39.233L234.512 40.4137C233.825 40.471 233.219 39.9848 233.159 39.3276C233.099 38.6707 233.608 38.0916 234.295 38.0343L248.469 36.8532C249.156 36.7959 249.762 37.282 249.822 37.9393C249.882 38.5966 249.374 39.1757 248.686 39.233Z" fill="#C6CFD5"/>
<path d="M249.876 45.1821L235.702 46.3629C235.015 46.4202 234.409 45.934 234.35 45.2767C234.29 44.6193 234.798 44.0406 235.486 43.9832L249.66 42.8024C250.347 42.7451 250.953 43.2313 251.013 43.8886C251.073 44.5456 250.564 45.1248 249.876 45.1821Z" fill="#C6CFD5"/>
<path d="M249.877 49.9418L235.702 51.1226C235.015 51.18 234.409 50.6938 234.35 50.0364C234.29 49.3795 234.798 48.8003 235.486 48.743L249.66 47.5622C250.347 47.5049 250.953 47.9911 251.013 48.6484C251.072 49.3053 250.564 49.8845 249.877 49.9418Z" fill="#C6CFD5"/>
<path d="M247.468 56.128L236.926 57.0714C236.223 57.1344 235.602 56.5999 235.541 55.8773C235.48 55.155 236 54.5183 236.704 54.4553L247.246 53.5119C247.95 53.4489 248.57 53.9834 248.631 54.706C248.692 55.4282 248.172 56.065 247.468 56.128Z" fill="#C6CFD5"/>
<path d="M292.672 26.1852L268.882 27.3291L270.436 59.4181L294.227 58.2743L292.672 26.1852Z" fill="white"/>
<path opacity="0.8" d="M292.672 26.1852L268.882 27.3291L270.436 59.4181L294.227 58.2743L292.672 26.1852Z" fill="white"/>
<path d="M287.941 33.6986L273.761 34.4674C273.073 34.5045 272.489 33.9086 272.456 33.1361C272.423 32.3635 272.953 31.707 273.64 31.6699L287.82 30.9011C288.508 30.8639 289.092 31.4598 289.125 32.2324C289.159 33.0045 288.628 33.661 287.941 33.6986Z" fill="#C6CFD5"/>
<path d="M287.94 39.6478L273.761 40.4166C273.073 40.4537 272.489 39.8579 272.456 39.0853C272.423 38.3127 272.953 37.6562 273.641 37.6191L287.82 36.8503C288.508 36.8132 289.092 37.409 289.125 38.1816C289.158 38.9537 288.628 39.6102 287.94 39.6478Z" fill="#C6CFD5"/>
<path d="M278.275 45.0089L273.913 45.1763C273.145 45.2056 272.493 44.7349 272.456 44.1247C272.419 43.5144 273.011 42.9963 273.778 42.9666L278.141 42.7992C278.909 42.7698 279.561 43.2405 279.598 43.8508C279.635 44.461 279.043 44.9796 278.275 45.0089Z" fill="#C6CFD5"/>
<path d="M286.611 43.8194L282.249 43.9868C281.481 44.0162 280.829 43.5455 280.792 42.9352C280.755 42.325 281.347 41.8068 282.115 41.7771L286.477 41.6097C287.245 41.5804 287.897 42.051 287.934 42.6613C287.971 43.2715 287.379 43.7897 286.611 43.8194Z" fill="#C6CFD5"/>
<path d="M289.131 50.3568L274.951 51.1256C274.263 51.1627 273.679 50.5668 273.646 49.7943C273.613 49.0217 274.143 48.3652 274.831 48.3281L289.011 47.5593C289.698 47.5221 290.283 48.118 290.316 48.8906C290.349 49.6632 289.818 50.3192 289.131 50.3568Z" fill="#C6CFD5"/>
<path d="M285.53 55.2916L274.982 55.8853C274.278 55.9247 273.68 55.2916 273.646 54.4707C273.612 53.6498 274.155 52.9523 274.859 52.9128L285.407 52.3191C286.111 52.2797 286.709 52.9128 286.743 53.7337C286.776 54.5546 286.233 55.2521 285.53 55.2916Z" fill="#C6CFD5"/>
<path d="M247.271 50.7403L246.9 49.3476C246.375 47.373 244.494 46.1504 242.365 46.3992L222.137 48.7644C219.613 49.0594 217.615 51.3006 217.674 53.7704L218.822 101.949C218.862 103.643 220.298 104.851 222.028 104.649L294.403 96.1854C296.133 95.9831 297.503 94.4461 297.463 92.7525L296.471 51.1043C296.431 49.4107 294.995 48.202 293.264 48.4043L251.238 53.3188C249.376 53.5364 247.731 52.467 247.271 50.7403Z" fill="#76A6F5"/>
<path opacity="0.3" d="M247.271 50.7403L246.9 49.3476C246.375 47.373 244.494 46.1504 242.365 46.3992L222.137 48.7644C219.613 49.0594 217.615 51.3006 217.674 53.7704L218.822 101.949C218.862 103.643 220.298 104.851 222.028 104.649L294.403 96.1854C296.133 95.9831 297.503 94.4461 297.463 92.7525L296.471 51.1043C296.431 49.4107 294.995 48.202 293.264 48.4043L251.238 53.3188C249.376 53.5364 247.731 52.467 247.271 50.7403Z" fill="#76A6F5"/>
</g>
<path d="M250.326 80.4033C249.376 80.4857 248.543 80.3667 247.825 80.0462C247.116 79.7163 246.548 79.2175 246.121 78.55C245.693 77.8738 245.434 77.0568 245.346 76.0988C245.257 75.1409 245.362 74.2967 245.66 73.5662C245.958 72.8357 246.427 72.2514 247.065 71.8132C247.711 71.3657 248.509 71.1007 249.459 71.0182C250.072 70.965 250.659 71.0098 251.221 71.1524C251.791 71.2943 252.269 71.5268 252.656 71.8499L252.234 73.2175C251.815 72.9233 251.396 72.7204 250.977 72.609C250.557 72.4888 250.113 72.449 249.647 72.4895C248.723 72.5697 248.046 72.9112 247.614 73.5141C247.181 74.1084 247.012 74.919 247.107 75.946C247.202 76.9729 247.517 77.7459 248.053 78.2649C248.588 78.7839 249.317 79.0033 250.241 78.9231C250.708 78.8826 251.137 78.7714 251.529 78.5895C251.921 78.3989 252.295 78.1228 252.654 77.7612L253.32 79.0343C252.997 79.4103 252.569 79.7215 252.035 79.9679C251.509 80.205 250.939 80.3501 250.326 80.4033ZM257.825 79.7524C257.351 79.7936 256.889 79.7902 256.441 79.7421C256.002 79.7019 255.59 79.6203 255.204 79.4971C254.827 79.3733 254.486 79.2158 254.181 79.0248L254.566 77.6735C254.869 77.8473 255.183 77.994 255.507 78.1138C255.839 78.2241 256.186 78.3028 256.547 78.3497C256.916 78.3873 257.299 78.3888 257.696 78.3544C258.378 78.2952 258.865 78.1399 259.155 77.8885C259.444 77.6286 259.572 77.3173 259.538 76.9549C259.52 76.7564 259.457 76.5922 259.349 76.4624C259.241 76.3239 259.074 76.2123 258.848 76.1275C258.623 76.0426 258.33 75.9811 257.97 75.9427L256.518 75.7687C255.681 75.6672 255.042 75.4313 254.598 75.061C254.163 74.6812 253.914 74.1547 253.852 73.4816C253.799 72.912 253.905 72.4027 254.168 71.9536C254.431 71.5045 254.819 71.1402 255.333 70.8608C255.847 70.5813 256.454 70.4112 257.153 70.3505C257.567 70.3145 257.969 70.3232 258.356 70.3765C258.752 70.4205 259.117 70.5106 259.452 70.6468C259.794 70.7737 260.097 70.9388 260.359 71.1422L259.969 72.4288C259.578 72.1582 259.161 71.9683 258.715 71.859C258.269 71.7412 257.787 71.7047 257.269 71.7497C256.872 71.7841 256.536 71.8698 256.262 72.0068C255.987 72.1437 255.782 72.3224 255.645 72.543C255.517 72.7543 255.465 72.998 255.491 73.2741C255.52 73.5848 255.646 73.8261 255.871 73.998C256.095 74.1612 256.462 74.2729 256.972 74.333L258.412 74.5082C259.283 74.6152 259.944 74.8449 260.394 75.1973C260.853 75.5489 261.113 76.0484 261.172 76.6956C261.223 77.2393 261.12 77.731 260.865 78.1707C260.61 78.6104 260.221 78.9704 259.698 79.2506C259.184 79.5215 258.559 79.6887 257.825 79.7524ZM265.599 78.9472L260.69 70.174L262.464 70.02L266.473 77.3839L265.916 77.4322L268.499 69.4962L270.209 69.3479L266.985 78.827L265.599 78.9472Z" fill="white"/>
<defs>
<filter id="filter0_d_1210_5571" x="205.027" y="20.4463" width="93.9365" height="88.7256" filterUnits="userSpaceOnUse" color-interpolation-filters="sRGB">
<feFlood flood-opacity="0" result="BackgroundImageFix"/>
<feColorMatrix in="SourceAlpha" type="matrix" values="0 0 0 0 0 0 0 0 0 0 0 0 0 0 0 0 0 0 127 0" result="hardAlpha"/>
<feOffset dx="-2" dy="1"/>
<feGaussianBlur stdDeviation="1.75"/>
<feComposite in2="hardAlpha" operator="out"/>
<feColorMatrix type="matrix" values="0 0 0 0 0 0 0 0 0 0 0 0 0 0 0 0 0 0 0.1 0"/>
<feBlend mode="normal" in2="BackgroundImageFix" result="effect1_dropShadow_1210_5571"/>
<feBlend mode="normal" in="SourceGraphic" in2="effect1_dropShadow_1210_5571" result="shape"/>
</filter>
</defs>
</svg>
