<svg width="302" height="205" viewBox="0 0 302 205" fill="none" xmlns="http://www.w3.org/2000/svg">
<rect width="266" height="165" rx="16" fill="#3898FC"/>
<rect y="24" width="266" height="32" fill="#212121"/>
<g filter="url(#filter0_d_2273_18453)">
<g clip-path="url(#clip0_2273_18453)">
<rect x="24" y="24" width="266" height="165" rx="16" fill="white"/>
<path d="M230.747 144.497C230.831 144.325 230.919 144.154 231.009 143.984C230.919 144.154 230.831 144.325 230.747 144.497Z" fill="#3898FC"/>
<path d="M231.172 143.698C231.261 143.536 231.353 143.377 231.447 143.219C231.353 143.377 231.261 143.536 231.172 143.698Z" fill="#3898FC"/>
<path d="M230.353 145.358C230.445 145.143 230.541 144.93 230.642 144.719C230.541 144.93 230.445 145.143 230.353 145.358Z" fill="#3898FC"/>
<path d="M232.682 141.394C232.772 141.277 232.863 141.162 232.955 141.047C232.863 141.162 232.772 141.277 232.682 141.394Z" fill="#3898FC"/>
<path d="M228.823 152.792C228.823 152.493 228.831 152.195 228.845 151.898C228.831 152.195 228.823 152.493 228.823 152.792C228.823 153.092 228.831 153.39 228.845 153.687C228.831 153.39 228.823 153.093 228.823 152.792Z" fill="#3898FC"/>
<path d="M234.524 139.315C234.62 139.222 234.716 139.13 234.814 139.039C234.716 139.13 234.62 139.222 234.524 139.315Z" fill="#3898FC"/>
<path d="M229.424 148.062C229.489 147.81 229.561 147.56 229.637 147.312C229.561 147.56 229.489 147.81 229.424 148.062Z" fill="#3898FC"/>
<path d="M233.903 139.948C233.983 139.863 234.063 139.779 234.144 139.695C234.063 139.779 233.983 139.863 233.903 139.948Z" fill="#3898FC"/>
<path d="M229.424 157.523C229.489 157.776 229.561 158.026 229.637 158.274C229.561 158.026 229.489 157.776 229.424 157.523Z" fill="#3898FC"/>
<path d="M229.225 156.656C229.279 156.915 229.338 157.173 229.403 157.428C229.338 157.173 229.279 156.915 229.225 156.656Z" fill="#3898FC"/>
<path d="M229.685 158.43C229.76 158.667 229.84 158.902 229.924 159.135C229.84 158.902 229.76 158.667 229.685 158.43Z" fill="#3898FC"/>
<path d="M230.001 159.344C230.085 159.568 230.172 159.79 230.264 160.01C230.172 159.79 230.084 159.568 230.001 159.344Z" fill="#3898FC"/>
<path d="M230.353 160.227C230.446 160.442 230.541 160.657 230.642 160.868C230.541 160.656 230.446 160.442 230.353 160.227Z" fill="#3898FC"/>
<path d="M228.928 154.781C228.957 155.052 228.991 155.32 229.031 155.587C228.991 155.32 228.957 155.052 228.928 154.781Z" fill="#3898FC"/>
<path d="M234.817 166.548C234.714 166.453 234.613 166.356 234.512 166.258C234.613 166.356 234.714 166.453 234.817 166.548Z" fill="#3898FC"/>
<path d="M233.275 164.93C233.356 165.025 233.438 165.12 233.521 165.214C233.438 165.12 233.356 165.026 233.275 164.93Z" fill="#3898FC"/>
<path d="M233.899 165.633C233.982 165.721 234.065 165.808 234.149 165.894C234.065 165.808 233.982 165.72 233.899 165.633Z" fill="#3898FC"/>
<path d="M229.225 148.919C229.279 148.66 229.338 148.403 229.403 148.148C229.338 148.403 229.279 148.66 229.225 148.919Z" fill="#3898FC"/>
<path d="M228.854 151.788C228.869 151.508 228.891 151.23 228.918 150.953C228.891 151.23 228.869 151.508 228.854 151.788Z" fill="#3898FC"/>
<path d="M228.928 150.806C228.957 150.536 228.991 150.267 229.031 150C228.991 150.267 228.957 150.536 228.928 150.806Z" fill="#3898FC"/>
<path d="M230.747 161.086C230.832 161.26 230.921 161.433 231.012 161.604C230.921 161.432 230.832 161.26 230.747 161.086Z" fill="#3898FC"/>
<path d="M259.427 38.5231C259.67 38.4403 259.86 38.2981 259.997 38.0963C260.135 37.8943 260.204 37.6418 260.204 37.3388C260.204 36.9994 260.113 36.7252 259.932 36.5163C259.751 36.3073 259.495 36.1755 259.165 36.1203C259 36.0973 258.505 36.0859 257.68 36.0859H256.091V38.6473H257.597C258.574 38.6471 259.184 38.6057 259.427 38.5231Z" fill="#3898FC"/>
<path d="M212.702 42.2549C212.919 42.0576 213.097 41.7328 213.235 41.2807C213.373 40.8285 213.441 40.2123 213.441 39.432C213.441 38.6518 213.372 38.0527 213.235 37.635C213.097 37.2174 212.905 36.8914 212.657 36.6573C212.41 36.4232 212.095 36.265 211.715 36.1822C211.431 36.118 210.873 36.0859 210.044 36.0859H209.129V42.7712H210.649C211.217 42.7712 211.628 42.7391 211.88 42.675C212.21 42.5923 212.484 42.4523 212.702 42.2549Z" fill="#3898FC"/>
<path d="M247.83 36.7344L246.468 40.4798H249.219L247.83 36.7344Z" fill="#3898FC"/>
<path d="M269.776 36.6573C269.529 36.4232 269.215 36.265 268.834 36.1822C268.55 36.118 267.992 36.0859 267.163 36.0859H266.248V42.7712H267.768C268.336 42.7712 268.747 42.7391 268.999 42.675C269.329 42.5922 269.603 42.4523 269.821 42.2549C270.039 42.0576 270.216 41.7328 270.354 41.2807C270.492 40.8285 270.56 40.2123 270.56 39.432C270.56 38.6518 270.492 38.0527 270.354 37.635C270.216 37.2176 270.024 36.8915 269.776 36.6573Z" fill="#3898FC"/>
<path d="M193.482 38.0963C193.619 37.8943 193.688 37.6418 193.688 37.3388C193.688 36.9994 193.597 36.7252 193.416 36.5163C193.235 36.3073 192.98 36.1755 192.649 36.1203C192.484 36.0973 191.989 36.0859 191.164 36.0859H189.575V38.6473H191.081C192.058 38.6473 192.668 38.6059 192.911 38.5233C193.154 38.4403 193.344 38.2983 193.482 38.0963Z" fill="#3898FC"/>
<path d="M274.589 24H39.4106C30.8994 24 24 30.9069 24 39.4268V173.573C24 182.093 30.8994 189 39.4106 189H274.589C283.1 189 290 182.093 290 173.573V39.4268C290 30.9069 283.1 24 274.589 24ZM254.054 34.3798H258.339C259.416 34.3798 260.199 34.4706 260.688 34.6517C261.176 34.8332 261.567 35.1556 261.86 35.6191C262.153 36.0828 262.3 36.6129 262.3 37.2096C262.3 37.9669 262.078 38.5923 261.633 39.0859C261.188 39.5792 260.524 39.8903 259.639 40.0187C260.079 40.2759 260.442 40.5581 260.729 40.8655C261.015 41.1731 261.402 41.7194 261.888 42.5041L263.119 44.4733H260.684L259.212 42.2769C258.689 41.4918 258.332 40.9974 258.139 40.7931C257.947 40.5891 257.743 40.4488 257.527 40.3733C257.312 40.2975 256.97 40.2595 256.502 40.2595H256.09V44.4733H254.054V34.3798H254.054ZM246.777 34.3798H248.93L252.967 44.4735H250.753L249.872 42.1807H245.842L245.01 44.4735H242.85L246.777 34.3798ZM234.645 35.6019C235.511 34.6726 236.651 34.2078 238.063 34.2078C239.296 34.2078 240.298 34.5727 241.069 35.3025C241.527 35.7342 241.871 36.3538 242.1 37.1615L240.085 37.6434C239.966 37.1202 239.717 36.7071 239.339 36.404C238.96 36.1013 238.501 35.9496 237.96 35.9496C237.212 35.9496 236.606 36.2182 236.141 36.7552C235.675 37.2922 235.443 38.162 235.443 39.3645C235.443 40.6407 235.672 41.5497 236.13 42.091C236.589 42.6326 237.185 42.9035 237.918 42.9035C238.459 42.9035 238.925 42.7313 239.315 42.387C239.704 42.0427 239.984 41.5014 240.154 40.7622L242.128 41.3887C241.825 42.4903 241.322 43.3086 240.618 43.8432C239.914 44.3782 239.021 44.6453 237.939 44.6453C236.6 44.6453 235.5 44.1875 234.638 43.2719C233.776 42.356 233.345 41.1042 233.345 39.516C233.345 37.8363 233.778 36.5316 234.645 35.6019ZM230.87 103.511H234.478L230.542 109.017L234.839 115.137H231.066L228.704 111.535L226.32 115.137H222.722L226.911 109.149L222.897 103.511H226.648L228.704 106.708L230.87 103.511ZM220.463 34.3798H228.475V36.0874H225.49V44.4735H223.455V36.0874H220.463V34.3798ZM217.21 34.3798H219.245V44.4735H217.21V34.3798ZM218.414 103.511H222.023L218.086 109.017L222.383 115.137H218.611L216.249 111.535L213.865 115.137H210.267L214.455 109.149L210.442 103.511H214.193L216.249 106.708L218.414 103.511ZM207.092 34.3798H210.813C211.652 34.3798 212.292 34.4441 212.732 34.5727C213.324 34.7472 213.83 35.0571 214.252 35.5023C214.674 35.9477 214.995 36.4926 215.215 37.1374C215.435 37.7824 215.545 38.5776 215.545 39.5232C215.545 40.3538 215.442 41.0699 215.236 41.6713C214.984 42.4056 214.624 43.0001 214.156 43.4545C213.803 43.7988 213.326 44.0672 212.725 44.2601C212.276 44.4024 211.675 44.4737 210.923 44.4737H207.092L207.092 34.3798ZM187.539 34.3798H191.824C192.901 34.3798 193.684 34.4706 194.172 34.6517C194.661 34.8332 195.051 35.1556 195.345 35.6191C195.638 36.0828 195.785 36.6129 195.785 37.2096C195.785 37.9669 195.563 38.5923 195.118 39.0859C194.673 39.5792 194.008 39.8903 193.123 40.0187C193.563 40.2759 193.927 40.5581 194.214 40.8655C194.5 41.1731 194.886 41.7194 195.372 42.5041L196.604 44.4733H194.169L192.697 42.2769C192.174 41.4918 191.817 40.9974 191.624 40.7931C191.431 40.5891 191.227 40.4488 191.012 40.3733C190.796 40.2975 190.455 40.2595 189.987 40.2595H189.574V44.4733H187.539V34.3798ZM72.3655 44.6454H77.8877C81.087 44.6454 83.6803 47.2417 83.6803 50.4442V50.7383H72.3655V44.6454ZM72.3655 51.4089H83.6802V57.2604H72.3655V51.4089ZM72.3655 57.9311H83.6802V63.3691H72.3655V57.9311ZM43.5187 50.4442C43.5187 47.2417 46.1123 44.6454 49.3113 44.6454H54.7233V50.7381H43.5187V50.4442ZM43.5187 51.4089H54.7233V57.2604H43.5187V51.4089ZM43.5187 57.9311H54.7233V63.3691H43.5187V57.9311ZM43.5187 64.7475V64.0399H54.7233V70.5461H55.3933V44.6454H71.6956V70.5459H72.3655V64.0397H83.6802V64.7474C83.6802 67.9498 81.0868 70.5461 77.8876 70.5461H49.3112C46.1121 70.5463 43.5187 67.95 43.5187 64.7475ZM75.3879 115.137L73.0258 111.535L70.642 115.137H67.0441L71.2324 109.149L67.2191 103.511H70.9699L73.0258 106.708L75.1912 103.511H78.8L74.8632 109.017L79.1607 115.137H75.3879ZM87.8437 115.137L85.4816 111.535L83.0977 115.137H79.4999L83.6882 109.149L79.6748 103.511H83.4256L85.4816 106.708L87.6469 103.511H91.2558L87.319 109.017L91.6167 115.137H87.8437ZM100.299 115.137L97.937 111.535L95.5531 115.137H91.9552L96.1435 109.149L92.1302 103.511H95.881L97.937 106.708L100.102 103.511H103.711L99.7744 109.017L104.072 115.137H100.299ZM112.755 115.137L110.393 111.535L108.009 115.137H104.411L108.599 109.149L104.586 103.511H108.337L110.393 106.708L112.558 103.511H116.167L112.23 109.017L116.528 115.137H112.755ZM137.655 115.137L135.293 111.535L132.909 115.137H129.311L133.499 109.149L129.486 103.511H133.237L135.293 106.708L137.458 103.511H141.067L137.13 109.017L141.428 115.137H137.655ZM150.111 115.137L147.749 111.535L145.365 115.137H141.767L145.955 109.149L141.942 103.511H145.693L147.749 106.708L149.914 103.511H153.523L149.586 109.017L153.884 115.137H150.111ZM162.566 115.137L160.204 111.535L157.82 115.137H154.222L158.411 109.149L154.397 103.511H158.148L160.204 106.708L162.369 103.511H165.978L162.042 109.017L166.339 115.137H162.566ZM175.022 115.137L172.66 111.535L170.276 115.137H166.678L170.866 109.149L166.853 103.511H170.604L172.66 106.708L174.825 103.511H178.434L174.497 109.017L178.795 115.137H175.022ZM184.275 43.8434C183.571 44.3783 182.678 44.6454 181.596 44.6454C180.257 44.6454 179.157 44.1877 178.295 43.2721C177.433 42.3562 177.002 41.1044 177.002 39.5162C177.002 37.8363 177.435 36.5316 178.302 35.6019C179.168 34.6726 180.308 34.2078 181.72 34.2078C182.953 34.2078 183.955 34.5727 184.726 35.3025C185.184 35.7342 185.528 36.3538 185.757 37.1615L183.742 37.6434C183.623 37.1202 183.374 36.7071 182.996 36.404C182.617 36.1013 182.158 35.9496 181.617 35.9496C180.869 35.9496 180.263 36.2182 179.798 36.7552C179.332 37.2922 179.1 38.162 179.1 39.3645C179.1 40.6407 179.329 41.5497 179.787 42.091C180.246 42.6326 180.842 42.9035 181.576 42.9035C182.117 42.9035 182.582 42.7313 182.972 42.387C183.361 42.0427 183.641 41.5014 183.811 40.7622L185.785 41.3887C185.482 42.4905 184.979 43.3088 184.275 43.8434ZM193.7 115.137L191.338 111.535L188.954 115.137H185.356L189.544 109.149L185.531 103.511H189.282L191.338 106.708L193.503 103.511H197.112L193.175 109.017L197.472 115.137H193.7ZM197.704 34.3798H205.18V36.0874H199.74V38.325H204.802V40.0258H199.74V42.7729H205.373V44.4737H197.704L197.704 34.3798ZM201.409 115.137H197.812L202 109.149L197.986 103.511H201.737L203.793 106.708L205.959 103.511H209.567L205.631 109.017L209.928 115.137H206.155L203.793 111.535L201.409 115.137ZM247.585 171.572C242.798 171.572 238.433 169.775 235.118 166.822C235.252 166.941 235.387 167.059 235.524 167.174C232.263 169.917 228.057 171.572 223.464 171.572C213.102 171.572 204.703 163.164 204.703 152.792C204.703 142.419 213.102 134.011 223.464 134.011C228.057 134.011 232.263 135.666 235.524 138.41C238.785 135.666 242.991 134.011 247.585 134.011C257.946 134.011 266.345 142.419 266.345 152.792C266.345 163.164 257.946 171.572 247.585 171.572ZM272.356 41.6711C272.104 42.4055 271.744 42.9999 271.276 43.4543C270.923 43.7986 270.446 44.067 269.846 44.2599C269.396 44.4022 268.795 44.4735 268.044 44.4735H264.213V34.3798H267.933C268.773 34.3798 269.412 34.4441 269.852 34.5727C270.444 34.7472 270.95 35.0571 271.372 35.5023C271.794 35.9477 272.115 36.4926 272.335 37.1374C272.555 37.7824 272.666 38.5776 272.666 39.5232C272.665 40.3538 272.562 41.0699 272.356 41.6711Z" fill="#3898FC"/>
</g>
</g>
<defs>
<filter id="filter0_d_2273_18453" x="8.9" y="12.9" width="292.2" height="191.2" filterUnits="userSpaceOnUse" color-interpolation-filters="sRGB">
<feFlood flood-opacity="0" result="BackgroundImageFix"/>
<feColorMatrix in="SourceAlpha" type="matrix" values="0 0 0 0 0 0 0 0 0 0 0 0 0 0 0 0 0 0 127 0" result="hardAlpha"/>
<feOffset dx="-2" dy="2"/>
<feGaussianBlur stdDeviation="6.55"/>
<feComposite in2="hardAlpha" operator="out"/>
<feColorMatrix type="matrix" values="0 0 0 0 0 0 0 0 0 0 0 0 0 0 0 0 0 0 0.18 0"/>
<feBlend mode="normal" in2="BackgroundImageFix" result="effect1_dropShadow_2273_18453"/>
<feBlend mode="normal" in="SourceGraphic" in2="effect1_dropShadow_2273_18453" result="shape"/>
</filter>
<clipPath id="clip0_2273_18453">
<rect x="24" y="24" width="266" height="165" rx="16" fill="white"/>
</clipPath>
</defs>
</svg>
