<svg width="14" height="20" viewBox="0 0 14 20" fill="none" xmlns="http://www.w3.org/2000/svg">
<g clip-path="url(#clip0_2890_11615)">
<path fill-rule="evenodd" clip-rule="evenodd" d="M6.68857 6.3078C6.31993 6.35063 6.0388 6.65 6.01267 7.02754C6.0014 7.19022 6.00493 7.20125 6.37366 8.1501C7.21257 10.3089 7.41581 10.8285 7.44999 10.9016C7.5328 11.0787 7.64925 11.2453 7.79474 11.3948C7.90638 11.5096 7.98001 11.5713 8.10454 11.6544C8.32341 11.8006 8.43202 11.841 9.28368 12.0932C10.1133 12.3388 10.5665 12.5021 10.9571 12.6959C11.4631 12.9471 11.8161 13.2327 12.0394 13.5717C12.1996 13.8149 12.3415 14.251 12.4033 14.69C12.4274 14.8616 12.4276 15.2409 12.4035 15.3961C12.3515 15.7328 12.2474 16.0149 12.0883 16.251C12.0036 16.3766 12.0331 16.3556 12.1561 16.2026C12.5044 15.7695 12.8592 15.0294 13.0402 14.3583C13.2593 13.5461 13.2891 12.6739 13.126 11.8483C12.8083 10.2407 11.7934 8.85336 10.3641 8.07274C10.2743 8.02368 9.93224 7.84438 9.46849 7.60327C9.39812 7.56666 9.30216 7.51657 9.25525 7.49194C9.20833 7.46729 9.11237 7.41719 9.042 7.38061C8.97163 7.34403 8.76905 7.23848 8.59183 7.14608C8.4146 7.05366 8.2163 6.95026 8.15114 6.91629C7.95253 6.81274 7.81927 6.74317 7.71991 6.69116C7.26038 6.45059 7.06587 6.35334 7.01042 6.33647C6.95226 6.31877 6.8045 6.29606 6.76743 6.29911C6.75962 6.29975 6.72413 6.30366 6.68857 6.3078Z" fill="url(#paint0_radial_2890_11615)"/>
<path d="M7.68987 14.3658C7.6644 14.3809 7.62866 14.4028 7.61042 14.4143C7.59216 14.4259 7.55165 14.4511 7.52038 14.4703C7.40559 14.5408 7.10032 14.7289 6.838 14.8908C6.6656 14.9972 6.64001 15.0131 6.42101 15.149C6.3428 15.1975 6.25964 15.2487 6.23618 15.2626C6.21272 15.2766 6.11251 15.3383 6.01347 15.3998C5.91442 15.4612 5.74171 15.5679 5.62964 15.6367C5.51757 15.7056 5.31712 15.8293 5.18421 15.9115C5.05128 15.9937 4.87642 16.1016 4.79563 16.1511C4.71483 16.2007 4.6402 16.2485 4.62978 16.2575C4.61429 16.2707 3.89569 16.7159 3.53513 16.9355C3.26128 17.1024 2.94448 17.2139 2.62019 17.2578C2.46921 17.2782 2.18351 17.2782 2.03296 17.2579C1.62474 17.2028 1.24867 17.0505 0.926603 16.81C0.800269 16.7157 0.562425 16.4781 0.471499 16.3553C0.257226 16.066 0.118609 15.7557 0.0468174 15.4046C0.0302985 15.3238 0.0146705 15.2556 0.0121022 15.253C0.00539216 15.2462 0.0175131 15.3683 0.0393774 15.5278C0.0621137 15.6938 0.110563 15.9338 0.162746 16.1391C0.566558 17.7279 1.71563 19.0201 3.27118 19.6349C3.71911 19.8119 4.17112 19.9234 4.66294 19.9781C4.84774 19.9988 5.37085 20.007 5.56372 19.9923C6.44823 19.9253 7.21839 19.665 8.00847 19.1657C8.07884 19.1212 8.21104 19.0378 8.30226 18.9804C8.39349 18.923 8.50862 18.85 8.55815 18.8182C8.60767 18.7864 8.66737 18.7488 8.69083 18.7347C8.71429 18.7206 8.7612 18.6911 8.79509 18.6692C8.82897 18.6473 8.97397 18.5556 9.11731 18.4654L9.69052 18.1033L9.88733 17.979L9.89442 17.9746L9.9161 17.9609L9.92642 17.9543L10.0713 17.8628L10.5721 17.5465C11.2102 17.1456 11.4005 17.0048 11.6969 16.7144C11.8205 16.5934 12.0068 16.3867 12.0161 16.3605C12.018 16.3552 12.0511 16.3041 12.0897 16.247C12.2466 16.0148 12.3512 15.7305 12.403 15.3951C12.427 15.24 12.4269 14.8607 12.4027 14.6891C12.3561 14.3573 12.2501 13.981 12.1358 13.7413C11.9483 13.3484 11.549 12.9914 10.9754 12.7038C10.817 12.6244 10.6535 12.5518 10.6352 12.5527C10.6266 12.5532 10.0928 12.8795 9.44903 13.2778C8.80528 13.6762 8.24657 14.0219 8.20749 14.0462C8.16839 14.0705 8.10122 14.1115 8.05821 14.1374L7.68987 14.3658Z" fill="url(#paint1_radial_2890_11615)"/>
<path d="M0.00275691 12.455L0.00551498 15.2295L0.0414254 15.3906C0.153713 15.8944 0.348266 16.2576 0.686484 16.5949C0.845572 16.7536 0.967225 16.8492 1.13962 16.9512C1.50441 17.1671 1.89702 17.2736 2.32707 17.2734C2.77748 17.2732 3.16711 17.1608 3.56861 16.9154C3.63637 16.874 3.90186 16.7106 4.15857 16.5522L4.62533 16.2642V12.9724V9.68053L4.6252 6.66908C4.6251 4.74783 4.62158 3.60684 4.61551 3.51732C4.57723 2.9548 4.34197 2.43768 3.94639 2.04652C3.82498 1.92648 3.72125 1.8463 3.41223 1.63365C3.25846 1.52782 2.97697 1.33396 2.78672 1.20285C2.59646 1.07173 2.28301 0.855732 2.09014 0.72284C1.89727 0.589957 1.62219 0.400363 1.47884 0.301533C1.18022 0.0956361 1.15685 0.0813154 1.06658 0.0490164C0.94916 0.00701265 0.824732 -0.0084163 0.706436 0.00435923C0.361646 0.0415959 0.0856371 0.290539 0.0138933 0.628986C0.00272895 0.681643 0.000672025 1.38241 0.000529863 5.18586L0.000369055 9.68053H0L0.00275691 12.455Z" fill="url(#paint2_linear_2890_11615)"/>
</g>
<defs>
<radialGradient id="paint0_radial_2890_11615" cx="0" cy="0" r="1" gradientUnits="userSpaceOnUse" gradientTransform="translate(12.7761 14.1072) rotate(-130.909) scale(10.3333 7.43525)">
<stop stop-color="#00CACC"/>
<stop offset="1" stop-color="#048FCE"/>
</radialGradient>
<radialGradient id="paint1_radial_2890_11615" cx="0" cy="0" r="1" gradientUnits="userSpaceOnUse" gradientTransform="translate(1.73443 17.8735) rotate(-23.1954) scale(11.177 18.6268)">
<stop stop-color="#00BBEC"/>
<stop offset="1" stop-color="#2756A9"/>
</radialGradient>
<linearGradient id="paint2_linear_2890_11615" x1="2.31268" y1="-6.0727e-09" x2="2.31268" y2="17.2734" gradientUnits="userSpaceOnUse">
<stop stop-color="#00BBEC"/>
<stop offset="1" stop-color="#2756A9"/>
</linearGradient>
<clipPath id="clip0_2890_11615">
<rect width="13.2422" height="20" fill="white"/>
</clipPath>
</defs>
</svg>
