<svg width="49" height="38" viewBox="0 0 49 38" fill="none" xmlns="http://www.w3.org/2000/svg">
<path d="M46.1272 0.0046063C41.4653 0.2684 32.1993 1.22857 26.4792 4.71981C26.0844 4.9607 25.8607 5.38904 25.8607 5.8369V36.7007C25.8607 37.6804 26.9352 38.2996 27.8412 37.845C33.7264 34.8915 42.2377 34.0857 46.4462 33.8652C47.883 33.7897 49 32.6412 49 31.2645V2.60861C49.0009 1.10643 47.6942 -0.0836076 46.1272 0.0046063ZM22.5208 4.71981C16.8015 1.22857 7.53558 0.269248 2.8737 0.0046063C1.30669 -0.0836076 0 1.10643 0 2.60861V31.2654C0 32.6429 1.11698 33.7914 2.55383 33.866C6.76399 34.0865 15.2796 34.8932 21.1648 37.8483C22.0682 38.3021 23.1393 37.6838 23.1393 36.7067V5.82163C23.1393 5.37293 22.9164 4.96155 22.5208 4.71981Z" fill="#C1E4FF"/>
<path d="M46.1272 0.0046063C41.4653 0.2684 32.1993 1.22857 26.4792 4.71981C26.0844 4.9607 25.8607 5.38904 25.8607 5.8369V36.7007C25.8607 37.6804 26.9352 38.2996 27.8412 37.845C33.7264 34.8915 42.2377 34.0857 46.4462 33.8652C47.883 33.7897 49 32.6412 49 31.2645V2.60861C49.0009 1.10643 47.6942 -0.0836076 46.1272 0.0046063ZM22.5208 4.71981C16.8015 1.22857 7.53558 0.269248 2.8737 0.0046063C1.30669 -0.0836076 0 1.10643 0 2.60861V31.2654C0 32.6429 1.11698 33.7914 2.55383 33.866C6.76399 34.0865 15.2796 34.8932 21.1648 37.8483C22.0682 38.3021 23.1393 37.6838 23.1393 36.7067V5.82163C23.1393 5.37293 22.9164 4.96155 22.5208 4.71981Z" fill="#C1E4FF"/>
<g clip-path="url(#clip0_2003_2124)">
<path d="M46.1272 0.0046063C41.4653 0.2684 32.1993 1.22857 26.4792 4.71981C26.0844 4.9607 25.8607 5.38904 25.8607 5.8369V36.7007C25.8607 37.6804 26.9352 38.2996 27.8412 37.845C33.7264 34.8915 42.2377 34.0857 46.4462 33.8652C47.883 33.7897 49 32.6412 49 31.2645V2.60861C49.0009 1.10643 47.6942 -0.0836076 46.1272 0.0046063ZM22.5208 4.71981C16.8015 1.22857 7.53558 0.269248 2.8737 0.0046063C1.30669 -0.0836076 0 1.10643 0 2.60861V31.2654C0 32.6429 1.11698 33.7914 2.55383 33.866C6.76399 34.0865 15.2796 34.8932 21.1648 37.8483C22.0682 38.3021 23.1393 37.6838 23.1393 36.7067V5.82163C23.1393 5.37293 22.9164 4.96155 22.5208 4.71981Z" fill="#C1E4FF"/>
</g>
<defs>
<clipPath id="clip0_2003_2124">
<rect width="18" height="38" fill="white" transform="translate(31)"/>
</clipPath>
</defs>
</svg>
