<svg width="24" height="24" viewBox="0 0 24 24" fill="none" xmlns="http://www.w3.org/2000/svg">
<g id="vuesax/outline/calendar-2">
<g id="calendar-2">
<path id="Vector" d="M8 5.61667C7.66364 5.61667 7.38333 5.33636 7.38333 5V2C7.38333 1.66364 7.66364 1.38333 8 1.38333C8.33636 1.38333 8.61667 1.66364 8.61667 2V5C8.61667 5.33636 8.33636 5.61667 8 5.61667Z" fill="#737373" stroke="#737373" stroke-width="0.266667"/>
<path id="Vector_2" d="M16 5.61667C15.6636 5.61667 15.3833 5.33636 15.3833 5V2C15.3833 1.66364 15.6636 1.38333 16 1.38333C16.3364 1.38333 16.6167 1.66364 16.6167 2V5C16.6167 5.33636 16.3364 5.61667 16 5.61667Z" fill="#737373" stroke="#737373" stroke-width="0.266667"/>
<path id="Vector_3" d="M20.5 9.83984H3.5C3.09 9.83984 2.75 9.49984 2.75 9.08984C2.75 8.67984 3.09 8.33984 3.5 8.33984H20.5C20.91 8.33984 21.25 8.67984 21.25 9.08984C21.25 9.49984 20.91 9.83984 20.5 9.83984Z" fill="#737373"/>
<path id="Vector_4" d="M16 22.6167H8C6.20031 22.6167 4.80047 22.0994 3.85053 21.1495C2.9006 20.1995 2.38333 18.7997 2.38333 17V8.5C2.38333 6.70031 2.9006 5.30047 3.85053 4.35053C4.80047 3.4006 6.20031 2.88333 8 2.88333H16C17.7997 2.88333 19.1995 3.4006 20.1495 4.35053C21.0994 5.30047 21.6167 6.70031 21.6167 8.5V17C21.6167 18.7997 21.0994 20.1995 20.1495 21.1495C19.1995 22.0994 17.7997 22.6167 16 22.6167ZM8 4.11667C6.5504 4.11667 5.44752 4.46892 4.70822 5.20822C3.96892 5.94752 3.61667 7.0504 3.61667 8.5V17C3.61667 18.4496 3.96892 19.5525 4.70822 20.2918C5.44752 21.0311 6.5504 21.3833 8 21.3833H16C17.4496 21.3833 18.5525 21.0311 19.2918 20.2918C20.0311 19.5525 20.3833 18.4496 20.3833 17V8.5C20.3833 7.0504 20.0311 5.94752 19.2918 5.20822C18.5525 4.46892 17.4496 4.11667 16 4.11667H8Z" fill="#737373" stroke="#737373" stroke-width="0.266667"/>
<path id="Vector_5" d="M8.17128 12.7031L8.17129 12.7031L8.17415 12.7018C8.32756 12.6337 8.49938 12.6158 8.67386 12.6507L8.67385 12.6508L8.67809 12.6515C8.72371 12.6591 8.77105 12.6746 8.82038 12.6993L8.82885 12.7035L8.83784 12.7065C8.8837 12.7218 8.93155 12.7452 8.9814 12.7779L9.0517 12.8341L9.11559 12.8852C9.12814 12.9004 9.14175 12.9162 9.15389 12.9302C9.16056 12.9379 9.16679 12.9451 9.17215 12.9514C9.19261 12.9754 9.2066 12.9935 9.21565 13.0086L9.21552 13.0087L9.21905 13.014C9.2534 13.0655 9.27776 13.1149 9.29352 13.1622L9.29652 13.1712L9.30076 13.1796C9.32516 13.2284 9.34057 13.2753 9.34825 13.3205C9.34931 13.3279 9.35033 13.335 9.35133 13.3419C9.36022 13.4034 9.36667 13.448 9.36667 13.5C9.36667 13.7225 9.27233 13.949 9.11567 14.1157C8.94899 14.2723 8.72246 14.3667 8.5 14.3667C8.39022 14.3667 8.27763 14.3413 8.17128 14.2969C8.06774 14.2538 7.97222 14.1936 7.88444 14.1156C7.80642 14.0278 7.74621 13.9323 7.70306 13.8287C7.65875 13.7224 7.63333 13.6098 7.63333 13.5C7.63333 13.2781 7.72721 13.0521 7.88318 12.8856C7.97131 12.807 8.06725 12.7464 8.17128 12.7031Z" fill="#737373" stroke="#737373" stroke-width="0.266667"/>
<path id="Vector_6" d="M11.2065 13.8377L11.2035 13.8287L11.1992 13.8202C11.1748 13.7714 11.1594 13.7246 11.1517 13.6794C11.1507 13.672 11.1497 13.6649 11.1487 13.658C11.1398 13.5965 11.1333 13.5519 11.1333 13.4999C11.1333 13.3901 11.1588 13.2775 11.2031 13.1712C11.2466 13.0666 11.3076 12.9702 11.3867 12.8817C11.6293 12.6413 12.019 12.5653 12.3259 12.7017L12.3258 12.7019L12.3321 12.7043C12.4411 12.7462 12.5264 12.8046 12.6168 12.8854C12.7728 13.052 12.8667 13.2779 12.8667 13.4999C12.8667 13.5519 12.8602 13.5965 12.8513 13.658C12.8503 13.6649 12.8493 13.672 12.8483 13.6794C12.8406 13.7246 12.8252 13.7714 12.8008 13.8202L12.7965 13.8287L12.7935 13.8377C12.7782 13.8836 12.7549 13.9314 12.7221 13.9813L12.6659 14.0516L12.6128 14.1179C12.5239 14.1968 12.4395 14.2542 12.3321 14.2954L12.3321 14.2954L12.3287 14.2968C12.2224 14.3411 12.1098 14.3665 12 14.3665C11.7792 14.3665 11.5545 14.2736 11.3882 14.1191L11.3341 14.0516L11.2779 13.9813C11.2451 13.9314 11.2218 13.8836 11.2065 13.8377Z" fill="#737373" stroke="#737373" stroke-width="0.266667"/>
<path id="Vector_7" d="M7.70443 17.332L7.70448 17.332L7.70306 17.3286C7.65875 17.2222 7.63333 17.1097 7.63333 16.9999C7.63333 16.778 7.72721 16.552 7.88318 16.3854C7.97131 16.3069 8.06725 16.2463 8.17128 16.2029L8.17128 16.2029L8.17292 16.2022C8.48963 16.0653 8.86855 16.141 9.11088 16.3794C9.12468 16.3963 9.14022 16.4143 9.15389 16.43C9.16056 16.4377 9.16679 16.4449 9.17215 16.4512C9.19261 16.4753 9.2066 16.4934 9.21565 16.5085L9.21552 16.5086L9.21905 16.5138C9.2534 16.5654 9.27776 16.6148 9.29352 16.662L9.29652 16.671L9.30076 16.6795C9.32492 16.7278 9.34022 16.7741 9.34802 16.8287L9.34798 16.8287L9.34849 16.8318C9.35841 16.8913 9.36667 16.9518 9.36667 16.9999C9.36667 17.2223 9.27233 17.4489 9.11567 17.6155C8.94899 17.7722 8.72246 17.8665 8.5 17.8665C8.39022 17.8665 8.27763 17.8411 8.17128 17.7968C8.06772 17.7537 7.97218 17.6934 7.88439 17.6154C7.8042 17.5255 7.74613 17.4404 7.70443 17.332Z" fill="#737373" stroke="#737373" stroke-width="0.266667"/>
</g>
</g>
</svg>
