<svg width="18" height="18" viewBox="0 0 18 18" fill="none" xmlns="http://www.w3.org/2000/svg">
<path d="M6 4.2125C5.74773 4.2125 5.5375 4.00227 5.5375 3.75V1.5C5.5375 1.24773 5.74773 1.0375 6 1.0375C6.25227 1.0375 6.4625 1.24773 6.4625 1.5V3.75C6.4625 4.00227 6.25227 4.2125 6 4.2125Z" fill="#737373" stroke="#737373" stroke-width="0.2"/>
<path d="M12 4.2125C11.7477 4.2125 11.5375 4.00227 11.5375 3.75V1.5C11.5375 1.24773 11.7477 1.0375 12 1.0375C12.2523 1.0375 12.4625 1.24773 12.4625 1.5V3.75C12.4625 4.00227 12.2523 4.2125 12 4.2125Z" fill="#737373" stroke="#737373" stroke-width="0.2"/>
<path d="M15.375 7.37997H2.625C2.3175 7.37997 2.0625 7.12497 2.0625 6.81747C2.0625 6.50997 2.3175 6.25497 2.625 6.25497H15.375C15.6825 6.25497 15.9375 6.50997 15.9375 6.81747C15.9375 7.12497 15.6825 7.37997 15.375 7.37997Z" fill="#737373"/>
<path d="M12 16.9625H6C4.65023 16.9625 3.60035 16.5746 2.8879 15.8621C2.17545 15.1496 1.7875 14.0998 1.7875 12.75V6.375C1.7875 5.02523 2.17545 3.97535 2.8879 3.2629C3.60035 2.55045 4.65023 2.1625 6 2.1625H12C13.3498 2.1625 14.3996 2.55045 15.1121 3.2629C15.8246 3.97535 16.2125 5.02523 16.2125 6.375V12.75C16.2125 14.0998 15.8246 15.1496 15.1121 15.8621C14.3996 16.5746 13.3498 16.9625 12 16.9625ZM6 3.0875C4.9128 3.0875 4.08564 3.35169 3.53116 3.90616C2.97669 4.46064 2.7125 5.2878 2.7125 6.375V12.75C2.7125 13.8372 2.97669 14.6644 3.53116 15.2188C4.08564 15.7733 4.9128 16.0375 6 16.0375H12C13.0872 16.0375 13.9144 15.7733 14.4688 15.2188C15.0233 14.6644 15.2875 13.8372 15.2875 12.75V6.375C15.2875 5.2878 15.0233 4.46064 14.4688 3.90616C13.9144 3.35169 13.0872 3.0875 12 3.0875H6Z" fill="#737373" stroke="#737373" stroke-width="0.2"/>
<path d="M6.09 9.435C6 9.4725 5.91751 9.52502 5.84251 9.59252C5.70751 9.73502 5.625 9.93001 5.625 10.125C5.625 10.2225 5.64749 10.32 5.68499 10.41C5.72249 10.5 5.77501 10.5825 5.84251 10.6575L6.09 9.435ZM6.09 9.435C6.225 9.375 6.37501 9.36 6.52501 9.39L6.09 9.435ZM5.91333 10.5867C5.85481 10.5208 5.80965 10.4492 5.7773 10.3716C5.74406 10.2918 5.725 10.2073 5.725 10.125C5.725 9.95857 5.79541 9.78909 5.91239 9.66417C5.97848 9.60525 6.05043 9.55982 6.12846 9.52731L6.12847 9.52733L6.13061 9.52638C6.24567 9.47524 6.37454 9.46189 6.5054 9.48806L6.50539 9.48811L6.50857 9.48864C6.54278 9.49434 6.57829 9.50595 6.61528 9.52444L6.62164 9.52762L6.62838 9.52987C6.66278 9.54133 6.69866 9.55887 6.73605 9.58342L6.78878 9.6256L6.83669 9.66393C6.84611 9.67534 6.85632 9.68712 6.86541 9.69763C6.87042 9.70341 6.87509 9.7088 6.87911 9.71353C6.89446 9.73158 6.90495 9.74514 6.91174 9.75646L6.91164 9.75652L6.91428 9.76048C6.94005 9.79912 6.95832 9.83617 6.97014 9.87163L6.97239 9.87837L6.97557 9.88473C6.99387 9.92133 7.00543 9.95649 7.01119 9.99037C7.01198 9.99589 7.01275 10.0012 7.0135 10.0064C7.02016 10.0525 7.025 10.086 7.025 10.125C7.025 10.2919 6.95424 10.4618 6.83675 10.5868C6.71174 10.7043 6.54185 10.775 6.375 10.775C6.29266 10.775 6.20822 10.7559 6.12846 10.7227C6.0508 10.6904 5.97916 10.6452 5.91333 10.5867Z" fill="#737373" stroke="#737373" stroke-width="0.2"/>
<path d="M8.40486 10.3784L8.40261 10.3716L8.39943 10.3653C8.38113 10.3287 8.36957 10.2935 8.36381 10.2596C8.36302 10.2541 8.36225 10.2488 8.3615 10.2436C8.35484 10.1975 8.35 10.164 8.35 10.125C8.35 10.0427 8.36906 9.95822 8.4023 9.87845C8.43497 9.80003 8.4807 9.72775 8.54006 9.66138C8.72196 9.48107 9.01428 9.4241 9.24439 9.52637L9.24434 9.52649L9.24911 9.52832C9.33079 9.55974 9.39484 9.60355 9.46259 9.66413C9.57958 9.78906 9.65 9.95855 9.65 10.125C9.65 10.164 9.64516 10.1975 9.6385 10.2436C9.63775 10.2488 9.63698 10.2541 9.63619 10.2596C9.63043 10.2935 9.61887 10.3287 9.60057 10.3653L9.59739 10.3716L9.59514 10.3784C9.58368 10.4128 9.56614 10.4487 9.54159 10.486L9.4994 10.5388L9.45962 10.5885C9.39296 10.6477 9.3296 10.6907 9.24911 10.7217L9.24909 10.7216L9.24654 10.7227C9.16678 10.7559 9.08234 10.775 9 10.775C8.83444 10.775 8.66587 10.7053 8.54114 10.5895L8.5006 10.5388L8.45841 10.486C8.43386 10.4487 8.41632 10.4128 8.40486 10.3784Z" fill="#737373" stroke="#737373" stroke-width="0.2"/>
<path d="M5.77832 12.9991L5.77836 12.9991L5.7773 12.9965C5.74406 12.9168 5.725 12.8323 5.725 12.75C5.725 12.5836 5.79541 12.4141 5.91239 12.2892C5.97848 12.2302 6.05043 12.1848 6.12846 12.1523L6.12846 12.1523L6.12969 12.1518C6.36722 12.0491 6.65141 12.1059 6.83316 12.2846C6.84351 12.2973 6.85517 12.3108 6.86541 12.3226C6.87042 12.3284 6.87509 12.3338 6.87911 12.3385C6.89446 12.3566 6.90495 12.3701 6.91174 12.3814L6.91164 12.3815L6.91428 12.3855C6.94005 12.4241 6.95832 12.4612 6.97014 12.4966L6.97239 12.5034L6.97557 12.5097C6.99369 12.546 7.00516 12.5807 7.01101 12.6216L7.01099 12.6216L7.01137 12.6239C7.01881 12.6686 7.025 12.714 7.025 12.75C7.025 12.9168 6.95424 13.0867 6.83675 13.2117C6.71174 13.3292 6.54185 13.4 6.375 13.4C6.29266 13.4 6.20822 13.3809 6.12846 13.3477C6.05079 13.3153 5.97914 13.2702 5.91329 13.2116C5.85315 13.1442 5.8096 13.0804 5.77832 12.9991Z" fill="#737373" stroke="#737373" stroke-width="0.2"/>
</svg>
