<svg width="840" height="428" viewBox="0 0 840 428" fill="none" xmlns="http://www.w3.org/2000/svg">
<g clip-path="url(#clip0_1268_28966)">
<rect width="840" height="428" rx="4" fill="white"/>
<g opacity="0.3">
<g opacity="0.7">
<path d="M1142.52 263.256C1103.52 282.965 1192.94 329.799 1161.23 353.798C1098.55 401.229 1050.53 442.259 1007.59 478.954C916.113 557.13 721.862 590.58 583.655 649.381C548.285 664.429 518.252 677.439 491.161 690.183C551.465 644.9 590.833 597.216 631.634 547.798C680.316 488.834 731.036 427.402 821.786 364.634C960.612 268.615 1086.59 256.573 1142.52 263.256Z" fill="url(#paint0_radial_1268_28966)"/>
<path d="M1142.52 263.256C1103.52 282.965 1192.94 329.799 1161.23 353.798C1098.55 401.229 1050.53 442.259 1007.59 478.954C916.113 557.13 721.862 590.58 583.655 649.381C548.285 664.429 518.252 677.439 491.161 690.183C551.465 644.9 590.833 597.216 631.634 547.798C680.316 488.834 731.036 427.402 821.786 364.634C960.612 268.615 1086.59 256.573 1142.52 263.256Z" fill="url(#paint1_linear_1268_28966)"/>
<path d="M1142.52 263.256C1103.52 282.965 1192.94 329.799 1161.23 353.798C1098.55 401.229 1050.53 442.259 1007.59 478.954C916.113 557.13 721.862 590.58 583.655 649.381C548.285 664.429 518.252 677.439 491.161 690.183C551.465 644.9 590.833 597.216 631.634 547.798C680.316 488.834 731.036 427.402 821.786 364.634C960.612 268.615 1086.59 256.573 1142.52 263.256Z" fill="url(#paint2_linear_1268_28966)"/>
</g>
<g opacity="0.7">
<path d="M1355.21 381.784C1329.51 353.788 1288.4 308.268 1228.23 240.523C1128.08 127.764 1054.25 83.6702 985.598 42.669C977.762 37.9893 969.994 33.3499 962.262 28.6533C909.626 -3.31878 846.629 -58.8284 810.617 -91.8306L383.467 -109.38L382.495 -71.7242C459.2 -33.6378 585.793 29.4268 592.973 33.8551C602.689 39.8471 727.16 61.34 736.691 61.7316C744.316 62.0449 882.572 167.331 950.747 219.935L1313.6 451.365L1354.03 427.324L1355.21 381.784Z" fill="url(#paint3_linear_1268_28966)"/>
<path d="M1355.21 381.784C1329.51 353.788 1288.4 308.268 1228.23 240.523C1128.08 127.764 1054.25 83.6702 985.598 42.669C977.762 37.9893 969.994 33.3499 962.262 28.6533C909.626 -3.31878 846.629 -58.8284 810.617 -91.8306L383.467 -109.38L382.495 -71.7242C459.2 -33.6378 585.793 29.4268 592.973 33.8551C602.689 39.8471 727.16 61.34 736.691 61.7316C744.316 62.0449 882.572 167.331 950.747 219.935L1313.6 451.365L1354.03 427.324L1355.21 381.784Z" fill="url(#paint4_radial_1268_28966)"/>
<path d="M1355.21 381.784C1329.51 353.788 1288.4 308.268 1228.23 240.523C1128.08 127.764 1054.25 83.6702 985.598 42.669C977.762 37.9893 969.994 33.3499 962.262 28.6533C909.626 -3.31878 846.629 -58.8284 810.617 -91.8306L383.467 -109.38L382.495 -71.7242C459.2 -33.6378 585.793 29.4268 592.973 33.8551C602.689 39.8471 727.16 61.34 736.691 61.7316C744.316 62.0449 882.572 167.331 950.747 219.935L1313.6 451.365L1354.03 427.324L1355.21 381.784Z" fill="url(#paint5_radial_1268_28966)"/>
<path d="M1355.21 381.784C1329.51 353.788 1288.4 308.268 1228.23 240.523C1128.08 127.764 1054.25 83.6702 985.598 42.669C977.762 37.9893 969.994 33.3499 962.262 28.6533C909.626 -3.31878 846.629 -58.8284 810.617 -91.8306L383.467 -109.38L382.495 -71.7242C459.2 -33.6378 585.793 29.4268 592.973 33.8551C602.689 39.8471 727.16 61.34 736.691 61.7316C744.316 62.0449 882.572 167.331 950.747 219.935L1313.6 451.365L1354.03 427.324L1355.21 381.784Z" fill="url(#paint6_radial_1268_28966)" style="mix-blend-mode:hard-light"/>
<path d="M1355.21 381.784C1329.51 353.788 1288.4 308.268 1228.23 240.523C1128.08 127.764 1054.25 83.6702 985.598 42.669C977.762 37.9893 969.994 33.3499 962.262 28.6533C909.626 -3.31878 846.629 -58.8284 810.617 -91.8306L383.467 -109.38L382.495 -71.7242C459.2 -33.6378 585.793 29.4268 592.973 33.8551C602.689 39.8471 727.16 61.34 736.691 61.7316C744.316 62.0449 882.572 167.331 950.747 219.935L1313.6 451.365L1354.03 427.324L1355.21 381.784Z" fill="url(#paint7_radial_1268_28966)" style="mix-blend-mode:overlay"/>
<path d="M1355.21 381.784C1329.51 353.788 1288.4 308.268 1228.23 240.523C1128.08 127.764 1054.25 83.6702 985.598 42.669C977.762 37.9893 969.994 33.3499 962.262 28.6533C909.626 -3.31878 846.629 -58.8284 810.617 -91.8306L383.467 -109.38L382.495 -71.7242C459.2 -33.6378 585.793 29.4268 592.973 33.8551C602.689 39.8471 727.16 61.34 736.691 61.7316C744.316 62.0449 882.572 167.331 950.747 219.935L1313.6 451.365L1354.03 427.324L1355.21 381.784Z" fill="url(#paint8_radial_1268_28966)" style="mix-blend-mode:overlay"/>
<path d="M1355.21 381.784C1329.51 353.788 1288.4 308.268 1228.23 240.523C1128.08 127.764 1054.25 83.6702 985.598 42.669C977.762 37.9893 969.994 33.3499 962.262 28.6533C909.626 -3.31878 846.629 -58.8284 810.617 -91.8306L383.467 -109.38L382.495 -71.7242C459.2 -33.6378 585.793 29.4268 592.973 33.8551C602.689 39.8471 727.16 61.34 736.691 61.7316C744.316 62.0449 882.572 167.331 950.747 219.935L1313.6 451.365L1354.03 427.324L1355.21 381.784Z" fill="url(#paint9_radial_1268_28966)" style="mix-blend-mode:hard-light"/>
</g>
<g opacity="0.7">
<path d="M650.328 -96.4021C662.58 -67.894 682.028 -21.7341 710.286 46.6828C757.32 160.561 799.564 214.85 838.845 265.331C843.329 271.093 847.774 276.805 852.183 282.551C882.196 321.663 914.772 381.578 933.147 416.793L1223.65 550.372L1231.63 522.032C1186.24 471.498 1111.37 387.94 1107.29 382.554C1101.77 375.265 1020.29 323.894 1013.81 320.914C1008.62 318.529 933.923 199.605 897.221 140.441L692.457 -137.564L659.973 -130.677L650.328 -96.4021Z" fill="url(#paint10_linear_1268_28966)"/>
<path d="M650.328 -96.4021C662.58 -67.894 682.028 -21.7341 710.286 46.6828C757.32 160.561 799.564 214.85 838.845 265.331C843.329 271.093 847.774 276.805 852.183 282.551C882.196 321.663 914.772 381.578 933.147 416.793L1223.65 550.372L1231.63 522.032C1186.24 471.498 1111.37 387.94 1107.29 382.554C1101.77 375.265 1020.29 323.894 1013.81 320.914C1008.62 318.529 933.923 199.605 897.221 140.441L692.457 -137.564L659.973 -130.677L650.328 -96.4021Z" fill="url(#paint11_radial_1268_28966)"/>
<path d="M650.328 -96.4021C662.58 -67.894 682.028 -21.7341 710.286 46.6828C757.32 160.561 799.564 214.85 838.845 265.331C843.329 271.093 847.774 276.805 852.183 282.551C882.196 321.663 914.772 381.578 933.147 416.793L1223.65 550.372L1231.63 522.032C1186.24 471.498 1111.37 387.94 1107.29 382.554C1101.77 375.265 1020.29 323.894 1013.81 320.914C1008.62 318.529 933.923 199.605 897.221 140.441L692.457 -137.564L659.973 -130.677L650.328 -96.4021Z" fill="url(#paint12_radial_1268_28966)"/>
<path d="M650.328 -96.4021C662.58 -67.894 682.028 -21.7341 710.286 46.6828C757.32 160.561 799.564 214.85 838.845 265.331C843.329 271.093 847.774 276.805 852.183 282.551C882.196 321.663 914.772 381.578 933.147 416.793L1223.65 550.372L1231.63 522.032C1186.24 471.498 1111.37 387.94 1107.29 382.554C1101.77 375.265 1020.29 323.894 1013.81 320.914C1008.62 318.529 933.923 199.605 897.221 140.441L692.457 -137.564L659.973 -130.677L650.328 -96.4021Z" fill="url(#paint13_radial_1268_28966)" style="mix-blend-mode:hard-light"/>
<path d="M650.328 -96.4021C662.58 -67.894 682.028 -21.7341 710.286 46.6828C757.32 160.561 799.564 214.85 838.845 265.331C843.329 271.093 847.774 276.805 852.183 282.551C882.196 321.663 914.772 381.578 933.147 416.793L1223.65 550.372L1231.63 522.032C1186.24 471.498 1111.37 387.94 1107.29 382.554C1101.77 375.265 1020.29 323.894 1013.81 320.914C1008.62 318.529 933.923 199.605 897.221 140.441L692.457 -137.564L659.973 -130.677L650.328 -96.4021Z" fill="url(#paint14_radial_1268_28966)" style="mix-blend-mode:overlay"/>
<path d="M650.328 -96.4021C662.58 -67.894 682.028 -21.7341 710.286 46.6828C757.32 160.561 799.564 214.85 838.845 265.331C843.329 271.093 847.774 276.805 852.183 282.551C882.196 321.663 914.772 381.578 933.147 416.793L1223.65 550.372L1231.63 522.032C1186.24 471.498 1111.37 387.94 1107.29 382.554C1101.77 375.265 1020.29 323.894 1013.81 320.914C1008.62 318.529 933.923 199.605 897.221 140.441L692.457 -137.564L659.973 -130.677L650.328 -96.4021Z" fill="url(#paint15_radial_1268_28966)" style="mix-blend-mode:overlay"/>
<path d="M650.328 -96.4021C662.58 -67.894 682.028 -21.7341 710.286 46.6828C757.32 160.561 799.564 214.85 838.845 265.331C843.329 271.093 847.774 276.805 852.183 282.551C882.196 321.663 914.772 381.578 933.147 416.793L1223.65 550.372L1231.63 522.032C1186.24 471.498 1111.37 387.94 1107.29 382.554C1101.77 375.265 1020.29 323.894 1013.81 320.914C1008.62 318.529 933.923 199.605 897.221 140.441L692.457 -137.564L659.973 -130.677L650.328 -96.4021Z" fill="url(#paint16_radial_1268_28966)" style="mix-blend-mode:hard-light"/>
</g>
<g opacity="0.7">
<path d="M836.365 39.8996C851.422 64.1513 866.958 86.0044 882.702 103.932C913.818 139.363 939.716 165.444 962.876 188.77C1012.22 238.464 1049.14 275.65 1097.65 364.089C1110.07 386.722 1120.71 405.888 1130.76 422.949C1100.97 388.783 1073.57 370.561 1045.18 351.676C1011.3 329.143 976.001 305.666 933.542 253.038C868.591 172.53 842.616 82.5538 836.365 39.8996Z" fill="url(#paint17_radial_1268_28966)"/>
<path d="M836.365 39.8996C851.422 64.1513 866.958 86.0044 882.702 103.932C913.818 139.363 939.716 165.444 962.876 188.77C1012.22 238.464 1049.14 275.65 1097.65 364.089C1110.07 386.722 1120.71 405.888 1130.76 422.949C1100.97 388.783 1073.57 370.561 1045.18 351.676C1011.3 329.143 976.001 305.666 933.542 253.038C868.591 172.53 842.616 82.5538 836.365 39.8996Z" fill="url(#paint18_linear_1268_28966)"/>
<path d="M836.365 39.8996C851.422 64.1513 866.958 86.0044 882.702 103.932C913.818 139.363 939.716 165.444 962.876 188.77C1012.22 238.464 1049.14 275.65 1097.65 364.089C1110.07 386.722 1120.71 405.888 1130.76 422.949C1100.97 388.783 1073.57 370.561 1045.18 351.676C1011.3 329.143 976.001 305.666 933.542 253.038C868.591 172.53 842.616 82.5538 836.365 39.8996Z" fill="url(#paint19_linear_1268_28966)"/>
</g>
</g>
<g opacity="0.3">
<g opacity="0.7">
<path d="M-290.266 653.591C-262.778 622.295 -218.125 572.275 -151.73 499.094C-41.2181 377.286 4.08116 285.873 46.2037 200.871C51.0114 191.169 55.7776 181.551 60.5947 171.98C93.3873 106.83 148.614 29.5728 181.361 -14.5383L223.311 -553.293L188.475 -556.085C148.569 -460.79 82.5173 -303.527 77.982 -294.642C71.8452 -282.62 44.4435 -126.308 43.5074 -114.286C42.7586 -104.669 -63.1195 65.5707 -115.965 149.488L-352.242 598.152L-332.396 650.214L-290.266 653.591Z" fill="url(#paint20_linear_1268_28966)"/>
<path d="M-290.266 653.591C-262.778 622.295 -218.125 572.275 -151.73 499.094C-41.2181 377.286 4.08116 285.873 46.2037 200.871C51.0114 191.169 55.7776 181.551 60.5947 171.98C93.3873 106.83 148.614 29.5728 181.361 -14.5383L223.311 -553.293L188.475 -556.085C148.569 -460.79 82.5173 -303.527 77.982 -294.642C71.8452 -282.62 44.4435 -126.308 43.5074 -114.286C42.7586 -104.669 -63.1195 65.5707 -115.965 149.488L-352.242 598.152L-332.396 650.214L-290.266 653.591Z" fill="url(#paint21_radial_1268_28966)"/>
<path d="M-290.266 653.591C-262.778 622.295 -218.125 572.275 -151.73 499.094C-41.2181 377.286 4.08116 285.873 46.2037 200.871C51.0114 191.169 55.7776 181.551 60.5947 171.98C93.3873 106.83 148.614 29.5728 181.361 -14.5383L223.311 -553.293L188.475 -556.085C148.569 -460.79 82.5173 -303.527 77.982 -294.642C71.8452 -282.62 44.4435 -126.308 43.5074 -114.286C42.7586 -104.669 -63.1195 65.5707 -115.965 149.488L-352.242 598.152L-332.396 650.214L-290.266 653.591Z" fill="url(#paint22_radial_1268_28966)"/>
<path d="M-290.266 653.591C-262.778 622.295 -218.125 572.275 -151.73 499.094C-41.2181 377.286 4.08116 285.873 46.2037 200.871C51.0114 191.169 55.7776 181.551 60.5947 171.98C93.3873 106.83 148.614 29.5728 181.361 -14.5383L223.311 -553.293L188.475 -556.085C148.569 -460.79 82.5173 -303.527 77.982 -294.642C71.8452 -282.62 44.4435 -126.308 43.5074 -114.286C42.7586 -104.669 -63.1195 65.5707 -115.965 149.488L-352.242 598.152L-332.396 650.214L-290.266 653.591Z" fill="url(#paint23_radial_1268_28966)" style="mix-blend-mode:hard-light"/>
<path d="M-290.266 653.591C-262.778 622.295 -218.125 572.275 -151.73 499.094C-41.2181 377.286 4.08116 285.873 46.2037 200.871C51.0114 191.169 55.7776 181.551 60.5947 171.98C93.3873 106.83 148.614 29.5728 181.361 -14.5383L223.311 -553.293L188.475 -556.085C148.569 -460.79 82.5173 -303.527 77.982 -294.642C71.8452 -282.62 44.4435 -126.308 43.5074 -114.286C42.7586 -104.669 -63.1195 65.5707 -115.965 149.488L-352.242 598.152L-332.396 650.214L-290.266 653.591Z" fill="url(#paint24_radial_1268_28966)" style="mix-blend-mode:overlay"/>
<path d="M-290.266 653.591C-262.778 622.295 -218.125 572.275 -151.73 499.094C-41.2181 377.286 4.08116 285.873 46.2037 200.871C51.0114 191.169 55.7776 181.551 60.5947 171.98C93.3873 106.83 148.614 29.5728 181.361 -14.5383L223.311 -553.293L188.475 -556.085C148.569 -460.79 82.5173 -303.527 77.982 -294.642C71.8452 -282.62 44.4435 -126.308 43.5074 -114.286C42.7586 -104.669 -63.1195 65.5707 -115.965 149.488L-352.242 598.152L-332.396 650.214L-290.266 653.591Z" fill="url(#paint25_radial_1268_28966)" style="mix-blend-mode:overlay"/>
<path d="M-290.266 653.591C-262.778 622.295 -218.125 572.275 -151.73 499.094C-41.2181 377.286 4.08116 285.873 46.2037 200.871C51.0114 191.169 55.7776 181.551 60.5947 171.98C93.3873 106.83 148.614 29.5728 181.361 -14.5383L223.311 -553.293L188.475 -556.085C148.569 -460.79 82.5173 -303.527 77.982 -294.642C71.8452 -282.62 44.4435 -126.308 43.5074 -114.286C42.7586 -104.669 -63.1195 65.5707 -115.965 149.488L-352.242 598.152L-332.396 650.214L-290.266 653.591Z" fill="url(#paint26_radial_1268_28966)" style="mix-blend-mode:hard-light"/>
</g>
<g opacity="0.7">
<path d="M202.745 707.284C180.859 673.624 157.979 643.167 134.396 617.988C87.7872 568.227 48.676 531.404 13.6974 498.472C-60.8235 428.311 -116.587 375.81 -186.131 253.473C-203.929 222.165 -219.21 195.644 -233.725 172C-189.137 219.971 -146.878 246.296 -103.082 273.578C-50.8253 306.131 3.61892 340.046 66.8153 413.72C163.489 526.421 196.722 649.383 202.745 707.284Z" fill="url(#paint27_radial_1268_28966)"/>
<path d="M202.745 707.284C180.859 673.624 157.979 643.167 134.396 617.988C87.7872 568.227 48.676 531.404 13.6974 498.472C-60.8235 428.311 -116.587 375.81 -186.131 253.473C-203.929 222.165 -219.21 195.644 -233.725 172C-189.137 219.971 -146.878 246.296 -103.082 273.578C-50.8253 306.131 3.61892 340.046 66.8153 413.72C163.489 526.421 196.722 649.383 202.745 707.284Z" fill="url(#paint28_linear_1268_28966)"/>
<path d="M202.745 707.284C180.859 673.624 157.979 643.167 134.396 617.988C87.7872 568.227 48.676 531.404 13.6974 498.472C-60.8235 428.311 -116.587 375.81 -186.131 253.473C-203.929 222.165 -219.21 195.644 -233.725 172C-189.137 219.971 -146.878 246.296 -103.082 273.578C-50.8253 306.131 3.61892 340.046 66.8153 413.72C163.489 526.421 196.722 649.383 202.745 707.284Z" fill="url(#paint29_linear_1268_28966)"/>
</g>
</g>
</g>
<rect x="0.5" y="0.5" width="839" height="427" rx="3.5" stroke="#3898FC" stroke-opacity="0.2"/>
<defs>
<radialGradient id="paint0_radial_1268_28966" cx="0" cy="0" r="1" gradientUnits="userSpaceOnUse" gradientTransform="translate(833.105 342.22) rotate(69.0044) scale(211.981 1076.19)">
<stop stop-color="#A8ABFE"/>
<stop offset="0.334045" stop-color="#8994FE"/>
<stop offset="1" stop-color="#C68DD1"/>
</radialGradient>
<linearGradient id="paint1_linear_1268_28966" x1="1146.36" y1="264.003" x2="936.832" y2="308.318" gradientUnits="userSpaceOnUse">
<stop stop-color="#8893FF"/>
<stop offset="1" stop-color="#9B95FE" stop-opacity="0"/>
</linearGradient>
<linearGradient id="paint2_linear_1268_28966" x1="678.258" y1="618.65" x2="573.611" y2="134.165" gradientUnits="userSpaceOnUse">
<stop stop-color="#C78CCF"/>
<stop offset="0.39182" stop-color="#9B95FE" stop-opacity="0"/>
</linearGradient>
<linearGradient id="paint3_linear_1268_28966" x1="683.52" y1="-109.037" x2="1418.37" y2="282.622" gradientUnits="userSpaceOnUse">
<stop stop-color="#9F99FF"/>
<stop offset="1" stop-color="#6870FE"/>
</linearGradient>
<radialGradient id="paint4_radial_1268_28966" cx="0" cy="0" r="1" gradientUnits="userSpaceOnUse" gradientTransform="translate(427.373 -89.599) rotate(-69.1738) scale(232.302 903.24)">
<stop offset="0.0520833" stop-color="#CF94D4"/>
<stop offset="1" stop-color="#9B95FE" stop-opacity="0"/>
</radialGradient>
<radialGradient id="paint5_radial_1268_28966" cx="0" cy="0" r="1" gradientUnits="userSpaceOnUse" gradientTransform="translate(602.672 -10.4891) rotate(-78.4018) scale(65.5136 361.768)">
<stop offset="0.0520833" stop-color="#CF94D4"/>
<stop offset="1" stop-color="#AE98F3" stop-opacity="0"/>
</radialGradient>
<radialGradient id="paint6_radial_1268_28966" cx="0" cy="0" r="1" gradientUnits="userSpaceOnUse" gradientTransform="translate(1061.02 205.289) rotate(-62.4566) scale(98.8069 259.829)">
<stop stop-color="#8893FF"/>
<stop offset="1" stop-color="#7081FF" stop-opacity="0"/>
</radialGradient>
<radialGradient id="paint7_radial_1268_28966" cx="0" cy="0" r="1" gradientUnits="userSpaceOnUse" gradientTransform="translate(864.149 -45.288) rotate(-65.244) scale(69.078 274.538)">
<stop stop-color="#9AA7FE"/>
<stop offset="1" stop-color="#7081FF" stop-opacity="0"/>
</radialGradient>
<radialGradient id="paint8_radial_1268_28966" cx="0" cy="0" r="1" gradientUnits="userSpaceOnUse" gradientTransform="translate(1287.6 298.89) rotate(-54.2388) scale(60.7263 341.821)">
<stop stop-color="#9AA7FE"/>
<stop offset="1" stop-color="#7081FF" stop-opacity="0"/>
</radialGradient>
<radialGradient id="paint9_radial_1268_28966" cx="0" cy="0" r="1" gradientUnits="userSpaceOnUse" gradientTransform="translate(1065.65 89.2289) rotate(117.353) scale(107.021 603.101)">
<stop offset="0.0644872" stop-color="#AAB5FF"/>
<stop offset="0.796688" stop-color="#90A0FF" stop-opacity="0"/>
</radialGradient>
<linearGradient id="paint10_linear_1268_28966" x1="1017.26" y1="465.646" x2="533.108" y2="20.4646" gradientUnits="userSpaceOnUse">
<stop stop-color="#9F99FF"/>
<stop offset="1" stop-color="#6870FE"/>
</linearGradient>
<radialGradient id="paint11_radial_1268_28966" cx="0" cy="0" r="1" gradientUnits="userSpaceOnUse" gradientTransform="translate(1197.28 522.981) rotate(124.921) scale(172.866 700.935)">
<stop offset="0.0520833" stop-color="#CF94D4"/>
<stop offset="1" stop-color="#9B95FE" stop-opacity="0"/>
</radialGradient>
<radialGradient id="paint12_radial_1268_28966" cx="0" cy="0" r="1" gradientUnits="userSpaceOnUse" gradientTransform="translate(1092.01 413.52) rotate(115.524) scale(49.9316 274.106)">
<stop offset="0.0520833" stop-color="#CF94D4"/>
<stop offset="1" stop-color="#AE98F3" stop-opacity="0"/>
</radialGradient>
<radialGradient id="paint13_radial_1268_28966" cx="0" cy="0" r="1" gradientUnits="userSpaceOnUse" gradientTransform="translate(818.507 120.528) rotate(132.045) scale(72.3251 204.983)">
<stop stop-color="#8893FF"/>
<stop offset="1" stop-color="#7081FF" stop-opacity="0"/>
</radialGradient>
<radialGradient id="paint14_radial_1268_28966" cx="0" cy="0" r="1" gradientUnits="userSpaceOnUse" gradientTransform="translate(905.344 366.357) rotate(129.06) scale(50.9018 215.15)">
<stop stop-color="#9AA7FE"/>
<stop offset="1" stop-color="#7081FF" stop-opacity="0"/>
</radialGradient>
<radialGradient id="paint15_radial_1268_28966" cx="0" cy="0" r="1" gradientUnits="userSpaceOnUse" gradientTransform="translate(680.766 -14.3799) rotate(141.063) scale(43.6853 274.392)">
<stop stop-color="#9AA7FE"/>
<stop offset="1" stop-color="#7081FF" stop-opacity="0"/>
</radialGradient>
<radialGradient id="paint16_radial_1268_28966" cx="0" cy="0" r="1" gradientUnits="userSpaceOnUse" gradientTransform="translate(792.795 207.415) rotate(-48.1607) scale(78.3725 475.583)">
<stop offset="0.0644872" stop-color="#AAB5FF"/>
<stop offset="0.796688" stop-color="#90A0FF" stop-opacity="0"/>
</radialGradient>
<radialGradient id="paint17_radial_1268_28966" cx="0" cy="0" r="1" gradientUnits="userSpaceOnUse" gradientTransform="translate(921.844 249.761) rotate(-53.4773) scale(125.026 656.89)">
<stop stop-color="#A8ABFE"/>
<stop offset="0.334045" stop-color="#8994FE"/>
<stop offset="1" stop-color="#C68DD1"/>
</radialGradient>
<linearGradient id="paint18_linear_1268_28966" x1="836.062" y1="36.9056" x2="933.355" y2="140.16" gradientUnits="userSpaceOnUse">
<stop stop-color="#8893FF"/>
<stop offset="1" stop-color="#9B95FE" stop-opacity="0"/>
</linearGradient>
<linearGradient id="paint19_linear_1268_28966" x1="1068.63" y1="301.408" x2="836.005" y2="389.111" gradientUnits="userSpaceOnUse">
<stop stop-color="#C78CCF"/>
<stop offset="0.39182" stop-color="#9B95FE" stop-opacity="0"/>
</linearGradient>
<linearGradient id="paint20_linear_1268_28966" x1="204.949" y1="-174.345" x2="-398.319" y2="580.78" gradientUnits="userSpaceOnUse">
<stop stop-color="#9F99FF"/>
<stop offset="1" stop-color="#6870FE"/>
</linearGradient>
<radialGradient id="paint21_radial_1268_28966" cx="0" cy="0" r="1" gradientUnits="userSpaceOnUse" gradientTransform="translate(202.34 -498.662) rotate(30.0084) scale(226.61 1085.98)">
<stop offset="0.0520833" stop-color="#CF94D4"/>
<stop offset="1" stop-color="#9B95FE" stop-opacity="0"/>
</radialGradient>
<radialGradient id="paint22_radial_1268_28966" cx="0" cy="0" r="1" gradientUnits="userSpaceOnUse" gradientTransform="translate(118.491 -280.55) rotate(18.2086) scale(61.7702 450.014)">
<stop offset="0.0520833" stop-color="#CF94D4"/>
<stop offset="1" stop-color="#AE98F3" stop-opacity="0"/>
</radialGradient>
<radialGradient id="paint23_radial_1268_28966" cx="0" cy="0" r="1" gradientUnits="userSpaceOnUse" gradientTransform="translate(-109.025 289.365) rotate(38.03) scale(99.5763 302.385)">
<stop stop-color="#8893FF"/>
<stop offset="1" stop-color="#7081FF" stop-opacity="0"/>
</radialGradient>
<radialGradient id="paint24_radial_1268_28966" cx="0" cy="0" r="1" gradientUnits="userSpaceOnUse" gradientTransform="translate(135.013 51.1379) rotate(34.7649) scale(68.6421 324.037)">
<stop stop-color="#9AA7FE"/>
<stop offset="1" stop-color="#7081FF" stop-opacity="0"/>
</radialGradient>
<radialGradient id="paint25_radial_1268_28966" cx="0" cy="0" r="1" gradientUnits="userSpaceOnUse" gradientTransform="translate(-209.387 571.642) rotate(47.1165) scale(63.9648 380.607)">
<stop stop-color="#9AA7FE"/>
<stop offset="1" stop-color="#7081FF" stop-opacity="0"/>
</radialGradient>
<radialGradient id="paint26_radial_1268_28966" cx="0" cy="0" r="1" gradientUnits="userSpaceOnUse" gradientTransform="translate(-1.75567 300.047) rotate(-142.191) scale(107.748 702.574)">
<stop offset="0.0644872" stop-color="#AAB7FF"/>
<stop offset="0.796688" stop-color="#90A0FF" stop-opacity="0"/>
</radialGradient>
<radialGradient id="paint27_radial_1268_28966" cx="0" cy="0" r="1" gradientUnits="userSpaceOnUse" gradientTransform="translate(85.2823 418.889) rotate(134.602) scale(183.514 970.926)">
<stop stop-color="#A8ABFE"/>
<stop offset="0.334045" stop-color="#8994FE"/>
<stop offset="1" stop-color="#57415B"/>
</radialGradient>
<linearGradient id="paint28_linear_1268_28966" x1="202.949" y1="711.34" x2="84.9505" y2="545.643" gradientUnits="userSpaceOnUse">
<stop stop-color="#313EB4"/>
<stop offset="1" stop-color="#5C5A8B" stop-opacity="0"/>
</linearGradient>
<linearGradient id="paint29_linear_1268_28966" x1="-145.435" y1="339.835" x2="223.437" y2="202.448" gradientUnits="userSpaceOnUse">
<stop stop-color="#646464"/>
<stop offset="0.39182" stop-color="#9B95FE" stop-opacity="0"/>
</linearGradient>
<clipPath id="clip0_1268_28966">
<rect width="840" height="428" rx="4" fill="white"/>
</clipPath>
</defs>
</svg>
