<svg width="840" height="568" viewBox="0 0 840 568" fill="none" xmlns="http://www.w3.org/2000/svg">
<g clip-path="url(#clip0_1268_28918)">
<rect width="840" height="568" rx="4" fill="white"/>
<g opacity="0.3">
<g opacity="0.7">
<path d="M1144.52 272.256C1105.52 291.965 1194.94 338.799 1163.23 362.798C1100.55 410.229 1052.53 451.259 1009.59 487.954C918.113 566.13 723.862 599.58 585.655 658.381C550.285 673.429 520.252 686.439 493.161 699.183C553.465 653.9 592.833 606.216 633.634 556.798C682.316 497.834 733.036 436.402 823.786 373.634C962.612 277.615 1088.59 265.573 1144.52 272.256Z" fill="url(#paint0_radial_1268_28918)"/>
<path d="M1144.52 272.256C1105.52 291.965 1194.94 338.799 1163.23 362.798C1100.55 410.229 1052.53 451.259 1009.59 487.954C918.113 566.13 723.862 599.58 585.655 658.381C550.285 673.429 520.252 686.439 493.161 699.183C553.465 653.9 592.833 606.216 633.634 556.798C682.316 497.834 733.036 436.402 823.786 373.634C962.612 277.615 1088.59 265.573 1144.52 272.256Z" fill="url(#paint1_linear_1268_28918)"/>
<path d="M1144.52 272.256C1105.52 291.965 1194.94 338.799 1163.23 362.798C1100.55 410.229 1052.53 451.259 1009.59 487.954C918.113 566.13 723.862 599.58 585.655 658.381C550.285 673.429 520.252 686.439 493.161 699.183C553.465 653.9 592.833 606.216 633.634 556.798C682.316 497.834 733.036 436.402 823.786 373.634C962.612 277.615 1088.59 265.573 1144.52 272.256Z" fill="url(#paint2_linear_1268_28918)"/>
</g>
<g opacity="0.7">
<path d="M1357.21 390.784C1331.51 362.788 1290.4 317.268 1230.23 249.523C1130.08 136.764 1056.25 92.6702 987.598 51.669C979.762 46.9893 971.994 42.3499 964.262 37.6533C911.626 5.68122 848.629 -49.8284 812.617 -82.8306L385.467 -100.38L384.495 -62.7242C461.2 -24.6378 587.793 38.4268 594.973 42.8551C604.689 48.8471 729.16 70.34 738.691 70.7316C746.316 71.0449 884.572 176.331 952.747 228.935L1315.6 460.365L1356.03 436.324L1357.21 390.784Z" fill="url(#paint3_linear_1268_28918)"/>
<path d="M1357.21 390.784C1331.51 362.788 1290.4 317.268 1230.23 249.523C1130.08 136.764 1056.25 92.6702 987.598 51.669C979.762 46.9893 971.994 42.3499 964.262 37.6533C911.626 5.68122 848.629 -49.8284 812.617 -82.8306L385.467 -100.38L384.495 -62.7242C461.2 -24.6378 587.793 38.4268 594.973 42.8551C604.689 48.8471 729.16 70.34 738.691 70.7316C746.316 71.0449 884.572 176.331 952.747 228.935L1315.6 460.365L1356.03 436.324L1357.21 390.784Z" fill="url(#paint4_radial_1268_28918)"/>
<path d="M1357.21 390.784C1331.51 362.788 1290.4 317.268 1230.23 249.523C1130.08 136.764 1056.25 92.6702 987.598 51.669C979.762 46.9893 971.994 42.3499 964.262 37.6533C911.626 5.68122 848.629 -49.8284 812.617 -82.8306L385.467 -100.38L384.495 -62.7242C461.2 -24.6378 587.793 38.4268 594.973 42.8551C604.689 48.8471 729.16 70.34 738.691 70.7316C746.316 71.0449 884.572 176.331 952.747 228.935L1315.6 460.365L1356.03 436.324L1357.21 390.784Z" fill="url(#paint5_radial_1268_28918)"/>
<path d="M1357.21 390.784C1331.51 362.788 1290.4 317.268 1230.23 249.523C1130.08 136.764 1056.25 92.6702 987.598 51.669C979.762 46.9893 971.994 42.3499 964.262 37.6533C911.626 5.68122 848.629 -49.8284 812.617 -82.8306L385.467 -100.38L384.495 -62.7242C461.2 -24.6378 587.793 38.4268 594.973 42.8551C604.689 48.8471 729.16 70.34 738.691 70.7316C746.316 71.0449 884.572 176.331 952.747 228.935L1315.6 460.365L1356.03 436.324L1357.21 390.784Z" fill="url(#paint6_radial_1268_28918)" style="mix-blend-mode:hard-light"/>
<path d="M1357.21 390.784C1331.51 362.788 1290.4 317.268 1230.23 249.523C1130.08 136.764 1056.25 92.6702 987.598 51.669C979.762 46.9893 971.994 42.3499 964.262 37.6533C911.626 5.68122 848.629 -49.8284 812.617 -82.8306L385.467 -100.38L384.495 -62.7242C461.2 -24.6378 587.793 38.4268 594.973 42.8551C604.689 48.8471 729.16 70.34 738.691 70.7316C746.316 71.0449 884.572 176.331 952.747 228.935L1315.6 460.365L1356.03 436.324L1357.21 390.784Z" fill="url(#paint7_radial_1268_28918)" style="mix-blend-mode:overlay"/>
<path d="M1357.21 390.784C1331.51 362.788 1290.4 317.268 1230.23 249.523C1130.08 136.764 1056.25 92.6702 987.598 51.669C979.762 46.9893 971.994 42.3499 964.262 37.6533C911.626 5.68122 848.629 -49.8284 812.617 -82.8306L385.467 -100.38L384.495 -62.7242C461.2 -24.6378 587.793 38.4268 594.973 42.8551C604.689 48.8471 729.16 70.34 738.691 70.7316C746.316 71.0449 884.572 176.331 952.747 228.935L1315.6 460.365L1356.03 436.324L1357.21 390.784Z" fill="url(#paint8_radial_1268_28918)" style="mix-blend-mode:overlay"/>
<path d="M1357.21 390.784C1331.51 362.788 1290.4 317.268 1230.23 249.523C1130.08 136.764 1056.25 92.6702 987.598 51.669C979.762 46.9893 971.994 42.3499 964.262 37.6533C911.626 5.68122 848.629 -49.8284 812.617 -82.8306L385.467 -100.38L384.495 -62.7242C461.2 -24.6378 587.793 38.4268 594.973 42.8551C604.689 48.8471 729.16 70.34 738.691 70.7316C746.316 71.0449 884.572 176.331 952.747 228.935L1315.6 460.365L1356.03 436.324L1357.21 390.784Z" fill="url(#paint9_radial_1268_28918)" style="mix-blend-mode:hard-light"/>
</g>
<g opacity="0.7">
<path d="M652.328 -87.4021C664.58 -58.894 684.028 -12.7341 712.286 55.6828C759.32 169.561 801.564 223.85 840.845 274.331C845.329 280.093 849.774 285.805 854.183 291.551C884.196 330.663 916.772 390.578 935.147 425.793L1225.65 559.372L1233.63 531.032C1188.24 480.498 1113.37 396.94 1109.29 391.554C1103.77 384.265 1022.29 332.894 1015.81 329.914C1010.62 327.529 935.923 208.605 899.221 149.441L694.457 -128.564L661.973 -121.677L652.328 -87.4021Z" fill="url(#paint10_linear_1268_28918)"/>
<path d="M652.328 -87.4021C664.58 -58.894 684.028 -12.7341 712.286 55.6828C759.32 169.561 801.564 223.85 840.845 274.331C845.329 280.093 849.774 285.805 854.183 291.551C884.196 330.663 916.772 390.578 935.147 425.793L1225.65 559.372L1233.63 531.032C1188.24 480.498 1113.37 396.94 1109.29 391.554C1103.77 384.265 1022.29 332.894 1015.81 329.914C1010.62 327.529 935.923 208.605 899.221 149.441L694.457 -128.564L661.973 -121.677L652.328 -87.4021Z" fill="url(#paint11_radial_1268_28918)"/>
<path d="M652.328 -87.4021C664.58 -58.894 684.028 -12.7341 712.286 55.6828C759.32 169.561 801.564 223.85 840.845 274.331C845.329 280.093 849.774 285.805 854.183 291.551C884.196 330.663 916.772 390.578 935.147 425.793L1225.65 559.372L1233.63 531.032C1188.24 480.498 1113.37 396.94 1109.29 391.554C1103.77 384.265 1022.29 332.894 1015.81 329.914C1010.62 327.529 935.923 208.605 899.221 149.441L694.457 -128.564L661.973 -121.677L652.328 -87.4021Z" fill="url(#paint12_radial_1268_28918)"/>
<path d="M652.328 -87.4021C664.58 -58.894 684.028 -12.7341 712.286 55.6828C759.32 169.561 801.564 223.85 840.845 274.331C845.329 280.093 849.774 285.805 854.183 291.551C884.196 330.663 916.772 390.578 935.147 425.793L1225.65 559.372L1233.63 531.032C1188.24 480.498 1113.37 396.94 1109.29 391.554C1103.77 384.265 1022.29 332.894 1015.81 329.914C1010.62 327.529 935.923 208.605 899.221 149.441L694.457 -128.564L661.973 -121.677L652.328 -87.4021Z" fill="url(#paint13_radial_1268_28918)" style="mix-blend-mode:hard-light"/>
<path d="M652.328 -87.4021C664.58 -58.894 684.028 -12.7341 712.286 55.6828C759.32 169.561 801.564 223.85 840.845 274.331C845.329 280.093 849.774 285.805 854.183 291.551C884.196 330.663 916.772 390.578 935.147 425.793L1225.65 559.372L1233.63 531.032C1188.24 480.498 1113.37 396.94 1109.29 391.554C1103.77 384.265 1022.29 332.894 1015.81 329.914C1010.62 327.529 935.923 208.605 899.221 149.441L694.457 -128.564L661.973 -121.677L652.328 -87.4021Z" fill="url(#paint14_radial_1268_28918)" style="mix-blend-mode:overlay"/>
<path d="M652.328 -87.4021C664.58 -58.894 684.028 -12.7341 712.286 55.6828C759.32 169.561 801.564 223.85 840.845 274.331C845.329 280.093 849.774 285.805 854.183 291.551C884.196 330.663 916.772 390.578 935.147 425.793L1225.65 559.372L1233.63 531.032C1188.24 480.498 1113.37 396.94 1109.29 391.554C1103.77 384.265 1022.29 332.894 1015.81 329.914C1010.62 327.529 935.923 208.605 899.221 149.441L694.457 -128.564L661.973 -121.677L652.328 -87.4021Z" fill="url(#paint15_radial_1268_28918)" style="mix-blend-mode:overlay"/>
<path d="M652.328 -87.4021C664.58 -58.894 684.028 -12.7341 712.286 55.6828C759.32 169.561 801.564 223.85 840.845 274.331C845.329 280.093 849.774 285.805 854.183 291.551C884.196 330.663 916.772 390.578 935.147 425.793L1225.65 559.372L1233.63 531.032C1188.24 480.498 1113.37 396.94 1109.29 391.554C1103.77 384.265 1022.29 332.894 1015.81 329.914C1010.62 327.529 935.923 208.605 899.221 149.441L694.457 -128.564L661.973 -121.677L652.328 -87.4021Z" fill="url(#paint16_radial_1268_28918)" style="mix-blend-mode:hard-light"/>
</g>
<g opacity="0.7">
<path d="M838.365 48.8996C853.422 73.1513 868.958 95.0044 884.702 112.932C915.818 148.363 941.716 174.444 964.876 197.77C1014.22 247.464 1051.14 284.65 1099.65 373.089C1112.07 395.722 1122.71 414.888 1132.76 431.949C1102.97 397.783 1075.57 379.561 1047.18 360.676C1013.3 338.143 978.001 314.666 935.542 262.038C870.591 181.53 844.616 91.5538 838.365 48.8996Z" fill="url(#paint17_radial_1268_28918)"/>
<path d="M838.365 48.8996C853.422 73.1513 868.958 95.0044 884.702 112.932C915.818 148.363 941.716 174.444 964.876 197.77C1014.22 247.464 1051.14 284.65 1099.65 373.089C1112.07 395.722 1122.71 414.888 1132.76 431.949C1102.97 397.783 1075.57 379.561 1047.18 360.676C1013.3 338.143 978.001 314.666 935.542 262.038C870.591 181.53 844.616 91.5538 838.365 48.8996Z" fill="url(#paint18_linear_1268_28918)"/>
<path d="M838.365 48.8996C853.422 73.1513 868.958 95.0044 884.702 112.932C915.818 148.363 941.716 174.444 964.876 197.77C1014.22 247.464 1051.14 284.65 1099.65 373.089C1112.07 395.722 1122.71 414.888 1132.76 431.949C1102.97 397.783 1075.57 379.561 1047.18 360.676C1013.3 338.143 978.001 314.666 935.542 262.038C870.591 181.53 844.616 91.5538 838.365 48.8996Z" fill="url(#paint19_linear_1268_28918)"/>
</g>
</g>
<g opacity="0.3">
<g opacity="0.7">
<path d="M-290.266 653.591C-262.778 622.295 -218.125 572.275 -151.73 499.094C-41.2181 377.286 4.08116 285.873 46.2037 200.871C51.0114 191.169 55.7776 181.551 60.5947 171.98C93.3873 106.83 148.614 29.5728 181.361 -14.5383L223.311 -553.293L188.475 -556.085C148.569 -460.79 82.5173 -303.527 77.982 -294.642C71.8452 -282.62 44.4435 -126.308 43.5074 -114.286C42.7586 -104.669 -63.1195 65.5707 -115.965 149.488L-352.242 598.152L-332.396 650.214L-290.266 653.591Z" fill="url(#paint20_linear_1268_28918)"/>
<path d="M-290.266 653.591C-262.778 622.295 -218.125 572.275 -151.73 499.094C-41.2181 377.286 4.08116 285.873 46.2037 200.871C51.0114 191.169 55.7776 181.551 60.5947 171.98C93.3873 106.83 148.614 29.5728 181.361 -14.5383L223.311 -553.293L188.475 -556.085C148.569 -460.79 82.5173 -303.527 77.982 -294.642C71.8452 -282.62 44.4435 -126.308 43.5074 -114.286C42.7586 -104.669 -63.1195 65.5707 -115.965 149.488L-352.242 598.152L-332.396 650.214L-290.266 653.591Z" fill="url(#paint21_radial_1268_28918)"/>
<path d="M-290.266 653.591C-262.778 622.295 -218.125 572.275 -151.73 499.094C-41.2181 377.286 4.08116 285.873 46.2037 200.871C51.0114 191.169 55.7776 181.551 60.5947 171.98C93.3873 106.83 148.614 29.5728 181.361 -14.5383L223.311 -553.293L188.475 -556.085C148.569 -460.79 82.5173 -303.527 77.982 -294.642C71.8452 -282.62 44.4435 -126.308 43.5074 -114.286C42.7586 -104.669 -63.1195 65.5707 -115.965 149.488L-352.242 598.152L-332.396 650.214L-290.266 653.591Z" fill="url(#paint22_radial_1268_28918)"/>
<path d="M-290.266 653.591C-262.778 622.295 -218.125 572.275 -151.73 499.094C-41.2181 377.286 4.08116 285.873 46.2037 200.871C51.0114 191.169 55.7776 181.551 60.5947 171.98C93.3873 106.83 148.614 29.5728 181.361 -14.5383L223.311 -553.293L188.475 -556.085C148.569 -460.79 82.5173 -303.527 77.982 -294.642C71.8452 -282.62 44.4435 -126.308 43.5074 -114.286C42.7586 -104.669 -63.1195 65.5707 -115.965 149.488L-352.242 598.152L-332.396 650.214L-290.266 653.591Z" fill="url(#paint23_radial_1268_28918)" style="mix-blend-mode:hard-light"/>
<path d="M-290.266 653.591C-262.778 622.295 -218.125 572.275 -151.73 499.094C-41.2181 377.286 4.08116 285.873 46.2037 200.871C51.0114 191.169 55.7776 181.551 60.5947 171.98C93.3873 106.83 148.614 29.5728 181.361 -14.5383L223.311 -553.293L188.475 -556.085C148.569 -460.79 82.5173 -303.527 77.982 -294.642C71.8452 -282.62 44.4435 -126.308 43.5074 -114.286C42.7586 -104.669 -63.1195 65.5707 -115.965 149.488L-352.242 598.152L-332.396 650.214L-290.266 653.591Z" fill="url(#paint24_radial_1268_28918)" style="mix-blend-mode:overlay"/>
<path d="M-290.266 653.591C-262.778 622.295 -218.125 572.275 -151.73 499.094C-41.2181 377.286 4.08116 285.873 46.2037 200.871C51.0114 191.169 55.7776 181.551 60.5947 171.98C93.3873 106.83 148.614 29.5728 181.361 -14.5383L223.311 -553.293L188.475 -556.085C148.569 -460.79 82.5173 -303.527 77.982 -294.642C71.8452 -282.62 44.4435 -126.308 43.5074 -114.286C42.7586 -104.669 -63.1195 65.5707 -115.965 149.488L-352.242 598.152L-332.396 650.214L-290.266 653.591Z" fill="url(#paint25_radial_1268_28918)" style="mix-blend-mode:overlay"/>
<path d="M-290.266 653.591C-262.778 622.295 -218.125 572.275 -151.73 499.094C-41.2181 377.286 4.08116 285.873 46.2037 200.871C51.0114 191.169 55.7776 181.551 60.5947 171.98C93.3873 106.83 148.614 29.5728 181.361 -14.5383L223.311 -553.293L188.475 -556.085C148.569 -460.79 82.5173 -303.527 77.982 -294.642C71.8452 -282.62 44.4435 -126.308 43.5074 -114.286C42.7586 -104.669 -63.1195 65.5707 -115.965 149.488L-352.242 598.152L-332.396 650.214L-290.266 653.591Z" fill="url(#paint26_radial_1268_28918)" style="mix-blend-mode:hard-light"/>
</g>
<g opacity="0.7">
<path d="M202.745 785.219C180.859 751.559 157.979 721.101 134.396 695.923C87.7872 646.161 48.676 609.338 13.6974 576.406C-60.8235 506.245 -116.587 453.745 -186.131 331.408C-203.929 300.1 -219.21 273.579 -233.725 249.935C-189.137 297.906 -146.878 324.231 -103.082 351.513C-50.8253 384.065 3.61892 417.98 66.8153 491.654C163.489 604.356 196.722 727.317 202.745 785.219Z" fill="url(#paint27_radial_1268_28918)"/>
<path d="M202.745 785.219C180.859 751.559 157.979 721.101 134.396 695.923C87.7872 646.161 48.676 609.338 13.6974 576.406C-60.8235 506.245 -116.587 453.745 -186.131 331.408C-203.929 300.1 -219.21 273.579 -233.725 249.935C-189.137 297.906 -146.878 324.231 -103.082 351.513C-50.8253 384.065 3.61892 417.98 66.8153 491.654C163.489 604.356 196.722 727.317 202.745 785.219Z" fill="url(#paint28_linear_1268_28918)"/>
<path d="M202.745 785.219C180.859 751.559 157.979 721.101 134.396 695.923C87.7872 646.161 48.676 609.338 13.6974 576.406C-60.8235 506.245 -116.587 453.745 -186.131 331.408C-203.929 300.1 -219.21 273.579 -233.725 249.935C-189.137 297.906 -146.878 324.231 -103.082 351.513C-50.8253 384.065 3.61892 417.98 66.8153 491.654C163.489 604.356 196.722 727.317 202.745 785.219Z" fill="url(#paint29_linear_1268_28918)"/>
</g>
</g>
</g>
<rect x="0.5" y="0.5" width="839" height="567" rx="3.5" stroke="#3898FC" stroke-opacity="0.2"/>
<defs>
<radialGradient id="paint0_radial_1268_28918" cx="0" cy="0" r="1" gradientUnits="userSpaceOnUse" gradientTransform="translate(835.105 351.22) rotate(69.0044) scale(211.981 1076.19)">
<stop stop-color="#A8ABFE"/>
<stop offset="0.334045" stop-color="#8994FE"/>
<stop offset="1" stop-color="#C68DD1"/>
</radialGradient>
<linearGradient id="paint1_linear_1268_28918" x1="1148.36" y1="273.003" x2="938.832" y2="317.318" gradientUnits="userSpaceOnUse">
<stop stop-color="#8893FF"/>
<stop offset="1" stop-color="#9B95FE" stop-opacity="0"/>
</linearGradient>
<linearGradient id="paint2_linear_1268_28918" x1="680.258" y1="627.65" x2="575.611" y2="143.165" gradientUnits="userSpaceOnUse">
<stop stop-color="#C78CCF"/>
<stop offset="0.39182" stop-color="#9B95FE" stop-opacity="0"/>
</linearGradient>
<linearGradient id="paint3_linear_1268_28918" x1="685.52" y1="-100.037" x2="1420.37" y2="291.622" gradientUnits="userSpaceOnUse">
<stop stop-color="#9F99FF"/>
<stop offset="1" stop-color="#6870FE"/>
</linearGradient>
<radialGradient id="paint4_radial_1268_28918" cx="0" cy="0" r="1" gradientUnits="userSpaceOnUse" gradientTransform="translate(429.373 -80.599) rotate(-69.1738) scale(232.302 903.24)">
<stop offset="0.0520833" stop-color="#CF94D4"/>
<stop offset="1" stop-color="#9B95FE" stop-opacity="0"/>
</radialGradient>
<radialGradient id="paint5_radial_1268_28918" cx="0" cy="0" r="1" gradientUnits="userSpaceOnUse" gradientTransform="translate(604.672 -1.4891) rotate(-78.4018) scale(65.5136 361.768)">
<stop offset="0.0520833" stop-color="#CF94D4"/>
<stop offset="1" stop-color="#AE98F3" stop-opacity="0"/>
</radialGradient>
<radialGradient id="paint6_radial_1268_28918" cx="0" cy="0" r="1" gradientUnits="userSpaceOnUse" gradientTransform="translate(1063.02 214.289) rotate(-62.4566) scale(98.8069 259.829)">
<stop stop-color="#8893FF"/>
<stop offset="1" stop-color="#7081FF" stop-opacity="0"/>
</radialGradient>
<radialGradient id="paint7_radial_1268_28918" cx="0" cy="0" r="1" gradientUnits="userSpaceOnUse" gradientTransform="translate(866.149 -36.288) rotate(-65.244) scale(69.078 274.538)">
<stop stop-color="#9AA7FE"/>
<stop offset="1" stop-color="#7081FF" stop-opacity="0"/>
</radialGradient>
<radialGradient id="paint8_radial_1268_28918" cx="0" cy="0" r="1" gradientUnits="userSpaceOnUse" gradientTransform="translate(1289.6 307.89) rotate(-54.2388) scale(60.7263 341.821)">
<stop stop-color="#9AA7FE"/>
<stop offset="1" stop-color="#7081FF" stop-opacity="0"/>
</radialGradient>
<radialGradient id="paint9_radial_1268_28918" cx="0" cy="0" r="1" gradientUnits="userSpaceOnUse" gradientTransform="translate(1067.65 98.2289) rotate(117.353) scale(107.021 603.101)">
<stop offset="0.0644872" stop-color="#AAB5FF"/>
<stop offset="0.796688" stop-color="#90A0FF" stop-opacity="0"/>
</radialGradient>
<linearGradient id="paint10_linear_1268_28918" x1="1019.26" y1="474.646" x2="535.108" y2="29.4646" gradientUnits="userSpaceOnUse">
<stop stop-color="#9F99FF"/>
<stop offset="1" stop-color="#6870FE"/>
</linearGradient>
<radialGradient id="paint11_radial_1268_28918" cx="0" cy="0" r="1" gradientUnits="userSpaceOnUse" gradientTransform="translate(1199.28 531.981) rotate(124.921) scale(172.866 700.935)">
<stop offset="0.0520833" stop-color="#CF94D4"/>
<stop offset="1" stop-color="#9B95FE" stop-opacity="0"/>
</radialGradient>
<radialGradient id="paint12_radial_1268_28918" cx="0" cy="0" r="1" gradientUnits="userSpaceOnUse" gradientTransform="translate(1094.01 422.52) rotate(115.524) scale(49.9316 274.106)">
<stop offset="0.0520833" stop-color="#CF94D4"/>
<stop offset="1" stop-color="#AE98F3" stop-opacity="0"/>
</radialGradient>
<radialGradient id="paint13_radial_1268_28918" cx="0" cy="0" r="1" gradientUnits="userSpaceOnUse" gradientTransform="translate(820.507 129.528) rotate(132.045) scale(72.3251 204.983)">
<stop stop-color="#8893FF"/>
<stop offset="1" stop-color="#7081FF" stop-opacity="0"/>
</radialGradient>
<radialGradient id="paint14_radial_1268_28918" cx="0" cy="0" r="1" gradientUnits="userSpaceOnUse" gradientTransform="translate(907.344 375.357) rotate(129.06) scale(50.9018 215.15)">
<stop stop-color="#9AA7FE"/>
<stop offset="1" stop-color="#7081FF" stop-opacity="0"/>
</radialGradient>
<radialGradient id="paint15_radial_1268_28918" cx="0" cy="0" r="1" gradientUnits="userSpaceOnUse" gradientTransform="translate(682.766 -5.37994) rotate(141.063) scale(43.6853 274.392)">
<stop stop-color="#9AA7FE"/>
<stop offset="1" stop-color="#7081FF" stop-opacity="0"/>
</radialGradient>
<radialGradient id="paint16_radial_1268_28918" cx="0" cy="0" r="1" gradientUnits="userSpaceOnUse" gradientTransform="translate(794.795 216.415) rotate(-48.1607) scale(78.3725 475.583)">
<stop offset="0.0644872" stop-color="#AAB5FF"/>
<stop offset="0.796688" stop-color="#90A0FF" stop-opacity="0"/>
</radialGradient>
<radialGradient id="paint17_radial_1268_28918" cx="0" cy="0" r="1" gradientUnits="userSpaceOnUse" gradientTransform="translate(923.844 258.761) rotate(-53.4773) scale(125.026 656.89)">
<stop stop-color="#A8ABFE"/>
<stop offset="0.334045" stop-color="#8994FE"/>
<stop offset="1" stop-color="#C68DD1"/>
</radialGradient>
<linearGradient id="paint18_linear_1268_28918" x1="838.062" y1="45.9056" x2="935.355" y2="149.16" gradientUnits="userSpaceOnUse">
<stop stop-color="#8893FF"/>
<stop offset="1" stop-color="#9B95FE" stop-opacity="0"/>
</linearGradient>
<linearGradient id="paint19_linear_1268_28918" x1="1070.63" y1="310.408" x2="838.005" y2="398.111" gradientUnits="userSpaceOnUse">
<stop stop-color="#C78CCF"/>
<stop offset="0.39182" stop-color="#9B95FE" stop-opacity="0"/>
</linearGradient>
<linearGradient id="paint20_linear_1268_28918" x1="204.949" y1="-174.345" x2="-398.319" y2="580.78" gradientUnits="userSpaceOnUse">
<stop stop-color="#9F99FF"/>
<stop offset="1" stop-color="#6870FE"/>
</linearGradient>
<radialGradient id="paint21_radial_1268_28918" cx="0" cy="0" r="1" gradientUnits="userSpaceOnUse" gradientTransform="translate(202.34 -498.662) rotate(30.0084) scale(226.61 1085.98)">
<stop offset="0.0520833" stop-color="#CF94D4"/>
<stop offset="1" stop-color="#9B95FE" stop-opacity="0"/>
</radialGradient>
<radialGradient id="paint22_radial_1268_28918" cx="0" cy="0" r="1" gradientUnits="userSpaceOnUse" gradientTransform="translate(118.491 -280.55) rotate(18.2086) scale(61.7702 450.014)">
<stop offset="0.0520833" stop-color="#CF94D4"/>
<stop offset="1" stop-color="#AE98F3" stop-opacity="0"/>
</radialGradient>
<radialGradient id="paint23_radial_1268_28918" cx="0" cy="0" r="1" gradientUnits="userSpaceOnUse" gradientTransform="translate(-109.025 289.365) rotate(38.03) scale(99.5763 302.385)">
<stop stop-color="#8893FF"/>
<stop offset="1" stop-color="#7081FF" stop-opacity="0"/>
</radialGradient>
<radialGradient id="paint24_radial_1268_28918" cx="0" cy="0" r="1" gradientUnits="userSpaceOnUse" gradientTransform="translate(135.013 51.1379) rotate(34.7649) scale(68.6421 324.037)">
<stop stop-color="#9AA7FE"/>
<stop offset="1" stop-color="#7081FF" stop-opacity="0"/>
</radialGradient>
<radialGradient id="paint25_radial_1268_28918" cx="0" cy="0" r="1" gradientUnits="userSpaceOnUse" gradientTransform="translate(-209.387 571.642) rotate(47.1165) scale(63.9648 380.607)">
<stop stop-color="#9AA7FE"/>
<stop offset="1" stop-color="#7081FF" stop-opacity="0"/>
</radialGradient>
<radialGradient id="paint26_radial_1268_28918" cx="0" cy="0" r="1" gradientUnits="userSpaceOnUse" gradientTransform="translate(-1.75567 300.047) rotate(-142.191) scale(107.748 702.574)">
<stop offset="0.0644872" stop-color="#AAB7FF"/>
<stop offset="0.796688" stop-color="#90A0FF" stop-opacity="0"/>
</radialGradient>
<radialGradient id="paint27_radial_1268_28918" cx="0" cy="0" r="1" gradientUnits="userSpaceOnUse" gradientTransform="translate(85.2823 496.824) rotate(134.602) scale(183.514 970.926)">
<stop stop-color="#A8ABFE"/>
<stop offset="0.334045" stop-color="#8994FE"/>
<stop offset="1" stop-color="#57415B"/>
</radialGradient>
<linearGradient id="paint28_linear_1268_28918" x1="202.949" y1="789.274" x2="84.9505" y2="623.577" gradientUnits="userSpaceOnUse">
<stop stop-color="#313EB4"/>
<stop offset="1" stop-color="#5C5A8B" stop-opacity="0"/>
</linearGradient>
<linearGradient id="paint29_linear_1268_28918" x1="-145.435" y1="417.77" x2="223.437" y2="280.383" gradientUnits="userSpaceOnUse">
<stop stop-color="#646464"/>
<stop offset="0.39182" stop-color="#9B95FE" stop-opacity="0"/>
</linearGradient>
<clipPath id="clip0_1268_28918">
<rect width="840" height="568" rx="4" fill="white"/>
</clipPath>
</defs>
</svg>
