<svg width="1064" height="278" viewBox="0 0 1064 278" fill="none" xmlns="http://www.w3.org/2000/svg">
<g clip-path="url(#clip0_940_30851)">
<rect width="1064" height="278" rx="4" fill="white"/>
<rect width="1064" height="278" rx="4" fill="#AABEFE" fill-opacity="0.5"/>
<g opacity="0.5">
<g opacity="0.7">
<path d="M1250.46 158.779C1207.81 175.795 1305.6 216.228 1270.92 236.947C1202.38 277.896 1149.87 313.319 1102.91 344.998C1002.87 412.491 790.45 441.369 639.312 492.134C600.634 505.126 567.79 516.358 538.166 527.359C604.111 488.265 647.163 447.098 691.78 404.434C745.017 353.529 800.482 300.492 899.723 246.302C1051.54 163.406 1189.3 153.009 1250.46 158.779Z" fill="url(#paint0_radial_940_30851)"/>
<path d="M1250.46 158.779C1207.81 175.795 1305.6 216.228 1270.92 236.947C1202.38 277.896 1149.87 313.319 1102.91 344.998C1002.87 412.491 790.45 441.369 639.312 492.134C600.634 505.126 567.79 516.358 538.166 527.359C604.111 488.265 647.163 447.098 691.78 404.434C745.017 353.529 800.482 300.492 899.723 246.302C1051.54 163.406 1189.3 153.009 1250.46 158.779Z" fill="url(#paint1_linear_940_30851)"/>
<path d="M1250.46 158.779C1207.81 175.795 1305.6 216.228 1270.92 236.947C1202.38 277.896 1149.87 313.319 1102.91 344.998C1002.87 412.491 790.45 441.369 639.312 492.134C600.634 505.126 567.79 516.358 538.166 527.359C604.111 488.265 647.163 447.098 691.78 404.434C745.017 353.529 800.482 300.492 899.723 246.302C1051.54 163.406 1189.3 153.009 1250.46 158.779Z" fill="url(#paint2_linear_940_30851)"/>
</g>
<g opacity="0.7">
<path d="M1483.05 261.105C1454.94 236.936 1410 197.637 1344.19 139.151C1234.67 41.8014 1153.93 3.73404 1078.86 -31.6637C1070.29 -35.7038 1061.8 -39.7092 1053.34 -43.7639C995.779 -71.3665 926.889 -119.29 887.508 -147.782L420.395 -162.933L419.332 -130.423C503.213 -97.542 641.649 -43.0962 649.502 -39.273C660.126 -34.0999 796.243 -15.5444 806.666 -15.2063C815.004 -14.9359 966.194 75.961 1040.75 121.376L1437.55 321.177L1481.76 300.422L1483.05 261.105Z" fill="url(#paint3_linear_940_30851)"/>
<path d="M1483.05 261.105C1454.94 236.936 1410 197.637 1344.19 139.151C1234.67 41.8014 1153.93 3.73404 1078.86 -31.6637C1070.29 -35.7038 1061.8 -39.7092 1053.34 -43.7639C995.779 -71.3665 926.889 -119.29 887.508 -147.782L420.395 -162.933L419.332 -130.423C503.213 -97.542 641.649 -43.0962 649.502 -39.273C660.126 -34.0999 796.243 -15.5444 806.666 -15.2063C815.004 -14.9359 966.194 75.961 1040.75 121.376L1437.55 321.177L1481.76 300.422L1483.05 261.105Z" fill="url(#paint4_radial_940_30851)"/>
<path d="M1483.05 261.105C1454.94 236.936 1410 197.637 1344.19 139.151C1234.67 41.8014 1153.93 3.73404 1078.86 -31.6637C1070.29 -35.7038 1061.8 -39.7092 1053.34 -43.7639C995.779 -71.3665 926.889 -119.29 887.508 -147.782L420.395 -162.933L419.332 -130.423C503.213 -97.542 641.649 -43.0962 649.502 -39.273C660.126 -34.0999 796.243 -15.5444 806.666 -15.2063C815.004 -14.9359 966.194 75.961 1040.75 121.376L1437.55 321.177L1481.76 300.422L1483.05 261.105Z" fill="url(#paint5_radial_940_30851)"/>
<path d="M1483.05 261.105C1454.94 236.936 1410 197.637 1344.19 139.151C1234.67 41.8014 1153.93 3.73404 1078.86 -31.6637C1070.29 -35.7038 1061.8 -39.7092 1053.34 -43.7639C995.779 -71.3665 926.889 -119.29 887.508 -147.782L420.395 -162.933L419.332 -130.423C503.213 -97.542 641.649 -43.0962 649.502 -39.273C660.126 -34.0999 796.243 -15.5444 806.666 -15.2063C815.004 -14.9359 966.194 75.961 1040.75 121.376L1437.55 321.177L1481.76 300.422L1483.05 261.105Z" fill="url(#paint6_radial_940_30851)" style="mix-blend-mode:hard-light"/>
<path d="M1483.05 261.105C1454.94 236.936 1410 197.637 1344.19 139.151C1234.67 41.8014 1153.93 3.73404 1078.86 -31.6637C1070.29 -35.7038 1061.8 -39.7092 1053.34 -43.7639C995.779 -71.3665 926.889 -119.29 887.508 -147.782L420.395 -162.933L419.332 -130.423C503.213 -97.542 641.649 -43.0962 649.502 -39.273C660.126 -34.0999 796.243 -15.5444 806.666 -15.2063C815.004 -14.9359 966.194 75.961 1040.75 121.376L1437.55 321.177L1481.76 300.422L1483.05 261.105Z" fill="url(#paint7_radial_940_30851)" style="mix-blend-mode:overlay"/>
<path d="M1483.05 261.105C1454.94 236.936 1410 197.637 1344.19 139.151C1234.67 41.8014 1153.93 3.73404 1078.86 -31.6637C1070.29 -35.7038 1061.8 -39.7092 1053.34 -43.7639C995.779 -71.3665 926.889 -119.29 887.508 -147.782L420.395 -162.933L419.332 -130.423C503.213 -97.542 641.649 -43.0962 649.502 -39.273C660.126 -34.0999 796.243 -15.5444 806.666 -15.2063C815.004 -14.9359 966.194 75.961 1040.75 121.376L1437.55 321.177L1481.76 300.422L1483.05 261.105Z" fill="url(#paint8_radial_940_30851)" style="mix-blend-mode:overlay"/>
<path d="M1483.05 261.105C1454.94 236.936 1410 197.637 1344.19 139.151C1234.67 41.8014 1153.93 3.73404 1078.86 -31.6637C1070.29 -35.7038 1061.8 -39.7092 1053.34 -43.7639C995.779 -71.3665 926.889 -119.29 887.508 -147.782L420.395 -162.933L419.332 -130.423C503.213 -97.542 641.649 -43.0962 649.502 -39.273C660.126 -34.0999 796.243 -15.5444 806.666 -15.2063C815.004 -14.9359 966.194 75.961 1040.75 121.376L1437.55 321.177L1481.76 300.422L1483.05 261.105Z" fill="url(#paint9_radial_940_30851)" style="mix-blend-mode:hard-light"/>
</g>
<g opacity="0.7">
<path d="M712.22 -151.727C725.618 -127.115 746.886 -87.2638 777.787 -28.1972C829.221 70.1173 875.418 116.987 918.374 160.57C923.277 165.544 928.138 170.475 932.959 175.436C965.781 209.203 1001.4 260.929 1021.5 291.331L1339.18 406.655L1347.9 382.187C1298.27 338.56 1216.39 266.422 1211.93 261.771C1205.89 255.479 1116.8 211.129 1109.71 208.556C1104.04 206.497 1022.35 103.826 982.211 52.7473L758.29 -187.263L722.767 -181.318L712.22 -151.727Z" fill="url(#paint10_linear_940_30851)"/>
<path d="M712.22 -151.727C725.618 -127.115 746.886 -87.2638 777.787 -28.1972C829.221 70.1173 875.418 116.987 918.374 160.57C923.277 165.544 928.138 170.475 932.959 175.436C965.781 209.203 1001.4 260.929 1021.5 291.331L1339.18 406.655L1347.9 382.187C1298.27 338.56 1216.39 266.422 1211.93 261.771C1205.89 255.479 1116.8 211.129 1109.71 208.556C1104.04 206.497 1022.35 103.826 982.211 52.7473L758.29 -187.263L722.767 -181.318L712.22 -151.727Z" fill="url(#paint11_radial_940_30851)"/>
<path d="M712.22 -151.727C725.618 -127.115 746.886 -87.2638 777.787 -28.1972C829.221 70.1173 875.418 116.987 918.374 160.57C923.277 165.544 928.138 170.475 932.959 175.436C965.781 209.203 1001.4 260.929 1021.5 291.331L1339.18 406.655L1347.9 382.187C1298.27 338.56 1216.39 266.422 1211.93 261.771C1205.89 255.479 1116.8 211.129 1109.71 208.556C1104.04 206.497 1022.35 103.826 982.211 52.7473L758.29 -187.263L722.767 -181.318L712.22 -151.727Z" fill="url(#paint12_radial_940_30851)"/>
<path d="M712.22 -151.727C725.618 -127.115 746.886 -87.2638 777.787 -28.1972C829.221 70.1173 875.418 116.987 918.374 160.57C923.277 165.544 928.138 170.475 932.959 175.436C965.781 209.203 1001.4 260.929 1021.5 291.331L1339.18 406.655L1347.9 382.187C1298.27 338.56 1216.39 266.422 1211.93 261.771C1205.89 255.479 1116.8 211.129 1109.71 208.556C1104.04 206.497 1022.35 103.826 982.211 52.7473L758.29 -187.263L722.767 -181.318L712.22 -151.727Z" fill="url(#paint13_radial_940_30851)" style="mix-blend-mode:hard-light"/>
<path d="M712.22 -151.727C725.618 -127.115 746.886 -87.2638 777.787 -28.1972C829.221 70.1173 875.418 116.987 918.374 160.57C923.277 165.544 928.138 170.475 932.959 175.436C965.781 209.203 1001.4 260.929 1021.5 291.331L1339.18 406.655L1347.9 382.187C1298.27 338.56 1216.39 266.422 1211.93 261.771C1205.89 255.479 1116.8 211.129 1109.71 208.556C1104.04 206.497 1022.35 103.826 982.211 52.7473L758.29 -187.263L722.767 -181.318L712.22 -151.727Z" fill="url(#paint14_radial_940_30851)" style="mix-blend-mode:overlay"/>
<path d="M712.22 -151.727C725.618 -127.115 746.886 -87.2638 777.787 -28.1972C829.221 70.1173 875.418 116.987 918.374 160.57C923.277 165.544 928.138 170.475 932.959 175.436C965.781 209.203 1001.4 260.929 1021.5 291.331L1339.18 406.655L1347.9 382.187C1298.27 338.56 1216.39 266.422 1211.93 261.771C1205.89 255.479 1116.8 211.129 1109.71 208.556C1104.04 206.497 1022.35 103.826 982.211 52.7473L758.29 -187.263L722.767 -181.318L712.22 -151.727Z" fill="url(#paint15_radial_940_30851)" style="mix-blend-mode:overlay"/>
<path d="M712.22 -151.727C725.618 -127.115 746.886 -87.2638 777.787 -28.1972C829.221 70.1173 875.418 116.987 918.374 160.57C923.277 165.544 928.138 170.475 932.959 175.436C965.781 209.203 1001.4 260.929 1021.5 291.331L1339.18 406.655L1347.9 382.187C1298.27 338.56 1216.39 266.422 1211.93 261.771C1205.89 255.479 1116.8 211.129 1109.71 208.556C1104.04 206.497 1022.35 103.826 982.211 52.7473L758.29 -187.263L722.767 -181.318L712.22 -151.727Z" fill="url(#paint16_radial_940_30851)" style="mix-blend-mode:hard-light"/>
</g>
<g opacity="0.7">
<path d="M915.662 -34.0527C932.127 -13.1155 949.117 5.7511 966.334 21.2283C1000.36 51.8171 1028.68 74.3341 1054.01 94.4718C1107.97 137.375 1148.35 169.479 1201.4 245.831C1214.97 265.371 1226.61 281.918 1237.59 296.647C1205.03 267.15 1175.06 251.418 1144.01 235.114C1106.96 215.661 1068.36 195.393 1021.93 149.957C950.903 80.4515 922.497 2.77207 915.662 -34.0527Z" fill="url(#paint17_radial_940_30851)"/>
<path d="M915.662 -34.0527C932.127 -13.1155 949.117 5.7511 966.334 21.2283C1000.36 51.8171 1028.68 74.3341 1054.01 94.4718C1107.97 137.375 1148.35 169.479 1201.4 245.831C1214.97 265.371 1226.61 281.918 1237.59 296.647C1205.03 267.15 1175.06 251.418 1144.01 235.114C1106.96 215.661 1068.36 195.393 1021.93 149.957C950.903 80.4515 922.497 2.77207 915.662 -34.0527Z" fill="url(#paint18_linear_940_30851)"/>
<path d="M915.662 -34.0527C932.127 -13.1155 949.117 5.7511 966.334 21.2283C1000.36 51.8171 1028.68 74.3341 1054.01 94.4718C1107.97 137.375 1148.35 169.479 1201.4 245.831C1214.97 265.371 1226.61 281.918 1237.59 296.647C1205.03 267.15 1175.06 251.418 1144.01 235.114C1106.96 215.661 1068.36 195.393 1021.93 149.957C950.903 80.4515 922.497 2.77207 915.662 -34.0527Z" fill="url(#paint19_linear_940_30851)"/>
</g>
</g>
<g opacity="0.5">
<g opacity="0.7">
<path d="M-222.08 398.477C-198.614 377.385 -160.495 343.673 -103.814 294.352C-9.47087 212.258 29.2006 150.649 65.1601 93.3603C69.2643 86.8217 73.3332 80.3393 77.4455 73.8892C105.44 29.9802 152.586 -22.0884 180.542 -51.8176L216.354 -414.919L186.615 -416.8C152.548 -352.575 96.1606 -246.585 92.2888 -240.597C87.0498 -232.495 63.6573 -127.146 62.8583 -119.044C62.219 -112.562 -28.1678 2.17299 -73.2813 58.7305L-274.988 361.113L-258.046 396.202L-222.08 398.477Z" fill="url(#paint20_linear_940_30851)"/>
<path d="M-222.08 398.477C-198.614 377.385 -160.495 343.673 -103.814 294.352C-9.47087 212.258 29.2006 150.649 65.1601 93.3603C69.2643 86.8217 73.3332 80.3393 77.4455 73.8892C105.44 29.9802 152.586 -22.0884 180.542 -51.8176L216.354 -414.919L186.615 -416.8C152.548 -352.575 96.1606 -246.585 92.2888 -240.597C87.0498 -232.495 63.6573 -127.146 62.8583 -119.044C62.219 -112.562 -28.1678 2.17299 -73.2813 58.7305L-274.988 361.113L-258.046 396.202L-222.08 398.477Z" fill="url(#paint21_radial_940_30851)"/>
<path d="M-222.08 398.477C-198.614 377.385 -160.495 343.673 -103.814 294.352C-9.47087 212.258 29.2006 150.649 65.1601 93.3603C69.2643 86.8217 73.3332 80.3393 77.4455 73.8892C105.44 29.9802 152.586 -22.0884 180.542 -51.8176L216.354 -414.919L186.615 -416.8C152.548 -352.575 96.1606 -246.585 92.2888 -240.597C87.0498 -232.495 63.6573 -127.146 62.8583 -119.044C62.219 -112.562 -28.1678 2.17299 -73.2813 58.7305L-274.988 361.113L-258.046 396.202L-222.08 398.477Z" fill="url(#paint22_radial_940_30851)"/>
<path d="M-222.08 398.477C-198.614 377.385 -160.495 343.673 -103.814 294.352C-9.47087 212.258 29.2006 150.649 65.1601 93.3603C69.2643 86.8217 73.3332 80.3393 77.4455 73.8892C105.44 29.9802 152.586 -22.0884 180.542 -51.8176L216.354 -414.919L186.615 -416.8C152.548 -352.575 96.1606 -246.585 92.2888 -240.597C87.0498 -232.495 63.6573 -127.146 62.8583 -119.044C62.219 -112.562 -28.1678 2.17299 -73.2813 58.7305L-274.988 361.113L-258.046 396.202L-222.08 398.477Z" fill="url(#paint23_radial_940_30851)" style="mix-blend-mode:hard-light"/>
<path d="M-222.08 398.477C-198.614 377.385 -160.495 343.673 -103.814 294.352C-9.47087 212.258 29.2006 150.649 65.1601 93.3603C69.2643 86.8217 73.3332 80.3393 77.4455 73.8892C105.44 29.9802 152.586 -22.0884 180.542 -51.8176L216.354 -414.919L186.615 -416.8C152.548 -352.575 96.1606 -246.585 92.2888 -240.597C87.0498 -232.495 63.6573 -127.146 62.8583 -119.044C62.219 -112.562 -28.1678 2.17299 -73.2813 58.7305L-274.988 361.113L-258.046 396.202L-222.08 398.477Z" fill="url(#paint24_radial_940_30851)" style="mix-blend-mode:overlay"/>
<path d="M-222.08 398.477C-198.614 377.385 -160.495 343.673 -103.814 294.352C-9.47087 212.258 29.2006 150.649 65.1601 93.3603C69.2643 86.8217 73.3332 80.3393 77.4455 73.8892C105.44 29.9802 152.586 -22.0884 180.542 -51.8176L216.354 -414.919L186.615 -416.8C152.548 -352.575 96.1606 -246.585 92.2888 -240.597C87.0498 -232.495 63.6573 -127.146 62.8583 -119.044C62.219 -112.562 -28.1678 2.17299 -73.2813 58.7305L-274.988 361.113L-258.046 396.202L-222.08 398.477Z" fill="url(#paint25_radial_940_30851)" style="mix-blend-mode:overlay"/>
<path d="M-222.08 398.477C-198.614 377.385 -160.495 343.673 -103.814 294.352C-9.47087 212.258 29.2006 150.649 65.1601 93.3603C69.2643 86.8217 73.3332 80.3393 77.4455 73.8892C105.44 29.9802 152.586 -22.0884 180.542 -51.8176L216.354 -414.919L186.615 -416.8C152.548 -352.575 96.1606 -246.585 92.2888 -240.597C87.0498 -232.495 63.6573 -127.146 62.8583 -119.044C62.219 -112.562 -28.1678 2.17299 -73.2813 58.7305L-274.988 361.113L-258.046 396.202L-222.08 398.477Z" fill="url(#paint26_radial_940_30851)" style="mix-blend-mode:hard-light"/>
</g>
<g opacity="0.7">
<path d="M203.371 380.368C177.369 362.738 151.32 347.368 125.961 335.546C75.8421 312.18 34.9685 295.765 -1.58632 281.084C-79.4652 249.808 -137.741 226.403 -224.053 160.435C-246.141 143.553 -265.02 129.291 -282.582 116.744C-234.548 139.334 -193.612 148.363 -151.188 157.72C-100.568 168.884 -47.8285 180.517 21.6142 216.209C127.843 270.81 184.553 344.055 203.371 380.368Z" fill="url(#paint27_radial_940_30851)"/>
<path d="M203.371 380.368C177.369 362.738 151.32 347.368 125.961 335.546C75.8421 312.18 34.9685 295.765 -1.58632 281.084C-79.4652 249.808 -137.741 226.403 -224.053 160.435C-246.141 143.553 -265.02 129.291 -282.582 116.744C-234.548 139.334 -193.612 148.363 -151.188 157.72C-100.568 168.884 -47.8285 180.517 21.6142 216.209C127.843 270.81 184.553 344.055 203.371 380.368Z" fill="url(#paint28_linear_940_30851)"/>
<path d="M203.371 380.368C177.369 362.738 151.32 347.368 125.961 335.546C75.8421 312.18 34.9685 295.765 -1.58632 281.084C-79.4652 249.808 -137.741 226.403 -224.053 160.435C-246.141 143.553 -265.02 129.291 -282.582 116.744C-234.548 139.334 -193.612 148.363 -151.188 157.72C-100.568 168.884 -47.8285 180.517 21.6142 216.209C127.843 270.81 184.553 344.055 203.371 380.368Z" fill="url(#paint29_linear_940_30851)"/>
</g>
</g>
</g>
<rect x="0.5" y="0.5" width="1063" height="277" rx="3.5" stroke="#3898FC" stroke-opacity="0.2"/>
<defs>
<radialGradient id="paint0_radial_940_30851" cx="0" cy="0" r="1" gradientUnits="userSpaceOnUse" gradientTransform="translate(912.1 226.951) rotate(64.0748) scale(189.978 1133.71)">
<stop stop-color="#A8ABFE"/>
<stop offset="0.334045" stop-color="#8994FE"/>
<stop offset="1" stop-color="#C68DD1"/>
</radialGradient>
<linearGradient id="paint1_linear_940_30851" x1="1254.66" y1="159.424" x2="1031.31" y2="219.259" gradientUnits="userSpaceOnUse">
<stop stop-color="#8893FF"/>
<stop offset="1" stop-color="#9B95FE" stop-opacity="0"/>
</linearGradient>
<linearGradient id="paint2_linear_940_30851" x1="742.766" y1="465.603" x2="670.223" y2="40.1868" gradientUnits="userSpaceOnUse">
<stop stop-color="#C78CCF"/>
<stop offset="0.39182" stop-color="#9B95FE" stop-opacity="0"/>
</linearGradient>
<linearGradient id="paint3_linear_940_30851" x1="748.519" y1="-162.637" x2="1457.33" y2="315.891" gradientUnits="userSpaceOnUse">
<stop stop-color="#9F99FF"/>
<stop offset="1" stop-color="#6870FE"/>
</linearGradient>
<radialGradient id="paint4_radial_940_30851" cx="0" cy="0" r="1" gradientUnits="userSpaceOnUse" gradientTransform="translate(468.409 -145.855) rotate(-64.2741) scale(208.075 952.043)">
<stop offset="0.0520833" stop-color="#CF94D4"/>
<stop offset="1" stop-color="#9B95FE" stop-opacity="0"/>
</radialGradient>
<radialGradient id="paint5_radial_940_30851" cx="0" cy="0" r="1" gradientUnits="userSpaceOnUse" gradientTransform="translate(660.107 -77.5569) rotate(-75.4275) scale(57.2469 390.868)">
<stop offset="0.0520833" stop-color="#CF94D4"/>
<stop offset="1" stop-color="#AE98F3" stop-opacity="0"/>
</radialGradient>
<radialGradient id="paint6_radial_940_30851" cx="0" cy="0" r="1" gradientUnits="userSpaceOnUse" gradientTransform="translate(1161.33 108.732) rotate(-56.5511) scale(90.6486 267.383)">
<stop stop-color="#8893FF"/>
<stop offset="1" stop-color="#7081FF" stop-opacity="0"/>
</radialGradient>
<radialGradient id="paint7_radial_940_30851" cx="0" cy="0" r="1" gradientUnits="userSpaceOnUse" gradientTransform="translate(946.048 -107.6) rotate(-59.7107) scale(62.7183 285.475)">
<stop stop-color="#9AA7FE"/>
<stop offset="1" stop-color="#7081FF" stop-opacity="0"/>
</radialGradient>
<radialGradient id="paint8_radial_940_30851" cx="0" cy="0" r="1" gradientUnits="userSpaceOnUse" gradientTransform="translate(1409.11 189.541) rotate(-47.6275) scale(57.5848 340.32)">
<stop stop-color="#9AA7FE"/>
<stop offset="1" stop-color="#7081FF" stop-opacity="0"/>
</radialGradient>
<radialGradient id="paint9_radial_940_30851" cx="0" cy="0" r="1" gradientUnits="userSpaceOnUse" gradientTransform="translate(1166.41 8.53303) rotate(123.235) scale(98.1128 621.088)">
<stop offset="0.0644872" stop-color="#AAB5FF"/>
<stop offset="0.796688" stop-color="#90A0FF" stop-opacity="0"/>
</radialGradient>
<linearGradient id="paint10_linear_940_30851" x1="1113.48" y1="333.508" x2="698.852" y2="-149.414" gradientUnits="userSpaceOnUse">
<stop stop-color="#9F99FF"/>
<stop offset="1" stop-color="#6870FE"/>
</linearGradient>
<radialGradient id="paint11_radial_940_30851" cx="0" cy="0" r="1" gradientUnits="userSpaceOnUse" gradientTransform="translate(1310.34 383.007) rotate(131.488) scale(163.355 700.288)">
<stop offset="0.0520833" stop-color="#CF94D4"/>
<stop offset="1" stop-color="#9B95FE" stop-opacity="0"/>
</radialGradient>
<radialGradient id="paint12_radial_940_30851" cx="0" cy="0" r="1" gradientUnits="userSpaceOnUse" gradientTransform="translate(1195.22 288.506) rotate(121.166) scale(45.4622 284.225)">
<stop offset="0.0520833" stop-color="#CF94D4"/>
<stop offset="1" stop-color="#AE98F3" stop-opacity="0"/>
</radialGradient>
<radialGradient id="paint13_radial_940_30851" cx="0" cy="0" r="1" gradientUnits="userSpaceOnUse" gradientTransform="translate(896.133 35.5563) rotate(138.8) scale(70.3976 198.824)">
<stop stop-color="#8893FF"/>
<stop offset="1" stop-color="#7081FF" stop-opacity="0"/>
</radialGradient>
<radialGradient id="paint14_radial_940_30851" cx="0" cy="0" r="1" gradientUnits="userSpaceOnUse" gradientTransform="translate(991.094 247.788) rotate(135.789) scale(48.9355 211.285)">
<stop stop-color="#9AA7FE"/>
<stop offset="1" stop-color="#7081FF" stop-opacity="0"/>
</radialGradient>
<radialGradient id="paint15_radial_940_30851" cx="0" cy="0" r="1" gradientUnits="userSpaceOnUse" gradientTransform="translate(745.506 -80.9147) rotate(147.468) scale(44.0751 256.764)">
<stop stop-color="#9AA7FE"/>
<stop offset="1" stop-color="#7081FF" stop-opacity="0"/>
</radialGradient>
<radialGradient id="paint16_radial_940_30851" cx="0" cy="0" r="1" gradientUnits="userSpaceOnUse" gradientTransform="translate(868.016 110.568) rotate(-41.4046) scale(76.2192 461.685)">
<stop offset="0.0644872" stop-color="#AAB5FF"/>
<stop offset="0.796688" stop-color="#90A0FF" stop-opacity="0"/>
</radialGradient>
<radialGradient id="paint17_radial_940_30851" cx="0" cy="0" r="1" gradientUnits="userSpaceOnUse" gradientTransform="translate(1009.14 147.127) rotate(-46.8305) scale(118.933 651.941)">
<stop stop-color="#A8ABFE"/>
<stop offset="0.334045" stop-color="#8994FE"/>
<stop offset="1" stop-color="#C68DD1"/>
</radialGradient>
<linearGradient id="paint18_linear_940_30851" x1="915.331" y1="-36.6376" x2="995.922" y2="71.7" gradientUnits="userSpaceOnUse">
<stop stop-color="#8893FF"/>
<stop offset="1" stop-color="#9B95FE" stop-opacity="0"/>
</linearGradient>
<linearGradient id="paint19_linear_940_30851" x1="1169.65" y1="191.716" x2="933.066" y2="304.701" gradientUnits="userSpaceOnUse">
<stop stop-color="#C78CCF"/>
<stop offset="0.39182" stop-color="#9B95FE" stop-opacity="0"/>
</linearGradient>
<linearGradient id="paint20_linear_940_30851" x1="200.679" y1="-159.522" x2="-175.521" y2="436.95" gradientUnits="userSpaceOnUse">
<stop stop-color="#9F99FF"/>
<stop offset="1" stop-color="#6870FE"/>
</linearGradient>
<radialGradient id="paint21_radial_940_30851" cx="0" cy="0" r="1" gradientUnits="userSpaceOnUse" gradientTransform="translate(198.452 -378.099) rotate(24.511) scale(184.114 769.041)">
<stop offset="0.0520833" stop-color="#CF94D4"/>
<stop offset="1" stop-color="#9B95FE" stop-opacity="0"/>
</radialGradient>
<radialGradient id="paint22_radial_940_30851" cx="0" cy="0" r="1" gradientUnits="userSpaceOnUse" gradientTransform="translate(126.871 -231.1) rotate(14.5579) scale(51.7535 309.031)">
<stop offset="0.0520833" stop-color="#CF94D4"/>
<stop offset="1" stop-color="#AE98F3" stop-opacity="0"/>
</radialGradient>
<radialGradient id="paint23_radial_940_30851" cx="0" cy="0" r="1" gradientUnits="userSpaceOnUse" gradientTransform="translate(-67.3568 153.002) rotate(31.6941) scale(78.6953 220.143)">
<stop stop-color="#8893FF"/>
<stop offset="1" stop-color="#7081FF" stop-opacity="0"/>
</radialGradient>
<radialGradient id="paint24_radial_940_30851" cx="0" cy="0" r="1" gradientUnits="userSpaceOnUse" gradientTransform="translate(140.976 -7.55427) rotate(28.722) scale(54.8928 233.134)">
<stop stop-color="#9AA7FE"/>
<stop offset="1" stop-color="#7081FF" stop-opacity="0"/>
</radialGradient>
<radialGradient id="paint25_radial_940_30851" cx="0" cy="0" r="1" gradientUnits="userSpaceOnUse" gradientTransform="translate(-153.034 343.247) rotate(40.3667) scale(48.7717 287.201)">
<stop stop-color="#9AA7FE"/>
<stop offset="1" stop-color="#7081FF" stop-opacity="0"/>
</radialGradient>
<radialGradient id="paint26_radial_940_30851" cx="0" cy="0" r="1" gradientUnits="userSpaceOnUse" gradientTransform="translate(24.2177 160.201) rotate(-148.509) scale(85.2234 511.068)">
<stop offset="0.0644872" stop-color="#AAB7FF"/>
<stop offset="0.796688" stop-color="#90A0FF" stop-opacity="0"/>
</radialGradient>
<radialGradient id="paint27_radial_940_30851" cx="0" cy="0" r="1" gradientUnits="userSpaceOnUse" gradientTransform="translate(37.9842 216.058) rotate(124.285) scale(131.811 777.749)">
<stop stop-color="#A8ABFE"/>
<stop offset="0.334045" stop-color="#8994FE"/>
<stop offset="1" stop-color="#57415B"/>
</radialGradient>
<linearGradient id="paint28_linear_940_30851" x1="204.511" y1="382.953" x2="93.7446" y2="272.415" gradientUnits="userSpaceOnUse">
<stop stop-color="#313EB4"/>
<stop offset="1" stop-color="#5C5A8B" stop-opacity="0"/>
</linearGradient>
<linearGradient id="paint29_linear_940_30851" x1="-170.003" y1="208.594" x2="51.3995" y2="-0.740379" gradientUnits="userSpaceOnUse">
<stop stop-color="#646464"/>
<stop offset="0.39182" stop-color="#9B95FE" stop-opacity="0"/>
</linearGradient>
<clipPath id="clip0_940_30851">
<rect width="1064" height="278" rx="4" fill="white"/>
</clipPath>
</defs>
</svg>
