<svg width="840" height="278" viewBox="0 0 840 278" fill="none" xmlns="http://www.w3.org/2000/svg">
<g clip-path="url(#clip0_1199_20431)">
<rect width="840" height="278" fill="white"/>
<g opacity="0.3">
<g opacity="0.7">
<path d="M987.204 158.779C953.536 175.795 1030.74 216.228 1003.36 236.947C949.244 277.896 907.793 313.319 870.721 344.998C791.742 412.491 624.039 441.369 504.72 492.134C474.184 505.126 448.255 516.358 424.867 527.359C476.929 488.265 510.918 447.098 546.142 404.434C588.171 353.529 631.959 300.492 710.307 246.302C830.16 163.406 938.92 153.009 987.204 158.779Z" fill="url(#paint0_radial_1199_20431)"/>
<path d="M987.204 158.779C953.536 175.795 1030.74 216.228 1003.36 236.947C949.244 277.896 907.793 313.319 870.721 344.998C791.742 412.491 624.039 441.369 504.72 492.134C474.184 505.126 448.255 516.358 424.867 527.359C476.929 488.265 510.918 447.098 546.142 404.434C588.171 353.529 631.959 300.492 710.307 246.302C830.16 163.406 938.92 153.009 987.204 158.779Z" fill="url(#paint1_linear_1199_20431)"/>
<path d="M987.204 158.779C953.536 175.795 1030.74 216.228 1003.36 236.947C949.244 277.896 907.793 313.319 870.721 344.998C791.742 412.491 624.039 441.369 504.72 492.134C474.184 505.126 448.255 516.358 424.867 527.359C476.929 488.265 510.918 447.098 546.142 404.434C588.171 353.529 631.959 300.492 710.307 246.302C830.16 163.406 938.92 153.009 987.204 158.779Z" fill="url(#paint2_linear_1199_20431)"/>
</g>
<g opacity="0.7">
<path d="M1170.83 261.105C1148.64 236.936 1113.15 197.637 1061.21 139.151C974.74 41.8014 911 3.73405 851.731 -31.6637C844.966 -35.7038 838.26 -39.7092 831.584 -43.7639C786.141 -71.3665 731.754 -119.29 700.664 -147.782L331.891 -162.933L331.052 -130.423C397.274 -97.542 506.565 -43.0962 512.764 -39.273C521.152 -34.0999 628.613 -15.5444 636.841 -15.2063C643.424 -14.9359 762.785 75.961 821.642 121.376L1134.91 321.177L1169.81 300.422L1170.83 261.105Z" fill="url(#paint3_linear_1199_20431)"/>
<path d="M1170.83 261.105C1148.64 236.936 1113.15 197.637 1061.21 139.151C974.74 41.8014 911 3.73405 851.731 -31.6637C844.966 -35.7038 838.26 -39.7092 831.584 -43.7639C786.141 -71.3665 731.754 -119.29 700.664 -147.782L331.891 -162.933L331.052 -130.423C397.274 -97.542 506.565 -43.0962 512.764 -39.273C521.152 -34.0999 628.613 -15.5444 636.841 -15.2063C643.424 -14.9359 762.785 75.961 821.642 121.376L1134.91 321.177L1169.81 300.422L1170.83 261.105Z" fill="url(#paint4_radial_1199_20431)"/>
<path d="M1170.83 261.105C1148.64 236.936 1113.15 197.637 1061.21 139.151C974.74 41.8014 911 3.73405 851.731 -31.6637C844.966 -35.7038 838.26 -39.7092 831.584 -43.7639C786.141 -71.3665 731.754 -119.29 700.664 -147.782L331.891 -162.933L331.052 -130.423C397.274 -97.542 506.565 -43.0962 512.764 -39.273C521.152 -34.0999 628.613 -15.5444 636.841 -15.2063C643.424 -14.9359 762.785 75.961 821.642 121.376L1134.91 321.177L1169.81 300.422L1170.83 261.105Z" fill="url(#paint5_radial_1199_20431)"/>
<path d="M1170.83 261.105C1148.64 236.936 1113.15 197.637 1061.21 139.151C974.74 41.8014 911 3.73405 851.731 -31.6637C844.966 -35.7038 838.26 -39.7092 831.584 -43.7639C786.141 -71.3665 731.754 -119.29 700.664 -147.782L331.891 -162.933L331.052 -130.423C397.274 -97.542 506.565 -43.0962 512.764 -39.273C521.152 -34.0999 628.613 -15.5444 636.841 -15.2063C643.424 -14.9359 762.785 75.961 821.642 121.376L1134.91 321.177L1169.81 300.422L1170.83 261.105Z" fill="url(#paint6_radial_1199_20431)" style="mix-blend-mode:hard-light"/>
<path d="M1170.83 261.105C1148.64 236.936 1113.15 197.637 1061.21 139.151C974.74 41.8014 911 3.73405 851.731 -31.6637C844.966 -35.7038 838.26 -39.7092 831.584 -43.7639C786.141 -71.3665 731.754 -119.29 700.664 -147.782L331.891 -162.933L331.052 -130.423C397.274 -97.542 506.565 -43.0962 512.764 -39.273C521.152 -34.0999 628.613 -15.5444 636.841 -15.2063C643.424 -14.9359 762.785 75.961 821.642 121.376L1134.91 321.177L1169.81 300.422L1170.83 261.105Z" fill="url(#paint7_radial_1199_20431)" style="mix-blend-mode:overlay"/>
<path d="M1170.83 261.105C1148.64 236.936 1113.15 197.637 1061.21 139.151C974.74 41.8014 911 3.73405 851.731 -31.6637C844.966 -35.7038 838.26 -39.7092 831.584 -43.7639C786.141 -71.3665 731.754 -119.29 700.664 -147.782L331.891 -162.933L331.052 -130.423C397.274 -97.542 506.565 -43.0962 512.764 -39.273C521.152 -34.0999 628.613 -15.5444 636.841 -15.2063C643.424 -14.9359 762.785 75.961 821.642 121.376L1134.91 321.177L1169.81 300.422L1170.83 261.105Z" fill="url(#paint8_radial_1199_20431)" style="mix-blend-mode:overlay"/>
<path d="M1170.83 261.105C1148.64 236.936 1113.15 197.637 1061.21 139.151C974.74 41.8014 911 3.73405 851.731 -31.6637C844.966 -35.7038 838.26 -39.7092 831.584 -43.7639C786.141 -71.3665 731.754 -119.29 700.664 -147.782L331.891 -162.933L331.052 -130.423C397.274 -97.542 506.565 -43.0962 512.764 -39.273C521.152 -34.0999 628.613 -15.5444 636.841 -15.2063C643.424 -14.9359 762.785 75.961 821.642 121.376L1134.91 321.177L1169.81 300.422L1170.83 261.105Z" fill="url(#paint9_radial_1199_20431)" style="mix-blend-mode:hard-light"/>
</g>
<g opacity="0.7">
<path d="M562.279 -151.727C572.856 -127.115 589.647 -87.2633 614.042 -28.1967C654.648 70.1178 691.119 116.987 725.032 160.57C728.903 165.544 732.74 170.476 736.546 175.436C762.458 209.203 790.582 260.929 806.446 291.332L1057.25 406.655L1064.13 382.188C1024.95 338.56 960.311 266.422 956.788 261.772C952.02 255.48 881.68 211.129 876.084 208.556C871.607 206.498 807.115 103.826 775.429 52.7478L598.65 -187.263L570.605 -181.318L562.279 -151.727Z" fill="url(#paint10_linear_1199_20431)"/>
<path d="M562.279 -151.727C572.856 -127.115 589.647 -87.2633 614.042 -28.1967C654.648 70.1178 691.119 116.987 725.032 160.57C728.903 165.544 732.74 170.476 736.546 175.436C762.458 209.203 790.582 260.929 806.446 291.332L1057.25 406.655L1064.13 382.188C1024.95 338.56 960.311 266.422 956.788 261.772C952.02 255.48 881.68 211.129 876.084 208.556C871.607 206.498 807.115 103.826 775.429 52.7478L598.65 -187.263L570.605 -181.318L562.279 -151.727Z" fill="url(#paint11_radial_1199_20431)"/>
<path d="M562.279 -151.727C572.856 -127.115 589.647 -87.2633 614.042 -28.1967C654.648 70.1178 691.119 116.987 725.032 160.57C728.903 165.544 732.74 170.476 736.546 175.436C762.458 209.203 790.582 260.929 806.446 291.332L1057.25 406.655L1064.13 382.188C1024.95 338.56 960.311 266.422 956.788 261.772C952.02 255.48 881.68 211.129 876.084 208.556C871.607 206.498 807.115 103.826 775.429 52.7478L598.65 -187.263L570.605 -181.318L562.279 -151.727Z" fill="url(#paint12_radial_1199_20431)"/>
<path d="M562.279 -151.727C572.856 -127.115 589.647 -87.2633 614.042 -28.1967C654.648 70.1178 691.119 116.987 725.032 160.57C728.903 165.544 732.74 170.476 736.546 175.436C762.458 209.203 790.582 260.929 806.446 291.332L1057.25 406.655L1064.13 382.188C1024.95 338.56 960.311 266.422 956.788 261.772C952.02 255.48 881.68 211.129 876.084 208.556C871.607 206.498 807.115 103.826 775.429 52.7478L598.65 -187.263L570.605 -181.318L562.279 -151.727Z" fill="url(#paint13_radial_1199_20431)" style="mix-blend-mode:hard-light"/>
<path d="M562.279 -151.727C572.856 -127.115 589.647 -87.2633 614.042 -28.1967C654.648 70.1178 691.119 116.987 725.032 160.57C728.903 165.544 732.74 170.476 736.546 175.436C762.458 209.203 790.582 260.929 806.446 291.332L1057.25 406.655L1064.13 382.188C1024.95 338.56 960.311 266.422 956.788 261.772C952.02 255.48 881.68 211.129 876.084 208.556C871.607 206.498 807.115 103.826 775.429 52.7478L598.65 -187.263L570.605 -181.318L562.279 -151.727Z" fill="url(#paint14_radial_1199_20431)" style="mix-blend-mode:overlay"/>
<path d="M562.279 -151.727C572.856 -127.115 589.647 -87.2633 614.042 -28.1967C654.648 70.1178 691.119 116.987 725.032 160.57C728.903 165.544 732.74 170.476 736.546 175.436C762.458 209.203 790.582 260.929 806.446 291.332L1057.25 406.655L1064.13 382.188C1024.95 338.56 960.311 266.422 956.788 261.772C952.02 255.48 881.68 211.129 876.084 208.556C871.607 206.498 807.115 103.826 775.429 52.7478L598.65 -187.263L570.605 -181.318L562.279 -151.727Z" fill="url(#paint15_radial_1199_20431)" style="mix-blend-mode:overlay"/>
<path d="M562.279 -151.727C572.856 -127.115 589.647 -87.2633 614.042 -28.1967C654.648 70.1178 691.119 116.987 725.032 160.57C728.903 165.544 732.74 170.476 736.546 175.436C762.458 209.203 790.582 260.929 806.446 291.332L1057.25 406.655L1064.13 382.188C1024.95 338.56 960.311 266.422 956.788 261.772C952.02 255.48 881.68 211.129 876.084 208.556C871.607 206.498 807.115 103.826 775.429 52.7478L598.65 -187.263L570.605 -181.318L562.279 -151.727Z" fill="url(#paint16_radial_1199_20431)" style="mix-blend-mode:hard-light"/>
</g>
<g opacity="0.7">
<path d="M722.891 -34.0523C735.89 -13.115 749.303 5.75159 762.896 21.2288C789.759 51.8176 812.117 74.3346 832.113 94.4723C874.713 137.375 906.59 169.479 948.471 245.832C959.189 265.371 968.378 281.918 977.049 296.647C951.337 267.151 927.682 251.419 903.168 235.115C873.918 215.661 843.444 195.393 806.788 149.957C750.713 80.452 728.288 2.77256 722.891 -34.0523Z" fill="url(#paint17_radial_1199_20431)"/>
<path d="M722.891 -34.0523C735.89 -13.115 749.303 5.75159 762.896 21.2288C789.759 51.8176 812.117 74.3346 832.113 94.4723C874.713 137.375 906.59 169.479 948.471 245.832C959.189 265.371 968.378 281.918 977.049 296.647C951.337 267.151 927.682 251.419 903.168 235.115C873.918 215.661 843.444 195.393 806.788 149.957C750.713 80.452 728.288 2.77256 722.891 -34.0523Z" fill="url(#paint18_linear_1199_20431)"/>
<path d="M722.891 -34.0523C735.89 -13.115 749.303 5.75159 762.896 21.2288C789.759 51.8176 812.117 74.3346 832.113 94.4723C874.713 137.375 906.59 169.479 948.471 245.832C959.189 265.371 968.378 281.918 977.049 296.647C951.337 267.151 927.682 251.419 903.168 235.115C873.918 215.661 843.444 195.393 806.788 149.957C750.713 80.452 728.288 2.77256 722.891 -34.0523Z" fill="url(#paint19_linear_1199_20431)"/>
</g>
</g>
<g opacity="0.3">
<g opacity="0.7">
<path d="M-175.326 398.477C-156.801 377.385 -126.706 343.673 -81.9585 294.352C-7.47715 212.258 23.0529 150.649 51.442 93.3603C54.6822 86.8216 57.8945 80.3393 61.141 73.8892C83.242 29.9801 120.463 -22.0883 142.533 -51.8176L170.806 -414.919L147.328 -416.8C120.433 -352.576 75.9161 -246.585 72.8594 -240.597C68.7234 -232.495 50.2557 -127.146 49.6248 -119.044C49.1201 -112.562 -22.2379 2.17295 -57.8538 58.7304L-217.096 361.113L-203.721 396.202L-175.326 398.477Z" fill="url(#paint20_linear_1199_20431)"/>
<path d="M-175.326 398.477C-156.801 377.385 -126.706 343.673 -81.9585 294.352C-7.47715 212.258 23.0529 150.649 51.442 93.3603C54.6822 86.8216 57.8945 80.3393 61.141 73.8892C83.242 29.9801 120.463 -22.0883 142.533 -51.8176L170.806 -414.919L147.328 -416.8C120.433 -352.576 75.9161 -246.585 72.8594 -240.597C68.7234 -232.495 50.2557 -127.146 49.6248 -119.044C49.1201 -112.562 -22.2379 2.17295 -57.8538 58.7304L-217.096 361.113L-203.721 396.202L-175.326 398.477Z" fill="url(#paint21_radial_1199_20431)"/>
<path d="M-175.326 398.477C-156.801 377.385 -126.706 343.673 -81.9585 294.352C-7.47715 212.258 23.0529 150.649 51.442 93.3603C54.6822 86.8216 57.8945 80.3393 61.141 73.8892C83.242 29.9801 120.463 -22.0883 142.533 -51.8176L170.806 -414.919L147.328 -416.8C120.433 -352.576 75.9161 -246.585 72.8594 -240.597C68.7234 -232.495 50.2557 -127.146 49.6248 -119.044C49.1201 -112.562 -22.2379 2.17295 -57.8538 58.7304L-217.096 361.113L-203.721 396.202L-175.326 398.477Z" fill="url(#paint22_radial_1199_20431)"/>
<path d="M-175.326 398.477C-156.801 377.385 -126.706 343.673 -81.9585 294.352C-7.47715 212.258 23.0529 150.649 51.442 93.3603C54.6822 86.8216 57.8945 80.3393 61.141 73.8892C83.242 29.9801 120.463 -22.0883 142.533 -51.8176L170.806 -414.919L147.328 -416.8C120.433 -352.576 75.9161 -246.585 72.8594 -240.597C68.7234 -232.495 50.2557 -127.146 49.6248 -119.044C49.1201 -112.562 -22.2379 2.17295 -57.8538 58.7304L-217.096 361.113L-203.721 396.202L-175.326 398.477Z" fill="url(#paint23_radial_1199_20431)" style="mix-blend-mode:hard-light"/>
<path d="M-175.326 398.477C-156.801 377.385 -126.706 343.673 -81.9585 294.352C-7.47715 212.258 23.0529 150.649 51.442 93.3603C54.6822 86.8216 57.8945 80.3393 61.141 73.8892C83.242 29.9801 120.463 -22.0883 142.533 -51.8176L170.806 -414.919L147.328 -416.8C120.433 -352.576 75.9161 -246.585 72.8594 -240.597C68.7234 -232.495 50.2557 -127.146 49.6248 -119.044C49.1201 -112.562 -22.2379 2.17295 -57.8538 58.7304L-217.096 361.113L-203.721 396.202L-175.326 398.477Z" fill="url(#paint24_radial_1199_20431)" style="mix-blend-mode:overlay"/>
<path d="M-175.326 398.477C-156.801 377.385 -126.706 343.673 -81.9585 294.352C-7.47715 212.258 23.0529 150.649 51.442 93.3603C54.6822 86.8216 57.8945 80.3393 61.141 73.8892C83.242 29.9801 120.463 -22.0883 142.533 -51.8176L170.806 -414.919L147.328 -416.8C120.433 -352.576 75.9161 -246.585 72.8594 -240.597C68.7234 -232.495 50.2557 -127.146 49.6248 -119.044C49.1201 -112.562 -22.2379 2.17295 -57.8538 58.7304L-217.096 361.113L-203.721 396.202L-175.326 398.477Z" fill="url(#paint25_radial_1199_20431)" style="mix-blend-mode:overlay"/>
<path d="M-175.326 398.477C-156.801 377.385 -126.706 343.673 -81.9585 294.352C-7.47715 212.258 23.0529 150.649 51.442 93.3603C54.6822 86.8216 57.8945 80.3393 61.141 73.8892C83.242 29.9801 120.463 -22.0883 142.533 -51.8176L170.806 -414.919L147.328 -416.8C120.433 -352.576 75.9161 -246.585 72.8594 -240.597C68.7234 -232.495 50.2557 -127.146 49.6248 -119.044C49.1201 -112.562 -22.2379 2.17295 -57.8538 58.7304L-217.096 361.113L-203.721 396.202L-175.326 398.477Z" fill="url(#paint26_radial_1199_20431)" style="mix-blend-mode:hard-light"/>
</g>
<g opacity="0.7">
<path d="M160.557 380.368C140.029 362.738 119.464 347.368 99.4438 335.546C59.8763 312.18 27.6076 295.765 -1.2514 281.084C-62.7348 249.808 -108.742 226.403 -176.883 160.435C-194.321 143.553 -209.225 129.291 -223.09 116.744C-185.169 139.334 -152.851 148.363 -119.358 157.72C-79.3947 168.884 -37.7584 180.517 17.0648 216.209C100.93 270.81 145.701 344.055 160.557 380.368Z" fill="url(#paint27_radial_1199_20431)"/>
<path d="M160.557 380.368C140.029 362.738 119.464 347.368 99.4438 335.546C59.8763 312.18 27.6076 295.765 -1.2514 281.084C-62.7348 249.808 -108.742 226.403 -176.883 160.435C-194.321 143.553 -209.225 129.291 -223.09 116.744C-185.169 139.334 -152.851 148.363 -119.358 157.72C-79.3947 168.884 -37.7584 180.517 17.0648 216.209C100.93 270.81 145.701 344.055 160.557 380.368Z" fill="url(#paint28_linear_1199_20431)"/>
<path d="M160.557 380.368C140.029 362.738 119.464 347.368 99.4438 335.546C59.8763 312.18 27.6076 295.765 -1.2514 281.084C-62.7348 249.808 -108.742 226.403 -176.883 160.435C-194.321 143.553 -209.225 129.291 -223.09 116.744C-185.169 139.334 -152.851 148.363 -119.358 157.72C-79.3947 168.884 -37.7584 180.517 17.0648 216.209C100.93 270.81 145.701 344.055 160.557 380.368Z" fill="url(#paint29_linear_1199_20431)"/>
</g>
</g>
</g>
<defs>
<radialGradient id="paint0_radial_1199_20431" cx="0" cy="0" r="1" gradientUnits="userSpaceOnUse" gradientTransform="translate(720.079 226.951) rotate(69.0044) scale(183.011 929.114)">
<stop stop-color="#A8ABFE"/>
<stop offset="0.334045" stop-color="#8994FE"/>
<stop offset="1" stop-color="#C68DD1"/>
</radialGradient>
<linearGradient id="paint1_linear_1199_20431" x1="990.519" y1="159.424" x2="809.63" y2="197.682" gradientUnits="userSpaceOnUse">
<stop stop-color="#8893FF"/>
<stop offset="1" stop-color="#9B95FE" stop-opacity="0"/>
</linearGradient>
<linearGradient id="paint2_linear_1199_20431" x1="586.394" y1="465.603" x2="496.049" y2="47.3306" gradientUnits="userSpaceOnUse">
<stop stop-color="#C78CCF"/>
<stop offset="0.39182" stop-color="#9B95FE" stop-opacity="0"/>
</linearGradient>
<linearGradient id="paint3_linear_1199_20431" x1="590.936" y1="-162.637" x2="1225.35" y2="175.496" gradientUnits="userSpaceOnUse">
<stop stop-color="#9F99FF"/>
<stop offset="1" stop-color="#6870FE"/>
</linearGradient>
<radialGradient id="paint4_radial_1199_20431" cx="0" cy="0" r="1" gradientUnits="userSpaceOnUse" gradientTransform="translate(369.797 -145.855) rotate(-69.1738) scale(200.554 779.798)">
<stop offset="0.0520833" stop-color="#CF94D4"/>
<stop offset="1" stop-color="#9B95FE" stop-opacity="0"/>
</radialGradient>
<radialGradient id="paint5_radial_1199_20431" cx="0" cy="0" r="1" gradientUnits="userSpaceOnUse" gradientTransform="translate(521.137 -77.5569) rotate(-78.4018) scale(56.5601 312.327)">
<stop offset="0.0520833" stop-color="#CF94D4"/>
<stop offset="1" stop-color="#AE98F3" stop-opacity="0"/>
</radialGradient>
<radialGradient id="paint6_radial_1199_20431" cx="0" cy="0" r="1" gradientUnits="userSpaceOnUse" gradientTransform="translate(916.841 108.732) rotate(-62.4566) scale(85.3033 224.319)">
<stop stop-color="#8893FF"/>
<stop offset="1" stop-color="#7081FF" stop-opacity="0"/>
</radialGradient>
<radialGradient id="paint7_radial_1199_20431" cx="0" cy="0" r="1" gradientUnits="userSpaceOnUse" gradientTransform="translate(746.88 -107.6) rotate(-65.244) scale(59.6373 237.018)">
<stop stop-color="#9AA7FE"/>
<stop offset="1" stop-color="#7081FF" stop-opacity="0"/>
</radialGradient>
<radialGradient id="paint8_radial_1199_20431" cx="0" cy="0" r="1" gradientUnits="userSpaceOnUse" gradientTransform="translate(1112.46 189.541) rotate(-54.2388) scale(52.427 295.105)">
<stop stop-color="#9AA7FE"/>
<stop offset="1" stop-color="#7081FF" stop-opacity="0"/>
</radialGradient>
<radialGradient id="paint9_radial_1199_20431" cx="0" cy="0" r="1" gradientUnits="userSpaceOnUse" gradientTransform="translate(920.847 8.53303) rotate(117.353) scale(92.3948 520.678)">
<stop offset="0.0644872" stop-color="#AAB5FF"/>
<stop offset="0.796688" stop-color="#90A0FF" stop-opacity="0"/>
</radialGradient>
<linearGradient id="paint10_linear_1199_20431" x1="879.063" y1="333.508" x2="461.079" y2="-50.8317" gradientUnits="userSpaceOnUse">
<stop stop-color="#9F99FF"/>
<stop offset="1" stop-color="#6870FE"/>
</linearGradient>
<radialGradient id="paint11_radial_1199_20431" cx="0" cy="0" r="1" gradientUnits="userSpaceOnUse" gradientTransform="translate(1034.48 383.008) rotate(124.921) scale(149.241 605.141)">
<stop offset="0.0520833" stop-color="#CF94D4"/>
<stop offset="1" stop-color="#9B95FE" stop-opacity="0"/>
</radialGradient>
<radialGradient id="paint12_radial_1199_20431" cx="0" cy="0" r="1" gradientUnits="userSpaceOnUse" gradientTransform="translate(943.598 288.506) rotate(115.524) scale(43.1076 236.645)">
<stop offset="0.0520833" stop-color="#CF94D4"/>
<stop offset="1" stop-color="#AE98F3" stop-opacity="0"/>
</radialGradient>
<radialGradient id="paint13_radial_1199_20431" cx="0" cy="0" r="1" gradientUnits="userSpaceOnUse" gradientTransform="translate(707.473 35.5568) rotate(132.045) scale(62.4407 176.968)">
<stop stop-color="#8893FF"/>
<stop offset="1" stop-color="#7081FF" stop-opacity="0"/>
</radialGradient>
<radialGradient id="paint14_radial_1199_20431" cx="0" cy="0" r="1" gradientUnits="userSpaceOnUse" gradientTransform="translate(782.442 247.788) rotate(129.06) scale(43.9452 185.746)">
<stop stop-color="#9AA7FE"/>
<stop offset="1" stop-color="#7081FF" stop-opacity="0"/>
</radialGradient>
<radialGradient id="paint15_radial_1199_20431" cx="0" cy="0" r="1" gradientUnits="userSpaceOnUse" gradientTransform="translate(588.557 -80.9142) rotate(141.063) scale(37.715 236.892)">
<stop stop-color="#9AA7FE"/>
<stop offset="1" stop-color="#7081FF" stop-opacity="0"/>
</radialGradient>
<radialGradient id="paint16_radial_1199_20431" cx="0" cy="0" r="1" gradientUnits="userSpaceOnUse" gradientTransform="translate(685.275 110.569) rotate(-48.1607) scale(67.6617 410.587)">
<stop offset="0.0644872" stop-color="#AAB5FF"/>
<stop offset="0.796688" stop-color="#90A0FF" stop-opacity="0"/>
</radialGradient>
<radialGradient id="paint17_radial_1199_20431" cx="0" cy="0" r="1" gradientUnits="userSpaceOnUse" gradientTransform="translate(796.688 147.128) rotate(-53.4773) scale(107.939 567.115)">
<stop stop-color="#A8ABFE"/>
<stop offset="0.334045" stop-color="#8994FE"/>
<stop offset="1" stop-color="#C68DD1"/>
</radialGradient>
<linearGradient id="paint18_linear_1199_20431" x1="722.63" y1="-36.6371" x2="806.626" y2="52.5056" gradientUnits="userSpaceOnUse">
<stop stop-color="#8893FF"/>
<stop offset="1" stop-color="#9B95FE" stop-opacity="0"/>
</linearGradient>
<linearGradient id="paint19_linear_1199_20431" x1="923.411" y1="191.717" x2="722.581" y2="267.434" gradientUnits="userSpaceOnUse">
<stop stop-color="#C78CCF"/>
<stop offset="0.39182" stop-color="#9B95FE" stop-opacity="0"/>
</linearGradient>
<linearGradient id="paint20_linear_1199_20431" x1="158.431" y1="-159.522" x2="-248.15" y2="349.406" gradientUnits="userSpaceOnUse">
<stop stop-color="#9F99FF"/>
<stop offset="1" stop-color="#6870FE"/>
</linearGradient>
<radialGradient id="paint21_radial_1199_20431" cx="0" cy="0" r="1" gradientUnits="userSpaceOnUse" gradientTransform="translate(156.672 -378.099) rotate(30.0084) scale(152.727 731.911)">
<stop offset="0.0520833" stop-color="#CF94D4"/>
<stop offset="1" stop-color="#9B95FE" stop-opacity="0"/>
</radialGradient>
<radialGradient id="paint22_radial_1199_20431" cx="0" cy="0" r="1" gradientUnits="userSpaceOnUse" gradientTransform="translate(100.161 -231.1) rotate(18.2086) scale(41.6309 303.293)">
<stop offset="0.0520833" stop-color="#CF94D4"/>
<stop offset="1" stop-color="#AE98F3" stop-opacity="0"/>
</radialGradient>
<radialGradient id="paint23_radial_1199_20431" cx="0" cy="0" r="1" gradientUnits="userSpaceOnUse" gradientTransform="translate(-53.1766 153.002) rotate(38.03) scale(67.1109 203.797)">
<stop stop-color="#8893FF"/>
<stop offset="1" stop-color="#7081FF" stop-opacity="0"/>
</radialGradient>
<radialGradient id="paint24_radial_1199_20431" cx="0" cy="0" r="1" gradientUnits="userSpaceOnUse" gradientTransform="translate(111.296 -7.55427) rotate(34.7649) scale(46.2623 218.389)">
<stop stop-color="#9AA7FE"/>
<stop offset="1" stop-color="#7081FF" stop-opacity="0"/>
</radialGradient>
<radialGradient id="paint25_radial_1199_20431" cx="0" cy="0" r="1" gradientUnits="userSpaceOnUse" gradientTransform="translate(-120.817 343.247) rotate(47.1165) scale(43.11 256.516)">
<stop stop-color="#9AA7FE"/>
<stop offset="1" stop-color="#7081FF" stop-opacity="0"/>
</radialGradient>
<radialGradient id="paint26_radial_1199_20431" cx="0" cy="0" r="1" gradientUnits="userSpaceOnUse" gradientTransform="translate(19.1191 160.201) rotate(-142.191) scale(72.6184 473.509)">
<stop offset="0.0644872" stop-color="#AAB7FF"/>
<stop offset="0.796688" stop-color="#90A0FF" stop-opacity="0"/>
</radialGradient>
<radialGradient id="paint27_radial_1199_20431" cx="0" cy="0" r="1" gradientUnits="userSpaceOnUse" gradientTransform="translate(29.9885 216.058) rotate(118.291) scale(123.682 654.369)">
<stop stop-color="#A8ABFE"/>
<stop offset="0.334045" stop-color="#8994FE"/>
<stop offset="1" stop-color="#57415B"/>
</radialGradient>
<linearGradient id="paint28_linear_1199_20431" x1="161.457" y1="382.952" x2="53.7666" y2="298.109" gradientUnits="userSpaceOnUse">
<stop stop-color="#313EB4"/>
<stop offset="1" stop-color="#5C5A8B" stop-opacity="0"/>
</linearGradient>
<linearGradient id="paint29_linear_1199_20431" x1="-134.212" y1="208.594" x2="78.3829" y2="49.9045" gradientUnits="userSpaceOnUse">
<stop stop-color="#646464"/>
<stop offset="0.39182" stop-color="#9B95FE" stop-opacity="0"/>
</linearGradient>
<clipPath id="clip0_1199_20431">
<rect width="840" height="278" fill="white"/>
</clipPath>
</defs>
</svg>
