<svg width="34" height="32" viewBox="0 0 34 32" fill="none" xmlns="http://www.w3.org/2000/svg">
<path d="M33.25 6.58073V6.47409L33.2432 6.46762C33.1848 5.89691 32.6844 5.46546 32.0963 5.46546H11.9466V4.52209C11.9466 3.47971 11.5014 2.5346 10.7892 1.85274C10.0782 1.172 9.09616 0.75 8.01789 0.75H1.9027C1.27701 0.75 0.75 1.23754 0.75 1.86327C0.75 2.48863 1.27663 2.97754 1.9027 2.97754H8.01789C8.46671 2.97754 8.87334 3.15344 9.16876 3.43628C9.46404 3.71899 9.6433 4.10339 9.6433 4.52309V6.58073V11.3702V16.7059C9.6433 18.1786 10.2736 19.5147 11.2812 20.4805C12.289 21.4464 13.6795 22.0445 15.2082 22.0445H27.6851C29.2129 22.0445 30.6033 21.4453 31.6119 20.4807C32.6209 19.5157 33.25 18.1794 33.25 16.7059V6.58073ZM30.8221 29.7194L30.8222 29.7193C31.5336 29.0372 31.9764 28.0931 31.9764 27.0481C31.9764 26.0032 31.5336 25.058 30.8221 24.3767C30.1107 23.6957 29.1286 23.276 28.0477 23.276C26.9667 23.276 25.9846 23.6957 25.2732 24.3767C24.5617 25.058 24.1189 26.0032 24.1189 27.0481C24.1189 28.0929 24.5617 29.0382 25.2732 29.7194C25.9846 30.4005 26.9667 30.8202 28.0477 30.8202C29.1286 30.8202 30.1107 30.4005 30.8221 29.7194ZM26.8944 25.9605L26.8947 25.9603C27.1886 25.6789 27.5951 25.5035 28.0477 25.5035C28.4989 25.5035 28.9066 25.6797 29.2007 25.9604C29.4934 26.2416 29.672 26.6258 29.672 27.0491C29.672 27.4723 29.4934 27.8565 29.2007 28.1378C28.9068 28.4183 28.4993 28.5936 28.0477 28.5936C27.5948 28.5936 27.1874 28.4181 26.8947 28.1379C26.601 27.8567 26.4223 27.4725 26.4223 27.0491C26.4223 26.6255 26.6012 26.2405 26.8944 25.9605ZM17.6222 24.3767L17.622 24.3766C16.9098 23.6957 15.9288 23.276 14.8477 23.276C13.7668 23.276 12.7846 23.6957 12.0733 24.3767C11.3617 25.058 10.919 26.0032 10.919 27.0481C10.919 28.0929 11.3617 29.0382 12.0733 29.7194C12.7846 30.4005 13.7668 30.8202 14.8477 30.8202C15.9287 30.8202 16.9108 30.4005 17.6222 29.7194L17.6223 29.7193C18.3336 29.0372 18.7764 28.0931 18.7764 27.0481C18.7764 26.0032 18.3337 25.058 17.6222 24.3767ZM13.6945 25.9605L13.6948 25.9603C13.9887 25.6789 14.3951 25.5035 14.8477 25.5035C15.2992 25.5035 15.7066 25.6788 16.0004 25.96C16.2933 26.2413 16.4721 26.6257 16.4721 27.0491C16.4721 27.4724 16.2934 27.8567 16.0007 28.1379C15.7067 28.4183 15.2992 28.5936 14.8477 28.5936C14.3949 28.5936 13.9874 28.4181 13.6948 28.1379C13.4011 27.8567 13.2223 27.4725 13.2223 27.0491C13.2223 26.6255 13.4012 26.2405 13.6945 25.9605ZM12.9039 18.898L12.9037 18.8979C12.312 18.3323 11.9487 17.5559 11.9487 16.7059V11.3702V7.695H30.9467V16.4559H30.9456V16.7059C30.9456 17.5559 30.5823 18.3324 29.9915 18.898L29.9914 18.8982C29.4005 19.4648 28.5844 19.8169 27.6862 19.8169H15.2092C14.3111 19.8169 13.4949 19.4639 12.9039 18.898ZM19.1544 9.7648C18.5295 9.7648 18.0027 10.2525 18.0027 10.8781V16.6329C18.0027 17.257 18.5281 17.7461 19.1544 17.7461C19.7801 17.7461 20.3071 17.2586 20.3071 16.6329V10.8781C20.3071 10.2535 19.7803 9.7648 19.1544 9.7648ZM24.2718 9.7648C23.6461 9.7648 23.1191 10.2523 23.1191 10.8781V16.6329C23.1191 17.2574 23.6459 17.7461 24.2718 17.7461C24.8966 17.7461 25.4234 17.2584 25.4234 16.6329V10.8781C25.4234 10.2539 24.898 9.7648 24.2718 9.7648Z" fill="#6EC125" stroke="#6EC125" stroke-width="0.5"/>
</svg>
