<svg width="32" height="22" viewBox="0 0 32 22" fill="none" xmlns="http://www.w3.org/2000/svg">
<path opacity="0.3" fill-rule="evenodd" clip-rule="evenodd" d="M18 0.4H14C12.5641 0.4 11.4 1.56406 11.4 3V21.6H20.6V3C20.6 1.56406 19.4359 0.4 18 0.4ZM14 0C12.3431 0 11 1.34315 11 3V21.6V22H11.4H20.6H21V21.6V3C21 1.34315 19.6569 0 18 0H14ZM22 13C22 11.3431 23.3431 10 25 10H29C30.6569 10 32 11.3431 32 13V22H22V13ZM3 8C1.34315 8 0 9.34315 0 11V22H10V11C10 9.34315 8.65685 8 7 8H3Z" fill="#148412"/>
</svg>
