<svg width="373" height="203" viewBox="0 0 373 203" fill="none" xmlns="http://www.w3.org/2000/svg">
<path d="M285 193.78C285 198.25 281.453 201.904 277.118 201.904H7.88007C3.54625 201.904 0 198.25 0 193.78V8.12404C0 3.65512 3.54625 0 7.88007 0H277.118C281.453 0 285 3.65512 285 8.12404V193.78Z" fill="#F2F2F2"/>
<path d="M277.118 0H7.88007C3.54625 0 0 3.65512 0 8.12404V21.2949H285V8.12404C285 3.65605 281.453 0 277.118 0Z" fill="#C6CFD5"/>
<path d="M17 11.4996C17 13.9852 14.9861 16 12.4996 16C10.0148 16 8 13.9852 8 11.4996C8 9.01481 10.0148 7 12.4996 7C14.9852 7 17 9.01481 17 11.4996Z" fill="#F45F31"/>
<path d="M35 11.4996C35 13.9852 32.9868 16 30.5009 16C28.015 16 26 13.9852 26 11.4996C26 9.01481 28.015 7 30.5009 7C32.9859 7 35 9.01481 35 11.4996Z" fill="#F2B233"/>
<path d="M52 11.4996C52 13.9852 49.9859 16 47.5 16C45.015 16 43 13.9852 43 11.4996C43 9.01481 45.015 7 47.5 7C49.9859 7 52 9.01481 52 11.4996Z" fill="#15B56C"/>
<path d="M266.885 33.7344H18.1211V94.6325H266.885V33.7344Z" fill="white"/>
<path d="M96.7328 107.227H18.1211V132.953H96.7328V107.227Z" fill="white"/>
<path d="M96.7328 139.344H18.1211V146.566H96.7328V139.344Z" fill="white"/>
<path d="M96.7328 152H18.1211V159.221H96.7328V152Z" fill="white"/>
<path d="M96.7328 164.625H18.1211V171.846H96.7328V164.625Z" fill="white"/>
<path d="M96.7328 177.266H18.1211V184.487H96.7328V177.266Z" fill="white"/>
<path d="M181.821 107.227H103.207V132.953H181.821V107.227Z" fill="white"/>
<path d="M181.821 139.344H103.207V146.566H181.821V139.344Z" fill="white"/>
<path d="M181.821 152H103.207V159.221H181.821V152Z" fill="white"/>
<path d="M181.821 164.625H103.207V171.846H181.821V164.625Z" fill="white"/>
<path d="M181.821 177.266H103.207V184.487H181.821V177.266Z" fill="white"/>
<path d="M266.887 107.227H188.273V184.478H266.887V107.227Z" fill="white"/>
<path d="M188.273 171.84L212.847 132.954L227.581 162.21L252.54 116.773L266.888 143.855V184.478H188.273V171.84Z" fill="#C6CFD5"/>
<path d="M238.532 122.634C238.532 127.868 234.416 132.113 229.339 132.113C224.261 132.113 220.145 127.868 220.145 122.634C220.145 117.4 224.261 113.156 229.339 113.156C234.417 113.156 238.532 117.4 238.532 122.634Z" fill="#C6CFD5"/>
<path d="M130.844 85.7515C130.844 87.5134 129.458 88.9405 127.75 88.9405C126.041 88.9405 124.656 87.5134 124.656 85.7515C124.656 83.9897 126.041 82.5625 127.75 82.5625C129.458 82.5625 130.844 83.9897 130.844 85.7515Z" fill="white"/>
<path d="M145.641 85.7515C145.641 87.5134 144.256 88.9405 142.547 88.9405C140.838 88.9405 139.453 87.5134 139.453 85.7515C139.453 83.9897 140.838 82.5625 142.547 82.5625C144.256 82.5625 145.641 83.9897 145.641 85.7515Z" fill="white"/>
<path d="M160.442 85.7515C160.442 87.5134 159.057 88.9405 157.347 88.9405C155.64 88.9405 154.254 87.5134 154.254 85.7515C154.254 83.9897 155.64 82.5625 157.347 82.5625C159.057 82.5625 160.442 83.9897 160.442 85.7515Z" fill="white"/>
<path d="M37.2438 64.0784C37.2438 67.2031 34.7871 69.7349 31.7562 69.7349C28.7253 69.7349 26.2695 67.2031 26.2695 64.0784C26.2695 60.9537 28.7262 58.4219 31.7562 58.4219C34.788 58.4219 37.2438 60.9537 37.2438 64.0784Z" fill="white"/>
<path d="M29.9525 64.0883C31.0882 63.1291 32.223 62.1699 33.3587 61.2107C33.7656 60.8676 33.185 60.2776 32.7827 60.6178C31.5376 61.6693 30.2907 62.7227 29.0438 63.7751C28.9326 63.8702 28.9001 63.9821 28.9127 64.0883C28.9001 64.1955 28.9326 64.3074 29.0438 64.4016C30.2898 65.454 31.5367 66.5064 32.7827 67.5598C33.185 67.9001 33.7646 67.31 33.3587 66.966C32.2221 66.0059 31.0873 65.0476 29.9525 64.0883Z" fill="#C6CFD5"/>
<path d="M247.871 64.0784C247.871 67.2031 250.33 69.7349 253.36 69.7349C256.389 69.7349 258.846 67.2031 258.846 64.0784C258.846 60.9537 256.388 58.4219 253.36 58.4219C250.329 58.4219 247.871 60.9537 247.871 64.0784Z" fill="white"/>
<path d="M255.147 64.0883C254.012 63.1291 252.876 62.1699 251.74 61.2107C251.333 60.8676 251.912 60.2776 252.317 60.6178C253.561 61.6693 254.808 62.7227 256.053 63.7751C256.165 63.8702 256.199 63.9821 256.185 64.0883C256.2 64.1955 256.165 64.3074 256.053 64.4016C254.808 65.454 253.561 66.5064 252.317 67.5598C251.913 67.9001 251.333 67.31 251.74 66.966C252.877 66.0059 254.012 65.0476 255.147 64.0883Z" fill="#C6CFD5"/>
<g filter="url(#filter0_d_4001_2036)">
<g clip-path="url(#clip0_4001_2036)">
<path d="M368.368 31.625H202.629V167.738H368.368V31.625Z" fill="white"/>
<path d="M368.995 168.37H202V31H368.995V168.37ZM203.256 167.113H367.739V32.257H203.256V167.113Z" fill="white"/>
<path d="M368.368 31.625H202.629V43.614H368.368V31.625Z" fill="#C6CFD5"/>
<path d="M368.995 44.245H202V31H368.995V44.245ZM203.256 42.989H367.739V32.257H203.256V42.989Z" fill="#C6CFD5" fill-opacity="0.733333"/>
<path d="M221.898 67.4609H215.488V69.8019H221.898V67.4609Z" fill="#EBEBEB"/>
<path d="M300.095 67.4609H226.57V69.8019H300.095V67.4609Z" fill="#EBEBEB"/>
<path d="M316.21 67.4609H304.035V69.8019H316.21V67.4609Z" fill="#C6CFD5"/>
<path d="M344.054 98.7969H331.879V101.138H344.054V98.7969Z" fill="#EBEBEB"/>
<path d="M339.902 67.4609H318.855V69.8019H339.902V67.4609Z" fill="#A6A6A6"/>
<path d="M228.308 73.7344H221.898V76.0754H228.308V73.7344Z" fill="#EBEBEB"/>
<path d="M281.068 73.7344H232.816V76.0754H281.068V73.7344Z" fill="#A6A6A6"/>
<path d="M328.99 98.7969H300.738V101.138H328.99V98.7969Z" fill="#A6A6A6"/>
<path d="M272.658 92.5312H226.57V94.8723H272.658V92.5312Z" fill="#A6A6A6"/>
<path d="M265.148 80H232.816V82.341H265.148V80Z" fill="#C6CFD5"/>
<path d="M324.508 86.2656H312.176V88.6066H324.508V86.2656Z" fill="#A6A6A6"/>
<path d="M320.37 80H268.738V82.341H320.37V80Z" fill="#A6A6A6"/>
<path d="M288.202 98.7969H226.57V101.138H288.202V98.7969Z" fill="#C6CFD5"/>
<path d="M350.897 73.7344H317.496V76.0754H350.897V73.7344Z" fill="#C6CFD5"/>
<path d="M314.849 73.7344H284.098V76.0754H314.849V73.7344Z" fill="#EBEBEB"/>
<path d="M343.548 80H322.797V82.341H343.548V80Z" fill="#EBEBEB"/>
<path d="M228.308 80H221.898V82.341H228.308V80Z" fill="#EBEBEB"/>
<path d="M221.898 86.2656H215.488V88.6066H221.898V86.2656Z" fill="#A6A6A6"/>
<path d="M264.452 86.2656H226.57V88.6066H264.452V86.2656Z" fill="#EBEBEB"/>
<path d="M270.698 105.062H232.816V107.403H270.698V105.062Z" fill="#EBEBEB"/>
<path d="M332.252 111.328H303.453V113.669H332.252V111.328Z" fill="#C6CFD5"/>
<path d="M311.761 105.062H273.773V107.403H311.761V105.062Z" fill="#C6CFD5"/>
<path d="M300.141 111.328H267.074V113.669H300.141V111.328Z" fill="#EBEBEB"/>
<path d="M243.784 111.328H232.816V113.669H243.784V111.328Z" fill="#A6A6A6"/>
<path d="M316.209 92.5312H275.266V94.8723H316.209V92.5312Z" fill="#EBEBEB"/>
<path d="M344.906 92.5312H318.855V94.8723H344.906V92.5312Z" fill="#C6CFD5"/>
<path d="M309.194 86.2656H268.301V88.6066H309.194V86.2656Z" fill="#C6CFD5"/>
<path d="M221.898 92.5312H215.488V94.8723H221.898V92.5312Z" fill="#EBEBEB"/>
<path d="M221.898 98.7969H215.488V101.138H221.898V98.7969Z" fill="#EBEBEB"/>
<path d="M228.308 105.062H221.898V107.403H228.308V105.062Z" fill="#A6A6A6"/>
<path d="M228.308 111.328H221.898V113.669H228.308V111.328Z" fill="#EBEBEB"/>
<path d="M221.898 116.578H215.488V118.919H221.898V116.578Z" fill="#EBEBEB"/>
<path d="M300.095 116.578H226.57V118.919H300.095V116.578Z" fill="#EBEBEB"/>
<path d="M228.308 122.844H221.898V125.185H228.308V122.844Z" fill="#EBEBEB"/>
<path d="M281.068 122.844H232.816V125.185H281.068V122.844Z" fill="#A6A6A6"/>
<path d="M272.658 141.641H226.57V143.982H272.658V141.641Z" fill="#A6A6A6"/>
<path d="M265.148 129.109H232.816V131.45H265.148V129.109Z" fill="#C6CFD5"/>
<path d="M320.37 129.109H268.738V131.45H320.37V129.109Z" fill="#A6A6A6"/>
<path d="M288.202 147.906H226.57V150.247H288.202V147.906Z" fill="#C6CFD5"/>
<path d="M350.897 122.844H317.496V125.185H350.897V122.844Z" fill="#C6CFD5"/>
<path d="M314.849 122.844H284.098V125.185H314.849V122.844Z" fill="#EBEBEB"/>
<path d="M343.548 129.109H322.797V131.45H343.548V129.109Z" fill="#EBEBEB"/>
<path d="M228.308 129.109H221.898V131.45H228.308V129.109Z" fill="#EBEBEB"/>
<path d="M221.898 135.375H215.488V137.716H221.898V135.375Z" fill="#A6A6A6"/>
<path d="M264.452 135.375H226.57V137.716H264.452V135.375Z" fill="#EBEBEB"/>
<path d="M316.209 141.641H275.266V143.982H316.209V141.641Z" fill="#EBEBEB"/>
<path d="M309.194 135.375H268.301V137.716H309.194V135.375Z" fill="#C6CFD5"/>
<path d="M221.898 141.641H215.488V143.982H221.898V141.641Z" fill="#EBEBEB"/>
<path d="M219.447 61.2956C219.668 61.5246 219.668 61.8676 219.447 62.0876C219.333 62.1926 219.202 62.2456 219.061 62.2456C218.911 62.2456 218.77 62.1926 218.656 62.0876L216.184 59.5806C216.157 59.5716 216.148 59.5546 216.14 59.5276C216.131 59.5186 216.113 59.5096 216.113 59.5096C216.096 59.4836 216.096 59.4656 216.087 59.4396C216.069 59.4306 216.06 59.4136 216.06 59.4046C216.051 59.3866 216.051 59.3606 216.043 59.3516C216.043 59.3256 216.024 59.3166 216.024 59.3076C216.024 59.2816 216.024 59.2636 216.024 59.2466C216.024 59.2286 216.016 59.2206 216.016 59.1936C216.016 59.1846 216.024 59.1576 216.024 59.1496C216.024 59.1316 216.024 59.1056 216.024 59.0886C216.024 59.0706 216.043 59.0626 216.043 59.0526C216.051 59.0266 216.051 59.0086 216.06 58.9816C216.06 58.9726 216.069 58.9726 216.069 58.9646C216.087 58.9386 216.096 58.9026 216.113 58.8856C216.113 58.8856 216.113 58.8676 216.131 58.8676C216.14 58.8496 216.157 58.8236 216.184 58.8066L218.656 56.2996C218.876 56.0876 219.236 56.0876 219.447 56.2996C219.668 56.5196 219.668 56.8716 219.447 57.0916L217.363 59.1946L219.447 61.2956Z" fill="#A6A6A6"/>
<path d="M221.688 61.5807L223.844 56.4507C223.949 56.2047 224.23 56.0897 224.486 56.1957C224.724 56.2917 224.838 56.5827 224.733 56.8197L222.578 61.9577C222.498 62.1427 222.314 62.2477 222.129 62.2477C222.076 62.2477 222.006 62.2387 221.954 62.2127C221.696 62.1177 221.582 61.8277 221.688 61.5807Z" fill="#A6A6A6"/>
<path d="M228.989 59.5116C228.989 59.5116 228.989 59.5206 228.98 59.5206C228.962 59.5386 228.944 59.5646 228.917 59.5826L226.445 62.0896C226.34 62.1946 226.19 62.2476 226.049 62.2476C225.899 62.2476 225.768 62.1946 225.654 62.0896C225.433 61.8696 225.433 61.5266 225.654 61.2976L227.738 59.1946L225.654 57.0916C225.433 56.8716 225.433 56.5196 225.654 56.2996C225.865 56.0876 226.226 56.0876 226.445 56.2996L228.917 58.8066C228.944 58.8236 228.961 58.8506 228.98 58.8676C228.989 58.8676 228.989 58.8856 228.989 58.8856C229.006 58.9206 229.023 58.9386 229.033 58.9646C229.033 58.9736 229.041 58.9736 229.041 58.9816C229.05 59.0086 229.05 59.0256 229.067 59.0616C229.067 59.0696 229.075 59.0696 229.075 59.0876C229.075 59.1046 229.075 59.1306 229.075 59.1486C229.075 59.1566 229.085 59.1836 229.085 59.1926C229.085 59.2016 229.075 59.2276 229.075 59.2366C229.075 59.2626 229.075 59.2806 229.075 59.3076C229.075 59.3166 229.067 59.3166 229.067 59.3256C229.05 59.3606 229.05 59.3866 229.041 59.4046C229.041 59.4136 229.033 59.4136 229.033 59.4306C229.023 59.4506 229.006 59.4776 228.989 59.5116Z" fill="#A6A6A6"/>
<path d="M237.16 62V57.128H235.176V56.36H240.024V57.128H238.04V62H237.16ZM240.298 62V58.032H241.082V58.976H241.09C241.186 58.6773 241.349 58.4427 241.578 58.272C241.813 58.096 242.101 57.9973 242.442 57.976L242.842 57.944L242.922 58.744L242.282 58.8C241.93 58.8267 241.658 58.9413 241.466 59.144C241.274 59.3413 241.178 59.5893 241.178 59.888V62H240.298ZM245.104 62.072C244.816 62.072 244.557 62.0187 244.328 61.912C244.104 61.8053 243.925 61.6613 243.792 61.48C243.664 61.2933 243.6 61.0827 243.6 60.848C243.6 60.5547 243.685 60.32 243.856 60.144C244.027 59.9627 244.288 59.832 244.64 59.752C244.997 59.672 245.453 59.632 246.008 59.632H246.568V60.192H246.048C245.771 60.192 245.531 60.2027 245.328 60.224C245.131 60.24 244.968 60.272 244.84 60.32C244.712 60.3627 244.616 60.424 244.552 60.504C244.493 60.5787 244.464 60.6773 244.464 60.8C244.464 61.0027 244.539 61.1573 244.688 61.264C244.843 61.3707 245.043 61.424 245.288 61.424C245.501 61.424 245.693 61.376 245.864 61.28C246.04 61.1787 246.179 61.048 246.28 60.888C246.387 60.7227 246.44 60.5413 246.44 60.344V59.456C246.44 59.1627 246.355 58.9547 246.184 58.832C246.019 58.704 245.771 58.64 245.44 58.64C245.211 58.64 244.979 58.672 244.744 58.736C244.515 58.8 244.275 58.904 244.024 59.048L243.768 58.424C243.933 58.3227 244.112 58.2373 244.304 58.168C244.501 58.0987 244.707 58.0453 244.92 58.008C245.133 57.9707 245.344 57.952 245.552 57.952C245.909 57.952 246.219 58.008 246.48 58.12C246.741 58.232 246.941 58.4053 247.08 58.64C247.219 58.8693 247.288 59.1707 247.288 59.544V62H246.536V61.152H246.528C246.453 61.3227 246.349 61.48 246.216 61.624C246.088 61.7627 245.931 61.872 245.744 61.952C245.557 62.032 245.344 62.072 245.104 62.072ZM250.475 62.072C250.065 62.072 249.705 61.9893 249.395 61.824C249.091 61.6533 248.854 61.4133 248.683 61.104C248.513 60.7947 248.427 60.4293 248.427 60.008C248.427 59.5867 248.513 59.224 248.683 58.92C248.854 58.6107 249.091 58.3733 249.395 58.208C249.705 58.0373 250.067 57.952 250.483 57.952C250.761 57.952 251.025 57.9973 251.275 58.088C251.531 58.1787 251.739 58.2987 251.899 58.448L251.619 59.088C251.47 58.96 251.302 58.864 251.115 58.8C250.929 58.7307 250.747 58.696 250.571 58.696C250.177 58.696 249.867 58.8107 249.643 59.04C249.425 59.264 249.315 59.5893 249.315 60.016C249.315 60.4373 249.425 60.7627 249.643 60.992C249.867 61.2213 250.174 61.336 250.563 61.336C250.745 61.336 250.926 61.304 251.107 61.24C251.294 61.1707 251.459 61.0747 251.603 60.952L251.883 61.592C251.729 61.7413 251.526 61.8587 251.275 61.944C251.025 62.0293 250.758 62.072 250.475 62.072ZM252.793 62V56.36H253.665V59.776H253.705L255.353 58.032H256.409L254.385 60.128L254.401 59.784L256.585 62H255.513L253.705 60.208H253.665V62H252.793ZM257.175 57.152V56.232H258.207V57.152H257.175ZM257.263 62V58.032H258.135V62H257.263ZM259.521 62V58.032H260.329V58.864H260.337C260.465 58.576 260.655 58.352 260.905 58.192C261.161 58.032 261.449 57.952 261.769 57.952C262.095 57.952 262.367 58.0133 262.585 58.136C262.809 58.2533 262.975 58.4347 263.081 58.68C263.193 58.92 263.249 59.2267 263.249 59.6V62H262.369V59.64C262.369 59.4373 262.34 59.2667 262.281 59.128C262.228 58.984 262.14 58.8747 262.017 58.8C261.895 58.7253 261.732 58.688 261.529 58.688C261.311 58.688 261.116 58.7387 260.945 58.84C260.775 58.936 260.639 59.0693 260.537 59.24C260.441 59.4053 260.393 59.592 260.393 59.8V62H259.521ZM266.376 63.512C266.056 63.512 265.739 63.4667 265.424 63.376C265.109 63.2907 264.84 63.168 264.616 63.008L264.872 62.344C265.016 62.4347 265.171 62.5147 265.336 62.584C265.501 62.6533 265.669 62.704 265.84 62.736C266.016 62.7733 266.184 62.792 266.344 62.792C266.755 62.792 267.069 62.6933 267.288 62.496C267.512 62.304 267.624 62.024 267.624 61.656V61H267.608C267.507 61.256 267.333 61.4667 267.088 61.632C266.843 61.792 266.557 61.872 266.232 61.872C265.864 61.872 265.541 61.792 265.264 61.632C264.987 61.4667 264.771 61.2373 264.616 60.944C264.461 60.6507 264.384 60.3067 264.384 59.912C264.384 59.5227 264.461 59.1813 264.616 58.888C264.771 58.5893 264.987 58.36 265.264 58.2C265.541 58.0347 265.864 57.952 266.232 57.952C266.563 57.952 266.851 58.0347 267.096 58.2C267.341 58.3653 267.515 58.5867 267.616 58.864H267.624V58.032H268.448V61.584C268.448 61.984 268.365 62.328 268.2 62.616C268.035 62.904 267.797 63.1253 267.488 63.28C267.179 63.4347 266.808 63.512 266.376 63.512ZM266.424 61.176C266.781 61.176 267.064 61.0613 267.272 60.832C267.48 60.6027 267.584 60.296 267.584 59.912C267.584 59.5227 267.48 59.216 267.272 58.992C267.064 58.7627 266.781 58.648 266.424 58.648C266.067 58.648 265.781 58.7627 265.568 58.992C265.36 59.216 265.256 59.5227 265.256 59.912C265.256 60.296 265.36 60.6027 265.568 60.832C265.781 61.0613 266.067 61.176 266.424 61.176ZM272.277 62V56.36H274.701C275.106 56.36 275.453 56.4293 275.741 56.568C276.034 56.7013 276.256 56.8987 276.405 57.16C276.56 57.416 276.637 57.728 276.637 58.096C276.637 58.4533 276.56 58.7627 276.405 59.024C276.25 59.2853 276.029 59.488 275.741 59.632C275.453 59.776 275.106 59.848 274.701 59.848H273.157V62H272.277ZM273.157 59.112H274.565C274.954 59.112 275.25 59.0293 275.453 58.864C275.656 58.6933 275.757 58.4373 275.757 58.096C275.757 57.7547 275.656 57.504 275.453 57.344C275.256 57.1787 274.96 57.096 274.565 57.096H273.157V59.112ZM277.672 57.152V56.232H278.704V57.152H277.672ZM277.76 62V58.032H278.632V62H277.76ZM279.506 62L281.138 59.736L281.154 60.208L279.578 58.032H280.546L281.594 59.488H281.53L282.578 58.032H283.546L281.97 60.2L281.994 59.752L283.618 62H282.642L281.53 60.448H281.594L280.482 62H279.506ZM286.378 62.072C285.914 62.072 285.517 61.992 285.186 61.832C284.856 61.6667 284.602 61.4293 284.426 61.12C284.25 60.8107 284.162 60.4427 284.162 60.016C284.162 59.616 284.242 59.2613 284.402 58.952C284.568 58.6427 284.802 58.4 285.106 58.224C285.41 58.0427 285.768 57.952 286.178 57.952C286.568 57.952 286.901 58.0347 287.178 58.2C287.456 58.3653 287.669 58.6 287.818 58.904C287.968 59.208 288.042 59.5707 288.042 59.992V60.264H284.842V59.696H287.442L287.298 59.84C287.298 59.4347 287.202 59.128 287.01 58.92C286.818 58.7067 286.546 58.6 286.194 58.6C285.954 58.6 285.744 58.6533 285.562 58.76C285.386 58.8613 285.248 59.0107 285.146 59.208C285.045 59.4 284.994 59.6347 284.994 59.912V60C284.994 60.3093 285.048 60.5653 285.154 60.768C285.266 60.9707 285.426 61.1227 285.634 61.224C285.848 61.3253 286.104 61.376 286.402 61.376C286.621 61.376 286.84 61.3493 287.058 61.296C287.282 61.2373 287.49 61.1333 287.682 60.984L287.954 61.592C287.746 61.7573 287.501 61.88 287.218 61.96C286.936 62.0347 286.656 62.072 286.378 62.072ZM290.456 62.072C290.04 62.072 289.723 61.9573 289.504 61.728C289.286 61.4933 289.176 61.1627 289.176 60.736V56.36H290.048V60.656C290.048 60.8107 290.07 60.9413 290.112 61.048C290.16 61.1547 290.227 61.2347 290.312 61.288C290.398 61.3413 290.502 61.368 290.624 61.368C290.704 61.368 290.779 61.3653 290.848 61.36C290.918 61.3493 290.99 61.3333 291.064 61.312L291.096 61.976C290.995 62.0133 290.894 62.0373 290.792 62.048C290.696 62.064 290.584 62.072 290.456 62.072Z" fill="#A6A6A6"/>
</g>
</g>
<g filter="url(#filter1_d_4001_2036)">
<path d="M94.2451 71.5H269.755C273.479 71.5002 276.5 74.5216 276.5 78.25V183.75C276.5 187.478 273.48 190.5 269.755 190.5H94.2451C90.5209 190.5 87.5002 187.478 87.5 183.75V78.25L87.5088 77.9033C87.6835 74.4517 90.4492 71.6837 93.8984 71.5088L94.2451 71.5Z" fill="white" stroke="#F0F0F0"/>
<path d="M187.698 136.358H134.471C133.771 136.358 133.203 135.792 133.203 135.094V134.842C133.203 134.144 133.771 133.578 134.471 133.578H187.698C188.398 133.578 188.966 134.144 188.966 134.842V135.094C188.966 135.792 188.398 136.358 187.698 136.358Z" fill="#EBEBEB"/>
<path d="M162.658 146.553H134.139C133.622 146.553 133.203 146.136 133.203 145.62V144.706C133.203 144.191 133.622 143.773 134.139 143.773H162.658C163.175 143.773 163.594 144.191 163.594 144.706V145.62C163.593 146.136 163.175 146.553 162.658 146.553Z" fill="#EBEBEB"/>
<path d="M187.698 161.514H134.471C133.771 161.514 133.203 160.948 133.203 160.251V159.998C133.203 159.3 133.771 158.734 134.471 158.734H187.698C188.398 158.734 188.966 159.3 188.966 159.998V160.251C188.966 160.949 188.398 161.514 187.698 161.514Z" fill="#EBEBEB"/>
<path d="M162.658 171.71H134.139C133.622 171.71 133.203 171.292 133.203 170.777V169.863C133.203 169.348 133.622 168.93 134.139 168.93H162.658C163.175 168.93 163.594 169.348 163.594 169.863V170.777C163.593 171.292 163.175 171.71 162.658 171.71Z" fill="#EBEBEB"/>
<path d="M122.204 141.953C123.242 137.57 120.52 133.179 116.124 132.144C111.728 131.109 107.324 133.823 106.286 138.205C105.248 142.588 107.97 146.98 112.365 148.014C116.761 149.049 121.166 146.335 122.204 141.953Z" fill="#31C048"/>
<path d="M122.204 166.508C123.242 162.125 120.52 157.733 116.124 156.698C111.728 155.664 107.324 158.377 106.286 162.76C105.248 167.143 107.97 171.534 112.365 172.569C116.761 173.604 121.166 170.89 122.204 166.508Z" fill="#31C048"/>
<path d="M121.619 134.008C118.081 135.632 115.247 138.21 112.76 141.032C111.389 140.193 109.971 139.444 108.411 138.942L108.285 139.077C109.672 140.313 111.929 143.516 113.359 144.741C116.168 141.871 119.042 137.066 121.76 134.13L121.619 134.008Z" fill="white"/>
<path d="M121.619 157.594C118.081 159.218 115.247 161.796 112.76 164.618C111.389 163.779 109.971 163.03 108.411 162.528L108.285 162.663C109.672 163.899 111.929 167.102 113.359 168.327C116.168 165.457 119.042 160.652 121.76 157.716L121.619 157.594Z" fill="white"/>
<path d="M252.292 117.025H113.162C108.334 117.025 104.406 113.187 104.406 108.47C104.406 103.752 108.334 99.9141 113.162 99.9141H252.292C257.12 99.9141 261.047 103.752 261.047 108.47C261.047 113.187 257.12 117.025 252.292 117.025ZM113.162 100.633C108.74 100.633 105.142 104.149 105.142 108.47C105.142 112.791 108.74 116.306 113.162 116.306H252.292C256.714 116.306 260.311 112.791 260.311 108.47C260.311 104.149 256.714 100.633 252.292 100.633H113.162Z" fill="#76A6F5"/>
<path d="M107.129 108.458C107.129 105.198 109.834 102.555 113.17 102.555H191.815C195.152 102.555 197.857 105.198 197.857 108.458C197.857 111.718 195.152 114.361 191.815 114.361H113.17C109.834 114.361 107.129 111.718 107.129 108.458Z" fill="#76A6F5"/>
<path d="M107.497 94.5703V86.5363H104.247V85.4053H112.086V86.5363H108.836V94.5703H107.497ZM115.105 94.6873C114.411 94.6873 113.813 94.5573 113.311 94.2973C112.817 94.0286 112.431 93.6516 112.154 93.1663C111.885 92.6723 111.751 92.0873 111.751 91.4113C111.751 90.7526 111.885 90.1763 112.154 89.6823C112.422 89.1883 112.791 88.8026 113.259 88.5253C113.727 88.248 114.26 88.1093 114.858 88.1093C115.447 88.1093 115.95 88.2393 116.366 88.4993C116.79 88.7506 117.115 89.1103 117.341 89.5783C117.566 90.0463 117.679 90.6053 117.679 91.2553V91.6973H112.791V90.8913H116.795L116.574 91.0733C116.574 90.4233 116.431 89.9206 116.145 89.5653C115.859 89.21 115.447 89.0323 114.91 89.0323C114.502 89.0323 114.156 89.1276 113.87 89.3183C113.592 89.509 113.38 89.7733 113.233 90.1113C113.085 90.4493 113.012 90.8436 113.012 91.2943V91.3723C113.012 91.875 113.09 92.2996 113.246 92.6463C113.41 92.9843 113.649 93.24 113.961 93.4133C114.273 93.5866 114.658 93.6733 115.118 93.6733C115.482 93.6733 115.837 93.617 116.184 93.5043C116.539 93.383 116.873 93.1966 117.185 92.9453L117.575 93.8553C117.289 94.1153 116.92 94.319 116.47 94.4663C116.019 94.6136 115.564 94.6873 115.105 94.6873ZM121.398 94.6873C121.06 94.6873 120.731 94.657 120.41 94.5963C120.089 94.5356 119.795 94.449 119.526 94.3363C119.257 94.2236 119.019 94.085 118.811 93.9203L119.188 93.0363C119.405 93.1836 119.634 93.3136 119.877 93.4263C120.12 93.5303 120.371 93.6083 120.631 93.6603C120.9 93.7123 121.16 93.7383 121.411 93.7383C121.87 93.7383 122.217 93.656 122.451 93.4913C122.685 93.3266 122.802 93.1056 122.802 92.8283C122.802 92.603 122.724 92.4296 122.568 92.3083C122.412 92.1783 122.178 92.0786 121.866 92.0093L120.631 91.7623C120.094 91.6496 119.686 91.4503 119.409 91.1643C119.132 90.8783 118.993 90.5143 118.993 90.0723C118.993 89.6736 119.101 89.327 119.318 89.0323C119.535 88.7376 119.838 88.5123 120.228 88.3563C120.618 88.1916 121.069 88.1093 121.58 88.1093C121.875 88.1093 122.161 88.1396 122.438 88.2003C122.715 88.261 122.975 88.3476 123.218 88.4603C123.469 88.573 123.682 88.716 123.855 88.8893L123.478 89.7733C123.313 89.626 123.123 89.5003 122.906 89.3963C122.698 89.2923 122.481 89.2143 122.256 89.1623C122.031 89.1016 121.805 89.0713 121.58 89.0713C121.121 89.0713 120.774 89.158 120.54 89.3313C120.315 89.496 120.202 89.7213 120.202 90.0073C120.202 90.224 120.271 90.4016 120.41 90.5403C120.549 90.679 120.765 90.7786 121.06 90.8393L122.295 91.0863C122.858 91.199 123.283 91.3896 123.569 91.6583C123.864 91.927 124.011 92.291 124.011 92.7503C124.011 93.149 123.903 93.4956 123.686 93.7903C123.469 94.085 123.162 94.3103 122.763 94.4663C122.373 94.6136 121.918 94.6873 121.398 94.6873ZM128.177 94.6873C127.389 94.6873 126.795 94.4836 126.396 94.0763C126.006 93.669 125.811 93.0796 125.811 92.3083V89.2403H124.576V88.2263H125.811V86.3153H127.124V88.2263H129.087V89.2403H127.124V92.2043C127.124 92.6636 127.22 93.0103 127.41 93.2443C127.61 93.4783 127.93 93.5953 128.372 93.5953C128.502 93.5953 128.632 93.578 128.762 93.5433C128.901 93.5086 129.035 93.474 129.165 93.4393L129.373 94.4273C129.243 94.5053 129.061 94.566 128.827 94.6093C128.602 94.6613 128.385 94.6873 128.177 94.6873ZM130.17 86.7573V85.3923H131.704V86.7573H130.17ZM130.287 94.5703V88.2263H131.6V94.5703H130.287ZM133.513 94.5703V88.2263H134.787V89.5783H134.644C134.834 89.093 135.133 88.729 135.541 88.4863C135.948 88.235 136.416 88.1093 136.945 88.1093C137.447 88.1093 137.863 88.2046 138.193 88.3953C138.531 88.5773 138.782 88.859 138.947 89.2403C139.111 89.613 139.194 90.0853 139.194 90.6573V94.5703H137.881V90.7353C137.881 90.3713 137.833 90.0766 137.738 89.8513C137.642 89.6173 137.499 89.444 137.309 89.3313C137.118 89.2186 136.871 89.1623 136.568 89.1623C136.221 89.1623 135.913 89.236 135.645 89.3833C135.385 89.5306 135.181 89.743 135.034 90.0203C134.895 90.2976 134.826 90.6183 134.826 90.9823V94.5703H133.513ZM143.941 97.0273C143.369 97.0273 142.836 96.958 142.342 96.8193C141.848 96.6806 141.41 96.4726 141.029 96.1953L141.432 95.2593C141.683 95.424 141.939 95.5626 142.199 95.6753C142.468 95.7966 142.736 95.8833 143.005 95.9353C143.282 95.9873 143.564 96.0133 143.85 96.0133C144.457 96.0133 144.912 95.8573 145.215 95.5453C145.518 95.242 145.67 94.7913 145.67 94.1933V92.8673H145.787C145.657 93.344 145.384 93.721 144.968 93.9983C144.552 94.2756 144.071 94.4143 143.525 94.4143C142.953 94.4143 142.455 94.2843 142.03 94.0243C141.605 93.7556 141.276 93.3873 141.042 92.9193C140.808 92.4426 140.691 91.888 140.691 91.2553C140.691 90.6226 140.808 90.0723 141.042 89.6043C141.276 89.1363 141.605 88.7723 142.03 88.5123C142.455 88.2436 142.953 88.1093 143.525 88.1093C144.08 88.1093 144.561 88.248 144.968 88.5253C145.384 88.8026 145.653 89.1796 145.774 89.6563H145.67V88.2263H146.944V94.0373C146.944 94.696 146.831 95.2463 146.606 95.6883C146.381 96.139 146.043 96.4726 145.592 96.6893C145.15 96.9146 144.6 97.0273 143.941 97.0273ZM143.837 93.3873C144.4 93.3873 144.842 93.1966 145.163 92.8153C145.492 92.434 145.657 91.914 145.657 91.2553C145.657 90.6053 145.492 90.0896 145.163 89.7083C144.842 89.327 144.4 89.1363 143.837 89.1363C143.282 89.1363 142.84 89.327 142.511 89.7083C142.182 90.0896 142.017 90.6053 142.017 91.2553C142.017 91.914 142.182 92.434 142.511 92.8153C142.84 93.1966 143.282 93.3873 143.837 93.3873ZM148.696 94.5703V93.0233H150.243V94.5703H148.696ZM151.846 94.5703V93.0233H153.393V94.5703H151.846ZM154.996 94.5703V93.0233H156.543V94.5703H154.996Z" fill="#6E6E6E"/>
</g>
<defs>
<filter id="filter0_d_4001_2036" x="194" y="28" width="178.995" height="149.37" filterUnits="userSpaceOnUse" color-interpolation-filters="sRGB">
<feFlood flood-opacity="0" result="BackgroundImageFix"/>
<feColorMatrix in="SourceAlpha" type="matrix" values="0 0 0 0 0 0 0 0 0 0 0 0 0 0 0 0 0 0 127 0" result="hardAlpha"/>
<feOffset dx="-2" dy="3"/>
<feGaussianBlur stdDeviation="3"/>
<feComposite in2="hardAlpha" operator="out"/>
<feColorMatrix type="matrix" values="0 0 0 0 0 0 0 0 0 0 0 0 0 0 0 0 0 0 0.2 0"/>
<feBlend mode="normal" in2="BackgroundImageFix" result="effect1_dropShadow_4001_2036"/>
<feBlend mode="normal" in="SourceGraphic" in2="effect1_dropShadow_4001_2036" result="shape"/>
</filter>
<filter id="filter1_d_4001_2036" x="77" y="63" width="210" height="140" filterUnits="userSpaceOnUse" color-interpolation-filters="sRGB">
<feFlood flood-opacity="0" result="BackgroundImageFix"/>
<feColorMatrix in="SourceAlpha" type="matrix" values="0 0 0 0 0 0 0 0 0 0 0 0 0 0 0 0 0 0 127 0" result="hardAlpha"/>
<feOffset dy="2"/>
<feGaussianBlur stdDeviation="5"/>
<feComposite in2="hardAlpha" operator="out"/>
<feColorMatrix type="matrix" values="0 0 0 0 0 0 0 0 0 0 0 0 0 0 0 0 0 0 0.08 0"/>
<feBlend mode="normal" in2="BackgroundImageFix" result="effect1_dropShadow_4001_2036"/>
<feBlend mode="normal" in="SourceGraphic" in2="effect1_dropShadow_4001_2036" result="shape"/>
</filter>
<clipPath id="clip0_4001_2036">
<rect x="202" y="31" width="166.995" height="137.37" rx="7" fill="white"/>
</clipPath>
</defs>
</svg>
