<svg width="24" height="24" viewBox="0 0 24 24" fill="none" xmlns="http://www.w3.org/2000/svg">
<path d="M17.2883 8.71041C17.1958 8.61771 17.0859 8.54416 16.9649 8.49398C16.8439 8.4438 16.7142 8.41797 16.5833 8.41797C16.4523 8.41797 16.3226 8.4438 16.2016 8.49398C16.0807 8.54416 15.9708 8.61771 15.8783 8.71041L11.9983 12.5904L8.11827 8.71041C8.02569 8.61783 7.91578 8.54439 7.79481 8.49429C7.67385 8.44418 7.5442 8.41839 7.41327 8.41839C7.28234 8.41839 7.15269 8.44418 7.03173 8.49429C6.91076 8.54439 6.80085 8.61783 6.70827 8.71041C6.61569 8.80299 6.54225 8.91291 6.49214 9.03387C6.44204 9.15483 6.41625 9.28448 6.41625 9.41541C6.41625 9.54634 6.44204 9.67599 6.49214 9.79696C6.54225 9.91792 6.61569 10.0278 6.70827 10.1204L11.2983 14.7104C11.3908 14.8031 11.5007 14.8767 11.6216 14.9268C11.7426 14.977 11.8723 15.0029 12.0033 15.0029C12.1342 15.0029 12.2639 14.977 12.3849 14.9268C12.5059 14.8767 12.6158 14.8031 12.7083 14.7104L17.2983 10.1204C17.6783 9.74041 17.6783 9.10041 17.2883 8.71041Z" fill="#4A4A4A"/>
</svg>
