<svg width="24" height="24" viewBox="0 0 24 24" fill="none" xmlns="http://www.w3.org/2000/svg">
<path d="M6.71002 14.71C6.80254 14.8027 6.91242 14.8762 7.0334 14.9264C7.15437 14.9766 7.28405 15.0024 7.41502 15.0024C7.54599 15.0024 7.67567 14.9766 7.79665 14.9264C7.91762 14.8762 8.02751 14.8027 8.12002 14.71L12 10.83L15.88 14.71C15.9726 14.8026 16.0825 14.876 16.2035 14.9261C16.3244 14.9762 16.4541 15.002 16.585 15.002C16.716 15.002 16.8456 14.9762 16.9666 14.9261C17.0875 14.876 17.1974 14.8026 17.29 14.71C17.3826 14.6174 17.456 14.5075 17.5061 14.3865C17.5563 14.2656 17.582 14.1359 17.582 14.005C17.582 13.8741 17.5563 13.7444 17.5061 13.6235C17.456 13.5025 17.3826 13.3926 17.29 13.3L12.7 8.71C12.6075 8.61729 12.4976 8.54375 12.3766 8.49356C12.2557 8.44338 12.126 8.41755 11.995 8.41755C11.8641 8.41755 11.7344 8.44338 11.6134 8.49356C11.4924 8.54375 11.3825 8.61729 11.29 8.71L6.70002 13.3C6.32002 13.68 6.32002 14.32 6.71002 14.71Z" fill="#4A4A4A"/>
</svg>
