<svg width="20" height="20" viewBox="0 0 20 20" fill="none" xmlns="http://www.w3.org/2000/svg">
<g id="vuesax/outline/close-circle">
<g id="close-circle">
<path id="Vector" d="M9.99984 18.9583C5.05817 18.9583 1.0415 14.9417 1.0415 9.99999C1.0415 5.05832 5.05817 1.04166 9.99984 1.04166C14.9415 1.04166 18.9582 5.05832 18.9582 9.99999C18.9582 14.9417 14.9415 18.9583 9.99984 18.9583ZM9.99984 2.29166C5.74984 2.29166 2.2915 5.74999 2.2915 9.99999C2.2915 14.25 5.74984 17.7083 9.99984 17.7083C14.2498 17.7083 17.7082 14.25 17.7082 9.99999C17.7082 5.74999 14.2498 2.29166 9.99984 2.29166Z" fill="#5052B2"/>
<path id="Vector_2" d="M7.64147 12.9834C7.48314 12.9834 7.3248 12.925 7.1998 12.8C6.95814 12.5584 6.95814 12.1584 7.1998 11.9167L11.9165 7.20002C12.1581 6.95835 12.5581 6.95835 12.7998 7.20002C13.0415 7.44168 13.0415 7.84168 12.7998 8.08335L8.08314 12.8C7.96647 12.925 7.7998 12.9834 7.64147 12.9834Z" fill="#5052B2"/>
<path id="Vector_3" d="M12.3581 12.9834C12.1998 12.9834 12.0415 12.925 11.9165 12.8L7.1998 8.08335C6.95814 7.84168 6.95814 7.44168 7.1998 7.20002C7.44147 6.95835 7.84147 6.95835 8.08314 7.20002L12.7998 11.9167C13.0415 12.1584 13.0415 12.5584 12.7998 12.8C12.6748 12.925 12.5165 12.9834 12.3581 12.9834Z" fill="#5052B2"/>
</g>
</g>
</svg>
