<svg width="14" height="15" viewBox="0 0 14 15" fill="none" xmlns="http://www.w3.org/2000/svg">
<g id="ic:round-clear">
<path id="Vector" d="M10.6751 3.83084C10.6212 3.77676 10.5571 3.73386 10.4865 3.70459C10.4159 3.67532 10.3403 3.66025 10.2639 3.66025C10.1875 3.66025 10.1118 3.67532 10.0413 3.70459C9.9707 3.73386 9.9066 3.77676 9.85263 3.83084L7.00013 6.67751L4.14763 3.82501C4.09362 3.771 4.02951 3.72816 3.95895 3.69893C3.88838 3.66971 3.81276 3.65466 3.73638 3.65466C3.66 3.65466 3.58438 3.66971 3.51381 3.69893C3.44325 3.72816 3.37914 3.771 3.32513 3.82501C3.27112 3.87901 3.22828 3.94313 3.19906 4.01369C3.16983 4.08425 3.15479 4.15988 3.15479 4.23626C3.15479 4.31263 3.16983 4.38826 3.19906 4.45883C3.22828 4.52939 3.27112 4.5935 3.32513 4.64751L6.17763 7.50001L3.32513 10.3525C3.27112 10.4065 3.22828 10.4706 3.19906 10.5412C3.16983 10.6118 3.15479 10.6874 3.15479 10.7638C3.15479 10.8401 3.16983 10.9158 3.19906 10.9863C3.22828 11.0569 3.27112 11.121 3.32513 11.175C3.37914 11.229 3.44325 11.2719 3.51381 11.3011C3.58438 11.3303 3.66 11.3454 3.73638 11.3454C3.81276 11.3454 3.88838 11.3303 3.95895 11.3011C4.02951 11.2719 4.09362 11.229 4.14763 11.175L7.00013 8.32251L9.85263 11.175C9.90664 11.229 9.97075 11.2719 10.0413 11.3011C10.1119 11.3303 10.1875 11.3454 10.2639 11.3454C10.3403 11.3454 10.4159 11.3303 10.4864 11.3011C10.557 11.2719 10.6211 11.229 10.6751 11.175C10.7291 11.121 10.772 11.0569 10.8012 10.9863C10.8304 10.9158 10.8455 10.8401 10.8455 10.7638C10.8455 10.6874 10.8304 10.6118 10.8012 10.5412C10.772 10.4706 10.7291 10.4065 10.6751 10.3525L7.82263 7.50001L10.6751 4.64751C10.8968 4.42584 10.8968 4.05251 10.6751 3.83084Z" fill="#828282"/>
</g>
</svg>
