<svg width="18" height="18" viewBox="0 0 18 18" fill="none" xmlns="http://www.w3.org/2000/svg">
<g id="vuesax/outline/close-circle">
<g id="close-circle">
<path id="Vector" d="M9 17.0625C4.5525 17.0625 0.9375 13.4475 0.9375 9C0.9375 4.5525 4.5525 0.9375 9 0.9375C13.4475 0.9375 17.0625 4.5525 17.0625 9C17.0625 13.4475 13.4475 17.0625 9 17.0625ZM9 2.0625C5.175 2.0625 2.0625 5.175 2.0625 9C2.0625 12.825 5.175 15.9375 9 15.9375C12.825 15.9375 15.9375 12.825 15.9375 9C15.9375 5.175 12.825 2.0625 9 2.0625Z" fill="#808080"/>
<path id="Vector_2" d="M6.87752 11.685C6.73502 11.685 6.59252 11.6325 6.48002 11.52C6.26252 11.3025 6.26252 10.9425 6.48002 10.725L10.725 6.48002C10.9425 6.26252 11.3025 6.26252 11.52 6.48002C11.7375 6.69752 11.7375 7.05752 11.52 7.27502L7.27502 11.52C7.17002 11.6325 7.02002 11.685 6.87752 11.685Z" fill="#808080"/>
<path id="Vector_3" d="M11.1225 11.685C10.98 11.685 10.8375 11.6325 10.725 11.52L6.48002 7.27502C6.26252 7.05752 6.26252 6.69752 6.48002 6.48002C6.69752 6.26252 7.05752 6.26252 7.27502 6.48002L11.52 10.725C11.7375 10.9425 11.7375 11.3025 11.52 11.52C11.4075 11.6325 11.265 11.685 11.1225 11.685Z" fill="#808080"/>
</g>
</g>
</svg>
