<svg width="16" height="16" viewBox="0 0 16 16" fill="none" xmlns="http://www.w3.org/2000/svg">
<g clip-path="url(#clip0_2262_31007)">
<path d="M12.2005 3.80323C11.9405 3.54323 11.5205 3.54323 11.2605 3.80323L8.00047 7.05656L4.74047 3.79656C4.48047 3.53656 4.06047 3.53656 3.80047 3.79656C3.54047 4.05656 3.54047 4.47656 3.80047 4.73656L7.06047 7.99656L3.80047 11.2566C3.54047 11.5166 3.54047 11.9366 3.80047 12.1966C4.06047 12.4566 4.48047 12.4566 4.74047 12.1966L8.00047 8.93656L11.2605 12.1966C11.5205 12.4566 11.9405 12.4566 12.2005 12.1966C12.4605 11.9366 12.4605 11.5166 12.2005 11.2566L8.94047 7.99656L12.2005 4.73656C12.4538 4.48323 12.4538 4.05656 12.2005 3.80323Z" fill="#E03130"/>
</g>
<defs>
<clipPath id="clip0_2262_31007">
<rect width="16" height="16" fill="white"/>
</clipPath>
</defs>
</svg>
