<svg width="30" height="30" viewBox="0 0 30 30" fill="none" xmlns="http://www.w3.org/2000/svg">
<path d="M13.75 3.75C13.75 3.41848 13.6183 3.10054 13.3839 2.86612C13.1495 2.6317 12.8315 2.5 12.5 2.5H3.75C3.41848 2.5 3.10054 2.6317 2.86612 2.86612C2.6317 3.10054 2.5 3.41848 2.5 3.75V27.5H13.75V3.75ZM11.25 22.5H5V20H11.25V22.5ZM11.25 17.5H5V15H11.25V17.5ZM11.25 12.5H5V10H11.25V12.5ZM11.25 7.5H5V5H11.25V7.5ZM26.25 10H17.5C17.1685 10 16.8505 10.1317 16.6161 10.3661C16.3817 10.6005 16.25 10.9185 16.25 11.25V27.5H27.5V11.25C27.5 10.9185 27.3683 10.6005 27.1339 10.3661C26.8995 10.1317 26.5815 10 26.25 10ZM21.25 25H18.75V22.5H21.25V25ZM21.25 20H18.75V17.5H21.25V20ZM21.25 15H18.75V12.5H21.25V15ZM25 25H22.5V22.5H25V25ZM25 20H22.5V17.5H25V20ZM25 15H22.5V12.5H25V15Z" fill="#787878"/>
</svg>
