<svg width="32" height="32" viewBox="0 0 32 32" fill="none" xmlns="http://www.w3.org/2000/svg">
<rect width="32" height="32" fill="#EAF2FB"/>
<path d="M15.7796 2.46016C18.1796 2.46016 20.4296 3.01016 22.5296 4.11016C24.6296 5.21016 26.3796 6.74905 27.7796 8.72682V5.12682H30.4463V13.1268H22.4463V10.4602H25.713C24.5796 8.79349 23.1407 7.48793 21.3963 6.54349C19.6518 5.59904 17.7796 5.12682 15.7796 5.12682C13.2241 5.12682 10.9074 5.86016 8.82962 7.32682C6.75184 8.79349 5.29073 10.7379 4.44629 13.1602L1.84629 12.5602C2.84629 9.53793 4.62406 7.09904 7.17962 5.24349C9.73517 3.38793 12.6018 2.46016 15.7796 2.46016Z" fill="#0569E2"/>
<path d="M15.9997 30.6004C13.5997 30.6004 11.3497 30.0504 9.24968 28.9504C7.14967 27.8504 5.39967 26.3115 3.99967 24.3337L1.33301 19.9337H9.33301V22.6004H6.06634C7.19968 24.2671 8.63856 25.5726 10.383 26.5171C12.1275 27.4615 13.9997 27.9337 15.9997 27.9337C18.5552 27.9337 20.8719 27.2004 22.9497 25.7337C25.0275 24.2671 26.4886 22.3226 27.333 19.9004L29.933 20.5004C28.933 23.5226 27.1552 25.9615 24.5997 27.8171C22.0441 29.6726 19.1775 30.6004 15.9997 30.6004Z" fill="#0569E2"/>
<path d="M10.4614 21.5379V19.5994C10.4614 19.2071 10.5624 18.8465 10.7643 18.5177C10.9662 18.1888 11.2345 17.9379 11.5691 17.7648C12.2845 17.4071 13.0114 17.1388 13.7499 16.96C14.4883 16.7811 15.2383 16.6917 15.9999 16.6917C16.7614 16.6917 17.5114 16.7811 18.2499 16.96C18.9883 17.1388 19.7153 17.4071 20.4307 17.7648C20.7653 17.9379 21.0335 18.1888 21.2355 18.5177C21.4374 18.8465 21.5383 19.2071 21.5383 19.5994V21.5379H10.4614ZM15.9999 15.9994C15.2383 15.9994 14.5864 15.7282 14.0441 15.1859C13.5018 14.6436 13.2307 13.9917 13.2307 13.2302C13.2307 12.4686 13.5018 11.8167 14.0441 11.2744C14.5864 10.7321 15.2383 10.4609 15.9999 10.4609C16.7614 10.4609 17.4133 10.7321 17.9557 11.2744C18.498 11.8167 18.7691 12.4686 18.7691 13.2302C18.7691 13.9917 18.498 14.6436 17.9557 15.1859C17.4133 15.7282 16.7614 15.9994 15.9999 15.9994ZM11.846 20.1532H20.1537V19.5994C20.1537 19.4725 20.122 19.3571 20.0585 19.2532C19.9951 19.1494 19.9114 19.0686 19.8076 19.0109C19.1845 18.6994 18.5557 18.4657 17.921 18.31C17.2864 18.1542 16.646 18.0763 15.9999 18.0763C15.3537 18.0763 14.7133 18.1542 14.0787 18.31C13.4441 18.4657 12.8153 18.6994 12.1922 19.0109C12.0883 19.0686 12.0047 19.1494 11.9412 19.2532C11.8778 19.3571 11.846 19.4725 11.846 19.5994V20.1532ZM15.9999 14.6148C16.3807 14.6148 16.7066 14.4792 16.9778 14.2081C17.2489 13.9369 17.3845 13.6109 17.3845 13.2302C17.3845 12.8494 17.2489 12.5234 16.9778 12.2523C16.7066 11.9811 16.3807 11.8456 15.9999 11.8456C15.6191 11.8456 15.2932 11.9811 15.022 12.2523C14.7508 12.5234 14.6153 12.8494 14.6153 13.2302C14.6153 13.6109 14.7508 13.9369 15.022 14.2081C15.2932 14.4792 15.6191 14.6148 15.9999 14.6148Z" fill="#0569E2"/>
</svg>
