<svg width="74" height="68" viewBox="0 0 74 68" fill="none" xmlns="http://www.w3.org/2000/svg">
<g clip-path="url(#clip0_687_2269)">
<path d="M55.5 52.5C65.7173 42.2827 65.7173 25.7173 55.5 15.5C45.2827 5.28273 28.7173 5.28273 18.5 15.5C8.28273 25.7173 8.28273 42.2827 18.5 52.5C28.7173 62.7173 45.2827 62.7173 55.5 52.5Z" fill="#D3E4FF"/>
<path d="M55.4674 8.22639H19V56.8493H55.4674V8.22639Z" fill="#76A6F5"/>
<path d="M53.4831 12.1722H20.9849V54.6169H53.4831V12.1722Z" fill="white"/>
<path d="M46.8518 5.99979H27.6147V15.2581H46.8518V5.99979Z" fill="#3B495E"/>
<path d="M28.6694 19.7334H25.4292V22.9736H28.6694V19.7334Z" fill="#D3E4FF"/>
<path d="M30.2129 20.3503H49.0384" stroke="#D3E4FF" stroke-width="0.9162" stroke-miterlimit="10"/>
<path d="M30.2129 21.739H49.0384" stroke="#D3E4FF" stroke-width="0.9162" stroke-miterlimit="10"/>
<path d="M28.6694 25.2575H25.4292V28.4977H28.6694V25.2575Z" fill="#D3E4FF"/>
<path d="M30.2129 25.8751H49.0384" stroke="#D3E4FF" stroke-width="0.9162" stroke-miterlimit="10"/>
<path d="M30.2129 27.2639H49.0384" stroke="#D3E4FF" stroke-width="0.9162" stroke-miterlimit="10"/>
<path d="M28.6694 30.7816H25.4292V34.0219H28.6694V30.7816Z" fill="#D3E4FF"/>
<path d="M30.2129 31.3984H49.0384" stroke="#D3E4FF" stroke-width="0.9162" stroke-miterlimit="10"/>
<path d="M30.2129 32.7877H49.0384" stroke="#D3E4FF" stroke-width="0.9162" stroke-miterlimit="10"/>
<path d="M28.6694 36.3063H25.4292V39.5465H28.6694V36.3063Z" fill="#D3E4FF"/>
<path d="M30.2129 36.9228H49.0384" stroke="#D3E4FF" stroke-width="0.9162" stroke-miterlimit="10"/>
<path d="M30.2129 38.3121H49.0384" stroke="#D3E4FF" stroke-width="0.9162" stroke-miterlimit="10"/>
<path d="M28.6694 41.8294H25.4292V45.0696H28.6694V41.8294Z" fill="#D3E4FF"/>
<path d="M30.2129 42.4466H49.0384" stroke="#D3E4FF" stroke-width="0.9162" stroke-miterlimit="10"/>
<path d="M30.2129 43.8364H49.0384" stroke="#D3E4FF" stroke-width="0.9162" stroke-miterlimit="10"/>
<path d="M28.6694 47.354H25.4292V50.5943H28.6694V47.354Z" fill="#D3E4FF"/>
<path d="M30.2129 47.9715H49.0384" stroke="#D3E4FF" stroke-width="0.9162" stroke-miterlimit="10"/>
<path d="M30.2129 49.3597H49.0384" stroke="#D3E4FF" stroke-width="0.9162" stroke-miterlimit="10"/>
<path d="M25.4062 21.0889C25.7688 21.6178 26.1309 22.1467 26.4935 22.6751C26.8646 21.0371 27.9033 19.5612 29.3198 18.6594" stroke="#BD99FF" stroke-width="2" stroke-miterlimit="10" stroke-linecap="round" stroke-linejoin="round"/>
<path d="M25.4062 26.6214C25.7688 27.1503 26.1309 27.6792 26.4935 28.2076C26.8646 26.5701 27.9033 25.0937 29.3198 24.1919" stroke="#BD99FF" stroke-width="2" stroke-miterlimit="10" stroke-linecap="round" stroke-linejoin="round"/>
<path d="M25.4062 32.1529C25.7688 32.6818 26.1309 33.2102 26.4935 33.739C26.8646 32.1011 27.9033 30.6252 29.3198 29.7233" stroke="#BD99FF" stroke-width="2" stroke-miterlimit="10" stroke-linecap="round" stroke-linejoin="round"/>
<path d="M25.4062 37.6849C25.7688 38.2138 26.1309 38.7426 26.4935 39.271C26.8646 37.6331 27.9033 36.1572 29.3198 35.2553" stroke="#BD99FF" stroke-width="2" stroke-miterlimit="10" stroke-linecap="round" stroke-linejoin="round"/>
<path d="M25.4062 43.2174C25.7688 43.7463 26.1309 44.2751 26.4935 44.8035C26.8646 43.1656 27.9033 41.6897 29.3198 40.7878" stroke="#BD99FF" stroke-width="2" stroke-miterlimit="10" stroke-linecap="round" stroke-linejoin="round"/>
</g>
<defs>
<clipPath id="clip0_687_2269">
<rect width="74" height="68" fill="white"/>
</clipPath>
</defs>
</svg>
