<svg width="47" height="37" viewBox="0 0 47 37" fill="none" xmlns="http://www.w3.org/2000/svg">
<path d="M3.9 10.8438L4.096 10.6814C8.78009 6.77675 14.4212 4.19047 20.436 3.1875V1.65625C20.436 0.811 21.122 0.125 21.9672 0.125H25.0312C25.8765 0.125 26.5625 0.811 26.5625 1.65625V3.1875C32.5788 4.19047 38.2184 6.77675 42.904 10.6814L43.1 10.8438H3.9ZM44.9375 12.375H2.0625C1.21725 12.375 0.53125 13.061 0.53125 13.9062V15.4375C0.53125 16.2827 1.21725 16.9688 2.0625 16.9688L4.52628 32.9795C4.87081 35.2212 6.79866 36.875 9.06644 36.875H37.9351C40.2029 36.875 42.1307 35.2212 42.4753 32.9795L44.9375 16.9688C45.7827 16.9688 46.4688 16.2827 46.4688 15.4375V13.9062C46.4688 13.061 45.7827 12.375 44.9375 12.375Z" fill="#C1E4FF"/>
</svg>
