<svg width="39" height="49" viewBox="0 0 39 49" fill="none" xmlns="http://www.w3.org/2000/svg">
<path d="M35.2617 13.241C34.4086 10.9831 33.1469 9.06746 31.5122 7.54515C29.8417 5.98708 27.783 4.8479 25.382 4.14804C25.382 4.14804 25.382 4.14804 25.3769 4.14294C22.7052 1.47123 19.1497 0 15.3695 0C11.5892 0 8.03888 1.47123 5.36717 4.14294C2.69546 6.81464 1.22424 10.3701 1.22424 14.1503C1.22424 15.1158 1.3213 16.066 1.51031 16.9957C0.779805 19.126 0.447757 21.3839 0.519275 23.744C0.641877 27.7541 1.94453 31.9634 4.38125 36.2545C4.38636 36.2597 4.39146 36.2699 4.39657 36.275C5.34674 43.4574 11.4922 49 18.9352 49C25.4893 49 31.0421 44.6988 32.922 38.7629C33.4227 38.3797 33.8978 37.9658 34.3473 37.5113C37.019 34.8395 38.4902 31.2841 38.4902 27.5039C38.4902 24.9037 37.7955 22.4107 36.4928 20.2396C36.503 18.9165 36.3702 16.1682 35.2617 13.241ZM25.5301 36.0246C23.8188 36.0246 22.4344 34.6402 22.4344 32.9289C22.4344 31.2176 23.8188 29.8332 25.5301 29.8332C27.2415 29.8332 28.6259 31.2176 28.6259 32.9289C28.6259 34.6402 27.2364 36.0246 25.5301 36.0246ZM27.2261 22.2319H34.6793C35.5069 23.8462 35.9411 25.6393 35.9411 27.5038C35.9411 30.058 35.1186 32.4845 33.6014 34.487C33.6014 34.4359 33.6014 34.3797 33.6014 34.3286C33.6015 29.307 31.0728 24.8729 27.2261 22.2319ZM33.9335 19.6777H32.8965C28.9732 19.6777 25.0602 19.6164 21.1318 19.6113C18.2813 19.6113 15.3643 19.8667 12.759 21.0263C8.49864 22.9215 5.94443 27.0082 4.83585 31.3964C4.77455 31.2483 4.71835 31.1002 4.65705 30.952C3.67623 28.4489 3.13985 26.007 3.06833 23.6622C3.04279 22.8602 3.07344 22.0735 3.15517 21.3021C3.2318 20.587 3.3544 19.882 3.52298 19.1924C3.69156 18.4976 3.90611 17.8233 4.16664 17.1592C4.46293 16.4134 4.81541 15.6829 5.22409 14.9779C6.79748 12.2756 9.1729 9.98698 12.1 8.36761C14.8279 6.85551 17.8929 6.02284 20.7231 6.02284C21.6221 6.02284 22.4906 6.10457 23.3079 6.27315C23.548 6.32423 23.7881 6.37532 24.018 6.43151C24.7689 6.61542 25.4841 6.8504 26.1533 7.12626C26.8889 7.43276 27.5786 7.79035 28.212 8.20924C30.3218 9.58341 31.8748 11.5553 32.8505 14.1146C33.2081 15.0545 33.4482 15.9792 33.6116 16.8272C33.7598 17.5883 33.8415 18.2882 33.8824 18.8808C33.9131 19.1668 33.9284 19.4376 33.9335 19.6777ZM15.3745 2.55421C16.9684 2.55421 18.5111 2.87605 19.9364 3.48395C16.9071 3.62188 13.7194 4.55161 10.8689 6.13011C8.05926 7.68819 5.689 9.79286 3.93165 12.2807C4.31479 9.89503 5.43353 7.6984 7.17551 5.95643C9.36191 3.7598 12.2737 2.55421 15.3745 2.55421ZM12.4934 36.0246C10.7821 36.0246 9.39767 34.6402 9.39767 32.9289C9.39767 31.9685 9.83189 31.1154 10.5164 30.5484C10.8587 30.2674 11.2571 30.0579 11.6965 29.9405C11.9519 29.8741 12.2175 29.8383 12.4883 29.8383C12.6569 29.8383 12.8203 29.8537 12.9838 29.8792C14.4601 30.1142 15.584 31.3913 15.584 32.934C15.584 33.5267 15.4154 34.0834 15.1293 34.5534C14.8995 34.9263 14.5981 35.243 14.2405 35.4882C13.8778 35.7385 13.4589 35.9123 13.0093 35.9838C12.8459 36.0093 12.6722 36.0246 12.4934 36.0246ZM21.3157 44.6578C21.0143 45.3322 20.0999 45.8226 19.0118 45.8226C17.9237 45.8226 17.0042 45.3322 16.7079 44.6578C16.6006 44.4228 16.8611 44.1828 17.2238 44.1828H20.81C21.1675 44.1828 21.423 44.4178 21.3157 44.6578ZM20.8048 42.8853H17.2187C16.856 42.8853 16.6006 42.6452 16.7027 42.4101C16.953 41.8431 17.4179 41.4089 18.2506 41.2812C18.3527 41.2659 18.4549 41.2812 18.552 41.3271L18.7819 41.4395C18.9249 41.511 19.0935 41.511 19.2365 41.4395L19.4612 41.3271C19.5532 41.2812 19.6605 41.2659 19.7627 41.2812C20.5954 41.4038 21.0602 41.8431 21.3105 42.4101C21.423 42.6503 21.1675 42.8853 20.8048 42.8853Z" fill="#C1E4FF"/>
<path d="M14.7463 34.017C14.8535 33.8433 14.8893 33.6236 14.828 33.4091C14.7258 33.0566 14.3989 32.837 14.0516 32.8523C13.9953 32.8574 13.9392 32.8626 13.8829 32.8778C13.5202 32.98 13.132 33.0414 12.7284 33.0566C12.6671 33.0566 12.6058 33.0618 12.5445 33.0618C12.0949 33.0618 11.6557 33.0056 11.252 32.8932C11.1806 32.8728 11.1142 32.8523 11.0477 32.8319C10.6442 32.6991 10.215 32.9188 10.0823 33.3172C9.94939 33.7207 10.1691 34.1499 10.5676 34.2827C11.0477 34.441 11.5535 34.5381 12.0848 34.5739C12.238 34.5841 12.3913 34.5892 12.5445 34.5892C12.8867 34.5892 13.2239 34.5636 13.5508 34.5125C13.8063 34.4717 14.0566 34.4206 14.3018 34.3491C14.4959 34.3031 14.6492 34.1805 14.7463 34.017Z" fill="#C1E4FF"/>
<path d="M26.9605 32.8881C26.5417 33.0056 26.0921 33.0669 25.6222 33.0669C25.0959 33.0669 24.58 32.9851 24.1253 32.837C23.7218 32.7041 23.2927 32.9238 23.1599 33.3223C23.027 33.7258 23.2467 34.155 23.6452 34.2877C24.2633 34.4921 24.9274 34.5942 25.6222 34.5942C26.2352 34.5942 26.8226 34.5125 27.3794 34.3542C27.7881 34.2367 28.0231 33.8127 27.9056 33.4091C27.7932 33.0056 27.3692 32.7706 26.9605 32.8881Z" fill="#C1E4FF"/>
</svg>
