<svg width="18" height="19" viewBox="0 0 18 19" fill="none" xmlns="http://www.w3.org/2000/svg">
<path d="M18 5.86024C18 5.10547 17.3875 4.49354 16.6327 4.49354C15.8774 4.49354 15.2649 5.10547 15.2649 5.86024C15.2649 6.22938 15.4116 6.56393 15.6495 6.80946C14.7195 8.73535 12.9419 9.40771 11.5642 8.79909C10.3371 8.25635 9.88443 6.70508 9.73114 5.50319C10.2316 5.24008 10.5727 4.71601 10.5727 4.11121C10.5727 3.24275 9.86903 2.53906 9 2.53906C8.13154 2.53906 7.42732 3.24275 7.42732 4.11121C7.42732 4.71601 7.76844 5.24005 8.26889 5.50319C8.11564 6.70511 7.66301 8.25638 6.43581 8.79909C5.05811 9.40775 3.28054 8.73535 2.35055 6.80946C2.58841 6.56393 2.73509 6.22938 2.73509 5.86024C2.73509 5.10547 2.12259 4.49354 1.36782 4.49354C0.612492 4.49354 0 5.10547 0 5.86024C0 6.55566 0.519645 7.12861 1.19092 7.21541L2.7669 12.9838H15.2331L16.8091 7.21541C17.4809 7.12861 18 6.55566 18 5.86024Z" fill="#525252"/>
<path d="M15.9967 15.4436C15.9967 16.0056 15.5413 16.461 14.9788 16.461H3.02126C2.45929 16.4609 2.00391 16.0056 2.00391 15.4436V15.359C2.00391 14.7965 2.45929 14.3412 3.02126 14.3412H14.9788C15.5413 14.3412 15.9967 14.7965 15.9967 15.359V15.4436Z" fill="#525252"/>
</svg>
