<svg width="39" height="28" viewBox="0 0 39 28" fill="none" xmlns="http://www.w3.org/2000/svg">
<g id="Group">
<path id="Vector" d="M38.7219 5.18922C38.5168 5.02574 38.2299 5.02574 37.9831 5.18922L30.2693 10.1545C30.0225 10.318 29.9407 10.6065 29.9824 10.8517C30.1058 11.2203 30.1459 11.5488 30.1459 11.8774C30.1459 13.9705 28.463 15.6517 26.3716 15.6517C24.2784 15.6517 22.5972 13.9688 22.5972 11.8774C22.5972 9.78426 23.1309 9.70253 23.9916 8.96368C24.2384 8.75854 24.2784 8.42998 24.155 8.1848L20.0103 0.307715C19.8052 -0.102572 19.108 -0.102572 18.9029 0.307715L14.7582 8.1848C14.6348 8.43161 14.6764 8.75854 14.9216 8.96368C15.824 9.70253 16.316 10.7683 16.316 11.8774C16.316 13.9705 14.6331 15.6517 12.5417 15.6517C10.4485 15.6517 8.76736 13.9688 8.76736 11.8774C8.76736 9.78426 8.80903 11.2619 8.93083 10.8517C9.01257 10.5648 8.93083 10.318 8.64395 10.1545L0.975294 5.14778C0.728483 4.9843 0.441594 5.02437 0.236451 5.14778C0.0313082 5.31125 -0.050429 5.59975 0.0313082 5.84494L5.20173 20.9837C5.28347 21.2305 5.53028 21.394 5.81716 21.394H33.1828C33.4697 21.394 33.6749 21.2305 33.7983 20.9837L38.9687 5.84494C39.0504 5.59812 38.9687 5.31124 38.7635 5.14778L38.7219 5.18922Z" fill="url(#paint0_angular_296_7467)"/>
<path id="Vector_2" d="M5.77754 23.9805H33.1851C33.5248 23.9805 33.8005 24.3202 33.8005 24.5959V27.2628C33.8005 27.6025 33.5248 27.8782 33.1851 27.8782H5.77754C5.43777 27.8782 5.16211 27.5384 5.16211 27.2628V24.5959C5.16211 24.2561 5.43777 23.9805 5.77754 23.9805Z" fill="url(#paint1_angular_296_7467)"/>
</g>
<defs>
<radialGradient id="paint0_angular_296_7467" cx="0" cy="0" r="1" gradientUnits="userSpaceOnUse" gradientTransform="translate(19.5 13.8132) rotate(90) scale(7.58074 13.8193)">
<stop stop-color="#A27E00"/>
<stop offset="1" stop-color="#614D06"/>
</radialGradient>
<radialGradient id="paint1_angular_296_7467" cx="0" cy="0" r="1" gradientUnits="userSpaceOnUse" gradientTransform="translate(19.4813 26.4971) rotate(90) scale(1.38112 10.1477)">
<stop stop-color="#A27E00"/>
<stop offset="1" stop-color="#614D06"/>
</radialGradient>
</defs>
</svg>
