<svg width="19" height="20" viewBox="0 0 19 20" fill="none" xmlns="http://www.w3.org/2000/svg">
<path fill-rule="evenodd" clip-rule="evenodd" d="M4.18303 9.27734H14.8763V6.07747H11.4696C11.1119 6.07747 10.6142 5.88704 10.3785 5.6543C10.1428 5.42155 9.99939 5.00163 9.99939 4.65007V1.24349H1.34325C1.31358 1.24349 1.29051 1.25814 1.27568 1.27279C1.25095 1.28906 1.24436 1.31022 1.24436 1.34115V18.667C1.24436 18.6898 1.25919 18.7191 1.27403 18.7337C1.28886 18.7565 1.32018 18.763 1.3416 18.763C5.09611 18.763 10.9158 18.763 14.7758 18.763C14.8054 18.763 14.8038 18.7484 14.8203 18.7337C14.8433 18.7191 14.8747 18.6882 14.8747 18.667V16.8506H4.18303C3.50069 16.8506 2.93702 16.2972 2.93702 15.6201V10.5062C2.93702 9.83073 3.4974 9.27734 4.18303 9.27734ZM7.56176 13.4033L8.59846 13.7126C8.52923 13.999 8.41881 14.2399 8.26882 14.432C8.11884 14.624 7.93425 14.7705 7.71175 14.8682C7.48924 14.9658 7.20741 15.0146 6.86459 15.0146C6.44761 15.0146 6.10809 14.9544 5.84438 14.8356C5.58067 14.7152 5.35323 14.5052 5.16204 14.2057C4.97085 13.9062 4.87361 13.5205 4.87361 13.0518C4.87361 12.4268 5.04173 11.9466 5.37795 11.6113C5.71582 11.276 6.19214 11.1084 6.80855 11.1084C7.28982 11.1084 7.67054 11.2044 7.94578 11.3965C8.22103 11.5885 8.42705 11.8848 8.56055 12.2835L7.51891 12.5114C7.48265 12.3975 7.44474 12.3128 7.40354 12.2607C7.33596 12.1712 7.25521 12.1029 7.15961 12.0557C7.06402 12.0068 6.95689 11.984 6.83822 11.984C6.56957 11.984 6.36355 12.0898 6.22016 12.3031C6.11303 12.4609 6.05864 12.7083 6.05864 13.0452C6.05864 13.4635 6.12292 13.75 6.25148 13.9063C6.38003 14.0609 6.56133 14.139 6.79537 14.139C7.02117 14.139 7.19257 14.0771 7.30795 13.9502C7.42661 13.8232 7.50902 13.6426 7.56176 13.4033ZM8.97753 13.6995L10.0999 13.6296C10.1247 13.8086 10.1741 13.9469 10.2483 14.0397C10.3702 14.1927 10.5433 14.2692 10.7707 14.2692C10.9388 14.2692 11.069 14.2301 11.1597 14.152C11.252 14.0739 11.2965 13.9827 11.2965 13.8802C11.2965 13.7826 11.2536 13.6947 11.1679 13.6165C11.0822 13.5384 10.8795 13.4668 10.5647 13.3968C10.0455 13.2829 9.678 13.1299 9.45715 12.9378C9.23465 12.7474 9.12257 12.5049 9.12257 12.2087C9.12257 12.015 9.18026 11.8327 9.29398 11.6602C9.4077 11.4876 9.57911 11.3509 9.80821 11.2533C10.0373 11.154 10.3505 11.1051 10.7493 11.1051C11.2388 11.1051 11.6113 11.1947 11.8668 11.3753C12.1239 11.5544 12.2755 11.8408 12.3249 12.2331L11.2124 12.2982C11.1828 12.1273 11.1201 12.002 11.0262 11.9238C10.9306 11.8457 10.8004 11.8066 10.6339 11.8066C10.4971 11.8066 10.3933 11.8359 10.3224 11.8929C10.2532 11.9499 10.2186 12.0199 10.2186 12.1029C10.2186 12.1631 10.2466 12.2168 10.3027 12.264C10.357 12.3145 10.4889 12.36 10.6966 12.4023C11.2141 12.513 11.5833 12.6237 11.8058 12.736C12.0299 12.8483 12.1931 12.9883 12.2936 13.1543C12.3958 13.3203 12.4453 13.5075 12.4453 13.7142C12.4453 13.9567 12.3777 14.1797 12.2425 14.3848C12.1057 14.5882 11.9179 14.7445 11.6739 14.8503C11.43 14.9561 11.1234 15.0081 10.7543 15.0081C10.1032 15.0081 9.65328 14.8844 9.40276 14.637C9.15224 14.3945 9.0105 14.0804 8.97753 13.6995ZM12.676 11.1702H13.9121L14.7741 13.89L15.6246 11.1702H16.8244L15.4037 14.9495H14.1231L12.676 11.1702ZM16.1174 9.27734H17.754C18.4396 9.27734 19 9.83236 19 10.5078V15.6217C19 16.2972 18.438 16.8522 17.754 16.8522H16.1174V19.0576C16.1174 19.3197 16.0102 19.5524 15.8372 19.7249C15.6625 19.8975 15.4268 20.0016 15.1614 20.0016C10.3092 20.0016 5.83449 20.0016 0.957581 20.0016C0.692227 20.0016 0.45654 19.8975 0.281835 19.7249C0.10713 19.5524 0.00164795 19.3197 0.00164795 19.0576V0.952148C0.00164795 0.690104 0.108778 0.457357 0.281835 0.284831C0.45654 0.112305 0.69882 0.00813802 0.957581 0.00813802H10.6356C10.657 0 10.6801 0 10.7032 0C10.8086 0 10.9158 0.0455729 10.9916 0.112305H11.0064C11.0213 0.120443 11.0295 0.126953 11.0443 0.141602L15.9872 5.08301C16.0712 5.16602 16.1322 5.27832 16.1322 5.40527C16.1322 5.44271 16.124 5.47201 16.1174 5.51107V9.27734ZM11.1284 4.55241V1.45508L14.6604 4.98698H11.5684C11.4465 4.98698 11.341 4.9349 11.2569 4.86003C11.1811 4.78516 11.1284 4.67285 11.1284 4.55241Z" fill="black"/>
</svg>
