<svg width="48" height="48" viewBox="0 0 48 48" fill="none" xmlns="http://www.w3.org/2000/svg">
<path d="M29.2788 43.8553C29.3424 43.8595 29.4051 43.8646 29.4696 43.8646H44.0019C45.7018 43.8646 47.0844 42.4815 47.0844 40.7821V7.09426C47.0844 5.39494 45.7018 4.01167 44.0019 4.01167H29.4696C29.4056 4.01167 29.3424 4.01741 29.2788 4.02134V0L0.915527 3.78532V44.1168L29.2788 48V43.8553ZM29.2788 29.5915H33.9818V31.3537H29.2788V29.5915ZM29.2788 29.3713V27.5767H33.9818V29.3713H29.2788ZM29.2788 27.3565V25.2978H33.9818V27.3565H29.2788ZM29.2788 25.0776V22.773H33.9818V25.0776H29.2788ZM29.2788 22.5851V20.3897H33.9818V22.5851H29.2788ZM29.2788 20.2014V18.006H33.888H33.9818V20.2014H29.2788ZM29.4697 5.77359H44.002C44.7305 5.77359 45.323 6.36638 45.323 7.09467V40.7829C45.323 41.5111 44.7305 42.1041 44.002 42.1041H29.4697C29.4048 42.1041 29.3416 42.0942 29.2789 42.0842V31.5417H34.1702V31.5413H44.8749V17.5979H44.8653V15.4344H39.4709H39.2826H33.888V15.4348H29.2788V5.79284C29.3416 5.78325 29.4044 5.77359 29.4697 5.77359ZM44.6546 18.0056V31.3207H42.599V18.6485H41.1877V31.3206H40.0118V19.9502H38.6005V31.3206H37.5648V21.2363H36.1534V31.3206H34.17V22.7726V22.5847V20.3893V20.201V18.0056H39.282H39.4707H44.6546ZM39.4709 17.8181V15.6229H44.6771V17.5979H44.6547V17.8181H39.4709ZM39.2826 17.8181H34.1702H34.0765V15.6229H39.2822V17.8181H39.2826ZM8.0827 26.3411C8.66648 26.3515 9.31949 26.2258 9.70575 26.0686L10.0018 27.701C9.64144 27.8834 8.83295 28.0666 7.79204 28.0386C4.90074 27.9616 3.44858 26.0118 3.44858 23.4816C3.44858 20.4506 5.43946 18.7115 7.98128 18.6446C8.9859 18.6177 9.75655 18.8164 10.1058 18.9992L9.70584 20.6607C9.30695 20.4894 8.75652 20.3356 8.06992 20.3472C6.55206 20.3725 5.38982 21.3649 5.38982 23.364C5.38974 25.1627 6.37707 26.3124 8.0827 26.3411ZM13.4978 28.1912C12.4683 28.1632 11.4637 27.861 10.9656 27.5595L11.3717 25.832C11.9119 26.1297 12.7487 26.4349 13.6184 26.4494C14.5651 26.4658 15.0702 26.0658 15.0702 25.4479C15.0702 24.8565 14.6343 24.5168 13.5377 24.1049C12.0444 23.5587 11.0832 22.7043 11.0832 21.3559C11.0832 19.7732 12.3493 18.5281 14.484 18.4723C15.523 18.4445 16.2954 18.6508 16.8518 18.8929L16.379 20.6459C16.0047 20.4677 15.3441 20.2105 14.4436 20.2253C13.5519 20.2399 13.1226 20.6648 13.1226 21.1519C13.1226 21.7505 13.6315 22.0106 14.8109 22.4661C16.4486 23.0821 17.2295 23.9629 17.2295 25.3157C17.2289 26.9242 16.0179 28.2583 13.4978 28.1912ZM23.598 28.3133L20.9695 28.2454L17.8751 18.5403L20.2593 18.4791L21.4513 22.5965C21.7895 23.7618 22.0981 24.8868 22.3338 26.1167L22.3787 26.1175C22.6296 24.9349 22.9418 23.7643 23.2846 22.6335L24.5767 18.369L27.0571 18.306L23.598 28.3133Z" fill="black"/>
</svg>
