<svg width="33" height="32" viewBox="0 0 33 32" fill="none" xmlns="http://www.w3.org/2000/svg">
<path d="M8.06634 23.4215H8.69166H29.7286L32.5 6.97562H28.4498C28.593 11.9274 24.4764 16.2626 19.3846 16.2303C14.2933 16.2626 10.1756 11.9273 10.3194 6.97562H7.13074L6.07896 0.784973H0.5V2.66093H4.49478L7.70728 21.5687C4.17086 22.1196 4.46845 27.1843 8.0664 27.2984H9.81523C8.20416 29.0737 9.48706 31.9986 11.9121 31.9883C14.337 31.9986 15.6201 29.0733 14.0089 27.2984H21.9464C20.3353 29.0737 21.6182 31.9986 24.0433 31.9883C26.4682 31.9986 27.7513 29.0733 26.1401 27.2984H29.077V25.4225H8.06634C6.74073 25.3684 6.73779 23.4769 8.06634 23.4215Z" fill="#5DAAFB"/>
<path d="M12.3941 8.85158C14.4577 16.6537 25.5219 15.9194 26.5369 7.91355C26.569 7.60689 26.5816 7.28829 26.5732 6.97563C25.9919 -2.31071 12.776 -2.30865 12.1959 6.97569C12.1791 7.60658 12.2457 8.24396 12.3941 8.85158ZM16.8282 5.58055C16.8282 4.52501 17.5048 3.62393 18.4466 3.28876V1.84553H20.3225V3.14869H22.0009V5.02464C21.4667 5.02458 19.8192 5.0247 19.2601 5.02464C18.9537 5.02464 18.7042 5.27414 18.7042 5.58055C18.7042 5.88695 18.9537 6.13646 19.2601 6.13646C19.5466 6.13314 19.8737 6.13277 20.1449 6.20837C22.5131 6.83819 22.6216 10.0785 20.3225 10.877V12.3027H18.4466V11.0002H16.7726V9.12422H19.559C20.2975 9.09246 20.2951 8.04242 19.559 8.01241C19.2594 8.01716 18.9198 8.01441 18.6373 7.93112C17.5817 7.65316 16.8252 6.68436 16.8282 5.58055Z" fill="#5DAAFB"/>
</svg>
