<?xml version="1.0" encoding="UTF-8"?>
<svg version="1.1" xmlns="http://www.w3.org/2000/svg" width="200" height="200">
<path d="M0 0 C3.98307623 -0.17452809 7.96464019 -0.30074085 11.95068359 -0.38452148 C13.96401231 -0.43656965 15.97627677 -0.5255711 17.98828125 -0.61523438 C28.98406543 -0.80862756 28.98406543 -0.80862756 33.34375 2.9375 C34.58943148 4.26693468 35.80683609 5.62323611 37 7 C38.56546671 8.54793535 40.13878351 10.08796108 41.71875 11.62109375 C43.31509556 13.22398171 44.90882441 14.82947972 46.5 16.4375 C47.32242188 17.26443359 48.14484375 18.09136719 48.9921875 18.94335938 C50.99712113 20.95994959 52.99966253 22.97885236 55 25 C55.03758423 23.91730835 55.03758423 23.91730835 55.07592773 22.81274414 C55.19151302 19.562465 55.31440774 16.31250312 55.4375 13.0625 C55.47681641 11.92619141 55.51613281 10.78988281 55.55664062 9.61914062 C55.61948242 7.99975586 55.61948242 7.99975586 55.68359375 6.34765625 C55.72025146 5.34742432 55.75690918 4.34719238 55.79467773 3.31665039 C56 1 56 1 57 0 C68.8446322 -2.83432659 81.3190006 -3.0508707 92.1497345 2.94264221 C102.75114316 9.58175434 111.41683141 18.98366293 114.90765381 31.16809082 C119.11079028 50.41728764 120.54146102 76.19341991 110.19113159 93.75622559 C103.49068955 103.57391487 93.70375259 112.46918947 81.82763672 115.07128906 C73.49288558 116.4116003 65.24690567 115.65228625 57 114 C56.03351723 111.10055169 55.87121268 109.2341852 55.8671875 106.21875 C55.86589844 105.29449219 55.86460938 104.37023437 55.86328125 103.41796875 C55.86714844 102.45503906 55.87101562 101.49210937 55.875 100.5 C55.86919922 99.05560547 55.86919922 99.05560547 55.86328125 97.58203125 C55.86457031 96.65777344 55.86585937 95.73351562 55.8671875 94.78125 C55.86831543 93.93626953 55.86944336 93.09128906 55.87060547 92.22070312 C56 90 56 90 57 87 C56.34 87 55.68 87 55 87 C54.77183594 87.55341064 54.54367188 88.10682129 54.30859375 88.67700195 C52.62310099 91.66906606 50.49649347 93.74510635 48.0625 96.16796875 C47.58176025 96.64825027 47.10102051 97.1285318 46.60571289 97.62336731 C45.59269849 98.6333707 44.5772648 99.64095273 43.55957031 100.64624023 C42.00004002 102.18746045 40.4487143 103.73658712 38.8984375 105.28710938 C30.18888055 113.95328465 30.18888055 113.95328465 26.11083984 114.11352539 C24.90637207 114.10828857 23.7019043 114.10305176 22.4609375 114.09765625 C20.50800781 114.09282227 20.50800781 114.09282227 18.515625 114.08789062 C17.13541601 114.07953466 15.75520768 114.07106971 14.375 114.0625 C12.98698074 114.05748501 11.59895978 114.0529221 10.2109375 114.04882812 C6.80724868 114.03700976 3.40364561 114.02053434 0 114 C-4.04259531 91.06006566 -4.04259531 91.06006566 1.1505127 81.99072266 C7.81903167 72.64701161 17.09372721 65.12975561 26 58 C24.45092605 53.97653552 21.87929579 52.06567316 18.5546875 49.4140625 C-0.02422049 33.80436868 -0.02422049 33.80436868 -1.4213562 23.84481812 C-2.04551428 15.87080231 -1.26450343 7.87882907 0 0 Z M54 32 C54 32.66 54 33.32 54 34 C53.34 34 52.68 34 52 34 C50.6358772 35.34937337 50.6358772 35.34937337 49.1875 37.1875 C45.70022711 41.29538925 41.99356982 45.1282851 38.1875 48.9375 C37.61217529 49.51717529 37.03685059 50.09685059 36.4440918 50.6940918 C32.24907445 54.87546277 32.24907445 54.87546277 30 56 C30.66 57.32 31.32 58.64 32 60 C32.66 60 33.32 60 34 60 C34 60.66 34 61.32 34 62 C34.66 62 35.32 62 36 62 C36 62.66 36 63.32 36 64 C37.65002828 65.35386936 39.3174387 66.68678142 41 68 C41.33 68.66 41.66 69.32 42 70 C42.66 70 43.32 70 44 70 C44 70.66 44 71.32 44 72 C44.66 72 45.32 72 46 72 C46 72.66 46 73.32 46 74 C46.66 74 47.32 74 48 74 C48 74.66 48 75.32 48 76 C48.66 76 49.32 76 50 76 C50 76.66 50 77.32 50 78 C50.66 78 51.32 78 52 78 C52 78.66 52 79.32 52 80 C52.66 80 53.32 80 54 80 C54 80.66 54 81.32 54 82 C55.69699254 82.9708047 55.69699254 82.9708047 58 83 C60.07818891 81.35855155 61.76614985 79.79182124 63.5703125 77.8828125 C64.09261444 77.35106415 64.61491638 76.8193158 65.15304565 76.27145386 C66.82251076 74.56733895 68.47402917 72.84702162 70.125 71.125 C71.78641736 69.41365851 73.45130664 67.70580309 75.11837769 65.99996948 C76.15526099 64.93663886 77.18820778 63.86945282 78.21682739 62.79812622 C81.7825391 59.10873045 81.7825391 59.10873045 84 58 C84 57.34 84 56.68 84 56 C82.52877584 54.51455206 82.52877584 54.51455206 80.5859375 52.96484375 C74.76272286 48.01549627 69.51266052 42.52639476 64.18359375 37.05664062 C63.41402344 36.27611328 62.64445312 35.49558594 61.8515625 34.69140625 C60.81249756 33.62708374 60.81249756 33.62708374 59.75244141 32.54125977 C57.42351641 30.49298678 56.73114283 30.63442859 54 32 Z " fill="#DBF6C8" transform="translate(43,43)"/>
<path d="M0 0 C3.98307623 -0.17452809 7.96464019 -0.30074085 11.95068359 -0.38452148 C13.96401231 -0.43656965 15.97627677 -0.5255711 17.98828125 -0.61523438 C28.98406543 -0.80862756 28.98406543 -0.80862756 33.34375 2.9375 C34.58943148 4.26693468 35.80683609 5.62323611 37 7 C38.56546671 8.54793535 40.13878351 10.08796108 41.71875 11.62109375 C43.31509556 13.22398171 44.90882441 14.82947972 46.5 16.4375 C47.32242188 17.26443359 48.14484375 18.09136719 48.9921875 18.94335938 C50.99710945 20.95993785 52.9988851 22.97964362 55 25 C55.33 17.08 55.66 9.16 56 1 C56.33 1 56.66 1 57 1 C56.89413574 1.7120459 56.78827148 2.4240918 56.67919922 3.15771484 C55.44181279 13.2455601 54.27405828 24.29933385 60.59912109 32.87792969 C67.43541848 41.15205666 75.71930736 48.21581807 84 55 C81 55 81 55 78.61157227 52.88867188 C77.67271648 51.92224402 76.74146444 50.94839295 75.81640625 49.96875 C74.79632606 48.92047355 73.77614051 47.87229962 72.75585938 46.82421875 C71.15524846 45.16139328 69.55808656 43.49538102 67.96362305 41.82666016 C66.42301522 40.21975129 64.87043617 38.62516554 63.31640625 37.03125 C62.60684532 36.27660461 62.60684532 36.27660461 61.88294983 35.50671387 C60.38414191 33.9289105 60.38414191 33.9289105 58 32 C56.68 32 55.36 32 54 32 C54 32.66 54 33.32 54 34 C53.34 34 52.68 34 52 34 C51.75378906 34.57073242 51.50757813 35.14146484 51.25390625 35.72949219 C49.79101003 38.3784281 48.07354681 40.18548546 45.9375 42.328125 C45.14085937 43.12734375 44.34421875 43.9265625 43.5234375 44.75 C42.69070312 45.575 41.85796875 46.4 41 47.25 C39.75089844 48.51070312 39.75089844 48.51070312 38.4765625 49.796875 C37.67992187 50.5909375 36.88328125 51.385 36.0625 52.203125 C35.33160156 52.93176758 34.60070312 53.66041016 33.84765625 54.41113281 C32 56 32 56 30 56 C30 56.66 30 57.32 30 58 C28.61694336 59.42114258 28.61694336 59.42114258 26.65234375 61.08203125 C25.92128418 61.70803223 25.19022461 62.3340332 24.43701172 62.97900391 C22.80050591 64.33614627 21.14804887 65.67426177 19.48095703 66.99365234 C6.32178989 77.39992326 6.32178989 77.39992326 0.48046875 92.53515625 C-0.02477741 99.47569348 0.58477989 105.94125809 1 113 C10.24 113 19.48 113 29 113 C29 113.33 29 113.66 29 114 C19.43 114 9.86 114 0 114 C-3.15587798 88.02469666 -3.15587798 88.02469666 2.55175781 80.02734375 C9.29887267 71.69110283 17.65443722 64.68088935 26 58 C24.45092605 53.97653552 21.87929579 52.06567316 18.5546875 49.4140625 C-0.02422049 33.80436868 -0.02422049 33.80436868 -1.4213562 23.84481812 C-2.04551428 15.87080231 -1.26450343 7.87882907 0 0 Z " fill="#C7E4BA" transform="translate(43,43)"/>
</svg>
