<svg width="20" height="20" viewBox="0 0 20 20" fill="none" xmlns="http://www.w3.org/2000/svg">
<path d="M9.275 11.6667C9.275 12.0636 9.6031 12.3917 10 12.3917C10.3969 12.3917 10.725 12.0636 10.725 11.6667V7.5C10.725 7.1031 10.3969 6.775 10 6.775C9.6031 6.775 9.275 7.1031 9.275 7.5V11.6667Z" fill="#670C0E" stroke="#670C0E" stroke-width="0.2"/>
<path d="M9.81673 15.082L9.81673 15.082L9.81903 15.0824L9.82302 15.0829C9.87843 15.0909 9.94266 15.1 9.99984 15.1C10.0584 15.1 10.1233 15.0906 10.1735 15.0822C10.2404 15.0725 10.2985 15.0535 10.3549 15.026C10.412 15.0062 10.4677 14.9777 10.522 14.9416L10.5222 14.9419L10.529 14.9365L10.654 14.8365L10.6546 14.8372L10.6641 14.8272C10.8305 14.6515 10.9332 14.4107 10.9332 14.1667C10.9332 13.9228 10.8305 13.6819 10.6641 13.5063L10.6648 13.5056L10.654 13.497L10.5915 13.447L10.529 13.397L10.5292 13.3967L10.522 13.3918C10.4677 13.3557 10.412 13.3272 10.3549 13.3075C10.2996 13.2805 10.2426 13.2617 10.1774 13.2518C10.0631 13.2242 9.93356 13.2247 9.81364 13.2519C9.75614 13.2618 9.6998 13.2806 9.64478 13.3075C9.58764 13.3272 9.53194 13.3557 9.4777 13.3918L9.47749 13.3915L9.4707 13.397L9.3457 13.497L9.3451 13.4962L9.33558 13.5063C9.16917 13.6819 9.0665 13.9228 9.0665 14.1667C9.0665 14.4107 9.16917 14.6515 9.33558 14.8272L9.33488 14.8278L9.3457 14.8365L9.4707 14.9365L9.47046 14.9368L9.4777 14.9416C9.53194 14.9777 9.58764 15.0062 9.64478 15.026C9.70078 15.0533 9.75815 15.0723 9.81673 15.082Z" fill="#670C0E" stroke="#670C0E" stroke-width="0.2"/>
<path d="M1.36394 16.8589L1.36424 16.8594C2.02103 17.9656 3.30209 18.5667 4.95022 18.5667H15.0502C16.6983 18.5667 17.9792 17.9656 18.636 16.868L18.6364 16.8674C19.2934 15.7523 19.1903 14.3463 18.3876 12.9014L13.3376 3.80977L13.3376 3.80976C12.4939 2.29102 11.316 1.43333 10.0002 1.43333C8.68448 1.43333 7.50657 2.29101 6.66282 3.80973C6.66282 3.80974 6.66281 3.80975 6.66281 3.80976L1.61282 12.8931L1.61281 12.8931C0.809917 14.3383 0.715634 15.7524 1.36394 16.8589ZM2.88757 13.607L2.88768 13.6068L7.92908 4.51562C7.92912 4.51555 7.92916 4.51549 7.9292 4.51542C8.531 3.4438 9.27128 2.88333 10.0002 2.88333C10.7292 2.88333 11.4695 3.44384 12.0713 4.51552C12.0713 4.51555 12.0713 4.51559 12.0714 4.51562L17.1294 13.6067C17.6885 14.6181 17.7712 15.5018 17.3975 16.1323C17.0235 16.7636 16.2089 17.125 15.0586 17.125H4.95856C3.80752 17.125 2.98565 16.7632 2.62005 16.1331C2.25365 15.5017 2.32917 14.6088 2.88757 13.607Z" fill="#670C0E" stroke="#670C0E" stroke-width="0.2"/>
</svg>
