<svg width="87" height="78" viewBox="0 0 87 78" fill="none" xmlns="http://www.w3.org/2000/svg">
<path d="M43.3652 78H10.9057C2.52284 78 -2.71604 68.9256 1.47506 61.6662L17.7051 33.555L33.9352 5.44455C38.1263 -1.81485 48.6047 -1.81485 52.7964 5.44455L69.0265 33.555L85.2566 61.6662C89.4477 68.9256 84.2088 78 75.826 78H43.3652Z" fill="#E03130"/>
<path d="M78.3112 64.9149C78.3112 64.9149 78.4019 65.0826 78.565 65.4192C78.689 65.7676 78.8945 66.3019 78.8938 67.0398C78.9115 67.7679 78.7307 68.7008 78.1344 69.6031C77.8317 70.0455 77.4331 70.48 76.9118 70.8212C76.3873 71.1533 75.7453 71.3842 75.0452 71.4312C69.5141 71.4905 61.5266 71.4808 51.6484 71.5049C41.7689 71.5153 30.0099 71.5277 16.9531 71.5414C15.3208 71.5427 13.6682 71.5434 11.9968 71.5447C10.2365 71.5832 8.56311 70.3325 7.99746 68.6513C7.69866 67.8194 7.63406 66.8969 7.83305 66.0233C7.88981 65.8074 7.96027 65.594 8.03073 65.382C8.12599 65.1804 8.21667 64.971 8.31714 64.7759L8.94281 63.6309C9.77921 62.101 10.6241 60.5561 11.4761 58.9975C14.8863 52.7644 18.4165 46.31 22.0322 39.7005C25.6511 33.0896 29.1846 26.6346 32.5973 20.4008C34.304 17.2842 35.9814 14.2231 37.6235 11.2252C38.0424 10.4769 38.4247 9.72796 38.867 8.99139C39.3139 8.24699 39.9409 7.60436 40.6931 7.17833C42.1898 6.3054 44.0778 6.24474 45.6019 6.95847C46.3626 7.31273 47.0431 7.84249 47.5415 8.50795C48.0321 9.19038 48.3714 9.90672 48.7622 10.6009C49.5248 11.9971 50.2771 13.3743 51.0182 14.732C52.5005 17.4467 53.9397 20.0831 55.3313 22.6314C58.1125 27.7287 60.7033 32.4776 63.0683 36.8129C67.7872 45.4828 71.6057 52.5001 74.2506 57.3593C75.5613 59.783 76.5797 61.6665 77.2758 62.9537C77.6151 63.5892 77.8754 64.0759 78.0548 64.4125C78.2297 64.742 78.3112 64.9149 78.3112 64.9149C78.3112 64.9149 78.2094 64.7531 78.0255 64.4288C77.8389 64.0955 77.5688 63.6146 77.2165 62.9864C76.5073 61.7063 75.4706 59.8332 74.1358 57.4226C71.4687 52.5758 67.6175 45.5761 62.8588 36.9284C60.4821 32.5989 57.8796 27.8566 55.0853 22.7664C53.6892 20.2207 52.2447 17.5876 50.7572 14.8749C50.0135 13.5185 49.2593 12.1425 48.4947 10.7477C48.1058 10.0574 47.7496 9.32151 47.2962 8.69585C46.8258 8.06888 46.1858 7.57369 45.4707 7.24162C44.038 6.57224 42.2569 6.63227 40.8549 7.453C40.149 7.85293 39.5625 8.45642 39.1423 9.15776C38.715 9.86954 38.3229 10.6374 37.9086 11.3805C36.2691 14.3797 34.5944 17.4427 32.8896 20.5606C29.4788 26.7957 25.9473 33.2514 22.3303 39.8636C18.712 46.4725 15.1799 52.9249 11.7684 59.1573C10.9151 60.7153 10.0695 62.2596 9.23183 63.7888C8.83125 64.5672 8.32106 65.2848 8.15143 66.0977C7.96614 66.9087 8.02551 67.7659 8.30278 68.541C8.83254 70.1101 10.3709 71.2583 11.9968 71.2263C13.6682 71.2276 15.3208 71.2283 16.9531 71.2296C30.0099 71.2433 41.7689 71.2557 51.6484 71.2661C61.5168 71.2811 69.505 71.2929 75.0368 71.3007C75.7146 71.2603 76.337 71.0423 76.8498 70.7246C77.3594 70.3978 77.7514 69.9776 78.0516 69.5483C78.6426 68.6721 78.8325 67.7588 78.826 67.0417C78.7992 65.5777 78.2486 64.9266 78.3112 64.9149Z" fill="white"/>
<path d="M38.1055 58.9063C38.1055 56.0279 40.3987 53.8814 43.6673 53.8814C46.9359 53.8814 49.1802 56.0279 49.1802 58.9063C49.1802 61.7365 46.9359 64.0297 43.6673 64.0297C40.3987 64.0297 38.1055 61.7365 38.1055 58.9063ZM38.1544 29.4375H49.1808L47.3267 51.1491H39.9596L38.1544 29.4375Z" fill="white"/>
</svg>
