<svg width="21" height="24" viewBox="0 0 21 24" fill="none" xmlns="http://www.w3.org/2000/svg">
<g clip-path="url(#clip0_2286_24732)">
<path d="M9.775 13.6667C9.775 14.0636 10.1031 14.3917 10.5 14.3917C10.8969 14.3917 11.225 14.0636 11.225 13.6667V9.5C11.225 9.1031 10.8969 8.775 10.5 8.775C10.1031 8.775 9.775 9.1031 9.775 9.5V13.6667Z" fill="#E4BC2E" stroke="#E4BC2E" stroke-width="0.2"/>
<path d="M10.3167 17.0828L10.3167 17.0828L10.319 17.0831L10.323 17.0837C10.3784 17.0916 10.4427 17.1008 10.4998 17.1008C10.5584 17.1008 10.6233 17.0913 10.6735 17.0829C10.7404 17.0733 10.7985 17.0542 10.8549 17.0267C10.912 17.0069 10.9677 16.9785 11.022 16.9423L11.0222 16.9426L11.029 16.9372L11.154 16.8372L11.1546 16.8379L11.1641 16.8279C11.3305 16.6522 11.4332 16.4114 11.4332 16.1674C11.4332 15.9235 11.3305 15.6827 11.1641 15.507L11.1648 15.5064L11.154 15.4977L11.0915 15.4477L11.029 15.3977L11.0292 15.3974L11.022 15.3926C10.9677 15.3564 10.912 15.328 10.8549 15.3082C10.7996 15.2812 10.7426 15.2624 10.6774 15.2525C10.5631 15.2249 10.4336 15.2255 10.3136 15.2527C10.2561 15.2626 10.1998 15.2814 10.1448 15.3082C10.0876 15.328 10.0319 15.3564 9.9777 15.3926L9.97749 15.3923L9.9707 15.3977L9.8457 15.4977L9.8451 15.4969L9.83558 15.507C9.66917 15.6827 9.5665 15.9235 9.5665 16.1674C9.5665 16.4114 9.66917 16.6522 9.83558 16.8279L9.83488 16.8285L9.8457 16.8372L9.9707 16.9372L9.97046 16.9375L9.9777 16.9423C10.0319 16.9785 10.0876 17.0069 10.1448 17.0267C10.2008 17.054 10.2582 17.073 10.3167 17.0828Z" fill="#E4BC2E" stroke="#E4BC2E" stroke-width="0.2"/>
<path d="M1.86394 18.8588L1.86424 18.8593C2.52103 19.9654 3.80209 20.5665 5.45022 20.5665H15.5502C17.1983 20.5665 18.4792 19.9655 19.136 18.8679L19.1364 18.8673C19.7934 17.7522 19.6903 16.3461 18.8876 14.9013L13.8376 5.80965L13.8376 5.80964C12.9939 4.2909 11.816 3.4332 10.5002 3.4332C9.18448 3.4332 8.00657 4.29089 7.16282 5.80961C7.16282 5.80962 7.16281 5.80963 7.16281 5.80964L2.11282 14.8929L2.11281 14.893C1.30992 16.3382 1.21563 17.7523 1.86394 18.8588ZM3.38757 15.6069L3.38768 15.6067L8.42908 6.5155C8.42912 6.51543 8.42916 6.51537 8.4292 6.5153C9.031 5.44368 9.77128 4.8832 10.5002 4.8832C11.2292 4.8832 11.9695 5.44372 12.5713 6.51539C12.5713 6.51543 12.5713 6.51546 12.5714 6.5155L17.6294 15.6066C18.1885 16.618 18.2712 17.5017 17.8975 18.1322C17.5235 18.7635 16.7089 19.1249 15.5586 19.1249H5.45856C4.30752 19.1249 3.48565 18.7631 3.12005 18.133C2.75365 17.5016 2.82917 16.6087 3.38757 15.6069Z" fill="#E4BC2E" stroke="#E4BC2E" stroke-width="0.2"/>
</g>
<defs>
<clipPath id="clip0_2286_24732">
<rect width="20" height="24" fill="white" transform="translate(0.5)"/>
</clipPath>
</defs>
</svg>
