<svg width="20" height="20" viewBox="0 0 20 20" fill="none" xmlns="http://www.w3.org/2000/svg">
<path d="M9.275 11.6667C9.275 12.0636 9.6031 12.3917 10 12.3917C10.3969 12.3917 10.725 12.0636 10.725 11.6667V7.5C10.725 7.1031 10.3969 6.775 10 6.775C9.6031 6.775 9.275 7.1031 9.275 7.5V11.6667Z" fill="#A72A2A" stroke="#A72A2A" stroke-width="0.2"/>
<path d="M9.81697 15.082L9.81697 15.082L9.81927 15.0824L9.82327 15.0829C9.87867 15.0909 9.9429 15.1 10.0001 15.1C10.0586 15.1 10.1236 15.0906 10.1737 15.0822C10.2406 15.0725 10.2987 15.0535 10.3551 15.026C10.4123 15.0062 10.468 14.9777 10.5222 14.9416L10.5224 14.9419L10.5292 14.9365L10.6542 14.8365L10.6548 14.8372L10.6643 14.8272C10.8307 14.6515 10.9334 14.4107 10.9334 14.1667C10.9334 13.9228 10.8307 13.6819 10.6643 13.5063L10.665 13.5056L10.6542 13.497L10.5917 13.447L10.5292 13.397L10.5295 13.3967L10.5222 13.3918C10.468 13.3557 10.4123 13.3272 10.3551 13.3075C10.2998 13.2805 10.2429 13.2617 10.1777 13.2518C10.0633 13.2242 9.9338 13.2247 9.81389 13.2519C9.75638 13.2618 9.70004 13.2806 9.64502 13.3075C9.58788 13.3272 9.53219 13.3557 9.47794 13.3918L9.47774 13.3915L9.47094 13.397L9.34595 13.497L9.34535 13.4962L9.33582 13.5063C9.16942 13.6819 9.06675 13.9228 9.06675 14.1667C9.06675 14.4107 9.16942 14.6515 9.33582 14.8272L9.33513 14.8278L9.34595 14.8365L9.47094 14.9365L9.47071 14.9368L9.47794 14.9416C9.53219 14.9777 9.58788 15.0062 9.64502 15.026C9.70103 15.0533 9.7584 15.0723 9.81697 15.082Z" fill="#A72A2A" stroke="#A72A2A" stroke-width="0.2"/>
<path d="M1.3637 16.8589L1.36399 16.8594C2.02079 17.9656 3.30185 18.5667 4.94998 18.5667H15.05C16.698 18.5667 17.9789 17.9656 18.6358 16.868L18.6361 16.8674C19.2931 15.7523 19.1901 14.3463 18.3874 12.9014L13.3374 3.80977L13.3374 3.80976C12.4936 2.29102 11.3157 1.43333 9.99998 1.43333C8.68423 1.43333 7.50632 2.29101 6.66258 3.80973C6.66257 3.80974 6.66257 3.80975 6.66256 3.80976L1.61258 12.8931L1.61256 12.8931C0.809673 14.3383 0.71539 15.7524 1.3637 16.8589ZM2.88733 13.607L2.88743 13.6068L7.92884 4.51562C7.92888 4.51555 7.92892 4.51549 7.92895 4.51542C8.53076 3.4438 9.27103 2.88333 9.99998 2.88333C10.729 2.88333 11.4692 3.44384 12.0711 4.51552C12.0711 4.51555 12.0711 4.51559 12.0711 4.51562L17.1291 13.6067C17.6883 14.6181 17.7709 15.5018 17.3973 16.1323C17.0232 16.7636 16.2086 17.125 15.0583 17.125H4.95831C3.80728 17.125 2.98541 16.7632 2.61981 16.1331C2.25341 15.5017 2.32893 14.6088 2.88733 13.607Z" fill="#A72A2A" stroke="#A72A2A" stroke-width="0.2"/>
</svg>
