<svg width="61" height="53" viewBox="0 0 61 53" fill="none" xmlns="http://www.w3.org/2000/svg">
<path d="M5.09435 22.1239L7.09786 27.7131C7.46561 28.7392 8.55677 29.2583 9.53487 28.8725L14.8631 26.7707C15.4851 28.5058 17.3302 29.3851 18.9862 28.7319C20.6402 28.0794 21.4778 26.1419 20.8558 24.4068L26.1821 22.3059C27.1602 21.9202 27.655 20.7756 27.2871 19.7494L25.2829 14.1581C25.3016 14.153 25.3196 14.1461 25.3376 14.1389C26.9916 13.4865 27.8299 11.551 27.2072 9.81386C26.5852 8.0788 24.7381 7.20024 23.0841 7.8527C23.0661 7.85983 23.0481 7.86697 23.0309 7.876L21.0273 2.28678C20.6596 1.26077 19.5684 0.741659 18.5903 1.12758L13.2641 3.22844C13.8861 4.96351 13.0484 6.90105 11.3945 7.5535C9.73847 8.20675 7.89337 7.32725 7.27138 5.59234L1.9433 7.69414C0.965205 8.07991 0.470337 9.22451 0.838239 10.2505L2.84099 15.8377C4.49504 15.1852 6.3421 16.0639 6.96409 17.7989C7.58668 19.5361 6.7484 21.4716 5.09435 22.1239Z" fill="#C4DAFF"/>
<path d="M48.0412 25.6507L53.4821 26.9509C54.4808 27.1895 55.4755 26.5357 55.7035 25.4902L56.9458 19.7958C58.6347 20.1994 60.3179 19.0945 60.7041 17.3248C61.0897 15.5572 60.0319 13.795 58.343 13.3913L59.5848 7.69911C59.8129 6.65379 59.188 5.61281 58.1892 5.37413L52.7463 4.07353C52.7525 4.05476 52.7567 4.03553 52.761 4.01645C53.1466 2.24887 52.0909 0.487175 50.3999 0.0830044C48.711 -0.320545 47.0273 0.786502 46.6416 2.55409C46.6374 2.57332 46.6333 2.59255 46.6311 2.61225L41.1902 1.31211C40.1915 1.07342 39.1968 1.72729 38.9688 2.77277L37.727 8.46496C39.4158 8.86851 40.4736 10.6307 40.088 12.3984C39.702 14.1682 38.0187 15.273 36.3297 14.8695L35.0875 20.5639C34.8594 21.6092 35.4841 22.6502 36.4831 22.8888L41.9218 24.1885C42.3074 22.4209 43.9911 21.3139 45.6802 21.7174C47.3711 22.1214 48.4268 23.8831 48.0412 25.6507Z" fill="#BD99FF"/>
<path d="M14.9825 30.0002H9.28407C8.23831 30.0002 7.39069 30.9033 7.39069 32.0176V38.087V44.9132V50.9826C7.39069 52.0969 8.23846 53 9.28407 53H14.9804H21.387H27.0834C28.1291 53 28.9768 52.0967 28.9768 50.9826V44.9132C30.7451 44.9132 32.1802 43.3841 32.1802 41.5C32.1802 39.6159 30.7451 38.0868 28.9768 38.0868V32.0174C28.9768 30.9031 28.129 30 27.0834 30H21.3849C21.3571 31.8567 19.9327 33.3539 18.1837 33.3539C16.4347 33.354 15.0104 31.8569 14.9825 30.0002Z" fill="#76A6F5"/>
<path d="M33.1338 45.0374V51.0142C33.1338 52.111 33.995 53 35.0572 53H40.844H47.3524H53.1391C54.2015 53 55.0628 52.1108 55.0628 51.0142V45.0396V38.3202V32.3457C55.0628 31.2488 54.2015 30.3598 53.1391 30.3598H47.3524C47.3524 28.5052 45.8945 27 44.0981 27C42.3017 27 40.8438 28.5052 40.8438 30.3598H35.0571C33.9947 30.3598 33.1336 31.249 33.1336 32.3457V38.3224C34.9039 38.3516 36.3315 39.8455 36.3315 41.68C36.3315 43.5143 34.904 45.0084 33.1338 45.0374Z" fill="#C4DAFF"/>
</svg>
