<svg width="792" height="168" viewBox="0 0 792 168" fill="none" xmlns="http://www.w3.org/2000/svg">
<rect width="792" height="168" fill="white"/>
<g filter="url(#filter0_d_1263_28788)">
<rect x="616" y="16" width="136" height="136" rx="68" fill="#E8EFFF" fill-opacity="0.2" shape-rendering="crispEdges"/>
<rect x="616" y="16" width="136" height="136" rx="68" fill="white" fill-opacity="0.15" shape-rendering="crispEdges"/>
<g filter="url(#filter1_d_1263_28788)">
<rect x="632" y="32" width="104" height="104" rx="52" fill="white" fill-opacity="0.5" shape-rendering="crispEdges"/>
<g filter="url(#filter2_d_1263_28788)">
<rect x="648" y="48" width="72" height="72" rx="36" fill="white"/>
<path d="M664.92 92.0321L678.2 69.2969C679.887 70.29 688.393 74.9976 689.767 75.8927L676.487 98.6293C675.035 100.548 663.08 94.9438 664.92 92.0307V92.0321Z" fill="#FBBC04"/>
<path d="M703.076 92.0315L689.796 69.2977C687.939 66.2081 683.941 65.0853 680.656 66.9102C677.372 68.735 676.372 72.666 678.229 75.8936L691.509 98.6301C693.365 101.718 697.364 102.841 700.648 101.016C703.789 99.1915 704.932 95.1212 703.076 92.0343V92.0315Z" fill="#4285F4"/>
<path d="M670.666 101.895C674.348 101.895 677.332 98.9845 677.332 95.3942C677.332 91.804 674.348 88.8936 670.666 88.8936C666.985 88.8936 664 91.804 664 95.3942C664 98.9845 666.985 101.895 670.666 101.895Z" fill="#34A853"/>
</g>
</g>
</g>
<path d="M608 84.1562L598 78.3827L598 89.9297L608 84.1562ZM478.492 85.1562C479.045 85.1562 479.492 84.7085 479.492 84.1562C479.492 83.604 479.045 83.1562 478.492 83.1562L478.492 85.1562ZM483.417 83.1562C482.864 83.1562 482.417 83.604 482.417 84.1562C482.417 84.7085 482.864 85.1562 483.417 85.1562L483.417 83.1562ZM484.402 85.1562C484.954 85.1562 485.402 84.7085 485.402 84.1562C485.402 83.604 484.954 83.1562 484.402 83.1562L484.402 85.1562ZM489.326 83.1562C488.773 83.1562 488.326 83.604 488.326 84.1562C488.326 84.7085 488.773 85.1562 489.326 85.1562L489.326 83.1562ZM490.311 85.1562C490.863 85.1562 491.311 84.7085 491.311 84.1562C491.311 83.604 490.863 83.1562 490.311 83.1562L490.311 85.1562ZM495.235 83.1562C494.683 83.1562 494.235 83.604 494.235 84.1562C494.235 84.7085 494.683 85.1562 495.235 85.1562L495.235 83.1562ZM496.22 85.1562C496.772 85.1562 497.22 84.7085 497.22 84.1562C497.22 83.604 496.772 83.1562 496.22 83.1562L496.22 85.1562ZM501.144 83.1562C500.592 83.1562 500.144 83.604 500.144 84.1562C500.144 84.7085 500.592 85.1562 501.144 85.1562L501.144 83.1562ZM502.129 85.1562C502.681 85.1562 503.129 84.7085 503.129 84.1562C503.129 83.604 502.681 83.1562 502.129 83.1562L502.129 85.1562ZM507.053 83.1562C506.501 83.1562 506.053 83.604 506.053 84.1562C506.053 84.7085 506.501 85.1562 507.053 85.1562L507.053 83.1562ZM508.038 85.1562C508.59 85.1562 509.038 84.7085 509.038 84.1562C509.038 83.604 508.59 83.1562 508.038 83.1562L508.038 85.1562ZM512.962 83.1562C512.41 83.1562 511.962 83.604 511.962 84.1562C511.962 84.7085 512.41 85.1562 512.962 85.1562L512.962 83.1562ZM513.947 85.1562C514.499 85.1562 514.947 84.7085 514.947 84.1562C514.947 83.604 514.499 83.1562 513.947 83.1562L513.947 85.1562ZM518.871 83.1562C518.319 83.1562 517.871 83.604 517.871 84.1562C517.871 84.7085 518.319 85.1562 518.871 85.1562L518.871 83.1562ZM519.856 85.1562C520.408 85.1562 520.856 84.7085 520.856 84.1562C520.856 83.604 520.408 83.1562 519.856 83.1562L519.856 85.1562ZM524.78 83.1562C524.228 83.1562 523.78 83.604 523.78 84.1562C523.78 84.7085 524.228 85.1562 524.78 85.1562L524.78 83.1562ZM525.765 85.1562C526.317 85.1562 526.765 84.7085 526.765 84.1562C526.765 83.604 526.317 83.1562 525.765 83.1562L525.765 85.1562ZM530.689 83.1562C530.137 83.1562 529.689 83.604 529.689 84.1562C529.689 84.7085 530.137 85.1562 530.689 85.1562L530.689 83.1562ZM531.674 85.1562C532.227 85.1562 532.674 84.7085 532.674 84.1562C532.674 83.604 532.227 83.1562 531.674 83.1562L531.674 85.1562ZM536.598 83.1562C536.046 83.1562 535.598 83.604 535.598 84.1562C535.598 84.7085 536.046 85.1562 536.598 85.1562L536.598 83.1562ZM537.583 85.1562C538.136 85.1562 538.583 84.7085 538.583 84.1562C538.583 83.604 538.136 83.1562 537.583 83.1562L537.583 85.1562ZM542.508 83.1562C541.955 83.1562 541.508 83.604 541.508 84.1562C541.508 84.7085 541.955 85.1562 542.508 85.1562L542.508 83.1562ZM543.492 85.1562C544.045 85.1562 544.492 84.7085 544.492 84.1562C544.492 83.604 544.045 83.1562 543.492 83.1562L543.492 85.1562ZM548.417 83.1562C547.864 83.1562 547.417 83.604 547.417 84.1562C547.417 84.7085 547.864 85.1562 548.417 85.1562L548.417 83.1562ZM549.402 85.1562C549.954 85.1562 550.402 84.7085 550.402 84.1562C550.402 83.604 549.954 83.1562 549.402 83.1562L549.402 85.1562ZM554.326 83.1562C553.773 83.1562 553.326 83.604 553.326 84.1562C553.326 84.7085 553.773 85.1562 554.326 85.1562L554.326 83.1562ZM555.311 85.1562C555.863 85.1562 556.311 84.7085 556.311 84.1562C556.311 83.604 555.863 83.1562 555.311 83.1562L555.311 85.1562ZM560.235 83.1562C559.683 83.1562 559.235 83.604 559.235 84.1562C559.235 84.7085 559.683 85.1562 560.235 85.1562L560.235 83.1562ZM561.22 85.1562C561.772 85.1562 562.22 84.7085 562.22 84.1562C562.22 83.604 561.772 83.1562 561.22 83.1562L561.22 85.1562ZM566.144 83.1562C565.592 83.1562 565.144 83.6039 565.144 84.1562C565.144 84.7085 565.592 85.1562 566.144 85.1562L566.144 83.1562ZM567.129 85.1562C567.681 85.1562 568.129 84.7085 568.129 84.1562C568.129 83.6039 567.681 83.1562 567.129 83.1562L567.129 85.1562ZM572.053 83.1562C571.501 83.1562 571.053 83.6039 571.053 84.1562C571.053 84.7085 571.501 85.1562 572.053 85.1562L572.053 83.1562ZM573.038 85.1562C573.59 85.1562 574.038 84.7085 574.038 84.1562C574.038 83.6039 573.59 83.1562 573.038 83.1562L573.038 85.1562ZM577.962 83.1562C577.41 83.1562 576.962 83.6039 576.962 84.1562C576.962 84.7085 577.41 85.1562 577.962 85.1562L577.962 83.1562ZM578.947 85.1562C579.499 85.1562 579.947 84.7085 579.947 84.1562C579.947 83.6039 579.499 83.1562 578.947 83.1562L578.947 85.1562ZM583.871 83.1562C583.319 83.1562 582.871 83.6039 582.871 84.1562C582.871 84.7085 583.319 85.1562 583.871 85.1562L583.871 83.1562ZM584.856 85.1562C585.408 85.1562 585.856 84.7085 585.856 84.1562C585.856 83.6039 585.408 83.1562 584.856 83.1562L584.856 85.1562ZM589.78 83.1562C589.228 83.1562 588.78 83.6039 588.78 84.1562C588.78 84.7085 589.228 85.1562 589.78 85.1562L589.78 83.1562ZM590.765 85.1562C591.317 85.1562 591.765 84.7085 591.765 84.1562C591.765 83.6039 591.317 83.1562 590.765 83.1562L590.765 85.1562ZM595.689 83.1562C595.137 83.1562 594.689 83.6039 594.689 84.1562C594.689 84.7085 595.137 85.1562 595.689 85.1562L595.689 83.1562ZM596.674 85.1562C597.227 85.1562 597.674 84.7085 597.674 84.1562C597.674 83.6039 597.227 83.1562 596.674 83.1562L596.674 85.1562ZM601.598 83.1562C601.046 83.1562 600.598 83.6039 600.598 84.1562C600.598 84.7085 601.046 85.1562 601.598 85.1562L601.598 83.1562ZM602.583 85.1562C603.136 85.1562 603.583 84.7085 603.583 84.1562C603.583 83.6039 603.136 83.1562 602.583 83.1562L602.583 85.1562ZM607.508 83.1562C606.955 83.1562 606.508 83.6039 606.508 84.1562C606.508 84.7085 606.955 85.1562 607.508 85.1562L607.508 83.1562ZM478 84.1562L478 85.1562L478.492 85.1562L478.492 84.1562L478.492 83.1562L478 83.1562L478 84.1562ZM483.417 84.1562L483.417 85.1562L484.402 85.1562L484.402 84.1562L484.402 83.1562L483.417 83.1562L483.417 84.1562ZM489.326 84.1562L489.326 85.1562L490.311 85.1562L490.311 84.1562L490.311 83.1562L489.326 83.1562L489.326 84.1562ZM495.235 84.1562L495.235 85.1562L496.22 85.1562L496.22 84.1562L496.22 83.1562L495.235 83.1562L495.235 84.1562ZM501.144 84.1562L501.144 85.1562L502.129 85.1562L502.129 84.1562L502.129 83.1562L501.144 83.1562L501.144 84.1562ZM507.053 84.1562L507.053 85.1562L508.038 85.1562L508.038 84.1562L508.038 83.1562L507.053 83.1562L507.053 84.1562ZM512.962 84.1562L512.962 85.1562L513.947 85.1562L513.947 84.1562L513.947 83.1562L512.962 83.1562L512.962 84.1562ZM518.871 84.1562L518.871 85.1562L519.856 85.1562L519.856 84.1562L519.856 83.1562L518.871 83.1562L518.871 84.1562ZM524.78 84.1562L524.78 85.1562L525.765 85.1562L525.765 84.1562L525.765 83.1562L524.78 83.1562L524.78 84.1562ZM530.689 84.1562L530.689 85.1562L531.674 85.1562L531.674 84.1562L531.674 83.1562L530.689 83.1562L530.689 84.1562ZM536.598 84.1562L536.598 85.1562L537.583 85.1562L537.583 84.1562L537.583 83.1562L536.598 83.1562L536.598 84.1562ZM542.508 84.1562L542.508 85.1562L543.492 85.1562L543.492 84.1562L543.492 83.1562L542.508 83.1562L542.508 84.1562ZM548.417 84.1562L548.417 85.1562L549.402 85.1562L549.402 84.1562L549.402 83.1562L548.417 83.1562L548.417 84.1562ZM554.326 84.1562L554.326 85.1562L555.311 85.1562L555.311 84.1562L555.311 83.1562L554.326 83.1562L554.326 84.1562ZM560.235 84.1562L560.235 85.1562L561.22 85.1562L561.22 84.1562L561.22 83.1562L560.235 83.1562L560.235 84.1562ZM566.144 84.1562L566.144 85.1562L567.129 85.1562L567.129 84.1562L567.129 83.1562L566.144 83.1562L566.144 84.1562ZM572.053 84.1562L572.053 85.1562L573.038 85.1562L573.038 84.1562L573.038 83.1562L572.053 83.1562L572.053 84.1562ZM577.962 84.1562L577.962 85.1562L578.947 85.1562L578.947 84.1562L578.947 83.1562L577.962 83.1562L577.962 84.1562ZM583.871 84.1562L583.871 85.1562L584.856 85.1562L584.856 84.1562L584.856 83.1562L583.871 83.1562L583.871 84.1562ZM589.78 84.1562L589.78 85.1562L590.765 85.1562L590.765 84.1562L590.765 83.1562L589.78 83.1562L589.78 84.1562ZM595.689 84.1562L595.689 85.1562L596.674 85.1562L596.674 84.1562L596.674 83.1562L595.689 83.1562L595.689 84.1562ZM601.598 84.1562L601.598 85.1562L602.583 85.1562L602.583 84.1562L602.583 83.1562L601.598 83.1562L601.598 84.1562Z" fill="#E8EFFF"/>
<path d="M608 60.1562L601.53 50.5924L596.482 60.9779L608 60.1562ZM479.335 60.5991C479.827 60.3493 480.024 59.7475 479.774 59.2549C479.525 58.7623 478.923 58.5655 478.43 58.8153L479.335 60.5991ZM482.81 56.6351C482.314 56.8773 482.108 57.4761 482.35 57.9724C482.593 58.4687 483.191 58.6747 483.688 58.4325L482.81 56.6351ZM485.45 57.5797C485.948 57.3409 486.158 56.7435 485.919 56.2456C485.68 55.7476 485.083 55.5376 484.585 55.7765L485.45 57.5797ZM489.021 53.6974C488.518 53.9271 488.297 54.5204 488.527 55.0227C488.757 55.525 489.35 55.7459 489.852 55.5163L489.021 53.6974ZM491.612 54.7201C492.116 54.4944 492.342 53.9029 492.116 53.3988C491.891 52.8947 491.299 52.669 490.795 52.8946L491.612 54.7201ZM495.29 50.9407C494.781 51.1551 494.542 51.7415 494.757 52.2505C494.971 52.7594 495.558 52.9982 496.067 52.7838L495.29 50.9407ZM497.872 52.0334C498.383 51.8239 498.627 51.2399 498.418 50.7288C498.208 50.2178 497.624 49.9734 497.113 50.1828L497.872 52.0334ZM501.678 48.3803C501.162 48.5762 500.902 49.1536 501.098 49.67C501.294 50.1864 501.871 50.4462 502.387 50.2503L501.678 48.3803ZM504.197 49.5756C504.716 49.3856 504.982 48.8112 504.792 48.2926C504.602 47.774 504.028 47.5076 503.509 47.6976L504.197 49.5756ZM508.143 46.0808C507.619 46.2544 507.334 46.8202 507.508 47.3445C507.681 47.8688 508.247 48.153 508.772 47.9794L508.143 46.0808ZM510.628 47.3786C511.155 47.2121 511.447 46.6503 511.281 46.1237C511.114 45.5971 510.552 45.3051 510.026 45.4715L510.628 47.3786ZM514.739 44.0752C514.206 44.2222 513.894 44.7729 514.041 45.3053C514.188 45.8376 514.739 46.1501 515.271 46.0031L514.739 44.0752ZM517.137 45.5036C517.672 45.365 517.993 44.8193 517.854 44.2847C517.716 43.7501 517.17 43.429 516.635 43.5676L517.137 45.5036ZM521.429 42.4307C520.889 42.5466 520.545 43.0783 520.661 43.6183C520.777 44.1583 521.309 44.5021 521.849 44.3862L521.429 42.4307ZM523.739 43.9979C524.281 43.8916 524.635 43.3661 524.528 42.8242C524.422 42.2822 523.897 41.929 523.355 42.0353L523.739 43.9979ZM528.211 41.1999C527.665 41.2805 527.287 41.7888 527.368 42.3352C527.449 42.8816 527.957 43.2591 528.503 43.1785L528.211 41.1999ZM530.42 42.9147C530.968 42.8448 531.356 42.344 531.286 41.7962C531.216 41.2483 530.715 40.8609 530.167 40.9308L530.42 42.9147ZM535.069 40.4305C534.519 40.4726 534.106 40.9531 534.148 41.5037C534.19 42.0544 534.671 42.4668 535.222 42.4247L535.069 40.4305ZM537.151 42.2976C537.703 42.267 538.125 41.7952 538.094 41.2438C538.064 40.6923 537.592 40.2701 537.04 40.3007L537.151 42.2976ZM541.97 40.1567C541.418 40.1583 540.971 40.6073 540.973 41.1596C540.975 41.7119 541.424 42.1583 541.976 42.1566L541.97 40.1567ZM543.907 42.1712C544.459 42.1812 544.914 41.7416 544.924 41.1894C544.934 40.6372 544.495 40.1815 543.943 40.1716L543.907 42.1712ZM548.869 40.3888C548.318 40.3502 547.84 40.7656 547.802 41.3165C547.763 41.8674 548.179 42.3453 548.73 42.3839L548.869 40.3888ZM550.656 42.5384C551.206 42.5881 551.693 42.1826 551.742 41.6325C551.792 41.0825 551.386 40.5963 550.836 40.5465L550.656 42.5384ZM555.731 41.1112C555.184 41.0346 554.678 41.4159 554.601 41.9628C554.525 42.5098 554.906 43.0153 555.453 43.0919L555.731 41.1112ZM557.371 43.3789C557.916 43.4658 558.429 43.0941 558.516 42.5487C558.603 42.0033 558.231 41.4907 557.686 41.4038L557.371 43.3789ZM562.526 42.2871C561.985 42.1761 561.457 42.5246 561.346 43.0656C561.235 43.6066 561.583 44.1352 562.124 44.2463L562.526 42.2871ZM564.016 44.6512C564.555 44.7712 565.089 44.4316 565.209 43.8925C565.329 43.3534 564.99 42.8191 564.451 42.699L564.016 44.6512ZM569.237 43.8656C568.703 43.7245 568.155 44.043 568.014 44.5769C567.873 45.1109 568.192 45.6581 568.726 45.7993L569.237 43.8656ZM570.587 46.3057C571.119 46.4545 571.67 46.144 571.819 45.6121C571.968 45.0803 571.657 44.5285 571.126 44.3797L570.587 46.3057ZM575.834 45.7846C575.308 45.618 574.746 45.9098 574.579 46.4364C574.413 46.9629 574.704 47.5248 575.231 47.6914L575.834 45.7846ZM577.088 48.2918C577.612 48.4649 578.178 48.1801 578.351 47.6557C578.524 47.1312 578.239 46.5657 577.715 46.3926L577.088 48.2918ZM582.348 47.9969C581.829 47.809 581.256 48.0777 581.068 48.597C580.88 49.1164 581.148 49.6897 581.668 49.8776L582.348 47.9969ZM583.484 50.5456C584.002 50.7388 584.578 50.4761 584.771 49.9587C584.964 49.4413 584.701 48.8653 584.184 48.672L583.484 50.5456ZM588.758 50.4438C588.246 50.2384 587.664 50.4875 587.458 51.0002C587.253 51.5128 587.502 52.0949 588.015 52.3004L588.758 50.4438ZM589.825 53.0347C590.336 53.2446 590.92 53.0005 591.13 52.4896C591.339 51.9788 591.095 51.3945 590.584 51.1847L589.825 53.0347ZM595.098 53.0911C594.591 52.8714 594.002 53.104 593.782 53.6107C593.563 54.1174 593.795 54.7062 594.302 54.926L595.098 53.0911ZM596.073 55.7017C596.579 55.925 597.169 55.6965 597.392 55.1914C597.616 54.6863 597.387 54.0958 596.882 53.8725L596.073 55.7017ZM601.344 55.8888C600.843 55.6575 600.249 55.8765 600.017 56.378C599.786 56.8794 600.005 57.4735 600.506 57.7049L601.344 55.8888ZM602.283 58.5307C602.783 58.765 603.378 58.5495 603.613 58.0493C603.847 57.5492 603.631 56.9539 603.131 56.7196L602.283 58.5307ZM607.546 58.8236C607.049 58.5828 606.451 58.7905 606.21 59.2876C605.969 59.7846 606.177 60.3827 606.674 60.6235L607.546 58.8236ZM478 60.1562L478.455 61.0468C478.749 60.8967 479.042 60.7474 479.335 60.5991L478.882 59.7072L478.43 58.8153C478.136 58.9645 477.841 59.1146 477.545 59.2657L478 60.1562ZM483.249 57.5338L483.688 58.4325C484.278 58.1443 484.865 57.8601 485.45 57.5797L485.017 56.6781L484.585 55.7765C483.996 56.0588 483.405 56.345 482.81 56.6351L483.249 57.5338ZM489.437 54.6068L489.852 55.5163C490.442 55.2467 491.028 54.9813 491.612 54.7201L491.204 53.8073L490.795 52.8946C490.206 53.1581 489.615 53.4257 489.021 53.6974L489.437 54.6068ZM495.678 51.8622L496.067 52.7838C496.671 52.529 497.273 52.2789 497.872 52.0334L497.492 51.1081L497.113 50.1828C496.508 50.4308 495.901 50.6834 495.29 50.9407L495.678 51.8622ZM502.033 49.3153L502.387 50.2503C502.994 50.0204 503.597 49.7955 504.197 49.5756L503.853 48.6366L503.509 47.6976C502.902 47.9202 502.291 48.1478 501.678 48.3803L502.033 49.3153ZM508.457 47.0301L508.772 47.9794C509.393 47.7736 510.012 47.5733 510.628 47.3786L510.327 46.425L510.026 45.4715C509.401 45.6691 508.773 45.8722 508.143 46.0808L508.457 47.0301ZM515.005 45.0392L515.271 46.0031C515.895 45.8307 516.517 45.6643 517.137 45.5036L516.886 44.5356L516.635 43.5676C516.005 43.7309 515.373 43.9001 514.739 44.0752L515.005 45.0392ZM521.639 43.4085L521.849 44.3862C522.481 44.2505 523.111 44.1211 523.739 43.9979L523.547 43.0166L523.355 42.0353C522.714 42.1608 522.073 42.2926 521.429 42.4307L521.639 43.4085ZM528.357 42.1892L528.503 43.1785C529.144 43.084 529.782 42.996 530.42 42.9147L530.294 41.9227L530.167 40.9308C529.516 41.0138 528.864 41.1035 528.211 41.1999L528.357 42.1892ZM535.145 41.4276L535.222 42.4247C535.865 42.3756 536.508 42.3332 537.151 42.2976L537.096 41.2991L537.04 40.3007C536.384 40.3371 535.727 40.3803 535.069 40.4305L535.145 41.4276ZM541.973 41.1567L541.976 42.1566C542.619 42.1548 543.263 42.1596 543.907 42.1712L543.925 41.1714L543.943 40.1716C543.285 40.1597 542.628 40.1547 541.97 40.1567L541.973 41.1567ZM548.799 41.3863L548.73 42.3839C549.371 42.4288 550.013 42.4803 550.656 42.5384L550.746 41.5425L550.836 40.5465C550.18 40.4872 549.524 40.4346 548.869 40.3888L548.799 41.3863ZM555.592 42.1015L555.453 43.0919C556.091 43.1812 556.73 43.2769 557.371 43.3789L557.528 42.3914L557.686 41.4038C557.033 41.2998 556.381 41.2022 555.731 41.1112L555.592 42.1015ZM562.325 43.2667L562.124 44.2463C562.753 44.3753 563.383 44.5102 564.016 44.6512L564.233 43.6751L564.451 42.699C563.807 42.5557 563.166 42.4184 562.526 42.2871L562.325 43.2667ZM568.981 44.8324L568.726 45.7993C569.344 45.9626 569.964 46.1314 570.587 46.3057L570.856 45.3427L571.126 44.3797C570.494 44.2028 569.864 44.0315 569.237 43.8656L568.981 44.8324ZM575.533 46.738L575.231 47.6914C575.847 47.8864 576.466 48.0865 577.088 48.2918L577.401 47.3422L577.715 46.3926C577.085 46.1848 576.458 45.9821 575.834 45.7846L575.533 46.738ZM582.008 48.9372L581.668 49.8776C582.27 50.0957 582.876 50.3183 583.484 50.5456L583.834 49.6088L584.184 48.672C583.569 48.4424 582.957 48.2174 582.348 47.9969L582.008 48.9372ZM588.387 51.3721L588.015 52.3004C588.615 52.5409 589.218 52.7857 589.825 53.0347L590.205 52.1097L590.584 51.1847C589.973 50.9335 589.364 50.6866 588.758 50.4438L588.387 51.3721ZM594.7 54.0085L594.302 54.926C594.889 55.1808 595.48 55.4394 596.073 55.7017L596.478 54.7871L596.882 53.8725C596.284 53.6083 595.69 53.3478 595.098 53.0911L594.7 54.0085ZM600.925 56.7969L600.506 57.7049C601.096 57.9766 601.688 58.2519 602.283 58.5307L602.707 57.6252L603.131 56.7196C602.533 56.4392 601.937 56.1622 601.344 55.8888L600.925 56.7969Z" fill="#E8EFFF"/>
<path d="M608 108.156L601.53 117.72L596.482 107.335L608 108.156ZM479.335 107.713C479.827 107.963 480.024 108.565 479.774 109.058C479.525 109.55 478.923 109.747 478.43 109.497L479.335 107.713ZM482.81 111.677C482.314 111.435 482.108 110.836 482.35 110.34C482.593 109.844 483.191 109.638 483.688 109.88L482.81 111.677ZM485.45 110.733C485.948 110.972 486.158 111.569 485.919 112.067C485.68 112.565 485.083 112.775 484.585 112.536L485.45 110.733ZM489.021 114.615C488.518 114.385 488.297 113.792 488.527 113.29C488.757 112.788 489.35 112.567 489.852 112.796L489.021 114.615ZM491.612 113.592C492.116 113.818 492.342 114.41 492.116 114.914C491.891 115.418 491.299 115.644 490.795 115.418L491.612 113.592ZM495.29 117.372C494.781 117.157 494.542 116.571 494.757 116.062C494.971 115.553 495.558 115.314 496.067 115.529L495.29 117.372ZM497.872 116.279C498.383 116.489 498.627 117.073 498.418 117.584C498.208 118.095 497.624 118.339 497.113 118.13L497.872 116.279ZM501.678 119.932C501.162 119.736 500.902 119.159 501.098 118.643C501.294 118.126 501.871 117.866 502.387 118.062L501.678 119.932ZM504.197 118.737C504.716 118.927 504.982 119.501 504.792 120.02C504.602 120.538 504.028 120.805 503.509 120.615L504.197 118.737ZM508.143 122.232C507.619 122.058 507.334 121.492 507.508 120.968C507.681 120.444 508.247 120.159 508.772 120.333L508.143 122.232ZM510.628 120.934C511.155 121.1 511.447 121.662 511.281 122.189C511.114 122.715 510.552 123.007 510.026 122.841L510.628 120.934ZM514.739 124.237C514.206 124.09 513.894 123.54 514.041 123.007C514.188 122.475 514.739 122.162 515.271 122.309L514.739 124.237ZM517.137 122.809C517.672 122.947 517.993 123.493 517.854 124.028C517.716 124.562 517.17 124.883 516.635 124.745L517.137 122.809ZM521.429 125.882C520.889 125.766 520.545 125.234 520.661 124.694C520.777 124.154 521.309 123.81 521.849 123.926L521.429 125.882ZM523.739 124.315C524.281 124.421 524.635 124.946 524.528 125.488C524.422 126.03 523.897 126.384 523.355 126.277L523.739 124.315ZM528.211 127.113C527.665 127.032 527.287 126.524 527.368 125.977C527.449 125.431 527.957 125.053 528.503 125.134L528.211 127.113ZM530.42 125.398C530.968 125.468 531.356 125.968 531.286 126.516C531.216 127.064 530.715 127.452 530.167 127.382L530.42 125.398ZM535.069 127.882C534.519 127.84 534.106 127.359 534.148 126.809C534.19 126.258 534.671 125.846 535.222 125.888L535.069 127.882ZM537.151 126.015C537.703 126.045 538.125 126.517 538.094 127.069C538.064 127.62 537.592 128.042 537.04 128.012L537.151 126.015ZM541.97 128.156C541.418 128.154 540.971 127.705 540.973 127.153C540.975 126.601 541.424 126.154 541.976 126.156L541.97 128.156ZM543.907 126.141C544.459 126.131 544.914 126.571 544.924 127.123C544.934 127.675 544.495 128.131 543.943 128.141L543.907 126.141ZM548.869 127.924C548.318 127.962 547.84 127.547 547.802 126.996C547.763 126.445 548.179 125.967 548.73 125.929L548.869 127.924ZM550.656 125.774C551.206 125.724 551.693 126.13 551.742 126.68C551.792 127.23 551.386 127.716 550.836 127.766L550.656 125.774ZM555.731 127.201C555.184 127.278 554.678 126.897 554.601 126.35C554.525 125.803 554.906 125.297 555.453 125.221L555.731 127.201ZM557.371 124.934C557.916 124.847 558.429 125.218 558.516 125.764C558.603 126.309 558.231 126.822 557.686 126.909L557.371 124.934ZM562.526 126.025C561.985 126.136 561.457 125.788 561.346 125.247C561.235 124.706 561.583 124.177 562.124 124.066L562.526 126.025ZM564.016 123.661C564.555 123.541 565.089 123.881 565.209 124.42C565.329 124.959 564.99 125.493 564.451 125.613L564.016 123.661ZM569.237 124.447C568.703 124.588 568.155 124.27 568.014 123.736C567.873 123.202 568.192 122.654 568.726 122.513L569.237 124.447ZM570.587 122.007C571.119 121.858 571.67 122.169 571.819 122.7C571.968 123.232 571.657 123.784 571.126 123.933L570.587 122.007ZM575.834 122.528C575.308 122.694 574.746 122.403 574.579 121.876C574.413 121.35 574.704 120.788 575.231 120.621L575.834 122.528ZM577.088 120.021C577.612 119.848 578.178 120.132 578.351 120.657C578.524 121.181 578.239 121.747 577.715 121.92L577.088 120.021ZM582.348 120.316C581.829 120.503 581.256 120.235 581.068 119.715C580.88 119.196 581.148 118.623 581.668 118.435L582.348 120.316ZM583.484 117.767C584.002 117.574 584.578 117.836 584.771 118.354C584.964 118.871 584.701 119.447 584.184 119.64L583.484 117.767ZM588.758 117.869C588.246 118.074 587.664 117.825 587.458 117.312C587.253 116.8 587.502 116.218 588.015 116.012L588.758 117.869ZM589.825 115.278C590.336 115.068 590.92 115.312 591.13 115.823C591.339 116.334 591.095 116.918 590.584 117.128L589.825 115.278ZM595.098 115.221C594.591 115.441 594.002 115.209 593.782 114.702C593.563 114.195 593.795 113.606 594.302 113.387L595.098 115.221ZM596.073 112.611C596.579 112.387 597.169 112.616 597.392 113.121C597.616 113.626 597.387 114.217 596.882 114.44L596.073 112.611ZM601.344 112.424C600.843 112.655 600.249 112.436 600.017 111.935C599.786 111.433 600.005 110.839 600.506 110.608L601.344 112.424ZM602.283 109.782C602.783 109.548 603.378 109.763 603.613 110.263C603.847 110.763 603.631 111.359 603.131 111.593L602.283 109.782ZM607.546 109.489C607.049 109.73 606.451 109.522 606.21 109.025C605.969 108.528 606.177 107.93 606.674 107.689L607.546 109.489ZM478 108.156L478.455 107.266C478.749 107.416 479.042 107.565 479.335 107.713L478.882 108.605L478.43 109.497C478.136 109.348 477.841 109.198 477.545 109.047L478 108.156ZM483.249 110.779L483.688 109.88C484.278 110.168 484.865 110.452 485.45 110.733L485.017 111.634L484.585 112.536C483.996 112.254 483.405 111.967 482.81 111.677L483.249 110.779ZM489.437 113.706L489.852 112.796C490.442 113.066 491.028 113.331 491.612 113.592L491.204 114.505L490.795 115.418C490.206 115.154 489.615 114.887 489.021 114.615L489.437 113.706ZM495.678 116.45L496.067 115.529C496.671 115.784 497.273 116.034 497.872 116.279L497.492 117.204L497.113 118.13C496.508 117.882 495.901 117.629 495.29 117.372L495.678 116.45ZM502.033 118.997L502.387 118.062C502.994 118.292 503.597 118.517 504.197 118.737L503.853 119.676L503.509 120.615C502.902 120.392 502.291 120.165 501.678 119.932L502.033 118.997ZM508.457 121.282L508.772 120.333C509.393 120.539 510.012 120.739 510.628 120.934L510.327 121.887L510.026 122.841C509.401 122.643 508.773 122.44 508.143 122.232L508.457 121.282ZM515.005 123.273L515.271 122.309C515.895 122.482 516.517 122.648 517.137 122.809L516.886 123.777L516.635 124.745C516.005 124.582 515.373 124.412 514.739 124.237L515.005 123.273ZM521.639 124.904L521.849 123.926C522.481 124.062 523.111 124.191 523.739 124.315L523.547 125.296L523.355 126.277C522.714 126.152 522.073 126.02 521.429 125.882L521.639 124.904ZM528.357 126.123L528.503 125.134C529.144 125.229 529.782 125.316 530.42 125.398L530.294 126.39L530.167 127.382C529.516 127.299 528.864 127.209 528.211 127.113L528.357 126.123ZM535.145 126.885L535.222 125.888C535.865 125.937 536.508 125.979 537.151 126.015L537.096 127.013L537.04 128.012C536.384 127.975 535.727 127.932 535.069 127.882L535.145 126.885ZM541.973 127.156L541.976 126.156C542.619 126.158 543.263 126.153 543.907 126.141L543.925 127.141L543.943 128.141C543.285 128.153 542.628 128.158 541.97 128.156L541.973 127.156ZM548.799 126.926L548.73 125.929C549.371 125.884 550.013 125.832 550.656 125.774L550.746 126.77L550.836 127.766C550.18 127.825 549.524 127.878 548.869 127.924L548.799 126.926ZM555.592 126.211L555.453 125.221C556.091 125.131 556.73 125.036 557.371 124.934L557.528 125.921L557.686 126.909C557.033 127.013 556.381 127.11 555.731 127.201L555.592 126.211ZM562.325 125.046L562.124 124.066C562.753 123.937 563.383 123.802 564.016 123.661L564.233 124.637L564.451 125.613C563.807 125.757 563.166 125.894 562.526 126.025L562.325 125.046ZM568.981 123.48L568.726 122.513C569.344 122.35 569.964 122.181 570.587 122.007L570.856 122.97L571.126 123.933C570.494 124.11 569.864 124.281 569.237 124.447L568.981 123.48ZM575.533 121.574L575.231 120.621C575.847 120.426 576.466 120.226 577.088 120.021L577.401 120.97L577.715 121.92C577.085 122.128 576.458 122.33 575.834 122.528L575.533 121.574ZM582.008 119.375L581.668 118.435C582.27 118.217 582.876 117.994 583.484 117.767L583.834 118.704L584.184 119.64C583.569 119.87 582.957 120.095 582.348 120.316L582.008 119.375ZM588.387 116.94L588.015 116.012C588.615 115.772 589.218 115.527 589.825 115.278L590.205 116.203L590.584 117.128C589.973 117.379 589.364 117.626 588.758 117.869L588.387 116.94ZM594.7 114.304L594.302 113.387C594.889 113.132 595.48 112.873 596.073 112.611L596.478 113.525L596.882 114.44C596.284 114.704 595.69 114.965 595.098 115.221L594.7 114.304ZM600.925 111.516L600.506 110.608C601.096 110.336 601.688 110.061 602.283 109.782L602.707 110.687L603.131 111.593C602.533 111.873 601.937 112.15 601.344 112.424L600.925 111.516Z" fill="#E8EFFF"/>
<g filter="url(#filter3_d_1263_28788)">
<rect x="40" y="16" width="108" height="42" rx="4" fill="white" shape-rendering="crispEdges"/>
<rect x="40.5" y="16.5" width="107" height="41" rx="3.5" stroke="#EDEDED" shape-rendering="crispEdges"/>
<rect x="48" y="24" width="26" height="26" rx="4" fill="#F7EAFC"/>
<g clip-path="url(#clip0_1263_28788)">
<path d="M66 30H55.5C54.675 30 54 30.675 54 31.5V36.75C54 37.575 54.675 38.25 55.5 38.25H66C66.825 38.25 67.5 37.575 67.5 36.75V31.5C67.5 30.675 66.825 30 66 30ZM66 34.5H63.645C63.2925 34.5 63.015 34.7475 62.9175 35.085C62.6475 36.03 61.7625 36.75 60.75 36.75C59.7375 36.75 58.8525 36.03 58.5825 35.085C58.485 34.7475 58.2075 34.5 57.855 34.5H55.5V32.25C55.5 31.8375 55.8375 31.5 56.25 31.5H65.25C65.6625 31.5 66 31.8375 66 32.25V34.5ZM63.6525 39.75H66.75C67.1625 39.75 67.5 40.0875 67.5 40.5V42C67.5 42.825 66.825 43.5 66 43.5H55.5C54.675 43.5 54 42.825 54 42V40.5C54 40.0875 54.3375 39.75 54.75 39.75H57.8475C58.2 39.75 58.485 40.005 58.5825 40.35C58.845 41.3025 59.715 42 60.75 42C61.785 42 62.655 41.3025 62.9175 40.35C63.015 40.005 63.3 39.75 63.6525 39.75Z" fill="#966EBD"/>
</g>
<path d="M86.41 42.126C85.8967 42.126 85.4113 42.0793 84.954 41.986C84.506 41.8927 84.0907 41.762 83.708 41.594C83.3347 41.4167 82.994 41.202 82.686 40.95L83.092 40.026C83.4093 40.2593 83.7313 40.46 84.058 40.628C84.394 40.7867 84.7533 40.908 85.136 40.992C85.528 41.0667 85.9527 41.104 86.41 41.104C87.25 41.104 87.8707 40.95 88.272 40.642C88.6827 40.3247 88.888 39.9093 88.888 39.396C88.888 39.1253 88.8227 38.892 88.692 38.696C88.5707 38.5 88.3653 38.332 88.076 38.192C87.796 38.052 87.4273 37.9353 86.97 37.842L85.514 37.548C84.6367 37.3613 83.9787 37.058 83.54 36.638C83.1107 36.2087 82.896 35.6393 82.896 34.93C82.896 34.342 83.0453 33.8287 83.344 33.39C83.652 32.9513 84.0767 32.6107 84.618 32.368C85.1687 32.1253 85.794 32.004 86.494 32.004C86.942 32.004 87.3667 32.0507 87.768 32.144C88.1693 32.2373 88.538 32.3773 88.874 32.564C89.2193 32.7413 89.5227 32.9607 89.784 33.222L89.378 34.118C88.958 33.7353 88.5147 33.46 88.048 33.292C87.5813 33.1147 87.0587 33.026 86.48 33.026C85.9853 33.026 85.556 33.1007 85.192 33.25C84.8373 33.3993 84.5573 33.6187 84.352 33.908C84.156 34.188 84.058 34.5147 84.058 34.888C84.058 35.336 84.1933 35.6907 84.464 35.952C84.744 36.2133 85.1967 36.4047 85.822 36.526L87.278 36.834C88.2207 37.03 88.916 37.3287 89.364 37.73C89.8213 38.122 90.05 38.6587 90.05 39.34C90.05 39.8813 89.9007 40.3667 89.602 40.796C89.3127 41.216 88.8927 41.5427 88.342 41.776C87.8007 42.0093 87.1567 42.126 86.41 42.126ZM94.2253 42.126C93.5626 42.126 92.9886 41.9813 92.5033 41.692C92.0179 41.4027 91.6399 40.9967 91.3693 40.474C91.1079 39.942 90.9773 39.3167 90.9773 38.598C90.9773 37.8793 91.1079 37.2587 91.3693 36.736C91.6399 36.204 92.0179 35.7933 92.5033 35.504C92.9886 35.2147 93.5626 35.07 94.2253 35.07C94.8879 35.07 95.4619 35.2147 95.9473 35.504C96.4326 35.7933 96.8059 36.204 97.0673 36.736C97.3379 37.2587 97.4733 37.8793 97.4733 38.598C97.4733 39.3167 97.3379 39.942 97.0673 40.474C96.8059 40.9967 96.4326 41.4027 95.9473 41.692C95.4619 41.9813 94.8879 42.126 94.2253 42.126ZM94.2253 41.216C94.8693 41.216 95.3779 40.992 95.7513 40.544C96.1339 40.0867 96.3253 39.4333 96.3253 38.584C96.3253 37.744 96.1339 37.1 95.7513 36.652C95.3779 36.204 94.8693 35.98 94.2253 35.98C93.5906 35.98 93.0819 36.204 92.6993 36.652C92.3166 37.1 92.1253 37.744 92.1253 38.584C92.1253 39.4333 92.3166 40.0867 92.6993 40.544C93.0819 40.992 93.5906 41.216 94.2253 41.216ZM101.305 42.126C100.754 42.126 100.297 42.028 99.9326 41.832C99.5779 41.6267 99.3072 41.3233 99.1206 40.922C98.9432 40.5207 98.8546 40.0213 98.8546 39.424V35.196H99.9886V39.41C99.9886 39.8113 100.04 40.1473 100.143 40.418C100.255 40.6793 100.427 40.8753 100.661 41.006C100.894 41.1273 101.183 41.188 101.529 41.188C101.921 41.188 102.261 41.0993 102.551 40.922C102.84 40.7447 103.069 40.4973 103.237 40.18C103.405 39.8627 103.489 39.4893 103.489 39.06V35.196H104.623V42H103.517V40.432H103.699C103.512 40.9827 103.204 41.4027 102.775 41.692C102.355 41.9813 101.865 42.126 101.305 42.126ZM106.464 42V35.196H107.57V36.806H107.43C107.589 36.2553 107.864 35.84 108.256 35.56C108.648 35.2707 109.166 35.1027 109.81 35.056L110.216 35.014L110.3 35.994L109.586 36.078C108.952 36.134 108.462 36.3393 108.116 36.694C107.78 37.0393 107.612 37.5153 107.612 38.122V42H106.464ZM114.004 42.126C113.322 42.126 112.734 41.9767 112.24 41.678C111.745 41.3793 111.362 40.964 111.092 40.432C110.83 39.8907 110.7 39.2653 110.7 38.556C110.7 37.8373 110.83 37.2167 111.092 36.694C111.362 36.1713 111.745 35.77 112.24 35.49C112.734 35.21 113.322 35.07 114.004 35.07C114.424 35.07 114.839 35.1447 115.25 35.294C115.66 35.4433 116.001 35.6533 116.272 35.924L115.88 36.75C115.609 36.4887 115.31 36.2973 114.984 36.176C114.666 36.0547 114.363 35.994 114.074 35.994C113.364 35.994 112.818 36.218 112.436 36.666C112.053 37.1047 111.862 37.7393 111.862 38.57C111.862 39.382 112.053 40.026 112.436 40.502C112.818 40.9687 113.364 41.202 114.074 41.202C114.363 41.202 114.666 41.1413 114.984 41.02C115.31 40.8987 115.609 40.7027 115.88 40.432L116.272 41.258C116.001 41.5287 115.656 41.7433 115.236 41.902C114.825 42.0513 114.414 42.126 114.004 42.126ZM120.25 42.126C119.531 42.126 118.91 41.986 118.388 41.706C117.874 41.4167 117.473 41.0107 117.184 40.488C116.904 39.9653 116.764 39.34 116.764 38.612C116.764 37.9027 116.904 37.2867 117.184 36.764C117.464 36.232 117.846 35.8167 118.332 35.518C118.826 35.2193 119.396 35.07 120.04 35.07C120.656 35.07 121.183 35.2053 121.622 35.476C122.06 35.7467 122.396 36.1293 122.63 36.624C122.872 37.1187 122.994 37.7113 122.994 38.402V38.836H117.632V38.094H122.238L122.014 38.276C122.014 37.5293 121.846 36.9507 121.51 36.54C121.183 36.12 120.702 35.91 120.068 35.91C119.592 35.91 119.186 36.022 118.85 36.246C118.523 36.4607 118.276 36.764 118.108 37.156C117.94 37.5387 117.856 37.9867 117.856 38.5V38.584C117.856 39.1533 117.944 39.634 118.122 40.026C118.308 40.418 118.584 40.7167 118.948 40.922C119.312 41.118 119.746 41.216 120.25 41.216C120.651 41.216 121.038 41.1553 121.412 41.034C121.794 40.9033 122.154 40.6933 122.49 40.404L122.882 41.202C122.574 41.482 122.182 41.706 121.706 41.874C121.23 42.042 120.744 42.126 120.25 42.126Z" fill="#525252"/>
</g>
<g filter="url(#filter4_d_1263_28788)">
<rect x="40" y="110" width="108" height="42" rx="4" fill="white" shape-rendering="crispEdges"/>
<rect x="40.5" y="110.5" width="107" height="41" rx="3.5" stroke="#EDEDED" shape-rendering="crispEdges"/>
<rect x="48" y="118" width="26" height="26" rx="4" fill="#FEF3CD"/>
<g clip-path="url(#clip1_1263_28788)">
<path d="M66.25 122H55.75C55.3375 122 55 122.337 55 122.75C55 123.163 55.3375 123.5 55.75 123.5H66.25C66.6625 123.5 67 123.163 67 122.75C67 122.337 66.6625 122 66.25 122ZM55.75 140H66.25C66.6625 140 67 139.663 67 139.25C67 138.837 66.6625 138.5 66.25 138.5H55.75C55.3375 138.5 55 138.837 55 139.25C55 139.663 55.3375 140 55.75 140ZM67 125H55C54.175 125 53.5 125.675 53.5 126.5V135.5C53.5 136.325 54.175 137 55 137H67C67.825 137 68.5 136.325 68.5 135.5V126.5C68.5 125.675 67.825 125 67 125ZM61 127.062C61.93 127.062 62.6875 127.82 62.6875 128.75C62.6875 129.68 61.93 130.438 61 130.438C60.07 130.438 59.3125 129.68 59.3125 128.75C59.3125 127.82 60.07 127.062 61 127.062ZM64.75 134.75H57.25V133.625C57.25 132.373 59.7475 131.75 61 131.75C62.2525 131.75 64.75 132.373 64.75 133.625V134.75Z" fill="#D4A810"/>
</g>
<path d="M83.218 136V126.13H84.366V134.992H89.392V136H83.218ZM93.1452 136.126C92.4825 136.126 91.9085 135.981 91.4232 135.692C90.9379 135.403 90.5599 134.997 90.2892 134.474C90.0279 133.942 89.8972 133.317 89.8972 132.598C89.8972 131.879 90.0279 131.259 90.2892 130.736C90.5599 130.204 90.9379 129.793 91.4232 129.504C91.9085 129.215 92.4825 129.07 93.1452 129.07C93.8079 129.07 94.3819 129.215 94.8672 129.504C95.3525 129.793 95.7259 130.204 95.9872 130.736C96.2579 131.259 96.3932 131.879 96.3932 132.598C96.3932 133.317 96.2579 133.942 95.9872 134.474C95.7259 134.997 95.3525 135.403 94.8672 135.692C94.3819 135.981 93.8079 136.126 93.1452 136.126ZM93.1452 135.216C93.7892 135.216 94.2979 134.992 94.6712 134.544C95.0539 134.087 95.2452 133.433 95.2452 132.584C95.2452 131.744 95.0539 131.1 94.6712 130.652C94.2979 130.204 93.7892 129.98 93.1452 129.98C92.5105 129.98 92.0019 130.204 91.6192 130.652C91.2365 131.1 91.0452 131.744 91.0452 132.584C91.0452 133.433 91.2365 134.087 91.6192 134.544C92.0019 134.992 92.5105 135.216 93.1452 135.216ZM100.644 136.126C99.9818 136.126 99.4078 135.981 98.9225 135.692C98.4372 135.403 98.0592 134.997 97.7885 134.474C97.5272 133.942 97.3965 133.317 97.3965 132.598C97.3965 131.879 97.5272 131.259 97.7885 130.736C98.0592 130.204 98.4372 129.793 98.9225 129.504C99.4078 129.215 99.9818 129.07 100.644 129.07C101.307 129.07 101.881 129.215 102.366 129.504C102.852 129.793 103.225 130.204 103.487 130.736C103.757 131.259 103.893 131.879 103.893 132.598C103.893 133.317 103.757 133.942 103.487 134.474C103.225 134.997 102.852 135.403 102.366 135.692C101.881 135.981 101.307 136.126 100.644 136.126ZM100.644 135.216C101.288 135.216 101.797 134.992 102.17 134.544C102.553 134.087 102.745 133.433 102.745 132.584C102.745 131.744 102.553 131.1 102.17 130.652C101.797 130.204 101.288 129.98 100.644 129.98C100.01 129.98 99.5012 130.204 99.1185 130.652C98.7358 131.1 98.5445 131.744 98.5445 132.584C98.5445 133.433 98.7358 134.087 99.1185 134.544C99.5012 134.992 100.01 135.216 100.644 135.216ZM105.316 136V126.13H106.45V132.22H106.478L109.628 129.196H111.07L107.332 132.78V132.164L111.364 136H109.922L106.478 132.808H106.45V136H105.316ZM114.109 136.126C113.643 136.126 113.223 136.037 112.849 135.86C112.485 135.673 112.196 135.421 111.981 135.104C111.767 134.787 111.659 134.432 111.659 134.04C111.659 133.536 111.785 133.139 112.037 132.85C112.299 132.561 112.723 132.355 113.311 132.234C113.909 132.113 114.721 132.052 115.747 132.052H116.377V132.794H115.761C115.192 132.794 114.716 132.813 114.333 132.85C113.951 132.887 113.647 132.953 113.423 133.046C113.199 133.139 113.041 133.261 112.947 133.41C112.854 133.559 112.807 133.746 112.807 133.97C112.807 134.353 112.938 134.665 113.199 134.908C113.47 135.151 113.834 135.272 114.291 135.272C114.665 135.272 114.991 135.183 115.271 135.006C115.561 134.829 115.785 134.586 115.943 134.278C116.111 133.97 116.195 133.615 116.195 133.214V131.618C116.195 131.039 116.079 130.624 115.845 130.372C115.612 130.111 115.229 129.98 114.697 129.98C114.287 129.98 113.89 130.041 113.507 130.162C113.125 130.274 112.733 130.461 112.331 130.722L111.939 129.896C112.182 129.728 112.457 129.583 112.765 129.462C113.073 129.331 113.395 129.233 113.731 129.168C114.067 129.103 114.389 129.07 114.697 129.07C115.285 129.07 115.771 129.168 116.153 129.364C116.536 129.551 116.821 129.84 117.007 130.232C117.194 130.615 117.287 131.109 117.287 131.716V136H116.223V134.418H116.349C116.275 134.773 116.13 135.076 115.915 135.328C115.71 135.58 115.453 135.776 115.145 135.916C114.837 136.056 114.492 136.126 114.109 136.126ZM121.197 136.126C120.507 136.126 119.984 135.921 119.629 135.51C119.284 135.099 119.111 134.511 119.111 133.746V126.13H120.245V133.662C120.245 133.989 120.287 134.264 120.371 134.488C120.465 134.712 120.6 134.88 120.777 134.992C120.955 135.104 121.174 135.16 121.435 135.16C121.547 135.16 121.655 135.155 121.757 135.146C121.869 135.127 121.972 135.104 122.065 135.076L122.037 136.028C121.888 136.056 121.743 136.079 121.603 136.098C121.473 136.117 121.337 136.126 121.197 136.126ZM122.834 127.502V126.228H124.234V127.502H122.834ZM122.974 136V129.196H124.108V136H122.974ZM125.948 136V126.13H127.082V132.22H127.11L130.26 129.196H131.702L127.964 132.78V132.164L131.996 136H130.554L127.11 132.808H127.082V136H125.948ZM135.556 136.126C134.837 136.126 134.217 135.986 133.694 135.706C133.181 135.417 132.779 135.011 132.49 134.488C132.21 133.965 132.07 133.34 132.07 132.612C132.07 131.903 132.21 131.287 132.49 130.764C132.77 130.232 133.153 129.817 133.638 129.518C134.133 129.219 134.702 129.07 135.346 129.07C135.962 129.07 136.489 129.205 136.928 129.476C137.367 129.747 137.703 130.129 137.936 130.624C138.179 131.119 138.3 131.711 138.3 132.402V132.836H132.938V132.094H137.544L137.32 132.276C137.32 131.529 137.152 130.951 136.816 130.54C136.489 130.12 136.009 129.91 135.374 129.91C134.898 129.91 134.492 130.022 134.156 130.246C133.829 130.461 133.582 130.764 133.414 131.156C133.246 131.539 133.162 131.987 133.162 132.5V132.584C133.162 133.153 133.251 133.634 133.428 134.026C133.615 134.418 133.89 134.717 134.254 134.922C134.618 135.118 135.052 135.216 135.556 135.216C135.957 135.216 136.345 135.155 136.718 135.034C137.101 134.903 137.46 134.693 137.796 134.404L138.188 135.202C137.88 135.482 137.488 135.706 137.012 135.874C136.536 136.042 136.051 136.126 135.556 136.126Z" fill="#3B3B3B"/>
</g>
<g filter="url(#filter5_d_1263_28788)">
<rect x="293" y="58" width="177" height="50" rx="4" fill="white" shape-rendering="crispEdges"/>
<rect x="293.5" y="58.5" width="176" height="49" rx="3.5" stroke="#EDEDED" shape-rendering="crispEdges"/>
<rect x="305" y="70" width="26" height="26" rx="4" fill="#DBF6E7"/>
<path opacity="0.5" d="M311.883 76.8834C311.039 77.7279 311.039 79.0972 311.883 79.9417L313.074 81.1325C313.083 81.1222 313.49 81.5098 313.5 81.4999L316.5 78.4999C316.51 78.4901 316.122 78.0831 316.132 78.0742L314.942 76.8834C314.097 76.0389 312.728 76.0389 311.883 76.8834Z" fill="#419D6A"/>
<path opacity="0.5" d="M312.85 85.4804C312.971 85.1732 313.404 85.1732 313.524 85.4804L313.642 85.7799C313.679 85.8737 313.753 85.9479 313.846 85.9849L314.145 86.103C314.451 86.2242 314.451 86.6589 314.145 86.7801L313.846 86.8982C313.753 86.9352 313.679 87.0094 313.642 87.1033L313.524 87.4027C313.404 87.7099 312.971 87.7099 312.85 87.4027L312.732 87.1033C312.695 87.0094 312.621 86.9352 312.528 86.8982L312.23 86.7801C311.923 86.6589 311.923 86.2242 312.23 86.103L312.528 85.9849C312.621 85.9479 312.695 85.8737 312.732 85.7799L312.85 85.4804Z" fill="#419D6A"/>
<path opacity="0.2" d="M323.975 80.8476C324.096 80.5404 324.529 80.5404 324.649 80.8476L324.767 81.1471C324.804 81.2409 324.878 81.3151 324.971 81.3521L325.27 81.4702C325.576 81.5914 325.576 82.0262 325.27 82.1473L324.971 82.2654C324.878 82.3024 324.804 82.3766 324.767 82.4704L324.649 82.7699C324.529 83.0771 324.096 83.0771 323.975 82.7699L323.857 82.4704C323.82 82.3766 323.746 82.3024 323.653 82.2654L323.354 82.1473C323.049 82.0262 323.049 81.5914 323.354 81.4702L323.653 81.3521C323.746 81.3151 323.82 81.2409 323.857 81.1471L323.975 80.8476Z" fill="#419D6A"/>
<path opacity="0.7" d="M321.075 75.7304C321.196 75.4232 321.629 75.4232 321.75 75.7304L322.072 76.5519C322.109 76.6456 322.183 76.7199 322.277 76.7569L323.095 77.0809C323.401 77.202 323.401 77.6368 323.095 77.7579L322.277 78.0819C322.183 78.1189 322.109 78.1931 322.072 78.2869L321.75 79.1084C321.629 79.4156 321.196 79.4156 321.075 79.1084L320.752 78.2869C320.715 78.1931 320.641 78.1189 320.548 78.0819L319.73 77.7579C319.423 77.6368 319.423 77.202 319.73 77.0809L320.548 76.7569C320.641 76.7199 320.715 76.6456 320.752 76.5519L321.075 75.7304Z" fill="#419D6A"/>
<path d="M316.926 78.8679C316.917 78.8782 316.51 78.4904 316.5 78.5002L313.5 81.5002C313.49 81.51 313.878 81.9172 313.868 81.9261L321.059 89.1168C321.903 89.9614 323.272 89.9614 324.117 89.1168C324.961 88.2723 324.961 86.9031 324.117 86.0586L316.926 78.8679Z" fill="#419D6A"/>
<path d="M344.04 88.144C343.453 88.144 342.899 88.0907 342.376 87.984C341.864 87.8773 341.389 87.728 340.952 87.536C340.525 87.3333 340.136 87.088 339.784 86.8L340.248 85.744C340.611 86.0107 340.979 86.24 341.352 86.432C341.736 86.6133 342.147 86.752 342.584 86.848C343.032 86.9333 343.517 86.976 344.04 86.976C345 86.976 345.709 86.8 346.168 86.448C346.637 86.0853 346.872 85.6107 346.872 85.024C346.872 84.7147 346.797 84.448 346.648 84.224C346.509 84 346.275 83.808 345.944 83.648C345.624 83.488 345.203 83.3547 344.68 83.248L343.016 82.912C342.013 82.6987 341.261 82.352 340.76 81.872C340.269 81.3813 340.024 80.7307 340.024 79.92C340.024 79.248 340.195 78.6613 340.536 78.16C340.888 77.6587 341.373 77.2693 341.992 76.992C342.621 76.7147 343.336 76.576 344.136 76.576C344.648 76.576 345.133 76.6293 345.592 76.736C346.051 76.8427 346.472 77.0027 346.856 77.216C347.251 77.4187 347.597 77.6693 347.896 77.968L347.432 78.992C346.952 78.5547 346.445 78.24 345.912 78.048C345.379 77.8453 344.781 77.744 344.12 77.744C343.555 77.744 343.064 77.8293 342.648 78C342.243 78.1707 341.923 78.4213 341.688 78.752C341.464 79.072 341.352 79.4453 341.352 79.872C341.352 80.384 341.507 80.7893 341.816 81.088C342.136 81.3867 342.653 81.6053 343.368 81.744L345.032 82.096C346.109 82.32 346.904 82.6613 347.416 83.12C347.939 83.568 348.2 84.1813 348.2 84.96C348.2 85.5787 348.029 86.1333 347.688 86.624C347.357 87.104 346.877 87.4773 346.248 87.744C345.629 88.0107 344.893 88.144 344.04 88.144ZM349.772 88V80.224H351.036V81.952H350.86C350.988 81.5573 351.174 81.2213 351.42 80.944C351.676 80.656 351.974 80.4427 352.316 80.304C352.668 80.1547 353.052 80.08 353.468 80.08C354.129 80.08 354.662 80.24 355.068 80.56C355.484 80.8693 355.761 81.3547 355.9 82.016H355.66C355.852 81.4187 356.193 80.9493 356.684 80.608C357.185 80.256 357.766 80.08 358.428 80.08C359.014 80.08 359.494 80.192 359.868 80.416C360.252 80.64 360.54 80.9813 360.732 81.44C360.924 81.888 361.02 82.4587 361.02 83.152V88H359.724V83.216C359.724 82.5013 359.601 81.9787 359.356 81.648C359.11 81.3067 358.694 81.136 358.108 81.136C357.692 81.136 357.324 81.2373 357.004 81.44C356.694 81.6427 356.454 81.9307 356.284 82.304C356.124 82.6667 356.044 83.0987 356.044 83.6V88H354.748V83.216C354.748 82.5013 354.62 81.9787 354.364 81.648C354.118 81.3067 353.708 81.136 353.132 81.136C352.705 81.136 352.337 81.2373 352.028 81.44C351.718 81.6427 351.478 81.9307 351.308 82.304C351.148 82.6667 351.068 83.0987 351.068 83.6V88H349.772ZM365.571 88.144C365.038 88.144 364.558 88.0427 364.131 87.84C363.715 87.6267 363.384 87.3387 363.139 86.976C362.894 86.6133 362.771 86.208 362.771 85.76C362.771 85.184 362.915 84.7307 363.203 84.4C363.502 84.0693 363.987 83.8347 364.659 83.696C365.342 83.5573 366.27 83.488 367.443 83.488H368.163V84.336H367.459C366.808 84.336 366.264 84.3573 365.827 84.4C365.39 84.4427 365.043 84.5173 364.787 84.624C364.531 84.7307 364.35 84.8693 364.243 85.04C364.136 85.2107 364.083 85.424 364.083 85.68C364.083 86.1173 364.232 86.4747 364.531 86.752C364.84 87.0293 365.256 87.168 365.779 87.168C366.206 87.168 366.579 87.0667 366.899 86.864C367.23 86.6613 367.486 86.384 367.667 86.032C367.859 85.68 367.955 85.2747 367.955 84.816V82.992C367.955 82.3307 367.822 81.856 367.555 81.568C367.288 81.2693 366.851 81.12 366.243 81.12C365.774 81.12 365.32 81.1893 364.883 81.328C364.446 81.456 363.998 81.6693 363.539 81.968L363.091 81.024C363.368 80.832 363.683 80.6667 364.035 80.528C364.387 80.3787 364.755 80.2667 365.139 80.192C365.523 80.1173 365.891 80.08 366.243 80.08C366.915 80.08 367.47 80.192 367.907 80.416C368.344 80.6293 368.67 80.96 368.883 81.408C369.096 81.8453 369.203 82.4107 369.203 83.104V88H367.987V86.192H368.131C368.046 86.5973 367.88 86.944 367.635 87.232C367.4 87.52 367.107 87.744 366.755 87.904C366.403 88.064 366.008 88.144 365.571 88.144ZM371.287 88V80.224H372.551V82.064H372.391C372.573 81.4347 372.887 80.96 373.335 80.64C373.783 80.3093 374.375 80.1173 375.111 80.064L375.575 80.016L375.671 81.136L374.855 81.232C374.13 81.296 373.57 81.5307 373.175 81.936C372.791 82.3307 372.599 82.8747 372.599 83.568V88H371.287ZM380.244 88.144C379.326 88.144 378.638 87.8987 378.18 87.408C377.721 86.9173 377.492 86.2187 377.492 85.312V81.232H375.972V80.224H377.492V77.84H378.788V80.224H381.252V81.232H378.788V85.184C378.788 85.792 378.916 86.256 379.172 86.576C379.428 86.8853 379.844 87.04 380.42 87.04C380.59 87.04 380.761 87.0187 380.932 86.976C381.102 86.9333 381.257 86.8907 381.396 86.848L381.62 87.84C381.481 87.9147 381.278 87.984 381.012 88.048C380.745 88.112 380.489 88.144 380.244 88.144ZM385.275 88L390.251 76.72H391.371L396.347 88H394.987L393.595 84.784L394.235 85.12H387.355L388.011 84.784L386.635 88H385.275ZM390.795 78.256L388.219 84.32L387.835 84.016H393.755L393.403 84.32L390.827 78.256H390.795ZM400.275 88.144C399.646 88.144 399.123 88.032 398.707 87.808C398.302 87.5733 397.992 87.2267 397.779 86.768C397.576 86.3093 397.475 85.7387 397.475 85.056V80.224H398.771V85.04C398.771 85.4987 398.83 85.8827 398.947 86.192C399.075 86.4907 399.272 86.7147 399.539 86.864C399.806 87.0027 400.136 87.072 400.531 87.072C400.979 87.072 401.368 86.9707 401.699 86.768C402.03 86.5653 402.291 86.2827 402.483 85.92C402.675 85.5573 402.771 85.1307 402.771 84.64V80.224H404.067V88H402.803V86.208H403.011C402.798 86.8373 402.446 87.3173 401.955 87.648C401.475 87.9787 400.915 88.144 400.275 88.144ZM409.132 88.144C408.438 88.144 407.83 87.9787 407.308 87.648C406.796 87.3173 406.396 86.8533 406.108 86.256C405.83 85.648 405.692 84.9333 405.692 84.112C405.692 83.28 405.83 82.5653 406.108 81.968C406.396 81.36 406.796 80.896 407.308 80.576C407.83 80.2453 408.438 80.08 409.132 80.08C409.836 80.08 410.438 80.256 410.94 80.608C411.441 80.96 411.777 81.4347 411.948 82.032H411.772V76.72H413.068V88H411.804V86.144H411.964C411.793 86.752 411.452 87.2373 410.94 87.6C410.438 87.9627 409.836 88.144 409.132 88.144ZM409.404 87.104C410.14 87.104 410.721 86.848 411.148 86.336C411.585 85.8133 411.804 85.072 411.804 84.112C411.804 83.1413 411.585 82.4 411.148 81.888C410.721 81.376 410.14 81.12 409.404 81.12C408.678 81.12 408.097 81.376 407.66 81.888C407.222 82.4 407.004 83.1413 407.004 84.112C407.004 85.072 407.222 85.8133 407.66 86.336C408.097 86.848 408.678 87.104 409.404 87.104ZM415.02 78.288V76.832H416.62V78.288H415.02ZM415.18 88V80.224H416.476V88H415.18ZM422.083 88.144C421.261 88.144 420.552 87.984 419.955 87.664C419.368 87.3333 418.909 86.8693 418.579 86.272C418.259 85.6747 418.099 84.96 418.099 84.128C418.099 83.3173 418.259 82.6133 418.579 82.016C418.899 81.408 419.336 80.9333 419.891 80.592C420.456 80.2507 421.107 80.08 421.843 80.08C422.547 80.08 423.149 80.2347 423.651 80.544C424.152 80.8533 424.536 81.2907 424.803 81.856C425.08 82.4213 425.219 83.0987 425.219 83.888V84.384H419.091V83.536H424.355L424.099 83.744C424.099 82.8907 423.907 82.2293 423.523 81.76C423.149 81.28 422.6 81.04 421.875 81.04C421.331 81.04 420.867 81.168 420.483 81.424C420.109 81.6693 419.827 82.016 419.635 82.464C419.443 82.9013 419.347 83.4133 419.347 84V84.096C419.347 84.7467 419.448 85.296 419.651 85.744C419.864 86.192 420.179 86.5333 420.595 86.768C421.011 86.992 421.507 87.104 422.083 87.104C422.541 87.104 422.984 87.0347 423.411 86.896C423.848 86.7467 424.259 86.5067 424.643 86.176L425.091 87.088C424.739 87.408 424.291 87.664 423.747 87.856C423.203 88.048 422.648 88.144 422.083 88.144ZM426.774 88V80.224H428.038V81.952H427.862C428.086 81.3333 428.449 80.8693 428.95 80.56C429.462 80.24 430.049 80.08 430.71 80.08C431.329 80.08 431.841 80.192 432.246 80.416C432.662 80.6293 432.971 80.9653 433.174 81.424C433.377 81.8827 433.478 82.4587 433.478 83.152V88H432.182V83.232C432.182 82.752 432.118 82.3573 431.99 82.048C431.873 81.7387 431.681 81.5093 431.414 81.36C431.158 81.2107 430.822 81.136 430.406 81.136C429.937 81.136 429.526 81.2373 429.174 81.44C428.822 81.6427 428.55 81.9253 428.358 82.288C428.166 82.6507 428.07 83.0773 428.07 83.568V88H426.774ZM438.844 88.144C438.065 88.144 437.393 87.9733 436.828 87.632C436.263 87.2907 435.825 86.816 435.516 86.208C435.217 85.5893 435.068 84.8747 435.068 84.064C435.068 83.2427 435.217 82.5333 435.516 81.936C435.825 81.3387 436.263 80.88 436.828 80.56C437.393 80.24 438.065 80.08 438.844 80.08C439.324 80.08 439.799 80.1653 440.268 80.336C440.737 80.5067 441.127 80.7467 441.436 81.056L440.988 82C440.679 81.7013 440.337 81.4827 439.964 81.344C439.601 81.2053 439.255 81.136 438.924 81.136C438.113 81.136 437.489 81.392 437.052 81.904C436.615 82.4053 436.396 83.1307 436.396 84.08C436.396 85.008 436.615 85.744 437.052 86.288C437.489 86.8213 438.113 87.088 438.924 87.088C439.255 87.088 439.601 87.0187 439.964 86.88C440.337 86.7413 440.679 86.5173 440.988 86.208L441.436 87.152C441.127 87.4613 440.732 87.7067 440.252 87.888C439.783 88.0587 439.313 88.144 438.844 88.144ZM445.982 88.144C445.161 88.144 444.451 87.984 443.854 87.664C443.267 87.3333 442.809 86.8693 442.478 86.272C442.158 85.6747 441.998 84.96 441.998 84.128C441.998 83.3173 442.158 82.6133 442.478 82.016C442.798 81.408 443.235 80.9333 443.79 80.592C444.355 80.2507 445.006 80.08 445.742 80.08C446.446 80.08 447.049 80.2347 447.55 80.544C448.051 80.8533 448.435 81.2907 448.702 81.856C448.979 82.4213 449.118 83.0987 449.118 83.888V84.384H442.99V83.536H448.254L447.998 83.744C447.998 82.8907 447.806 82.2293 447.422 81.76C447.049 81.28 446.499 81.04 445.774 81.04C445.23 81.04 444.766 81.168 444.382 81.424C444.009 81.6693 443.726 82.016 443.534 82.464C443.342 82.9013 443.246 83.4133 443.246 84V84.096C443.246 84.7467 443.347 85.296 443.55 85.744C443.763 86.192 444.078 86.5333 444.494 86.768C444.91 86.992 445.406 87.104 445.982 87.104C446.441 87.104 446.883 87.0347 447.31 86.896C447.747 86.7467 448.158 86.5067 448.542 86.176L448.99 87.088C448.638 87.408 448.19 87.664 447.646 87.856C447.102 88.048 446.547 88.144 445.982 88.144ZM453.297 88.144C452.892 88.144 452.497 88.1013 452.113 88.016C451.74 87.9413 451.388 87.8347 451.057 87.696C450.737 87.5467 450.46 87.3707 450.225 87.168L450.641 86.256C450.897 86.4587 451.175 86.6293 451.473 86.768C451.772 86.896 452.076 86.992 452.385 87.056C452.695 87.12 453.009 87.152 453.329 87.152C453.937 87.152 454.396 87.04 454.705 86.816C455.015 86.592 455.169 86.288 455.169 85.904C455.169 85.6053 455.068 85.3707 454.865 85.2C454.663 85.0187 454.343 84.88 453.905 84.784L452.449 84.464C451.777 84.3253 451.276 84.0853 450.945 83.744C450.625 83.4027 450.465 82.96 450.465 82.416C450.465 81.936 450.588 81.5253 450.833 81.184C451.089 80.832 451.447 80.56 451.905 80.368C452.364 80.176 452.897 80.08 453.505 80.08C453.868 80.08 454.215 80.1173 454.545 80.192C454.876 80.2667 455.185 80.3787 455.473 80.528C455.772 80.6667 456.028 80.8427 456.241 81.056L455.809 81.968C455.607 81.776 455.377 81.616 455.121 81.488C454.865 81.3493 454.599 81.248 454.321 81.184C454.055 81.1093 453.783 81.072 453.505 81.072C452.908 81.072 452.455 81.1893 452.145 81.424C451.836 81.6587 451.681 81.968 451.681 82.352C451.681 82.6507 451.777 82.896 451.969 83.088C452.161 83.28 452.46 83.4187 452.865 83.504L454.321 83.808C455.015 83.9573 455.532 84.1973 455.873 84.528C456.225 84.848 456.401 85.2853 456.401 85.84C456.401 86.3093 456.273 86.72 456.017 87.072C455.761 87.4133 455.399 87.68 454.929 87.872C454.471 88.0533 453.927 88.144 453.297 88.144Z" fill="#3B3B3B"/>
</g>
<path d="M286.333 72.6736C286.333 75.6192 283.946 78.007 281 78.007C278.054 78.007 275.667 75.6192 275.667 72.6736C275.667 69.7281 278.054 67.3403 281 67.3403C283.946 67.3403 286.333 69.7281 286.333 72.6736ZM165.334 37C165.334 39.9455 162.947 42.3333 160.001 42.3333C157.056 42.3333 154.668 39.9455 154.668 37C154.668 34.0545 157.056 31.6667 160.001 31.6667C162.947 31.6667 165.334 34.0545 165.334 37ZM216.764 54.9353H215.764H216.764ZM216.764 54.9353H215.764H216.764ZM281 72.6736H280V71.0606H281H282V72.6736H281ZM280.581 71.0606H281.581V71.8609H280.581H279.581V71.0606H280.581ZM279.571 72.8706V73.8706H234.699V72.8706V71.8706H279.571V72.8706ZM198.829 37V38H160.001V37V36H198.829V37ZM216.764 54.9353H215.764C215.764 45.5822 208.182 38 198.829 38V37V36C209.286 36 217.764 44.4776 217.764 54.9353H216.764ZM234.699 72.8706V73.8706C224.242 73.8706 215.764 65.393 215.764 54.9353H216.764H217.764C217.764 64.2884 225.346 71.8706 234.699 71.8706V72.8706ZM280.581 71.8609H281.581C281.581 72.9708 280.681 73.8706 279.571 73.8706V72.8706V71.8706C279.573 71.8706 279.574 71.8704 279.574 71.8704C279.575 71.8704 279.575 71.8703 279.575 71.8703C279.575 71.8701 279.577 71.8694 279.578 71.8678C279.58 71.8662 279.581 71.8648 279.581 71.8644C279.581 71.8642 279.581 71.8641 279.581 71.8639C279.581 71.8638 279.581 71.8629 279.581 71.8609H280.581ZM280.791 70.8511V71.8511C281.227 71.8511 281.581 71.4972 281.581 71.0606H280.581H279.581C279.581 70.3926 280.123 69.8511 280.791 69.8511V70.8511ZM281 71.0606H280C280 71.4972 280.354 71.8511 280.791 71.8511V70.8511V69.8511C281.459 69.8511 282 70.3926 282 71.0606H281Z" fill="#E8EFFF"/>
<path d="M286.333 95.1953C286.333 92.2498 283.946 89.862 281 89.862C278.054 89.862 275.667 92.2498 275.667 95.1953C275.667 98.1408 278.054 100.529 281 100.529C283.946 100.529 286.333 98.1408 286.333 95.1953ZM165.333 130.871C165.333 127.926 162.946 125.538 160 125.538C157.054 125.538 154.667 127.926 154.667 130.871C154.667 133.817 157.054 136.204 160 136.204C162.946 136.204 165.333 133.817 165.333 130.871ZM216.764 112.936H215.764H216.764ZM216.764 112.936H215.764H216.764ZM281 95.1953H280V96.8103H281H282V95.1953H281ZM280.581 96.8103H281.581V96.0098H280.581H279.581V96.8103H280.581ZM279.572 95V94H234.7V95V96H279.572V95ZM198.829 130.871V129.871H160V130.871V131.871H198.829V130.871ZM216.764 112.936H215.764C215.764 122.289 208.182 129.871 198.829 129.871V130.871V131.871C209.287 131.871 217.764 123.393 217.764 112.936H216.764ZM234.7 95V94C224.242 94 215.764 102.478 215.764 112.936H216.764H217.764C217.764 103.582 225.347 96 234.7 96V95ZM280.581 96.0098H281.581C281.581 94.8998 280.682 94 279.572 94V95V96C279.574 96 279.575 96.0002 279.575 96.0002C279.575 96.0003 279.575 96.0003 279.575 96.0004C279.576 96.0005 279.577 96.0013 279.579 96.0029C279.58 96.0045 279.581 96.0058 279.581 96.0063C279.581 96.0064 279.581 96.0065 279.581 96.0067C279.581 96.0069 279.581 96.0078 279.581 96.0098H280.581ZM280.791 97.0195V96.0195C281.227 96.0195 281.581 96.3736 281.581 96.8103H280.581H279.581C279.581 97.4781 280.123 98.0195 280.791 98.0195V97.0195ZM281 96.8103H280C280 96.3736 280.354 96.0195 280.791 96.0195V97.0195V98.0195C281.459 98.0195 282 97.4781 282 96.8103H281Z" fill="#E8EFFF"/>
<defs>
<filter id="filter0_d_1263_28788" x="606" y="8" width="156" height="156" filterUnits="userSpaceOnUse" color-interpolation-filters="sRGB">
<feFlood flood-opacity="0" result="BackgroundImageFix"/>
<feColorMatrix in="SourceAlpha" type="matrix" values="0 0 0 0 0 0 0 0 0 0 0 0 0 0 0 0 0 0 127 0" result="hardAlpha"/>
<feOffset dy="2"/>
<feGaussianBlur stdDeviation="5"/>
<feComposite in2="hardAlpha" operator="out"/>
<feColorMatrix type="matrix" values="0 0 0 0 0 0 0 0 0 0 0 0 0 0 0 0 0 0 0.08 0"/>
<feBlend mode="normal" in2="BackgroundImageFix" result="effect1_dropShadow_1263_28788"/>
<feBlend mode="normal" in="SourceGraphic" in2="effect1_dropShadow_1263_28788" result="shape"/>
</filter>
<filter id="filter1_d_1263_28788" x="622" y="24" width="124" height="124" filterUnits="userSpaceOnUse" color-interpolation-filters="sRGB">
<feFlood flood-opacity="0" result="BackgroundImageFix"/>
<feColorMatrix in="SourceAlpha" type="matrix" values="0 0 0 0 0 0 0 0 0 0 0 0 0 0 0 0 0 0 127 0" result="hardAlpha"/>
<feOffset dy="2"/>
<feGaussianBlur stdDeviation="5"/>
<feComposite in2="hardAlpha" operator="out"/>
<feColorMatrix type="matrix" values="0 0 0 0 0 0 0 0 0 0 0 0 0 0 0 0 0 0 0.08 0"/>
<feBlend mode="normal" in2="BackgroundImageFix" result="effect1_dropShadow_1263_28788"/>
<feBlend mode="normal" in="SourceGraphic" in2="effect1_dropShadow_1263_28788" result="shape"/>
</filter>
<filter id="filter2_d_1263_28788" x="638" y="40" width="92" height="92" filterUnits="userSpaceOnUse" color-interpolation-filters="sRGB">
<feFlood flood-opacity="0" result="BackgroundImageFix"/>
<feColorMatrix in="SourceAlpha" type="matrix" values="0 0 0 0 0 0 0 0 0 0 0 0 0 0 0 0 0 0 127 0" result="hardAlpha"/>
<feOffset dy="2"/>
<feGaussianBlur stdDeviation="5"/>
<feComposite in2="hardAlpha" operator="out"/>
<feColorMatrix type="matrix" values="0 0 0 0 0 0 0 0 0 0 0 0 0 0 0 0 0 0 0.1 0"/>
<feBlend mode="normal" in2="BackgroundImageFix" result="effect1_dropShadow_1263_28788"/>
<feBlend mode="normal" in="SourceGraphic" in2="effect1_dropShadow_1263_28788" result="shape"/>
</filter>
<filter id="filter3_d_1263_28788" x="30" y="8" width="128" height="62" filterUnits="userSpaceOnUse" color-interpolation-filters="sRGB">
<feFlood flood-opacity="0" result="BackgroundImageFix"/>
<feColorMatrix in="SourceAlpha" type="matrix" values="0 0 0 0 0 0 0 0 0 0 0 0 0 0 0 0 0 0 127 0" result="hardAlpha"/>
<feOffset dy="2"/>
<feGaussianBlur stdDeviation="5"/>
<feComposite in2="hardAlpha" operator="out"/>
<feColorMatrix type="matrix" values="0 0 0 0 0 0 0 0 0 0 0 0 0 0 0 0 0 0 0.08 0"/>
<feBlend mode="normal" in2="BackgroundImageFix" result="effect1_dropShadow_1263_28788"/>
<feBlend mode="normal" in="SourceGraphic" in2="effect1_dropShadow_1263_28788" result="shape"/>
</filter>
<filter id="filter4_d_1263_28788" x="30" y="102" width="128" height="62" filterUnits="userSpaceOnUse" color-interpolation-filters="sRGB">
<feFlood flood-opacity="0" result="BackgroundImageFix"/>
<feColorMatrix in="SourceAlpha" type="matrix" values="0 0 0 0 0 0 0 0 0 0 0 0 0 0 0 0 0 0 127 0" result="hardAlpha"/>
<feOffset dy="2"/>
<feGaussianBlur stdDeviation="5"/>
<feComposite in2="hardAlpha" operator="out"/>
<feColorMatrix type="matrix" values="0 0 0 0 0 0 0 0 0 0 0 0 0 0 0 0 0 0 0.08 0"/>
<feBlend mode="normal" in2="BackgroundImageFix" result="effect1_dropShadow_1263_28788"/>
<feBlend mode="normal" in="SourceGraphic" in2="effect1_dropShadow_1263_28788" result="shape"/>
</filter>
<filter id="filter5_d_1263_28788" x="283" y="50" width="197" height="70" filterUnits="userSpaceOnUse" color-interpolation-filters="sRGB">
<feFlood flood-opacity="0" result="BackgroundImageFix"/>
<feColorMatrix in="SourceAlpha" type="matrix" values="0 0 0 0 0 0 0 0 0 0 0 0 0 0 0 0 0 0 127 0" result="hardAlpha"/>
<feOffset dy="2"/>
<feGaussianBlur stdDeviation="5"/>
<feComposite in2="hardAlpha" operator="out"/>
<feColorMatrix type="matrix" values="0 0 0 0 0 0 0 0 0 0 0 0 0 0 0 0 0 0 0.08 0"/>
<feBlend mode="normal" in2="BackgroundImageFix" result="effect1_dropShadow_1263_28788"/>
<feBlend mode="normal" in="SourceGraphic" in2="effect1_dropShadow_1263_28788" result="shape"/>
</filter>
<clipPath id="clip0_1263_28788">
<rect width="18" height="18" fill="white" transform="translate(52 28)"/>
</clipPath>
<clipPath id="clip1_1263_28788">
<rect width="18" height="18" fill="white" transform="translate(52 122)"/>
</clipPath>
</defs>
</svg>
