<svg width="171" height="144" viewBox="0 0 171 144" fill="none" xmlns="http://www.w3.org/2000/svg">
<path d="M85.175 133.966C120.971 133.966 149.989 118.838 149.989 100.176C149.989 81.5142 120.971 66.3857 85.175 66.3857C49.3791 66.3857 20.3608 81.5142 20.3608 100.176C20.3608 118.838 49.3791 133.966 85.175 133.966Z" fill="#FAFAFA"/>
<path d="M85.9626 107.977C84.4421 107.977 82.9 107.912 81.3798 107.784C69.3797 106.781 58.6621 101.948 53.409 95.1724L53.1997 94.9026L58.0565 91.1572L58.2658 91.427C63.1003 97.6621 74.243 101.851 85.9927 101.851C85.9934 101.851 85.9937 101.851 85.9948 101.851C87.094 101.851 88.1986 101.813 89.2776 101.738C96.5855 101.228 102.905 99.0358 106.693 95.7086L103.267 92.0049L115.391 91.3148L114.323 103.958L110.857 100.211C106.014 104.524 98.5212 107.232 89.7062 107.847C88.4715 107.933 87.2123 107.977 85.9626 107.977Z" fill="#E0E0E0"/>
<path d="M71.6631 76.2158V71.3244L78.0339 67.6558V72.5472L71.6631 76.2158Z" fill="#F0F0F0"/>
<path d="M71.663 71.3244L63.6992 66.7385V71.63L71.663 76.2158V71.3244Z" fill="#E6E6E6"/>
<path d="M71.6638 71.3244L78.2234 67.5453L70.0708 62.8496L63.5112 66.6287L71.6638 71.3244Z" fill="#FAFAFA"/>
<path d="M71.6631 71.3244V72.5473L78.2226 68.7699V67.5453L71.6631 71.3244Z" fill="#F0F0F0"/>
<path d="M71.6631 72.5472L78.0339 68.8783V69.1474L71.6631 72.816V72.5472Z" fill="#E6E6E6"/>
<path d="M63.5112 66.6288L71.6638 71.3245V72.5473L63.5112 67.8527V66.6288Z" fill="#E6E6E6"/>
<path d="M71.6634 72.5473L63.6992 67.9614L63.6996 68.2302L71.6634 72.8161V72.5473Z" fill="#E0E0E0"/>
<path d="M73.7605 72.0677L75.9366 70.8145C76.0303 70.7606 76.1066 70.8042 76.1066 70.9124V72.1959C76.1066 72.3037 76.0307 72.4354 75.9366 72.4893L73.7605 73.7425C73.6667 73.7964 73.5908 73.7528 73.5908 73.6446V72.3614C73.5908 72.2529 73.6667 72.1219 73.7605 72.0677Z" fill="#EBEBEB"/>
<path d="M73.8998 72.2133L75.7972 71.1207C75.8598 71.0849 75.9104 71.1139 75.9104 71.1858V72.1481C75.9104 72.2201 75.8598 72.3077 75.7972 72.3436L73.8998 73.4361C73.8372 73.4719 73.7866 73.4429 73.7866 73.371V72.4087C73.7866 72.3367 73.8372 72.2491 73.8998 72.2133Z" fill="#FAFAFA"/>
<path d="M71.6631 70.7094V65.8179L78.0339 62.1493V67.0408L71.6631 70.7094Z" fill="#F0F0F0"/>
<path d="M71.663 65.8179L63.6992 61.2321V66.1235L71.663 70.7094V65.8179Z" fill="#E6E6E6"/>
<path d="M71.6638 65.8179L78.2234 62.0388L70.0708 57.3431L63.5112 61.1223L71.6638 65.8179Z" fill="#F5F5F5"/>
<path d="M71.6631 65.8179V67.0408L78.2226 63.2634V62.0388L71.6631 65.8179Z" fill="#F0F0F0"/>
<path d="M71.6631 67.0409L78.0339 63.3723V63.6411L71.6631 67.3097V67.0409Z" fill="#E6E6E6"/>
<path d="M63.5112 61.1223L71.6638 65.818V67.0409L63.5112 62.3462V61.1223Z" fill="#E6E6E6"/>
<path d="M71.6634 67.0408L63.6992 62.455L63.6996 62.7237L71.6634 67.3096V67.0408Z" fill="#E0E0E0"/>
<path d="M73.7605 66.5612L75.9366 65.308C76.0303 65.2541 76.1066 65.2978 76.1066 65.4059V66.6891C76.1066 66.7973 76.0307 66.9286 75.9366 66.9825L73.7605 68.2357C73.6667 68.2896 73.5908 68.2459 73.5908 68.1378V66.8546C73.5908 66.7468 73.6667 66.6155 73.7605 66.5612Z" fill="#EBEBEB"/>
<path d="M73.8998 66.7068L75.7972 65.6142C75.8598 65.5784 75.9104 65.6074 75.9104 65.6794V66.6416C75.9104 66.7136 75.8598 66.8013 75.7972 66.8371L73.8998 67.9297C73.8372 67.9655 73.7866 67.9365 73.7866 67.8645V66.9022C73.7866 66.8303 73.8372 66.7426 73.8998 66.7068Z" fill="#FAFAFA"/>
<path d="M77.6913 67.2386L71.6639 70.7094L64.0438 66.319L63.8574 66.4291L71.6639 70.9096L77.8784 67.3464L77.6913 67.2386Z" fill="#E0E0E0"/>
<path opacity="0.5" d="M77.6913 67.2386L71.6639 70.7094L64.0438 66.319L63.8574 66.4291L71.6639 70.9096L77.8784 67.3464L77.6913 67.2386Z" fill="#E0E0E0"/>
<path d="M99.3366 76.2158V71.3244L92.9658 67.6558V72.5472L99.3366 76.2158Z" fill="#F0F0F0"/>
<path d="M99.3374 71.3244L107.301 66.7385V71.63L99.3374 76.2158V71.3244Z" fill="#E6E6E6"/>
<path d="M99.3374 71.3244L92.7778 67.5453L100.93 62.8496L107.49 66.6287L99.3374 71.3244Z" fill="#FAFAFA"/>
<path d="M99.3374 71.3244V72.5473L92.7778 68.7699V67.5453L99.3374 71.3244Z" fill="#F0F0F0"/>
<path d="M99.3366 72.5472L92.9658 68.8783V69.1474L99.3366 72.816V72.5472Z" fill="#E6E6E6"/>
<path d="M107.49 66.6288L99.3374 71.3245V72.5473L107.49 67.8527V66.6288Z" fill="#E6E6E6"/>
<path d="M99.3374 72.5473L107.302 67.9614L107.301 68.2302L99.3374 72.8161V72.5473Z" fill="#E0E0E0"/>
<path d="M97.2397 72.0677L95.0632 70.8145C94.9695 70.7606 94.8936 70.8042 94.8936 70.9124V72.1959C94.8936 72.3037 94.9695 72.4354 95.0632 72.4893L97.2397 73.7425C97.3334 73.7964 97.4093 73.7528 97.4093 73.6446V72.3614C97.4093 72.2529 97.3334 72.1219 97.2397 72.0677Z" fill="#EBEBEB"/>
<path d="M97.1005 72.2133L95.203 71.1207C95.1405 71.0849 95.0898 71.1139 95.0898 71.1858V72.1481C95.0898 72.2201 95.1405 72.3077 95.203 72.3436L97.1005 73.4361C97.163 73.4719 97.2137 73.4429 97.2137 73.371V72.4087C97.2137 72.3367 97.163 72.2491 97.1005 72.2133Z" fill="#FAFAFA"/>
<path d="M99.3366 70.7094V65.8179L92.9658 62.1493V67.0408L99.3366 70.7094Z" fill="#F0F0F0"/>
<path d="M99.3374 65.8179L107.301 61.2321V66.1235L99.3374 70.7094V65.8179Z" fill="#E6E6E6"/>
<path d="M99.3374 65.8179L92.7778 62.0388L100.93 57.3431L107.49 61.1223L99.3374 65.8179Z" fill="#F5F5F5"/>
<path d="M99.3374 65.8179V67.0408L92.7778 63.2634V62.0388L99.3374 65.8179Z" fill="#F0F0F0"/>
<path d="M99.3366 67.0409L92.9658 63.3723V63.6411L99.3366 67.3097V67.0409Z" fill="#E6E6E6"/>
<path d="M107.49 61.1223L99.3374 65.818V67.0409L107.49 62.3462V61.1223Z" fill="#E6E6E6"/>
<path d="M99.3374 67.0408L107.302 62.455L107.301 62.7237L99.3374 67.3096V67.0408Z" fill="#E0E0E0"/>
<path d="M97.2397 66.5612L95.0632 65.308C94.9695 65.2541 94.8936 65.2978 94.8936 65.4059V66.6891C94.8936 66.7973 94.9695 66.9286 95.0632 66.9825L97.2397 68.2357C97.3334 68.2896 97.4093 68.2459 97.4093 68.1378V66.8546C97.4093 66.7468 97.3334 66.6155 97.2397 66.5612Z" fill="#EBEBEB"/>
<path d="M97.1005 66.7068L95.203 65.6142C95.1405 65.5784 95.0898 65.6074 95.0898 65.6794V66.6416C95.0898 66.7136 95.1405 66.8013 95.203 66.8371L97.1005 67.9297C97.163 67.9655 97.2137 67.9365 97.2137 67.8645V66.9022C97.2137 66.8303 97.163 66.7426 97.1005 66.7068Z" fill="#FAFAFA"/>
<path d="M93.3111 67.2386L99.3385 70.7094L106.959 66.319L107.145 66.4291L99.3385 70.9096L93.124 67.3464L93.3111 67.2386Z" fill="#E0E0E0"/>
<path opacity="0.5" d="M93.3111 67.2386L99.3385 70.7094L106.959 66.319L107.145 66.4291L99.3385 70.9096L93.124 67.3464L93.3111 67.2386Z" fill="#E0E0E0"/>
<path d="M21.9487 96.0275L29.5637 91.6429V75.3561L21.9491 79.741L21.9487 96.0275Z" fill="#263238"/>
<path d="M21.9496 79.741L11.0713 73.4769V89.7637L21.9493 96.0275L21.9496 79.741Z" fill="#37474F"/>
<path d="M11.0713 73.477L21.9496 79.741L29.5643 75.3561L18.6863 69.092L11.0713 73.477Z" fill="#455A64"/>
<path d="M21.0614 88.0006L12.3589 82.9894L12.3592 89.0218L12.1592 89.1375L20.8617 94.1483L21.0618 94.033L21.0614 88.0006Z" fill="#263238"/>
<path d="M20.8617 88.1158L12.1592 83.1046L12.1595 89.1374L20.8621 94.1483L20.8617 88.1158Z" fill="#455A64"/>
<path d="M17.4507 87.1741L15.9709 86.322C15.7787 86.2112 15.623 86.262 15.623 86.4349C15.623 86.6079 15.7787 86.8378 15.9709 86.9486L17.451 87.8007C17.6432 87.9112 17.7989 87.8607 17.7989 87.6878C17.7985 87.5145 17.6429 87.2846 17.4507 87.1741Z" fill="#263238"/>
<path d="M21.0614 80.7186L12.3589 75.7074L12.3592 81.7402L12.1592 81.8555L20.8617 86.8664L21.0618 86.7511L21.0614 80.7186Z" fill="#263238"/>
<path d="M20.8617 80.834L12.1592 75.8228L12.1595 81.8556L20.8621 86.8664L20.8617 80.834Z" fill="#455A64"/>
<path d="M17.4507 79.8921L15.9709 79.04C15.7787 78.9292 15.623 78.98 15.623 79.1529C15.623 79.3259 15.7787 79.5558 15.9709 79.6667L17.451 80.5187C17.6432 80.6292 17.7989 80.5788 17.7989 80.4058C17.7985 80.2325 17.6429 80.0026 17.4507 79.8921Z" fill="#263238"/>
<path d="M149.05 96.0275L141.435 91.6429V75.3561L149.05 79.741V96.0275Z" fill="#76A6F5"/>
<g opacity="0.2">
<path d="M149.05 96.0275L141.435 91.6429V75.3561L149.05 79.741V96.0275Z" fill="black"/>
</g>
<path d="M149.049 79.7409L159.927 73.4768V89.7636L149.049 96.0274V79.7409Z" fill="#76A6F5"/>
<path d="M159.928 73.477L149.05 79.741L141.435 75.3561L152.313 69.092L159.928 73.477Z" fill="#76A6F5"/>
<g opacity="0.4">
<path d="M159.928 73.477L149.05 79.741L141.435 75.3561L152.313 69.092L159.928 73.477Z" fill="white"/>
</g>
<path d="M149.937 88.0007L158.639 82.9895L158.639 89.022L158.839 89.1376L150.137 94.1485L149.937 94.0332L149.937 88.0007Z" fill="#76A6F5"/>
<g opacity="0.1">
<path d="M149.937 88.0007L158.639 82.9895L158.639 89.022L158.839 89.1376L150.137 94.1485L149.937 94.0332L149.937 88.0007Z" fill="black"/>
</g>
<path d="M150.137 88.1159L158.84 83.1047L158.839 89.1375L150.137 94.1484L150.137 88.1159Z" fill="#76A6F5"/>
<g opacity="0.4">
<path d="M150.137 88.1159L158.84 83.1047L158.839 89.1375L150.137 94.1484L150.137 88.1159Z" fill="white"/>
</g>
<path d="M153.548 87.1743L155.028 86.3223C155.22 86.2114 155.376 86.2622 155.376 86.4352C155.376 86.6081 155.22 86.838 155.028 86.9489L153.548 87.801C153.356 87.9115 153.2 87.861 153.2 87.6881C153.201 87.5148 153.356 87.2849 153.548 87.1743Z" fill="#76A6F5"/>
<g opacity="0.1">
<path d="M153.548 87.1743L155.028 86.3223C155.22 86.2114 155.376 86.2622 155.376 86.4352C155.376 86.6081 155.22 86.838 155.028 86.9489L153.548 87.801C153.356 87.9115 153.2 87.861 153.2 87.6881C153.201 87.5148 153.356 87.2849 153.548 87.1743Z" fill="black"/>
</g>
<path d="M149.937 80.7186L158.639 75.7074L158.639 81.7402L158.839 81.8555L150.137 86.8664L149.937 86.7511L149.937 80.7186Z" fill="#76A6F5"/>
<g opacity="0.1">
<path d="M149.937 80.7186L158.639 75.7074L158.639 81.7402L158.839 81.8555L150.137 86.8664L149.937 86.7511L149.937 80.7186Z" fill="black"/>
</g>
<path d="M150.137 80.834L158.84 75.8228L158.839 81.8556L150.137 86.8664L150.137 80.834Z" fill="#76A6F5"/>
<g opacity="0.4">
<path d="M150.137 80.834L158.84 75.8228L158.839 81.8556L150.137 86.8664L150.137 80.834Z" fill="white"/>
</g>
<path d="M153.548 79.8922L155.028 79.0402C155.22 78.9293 155.376 78.9801 155.376 79.1531C155.376 79.326 155.22 79.5559 155.028 79.6668L153.548 80.5189C153.356 80.6294 153.2 80.5789 153.2 80.4059C153.201 80.2327 153.356 80.0028 153.548 79.8922Z" fill="#76A6F5"/>
<g opacity="0.1">
<path d="M153.548 79.8922L155.028 79.0402C155.22 78.9293 155.376 78.9801 155.376 79.1531C155.376 79.326 155.22 79.5559 155.028 79.6668L153.548 80.5189C153.356 80.6294 153.2 80.5789 153.2 80.4059C153.201 80.2327 153.356 80.0028 153.548 79.8922Z" fill="black"/>
</g>
<path d="M104.166 74.9999L139.769 95.5007L141.931 96.7454C141.965 96.7642 141.999 96.783 142.031 96.7983C142.09 96.8263 142.15 96.8515 142.212 96.8699C142.284 96.8979 142.363 96.9197 142.437 96.9324C142.487 96.945 142.538 96.9511 142.588 96.9573C142.597 96.9603 142.609 96.9634 142.619 96.9603C142.681 96.9695 142.747 96.973 142.81 96.973C143.028 96.976 143.229 96.9324 143.379 96.8481C143.729 96.6452 144.092 96.0714 144.189 95.5628L150.189 64.4761C150.202 64.4106 150.208 64.339 150.208 64.2701C150.208 64.2138 150.205 64.1578 150.195 64.1016C150.195 64.0985 150.195 64.0985 150.195 64.0954C150.182 64.0112 150.164 63.9238 150.135 63.8427C150.107 63.7584 150.07 63.6772 150.029 63.5995C150.004 63.5497 149.973 63.4995 149.942 63.4528C149.904 63.3996 149.863 63.3498 149.819 63.303C149.782 63.2594 149.738 63.2188 149.694 63.1843C149.651 63.1468 149.601 63.1158 149.553 63.0875L111.788 41.3419C111.757 41.3232 111.722 41.3044 111.688 41.2887C111.653 41.273 111.619 41.2543 111.581 41.242C111.566 41.2358 111.55 41.2294 111.532 41.2263C111.485 41.214 111.438 41.2075 111.394 41.2106C111.159 41.2294 110.959 41.3883 110.725 41.5258C110.277 41.7877 109.887 42.0156 109.887 42.0156V42.0187C109.824 42.0436 109.768 42.0842 109.718 42.1374C109.652 42.2059 109.599 42.2933 109.564 42.3963C109.549 42.4399 109.539 42.4836 109.53 42.5242L103.53 73.6109C103.433 74.1199 103.718 74.7407 104.166 74.9999Z" fill="#76A6F5"/>
<path d="M104.166 74.9999L139.769 95.5007L141.931 96.7454C141.965 96.7642 141.999 96.783 142.031 96.7983C142.09 96.8263 142.15 96.8515 142.212 96.8699C142.284 96.8979 142.363 96.9197 142.437 96.9324C142.487 96.945 142.538 96.9511 142.588 96.9573C142.597 96.9603 142.609 96.9634 142.619 96.9603C142.681 96.9695 142.747 96.973 142.81 96.973C143.028 96.976 143.229 96.9324 143.379 96.8481C143.729 96.6452 144.092 96.0714 144.189 95.5628L150.189 64.4761C150.202 64.4106 150.208 64.339 150.208 64.2701C150.208 64.2138 150.205 64.1578 150.195 64.1016C150.195 64.0985 150.195 64.0985 150.195 64.0954C150.182 64.0112 150.164 63.9238 150.135 63.8427C150.107 63.7584 150.07 63.6772 150.029 63.5995C150.004 63.5497 149.973 63.4995 149.942 63.4528C149.904 63.3996 149.863 63.3498 149.819 63.303C149.782 63.2594 149.738 63.2188 149.694 63.1843C149.651 63.1468 149.601 63.1158 149.553 63.0875L111.788 41.3419C111.757 41.3232 111.722 41.3044 111.688 41.2887C111.653 41.273 111.619 41.2543 111.581 41.242C111.566 41.2358 111.55 41.2294 111.532 41.2263C111.485 41.214 111.438 41.2075 111.394 41.2106C111.159 41.2294 110.959 41.3883 110.725 41.5258C110.277 41.7877 109.887 42.0156 109.887 42.0156V42.0187C109.824 42.0436 109.768 42.0842 109.718 42.1374C109.652 42.2059 109.599 42.2933 109.564 42.3963C109.549 42.4399 109.539 42.4836 109.53 42.5242L103.53 73.6109C103.433 74.1199 103.718 74.7407 104.166 74.9999Z" fill="#76A6F5"/>
<path d="M142.031 96.7987C142.472 97.0109 143.051 97.0358 143.379 96.8485C143.73 96.6456 144.092 96.0718 144.19 95.5632L150.189 64.4765C150.242 64.1927 150.177 63.8714 150.03 63.5999L148.76 64.3298C148.907 64.6013 148.972 64.9227 148.919 65.2065L142.919 96.2963C142.829 96.7643 142.444 96.9734 142.031 96.7987Z" fill="#263238"/>
<path d="M110.725 41.5264C110.278 41.7884 109.887 42.0162 109.887 42.0162V42.0193C110.068 41.932 110.293 41.9443 110.519 42.0756L148.284 63.8215C148.481 63.9337 148.644 64.1179 148.759 64.3301L150.03 63.6001C150.005 63.5503 149.973 63.5001 149.942 63.4534C149.904 63.4002 149.864 63.3504 149.82 63.3037C149.742 63.2194 149.651 63.1447 149.554 63.0884L111.789 41.3429C111.723 41.3054 111.655 41.2713 111.582 41.243C111.567 41.2368 111.551 41.2303 111.532 41.2273C111.486 41.215 111.439 41.2085 111.395 41.2116C111.16 41.23 110.96 41.3889 110.725 41.5264Z" fill="#37474F"/>
<path opacity="0.5" d="M110.725 41.5264C110.278 41.7884 109.887 42.0162 109.887 42.0162V42.0193C110.068 41.932 110.293 41.9443 110.519 42.0756L148.284 63.8215C148.481 63.9337 148.644 64.1179 148.759 64.3301L150.03 63.6001C150.005 63.5503 149.973 63.5001 149.942 63.4534C149.904 63.4002 149.864 63.3504 149.82 63.3037C149.742 63.2194 149.651 63.1447 149.554 63.0884L111.789 41.3429C111.723 41.3054 111.655 41.2713 111.582 41.243C111.567 41.2368 111.551 41.2303 111.532 41.2273C111.486 41.215 111.439 41.2085 111.395 41.2116C111.16 41.23 110.96 41.3889 110.725 41.5264Z" fill="#455A64"/>
<path d="M142.92 96.2952L148.919 65.2074C149.017 64.6998 148.732 64.0787 148.283 63.8205L110.519 42.0742C110.07 41.8157 109.627 42.0176 109.529 42.5252L103.53 73.6126C103.433 74.1202 103.717 74.7413 104.166 74.9995L141.93 96.7457C142.379 97.0046 142.822 96.8027 142.92 96.2952Z" fill="#76A6F5"/>
<path d="M142.92 96.2952L148.919 65.2074C149.017 64.6998 148.732 64.0787 148.283 63.8205L110.519 42.0742C110.07 41.8157 109.627 42.0176 109.529 42.5252L103.53 73.6126C103.433 74.1202 103.717 74.7413 104.166 74.9995L141.93 96.7457C142.379 97.0046 142.822 96.8027 142.92 96.2952Z" fill="#37474F"/>
<path opacity="0.5" d="M142.92 96.2952L148.919 65.2074C149.017 64.6998 148.732 64.0787 148.283 63.8205L110.519 42.0742C110.07 41.8157 109.627 42.0176 109.529 42.5252L103.53 73.6126C103.433 74.1202 103.717 74.7413 104.166 74.9995L141.93 96.7457C142.379 97.0046 142.822 96.8027 142.92 96.2952Z" fill="#263238"/>
<path d="M114.293 73.7443L139.906 88.4927L141.461 89.3881C141.486 89.4017 141.511 89.4151 141.533 89.4263C141.576 89.4464 141.619 89.4645 141.664 89.4778C141.716 89.4979 141.772 89.5136 141.826 89.5228C141.862 89.5317 141.898 89.5361 141.934 89.5409C141.941 89.5433 141.95 89.5454 141.957 89.5433C142.002 89.5501 142.049 89.5522 142.094 89.5522C142.252 89.5546 142.396 89.5228 142.504 89.4625C142.756 89.3165 143.017 88.9037 143.086 88.5377L147.402 66.1741C147.411 66.127 147.416 66.0752 147.416 66.0261C147.416 65.9858 147.413 65.9452 147.407 65.905C147.407 65.9026 147.407 65.9026 147.407 65.9005C147.398 65.8398 147.384 65.7771 147.364 65.7187C147.344 65.658 147.317 65.5997 147.288 65.5437C147.269 65.5079 147.247 65.4718 147.225 65.4383C147.198 65.4001 147.169 65.3643 147.137 65.3306C147.11 65.2992 147.078 65.2698 147.047 65.2453C147.015 65.2183 146.979 65.1958 146.946 65.1757L119.777 49.5319C119.755 49.5186 119.73 49.5049 119.705 49.4937C119.681 49.4824 119.656 49.4691 119.629 49.4599C119.617 49.4555 119.606 49.451 119.593 49.4486C119.559 49.4398 119.525 49.4353 119.494 49.4374C119.325 49.451 119.181 49.5653 119.012 49.6642C118.69 49.8528 118.409 50.0166 118.409 50.0166V50.019C118.364 50.037 118.323 50.066 118.287 50.1042C118.24 50.1537 118.202 50.2165 118.177 50.2905C118.166 50.3219 118.159 50.3533 118.153 50.3826L113.837 72.7462C113.766 73.1115 113.971 73.558 114.293 73.7443Z" fill="#76A6F5"/>
<path d="M114.293 73.7443L139.906 88.4927L141.461 89.3881C141.486 89.4017 141.511 89.4151 141.533 89.4263C141.576 89.4464 141.619 89.4645 141.664 89.4778C141.716 89.4979 141.772 89.5136 141.826 89.5228C141.862 89.5317 141.898 89.5361 141.934 89.5409C141.941 89.5433 141.95 89.5454 141.957 89.5433C142.002 89.5501 142.049 89.5522 142.094 89.5522C142.252 89.5546 142.396 89.5228 142.504 89.4625C142.756 89.3165 143.017 88.9037 143.086 88.5377L147.402 66.1741C147.411 66.127 147.416 66.0752 147.416 66.0261C147.416 65.9858 147.413 65.9452 147.407 65.905C147.407 65.9026 147.407 65.9026 147.407 65.9005C147.398 65.8398 147.384 65.7771 147.364 65.7187C147.344 65.658 147.317 65.5997 147.288 65.5437C147.269 65.5079 147.247 65.4718 147.225 65.4383C147.198 65.4001 147.169 65.3643 147.137 65.3306C147.11 65.2992 147.078 65.2698 147.047 65.2453C147.015 65.2183 146.979 65.1958 146.946 65.1757L119.777 49.5319C119.755 49.5186 119.73 49.5049 119.705 49.4937C119.681 49.4824 119.656 49.4691 119.629 49.4599C119.617 49.4555 119.606 49.451 119.593 49.4486C119.559 49.4398 119.525 49.4353 119.494 49.4374C119.325 49.451 119.181 49.5653 119.012 49.6642C118.69 49.8528 118.409 50.0166 118.409 50.0166V50.019C118.364 50.037 118.323 50.066 118.287 50.1042C118.24 50.1537 118.202 50.2165 118.177 50.2905C118.166 50.3219 118.159 50.3533 118.153 50.3826L113.837 72.7462C113.766 73.1115 113.971 73.558 114.293 73.7443Z" fill="#76A6F5"/>
<path d="M141.534 89.426C141.851 89.5784 142.267 89.5965 142.504 89.4618C142.756 89.3158 143.017 88.9031 143.086 88.537L147.402 66.1734C147.441 65.9691 147.394 65.7378 147.288 65.5427L146.374 66.068C146.48 66.2631 146.527 66.4944 146.489 66.6987L142.173 89.0647C142.108 89.4014 141.831 89.5518 141.534 89.426Z" fill="#E0E0E0"/>
<path d="M119.012 49.6636C118.69 49.8522 118.409 50.0159 118.409 50.0159V50.0183C118.539 49.9556 118.701 49.9644 118.863 50.0586L146.031 65.7024C146.173 65.7832 146.29 65.9156 146.373 66.0681L147.287 65.5428C147.269 65.5069 147.246 65.4708 147.224 65.4374C147.197 65.3992 147.168 65.3633 147.136 65.3296C147.08 65.2689 147.015 65.215 146.945 65.1747L119.777 49.5309C119.729 49.5039 119.68 49.4794 119.628 49.4589C119.617 49.4545 119.606 49.45 119.592 49.4477C119.558 49.4388 119.525 49.4344 119.493 49.4364C119.325 49.4504 119.181 49.5647 119.012 49.6636Z" fill="#FAFAFA"/>
<path d="M142.173 89.064L146.489 66.6997C146.559 66.3348 146.355 65.8879 146.032 65.702L118.864 50.0578C118.542 49.8719 118.223 50.0173 118.152 50.3822L113.837 72.7465C113.766 73.1119 113.971 73.5584 114.294 73.7443L141.461 89.3884C141.784 89.5743 142.103 89.429 142.173 89.064Z" fill="#F5F5F5"/>
<path d="M122.08 67.1678C122.271 67.0577 122.426 66.7776 122.426 66.5426V25.8711C122.426 25.6361 122.261 25.3502 122.057 25.2326L96.449 10.4865C96.2448 10.3689 95.9244 10.3631 95.7329 10.4732C95.5414 10.5834 95.3861 10.8635 95.3861 11.0985L95.3857 51.77C95.3857 52.005 95.5513 52.2908 95.7554 52.4085L121.363 67.1545C121.568 67.2722 121.888 67.278 122.08 67.1678Z" fill="#EBEBEB"/>
<path d="M95.3896 11.0341C95.4208 10.8469 95.5712 10.7814 95.7556 10.8875L121.365 25.6321C121.469 25.6915 121.562 25.7945 121.625 25.9098L122.319 25.5103C122.254 25.3951 122.16 25.292 122.057 25.2327L96.4505 10.488C96.2474 10.3693 95.9252 10.3632 95.734 10.4723C95.5617 10.5753 95.4146 10.8124 95.3896 11.0341Z" fill="#FAFAFA"/>
<path d="M121.415 67.1795C121.615 67.2733 121.903 67.2699 122.081 67.1672C122.272 67.058 122.425 66.7773 122.425 66.5433V25.8722C122.425 25.7535 122.384 25.6255 122.318 25.5103L121.624 25.9097C121.693 26.0253 121.733 26.1529 121.733 26.2716V66.9427C121.734 67.158 121.593 67.2576 121.415 67.1795Z" fill="#E0E0E0"/>
<path d="M121.363 67.1545L95.7554 52.4084C95.5513 52.2908 95.3857 52.0049 95.3857 51.7699L95.3861 11.0984C95.3861 10.8634 95.5516 10.7682 95.7558 10.8856L121.364 25.6316C121.568 25.7489 121.733 26.0348 121.733 26.2701L121.733 66.9416C121.733 67.177 121.568 67.2722 121.363 67.1545Z" fill="#F5F5F5"/>
<g opacity="0.3">
<path d="M119.862 44.1595C119.862 44.4723 119.581 44.5634 119.234 44.3635L97.8845 32.0687C97.5373 31.8688 97.2559 31.4533 97.2559 31.1405C97.2559 30.8277 97.5373 30.7367 97.8845 30.9366L119.234 43.2314C119.581 43.4313 119.862 43.8467 119.862 44.1595Z" fill="#455A64"/>
<path d="M119.862 47.5553C119.862 47.8681 119.581 47.9592 119.234 47.7593L97.8845 35.4644C97.5373 35.2645 97.2559 34.8491 97.2559 34.5363C97.2559 34.2235 97.5373 34.1324 97.8845 34.3323L119.234 46.6271C119.581 46.8274 119.862 47.2428 119.862 47.5553Z" fill="#455A64"/>
<path d="M119.862 50.9513C119.862 51.2637 119.581 51.3552 119.234 51.1553L97.8845 38.8604C97.5373 38.6605 97.2559 38.2451 97.2559 37.9323C97.2559 37.6195 97.5373 37.5284 97.8845 37.7283L119.234 50.0231C119.581 50.2234 119.862 50.6388 119.862 50.9513Z" fill="#455A64"/>
<path d="M119.862 54.3474C119.862 54.6602 119.581 54.7513 119.234 54.5514L97.8845 42.2565C97.5373 42.0567 97.2559 41.6412 97.2559 41.3284C97.2559 41.0156 97.5373 40.9245 97.8845 41.1244L119.234 53.4193C119.581 53.6195 119.862 54.035 119.862 54.3474Z" fill="#455A64"/>
<path d="M119.862 33.9713C119.862 34.2838 119.581 34.3752 119.234 34.1753L97.8845 21.8805C97.5373 21.6806 97.2559 21.2651 97.2559 20.9523C97.2559 20.6399 97.5373 20.5485 97.8845 20.7484L119.234 33.0432C119.581 33.2434 119.862 33.6589 119.862 33.9713Z" fill="#455A64"/>
<path d="M119.862 37.3674C119.862 37.6799 119.581 37.7713 119.234 37.5714L97.8845 25.2766C97.5373 25.0767 97.2559 24.6612 97.2559 24.3484C97.2559 24.0356 97.5373 23.9445 97.8845 24.1444L119.234 36.4393C119.581 36.6392 119.862 37.0546 119.862 37.3674Z" fill="#455A64"/>
<path d="M119.862 30.5801C119.862 30.8929 119.581 30.984 119.234 30.7841L97.8845 18.4893C97.5373 18.2894 97.2559 17.8739 97.2559 17.5611C97.2559 17.2486 97.5373 17.1572 97.8845 17.3571L119.234 29.652C119.581 29.8518 119.862 30.2677 119.862 30.5801Z" fill="#455A64"/>
<path d="M119.862 40.7635C119.862 41.076 119.581 41.1674 119.234 40.9675L97.8845 28.6727C97.5373 28.4728 97.2559 28.0573 97.2559 27.7445C97.2559 27.4317 97.5373 27.3407 97.8845 27.5406L119.234 39.8354C119.581 40.0353 119.862 40.4507 119.862 40.7635Z" fill="#455A64"/>
<path d="M119.862 57.7434C119.862 58.0562 119.581 58.1473 119.234 57.9474L97.8845 45.6525C97.5373 45.4527 97.2559 45.0372 97.2559 44.7244C97.2559 44.4116 97.5373 44.3205 97.8845 44.5204L119.234 56.8152C119.581 57.0151 119.862 57.4309 119.862 57.7434Z" fill="#455A64"/>
<path d="M119.862 61.1394C119.862 61.4522 119.581 61.5433 119.234 61.3434L97.8845 49.0486C97.5373 48.8487 97.2559 48.4332 97.2559 48.1204C97.2559 47.808 97.5373 47.7166 97.8845 47.9164L119.234 60.2113C119.581 60.4112 119.862 60.8266 119.862 61.1394Z" fill="#455A64"/>
</g>
<path d="M102.64 45.4216C102.64 45.1624 102.729 44.9799 102.872 44.8878C102.872 44.8878 102.893 44.8707 102.933 44.853L104.157 44.1404C104.157 44.1404 104.157 44.1401 104.158 44.1398L104.161 44.138V44.1387C104.314 44.0524 104.524 44.0654 104.756 44.1991L129.232 58.2766L129.945 55.4099C130.01 55.1936 130.139 55.0367 130.298 54.9429L130.294 54.9409L131.568 54.2031L131.567 54.2082C131.788 54.0779 132.07 54.0717 132.342 54.2283L142.755 60.2233C143.223 60.4924 143.602 61.147 143.602 61.6856L143.601 96.3195C143.601 96.5777 143.516 96.7619 143.374 96.8543L142.063 97.6123C141.911 97.688 141.71 97.6709 141.487 97.5423L103.472 75.6522C103.005 75.3831 102.625 74.7281 102.625 74.1899L102.64 45.4216Z" fill="#76A6F5"/>
<path d="M130.316 54.9295C130.535 54.8088 130.809 54.8125 131.075 54.9647L141.487 60.9589C141.718 61.0954 141.929 61.3256 142.086 61.5907L143.354 60.8535C143.202 60.5885 142.99 60.3541 142.756 60.2218L132.343 54.2275C132.07 54.0716 131.788 54.0795 131.569 54.2081V54.2043L130.316 54.9295Z" fill="#455A64"/>
<path d="M102.934 44.8526C103.082 44.7902 103.278 44.8137 103.489 44.9345L127.989 59.0324C128.458 59.3015 128.963 59.1027 129.119 58.5839L129.233 58.2758L104.757 44.1974C104.624 44.1192 104.495 44.0841 104.381 44.0841C104.299 44.0841 104.225 44.1036 104.162 44.1387H104.159L102.934 44.8526Z" fill="#455A64"/>
<path d="M102.641 45.4231L102.625 74.1903C102.625 74.73 103.004 75.3852 103.473 75.6537L141.585 97.5991C141.918 97.7908 142.333 97.5513 142.333 97.1679V62.4222C142.333 62.1541 142.24 61.8542 142.086 61.5923C141.93 61.3272 141.717 61.0963 141.489 60.9619L131.075 54.9656C130.81 54.8158 130.534 54.8097 130.315 54.9311L130.293 54.9434H130.299C130.14 55.0369 130.012 55.1931 129.946 55.4114L129.232 58.2767L129.12 58.5857C128.963 59.1035 128.459 59.3034 127.99 59.035L103.488 44.936C103.278 44.8143 103.081 44.7924 102.934 44.8548L102.9 44.8736C102.894 44.8767 102.887 44.8798 102.881 44.8828L102.872 44.889C102.731 44.9804 102.641 45.1642 102.641 45.4231Z" fill="#37474F"/>
<path d="M120.406 73.0703C120.461 73.0444 120.52 73.0321 120.577 73.0321C120.728 73.0321 120.872 73.1167 120.94 73.2613L122.078 75.6651V71.4023C122.078 71.1813 122.258 71.0022 122.48 71.0022C122.701 71.0022 122.881 71.1813 122.881 71.4023V76.509L124.104 75.3349C124.264 75.1811 124.518 75.1869 124.671 75.3458C124.825 75.5051 124.82 75.7586 124.661 75.9117L122.758 77.7373C122.665 77.8267 122.536 77.8663 122.407 77.8427C122.28 77.8192 122.172 77.7363 122.117 77.62L120.215 73.6035C120.12 73.4029 120.206 73.1645 120.406 73.0703Z" fill="#76A6F5"/>
<path d="M125.212 73.9827C124.99 73.9827 124.811 73.8037 124.811 73.5826V71.1686L120.149 68.4838V70.4359C120.149 70.657 119.969 70.8361 119.748 70.8361C119.526 70.8361 119.347 70.657 119.347 70.4359V67.791C119.347 67.6481 119.423 67.5161 119.547 67.4444C119.609 67.4086 119.678 67.3909 119.748 67.3909C119.817 67.3909 119.886 67.409 119.948 67.4444L125.412 70.5908C125.537 70.6621 125.613 70.7941 125.613 70.9374V73.5823C125.613 73.8037 125.433 73.9827 125.212 73.9827Z" fill="#76A6F5"/>
<path d="M142.026 97.6253C142.039 97.6222 142.051 97.6192 142.064 97.6127L143.374 96.8544C143.515 96.7609 143.603 96.5767 143.603 96.3178V61.6843C143.603 61.4128 143.505 61.1194 143.352 60.8544L142.085 61.5908V61.5939C142.239 61.8559 142.333 62.1553 142.333 62.4238V97.1668C142.332 97.3821 142.201 97.5537 142.026 97.6253Z" fill="#263238"/>
<path d="M66.8338 75L31.2302 95.5009L29.0688 96.7456C29.0342 96.7643 29 96.7831 28.9686 96.7984C28.9091 96.8264 28.8496 96.8516 28.787 96.8701C28.7152 96.898 28.6368 96.9199 28.5616 96.9325C28.5117 96.9451 28.4614 96.9512 28.4115 96.9574C28.4019 96.9605 28.3896 96.9635 28.38 96.9605C28.3174 96.9697 28.2517 96.9731 28.1892 96.9731C27.9703 96.9762 27.7699 96.9325 27.6197 96.8482C27.2695 96.6453 26.9067 96.0715 26.8095 95.5629L20.8098 64.4762C20.7972 64.4107 20.791 64.3391 20.791 64.2702C20.791 64.2139 20.7941 64.158 20.8037 64.1017C20.8037 64.0986 20.8037 64.0986 20.8037 64.0955C20.8163 64.0113 20.8348 63.924 20.8632 63.8428C20.8912 63.7585 20.9288 63.6773 20.9695 63.5996C20.9945 63.5498 21.026 63.4996 21.0571 63.4529C21.0947 63.3997 21.1354 63.3499 21.1792 63.3032C21.2168 63.2595 21.2606 63.2189 21.3044 63.1845C21.3481 63.1469 21.3981 63.1159 21.4453 63.0876L59.2106 41.342C59.2421 41.3233 59.2763 41.3045 59.3108 41.2888C59.3454 41.2731 59.3796 41.2544 59.4172 41.2421C59.4329 41.236 59.4483 41.2295 59.4671 41.2264C59.514 41.2141 59.5608 41.2076 59.6046 41.2107C59.8392 41.2295 60.0393 41.3884 60.2739 41.5259C60.7212 41.7879 61.1121 42.0157 61.1121 42.0157V42.0188C61.1747 42.0437 61.2312 42.0843 61.2811 42.1375C61.3467 42.2061 61.4001 42.2934 61.4343 42.3964C61.45 42.4401 61.4593 42.4837 61.4688 42.5243L67.4685 73.611C67.566 74.12 67.2811 74.7408 66.8338 75Z" fill="#76A6F5"/>
<path d="M66.8338 75L31.2302 95.5009L29.0688 96.7456C29.0342 96.7643 29 96.7831 28.9686 96.7984C28.9091 96.8264 28.8496 96.8516 28.787 96.8701C28.7152 96.898 28.6368 96.9199 28.5616 96.9325C28.5117 96.9451 28.4614 96.9512 28.4115 96.9574C28.4019 96.9605 28.3896 96.9635 28.38 96.9605C28.3174 96.9697 28.2517 96.9731 28.1892 96.9731C27.9703 96.9762 27.7699 96.9325 27.6197 96.8482C27.2695 96.6453 26.9067 96.0715 26.8095 95.5629L20.8098 64.4762C20.7972 64.4107 20.791 64.3391 20.791 64.2702C20.791 64.2139 20.7941 64.158 20.8037 64.1017C20.8037 64.0986 20.8037 64.0986 20.8037 64.0955C20.8163 64.0113 20.8348 63.924 20.8632 63.8428C20.8912 63.7585 20.9288 63.6773 20.9695 63.5996C20.9945 63.5498 21.026 63.4996 21.0571 63.4529C21.0947 63.3997 21.1354 63.3499 21.1792 63.3032C21.2168 63.2595 21.2606 63.2189 21.3044 63.1845C21.3481 63.1469 21.3981 63.1159 21.4453 63.0876L59.2106 41.342C59.2421 41.3233 59.2763 41.3045 59.3108 41.2888C59.3454 41.2731 59.3796 41.2544 59.4172 41.2421C59.4329 41.236 59.4483 41.2295 59.4671 41.2264C59.514 41.2141 59.5608 41.2076 59.6046 41.2107C59.8392 41.2295 60.0393 41.3884 60.2739 41.5259C60.7212 41.7879 61.1121 42.0157 61.1121 42.0157V42.0188C61.1747 42.0437 61.2312 42.0843 61.2811 42.1375C61.3467 42.2061 61.4001 42.2934 61.4343 42.3964C61.45 42.4401 61.4593 42.4837 61.4688 42.5243L67.4685 73.611C67.566 74.12 67.2811 74.7408 66.8338 75Z" fill="#76A6F5"/>
<path opacity="0.2" d="M28.9692 96.7988C28.5281 97.011 27.9494 97.0359 27.6211 96.8486C27.2709 96.6457 26.908 96.0719 26.8109 95.5634L20.8112 64.4766C20.7582 64.1928 20.8238 63.8715 20.9705 63.6L22.2404 64.3299C22.0933 64.6015 22.0277 64.9228 22.081 65.2066L28.0807 96.2964C28.1717 96.7644 28.5564 96.9735 28.9692 96.7988Z" fill="black"/>
<path opacity="0.1" d="M60.2752 41.5266C60.7225 41.7886 61.1134 42.0165 61.1134 42.0165V42.0195C60.9318 41.9322 60.7068 41.9445 60.4814 42.0758L22.7164 63.8213C22.5194 63.9336 22.3566 64.1178 22.241 64.3299L20.9712 63.6C20.9962 63.5502 21.0276 63.5 21.0587 63.4533C21.0964 63.4001 21.1371 63.3503 21.1808 63.3035C21.2592 63.2193 21.3498 63.1446 21.4466 63.0883L59.2119 41.3428C59.2776 41.3053 59.3463 41.2711 59.4185 41.2428C59.4342 41.2367 59.4496 41.2302 59.4684 41.2271C59.5153 41.2149 59.5621 41.2084 59.6059 41.2114C59.8402 41.2302 60.0402 41.3892 60.2752 41.5266Z" fill="white"/>
<path d="M28.079 96.2952L22.0803 65.2074C21.9825 64.6998 22.2667 64.0787 22.7157 63.8205L60.4801 42.0742C60.9288 41.8157 61.372 42.0176 61.4702 42.5252L67.4685 73.6126C67.5663 74.1202 67.2821 74.7413 66.8331 74.9995L29.0687 96.7461C28.62 97.0047 28.1768 96.8027 28.079 96.2952Z" fill="#76A6F5"/>
<path opacity="0.15" d="M28.079 96.2952L22.0803 65.2074C21.9825 64.6998 22.2667 64.0787 22.7157 63.8205L60.4801 42.0742C60.9288 41.8157 61.372 42.0176 61.4702 42.5252L67.4685 73.6126C67.5663 74.1202 67.2821 74.7413 66.8331 74.9995L29.0687 96.7461C28.62 97.0047 28.1768 96.8027 28.079 96.2952Z" fill="black"/>
<path d="M56.7077 73.7442L31.0946 88.4926L29.5395 89.388C29.5149 89.4016 29.4899 89.4149 29.4674 89.4262C29.4246 89.4463 29.3819 89.4644 29.3367 89.4777C29.2851 89.4978 29.2286 89.5135 29.1746 89.5227C29.1387 89.5316 29.1024 89.536 29.0665 89.5408C29.0597 89.5432 29.0508 89.5452 29.044 89.5432C28.9988 89.55 28.9516 89.5521 28.9068 89.5521C28.7492 89.5544 28.6052 89.5227 28.4974 89.4623C28.2454 89.3163 27.9844 88.9036 27.9147 88.5376L23.5986 66.174C23.5897 66.1269 23.585 66.0751 23.585 66.0259C23.585 65.9857 23.5874 65.9451 23.5939 65.9049C23.5939 65.9025 23.5939 65.9025 23.5939 65.9004C23.6027 65.8397 23.6164 65.7769 23.6366 65.7186C23.6568 65.6579 23.6838 65.5996 23.7132 65.5436C23.7313 65.5078 23.7536 65.4716 23.7761 65.4382C23.8032 65.4 23.8322 65.3642 23.864 65.3304C23.8911 65.299 23.9225 65.2697 23.954 65.2452C23.9854 65.2182 24.0214 65.1957 24.0552 65.1756L51.2233 49.5317C51.2459 49.5184 51.2705 49.5048 51.2952 49.4935C51.3198 49.4823 51.3448 49.469 51.3718 49.4598C51.3831 49.4553 51.3943 49.4509 51.4077 49.4485C51.4415 49.4396 51.4751 49.4352 51.5069 49.4373C51.6755 49.4509 51.8198 49.5652 51.9884 49.6641C52.3102 49.8527 52.5913 50.0165 52.5913 50.0165V50.0188C52.6365 50.0369 52.6768 50.0659 52.7128 50.1041C52.76 50.1536 52.7983 50.2163 52.8229 50.2904C52.8342 50.3217 52.841 50.3531 52.8475 50.3825L57.1635 72.7461C57.2343 73.1114 57.0295 73.5579 56.7077 73.7442Z" fill="#76A6F5"/>
<path d="M56.7077 73.7442L31.0946 88.4926L29.5395 89.388C29.5149 89.4016 29.4899 89.4149 29.4674 89.4262C29.4246 89.4463 29.3819 89.4644 29.3367 89.4777C29.2851 89.4978 29.2286 89.5135 29.1746 89.5227C29.1387 89.5316 29.1024 89.536 29.0665 89.5408C29.0597 89.5432 29.0508 89.5452 29.044 89.5432C28.9988 89.55 28.9516 89.5521 28.9068 89.5521C28.7492 89.5544 28.6052 89.5227 28.4974 89.4623C28.2454 89.3163 27.9844 88.9036 27.9147 88.5376L23.5986 66.174C23.5897 66.1269 23.585 66.0751 23.585 66.0259C23.585 65.9857 23.5874 65.9451 23.5939 65.9049C23.5939 65.9025 23.5939 65.9025 23.5939 65.9004C23.6027 65.8397 23.6164 65.7769 23.6366 65.7186C23.6568 65.6579 23.6838 65.5996 23.7132 65.5436C23.7313 65.5078 23.7536 65.4716 23.7761 65.4382C23.8032 65.4 23.8322 65.3642 23.864 65.3304C23.8911 65.299 23.9225 65.2697 23.954 65.2452C23.9854 65.2182 24.0214 65.1957 24.0552 65.1756L51.2233 49.5317C51.2459 49.5184 51.2705 49.5048 51.2952 49.4935C51.3198 49.4823 51.3448 49.469 51.3718 49.4598C51.3831 49.4553 51.3943 49.4509 51.4077 49.4485C51.4415 49.4396 51.4751 49.4352 51.5069 49.4373C51.6755 49.4509 51.8198 49.5652 51.9884 49.6641C52.3102 49.8527 52.5913 50.0165 52.5913 50.0165V50.0188C52.6365 50.0369 52.6768 50.0659 52.7128 50.1041C52.76 50.1536 52.7983 50.2163 52.8229 50.2904C52.8342 50.3217 52.841 50.3531 52.8475 50.3825L57.1635 72.7461C57.2343 73.1114 57.0295 73.5579 56.7077 73.7442Z" fill="#76A6F5"/>
<path d="M29.4669 89.426C29.1495 89.5784 28.7333 89.5965 28.497 89.4618C28.2449 89.3158 27.984 88.9031 27.9142 88.537L23.5981 66.1734C23.5598 65.9691 23.607 65.7378 23.7131 65.5427L24.6265 66.068C24.5209 66.2631 24.4737 66.4944 24.512 66.6987L28.828 89.0647C28.893 89.4014 29.17 89.5518 29.4669 89.426Z" fill="#E0E0E0"/>
<path d="M51.9881 49.6636C52.3099 49.8522 52.591 50.0159 52.591 50.0159V50.0183C52.4604 49.9556 52.2986 49.9644 52.1365 50.0586L24.9684 65.7024C24.8264 65.7832 24.7095 65.9156 24.6264 66.0681L23.7129 65.5428C23.731 65.5069 23.7532 65.4708 23.7758 65.4374C23.8028 65.3992 23.8319 65.3633 23.8637 65.3296C23.9201 65.2689 23.9851 65.215 24.0549 65.1747L51.223 49.5309C51.2702 49.5039 51.3198 49.4794 51.3715 49.4589C51.3827 49.4545 51.394 49.45 51.4074 49.4477C51.4412 49.4388 51.4747 49.4344 51.5065 49.4364C51.6752 49.4504 51.8195 49.5647 51.9881 49.6636Z" fill="#FAFAFA"/>
<path d="M28.8283 89.064L24.5129 66.6997C24.4425 66.3348 24.647 65.8879 24.9702 65.702L52.1376 50.0578C52.4605 49.8719 52.7796 50.0173 52.85 50.3822L57.1654 72.7465C57.2358 73.1119 57.0313 73.5584 56.7084 73.7443L29.541 89.3884C29.2178 89.5743 28.8987 89.429 28.8283 89.064Z" fill="#F5F5F5"/>
<path d="M48.9205 67.1678C48.729 67.0577 48.5737 66.7776 48.5737 66.5426V25.8711C48.5737 25.6361 48.7393 25.3502 48.9434 25.2326L74.551 10.4865C74.7552 10.3689 75.0757 10.3631 75.2672 10.4732C75.4587 10.5834 75.614 10.8635 75.614 11.0985L75.6143 51.77C75.6143 52.005 75.4488 52.2908 75.2446 52.4085L49.6367 67.1545C49.4328 67.2722 49.112 67.278 48.9205 67.1678Z" fill="#EBEBEB"/>
<path d="M75.6114 11.0341C75.5799 10.8469 75.4298 10.7814 75.2455 10.8875L49.6358 25.6321C49.5325 25.6915 49.4388 25.7945 49.3762 25.9098L48.6816 25.5103C48.7473 25.3951 48.841 25.292 48.9443 25.2327L74.5505 10.488C74.7537 10.3693 75.0762 10.3632 75.2667 10.4723C75.4394 10.5753 75.5864 10.8124 75.6114 11.0341Z" fill="#FAFAFA"/>
<path d="M49.5859 67.1795C49.3859 67.2733 49.0979 67.2699 48.9197 67.1672C48.7289 67.058 48.5757 66.7773 48.5757 66.5433V25.8722C48.5757 25.7535 48.6164 25.6255 48.682 25.5103L49.3766 25.9097C49.3079 26.0253 49.2672 26.1529 49.2672 26.2716V66.9427C49.2669 67.158 49.4078 67.2576 49.5859 67.1795Z" fill="#E0E0E0"/>
<path d="M49.6373 67.1545L75.2452 52.4084C75.4494 52.2908 75.6149 52.0049 75.6149 51.7699L75.6146 11.0984C75.6146 10.8634 75.449 10.7682 75.2449 10.8856L49.6369 25.6316C49.4328 25.7489 49.2676 26.0348 49.2676 26.2701L49.2679 66.9416C49.2676 67.177 49.4331 67.2722 49.6373 67.1545Z" fill="#F5F5F5"/>
<g opacity="0.3">
<path d="M51.1372 44.1595C51.1372 44.4723 51.4187 44.5634 51.7658 44.3635L73.1152 32.0687C73.4623 31.8688 73.7437 31.4533 73.7437 31.1405C73.7437 30.8277 73.4623 30.7367 73.1152 30.9366L51.7655 43.2314C51.4187 43.4313 51.1372 43.8467 51.1372 44.1595Z" fill="#455A64"/>
<path d="M51.1372 47.5553C51.1372 47.8681 51.4187 47.9592 51.7658 47.7593L73.1152 35.4644C73.4623 35.2645 73.7437 34.8491 73.7437 34.5363C73.7437 34.2235 73.4623 34.1324 73.1152 34.3323L51.7655 46.6271C51.4187 46.8274 51.1372 47.2428 51.1372 47.5553Z" fill="#455A64"/>
<path d="M51.1372 50.9513C51.1372 51.2637 51.4187 51.3552 51.7658 51.1553L73.1152 38.8604C73.4623 38.6605 73.7437 38.2451 73.7437 37.9323C73.7437 37.6195 73.4623 37.5284 73.1152 37.7283L51.7655 50.0231C51.4187 50.2234 51.1372 50.6388 51.1372 50.9513Z" fill="#455A64"/>
<path d="M51.1372 54.3474C51.1372 54.6602 51.4187 54.7513 51.7658 54.5514L73.1152 42.2565C73.4623 42.0567 73.7437 41.6412 73.7437 41.3284C73.7437 41.0156 73.4623 40.9245 73.1152 41.1244L51.7655 53.4193C51.4187 53.6195 51.1372 54.035 51.1372 54.3474Z" fill="#455A64"/>
<path d="M51.1372 33.9713C51.1372 34.2838 51.4187 34.3752 51.7658 34.1753L73.1152 21.8805C73.4623 21.6806 73.7437 21.2651 73.7437 20.9523C73.7437 20.6399 73.4623 20.5485 73.1152 20.7484L51.7655 33.0432C51.4187 33.2434 51.1372 33.6589 51.1372 33.9713Z" fill="#455A64"/>
<path d="M51.1372 37.3674C51.1372 37.6799 51.4187 37.7713 51.7658 37.5714L73.1152 25.2766C73.4623 25.0767 73.7437 24.6612 73.7437 24.3484C73.7437 24.0356 73.4623 23.9445 73.1152 24.1444L51.7655 36.4393C51.4187 36.6392 51.1372 37.0546 51.1372 37.3674Z" fill="#455A64"/>
<path d="M51.1372 30.5801C51.1372 30.8929 51.4187 30.984 51.7658 30.7841L73.1152 18.4893C73.4623 18.2894 73.7437 17.8739 73.7437 17.5611C73.7437 17.2486 73.4623 17.1572 73.1152 17.3571L51.7655 29.652C51.4187 29.8518 51.1372 30.2677 51.1372 30.5801Z" fill="#455A64"/>
<path d="M51.1372 40.7635C51.1372 41.076 51.4187 41.1674 51.7658 40.9675L73.1152 28.6727C73.4623 28.4728 73.7437 28.0573 73.7437 27.7445C73.7437 27.4317 73.4623 27.3407 73.1152 27.5406L51.7655 39.8354C51.4187 40.0353 51.1372 40.4507 51.1372 40.7635Z" fill="#455A64"/>
<path d="M51.1372 57.7434C51.1372 58.0562 51.4187 58.1473 51.7658 57.9474L73.1152 45.6525C73.4623 45.4527 73.7437 45.0372 73.7437 44.7244C73.7437 44.4116 73.4623 44.3205 73.1152 44.5204L51.7655 56.8152C51.4187 57.0151 51.1372 57.4309 51.1372 57.7434Z" fill="#455A64"/>
<path d="M51.1372 61.1394C51.1372 61.4522 51.4187 61.5433 51.7658 61.3434L73.1152 49.0486C73.4623 48.8487 73.7437 48.4332 73.7437 48.1204C73.7437 47.808 73.4623 47.7166 73.1152 47.9164L51.7655 60.2113C51.4187 60.4112 51.1372 60.8266 51.1372 61.1394Z" fill="#455A64"/>
</g>
<path d="M68.3606 45.4218C68.3606 45.1625 68.2713 44.98 68.1284 44.8879C68.1284 44.8879 68.1079 44.8709 68.0682 44.8531L66.8442 44.1406L66.8428 44.1399L66.8401 44.1382V44.1388C66.6872 44.0525 66.4772 44.0655 66.245 44.1992L41.7684 58.2767L41.056 55.41C40.991 55.1938 40.8621 55.0369 40.7024 54.9431L40.7072 54.941L39.4332 54.2032L39.4339 54.2083C39.213 54.078 38.9305 54.0719 38.6589 54.2284L28.2454 60.2234C27.7779 60.4925 27.3989 61.1471 27.3989 61.6857L27.4 96.3196C27.4 96.5778 27.4851 96.762 27.6274 96.8545L28.9383 97.6124C29.0894 97.6881 29.2912 97.6711 29.5145 97.5425L67.5289 75.6523C67.9964 75.3832 68.3757 74.7283 68.3757 74.19L68.3606 45.4218Z" fill="#76A6F5"/>
<path opacity="0.4" d="M40.6847 54.9296C40.4658 54.8089 40.1919 54.8127 39.9261 54.9648L29.5136 60.959C29.2828 61.0955 29.0717 61.3257 28.9155 61.5908L27.647 60.8536C27.7995 60.5886 28.0105 60.3543 28.2451 60.2219L38.6577 54.2277C38.9313 54.0718 39.2127 54.0796 39.432 54.2082V54.2045L40.6847 54.9296Z" fill="white"/>
<path opacity="0.4" d="M68.0679 44.8527C67.9194 44.7903 67.7238 44.8139 67.5125 44.9346L43.0119 59.0325C42.5427 59.3017 42.0382 59.1028 41.882 58.584L41.7681 58.276L66.2443 44.1975C66.3774 44.1194 66.5063 44.0842 66.6198 44.0842C66.7019 44.0842 66.7765 44.1037 66.8387 44.1388H66.8425L68.0679 44.8527Z" fill="white"/>
<path d="M68.3615 45.4233L68.3765 74.1905C68.3765 74.7301 67.9979 75.3854 67.5287 75.6538L29.4176 97.5992C29.0848 97.7909 28.6689 97.5515 28.6689 97.1681V62.4223C28.6689 62.1542 28.7627 61.8543 28.9159 61.5924C29.0722 61.3273 29.2849 61.0964 29.5133 60.962L39.9269 54.9657C40.1926 54.816 40.4679 54.8098 40.6872 54.9313L40.7091 54.9435H40.7029C40.8623 55.037 40.9905 55.1932 41.0565 55.4115L41.7703 58.2768L41.8828 58.5859C42.0391 59.1037 42.5429 59.3036 43.0121 59.0351L67.5143 44.9362C67.724 44.8144 67.921 44.7925 68.068 44.855L68.1026 44.8737C68.1087 44.8768 68.1152 44.8799 68.1214 44.8829L68.1306 44.8891C68.2708 44.9805 68.3615 45.1644 68.3615 45.4233Z" fill="#76A6F5"/>
<path d="M46.4479 72.17C46.5033 72.1959 46.5614 72.2082 46.6189 72.2082C46.7694 72.2082 46.9133 72.1236 46.9817 71.9789L48.1203 69.5752V73.838C48.1203 74.059 48.2998 74.2381 48.5214 74.2381C48.743 74.2381 48.9226 74.059 48.9226 73.838V68.7313L50.1459 69.9054C50.306 70.0592 50.5597 70.0534 50.7133 69.8944C50.8669 69.7351 50.8617 69.4817 50.7024 69.3285L48.7998 67.5029C48.7064 67.4136 48.5782 67.374 48.4493 67.3975C48.3224 67.4211 48.2143 67.504 48.1592 67.6203L46.257 71.6368C46.162 71.837 46.2478 72.0758 46.4479 72.17Z" fill="#263238"/>
<path d="M51.2535 70.916C51.0319 70.916 50.8523 71.0951 50.8523 71.3161V73.7301L46.1905 76.415V74.4628C46.1905 74.2418 46.011 74.0627 45.7894 74.0627C45.5677 74.0627 45.3882 74.2418 45.3882 74.4628V77.1078C45.3882 77.2507 45.4648 77.3827 45.5886 77.4543C45.6508 77.4902 45.7199 77.5079 45.7894 77.5079C45.8584 77.5079 45.9279 77.4898 45.9901 77.4543L51.4542 74.308C51.5784 74.2367 51.6546 74.1047 51.6546 73.9614V71.3165C51.6546 71.0951 51.4751 70.916 51.2535 70.916Z" fill="#263238"/>
<path opacity="0.2" d="M28.9755 97.6253C28.9632 97.6222 28.9506 97.6192 28.9379 97.6127L27.6274 96.8544C27.4865 96.7609 27.3989 96.5767 27.3989 96.3178V61.6843C27.3989 61.4128 27.4961 61.1194 27.6493 60.8544L28.916 61.5908V61.5939C28.7628 61.8559 28.6691 62.1553 28.6691 62.4238V97.1668C28.6691 97.3821 28.8004 97.5537 28.9755 97.6253Z" fill="black"/>
<path d="M104.009 89.1522V91.7515L114.047 102.604V100.005L104.009 89.1522Z" fill="#76A6F5"/>
<path opacity="0.15" d="M104.009 89.1522V91.7515L114.047 102.604V100.005L104.009 89.1522Z" fill="black"/>
<path d="M115.018 91.1244V88.5251L114.049 100.004V102.604L115.018 91.1244Z" fill="#76A6F5"/>
<path opacity="0.2" d="M115.018 91.1244V88.5251L114.049 100.004V102.604L115.018 91.1244Z" fill="black"/>
<path d="M81.2082 106.677C69.5063 105.698 58.7675 101.017 53.4795 94.1958L53.6799 91.8115L57.7952 90.8673C63.1766 97.8081 76.3429 102.202 89.1012 101.31C96.6512 100.783 103.167 98.4692 106.979 94.9626L110.878 96.5778L110.678 98.9621C105.903 103.356 98.3755 106.117 89.4822 106.738C86.7103 106.931 83.9325 106.904 81.2082 106.677Z" fill="#76A6F5"/>
<g opacity="0.15">
<path d="M81.2082 106.677C69.5063 105.698 58.7675 101.017 53.4795 94.1958L53.6799 91.8115L57.7952 90.8673C63.1766 97.8081 76.3429 102.202 89.1012 101.31C96.6512 100.783 103.167 98.4692 106.979 94.9626L110.878 96.5778L110.678 98.9621C105.903 103.356 98.3755 106.117 89.4822 106.738C86.7103 106.931 83.9325 106.904 81.2082 106.677Z" fill="black"/>
</g>
<path d="M115.017 88.5252L104.009 89.1518L107.179 92.5786C103.368 96.0852 96.8514 98.3989 89.3014 98.9256C76.5431 99.8172 63.3768 95.4238 57.9954 88.4833L53.6797 91.8118C58.9677 98.6326 69.7065 103.314 81.4084 104.293C84.1327 104.52 86.9105 104.547 89.682 104.354C98.5754 103.733 106.103 100.972 110.878 96.5784L114.047 100.005L115.017 88.5252Z" fill="#76A6F5"/>
</svg>
