<svg width="50" height="24" viewBox="0 0 50 24" fill="none" xmlns="http://www.w3.org/2000/svg">
<path d="M49.3017 3.75013L48.824 6.00014H12.531L13.0088 3.75013C13.4493 1.67871 15.4854 -0.000183105 17.5559 -0.000183105H46.3473C48.4196 -0.000183105 49.7423 1.67962 49.3017 3.75013ZM9.46423 7.99994H6.73648L5.55074 13.5787H10.921L11.5266 10.7313H11.7351H14.3749L13.7693 13.5787H16.4364L16.818 11.7847H18.612L18.2304 13.5787H16.4364L15.8698 16.2457H13.2028L13.7693 13.5787H11.1295H10.921L10.1441 17.233H7.22238L6.60141 20.1547H9.52315L9.50321 20.2499C9.06264 22.3213 10.3853 24.0002 12.4567 24.0002H41.2481C43.3195 24.0002 45.3556 22.3213 45.7952 20.2499L48.3988 7.99994H12.3144H9.46423ZM3.06141 3.33404L2.06966 7.99994H6.73557L7.72732 3.33404H3.06141ZM11.1957 0.473935H8.33559L7.72732 3.33404H10.5874L11.1957 0.473935ZM0.61377 17.65H4.685L5.55074 13.5787H1.47951L0.61377 17.65Z" fill="#3898FC"/>
</svg>
