<svg width="403" height="403" viewBox="0 0 403 403" fill="none" xmlns="http://www.w3.org/2000/svg">
<path d="M159.647 211.452C126.787 203.819 98.891 207.422 75.4525 175.222C53.2875 144.788 59.5098 117.916 82.2229 94.84C141.569 34.5835 200.608 111.218 274.615 123.501C339.095 134.205 357.891 240.654 302.333 277.721C284.432 289.674 249.258 300.676 228.31 284.572C198.988 261.996 204.815 221.93 159.647 211.452Z" fill="rgba(56, 152, 252, 1)"/>
<path opacity="0.9" d="M159.647 211.452C126.787 203.819 98.891 207.422 75.4525 175.222C53.2875 144.788 59.5098 117.916 82.2229 94.84C141.569 34.5835 200.608 111.218 274.615 123.501C339.095 134.205 357.891 240.654 302.333 277.721C284.432 289.674 249.258 300.676 228.31 284.572C198.988 261.996 204.815 221.93 159.647 211.452Z" fill="white"/>
<path d="M201.275 331.638C287.584 331.638 357.551 327.554 357.551 322.515C357.551 317.476 287.584 313.391 201.275 313.391C114.967 313.391 45 317.476 45 322.515C45 327.554 114.967 331.638 201.275 331.638Z" fill="#F5F5F5"/>
<path d="M286.282 314.513C286.283 316.123 285.713 317.682 284.672 318.912C283.631 320.141 282.188 320.962 280.6 321.227C261.045 324.526 241.075 324.526 221.52 321.227C219.938 320.955 218.503 320.131 217.471 318.902C216.438 317.673 215.874 316.118 215.878 314.513V249.227H286.314L286.282 314.513Z" fill="rgba(56, 152, 252, 1)"/>
<path opacity="0.3" d="M215.837 250.403V259.567C220.076 261.139 233.996 262.292 251.059 262.292C268.122 262.292 282.066 261.139 286.281 259.567V250.403H215.837Z" fill="black"/>
<path d="M287.604 257.391C287.604 259.462 271.613 261.139 251.06 261.139C230.507 261.139 214.516 259.462 214.516 257.391L213.847 249.25H288.313L287.604 257.391Z" fill="rgba(56, 152, 252, 1)"/>
<path d="M251.06 252.99C271.612 252.99 288.273 251.316 288.273 249.251C288.273 247.185 271.612 245.511 251.06 245.511C230.508 245.511 213.847 247.185 213.847 249.251C213.847 251.316 230.508 252.99 251.06 252.99Z" fill="rgba(56, 152, 252, 1)"/>
<path opacity="0.3" d="M251.06 252.99C271.612 252.99 288.273 251.316 288.273 249.251C288.273 247.185 271.612 245.511 251.06 245.511C230.508 245.511 213.847 247.185 213.847 249.251C213.847 251.316 230.508 252.99 251.06 252.99Z" fill="black"/>
<path opacity="0.2" d="M225.287 309.919C224.563 309.917 223.869 309.629 223.357 309.117C222.845 308.605 222.557 307.911 222.555 307.187V269.756C222.557 269.032 222.845 268.339 223.357 267.827C223.869 267.315 224.563 267.026 225.287 267.024C226.01 267.028 226.703 267.318 227.214 267.829C227.726 268.341 228.015 269.033 228.019 269.756V307.187C228.015 307.91 227.726 308.603 227.214 309.115C226.703 309.626 226.01 309.915 225.287 309.919Z" fill="black"/>
<path opacity="0.2" d="M276.841 309.919C276.117 309.917 275.423 309.629 274.911 309.117C274.399 308.605 274.111 307.911 274.108 307.187V269.756C274.111 269.032 274.399 268.339 274.911 267.827C275.423 267.315 276.117 267.026 276.841 267.024C277.564 267.028 278.257 267.318 278.768 267.829C279.28 268.341 279.569 269.033 279.573 269.756V307.187C279.569 307.91 279.28 308.603 278.768 309.115C278.257 309.626 277.564 309.915 276.841 309.919Z" fill="black"/>
<path opacity="0.2" d="M259.652 309.919C258.929 309.915 258.236 309.626 257.725 309.115C257.213 308.603 256.924 307.91 256.92 307.187V269.756C256.924 269.033 257.213 268.341 257.725 267.829C258.236 267.318 258.929 267.028 259.652 267.024C260.376 267.026 261.07 267.315 261.582 267.827C262.094 268.339 262.382 269.032 262.385 269.756V307.187C262.382 307.911 262.094 308.605 261.582 309.117C261.07 309.629 260.376 309.917 259.652 309.919Z" fill="black"/>
<path opacity="0.2" d="M242.47 309.919C241.746 309.915 241.054 309.626 240.542 309.115C240.031 308.603 239.742 307.91 239.737 307.187V269.756C239.742 269.033 240.031 268.341 240.542 267.829C241.054 267.318 241.746 267.028 242.47 267.024C243.194 267.026 243.887 267.315 244.399 267.827C244.911 268.339 245.2 269.032 245.202 269.756V307.187C245.2 307.911 244.911 308.605 244.399 309.117C243.887 309.629 243.194 309.917 242.47 309.919Z" fill="black"/>
<path d="M155.232 99.1915C155.232 99.9312 155.012 100.654 154.601 101.269C154.19 101.884 153.606 102.364 152.923 102.647C152.24 102.93 151.488 103.004 150.762 102.859C150.037 102.715 149.37 102.359 148.847 101.836C148.324 101.313 147.968 100.647 147.824 99.9211C147.68 99.1956 147.754 98.4437 148.037 97.7603C148.32 97.077 148.799 96.4929 149.414 96.0819C150.029 95.671 150.752 95.4517 151.492 95.4517C152.484 95.4517 153.435 95.8457 154.136 96.547C154.838 97.2484 155.232 98.1996 155.232 99.1915Z" fill="#263238"/>
<path d="M148.485 99.7329C148.449 99.7339 148.413 99.7246 148.382 99.706C148.35 99.6875 148.325 99.6605 148.308 99.6281C148.061 99.174 147.906 98.6757 147.851 98.1616C147.797 97.6475 147.844 97.1277 147.99 96.6319C148.136 96.136 148.379 95.6738 148.704 95.2717C149.029 94.8696 149.43 94.5355 149.884 94.2883C150.338 94.0412 150.836 93.8859 151.35 93.8313C151.864 93.7767 152.384 93.824 152.88 93.9703C153.376 94.1166 153.838 94.3592 154.24 94.6841C154.642 95.009 154.976 95.41 155.224 95.8641C155.247 95.9115 155.252 95.9661 155.237 96.0169C155.222 96.0678 155.189 96.1111 155.143 96.1381C155.12 96.1509 155.094 96.1589 155.068 96.1618C155.041 96.1646 155.015 96.1622 154.989 96.1547C154.964 96.1473 154.94 96.1348 154.919 96.1181C154.899 96.1014 154.882 96.0808 154.869 96.0575C154.421 95.2345 153.665 94.6231 152.766 94.3578C151.867 94.0926 150.9 94.1951 150.077 94.643C149.254 95.0908 148.643 95.8472 148.378 96.7458C148.112 97.6444 148.215 98.6116 148.663 99.4346C148.676 99.4579 148.684 99.4835 148.686 99.5099C148.689 99.5362 148.687 99.5629 148.679 99.5884C148.672 99.6139 148.659 99.6376 148.643 99.6582C148.626 99.6789 148.605 99.696 148.582 99.7087C148.552 99.7241 148.519 99.7324 148.485 99.7329Z" fill="#263238"/>
<path d="M144.847 116.277C144.119 116.274 143.405 116.07 142.786 115.686C142.167 115.302 141.666 114.754 141.34 114.102C141.013 113.451 140.874 112.722 140.937 111.996C140.999 111.27 141.262 110.576 141.696 109.991C142.005 109.577 142.392 109.228 142.836 108.964C143.28 108.699 143.772 108.525 144.283 108.451C144.309 108.447 144.336 108.447 144.361 108.454C144.387 108.46 144.411 108.471 144.432 108.487C144.454 108.503 144.471 108.523 144.484 108.546C144.498 108.569 144.506 108.594 144.509 108.62C144.516 108.673 144.502 108.726 144.47 108.768C144.438 108.81 144.392 108.838 144.339 108.846C143.413 108.982 142.578 109.48 142.019 110.231C141.459 110.983 141.221 111.925 141.357 112.852C141.493 113.779 141.991 114.613 142.743 115.173C143.494 115.732 144.436 115.97 145.363 115.834C145.416 115.826 145.471 115.839 145.515 115.87C145.559 115.902 145.588 115.95 145.597 116.003C145.605 116.057 145.592 116.111 145.561 116.155C145.529 116.199 145.481 116.229 145.428 116.237C145.235 116.263 145.041 116.276 144.847 116.277Z" fill="#263238"/>
<path d="M165.17 122.372C164.414 122.37 163.675 122.149 163.042 121.735C162.997 121.705 162.966 121.659 162.954 121.607C162.942 121.554 162.95 121.499 162.978 121.453C163.009 121.409 163.055 121.379 163.108 121.369C163.16 121.358 163.215 121.368 163.26 121.396C164.045 121.906 165.001 122.083 165.917 121.888C166.833 121.693 167.634 121.142 168.144 120.357C168.654 119.571 168.831 118.615 168.636 117.699C168.441 116.783 167.89 115.982 167.105 115.472C167.06 115.443 167.028 115.397 167.016 115.344C167.004 115.292 167.012 115.236 167.04 115.19C167.071 115.147 167.117 115.116 167.17 115.106C167.222 115.095 167.277 115.105 167.322 115.134C168.196 115.703 168.809 116.595 169.026 117.614C169.244 118.634 169.048 119.698 168.483 120.574C168.204 121.01 167.84 121.386 167.414 121.679C166.988 121.973 166.507 122.178 166 122.283C165.727 122.34 165.449 122.37 165.17 122.372Z" fill="#263238"/>
<path d="M149.4 110.855C152.32 110.855 154.687 108.488 154.687 105.568C154.687 102.648 152.32 100.28 149.4 100.28C146.48 100.28 144.112 102.648 144.112 105.568C144.112 108.488 146.48 110.855 149.4 110.855Z" fill="#263238"/>
<path d="M154.357 117.643C157.095 114.904 157.095 110.464 154.357 107.726C151.618 104.988 147.178 104.988 144.44 107.726C141.701 110.464 141.701 114.904 144.44 117.643C147.178 120.381 151.618 120.381 154.357 117.643Z" fill="#263238"/>
<path d="M150.138 129.352C154.421 129.352 157.892 125.88 157.892 121.598C157.892 117.316 154.421 113.844 150.138 113.844C145.856 113.844 142.385 117.316 142.385 121.598C142.385 125.88 145.856 129.352 150.138 129.352Z" fill="#263238"/>
<path d="M165.44 123.905C166.424 119.737 163.843 115.561 159.675 114.578C155.507 113.594 151.331 116.175 150.348 120.343C149.364 124.511 151.945 128.687 156.113 129.671C160.281 130.654 164.457 128.073 165.44 123.905Z" fill="#263238"/>
<path d="M183.613 138.121C183.613 138.75 183.613 139.548 183.67 140.273C183.726 140.999 183.726 141.773 183.774 142.522C183.879 144.021 183.984 145.537 184.145 147.044C184.435 150.069 184.841 153.081 185.362 156.079C185.499 156.821 185.62 157.578 185.773 158.32L186.128 160.149C186.217 160.44 186.128 160.383 186.015 160.375C185.902 160.367 186.015 160.52 186.491 160.52C187.708 160.398 188.893 160.057 189.989 159.513C190.633 159.222 191.294 158.908 191.955 158.57C192.616 158.231 193.285 157.844 193.89 157.506L196.243 160.222C195.682 160.865 195.084 161.476 194.454 162.052C193.833 162.643 193.176 163.194 192.487 163.704C191.765 164.247 191.002 164.735 190.206 165.163C189.3 165.657 188.329 166.021 187.321 166.243C186.699 166.378 186.062 166.432 185.427 166.404C184.651 166.359 183.891 166.168 183.186 165.84C182.437 165.488 181.769 164.983 181.227 164.357C180.762 163.813 180.382 163.201 180.099 162.543C179.88 162.04 179.702 161.52 179.567 160.988L179.253 159.811C179.027 159.005 178.842 158.239 178.648 157.449C177.894 154.281 177.313 151.073 176.907 147.842C176.706 146.23 176.545 144.618 176.448 142.965C176.399 142.159 176.359 141.353 176.335 140.499C176.311 139.645 176.335 138.887 176.335 137.928L183.613 138.121Z" fill="#FFB573"/>
<path d="M179.7 129.431C186.576 134.694 186.302 144.616 186.302 144.616L174.002 147.558C174.002 147.558 170.23 137.58 171.761 133.928C173.357 130.124 175.832 126.465 179.7 129.431Z" fill="rgba(56, 152, 252, 1)"/>
<path opacity="0.7" d="M179.7 129.431C186.576 134.694 186.302 144.616 186.302 144.616L174.002 147.558C174.002 147.558 170.23 137.58 171.761 133.928C173.357 130.124 175.832 126.465 179.7 129.431Z" fill="white"/>
<path d="M193.429 158.433L195.46 155.016L200.554 160.464C200.554 160.464 196.902 162.802 193.114 161.133L193.429 158.433Z" fill="#FFB573"/>
<path d="M197.964 153.379L204.5 157.232L200.551 160.464L195.457 155.015L197.964 153.379Z" fill="#FFB573"/>
<path d="M141.218 316.57L148.246 317.247L152.615 300.78L145.578 300.103L141.218 316.57Z" fill="#FFB573"/>
<path d="M105.186 302.731L111.497 306.035L119 291.156L112.689 287.852L105.186 302.731Z" fill="#FFB573"/>
<path d="M113.184 303.142L107.542 297.412C107.448 297.311 107.32 297.249 107.183 297.237C107.046 297.225 106.91 297.265 106.8 297.347L101.618 301.16C101.492 301.261 101.389 301.387 101.315 301.531C101.241 301.674 101.198 301.831 101.189 301.993C101.18 302.154 101.205 302.315 101.262 302.466C101.319 302.617 101.407 302.754 101.521 302.868C103.52 304.835 104.584 305.681 107.066 308.204C108.598 309.752 111.741 313.403 113.853 315.547C115.964 317.691 118.189 315.716 117.504 314.636C114.425 309.8 113.909 306.761 113.716 304.303C113.681 303.866 113.492 303.455 113.184 303.142Z" fill="#263238"/>
<path d="M149.342 315.111H140.822C140.67 315.112 140.522 315.163 140.401 315.256C140.281 315.35 140.194 315.479 140.153 315.626L138.332 322.324C138.286 322.483 138.279 322.651 138.31 322.814C138.341 322.976 138.41 323.129 138.511 323.26C138.612 323.391 138.743 323.497 138.892 323.568C139.042 323.639 139.206 323.674 139.371 323.67C142.362 323.67 143.78 323.67 147.512 323.67H158.933C162.036 323.67 162.689 320.535 161.399 320.245C155.645 318.971 152.324 317.214 150.551 315.538C150.215 315.25 149.784 315.098 149.342 315.111Z" fill="#263238"/>
<path opacity="0.2" d="M152.603 300.79L150.354 309.277H143.141L145.567 300.113L152.603 300.79Z" fill="black"/>
<path opacity="0.2" d="M112.681 287.852L119 291.164L115.132 298.83L108.812 295.517L112.681 287.852Z" fill="black"/>
<path d="M177.623 128.416C177.623 128.416 180.734 129.779 170.304 171.046L141.337 168.539C142.844 156.796 143.481 149.526 139.942 124.838C144.072 124.354 148.231 124.168 152.387 124.282C156.793 124.348 161.189 124.728 165.541 125.418C169.616 126.213 173.649 127.214 177.623 128.416Z" fill="rgba(56, 152, 252, 1)"/>
<path opacity="0.7" d="M177.623 128.416C177.623 128.416 180.734 129.779 170.304 171.046L141.337 168.539C142.844 156.796 143.481 149.526 139.942 124.838C144.072 124.354 148.231 124.168 152.387 124.282C156.793 124.348 161.189 124.728 165.541 125.418C169.616 126.213 173.649 127.214 177.623 128.416Z" fill="white"/>
<path d="M152.388 124.048C152.388 124.048 150.776 124.048 148.801 124.048C147.633 125.845 152.565 131.092 158.836 136.25C160.351 131.551 162.737 131.568 162.737 131.568L152.388 124.048Z" fill="white"/>
<path d="M165.533 125.314C165.533 125.314 166.266 125.418 168.023 125.821C169.184 127.619 169.837 132.116 166.411 136.034C165.065 131.198 162.744 131.633 162.744 131.633L165.533 125.314Z" fill="white"/>
<path d="M154.963 109.581C155.43 113.885 155.584 121.671 152.384 124.282C152.384 124.282 155.801 127.78 162.733 131.633C167.762 128.151 165.538 125.418 165.538 125.418C160.911 123.887 161.338 120.397 162.443 117.173L154.963 109.581Z" fill="#FFB573"/>
<path opacity="0.2" d="M158.021 112.684L162.446 117.174C162.175 117.92 161.97 118.689 161.834 119.471C160.061 119.06 157.481 117.206 157.449 115.304C157.48 114.403 157.674 113.516 158.021 112.684Z" fill="black"/>
<path d="M171.582 95.5405C174.549 98.1681 175.419 104.568 172.598 108.912C171.751 104.508 171.41 100.022 171.582 95.5405Z" fill="#263238"/>
<path d="M154.063 100.544C153.547 107.629 153.184 110.619 156.247 114.706C160.857 120.855 169.675 119.928 172.295 113.142C174.656 107.024 175.099 96.4658 168.595 92.7421C167.166 91.9077 165.546 91.4541 163.892 91.4246C162.237 91.3951 160.602 91.7907 159.144 92.5736C157.686 93.3564 156.453 94.5003 155.563 95.8958C154.674 97.2914 154.157 98.8918 154.063 100.544Z" fill="#FFB573"/>
<path d="M153.119 106.252C158.358 106.051 161.259 99.1999 159.945 96.3064C165.886 99.4014 174.881 101.836 173.881 97.8539C172.535 92.4779 166.031 88.5365 158.027 91.4059C153.393 93.4209 149.427 97.8539 153.119 106.252Z" fill="#263238"/>
<path d="M151.522 106.244C151.746 107.599 152.492 108.811 153.601 109.621C155.084 110.677 156.438 109.5 156.543 107.784C156.64 106.228 155.987 103.81 154.246 103.439C153.865 103.363 153.471 103.384 153.1 103.5C152.728 103.616 152.392 103.822 152.121 104.101C151.85 104.38 151.654 104.722 151.549 105.096C151.444 105.471 151.435 105.865 151.522 106.244Z" fill="#FFB573"/>
<path d="M170.303 171.048C170.303 171.048 176.856 213.806 173.205 241.275C170.44 262.029 152.604 306.811 152.604 306.811L141.021 306.496C141.021 306.496 152.983 263.093 155.457 246.046C159.688 216.853 149.09 169.243 149.09 169.243L170.303 171.048Z" fill="#263238"/>
<path opacity="0.2" d="M159.004 179.808L152.822 189.553C154.684 201.107 155.865 212.76 156.361 224.452C165.049 208.897 160.971 188.037 159.004 179.808Z" fill="black"/>
<path d="M154.412 307.452L139.855 307.057L140.742 302.374L155.782 302.463L154.412 307.452Z" fill="rgba(56, 152, 252, 1)"/>
<path d="M163.97 170.586C163.97 170.586 159.134 217.93 148.084 243.69C139.145 264.485 117.835 297.748 117.835 297.748L109.323 292.767C109.323 292.767 123.025 255.78 129.788 241.917C146.286 207.928 130.94 180.661 141.338 168.571L163.97 170.586Z" fill="#263238"/>
<path d="M118.762 298.475L107.905 292.519L109.67 287.876L121.237 294.405L118.762 298.475Z" fill="rgba(56, 152, 252, 1)"/>
<path d="M141.043 166.807L139.511 169.289C139.399 169.475 139.616 169.708 139.955 169.733L170.333 172.36C170.591 172.36 170.825 172.272 170.849 172.11L171.34 169.539C171.34 169.362 171.155 169.193 170.873 169.168L141.535 166.63C141.444 166.616 141.352 166.625 141.266 166.656C141.18 166.687 141.104 166.739 141.043 166.807Z" fill="rgba(56, 152, 252, 1)"/>
<path d="M144.705 170.427L143.899 170.362C143.746 170.362 143.633 170.257 143.649 170.161L144.31 166.824C144.31 166.719 144.479 166.655 144.632 166.671L145.438 166.735C145.6 166.735 145.712 166.84 145.688 166.937L145.035 170.273C145.003 170.37 144.85 170.443 144.705 170.427Z" fill="#263238"/>
<path d="M168.105 172.45L167.299 172.386C167.138 172.386 167.025 172.281 167.049 172.184L167.71 168.847C167.71 168.751 167.871 168.678 168.024 168.694L168.83 168.759C168.984 168.759 169.096 168.863 169.08 168.96L168.419 172.297C168.403 172.41 168.226 172.466 168.105 172.45Z" fill="#263238"/>
<path d="M156.4 171.441L155.594 171.369C155.441 171.369 155.328 171.264 155.344 171.167L156.005 167.83C156.005 167.733 156.166 167.661 156.328 167.677L157.134 167.75C157.287 167.75 157.4 167.854 157.383 167.951L156.723 171.288C156.706 171.385 156.561 171.449 156.4 171.441Z" fill="#263238"/>
<path d="M165.161 104.067C165.08 104.639 165.322 105.147 165.693 105.196C166.064 105.244 166.435 104.825 166.499 104.253C166.563 103.68 166.33 103.173 165.959 103.124C165.588 103.076 165.234 103.495 165.161 104.067Z" fill="#263238"/>
<path d="M171.624 104.937C171.552 105.509 171.793 106.017 172.164 106.065C172.535 106.114 172.906 105.694 172.97 105.122C173.035 104.55 172.809 104.042 172.438 103.994C172.067 103.945 171.705 104.365 171.624 104.937Z" fill="#263238"/>
<path d="M172.255 104.002L173.69 103.792C173.69 103.792 172.851 104.768 172.255 104.002Z" fill="#263238"/>
<path d="M169.089 105.566C169.425 106.939 169.945 108.259 170.636 109.491C170.318 109.661 169.966 109.759 169.605 109.778C169.245 109.798 168.884 109.738 168.549 109.604L169.089 105.566Z" fill="#ED893E"/>
<path d="M165.194 111.314C164.061 110.945 163.11 110.158 162.534 109.114C162.52 109.081 162.519 109.043 162.531 109.009C162.542 108.974 162.567 108.946 162.599 108.928C162.633 108.912 162.673 108.909 162.709 108.921C162.745 108.933 162.775 108.959 162.792 108.993C163.15 109.621 163.652 110.155 164.255 110.553C164.859 110.951 165.548 111.201 166.266 111.282C166.303 111.282 166.337 111.296 166.363 111.322C166.389 111.348 166.403 111.383 166.403 111.419C166.403 111.455 166.389 111.49 166.363 111.516C166.337 111.542 166.303 111.556 166.266 111.556C165.901 111.516 165.541 111.435 165.194 111.314Z" fill="#263238"/>
<path d="M162.218 100.755C162.171 100.736 162.129 100.705 162.097 100.666C162.07 100.641 162.049 100.61 162.035 100.576C162.02 100.542 162.013 100.506 162.013 100.469C162.013 100.432 162.02 100.396 162.035 100.362C162.049 100.328 162.07 100.297 162.097 100.272C162.492 99.9184 162.966 99.6664 163.48 99.5372C163.994 99.408 164.532 99.4056 165.047 99.53C165.082 99.5402 165.115 99.5572 165.143 99.5803C165.172 99.6033 165.195 99.6318 165.213 99.6641C165.23 99.6965 165.241 99.7319 165.244 99.7684C165.247 99.8049 165.243 99.8417 165.232 99.8766C165.211 99.948 165.163 100.008 165.099 100.045C165.034 100.081 164.957 100.09 164.885 100.07C164.461 99.9757 164.021 99.9835 163.601 100.093C163.18 100.202 162.792 100.41 162.467 100.699C162.432 100.726 162.392 100.745 162.349 100.754C162.306 100.764 162.261 100.764 162.218 100.755Z" fill="#263238"/>
<path d="M174.34 102.471C174.298 102.455 174.259 102.43 174.227 102.399C173.944 102.067 173.588 101.807 173.186 101.639C172.784 101.471 172.348 101.4 171.914 101.432C171.877 101.44 171.839 101.44 171.802 101.432C171.765 101.425 171.73 101.409 171.7 101.387C171.669 101.365 171.644 101.337 171.625 101.304C171.607 101.272 171.595 101.235 171.591 101.198C171.58 101.124 171.598 101.049 171.642 100.988C171.685 100.928 171.751 100.887 171.825 100.875C172.351 100.828 172.881 100.907 173.37 101.106C173.86 101.305 174.294 101.619 174.638 102.02C174.677 102.066 174.7 102.124 174.704 102.185C174.707 102.246 174.691 102.306 174.657 102.357C174.624 102.408 174.575 102.446 174.518 102.467C174.46 102.487 174.398 102.489 174.34 102.471Z" fill="#263238"/>
<path d="M180.717 163.284C181.239 161.658 182.076 160.151 183.18 158.848C184.285 157.546 185.635 156.474 187.153 155.693C188.672 154.913 190.329 154.439 192.031 154.299C193.733 154.159 195.445 154.355 197.071 154.877C198.697 155.399 200.204 156.236 201.506 157.34C202.809 158.444 203.881 159.794 204.661 161.313C205.442 162.831 205.916 164.489 206.056 166.191C206.196 167.892 206 169.605 205.478 171.231L200.464 186.915L175.704 178.96L180.717 163.284Z" fill="rgba(56, 152, 252, 1)"/>
<path opacity="0.3" d="M180.717 163.284C181.239 161.658 182.076 160.151 183.18 158.848C184.285 157.546 185.635 156.474 187.153 155.693C188.672 154.913 190.329 154.439 192.031 154.299C193.733 154.159 195.445 154.355 197.071 154.877C198.697 155.399 200.204 156.236 201.506 157.34C202.809 158.444 203.881 159.794 204.661 161.313C205.442 162.831 205.916 164.489 206.056 166.191C206.196 167.892 206 169.605 205.478 171.231L200.464 186.915L175.704 178.96L180.717 163.284Z" fill="black"/>
<path d="M156.287 155.434L151.758 169.539C151.691 169.741 151.666 169.955 151.683 170.168C151.7 170.38 151.758 170.587 151.856 170.777C151.953 170.967 152.088 171.135 152.251 171.272C152.414 171.41 152.602 171.514 152.806 171.578L175.696 178.928L180.725 163.276C181.781 159.996 184.095 157.268 187.16 155.694C190.225 154.119 193.79 153.825 197.071 154.877L172.641 147.027C169.358 145.977 165.792 146.273 162.726 147.849C159.66 149.425 157.345 152.152 156.287 155.434Z" fill="rgba(56, 152, 252, 1)"/>
<path d="M168.573 166.129L174.884 146.487C174.906 146.416 174.912 146.342 174.903 146.269C174.893 146.196 174.868 146.125 174.829 146.063C174.79 146 174.738 145.946 174.677 145.906C174.616 145.865 174.546 145.838 174.473 145.826L168.025 144.875L167.219 147.422L171.918 148.929L166.599 165.484L168.573 166.129Z" fill="#263238"/>
<path d="M165.221 165.051C165.075 165.507 165.067 165.995 165.199 166.454C165.33 166.914 165.595 167.324 165.96 167.633C166.324 167.942 166.772 168.136 167.247 168.191C167.722 168.245 168.202 168.158 168.628 167.94C169.053 167.722 169.404 167.382 169.636 166.965C169.869 166.547 169.972 166.07 169.934 165.594C169.895 165.117 169.716 164.663 169.42 164.288C169.123 163.913 168.722 163.635 168.267 163.488C167.965 163.39 167.646 163.353 167.328 163.378C167.011 163.404 166.702 163.492 166.419 163.637C166.136 163.783 165.885 163.982 165.679 164.225C165.473 164.468 165.318 164.748 165.221 165.051Z" fill="#263238"/>
<path d="M176.889 181.275L208.645 191.471C208.76 191.508 208.882 191.523 209.003 191.513C209.124 191.503 209.242 191.47 209.35 191.414C209.457 191.359 209.553 191.283 209.632 191.19C209.71 191.097 209.769 190.99 209.806 190.874C209.844 190.759 209.86 190.637 209.85 190.516C209.841 190.395 209.808 190.276 209.752 190.168C209.697 190.06 209.62 189.964 209.527 189.886C209.433 189.808 209.325 189.749 209.209 189.714L175.696 178.954C175.546 179.42 175.588 179.926 175.812 180.361C176.035 180.797 176.423 181.125 176.889 181.275Z" fill="rgba(56, 152, 252, 1)"/>
<path opacity="0.2" d="M176.889 181.275L189.865 185.442C189.981 185.48 190.103 185.494 190.225 185.485C190.346 185.475 190.465 185.441 190.573 185.386C190.682 185.331 190.778 185.254 190.857 185.162C190.936 185.069 190.996 184.961 191.034 184.845C191.108 184.612 191.086 184.36 190.975 184.142C190.863 183.925 190.67 183.761 190.437 183.685L175.696 178.954C175.546 179.42 175.588 179.926 175.812 180.361C176.035 180.797 176.423 181.125 176.889 181.275Z" fill="black"/>
<path d="M143.351 136.218L142.907 136.71L142.408 137.282C142.069 137.669 141.731 138.088 141.408 138.483C140.747 139.289 140.119 140.152 139.53 141.022C137.095 144.469 135.178 148.255 133.84 152.258C133.517 153.257 133.219 154.257 132.985 155.28C132.905 155.579 132.897 155.699 132.857 155.837C132.85 155.955 132.85 156.073 132.857 156.191C132.844 156.317 132.844 156.444 132.857 156.57C132.857 156.715 133.131 157.054 133.791 157.376C134.586 157.733 135.423 157.988 136.282 158.134C138.355 158.463 140.454 158.601 142.553 158.545C144.745 158.545 146.97 158.351 149.194 158.117C151.419 157.884 153.676 157.594 155.86 157.263L156.738 160.753C152.24 162.217 147.611 163.246 142.915 163.824C140.443 164.146 137.944 164.2 135.46 163.985C134.04 163.852 132.645 163.521 131.317 163.002C130.52 162.682 129.772 162.254 129.093 161.728C128.293 161.101 127.634 160.313 127.158 159.415C126.339 157.731 126.12 155.817 126.537 153.991C126.731 152.758 127.013 151.573 127.343 150.332C127.976 147.949 128.818 145.627 129.858 143.392C130.902 141.152 132.117 138.996 133.493 136.944C134.186 135.92 134.928 134.929 135.702 133.954C136.097 133.47 136.508 132.994 136.911 132.519L137.564 131.818C137.797 131.568 137.983 131.366 138.305 131.06L143.351 136.218Z" fill="#FFB573"/>
<path d="M154.102 158.006L159.744 155.016L159.994 161.077C159.994 161.077 155.964 162.745 153.659 160.907L154.102 158.006Z" fill="#FFB573"/>
<path d="M164.4 154.555L163.554 160.141L160.008 161.076L159.758 155.015L164.4 154.555Z" fill="#FFB573"/>
<path d="M139.942 124.855C136.387 125.484 131.414 135.672 131.414 135.672L140.369 143.732C140.369 143.732 147.486 135.962 147.107 131.336C146.784 127.426 144.463 124.049 139.942 124.855Z" fill="rgba(56, 152, 252, 1)"/>
<path opacity="0.7" d="M139.942 124.855C136.387 125.484 131.414 135.672 131.414 135.672L140.369 143.732C140.369 143.732 147.486 135.962 147.107 131.336C146.784 127.426 144.463 124.049 139.942 124.855Z" fill="white"/>
<path d="M115.953 306.253C115.86 306.265 115.765 306.265 115.671 306.253C114.777 306.204 113.826 304.834 113.334 304.028C113.319 304.005 113.311 303.979 113.311 303.951C113.311 303.924 113.319 303.897 113.334 303.875C113.349 303.851 113.371 303.832 113.397 303.822C113.423 303.812 113.452 303.811 113.479 303.818C113.769 303.875 116.276 304.439 116.59 305.285C116.623 305.377 116.631 305.476 116.614 305.572C116.597 305.668 116.556 305.758 116.493 305.833C116.364 306.029 116.175 306.176 115.953 306.253ZM113.753 304.205C114.47 305.309 115.18 305.97 115.687 306.003C115.803 306.005 115.917 305.977 116.019 305.922C116.121 305.867 116.206 305.786 116.268 305.688C116.303 305.653 116.326 305.608 116.336 305.56C116.346 305.511 116.342 305.461 116.324 305.414C116.131 304.898 114.624 304.415 113.753 304.205Z" fill="rgba(56, 152, 252, 1)"/>
<path d="M115.698 304.028C114.954 304.232 114.174 304.265 113.417 304.124C113.393 304.117 113.371 304.103 113.355 304.085C113.338 304.066 113.326 304.044 113.32 304.02C113.309 303.999 113.303 303.975 113.303 303.951C113.303 303.927 113.309 303.904 113.32 303.883C113.384 303.826 114.851 302.392 115.875 302.464C116.001 302.466 116.126 302.498 116.238 302.556C116.35 302.615 116.446 302.7 116.52 302.803C116.608 302.897 116.662 303.018 116.674 303.146C116.685 303.275 116.654 303.403 116.584 303.512C116.353 303.776 116.041 303.957 115.698 304.028ZM113.755 303.899C114.561 304.012 116.068 303.81 116.383 303.351C116.431 303.278 116.471 303.165 116.326 302.98C116.278 302.909 116.213 302.851 116.137 302.81C116.061 302.77 115.977 302.748 115.891 302.746C115.19 302.698 114.174 303.52 113.755 303.899Z" fill="rgba(56, 152, 252, 1)"/>
<path d="M152.348 316.191C151.569 316.172 150.794 316.072 150.035 315.893C150.008 315.883 149.986 315.866 149.969 315.843C149.953 315.819 149.944 315.792 149.944 315.764C149.944 315.735 149.953 315.708 149.969 315.685C149.986 315.662 150.008 315.644 150.035 315.635C150.382 315.466 153.469 314.023 154.242 314.571C154.312 314.618 154.368 314.684 154.403 314.761C154.439 314.837 154.453 314.922 154.444 315.006C154.44 315.164 154.4 315.318 154.328 315.458C154.255 315.597 154.151 315.719 154.025 315.812C153.519 316.11 152.933 316.243 152.348 316.191ZM150.519 315.707C151.429 315.877 153.122 316.102 153.823 315.578C153.913 315.508 153.987 315.419 154.04 315.317C154.093 315.216 154.123 315.104 154.13 314.99C154.137 314.955 154.133 314.918 154.118 314.885C154.104 314.852 154.08 314.824 154.049 314.805C153.614 314.506 151.792 315.143 150.494 315.707H150.519Z" fill="rgba(56, 152, 252, 1)"/>
<path d="M150.056 315.877C150.027 315.884 149.997 315.884 149.968 315.877C149.948 315.858 149.934 315.835 149.925 315.81C149.917 315.785 149.915 315.758 149.919 315.732C149.919 315.603 150.653 312.564 152.337 312.757C152.757 312.814 152.869 313.015 152.894 313.185C152.998 313.991 151.056 315.514 150.129 315.901L150.056 315.877ZM152.168 312.999C151.104 312.999 150.484 314.772 150.274 315.482C151.282 314.95 152.692 313.684 152.603 313.193C152.603 313.152 152.603 313.039 152.289 313.007L152.168 312.999Z" fill="rgba(56, 152, 252, 1)"/>
<path d="M165.806 103.132L167.232 102.923C167.232 102.923 166.386 103.898 165.806 103.132Z" fill="#263238"/>
<path d="M221.324 166.702L224.767 187.685C224.813 187.965 224.804 188.25 224.739 188.526C224.675 188.801 224.557 189.061 224.392 189.291C224.227 189.521 224.018 189.716 223.778 189.865C223.537 190.014 223.27 190.115 222.991 190.16L189.71 195.62C189.431 195.666 189.146 195.656 188.871 195.592C188.596 195.527 188.336 195.409 188.106 195.244C187.877 195.079 187.682 194.87 187.534 194.63C187.385 194.389 187.285 194.122 187.24 193.843L183.796 172.859C183.711 172.335 183.838 171.8 184.148 171.369C184.458 170.939 184.926 170.649 185.449 170.563L219.023 165.053C219.547 164.968 220.083 165.094 220.514 165.403C220.945 165.712 221.236 166.179 221.324 166.702Z" fill="#40428E"/>
<path d="M192.616 178.08L190.44 178.438C190.12 178.491 189.794 178.48 189.478 178.406C189.163 178.332 188.865 178.197 188.602 178.008C188.339 177.819 188.116 177.58 187.945 177.305C187.774 177.03 187.659 176.724 187.607 176.404C187.554 176.085 187.565 175.758 187.639 175.443C187.713 175.127 187.848 174.829 188.037 174.566C188.226 174.303 188.465 174.08 188.74 173.909C189.015 173.738 189.321 173.624 189.641 173.571L191.817 173.213C192.137 173.161 192.464 173.171 192.779 173.245C193.094 173.319 193.392 173.454 193.655 173.643C193.918 173.832 194.142 174.071 194.312 174.346C194.483 174.621 194.598 174.928 194.65 175.247C194.703 175.567 194.692 175.894 194.618 176.209C194.544 176.524 194.409 176.822 194.22 177.085C194.031 177.348 193.793 177.571 193.517 177.742C193.242 177.913 192.936 178.028 192.616 178.08Z" fill="#FFC727"/>
<path d="M217.683 171.711L214.496 172.258C214.143 172.31 213.783 172.223 213.492 172.015C213.202 171.806 213.004 171.494 212.94 171.142C212.887 170.788 212.975 170.428 213.183 170.138C213.391 169.848 213.704 169.649 214.055 169.585L217.242 169.067C217.418 169.037 217.597 169.043 217.771 169.083C217.944 169.123 218.108 169.197 218.252 169.301C218.397 169.404 218.52 169.536 218.614 169.687C218.707 169.838 218.77 170.007 218.799 170.182C218.843 170.531 218.752 170.884 218.545 171.169C218.337 171.453 218.029 171.647 217.683 171.711Z" fill="white"/>
<path d="M188.475 183.319L188.218 183.535C188.206 183.538 188.193 183.538 188.181 183.535C188.169 183.537 188.156 183.535 188.145 183.53C188.134 183.525 188.124 183.518 188.117 183.508C188.11 183.501 188.104 183.493 188.1 183.485C188.097 183.476 188.095 183.467 188.095 183.457C188.095 183.448 188.097 183.438 188.1 183.43C188.104 183.421 188.11 183.413 188.117 183.407L188.47 183.104C188.484 183.091 188.502 183.083 188.521 183.083C188.54 183.083 188.558 183.091 188.571 183.104C188.578 183.12 188.578 183.138 188.571 183.154L188.879 185.028C188.881 185.037 188.881 185.047 188.879 185.056C188.877 185.065 188.873 185.074 188.867 185.082C188.862 185.09 188.855 185.096 188.846 185.101C188.838 185.106 188.829 185.109 188.819 185.11C188.81 185.112 188.801 185.112 188.792 185.11C188.782 185.108 188.774 185.104 188.766 185.098C188.759 185.093 188.753 185.086 188.749 185.077C188.744 185.069 188.742 185.06 188.741 185.05L188.475 183.319Z" fill="white"/>
<path d="M189.398 184.922L190.211 183.907C190.258 183.848 190.293 183.78 190.312 183.708C190.332 183.635 190.337 183.559 190.326 183.485C190.302 183.356 190.232 183.24 190.128 183.159C190.07 183.112 190.003 183.078 189.931 183.059C189.859 183.04 189.784 183.037 189.711 183.048C189.581 183.072 189.464 183.14 189.38 183.241L189.293 183.351C189.287 183.358 189.279 183.364 189.271 183.368C189.263 183.371 189.254 183.373 189.245 183.373C189.235 183.373 189.226 183.371 189.218 183.368C189.21 183.364 189.202 183.358 189.196 183.351C189.189 183.346 189.183 183.339 189.178 183.33C189.174 183.322 189.172 183.313 189.172 183.303C189.172 183.294 189.174 183.285 189.178 183.276C189.183 183.268 189.189 183.261 189.196 183.255L189.279 183.145C189.334 183.075 189.402 183.017 189.48 182.973C189.558 182.93 189.643 182.902 189.731 182.892C189.82 182.882 189.909 182.889 189.995 182.914C190.08 182.938 190.16 182.979 190.229 183.035C190.299 183.09 190.358 183.158 190.401 183.236C190.444 183.313 190.472 183.399 190.482 183.487C190.492 183.575 190.485 183.665 190.461 183.75C190.436 183.836 190.395 183.916 190.34 183.985L189.646 184.857L190.611 184.701C190.629 184.699 190.649 184.703 190.664 184.715C190.679 184.726 190.69 184.742 190.693 184.761C190.695 184.78 190.69 184.798 190.679 184.813C190.668 184.829 190.652 184.839 190.634 184.844L189.495 185.032C189.486 185.037 189.475 185.039 189.465 185.039C189.455 185.039 189.444 185.037 189.435 185.032C189.416 185.022 189.401 185.005 189.394 184.984C189.387 184.964 189.389 184.941 189.398 184.922Z" fill="white"/>
<path d="M192.065 182.649L191.606 183.278C191.743 183.282 191.876 183.327 191.987 183.406C192.062 183.461 192.125 183.529 192.173 183.608C192.221 183.687 192.253 183.774 192.267 183.866C192.285 183.957 192.282 184.05 192.261 184.141C192.24 184.231 192.2 184.315 192.143 184.389C192.09 184.465 192.022 184.53 191.943 184.579C191.864 184.628 191.776 184.66 191.684 184.674C191.5 184.703 191.312 184.658 191.161 184.55C191.148 184.536 191.141 184.518 191.141 184.499C191.141 184.481 191.148 184.462 191.161 184.449C191.167 184.442 191.175 184.436 191.184 184.432C191.192 184.429 191.202 184.427 191.211 184.427C191.221 184.427 191.23 184.429 191.239 184.432C191.248 184.436 191.255 184.442 191.262 184.449C191.382 184.534 191.53 184.569 191.675 184.545C191.82 184.52 191.95 184.439 192.038 184.32C192.123 184.2 192.158 184.052 192.134 183.907C192.122 183.835 192.096 183.767 192.058 183.705C192.019 183.644 191.969 183.591 191.909 183.549C191.851 183.506 191.784 183.475 191.713 183.458C191.642 183.442 191.568 183.44 191.496 183.452C191.485 183.455 191.473 183.454 191.463 183.45C191.452 183.446 191.443 183.439 191.436 183.429C191.429 183.423 191.424 183.414 191.42 183.405C191.416 183.396 191.414 183.386 191.414 183.377C191.414 183.367 191.416 183.357 191.42 183.348C191.424 183.339 191.429 183.331 191.436 183.324L191.859 182.718L191.078 182.846C191.058 182.848 191.039 182.842 191.023 182.83C191.007 182.819 190.995 182.801 190.991 182.782C190.988 182.763 190.993 182.744 191.004 182.729C191.015 182.713 191.032 182.703 191.051 182.699L192.006 182.543C192.015 182.541 192.025 182.541 192.035 182.543C192.045 182.545 192.054 182.549 192.062 182.555C192.07 182.56 192.077 182.567 192.082 182.576C192.088 182.584 192.091 182.593 192.093 182.603C192.095 182.614 192.095 182.625 192.093 182.635C192.085 182.642 192.076 182.647 192.065 182.649Z" fill="white"/>
<path d="M194.027 183.861L192.92 184.045C192.913 184.049 192.905 184.051 192.897 184.051C192.889 184.051 192.881 184.049 192.874 184.045C192.866 184.041 192.858 184.035 192.852 184.027C192.847 184.02 192.842 184.012 192.84 184.003C192.837 183.994 192.836 183.984 192.837 183.975C192.839 183.965 192.842 183.956 192.847 183.948L193.765 182.282C193.769 182.273 193.775 182.266 193.782 182.26C193.79 182.254 193.798 182.25 193.807 182.247C193.816 182.244 193.826 182.244 193.835 182.245C193.844 182.246 193.853 182.249 193.861 182.254C193.873 182.262 193.883 182.273 193.889 182.286L194.118 183.691H194.256C194.275 183.691 194.292 183.699 194.305 183.711C194.318 183.724 194.325 183.742 194.325 183.76C194.325 183.778 194.318 183.796 194.305 183.809C194.292 183.822 194.275 183.829 194.256 183.829L194.118 183.852L194.174 184.201C194.176 184.21 194.176 184.22 194.174 184.229C194.172 184.239 194.168 184.248 194.162 184.255C194.156 184.263 194.149 184.27 194.141 184.275C194.133 184.279 194.123 184.283 194.114 184.284C194.096 184.286 194.077 184.282 194.062 184.272C194.047 184.262 194.036 184.246 194.031 184.228L194.027 183.861ZM194.004 183.723L193.806 182.525L193.035 183.88L194.004 183.723Z" fill="white"/>
<path d="M196.621 183.659C196.614 183.653 196.608 183.645 196.604 183.636C196.601 183.628 196.599 183.618 196.599 183.609C196.599 183.599 196.601 183.59 196.604 183.581C196.608 183.573 196.614 183.565 196.621 183.558C196.634 183.545 196.652 183.538 196.671 183.538C196.69 183.538 196.708 183.545 196.722 183.558C196.842 183.643 196.99 183.677 197.135 183.655C197.207 183.644 197.276 183.619 197.338 183.58C197.399 183.541 197.452 183.49 197.493 183.43C197.578 183.311 197.613 183.163 197.59 183.019C197.566 182.874 197.487 182.745 197.369 182.658C197.311 182.616 197.245 182.586 197.174 182.569C197.104 182.553 197.032 182.55 196.96 182.562C196.888 182.573 196.818 182.599 196.756 182.637C196.694 182.676 196.64 182.727 196.598 182.787C196.584 182.8 196.566 182.807 196.547 182.807C196.528 182.807 196.51 182.8 196.497 182.787C196.491 182.785 196.487 182.782 196.483 182.778C196.479 182.774 196.476 182.769 196.474 182.764C196.474 182.764 196.474 182.764 196.474 182.741L196.437 181.905C196.432 181.896 196.43 181.886 196.43 181.876C196.43 181.865 196.432 181.855 196.437 181.846C196.444 181.842 196.452 181.841 196.46 181.841C196.468 181.841 196.476 181.842 196.483 181.846L197.433 181.69C197.444 181.687 197.456 181.687 197.467 181.689C197.478 181.691 197.488 181.696 197.497 181.703C197.506 181.71 197.513 181.718 197.518 181.728C197.523 181.738 197.525 181.75 197.525 181.761C197.525 181.772 197.523 181.783 197.518 181.793C197.513 181.803 197.506 181.812 197.497 181.819C197.488 181.826 197.478 181.83 197.467 181.833C197.456 181.835 197.444 181.835 197.433 181.832L196.543 181.979L196.57 182.599C196.666 182.522 196.78 182.47 196.901 182.447C196.992 182.432 197.085 182.435 197.175 182.457C197.265 182.478 197.35 182.517 197.424 182.571C197.5 182.625 197.563 182.693 197.612 182.772C197.66 182.851 197.691 182.939 197.704 183.03C197.72 183.121 197.718 183.214 197.697 183.304C197.677 183.394 197.639 183.479 197.585 183.554C197.474 183.704 197.309 183.805 197.126 183.838C197.034 183.843 196.942 183.83 196.855 183.799C196.769 183.769 196.689 183.721 196.621 183.659Z" fill="white"/>
<path d="M198.583 181.579C198.47 181.677 198.385 181.804 198.338 181.946C198.244 182.214 198.219 182.502 198.264 182.782C198.271 182.827 198.28 182.871 198.292 182.915C198.318 183.047 198.382 183.168 198.477 183.264C198.571 183.359 198.692 183.425 198.823 183.452C198.955 183.479 199.092 183.467 199.216 183.418C199.341 183.368 199.448 183.282 199.525 183.172C199.602 183.061 199.644 182.931 199.647 182.797C199.65 182.662 199.613 182.53 199.541 182.417C199.469 182.303 199.366 182.213 199.243 182.158C199.12 182.103 198.984 182.085 198.852 182.107C198.758 182.124 198.668 182.16 198.589 182.214C198.51 182.268 198.443 182.338 198.393 182.419C198.394 182.272 198.421 182.126 198.471 181.988C198.513 181.871 198.584 181.767 198.678 181.687C198.773 181.606 198.886 181.552 199.008 181.528C199.027 181.524 199.043 181.512 199.053 181.496C199.064 181.48 199.067 181.46 199.063 181.441C199.059 181.423 199.048 181.408 199.032 181.398C199.017 181.387 198.999 181.383 198.98 181.386C198.833 181.414 198.696 181.48 198.583 181.579Z" fill="white"/>
<path d="M200.486 183.13L200.946 181.216L199.958 181.376C199.949 181.378 199.939 181.378 199.93 181.376C199.92 181.374 199.912 181.37 199.904 181.365C199.896 181.359 199.89 181.352 199.885 181.344C199.88 181.335 199.877 181.326 199.876 181.317C199.874 181.308 199.875 181.298 199.877 181.29C199.88 181.281 199.884 181.272 199.889 181.265C199.895 181.258 199.902 181.252 199.91 181.247C199.918 181.243 199.926 181.24 199.935 181.239L201.014 181.06C201.029 181.055 201.045 181.055 201.06 181.06C201.078 181.067 201.093 181.08 201.102 181.096C201.105 181.103 201.107 181.11 201.107 181.117C201.107 181.124 201.105 181.131 201.102 181.138L200.642 183.144C200.64 183.158 200.633 183.17 200.623 183.18C200.614 183.19 200.601 183.197 200.587 183.199H200.555C200.538 183.197 200.522 183.188 200.51 183.176C200.497 183.164 200.489 183.148 200.486 183.13Z" fill="white"/>
<path d="M202.186 180.858C202.241 180.848 202.299 180.85 202.354 180.862C202.409 180.875 202.461 180.898 202.508 180.931C202.554 180.964 202.593 181.006 202.623 181.054C202.653 181.102 202.673 181.156 202.681 181.212C202.69 181.279 202.684 181.347 202.663 181.411C202.643 181.475 202.608 181.534 202.562 181.584C202.713 181.619 202.847 181.705 202.942 181.829C203.036 181.952 203.085 182.104 203.08 182.259C203.074 182.414 203.016 182.562 202.913 182.679C202.811 182.795 202.671 182.873 202.518 182.898C202.365 182.923 202.208 182.894 202.073 182.816C201.939 182.739 201.836 182.617 201.782 182.471C201.727 182.326 201.725 182.166 201.775 182.019C201.826 181.873 201.925 181.748 202.057 181.666C201.999 181.633 201.948 181.587 201.909 181.533C201.871 181.478 201.844 181.415 201.832 181.349C201.823 181.294 201.825 181.237 201.838 181.182C201.85 181.128 201.874 181.076 201.907 181.03C201.94 180.985 201.981 180.946 202.029 180.916C202.077 180.887 202.13 180.867 202.186 180.858ZM202.498 182.759C202.567 182.748 202.633 182.724 202.692 182.688C202.751 182.651 202.803 182.603 202.844 182.547C202.885 182.491 202.914 182.427 202.93 182.359C202.946 182.291 202.948 182.221 202.937 182.152C202.926 182.084 202.901 182.018 202.865 181.959C202.828 181.9 202.78 181.848 202.723 181.808C202.667 181.767 202.603 181.738 202.535 181.723C202.467 181.707 202.397 181.705 202.328 181.717C202.19 181.74 202.068 181.817 201.987 181.93C201.905 182.044 201.872 182.185 201.895 182.322C201.917 182.46 201.993 182.583 202.106 182.665C202.219 182.747 202.36 182.781 202.498 182.759ZM202.305 181.57C202.38 181.555 202.447 181.512 202.491 181.45C202.536 181.387 202.555 181.31 202.544 181.235C202.538 181.197 202.524 181.161 202.504 181.128C202.484 181.096 202.457 181.067 202.426 181.045C202.395 181.023 202.36 181.007 202.322 180.999C202.285 180.99 202.246 180.989 202.209 180.996C202.171 181.002 202.136 181.015 202.104 181.035C202.072 181.055 202.044 181.081 202.022 181.112C202.001 181.143 201.985 181.178 201.977 181.214C201.969 181.251 201.968 181.289 201.974 181.326C201.98 181.364 201.993 181.4 202.013 181.433C202.032 181.466 202.058 181.494 202.089 181.517C202.12 181.54 202.155 181.556 202.192 181.565C202.229 181.574 202.267 181.576 202.305 181.57Z" fill="white"/>
<path d="M205.817 180.262C205.983 180.234 206.154 180.268 206.296 180.358C206.438 180.448 206.543 180.587 206.589 180.748C206.589 180.748 206.616 180.859 206.626 180.918C206.678 181.202 206.656 181.495 206.561 181.768C206.513 181.909 206.429 182.035 206.317 182.133C206.205 182.232 206.069 182.299 205.923 182.328C205.914 182.33 205.905 182.33 205.895 182.328C205.886 182.327 205.878 182.323 205.87 182.318C205.862 182.313 205.856 182.306 205.851 182.298C205.845 182.291 205.842 182.282 205.84 182.273C205.838 182.263 205.837 182.254 205.838 182.244C205.84 182.234 205.843 182.225 205.848 182.217C205.853 182.209 205.86 182.202 205.869 182.196C205.877 182.191 205.886 182.187 205.895 182.186C206.017 182.162 206.131 182.108 206.225 182.027C206.319 181.947 206.391 181.843 206.433 181.726C206.482 181.588 206.509 181.442 206.511 181.295C206.461 181.376 206.394 181.445 206.314 181.498C206.235 181.551 206.146 181.587 206.052 181.602C205.873 181.632 205.69 181.589 205.544 181.483C205.397 181.378 205.298 181.218 205.269 181.04C205.24 180.862 205.282 180.679 205.388 180.532C205.493 180.385 205.653 180.286 205.831 180.257L205.817 180.262ZM206.465 180.845C206.448 180.739 206.401 180.641 206.329 180.562C206.257 180.483 206.163 180.428 206.059 180.402C205.955 180.377 205.846 180.382 205.746 180.419C205.645 180.455 205.558 180.52 205.494 180.606C205.431 180.692 205.394 180.794 205.388 180.901C205.383 181.008 205.409 181.114 205.464 181.206C205.519 181.297 205.599 181.371 205.696 181.417C205.792 181.463 205.9 181.48 206.006 181.465C206.077 181.455 206.146 181.431 206.208 181.395C206.27 181.358 206.324 181.31 206.366 181.252C206.409 181.194 206.44 181.128 206.457 181.058C206.474 180.988 206.477 180.916 206.465 180.845Z" fill="white"/>
<path d="M207.181 181.088C207.135 180.836 207.162 180.576 207.259 180.34C207.293 180.238 207.354 180.148 207.435 180.079C207.516 180.01 207.615 179.964 207.72 179.947C207.825 179.929 207.933 179.941 208.033 179.98C208.132 180.019 208.218 180.085 208.283 180.17C208.451 180.363 208.559 180.6 208.595 180.854C208.642 181.104 208.615 181.362 208.517 181.598C208.48 181.697 208.418 181.784 208.338 181.853C208.258 181.922 208.162 181.97 208.058 181.992C207.954 182.003 207.848 181.988 207.75 181.949C207.653 181.91 207.566 181.847 207.498 181.768C207.329 181.576 207.219 181.34 207.181 181.088ZM207.323 181.088C207.356 181.311 207.452 181.519 207.599 181.689C207.651 181.752 207.717 181.802 207.792 181.834C207.868 181.866 207.949 181.879 208.031 181.873C208.111 181.854 208.185 181.816 208.246 181.761C208.308 181.707 208.355 181.638 208.384 181.561C208.466 181.35 208.49 181.121 208.453 180.898C208.415 180.675 208.319 180.466 208.173 180.294C208.122 180.232 208.055 180.185 207.98 180.158C207.906 180.13 207.825 180.122 207.746 180.135C207.667 180.148 207.593 180.181 207.531 180.232C207.469 180.282 207.421 180.348 207.392 180.422C207.311 180.626 207.287 180.848 207.323 181.065V181.088Z" fill="white"/>
<path d="M209.408 179.884L209.147 180.1C209.136 180.103 209.125 180.103 209.114 180.1C209.102 180.102 209.089 180.101 209.077 180.097C209.065 180.093 209.054 180.086 209.045 180.077C209.039 180.071 209.033 180.063 209.029 180.054C209.025 180.046 209.023 180.036 209.023 180.027C209.023 180.017 209.025 180.008 209.029 179.999C209.033 179.99 209.039 179.983 209.045 179.976L209.399 179.669C209.413 179.656 209.431 179.648 209.45 179.648C209.468 179.648 209.486 179.656 209.5 179.669C209.505 179.685 209.505 179.703 209.5 179.719L209.808 181.597C209.809 181.606 209.808 181.615 209.806 181.624C209.804 181.633 209.8 181.641 209.794 181.649C209.789 181.656 209.782 181.662 209.774 181.666C209.766 181.671 209.757 181.674 209.748 181.675C209.739 181.677 209.73 181.677 209.72 181.676C209.711 181.674 209.703 181.67 209.695 181.665C209.687 181.66 209.681 181.653 209.676 181.646C209.67 181.638 209.667 181.629 209.665 181.62L209.408 179.884Z" fill="white"/>
<path d="M210.332 181.492L211.145 180.473C211.191 180.414 211.224 180.347 211.243 180.275C211.262 180.203 211.266 180.128 211.255 180.055C211.236 179.924 211.166 179.805 211.062 179.724C211.004 179.678 210.936 179.645 210.865 179.626C210.793 179.607 210.718 179.603 210.644 179.614C210.513 179.636 210.394 179.704 210.309 179.807L210.226 179.917C210.222 179.927 210.215 179.935 210.206 179.942C210.198 179.949 210.188 179.954 210.177 179.956C210.167 179.959 210.156 179.959 210.145 179.957C210.135 179.954 210.125 179.95 210.116 179.943C210.107 179.937 210.1 179.928 210.095 179.919C210.09 179.909 210.087 179.898 210.087 179.887C210.087 179.877 210.089 179.866 210.093 179.856C210.097 179.846 210.103 179.837 210.112 179.83L210.199 179.72C210.305 179.588 210.455 179.5 210.621 179.472C210.714 179.457 210.809 179.461 210.9 179.485C210.991 179.509 211.076 179.551 211.149 179.609C211.219 179.664 211.277 179.733 211.321 179.81C211.364 179.888 211.392 179.973 211.402 180.062C211.412 180.15 211.405 180.239 211.38 180.325C211.356 180.41 211.315 180.49 211.259 180.56L210.562 181.432L211.53 181.276C211.539 181.275 211.549 181.275 211.557 181.278C211.566 181.28 211.575 181.284 211.582 181.29C211.589 181.295 211.595 181.302 211.6 181.31C211.604 181.318 211.607 181.327 211.608 181.336C211.61 181.345 211.611 181.354 211.609 181.363C211.607 181.372 211.604 181.381 211.598 181.389C211.593 181.397 211.587 181.403 211.579 181.408C211.571 181.413 211.562 181.417 211.553 181.418L210.415 181.607C210.397 181.614 210.377 181.614 210.359 181.607C210.35 181.602 210.341 181.594 210.334 181.586C210.327 181.577 210.322 181.567 210.319 181.556C210.317 181.545 210.317 181.533 210.319 181.522C210.321 181.511 210.325 181.501 210.332 181.492Z" fill="white"/>
<path d="M214.749 178.93L214.29 179.559C214.451 179.564 214.606 179.625 214.727 179.733C214.848 179.84 214.927 179.987 214.951 180.147C214.967 180.238 214.964 180.331 214.942 180.421C214.921 180.511 214.882 180.596 214.827 180.67C214.773 180.745 214.706 180.809 214.627 180.858C214.549 180.907 214.462 180.939 214.371 180.954C214.28 180.969 214.187 180.966 214.098 180.945C214.008 180.924 213.923 180.885 213.849 180.831C213.842 180.824 213.836 180.816 213.832 180.807C213.828 180.798 213.826 180.788 213.826 180.778C213.826 180.768 213.828 180.759 213.832 180.749C213.836 180.74 213.842 180.732 213.849 180.725C213.855 180.718 213.863 180.713 213.872 180.709C213.88 180.705 213.89 180.703 213.899 180.703C213.909 180.703 213.918 180.705 213.927 180.709C213.936 180.713 213.943 180.718 213.95 180.725C214.069 180.809 214.215 180.842 214.358 180.817C214.431 180.807 214.5 180.782 214.562 180.744C214.625 180.706 214.679 180.656 214.722 180.597C214.764 180.538 214.795 180.471 214.811 180.4C214.828 180.329 214.83 180.255 214.818 180.184C214.807 180.112 214.782 180.043 214.744 179.982C214.706 179.92 214.656 179.867 214.597 179.825C214.539 179.782 214.472 179.75 214.401 179.733C214.33 179.715 214.256 179.712 214.184 179.724C214.174 179.729 214.163 179.731 214.152 179.731C214.141 179.731 214.13 179.729 214.12 179.724C214.113 179.717 214.107 179.709 214.103 179.7C214.099 179.691 214.097 179.681 214.097 179.672C214.097 179.662 214.099 179.652 214.103 179.643C214.107 179.634 214.113 179.626 214.12 179.619L214.542 179.013L213.757 179.141C213.748 179.143 213.738 179.143 213.728 179.141C213.719 179.139 213.71 179.135 213.702 179.13C213.695 179.124 213.688 179.117 213.683 179.109C213.678 179.1 213.675 179.091 213.674 179.082C213.672 179.072 213.672 179.062 213.674 179.053C213.676 179.044 213.68 179.035 213.686 179.027C213.692 179.019 213.699 179.013 213.707 179.008C213.715 179.003 213.724 179 213.734 178.999L214.689 178.838C214.709 178.837 214.729 178.842 214.745 178.854C214.761 178.866 214.772 178.883 214.776 178.902C214.779 178.913 214.779 178.924 214.776 178.935C214.767 178.935 214.758 178.934 214.749 178.93Z" fill="white"/>
<path d="M216.705 180.142L215.603 180.321C215.588 180.326 215.572 180.326 215.557 180.321C215.548 180.317 215.54 180.311 215.534 180.304C215.527 180.297 215.523 180.288 215.52 180.279C215.517 180.27 215.517 180.26 215.518 180.251C215.52 180.241 215.524 180.232 215.529 180.224L216.448 178.558C216.454 178.551 216.461 178.545 216.47 178.542C216.478 178.538 216.487 178.536 216.496 178.536C216.505 178.536 216.514 178.538 216.522 178.542C216.531 178.545 216.538 178.551 216.544 178.558C216.551 178.561 216.557 178.565 216.561 178.571C216.566 178.576 216.57 178.583 216.572 178.59L216.801 179.99L216.939 179.967C216.958 179.966 216.976 179.971 216.991 179.982C217.007 179.993 217.017 180.009 217.022 180.027C217.023 180.046 217.018 180.064 217.007 180.079C216.996 180.095 216.98 180.105 216.962 180.11L216.824 180.133L216.879 180.482C216.882 180.5 216.877 180.519 216.866 180.535C216.855 180.55 216.838 180.561 216.82 180.564C216.801 180.566 216.782 180.561 216.767 180.55C216.752 180.539 216.741 180.523 216.737 180.505L216.705 180.142ZM216.682 179.999L216.489 178.806L215.718 180.183L216.682 179.999Z" fill="white"/>
<path d="M217.553 180.229C217.546 180.222 217.541 180.214 217.537 180.205C217.533 180.196 217.531 180.186 217.531 180.176C217.531 180.166 217.533 180.157 217.537 180.147C217.541 180.138 217.546 180.13 217.553 180.123C217.56 180.116 217.569 180.111 217.578 180.107C217.587 180.103 217.596 180.101 217.606 180.101C217.616 180.101 217.626 180.103 217.635 180.107C217.644 180.111 217.652 180.116 217.659 180.123C217.779 180.207 217.928 180.24 218.072 180.215C218.144 180.203 218.213 180.177 218.274 180.139C218.336 180.1 218.389 180.05 218.43 179.99C218.515 179.872 218.55 179.725 218.527 179.582C218.511 179.473 218.462 179.371 218.387 179.29C218.313 179.209 218.215 179.152 218.108 179.127C218.001 179.102 217.888 179.109 217.785 179.148C217.682 179.188 217.594 179.257 217.531 179.347C217.517 179.36 217.499 179.367 217.48 179.367C217.461 179.367 217.443 179.36 217.43 179.347L217.393 178.507C217.388 178.498 217.385 178.488 217.385 178.477C217.385 178.467 217.388 178.456 217.393 178.447C217.397 178.44 217.403 178.435 217.411 178.431C217.418 178.427 217.426 178.425 217.434 178.424L218.389 178.268C218.399 178.266 218.408 178.266 218.418 178.268C218.427 178.27 218.436 178.274 218.444 178.28C218.451 178.286 218.458 178.293 218.463 178.301C218.468 178.309 218.471 178.318 218.472 178.328C218.474 178.338 218.474 178.348 218.472 178.357C218.47 178.367 218.466 178.376 218.46 178.384C218.455 178.392 218.448 178.399 218.439 178.405C218.431 178.41 218.422 178.414 218.412 178.415L217.521 178.558L217.549 179.177C217.644 179.099 217.758 179.047 217.879 179.026C218.063 178.998 218.25 179.044 218.401 179.153C218.551 179.262 218.653 179.426 218.683 179.609C218.698 179.7 218.695 179.793 218.674 179.882C218.653 179.972 218.615 180.057 218.561 180.131C218.507 180.206 218.439 180.269 218.361 180.318C218.282 180.366 218.195 180.398 218.104 180.413C218.005 180.422 217.904 180.411 217.81 180.379C217.715 180.348 217.627 180.296 217.553 180.229Z" fill="white"/>
<path d="M219.272 178.511C219.319 178.369 219.404 178.242 219.517 178.143C219.63 178.045 219.767 177.978 219.915 177.951C219.933 177.948 219.952 177.953 219.967 177.963C219.982 177.973 219.993 177.989 219.998 178.006C220 178.026 219.996 178.046 219.985 178.062C219.974 178.078 219.957 178.089 219.938 178.094C219.816 178.116 219.703 178.171 219.609 178.251C219.516 178.332 219.445 178.436 219.405 178.553C219.355 178.691 219.329 178.837 219.327 178.984C219.377 178.903 219.444 178.832 219.523 178.779C219.602 178.725 219.692 178.688 219.786 178.672C219.919 178.65 220.055 178.666 220.178 178.721C220.301 178.775 220.406 178.865 220.478 178.978C220.551 179.091 220.588 179.223 220.586 179.358C220.583 179.492 220.542 179.623 220.465 179.734C220.389 179.845 220.282 179.931 220.157 179.981C220.032 180.031 219.896 180.044 219.764 180.017C219.632 179.99 219.511 179.924 219.416 179.829C219.322 179.733 219.257 179.612 219.231 179.48C219.217 179.437 219.207 179.392 219.199 179.347C219.153 179.067 219.179 178.78 219.272 178.511ZM219.373 179.43C219.372 179.442 219.372 179.454 219.373 179.467V179.49C219.403 179.589 219.461 179.679 219.54 179.747C219.619 179.815 219.716 179.858 219.819 179.872C219.922 179.886 220.028 179.87 220.122 179.826C220.217 179.782 220.296 179.711 220.352 179.623C220.407 179.535 220.436 179.432 220.434 179.328C220.433 179.224 220.401 179.122 220.344 179.035C220.286 178.949 220.204 178.88 220.109 178.839C220.013 178.797 219.908 178.784 219.805 178.801C219.734 178.811 219.665 178.835 219.604 178.872C219.542 178.908 219.488 178.957 219.445 179.015C219.403 179.072 219.372 179.138 219.355 179.208C219.338 179.277 219.334 179.35 219.345 179.421L219.373 179.43Z" fill="white"/>
<path d="M207.438 185.689L189.617 188.614L189.761 189.488L207.581 186.564L207.438 185.689Z" fill="white"/>
<path d="M202.551 188.489L189.937 190.56L190.08 191.434L202.694 189.364L202.551 188.489Z" fill="white"/>
<path d="M211.503 169.976L202.613 171.435L202.757 172.31L211.647 170.851L211.503 169.976Z" fill="white"/>
<path d="M259.964 250.01L265.514 229.483C265.588 229.21 265.608 228.925 265.572 228.644C265.535 228.363 265.444 228.093 265.303 227.847C265.162 227.602 264.974 227.387 264.75 227.214C264.526 227.041 264.27 226.914 263.997 226.841L231.44 218.041C231.167 217.967 230.883 217.948 230.602 217.984C230.322 218.02 230.052 218.111 229.807 218.252C229.562 218.393 229.347 218.581 229.175 218.806C229.002 219.03 228.876 219.286 228.803 219.559L223.253 240.086C223.116 240.598 223.187 241.144 223.452 241.604C223.717 242.064 224.153 242.399 224.665 242.537L257.509 251.417C258.021 251.555 258.567 251.484 259.027 251.22C259.487 250.957 259.824 250.522 259.964 250.01Z" fill="#40428E"/>
<path d="M232.556 235.784L230.427 235.208C230.114 235.123 229.788 235.101 229.467 235.143C229.146 235.184 228.836 235.288 228.555 235.45C228.274 235.611 228.028 235.826 227.83 236.083C227.632 236.339 227.487 236.632 227.403 236.945C227.318 237.257 227.296 237.584 227.337 237.905C227.379 238.226 227.483 238.536 227.645 238.817C227.806 239.098 228.021 239.344 228.277 239.542C228.534 239.739 228.827 239.885 229.14 239.969L231.269 240.546C231.581 240.63 231.907 240.652 232.229 240.611C232.55 240.569 232.86 240.465 233.141 240.304C233.421 240.142 233.668 239.927 233.866 239.671C234.063 239.414 234.209 239.121 234.293 238.809C234.378 238.496 234.4 238.17 234.358 237.849C234.317 237.528 234.212 237.218 234.051 236.937C233.89 236.656 233.675 236.41 233.418 236.212C233.162 236.014 232.869 235.869 232.556 235.784Z" fill="#FFC727"/>
<path d="M256.849 244.658L253.734 243.792C253.387 243.704 253.021 243.755 252.711 243.932C252.401 244.11 252.172 244.401 252.072 244.745C251.985 245.091 252.035 245.458 252.213 245.768C252.39 246.078 252.682 246.307 253.025 246.406L256.143 247.245C256.314 247.292 256.494 247.305 256.67 247.282C256.847 247.26 257.017 247.203 257.172 247.114C257.326 247.026 257.461 246.907 257.57 246.766C257.678 246.625 257.758 246.464 257.804 246.292C257.884 245.949 257.829 245.589 257.652 245.285C257.474 244.981 257.187 244.757 256.849 244.658Z" fill="white"/>
<path d="M228.966 230.153L228.732 229.912C228.72 229.909 228.707 229.907 228.695 229.909C228.683 229.906 228.671 229.906 228.659 229.91C228.647 229.914 228.637 229.92 228.628 229.93C228.621 229.935 228.614 229.943 228.61 229.951C228.605 229.959 228.602 229.968 228.601 229.978C228.6 229.987 228.601 229.997 228.604 230.006C228.607 230.015 228.612 230.023 228.618 230.03L228.939 230.367C228.951 230.382 228.969 230.391 228.987 230.392C229.006 230.394 229.025 230.389 229.04 230.378C229.048 230.362 229.05 230.344 229.045 230.327L229.54 228.495C229.543 228.486 229.544 228.476 229.543 228.466C229.542 228.457 229.539 228.448 229.535 228.439C229.53 228.431 229.523 228.424 229.515 228.418C229.508 228.412 229.499 228.408 229.489 228.406C229.481 228.404 229.471 228.403 229.462 228.404C229.453 228.405 229.444 228.408 229.436 228.413C229.428 228.418 229.421 228.424 229.416 228.432C229.411 228.44 229.407 228.449 229.406 228.458L228.966 230.153Z" fill="white"/>
<path d="M230.047 228.652L230.753 229.744C230.794 229.807 230.821 229.878 230.834 229.952C230.846 230.027 230.843 230.103 230.825 230.176C230.788 230.302 230.706 230.41 230.595 230.48C230.533 230.521 230.463 230.547 230.389 230.559C230.316 230.571 230.24 230.567 230.168 230.548C230.042 230.511 229.933 230.431 229.859 230.322L229.783 230.204C229.778 230.196 229.771 230.19 229.763 230.186C229.756 230.181 229.747 230.178 229.738 230.177C229.729 230.176 229.719 230.177 229.711 230.18C229.702 230.183 229.694 230.188 229.688 230.194C229.679 230.199 229.673 230.205 229.667 230.213C229.662 230.221 229.659 230.23 229.658 230.239C229.657 230.249 229.659 230.258 229.662 230.267C229.665 230.276 229.671 230.284 229.678 230.29L229.749 230.408C229.797 230.483 229.859 230.548 229.931 230.599C230.004 230.65 230.086 230.686 230.173 230.705C230.26 230.724 230.35 230.726 230.437 230.71C230.525 230.695 230.608 230.662 230.683 230.614C230.758 230.566 230.823 230.504 230.874 230.431C230.925 230.358 230.961 230.276 230.98 230.189C230.999 230.102 231.001 230.013 230.986 229.925C230.97 229.838 230.937 229.754 230.889 229.679L230.288 228.741L231.231 228.994C231.25 228.999 231.269 228.996 231.286 228.986C231.302 228.977 231.314 228.961 231.319 228.943C231.323 228.925 231.32 228.906 231.31 228.889C231.301 228.873 231.286 228.861 231.268 228.855L230.155 228.552C230.146 228.547 230.136 228.543 230.126 228.542C230.115 228.541 230.105 228.542 230.095 228.546C230.075 228.554 230.058 228.57 230.05 228.589C230.041 228.609 230.04 228.632 230.047 228.652Z" fill="white"/>
<path d="M232.471 231.184L232.078 230.512C232.215 230.522 232.351 230.49 232.47 230.422C232.55 230.376 232.62 230.314 232.676 230.241C232.731 230.167 232.772 230.083 232.795 229.994C232.822 229.905 232.829 229.812 232.817 229.72C232.805 229.628 232.773 229.54 232.725 229.461C232.68 229.379 232.618 229.308 232.545 229.252C232.471 229.195 232.387 229.154 232.297 229.131C232.117 229.083 231.925 229.108 231.764 229.201C231.749 229.213 231.74 229.231 231.738 229.249C231.737 229.268 231.742 229.287 231.753 229.302C231.759 229.309 231.766 229.316 231.775 229.32C231.783 229.325 231.792 229.328 231.801 229.329C231.811 229.33 231.82 229.329 231.829 229.326C231.838 229.323 231.847 229.318 231.854 229.312C231.982 229.239 232.133 229.22 232.275 229.258C232.417 229.298 232.538 229.391 232.613 229.518C232.685 229.646 232.705 229.797 232.667 229.939C232.648 230.009 232.615 230.075 232.57 230.132C232.526 230.189 232.47 230.237 232.407 230.273C232.344 230.31 232.274 230.334 232.202 230.343C232.13 230.352 232.056 230.347 231.986 230.327C231.975 230.324 231.964 230.323 231.953 230.326C231.942 230.329 231.932 230.335 231.924 230.344C231.917 230.35 231.91 230.357 231.905 230.366C231.901 230.375 231.898 230.384 231.897 230.394C231.896 230.404 231.897 230.414 231.9 230.423C231.902 230.432 231.907 230.441 231.914 230.449L232.273 231.094L231.509 230.888C231.489 230.884 231.469 230.888 231.452 230.898C231.435 230.908 231.422 230.924 231.416 230.943C231.411 230.961 231.414 230.981 231.423 230.997C231.433 231.014 231.448 231.026 231.467 231.031L232.401 231.283C232.41 231.286 232.42 231.287 232.43 231.286C232.44 231.285 232.45 231.282 232.458 231.277C232.467 231.273 232.474 231.266 232.481 231.258C232.487 231.251 232.491 231.242 232.494 231.232C232.497 231.222 232.499 231.211 232.497 231.2C232.49 231.193 232.481 231.187 232.471 231.184Z" fill="white"/>
<path d="M234.545 230.177L233.462 229.882C233.456 229.877 233.448 229.874 233.44 229.873C233.432 229.873 233.424 229.874 233.417 229.877C233.408 229.881 233.4 229.886 233.393 229.892C233.387 229.899 233.381 229.907 233.378 229.916C233.374 229.924 233.373 229.934 233.373 229.943C233.373 229.953 233.375 229.962 233.379 229.97L234.124 231.721C234.128 231.73 234.133 231.738 234.14 231.745C234.146 231.751 234.154 231.757 234.163 231.76C234.172 231.764 234.181 231.765 234.19 231.765C234.2 231.765 234.209 231.763 234.217 231.759C234.23 231.752 234.24 231.742 234.248 231.729L234.619 230.355L234.756 230.369C234.774 230.371 234.792 230.365 234.806 230.354C234.82 230.342 234.829 230.325 234.831 230.307C234.833 230.289 234.828 230.271 234.816 230.257C234.805 230.243 234.788 230.234 234.77 230.232L234.635 230.195L234.725 229.853C234.728 229.844 234.729 229.835 234.728 229.825C234.727 229.815 234.724 229.806 234.719 229.798C234.714 229.79 234.708 229.782 234.7 229.777C234.692 229.771 234.683 229.767 234.674 229.765C234.656 229.76 234.637 229.763 234.621 229.771C234.605 229.78 234.592 229.794 234.586 229.812L234.545 230.177ZM234.508 230.311L234.19 231.484L233.56 230.058L234.508 230.311Z" fill="white"/>
<path d="M237.104 230.639C237.097 230.645 237.091 230.652 237.086 230.661C237.081 230.669 237.078 230.678 237.077 230.687C237.076 230.697 237.077 230.706 237.08 230.715C237.083 230.724 237.088 230.733 237.094 230.74C237.107 230.754 237.124 230.763 237.142 230.765C237.161 230.767 237.18 230.762 237.195 230.75C237.323 230.679 237.474 230.659 237.616 230.696C237.686 230.714 237.752 230.746 237.81 230.791C237.867 230.836 237.915 230.892 237.949 230.956C238.022 231.083 238.041 231.234 238.004 231.375C237.966 231.516 237.874 231.637 237.748 231.711C237.685 231.747 237.617 231.77 237.545 231.78C237.474 231.789 237.401 231.784 237.331 231.766C237.26 231.747 237.194 231.715 237.136 231.67C237.078 231.625 237.029 231.569 236.993 231.505C236.981 231.491 236.964 231.482 236.945 231.48C236.926 231.478 236.908 231.483 236.893 231.495C236.887 231.496 236.882 231.499 236.878 231.502C236.874 231.506 236.87 231.51 236.868 231.515C236.868 231.515 236.868 231.515 236.865 231.538L236.744 232.366C236.738 232.374 236.735 232.384 236.734 232.395C236.733 232.405 236.734 232.416 236.738 232.425C236.745 232.429 236.753 232.432 236.761 232.432C236.768 232.433 236.776 232.432 236.784 232.43L237.714 232.681C237.724 232.685 237.735 232.687 237.747 232.685C237.758 232.684 237.768 232.681 237.778 232.675C237.787 232.669 237.795 232.661 237.801 232.651C237.807 232.642 237.811 232.631 237.812 232.62C237.813 232.609 237.812 232.597 237.808 232.587C237.804 232.576 237.798 232.567 237.79 232.559C237.782 232.551 237.772 232.546 237.761 232.542C237.75 232.539 237.739 232.538 237.728 232.54L236.857 232.303L236.947 231.689C237.035 231.776 237.142 231.839 237.26 231.874C237.35 231.898 237.443 231.904 237.534 231.892C237.626 231.88 237.714 231.85 237.794 231.803C237.874 231.758 237.945 231.696 238.001 231.623C238.056 231.549 238.097 231.465 238.119 231.375C238.144 231.286 238.151 231.193 238.14 231.102C238.128 231.01 238.099 230.922 238.053 230.842C237.957 230.682 237.804 230.564 237.625 230.512C237.534 230.498 237.441 230.502 237.352 230.524C237.263 230.546 237.179 230.585 237.104 230.639Z" fill="white"/>
<path d="M238.847 232.908C238.744 232.799 238.673 232.664 238.64 232.517C238.574 232.241 238.578 231.953 238.651 231.679C238.662 231.635 238.676 231.591 238.692 231.549C238.732 231.42 238.808 231.306 238.912 231.221C239.015 231.136 239.142 231.083 239.276 231.069C239.409 231.055 239.544 231.08 239.663 231.143C239.782 231.205 239.88 231.301 239.945 231.418C240.01 231.536 240.039 231.67 240.028 231.804C240.018 231.938 239.968 232.066 239.885 232.171C239.802 232.277 239.69 232.356 239.562 232.398C239.435 232.441 239.298 232.445 239.168 232.41C239.076 232.383 238.99 232.338 238.917 232.276C238.844 232.215 238.784 232.139 238.743 232.052C238.729 232.199 238.741 232.347 238.777 232.49C238.806 232.61 238.867 232.721 238.953 232.81C239.038 232.9 239.146 232.966 239.265 233.001C239.283 233.007 239.298 233.02 239.307 233.038C239.315 233.055 239.317 233.075 239.311 233.093C239.304 233.111 239.292 233.125 239.276 233.134C239.259 233.142 239.241 233.144 239.223 233.14C239.079 233.097 238.949 233.017 238.847 232.908Z" fill="white"/>
<path d="M240.896 231.557L241.159 233.508L240.193 233.249C240.184 233.246 240.175 233.245 240.165 233.246C240.156 233.247 240.146 233.25 240.138 233.255C240.13 233.259 240.123 233.266 240.117 233.274C240.111 233.281 240.107 233.29 240.105 233.3C240.103 233.309 240.103 233.318 240.104 233.327C240.105 233.336 240.109 233.345 240.113 233.352C240.118 233.36 240.124 233.367 240.132 233.372C240.139 233.378 240.148 233.381 240.157 233.383L241.212 233.671C241.226 233.677 241.242 233.679 241.258 233.675C241.276 233.67 241.292 233.659 241.303 233.643C241.306 233.637 241.309 233.63 241.31 233.623C241.31 233.616 241.309 233.609 241.307 233.602L241.053 231.559C241.052 231.545 241.047 231.532 241.038 231.521C241.029 231.511 241.017 231.503 241.004 231.499L240.972 231.496C240.954 231.496 240.938 231.503 240.924 231.514C240.91 231.525 240.901 231.54 240.896 231.557Z" fill="white"/>
<path d="M242.358 233.989C242.412 234.005 242.469 234.009 242.526 234.002C242.582 233.996 242.636 233.978 242.686 233.95C242.735 233.921 242.778 233.884 242.813 233.839C242.847 233.794 242.872 233.743 242.887 233.688C242.902 233.622 242.903 233.554 242.889 233.488C242.875 233.422 242.847 233.36 242.806 233.306C242.96 233.286 243.102 233.213 243.208 233.1C243.315 232.987 243.379 232.841 243.389 232.686C243.4 232.531 243.356 232.378 243.266 232.252C243.176 232.125 243.045 232.034 242.895 231.994C242.745 231.953 242.586 231.966 242.444 232.03C242.303 232.094 242.188 232.205 242.119 232.344C242.051 232.483 242.032 232.641 242.067 232.792C242.102 232.944 242.189 233.078 242.312 233.172C242.25 233.199 242.195 233.24 242.151 233.29C242.107 233.341 242.074 233.4 242.056 233.465C242.041 233.519 242.037 233.576 242.044 233.632C242.052 233.687 242.07 233.741 242.098 233.79C242.126 233.839 242.163 233.881 242.208 233.916C242.253 233.95 242.303 233.975 242.358 233.989ZM242.861 232.13C242.928 232.148 242.991 232.178 243.047 232.221C243.102 232.263 243.149 232.315 243.183 232.376C243.218 232.436 243.241 232.502 243.25 232.571C243.259 232.64 243.255 232.711 243.237 232.778C243.218 232.845 243.187 232.908 243.145 232.963C243.102 233.018 243.049 233.064 242.989 233.099C242.928 233.134 242.862 233.156 242.793 233.164C242.724 233.173 242.653 233.168 242.586 233.15C242.452 233.112 242.338 233.024 242.268 232.903C242.199 232.782 242.181 232.638 242.217 232.503C242.253 232.369 242.341 232.254 242.462 232.184C242.582 232.114 242.726 232.094 242.861 232.13ZM242.549 233.293C242.622 233.316 242.684 233.365 242.722 233.432C242.76 233.498 242.771 233.577 242.752 233.651C242.742 233.688 242.725 233.723 242.702 233.753C242.678 233.783 242.649 233.809 242.616 233.828C242.583 233.847 242.546 233.859 242.508 233.863C242.47 233.868 242.431 233.865 242.395 233.855C242.358 233.845 242.324 233.828 242.294 233.805C242.265 233.782 242.24 233.753 242.221 233.72C242.203 233.687 242.191 233.651 242.186 233.614C242.182 233.576 242.185 233.538 242.195 233.502C242.204 233.465 242.221 233.43 242.244 233.4C242.267 233.369 242.296 233.344 242.328 233.324C242.361 233.305 242.398 233.292 242.435 233.287C242.473 233.282 242.512 233.284 242.549 233.293Z" fill="white"/>
<path d="M245.91 234.951C246.073 234.995 246.245 234.978 246.396 234.903C246.547 234.829 246.665 234.701 246.727 234.544C246.727 234.544 246.766 234.438 246.781 234.379C246.861 234.102 246.869 233.809 246.803 233.528C246.769 233.382 246.698 233.248 246.597 233.139C246.495 233.03 246.367 232.949 246.224 232.906C246.216 232.903 246.206 232.902 246.197 232.902C246.188 232.903 246.179 232.906 246.171 232.91C246.162 232.914 246.155 232.92 246.149 232.928C246.144 232.935 246.139 232.943 246.137 232.952C246.133 232.961 246.131 232.971 246.132 232.981C246.132 232.99 246.134 233 246.139 233.009C246.143 233.017 246.149 233.025 246.157 233.031C246.164 233.037 246.173 233.042 246.183 233.044C246.301 233.08 246.409 233.146 246.495 233.235C246.58 233.325 246.641 233.435 246.671 233.556C246.706 233.699 246.718 233.846 246.705 233.993C246.663 233.907 246.603 233.832 246.53 233.771C246.456 233.71 246.371 233.666 246.279 233.64C246.104 233.593 245.918 233.617 245.762 233.707C245.605 233.798 245.49 233.946 245.443 234.121C245.396 234.295 245.42 234.481 245.51 234.638C245.6 234.795 245.749 234.909 245.923 234.957L245.91 234.951ZM246.613 234.436C246.586 234.539 246.529 234.632 246.45 234.703C246.37 234.774 246.271 234.82 246.165 234.835C246.059 234.85 245.951 234.833 245.855 234.787C245.759 234.741 245.678 234.667 245.623 234.576C245.569 234.484 245.543 234.378 245.548 234.271C245.554 234.164 245.59 234.062 245.654 233.976C245.718 233.89 245.805 233.825 245.906 233.789C246.007 233.753 246.116 233.747 246.219 233.773C246.289 233.789 246.355 233.82 246.413 233.863C246.471 233.905 246.52 233.959 246.557 234.021C246.593 234.083 246.617 234.151 246.627 234.223C246.637 234.294 246.632 234.367 246.613 234.436Z" fill="white"/>
<path d="M247.351 234.266C247.28 234.512 247.28 234.773 247.353 235.019C247.376 235.123 247.428 235.219 247.502 235.296C247.575 235.373 247.669 235.428 247.772 235.456C247.875 235.484 247.983 235.484 248.086 235.455C248.189 235.426 248.281 235.369 248.354 235.292C248.541 235.116 248.673 234.891 248.734 234.642C248.806 234.398 248.805 234.138 248.732 233.895C248.705 233.792 248.652 233.699 248.579 233.622C248.507 233.545 248.416 233.488 248.315 233.455C248.212 233.434 248.106 233.439 248.005 233.468C247.904 233.497 247.811 233.55 247.735 233.622C247.547 233.795 247.414 234.019 247.351 234.266ZM247.493 234.281C247.548 234.063 247.664 233.865 247.828 233.71C247.886 233.653 247.957 233.61 248.035 233.586C248.113 233.562 248.195 233.557 248.276 233.571C248.353 233.598 248.423 233.644 248.479 233.704C248.535 233.765 248.575 233.838 248.596 233.918C248.656 234.136 248.656 234.366 248.597 234.584C248.537 234.802 248.42 235 248.257 235.157C248.2 235.213 248.129 235.253 248.052 235.273C247.975 235.293 247.894 235.293 247.816 235.272C247.739 235.251 247.669 235.21 247.612 235.154C247.556 235.097 247.515 235.027 247.494 234.95C247.434 234.739 247.432 234.515 247.49 234.304L247.493 234.281Z" fill="white"/>
<path d="M249.445 235.689L249.206 235.448C249.196 235.444 249.185 235.443 249.174 235.445C249.162 235.442 249.149 235.441 249.137 235.444C249.125 235.447 249.113 235.452 249.103 235.461C249.096 235.466 249.09 235.474 249.085 235.482C249.08 235.49 249.077 235.499 249.076 235.509C249.075 235.518 249.076 235.528 249.079 235.537C249.082 235.546 249.087 235.554 249.093 235.561L249.414 235.903C249.426 235.917 249.443 235.926 249.462 235.928C249.481 235.93 249.499 235.925 249.514 235.913C249.52 235.897 249.522 235.88 249.519 235.863L250.016 234.026C250.018 234.017 250.018 234.008 250.017 233.999C250.015 233.99 250.012 233.981 250.007 233.973C250.003 233.965 249.996 233.959 249.989 233.953C249.981 233.948 249.973 233.944 249.964 233.942C249.955 233.939 249.946 233.938 249.937 233.939C249.927 233.94 249.918 233.942 249.91 233.947C249.902 233.951 249.895 233.957 249.889 233.964C249.883 233.971 249.879 233.98 249.876 233.989L249.445 235.689Z" fill="white"/>
<path d="M250.526 234.184L251.232 235.28C251.272 235.343 251.298 235.413 251.31 235.487C251.321 235.56 251.318 235.635 251.299 235.707C251.266 235.835 251.186 235.946 251.074 236.017C251.011 236.056 250.941 236.083 250.867 236.095C250.794 236.106 250.719 236.103 250.647 236.084C250.519 236.049 250.407 235.969 250.333 235.858L250.262 235.74C250.258 235.73 250.252 235.721 250.244 235.713C250.237 235.706 250.227 235.7 250.217 235.696C250.207 235.693 250.196 235.691 250.185 235.693C250.174 235.694 250.164 235.697 250.155 235.703C250.145 235.709 250.137 235.716 250.131 235.725C250.126 235.734 250.122 235.745 250.12 235.755C250.119 235.766 250.12 235.777 250.123 235.787C250.126 235.798 250.131 235.807 250.139 235.815L250.214 235.934C250.307 236.075 250.447 236.178 250.61 236.223C250.7 236.247 250.795 236.252 250.888 236.238C250.981 236.223 251.07 236.19 251.149 236.14C251.224 236.092 251.289 236.03 251.34 235.957C251.391 235.884 251.427 235.802 251.446 235.715C251.465 235.628 251.467 235.539 251.451 235.451C251.436 235.363 251.403 235.28 251.355 235.205L250.749 234.267L251.697 234.52C251.706 234.522 251.715 234.523 251.724 234.521C251.733 234.52 251.742 234.517 251.749 234.512C251.757 234.507 251.764 234.501 251.769 234.493C251.775 234.486 251.778 234.477 251.78 234.468C251.783 234.46 251.784 234.45 251.784 234.441C251.783 234.432 251.78 234.423 251.776 234.415C251.772 234.406 251.766 234.399 251.758 234.393C251.751 234.388 251.743 234.383 251.734 234.381L250.62 234.078C250.603 234.069 250.584 234.067 250.565 234.073C250.555 234.077 250.545 234.083 250.538 234.091C250.53 234.099 250.524 234.109 250.52 234.119C250.517 234.13 250.515 234.141 250.516 234.152C250.517 234.163 250.521 234.174 250.526 234.184Z" fill="white"/>
<path d="M254.661 237.18L254.268 236.507C254.429 236.519 254.589 236.473 254.72 236.379C254.852 236.284 254.945 236.146 254.985 235.99C255.01 235.901 255.016 235.807 255.004 235.716C254.992 235.624 254.962 235.536 254.915 235.456C254.869 235.376 254.808 235.306 254.735 235.249C254.662 235.193 254.579 235.152 254.49 235.127C254.401 235.103 254.308 235.097 254.217 235.109C254.126 235.121 254.038 235.151 253.958 235.197C253.95 235.203 253.944 235.211 253.939 235.22C253.934 235.228 253.931 235.238 253.93 235.248C253.929 235.257 253.93 235.267 253.933 235.277C253.936 235.286 253.941 235.295 253.947 235.302C253.953 235.31 253.96 235.316 253.968 235.321C253.977 235.326 253.986 235.329 253.995 235.329C254.005 235.33 254.014 235.329 254.023 235.327C254.032 235.324 254.041 235.319 254.048 235.313C254.174 235.242 254.324 235.224 254.464 235.263C254.534 235.28 254.601 235.312 254.659 235.356C254.717 235.4 254.766 235.455 254.803 235.518C254.839 235.581 254.863 235.651 254.872 235.723C254.881 235.796 254.876 235.869 254.856 235.94C254.838 236.01 254.807 236.075 254.763 236.133C254.719 236.19 254.664 236.238 254.601 236.274C254.538 236.311 254.468 236.336 254.396 236.346C254.324 236.356 254.25 236.351 254.179 236.332C254.17 236.327 254.159 236.324 254.148 236.322C254.137 236.321 254.126 236.322 254.115 236.326C254.108 236.332 254.101 236.339 254.096 236.348C254.092 236.357 254.089 236.366 254.088 236.376C254.087 236.386 254.088 236.396 254.091 236.405C254.094 236.414 254.098 236.423 254.105 236.431L254.464 237.076L253.695 236.869C253.686 236.866 253.677 236.865 253.667 236.866C253.658 236.867 253.648 236.87 253.64 236.875C253.632 236.88 253.625 236.886 253.619 236.894C253.613 236.902 253.609 236.911 253.607 236.92C253.604 236.929 253.603 236.939 253.604 236.948C253.605 236.958 253.608 236.967 253.613 236.976C253.618 236.984 253.624 236.991 253.632 236.997C253.64 237.002 253.649 237.006 253.658 237.008L254.592 237.265C254.612 237.269 254.632 237.265 254.649 237.255C254.666 237.245 254.679 237.229 254.685 237.21C254.689 237.2 254.69 237.189 254.689 237.178C254.679 237.176 254.67 237.177 254.661 237.18Z" fill="white"/>
<path d="M256.728 236.171L255.65 235.882C255.636 235.875 255.62 235.874 255.605 235.877C255.595 235.88 255.587 235.885 255.58 235.891C255.573 235.898 255.567 235.906 255.564 235.915C255.56 235.923 255.559 235.933 255.559 235.943C255.56 235.952 255.563 235.962 255.567 235.97L256.312 237.721C256.318 237.729 256.324 237.735 256.332 237.739C256.34 237.744 256.349 237.747 256.358 237.748C256.367 237.749 256.376 237.748 256.385 237.745C256.394 237.742 256.402 237.737 256.408 237.731C256.415 237.729 256.422 237.725 256.427 237.72C256.432 237.715 256.436 237.709 256.439 237.702L256.809 236.332L256.944 236.369C256.962 236.372 256.981 236.369 256.997 236.359C257.014 236.35 257.026 236.335 257.032 236.317C257.036 236.299 257.032 236.28 257.023 236.264C257.014 236.248 256.999 236.235 256.981 236.229L256.846 236.192L256.936 235.851C256.941 235.832 256.938 235.813 256.929 235.796C256.919 235.78 256.904 235.768 256.885 235.763C256.867 235.759 256.848 235.762 256.832 235.772C256.816 235.781 256.803 235.796 256.797 235.814L256.728 236.171ZM256.691 236.311L256.379 237.479L255.751 236.03L256.691 236.311Z" fill="white"/>
<path d="M257.583 236.171C257.575 236.177 257.569 236.184 257.564 236.193C257.56 236.202 257.557 236.211 257.556 236.221C257.555 236.231 257.556 236.241 257.559 236.25C257.561 236.26 257.566 236.268 257.573 236.276C257.579 236.284 257.586 236.29 257.595 236.295C257.604 236.299 257.613 236.302 257.623 236.303C257.633 236.304 257.643 236.303 257.652 236.301C257.661 236.298 257.67 236.293 257.678 236.287C257.806 236.215 257.957 236.197 258.098 236.237C258.168 236.256 258.234 236.289 258.291 236.333C258.348 236.378 258.396 236.434 258.432 236.497C258.504 236.623 258.524 236.773 258.486 236.913C258.459 237.02 258.4 237.116 258.318 237.189C258.235 237.262 258.133 237.309 258.023 237.323C257.914 237.338 257.803 237.319 257.705 237.269C257.606 237.22 257.525 237.142 257.471 237.045C257.459 237.031 257.442 237.022 257.423 237.02C257.404 237.018 257.386 237.024 257.371 237.035L257.249 237.868C257.243 237.876 257.239 237.886 257.238 237.896C257.237 237.907 257.239 237.917 257.243 237.927C257.247 237.934 257.252 237.941 257.259 237.945C257.266 237.95 257.274 237.953 257.282 237.954L258.216 238.206C258.225 238.209 258.235 238.21 258.245 238.209C258.254 238.208 258.263 238.205 258.272 238.2C258.28 238.195 258.287 238.189 258.293 238.181C258.298 238.173 258.302 238.164 258.304 238.155C258.307 238.145 258.308 238.136 258.307 238.126C258.307 238.116 258.304 238.106 258.299 238.098C258.294 238.089 258.288 238.081 258.28 238.075C258.272 238.069 258.263 238.065 258.254 238.062L257.382 237.83L257.472 237.216C257.559 237.304 257.667 237.368 257.786 237.401C257.966 237.447 258.157 237.421 258.317 237.327C258.478 237.234 258.595 237.081 258.644 236.902C258.668 236.813 258.675 236.72 258.663 236.629C258.651 236.538 258.622 236.45 258.576 236.37C258.53 236.29 258.468 236.22 258.395 236.164C258.322 236.108 258.239 236.067 258.15 236.044C258.052 236.024 257.951 236.025 257.853 236.047C257.756 236.069 257.664 236.111 257.583 236.171Z" fill="white"/>
<path d="M259.118 238.053C259.151 238.2 259.222 238.335 259.324 238.444C259.427 238.554 259.557 238.634 259.701 238.675C259.719 238.68 259.738 238.678 259.754 238.669C259.77 238.661 259.783 238.646 259.789 238.629C259.794 238.61 259.791 238.59 259.782 238.573C259.772 238.555 259.757 238.542 259.738 238.536C259.62 238.501 259.513 238.436 259.428 238.346C259.343 238.256 259.283 238.146 259.255 238.025C259.22 237.883 259.208 237.735 259.221 237.588C259.262 237.675 259.322 237.751 259.395 237.813C259.468 237.874 259.554 237.92 259.646 237.945C259.776 237.981 259.913 237.978 260.041 237.937C260.169 237.895 260.282 237.816 260.365 237.711C260.449 237.606 260.5 237.478 260.511 237.344C260.522 237.21 260.494 237.075 260.429 236.957C260.365 236.839 260.267 236.743 260.148 236.68C260.029 236.618 259.894 236.592 259.76 236.605C259.626 236.619 259.499 236.672 259.395 236.757C259.291 236.842 259.215 236.956 259.175 237.085C259.158 237.127 259.142 237.17 259.13 237.214C259.057 237.489 259.053 237.777 259.118 238.053ZM259.312 237.15C259.312 237.137 259.313 237.125 259.316 237.113L259.318 237.09C259.357 236.994 259.424 236.911 259.51 236.851C259.595 236.792 259.696 236.758 259.8 236.755C259.905 236.751 260.008 236.778 260.097 236.831C260.187 236.885 260.259 236.963 260.305 237.056C260.351 237.15 260.369 237.255 260.357 237.358C260.345 237.462 260.304 237.56 260.237 237.64C260.171 237.721 260.083 237.781 259.984 237.812C259.885 237.844 259.778 237.846 259.678 237.819C259.608 237.802 259.542 237.771 259.485 237.728C259.427 237.685 259.379 237.632 259.342 237.57C259.305 237.508 259.281 237.44 259.271 237.369C259.261 237.298 259.265 237.225 259.283 237.156L259.312 237.15Z" fill="white"/>
<path d="M248.071 229.715L230.638 225.002L230.869 224.146L248.302 228.86L248.071 229.715Z" fill="white"/>
<path d="M243.493 226.435L231.153 223.098L231.385 222.243L243.725 225.579L243.493 226.435Z" fill="white"/>
<path d="M250.526 245.759L241.829 243.408L242.06 242.552L250.757 244.903L250.526 245.759Z" fill="white"/>
<path d="M253.059 195.538L250.943 216.696C250.885 217.263 250.604 217.785 250.163 218.146C249.721 218.508 249.155 218.68 248.587 218.624L215.027 215.263C214.746 215.235 214.473 215.152 214.224 215.018C213.975 214.885 213.755 214.703 213.576 214.484C213.398 214.266 213.264 214.014 213.183 213.743C213.101 213.473 213.074 213.189 213.103 212.908L215.22 191.75C215.273 191.221 215.534 190.734 215.946 190.398C216.357 190.061 216.885 189.902 217.414 189.954L251.255 193.343C251.517 193.368 251.773 193.445 252.006 193.569C252.239 193.693 252.445 193.862 252.612 194.066C252.78 194.27 252.906 194.505 252.982 194.757C253.059 195.01 253.085 195.275 253.059 195.538Z" fill="#38397D"/>
<path d="M252.648 199.877L214.814 195.994L214.331 200.703L252.165 204.586L252.648 199.877Z" fill="#263238"/>
<path d="M249.504 205.966L216.663 202.595L216.392 205.235L249.233 208.606L249.504 205.966Z" fill="white"/>
<path d="M245.855 206.36L245.639 206.461H245.616C245.608 206.461 245.599 206.458 245.592 206.453C245.584 206.448 245.579 206.442 245.575 206.433C245.572 206.427 245.57 206.421 245.569 206.414C245.569 206.407 245.57 206.401 245.572 206.394C245.574 206.388 245.577 206.382 245.582 206.377C245.586 206.372 245.592 206.368 245.598 206.365L245.892 206.227C245.904 206.222 245.917 206.222 245.928 206.226C245.94 206.23 245.95 206.239 245.956 206.25C245.958 206.264 245.958 206.277 245.956 206.291L245.823 207.6C245.823 207.607 245.822 207.613 245.819 207.62C245.816 207.626 245.812 207.632 245.806 207.636C245.801 207.64 245.795 207.644 245.788 207.645C245.782 207.647 245.775 207.647 245.768 207.646C245.755 207.643 245.744 207.636 245.736 207.626C245.729 207.616 245.725 207.603 245.727 207.591L245.855 206.36Z" fill="#263238"/>
<path d="M246.204 207.604L246.934 207.067C246.975 207.036 247.01 206.997 247.035 206.951C247.06 206.906 247.076 206.856 247.081 206.805C247.09 206.715 247.066 206.625 247.012 206.552C246.981 206.511 246.942 206.476 246.896 206.451C246.851 206.426 246.801 206.41 246.75 206.405C246.659 206.394 246.566 206.419 246.493 206.474L246.419 206.529C246.415 206.534 246.41 206.538 246.404 206.541C246.398 206.544 246.391 206.545 246.385 206.545C246.378 206.545 246.372 206.544 246.366 206.541C246.36 206.538 246.355 206.534 246.35 206.529C246.342 206.52 246.337 206.508 246.337 206.495C246.337 206.482 246.342 206.47 246.35 206.46L246.429 206.401C246.523 206.33 246.642 206.299 246.759 206.314C246.824 206.32 246.886 206.34 246.942 206.373C246.999 206.405 247.047 206.449 247.085 206.502C247.155 206.594 247.188 206.708 247.177 206.823C247.171 206.889 247.151 206.952 247.119 207.009C247.086 207.066 247.042 207.115 246.989 207.154L246.364 207.613L247.039 207.682C247.053 207.682 247.065 207.687 247.075 207.697C247.084 207.706 247.09 207.719 247.09 207.732C247.09 207.746 247.084 207.759 247.075 207.768C247.065 207.778 247.053 207.783 247.039 207.783L246.245 207.705C246.239 207.708 246.233 207.709 246.226 207.709C246.22 207.709 246.214 207.708 246.208 207.705C246.195 207.705 246.182 207.701 246.172 207.692C246.162 207.683 246.156 207.67 246.155 207.657C246.155 207.643 246.159 207.63 246.168 207.62C246.178 207.61 246.19 207.604 246.204 207.604Z" fill="#263238"/>
<path d="M248.376 206.558L247.967 206.902C248.059 206.93 248.14 206.985 248.201 207.058C248.242 207.107 248.273 207.163 248.291 207.224C248.309 207.285 248.314 207.349 248.307 207.412C248.293 207.541 248.228 207.66 248.128 207.742C248.079 207.784 248.023 207.814 247.962 207.832C247.901 207.851 247.837 207.856 247.774 207.848C247.711 207.843 247.649 207.825 247.593 207.795C247.537 207.765 247.487 207.724 247.448 207.674C247.442 207.669 247.438 207.664 247.435 207.657C247.431 207.651 247.43 207.644 247.43 207.637C247.43 207.63 247.431 207.623 247.435 207.616C247.438 207.61 247.442 207.604 247.448 207.6C247.453 207.595 247.458 207.591 247.465 207.588C247.471 207.586 247.478 207.584 247.485 207.584C247.492 207.584 247.498 207.586 247.505 207.588C247.511 207.591 247.517 207.595 247.522 207.6C247.553 207.639 247.592 207.672 247.636 207.695C247.68 207.719 247.729 207.733 247.779 207.738C247.88 207.748 247.982 207.718 248.061 207.653C248.14 207.589 248.191 207.495 248.201 207.393C248.206 207.343 248.2 207.293 248.185 207.245C248.171 207.197 248.146 207.152 248.114 207.113C248.082 207.074 248.044 207.042 247.999 207.018C247.955 206.995 247.907 206.98 247.857 206.976C247.849 206.975 247.841 206.972 247.835 206.967C247.828 206.962 247.823 206.956 247.82 206.948C247.815 206.943 247.811 206.938 247.808 206.931C247.806 206.925 247.804 206.918 247.804 206.911C247.804 206.904 247.806 206.898 247.808 206.891C247.811 206.885 247.815 206.879 247.82 206.875L248.21 206.549L247.664 206.494C247.657 206.493 247.65 206.491 247.644 206.488C247.637 206.484 247.632 206.48 247.628 206.474C247.623 206.468 247.62 206.462 247.618 206.455C247.617 206.448 247.617 206.441 247.618 206.434C247.619 206.427 247.62 206.421 247.623 206.415C247.627 206.409 247.631 206.404 247.636 206.399C247.641 206.395 247.647 206.392 247.653 206.39C247.66 206.388 247.666 206.387 247.673 206.388L248.339 206.457C248.346 206.457 248.353 206.458 248.359 206.461C248.365 206.464 248.371 206.468 248.375 206.473C248.379 206.479 248.383 206.485 248.384 206.492C248.386 206.498 248.386 206.505 248.385 206.512C248.388 206.519 248.388 206.527 248.385 206.535L248.376 206.558Z" fill="#263238"/>
<path d="M241.728 210.604L216.112 207.975L216.059 208.491L241.675 211.121L241.728 210.604Z" fill="#263238"/>
<path d="M242.735 211.717L216.01 208.974L215.957 209.49L242.682 212.233L242.735 211.717Z" fill="#263238"/>
<path d="M239.821 212.429L215.909 209.974L215.856 210.49L239.768 212.945L239.821 212.429Z" fill="#263238"/>
<path d="M235.848 212.243L215.715 210.209L215.663 210.723L235.796 212.756L235.848 212.243Z" fill="#263238"/>
</svg>
