<svg width="18" height="18" viewBox="0 0 18 18" fill="none" xmlns="http://www.w3.org/2000/svg">
<path d="M15.75 17.0625H2.25C1.9425 17.0625 1.6875 16.8075 1.6875 16.5C1.6875 16.1925 1.9425 15.9375 2.25 15.9375H15.75C16.0575 15.9375 16.3125 16.1925 16.3125 16.5C16.3125 16.8075 16.0575 17.0625 15.75 17.0625Z" fill="#292D32"/>
<path d="M4.19998 14.8125H3C2.28 14.8125 1.6875 14.22 1.6875 13.5V7.035C1.6875 6.315 2.28 5.7225 3 5.7225H4.19998C4.91998 5.7225 5.51248 6.315 5.51248 7.035V13.5C5.51248 14.22 4.91998 14.8125 4.19998 14.8125ZM3 6.84C2.895 6.84 2.8125 6.9225 2.8125 7.0275V13.5C2.8125 13.605 2.895 13.6875 3 13.6875H4.19998C4.30498 13.6875 4.38748 13.605 4.38748 13.5V7.035C4.38748 6.93 4.30498 6.8475 4.19998 6.8475H3V6.84Z" fill="#292D32"/>
<path d="M9.60013 14.8125H8.40015C7.68015 14.8125 7.08765 14.22 7.08765 13.5V4.6425C7.08765 3.9225 7.68015 3.33 8.40015 3.33H9.60013C10.3201 3.33 10.9126 3.9225 10.9126 4.6425V13.5C10.9126 14.22 10.3201 14.8125 9.60013 14.8125ZM8.40015 4.455C8.29515 4.455 8.21265 4.5375 8.21265 4.6425V13.5C8.21265 13.605 8.29515 13.6875 8.40015 13.6875H9.60013C9.70513 13.6875 9.78763 13.605 9.78763 13.5V4.6425C9.78763 4.5375 9.70513 4.455 9.60013 4.455H8.40015Z" fill="#292D32"/>
<path d="M14.9999 14.8125H13.7999C13.0799 14.8125 12.4874 14.22 12.4874 13.5V2.25C12.4874 1.53 13.0799 0.9375 13.7999 0.9375H14.9999C15.7199 0.9375 16.3124 1.53 16.3124 2.25V13.5C16.3124 14.22 15.7199 14.8125 14.9999 14.8125ZM13.7999 2.0625C13.6949 2.0625 13.6124 2.145 13.6124 2.25V13.5C13.6124 13.605 13.6949 13.6875 13.7999 13.6875H14.9999C15.1049 13.6875 15.1874 13.605 15.1874 13.5V2.25C15.1874 2.145 15.1049 2.0625 14.9999 2.0625H13.7999Z" fill="#292D32"/>
</svg>
