<svg width="21" height="37" viewBox="0 0 21 37" fill="none" xmlns="http://www.w3.org/2000/svg">
<path fill-rule="evenodd" clip-rule="evenodd" d="M8.4 32.7363V36.4H12.6V32.7363C12.7596 32.7111 12.9188 32.683 13.0771 32.6521C14.7652 32.3221 16.3575 31.6644 17.6775 30.701C18.9986 29.7371 20.0379 28.4707 20.585 26.9807C21.1383 25.474 21.1383 23.8666 20.585 22.36C20.0379 20.8698 18.9986 19.6035 17.6775 18.6396C16.3727 17.6873 14.8021 17.0338 13.1356 16.7L12.6 16.5647V7.94069C13.6217 8.18145 14.5099 8.58684 15.2018 9.09171C15.9662 9.64949 16.4263 10.2785 16.6425 10.8671L20.585 9.4194C20.0379 7.92931 18.9986 6.66291 17.6775 5.69899C16.3575 4.73564 14.7652 4.07799 13.0771 3.7479C12.9188 3.71693 12.7596 3.68887 12.6 3.66372V0H8.4V3.66372C8.2404 3.68887 8.08122 3.71693 7.92288 3.7479C6.23476 4.07799 4.64254 4.73564 3.32248 5.69899C2.00151 6.66291 0.962066 7.92931 0.414918 9.4194C-0.138306 10.926 -0.138306 12.5334 0.414918 14.04C0.962066 15.5302 2.0015 16.7965 3.32248 17.7604C4.62728 18.7127 6.19794 19.3662 7.86436 19.7L8.4 19.8353V28.4593C7.37828 28.2185 6.49012 27.8131 5.79824 27.3083C5.03384 26.7505 4.57366 26.1215 4.3575 25.5329L0.414918 26.9807C0.962066 28.4707 2.0015 29.7371 3.32248 30.701C4.64254 31.6644 6.23476 32.3221 7.92288 32.6521C8.08122 32.683 8.2404 32.7111 8.4 32.7363ZM12.6 28.4593C13.6217 28.2185 14.5099 27.8131 15.2018 27.3083C15.9662 26.7505 16.4263 26.1215 16.6425 25.5329C16.8525 24.9609 16.8525 24.3796 16.6425 23.8076C16.4263 23.219 15.9662 22.59 15.2018 22.0322C14.5099 21.5274 13.6217 21.1219 12.6 20.8813V28.4593ZM8.4 15.5187V7.94069C7.37828 8.18145 6.49012 8.58684 5.79824 9.09171C5.03384 9.64949 4.57366 10.2785 4.3575 10.8671C4.1475 11.4391 4.1475 12.0204 4.3575 12.5924C4.57366 13.181 5.03384 13.81 5.79824 14.3678C6.49012 14.8726 7.37828 15.2781 8.4 15.5187Z" fill="#288664"/>
</svg>
