<svg width="12" height="14" viewBox="0 0 12 14" fill="none" xmlns="http://www.w3.org/2000/svg">
<path d="M6.22973 7.8039C6.80455 6.94204 7.40147 6.49946 7.79942 5.84724C8.50689 4.72915 8.66164 3.14518 8.19737 1.93392C7.7331 0.699355 6.64979 -0.0227468 5.38961 0.000546835C4.12944 0.0238404 3.11246 0.839116 2.71451 2.07368C2.25023 3.42471 2.44921 5.05526 3.4883 6.08018C3.90836 6.49946 4.30631 7.17498 4.08522 7.8039C3.88625 8.40954 3.20089 8.66577 2.71451 8.922C1.60909 9.43446 0.260483 10.1566 0.0394003 11.5309C-0.181683 12.6723 0.547892 13.8602 1.71963 13.8602H6.87087C7.09195 13.8602 7.29093 13.5807 7.15828 13.4177C6.45081 12.5558 5.69913 11.3911 5.69913 10.2497C5.63281 9.43446 5.85389 8.52601 6.22973 7.8039ZM9.36911 10.9485C8.77219 10.9485 8.26369 10.4361 8.26369 9.80715C8.26369 9.17823 8.75008 8.66577 9.36911 8.66577C9.96604 8.66577 10.4745 9.17823 10.4745 9.80715C10.4966 10.4361 9.96604 10.9485 9.36911 10.9485ZM9.36911 7.03521C7.90996 7.03521 6.73822 8.26978 6.73822 9.80715C6.73822 11.6939 8.61743 13.4875 9.19224 13.9301C9.28068 14.0233 9.41333 14.0233 9.54598 13.9301C10.1208 13.441 12 11.6939 12 9.80715C12 8.26978 10.8283 7.03521 9.36911 7.03521Z" fill="#5F6368"/>
</svg>
