<svg width="48" height="48" viewBox="0 0 48 48" fill="none" xmlns="http://www.w3.org/2000/svg">
<path d="M24.24 27.0603C24.2 27.0603 24.14 27.0603 24.1 27.0603C24.04 27.0603 23.96 27.0603 23.9 27.0603C19.36 26.9203 15.96 23.3803 15.96 19.0203C15.96 14.5803 19.58 10.9603 24.02 10.9603C28.46 10.9603 32.08 14.5803 32.08 19.0203C32.06 23.4003 28.64 26.9203 24.3 27.0603C24.26 27.0603 24.26 27.0603 24.24 27.0603ZM24 13.9403C21.2 13.9403 18.94 16.2203 18.94 19.0003C18.94 21.7403 21.08 23.9603 23.8 24.0603C23.86 24.0403 24.06 24.0403 24.26 24.0603C26.94 23.9203 29.04 21.7203 29.06 19.0003C29.06 16.2203 26.8 13.9403 24 13.9403Z" fill="#787878"/>
<path d="M24.0006 45.5006C18.6206 45.5006 13.4806 43.5006 9.50065 39.8606C9.14065 39.5406 8.98065 39.0606 9.02065 38.6006C9.28065 36.2206 10.7606 34.0006 13.2206 32.3606C19.1806 28.4006 28.8406 28.4006 34.7806 32.3606C37.2406 34.0206 38.7206 36.2206 38.9806 38.6006C39.0406 39.0806 38.8606 39.5406 38.5006 39.8606C34.5206 43.5006 29.3806 45.5006 24.0006 45.5006ZM12.1606 38.2006C15.4806 40.9806 19.6606 42.5006 24.0006 42.5006C28.3406 42.5006 32.5206 40.9806 35.8406 38.2006C35.4806 36.9806 34.5206 35.8006 33.1006 34.8406C28.1806 31.5606 19.8406 31.5606 14.8806 34.8406C13.4606 35.8006 12.5206 36.9806 12.1606 38.2006Z" fill="#787878"/>
<path d="M24.001 45.5003C12.141 45.5003 2.50098 35.8603 2.50098 24.0003C2.50098 12.1403 12.141 2.50031 24.001 2.50031C35.861 2.50031 45.501 12.1403 45.501 24.0003C45.501 35.8603 35.861 45.5003 24.001 45.5003ZM24.001 5.50031C13.801 5.50031 5.50098 13.8003 5.50098 24.0003C5.50098 34.2003 13.801 42.5003 24.001 42.5003C34.201 42.5003 42.501 34.2003 42.501 24.0003C42.501 13.8003 34.201 5.50031 24.001 5.50031Z" fill="#787878"/>
</svg>
