<svg width="28" height="28" viewBox="0 0 28 28" fill="none" xmlns="http://www.w3.org/2000/svg">
<g clip-path="url(#clip0_101_32266)">
<path d="M22.75 19.9375H5.25C4.67085 19.9342 4.11636 19.7028 3.70683 19.2931C3.2973 18.8836 3.06579 18.3291 3.0625 17.75V5.25C3.06579 4.67085 3.2973 4.11636 3.70683 3.70683C4.11636 3.2973 4.67085 3.06579 5.25 3.0625H22.75C23.3291 3.06579 23.8836 3.2973 24.2931 3.70683C24.7028 4.11636 24.9342 4.67085 24.9375 5.25V17.75C24.9342 18.3291 24.7028 18.8836 24.2931 19.2931C23.8836 19.7028 23.3291 19.9342 22.75 19.9375ZM5.25 4.9375C5.16712 4.9375 5.08764 4.97042 5.02902 5.02902C4.97042 5.08764 4.9375 5.16712 4.9375 5.25V17.75C4.9375 17.8329 4.97042 17.9124 5.02902 17.971C5.08764 18.0296 5.16712 18.0625 5.25 18.0625H22.75C22.8329 18.0625 22.9124 18.0296 22.971 17.971C23.0296 17.9124 23.0625 17.8329 23.0625 17.75V5.25C23.0625 5.16712 23.0296 5.08764 22.971 5.02902C22.9124 4.97042 22.8329 4.9375 22.75 4.9375H5.25Z" fill="#6EC125" stroke="#6EC125" stroke-width="0.6"/>
<path d="M17.75 24.9375H14C13.7524 24.9342 13.5157 24.8345 13.3406 24.6594C13.1655 24.4843 13.0658 24.2476 13.0625 24V19C13.0625 18.7514 13.1612 18.5129 13.3371 18.3371C13.5129 18.1612 13.7514 18.0625 14 18.0625C14.2486 18.0625 14.4871 18.1612 14.6629 18.3371C14.8388 18.5129 14.9375 18.7514 14.9375 19V23.0625H17.75C17.9986 23.0625 18.2371 23.1612 18.4129 23.3371C18.5888 23.5129 18.6875 23.7514 18.6875 24C18.6875 24.2486 18.5888 24.4871 18.4129 24.6629C18.2371 24.8388 17.9986 24.9375 17.75 24.9375Z" fill="#6EC125" stroke="#6EC125" stroke-width="0.6"/>
<path d="M14 24.9375H10.25C10.0014 24.9375 9.7629 24.8388 9.58709 24.6629C9.41128 24.4871 9.3125 24.2486 9.3125 24C9.3125 23.7514 9.41128 23.5129 9.58709 23.3371C9.7629 23.1612 10.0014 23.0625 10.25 23.0625H14C14.2486 23.0625 14.4871 23.1612 14.6629 23.3371C14.8388 23.5129 14.9375 23.7514 14.9375 24C14.9375 24.2486 14.8388 24.4871 14.6629 24.6629C14.4871 24.8388 14.2486 24.9375 14 24.9375Z" fill="#6EC125" stroke="#6EC125" stroke-width="0.6"/>
</g>
<defs>
<clipPath id="clip0_101_32266">
<rect width="28" height="28" fill="white"/>
</clipPath>
</defs>
</svg>
