<svg width="24" height="24" viewBox="0 0 24 24" fill="none" xmlns="http://www.w3.org/2000/svg">
<g id="Facebook Outlined Icon 1" clip-path="url(#clip0_165_33228)">
<g id="surface16777329">
<path id="Vector" d="M2.93816 0.105469C1.38047 0.105469 0.105469 1.38047 0.105469 2.93816V21.0622C0.105469 22.6199 1.38047 23.8949 2.93816 23.8949H12.4718C12.5324 23.905 12.5944 23.905 12.6564 23.8949H15.8699C15.9305 23.905 15.9939 23.905 16.0545 23.8949H21.0622C22.6199 23.8949 23.8949 22.6199 23.8949 21.0622V2.93816C23.8949 1.38047 22.6199 0.105469 21.0622 0.105469H2.93816ZM2.93816 1.23912H21.0622C22.0069 1.23912 22.7612 1.99345 22.7612 2.93816V21.0622C22.7612 22.0069 22.0069 22.7612 21.0622 22.7612H16.5319V14.8329H18.6954L19.4886 10.868H16.5319V9.73431C16.5319 9.41845 16.5608 9.39393 16.6675 9.3247C16.7728 9.25691 17.1016 9.16749 17.6641 9.16749H19.3632V5.97855L19.0401 5.82566C19.0401 5.82566 17.7391 5.20403 15.9651 5.20403C14.6901 5.20403 13.643 5.71172 12.9737 6.54826C12.3031 7.38624 12.0002 8.50691 12.0002 9.73431V10.868H10.3011V14.8329H12.0002V22.7612H2.93816C1.99345 22.7612 1.23912 22.0069 1.23912 21.0622V2.93816C1.23912 1.99345 1.99345 1.23912 2.93816 1.23912ZM15.9651 6.33624C17.142 6.33624 17.8834 6.59585 18.2309 6.73287V8.03528H17.6641C17.0122 8.03528 16.4901 8.08864 16.0502 8.37566C15.6103 8.66124 15.3983 9.20355 15.3983 9.73431V12.0002H18.1055L17.7665 13.6992H15.3983V22.7612H13.1324V13.6992H11.4334V12.0002H13.1324V9.73431C13.1324 8.69585 13.3963 7.8348 13.8593 7.25643C14.3209 6.67807 14.9742 6.33624 15.9651 6.33624Z" fill="white"/>
</g>
</g>
<defs>
<clipPath id="clip0_165_33228">
<rect width="24" height="24" fill="white"/>
</clipPath>
</defs>
</svg>
