<svg width="74" height="68" viewBox="0 0 74 68" fill="none" xmlns="http://www.w3.org/2000/svg">
<g clip-path="url(#clip0_687_1079)">
<path d="M55.5 52.5C65.7173 42.2827 65.7173 25.7173 55.5 15.5C45.2827 5.28273 28.7173 5.28273 18.5 15.5C8.28273 25.7173 8.28273 42.2827 18.5 52.5C28.7173 62.7173 45.2827 62.7173 55.5 52.5Z" fill="#D3E4FF"/>
<path d="M47.8019 4.14924L12.5771 13.5877L25.1617 60.5538L60.3865 51.1153L47.8019 4.14924Z" fill="#76A6F5"/>
<path d="M46.906 8.47421L15.5151 16.8854L26.5006 57.8838L57.8915 49.4726L46.906 8.47421Z" fill="white"/>
<path d="M38.9033 4.22836L20.3218 9.20728L22.718 18.1501L41.2996 13.1712L38.9033 4.22836Z" fill="#3B495E"/>
<path d="M43.0861 25.8286L40.2388 24.3312L36.6504 31.1523L29.8288 27.5644L28.3314 30.4118L35.153 33.9997L31.5646 40.8213L34.4119 42.3187L38.0003 35.4976L44.822 39.0855L46.3194 36.2381L39.4977 32.6502L43.0861 25.8286Z" fill="#BD99FF"/>
</g>
<defs>
<clipPath id="clip0_687_1079">
<rect width="74" height="68" fill="white"/>
</clipPath>
</defs>
</svg>
