<svg width="26" height="26" viewBox="0 0 26 26" fill="none" xmlns="http://www.w3.org/2000/svg">
<path d="M12.3006 23.6108C12.2848 23.706 12.2636 23.7959 12.2318 23.8806H17.0458V2.11719H7.69824V8.76683H8.12674C8.0897 8.58165 8.06855 8.38592 8.06855 8.19019C8.06855 6.58202 9.37522 5.27009 10.9887 5.27009C12.6022 5.27009 13.9088 6.58202 13.9088 8.19019C13.9088 9.31698 13.274 10.2957 12.3377 10.7823L12.4223 10.9305L12.8931 11.7187H14.1998C15.4059 11.7187 16.3846 12.6974 16.3846 13.9088C16.3846 15.1149 15.4059 16.0989 14.1998 16.0989H11.7663C11.322 16.0989 10.8988 15.9613 10.539 15.718L10.2216 16.485L11.9779 17.6065C12.7133 18.0721 13.1047 18.9396 12.9566 19.8125L12.3006 23.6108Z" fill="#5DAAFB"/>
<path d="M18.1035 25.5359L25.3562 23.8801V2.11674L18.1035 0.460938V25.5359Z" fill="#5DAAFB"/>
<path d="M1.77322 21.1636C1.82082 21.1636 1.86844 21.1583 1.91603 21.1531L5.65613 20.6875C6.04759 20.6399 6.39146 20.386 6.55015 20.021L7.21671 18.508L9.55492 19.9998L9.0312 23.0416C8.9254 23.6553 9.33804 24.2424 9.95167 24.3483C10.0152 24.3588 10.0839 24.3641 10.1474 24.3641C10.687 24.3641 11.1631 23.9779 11.2583 23.4278L11.9143 19.6401C11.9884 19.1904 11.7926 18.7408 11.4064 18.4974L8.90425 16.8998L10.195 13.7945L10.9039 14.6304C11.1155 14.8896 11.4329 15.0377 11.7662 15.0377H14.1996C14.8239 15.0377 15.3264 14.5299 15.3264 13.9056C15.3264 13.2814 14.8239 12.7735 14.1996 12.7735H12.2952L11.507 11.4563L11.3112 11.1177L8.41227 9.81641H8.30647L5.42336 9.83755C5.16415 9.83755 4.9155 9.92748 4.71451 10.0915L2.70425 11.7367C2.22287 12.1335 2.1541 12.8476 2.54556 13.329C2.81006 13.6517 3.21741 13.7892 3.60357 13.731C3.79401 13.6993 3.97918 13.62 4.13788 13.4877L5.836 12.0964L7.47062 12.0858L5.85186 16.0005L5.836 16.027L4.73566 18.5239L1.63568 18.9101C1.01671 18.9894 0.57766 19.5554 0.651697 20.1744C0.725766 20.7457 1.21244 21.1636 1.77322 21.1636Z" fill="#5DAAFB"/>
<path d="M10.9885 10.0571C12.0183 10.0571 12.853 9.22236 12.853 8.19263C12.853 7.16289 12.0183 6.32812 10.9885 6.32812C9.95879 6.32812 9.12402 7.16289 9.12402 8.19263C9.12402 9.22236 9.95879 10.0571 10.9885 10.0571Z" fill="#5DAAFB"/>
</svg>
