<svg width="98" height="120" viewBox="0 0 98 120" fill="none" xmlns="http://www.w3.org/2000/svg">
<path d="M49.5 30C55.0228 30 59.5 25.5228 59.5 20C59.5 14.4772 55.0228 10 49.5 10C43.9772 10 39.5 14.4772 39.5 20C39.5 25.5228 43.9772 30 49.5 30Z" fill="#FFDEE3"/>
<path d="M63.597 38.42C63.2707 37.4235 62.6413 36.5565 61.7985 35.9424C60.9556 35.3283 59.9423 34.9985 58.903 35H39.097C38.0579 34.9993 37.0449 35.3294 36.2022 35.9434C35.3595 36.5573 34.7299 37.424 34.403 38.42L24.5 68.42L33.2889 71.385L29.194 90H39.097V110H58.903V90H68.806L64.7111 71.38L73.5 68.415L63.597 38.42Z" fill="#FFDEE3"/>
<g clip-path="url(#clip0_2001_2716)">
<path d="M63.597 38.42C63.2707 37.4235 62.6413 36.5565 61.7985 35.9424C60.9556 35.3283 59.9423 34.9985 58.903 35H39.097C38.0579 34.9993 37.0449 35.3294 36.2022 35.9434C35.3595 36.5573 34.7299 37.424 34.403 38.42L24.5 68.42L33.2889 71.385L29.194 90H39.097V110H58.903V90H68.806L64.7111 71.38L73.5 68.415L63.597 38.42Z" fill="#FFDEE3"/>
</g>
<defs>
<clipPath id="clip0_2001_2716">
<rect width="50" height="32" fill="white" transform="translate(24.5 78)"/>
</clipPath>
</defs>
</svg>
