<svg width="18" height="18" viewBox="0 0 18 18" fill="none" xmlns="http://www.w3.org/2000/svg">
<path d="M12.75 16.3125H5.25C1.9425 16.3125 0.9375 15.3075 0.9375 12V6C0.9375 2.6925 1.9425 1.6875 5.25 1.6875H12.75C16.0575 1.6875 17.0625 2.6925 17.0625 6V12C17.0625 15.3075 16.0575 16.3125 12.75 16.3125ZM5.25 2.8125C2.565 2.8125 2.0625 3.3225 2.0625 6V12C2.0625 14.6775 2.565 15.1875 5.25 15.1875H12.75C15.435 15.1875 15.9375 14.6775 15.9375 12V6C15.9375 3.3225 15.435 2.8125 12.75 2.8125H5.25Z" fill="#292D32"/>
<path d="M14.25 6.5625H10.5C10.1925 6.5625 9.9375 6.3075 9.9375 6C9.9375 5.6925 10.1925 5.4375 10.5 5.4375H14.25C14.5575 5.4375 14.8125 5.6925 14.8125 6C14.8125 6.3075 14.5575 6.5625 14.25 6.5625Z" fill="#292D32"/>
<path d="M14.25 9.5625H11.25C10.9425 9.5625 10.6875 9.3075 10.6875 9C10.6875 8.6925 10.9425 8.4375 11.25 8.4375H14.25C14.5575 8.4375 14.8125 8.6925 14.8125 9C14.8125 9.3075 14.5575 9.5625 14.25 9.5625Z" fill="#292D32"/>
<path d="M14.25 12.5625H12.75C12.4425 12.5625 12.1875 12.3075 12.1875 12C12.1875 11.6925 12.4425 11.4375 12.75 11.4375H14.25C14.5575 11.4375 14.8125 11.6925 14.8125 12C14.8125 12.3075 14.5575 12.5625 14.25 12.5625Z" fill="#292D32"/>
<path d="M6.37502 9.03C5.31752 9.03 4.45502 8.1675 4.45502 7.11C4.45502 6.0525 5.31752 5.19 6.37502 5.19C7.43252 5.19 8.29502 6.0525 8.29502 7.11C8.29502 8.1675 7.43252 9.03 6.37502 9.03ZM6.37502 6.315C5.94002 6.315 5.58002 6.675 5.58002 7.11C5.58002 7.545 5.94002 7.905 6.37502 7.905C6.81002 7.905 7.17002 7.545 7.17002 7.11C7.17002 6.675 6.81002 6.315 6.37502 6.315Z" fill="#292D32"/>
<path d="M8.99999 12.81C8.71499 12.81 8.46749 12.5925 8.43749 12.3C8.35499 11.49 7.70249 10.8375 6.88499 10.7625C6.53999 10.7325 6.19499 10.7325 5.84999 10.7625C5.03249 10.8375 4.37999 11.4825 4.29749 12.3C4.26749 12.6075 3.98999 12.84 3.68249 12.8025C3.37499 12.7725 3.14999 12.495 3.17999 12.1875C3.31499 10.8375 4.38749 9.76501 5.74499 9.64501C6.15749 9.60751 6.57749 9.60751 6.98999 9.64501C8.33999 9.77251 9.41999 10.845 9.55499 12.1875C9.58499 12.495 9.35999 12.7725 9.05249 12.8025C9.03749 12.81 9.01499 12.81 8.99999 12.81Z" fill="#292D32"/>
</svg>
