<svg width="49" height="31" viewBox="0 0 49 31" fill="none" xmlns="http://www.w3.org/2000/svg">
<path d="M48.9865 12.1874C48.4689 8.23997 43.7404 2.75641 43.7404 2.75641C42.5071 -0.41627 39.3209 0.63879 39.3209 0.63879L37.194 1.21257C35.0887 1.84586 35.1877 4.60151 36.101 5.16004C36.5015 5.40456 37.6753 5.46831 38.0223 5.16004C38.1258 5.06654 38.0468 4.61876 38.0468 4.61876C40.2802 4.74052 40.443 3.4467 40.443 3.4467L41.2028 3.29519C41.9638 2.87892 42.1328 4.64401 42.1328 4.64401C41.6153 9.64655 43.7817 11.4779 43.7817 11.4779C43.4682 12.4712 42.3766 12.2794 42.3766 12.2794C38.9131 10.4801 36.3435 13.8803 36.3435 13.8803C34.3856 12.2124 30.3454 15.1674 30.3454 15.1674C28.0815 15.6149 27.9475 12.8907 27.9475 12.8907C27.9475 12.8907 27.8425 11.1554 27.7693 10.9961C27.6628 10.7251 28.2505 10.8621 28.2505 10.8621C30.2419 7.23816 28.2505 7.72219 28.2505 7.72219C28.7331 1.46984 23.2525 2.78216 23.2525 2.78216C19.0368 3.93772 20.5811 8.13696 20.5811 8.13696C19.6556 7.91095 20.0993 9.29103 20.0993 9.29103C20.3383 11.4094 21.0956 10.9291 21.0956 10.9291C21.1939 11.6712 21.6102 12.6927 21.6102 12.6927L21.6742 14.3948C21.1984 17.2195 18.2167 14.8766 18.2167 14.8766C16.4676 12.4105 12.0824 13.7895 12.0824 13.7895C9.81701 10.4196 6.24881 12.3432 6.24881 12.3432C6.62783 11.5059 6.1848 7.34067 6.1848 7.34067C6.62783 6.82614 7.51763 3.91247 7.51763 3.91247C7.89815 4.427 9.61475 4.51751 9.61475 4.51751C9.74575 5.2908 10.2975 5.60532 10.2975 5.60532C11.4639 6.08885 10.9803 2.27138 10.9803 2.27138C11.2856 1.05956 9.33698 0.768047 9.33698 0.768047C5.93829 -0.166756 5.15124 1.97986 5.15124 1.97986L4.26444 3.90797C2.99862 5.28805 0.62299 10.0003 0.62299 10.0003C-0.744337 13.751 0.564987 14.4276 0.564987 14.4276L3.03113 16.3444C7.21536 20.3954 9.744 19.8139 9.744 19.8139C13.1092 19.7499 12.8322 21.9285 12.8322 21.9285C12.9662 25.2642 15.2953 28.7244 15.2953 28.7244C15.4666 29.3059 15.5883 29.9209 15.7093 30.53H31.663C31.9585 29.8709 32.266 29.2556 32.54 28.8736C33.8464 27.0285 35.6305 24.6354 36.288 23.049C37.5758 19.9296 38.1866 20.0026 38.1866 20.0026C42.7826 20.0026 45.3188 16.6702 45.3188 16.6702C46.0723 15.7051 47.2171 14.5161 48.0559 14.0395C49.1842 13.394 48.9865 12.1874 48.9865 12.1874Z" fill="#C1E4FF"/>
</svg>
