<svg width="60" height="37" viewBox="0 0 60 37" fill="none" xmlns="http://www.w3.org/2000/svg">
<path d="M52.2326 6.13459C49.2245 6.13459 47.0933 7.61201 45.6314 9.52185L45.5459 6.88453C45.5459 5.60045 44.6463 4.43852 43.536 4.43852H21.4303C20.3209 4.43852 19.4204 5.60045 19.4204 6.88453L19.1719 13.8757L6.04791 3.32032C6.66727 1.83779 6.73961 0.602659 6.10288 0.160019C5.18704 -0.475957 3.17926 0.841748 1.6186 3.08432C0.0579298 5.32582 -0.464601 7.66713 0.451133 8.303C1.15306 8.79011 2.49353 8.13317 3.78467 6.79408L18.7224 26.4285L18.4158 34.6426C18.4158 35.9266 19.3154 37 20.4258 37H44.5403C45.6497 37 46.5503 35.9266 46.5503 34.6426L46.3893 30.3234C48.2749 28.0045 50.4641 26.4407 52.6023 24.8625C56.4072 22.0542 60 19.4353 60 13.5958C60.0001 9.11379 56.8788 6.13459 52.2326 6.13459ZM51.2189 23.0584C49.6185 24.2398 47.9 25.5289 46.2691 27.1447L45.8016 14.2337C46.5369 11.9057 48.2892 8.46047 52.2325 8.46047C55.6391 8.46047 57.6723 10.3917 57.6723 13.6294C57.6724 18.2967 54.8241 20.3977 51.2189 23.0584Z" fill="#C1E4FF"/>
</svg>
