<svg width="29" height="49" viewBox="0 0 29 49" fill="none" xmlns="http://www.w3.org/2000/svg">
<path d="M16.3255 8.9916C16.6118 6.68352 14.9736 4.57892 12.6647 4.29181C10.3558 4.0047 8.25212 5.64285 7.96501 7.95264C7.6779 10.2616 9.31691 12.3653 11.6262 12.6523C13.9338 12.9387 16.0384 11.3005 16.3255 8.9916Z" fill="#C1E4FF"/>
<path d="M26.8061 21.9872C24.8373 18.836 23.2764 15.2596 22.875 14.5647C22.637 14.1517 22.6137 13.8603 22.8004 13.4525C23.6043 12.2902 24.4265 11.1367 25.2585 9.99519C25.9801 9.00447 27.0117 7.90867 26.6177 6.55945C26.3914 5.78349 25.7046 5.46021 25.1243 4.98762C23.6668 3.79698 22.2136 2.59677 20.7467 1.41474C20.3359 1.08456 19.9393 0.737161 19.5233 0.414642C18.8469 -0.18714 17.8105 -0.126847 17.2092 0.550923C16.7023 1.1217 16.6716 1.94589 17.0789 2.55112L15.5461 4.14783C15.922 4.44451 16.2587 4.78502 16.5448 5.16688L18.0748 3.57361L21.934 7.31809L18.8831 10.5676C17.1975 12.2187 13.1915 14.594 14.1084 17.9401C14.8072 20.4904 17.2109 24.8694 17.2109 26.1058C17.2109 27.8181 16.2721 36.4692 16.2721 36.4692C16.2659 36.5028 16.2643 36.5364 16.26 36.5709L13.5424 45.9635C13.2338 46.9791 13.808 48.0535 14.8249 48.3612C15.8409 48.6699 16.9152 48.0965 17.2235 47.0792L20.4929 38.3824C20.5381 38.2815 20.5782 38.1763 20.6101 38.0668L20.6455 37.9729C20.6951 37.8081 22.413 29.6658 22.413 29.6658L22.4893 28.9088L21.6676 37.0746C21.6439 37.2185 21.6284 37.3643 21.6284 37.5161L22.031 46.8629C22.031 48.0432 22.9872 49.0002 24.1675 49.0002C25.3475 49.0002 26.3048 48.0432 26.3048 46.8629L26.857 37.854L28.177 29.5348C28.4619 26.9661 28.7744 25.1384 26.8061 21.9872Z" fill="#C1E4FF"/>
<path d="M7.96113 12.0471L0.953369 19.3437C0.596013 19.7171 0.510167 20.2732 0.739089 20.7362L2.51476 24.328C2.65487 24.6143 2.91308 24.8229 3.22096 24.9057C3.52874 24.9868 3.85643 24.9324 4.12019 24.7539L5.4539 23.8546C5.71737 23.6762 5.89108 23.3934 5.93117 23.0778C5.97127 22.7622 5.87299 22.445 5.66177 22.207L3.27187 18.9919L9.01741 13.0076C8.62761 12.7386 8.27456 12.4144 7.96113 12.0471Z" fill="#C1E4FF"/>
</svg>
