<svg width="468" height="202" viewBox="0 0 468 202" fill="none" xmlns="http://www.w3.org/2000/svg">
<path d="M377 193.78C377 198.25 373.453 201.904 369.118 201.904H99.8801C95.5463 201.904 92 198.25 92 193.78V8.12404C92 3.65512 95.5463 0 99.8801 0H369.118C373.453 0 377 3.65512 377 8.12404V193.78Z" fill="#F2F2F2"/>
<path d="M369.118 0H99.8801C95.5463 0 92 3.65512 92 8.12404V21.2949H377V8.12404C377 3.65605 373.453 0 369.118 0Z" fill="#C6CFD5"/>
<path d="M109 11.5002C109 14.0628 106.986 16.14 104.5 16.14C102.015 16.14 100 14.0628 100 11.5002C100 8.93852 102.015 6.86133 104.5 6.86133C106.985 6.86133 109 8.93852 109 11.5002Z" fill="#F45F31"/>
<path d="M127 11.4997C127 14.0625 124.987 16.1399 122.501 16.1399C120.015 16.1399 118 14.0625 118 11.4997C118 8.93774 120.015 6.86035 122.501 6.86035C124.986 6.86035 127 8.93774 127 11.4997Z" fill="#F2B233"/>
<path d="M144 11.4997C144 14.0625 141.986 16.1399 139.5 16.1399C137.015 16.1399 135 14.0625 135 11.4997C135 8.93774 137.015 6.86035 139.5 6.86035C141.986 6.86035 144 8.93774 144 11.4997Z" fill="#15B56C"/>
<path d="M358.885 33.7305H110.121V94.6286H358.885V33.7305Z" fill="white"/>
<path d="M188.733 107.223H110.121V132.949H188.733V107.223Z" fill="white"/>
<path d="M188.733 139.336H110.121V146.559H188.733V139.336Z" fill="white"/>
<path d="M188.733 151.992H110.121V159.213H188.733V151.992Z" fill="white"/>
<path d="M188.733 164.617H110.121V171.838H188.733V164.617Z" fill="white"/>
<path d="M188.733 177.262H110.121V184.483H188.733V177.262Z" fill="white"/>
<path d="M273.821 107.223H195.207V132.949H273.821V107.223Z" fill="white"/>
<path d="M273.821 139.336H195.207V146.559H273.821V139.336Z" fill="white"/>
<path d="M273.821 151.992H195.207V159.213H273.821V151.992Z" fill="white"/>
<path d="M273.821 164.617H195.207V171.838H273.821V164.617Z" fill="white"/>
<path d="M273.821 177.262H195.207V184.483H273.821V177.262Z" fill="white"/>
<path d="M358.887 107.223H280.273V184.474H358.887V107.223Z" fill="white"/>
<path d="M280.273 171.836L304.847 132.95L319.581 162.206L344.54 116.77L358.888 143.852V184.474H280.273V171.836Z" fill="#C6CFD5"/>
<path d="M330.532 122.634C330.532 127.868 326.416 132.113 321.339 132.113C316.261 132.113 312.145 127.868 312.145 122.634C312.145 117.4 316.261 113.156 321.339 113.156C326.417 113.156 330.532 117.4 330.532 122.634Z" fill="#C6CFD5"/>
<path d="M222.844 85.7437C222.844 87.5056 221.458 88.9327 219.75 88.9327C218.041 88.9327 216.656 87.5056 216.656 85.7437C216.656 83.9819 218.041 82.5547 219.75 82.5547C221.458 82.5547 222.844 83.9819 222.844 85.7437Z" fill="white"/>
<path d="M237.641 85.7437C237.641 87.5056 236.256 88.9327 234.547 88.9327C232.838 88.9327 231.453 87.5056 231.453 85.7437C231.453 83.9819 232.838 82.5547 234.547 82.5547C236.256 82.5547 237.641 83.9819 237.641 85.7437Z" fill="white"/>
<path d="M252.442 85.7437C252.442 87.5056 251.057 88.9327 249.347 88.9327C247.64 88.9327 246.254 87.5056 246.254 85.7437C246.254 83.9819 247.64 82.5547 249.347 82.5547C251.057 82.5547 252.442 83.9819 252.442 85.7437Z" fill="white"/>
<path d="M129.244 64.0784C129.244 67.2031 126.787 69.7349 123.756 69.7349C120.725 69.7349 118.27 67.2031 118.27 64.0784C118.27 60.9537 120.726 58.4219 123.756 58.4219C126.788 58.4219 129.244 60.9537 129.244 64.0784Z" fill="white"/>
<path d="M121.953 64.0883C123.088 63.1291 124.223 62.1699 125.359 61.2107C125.766 60.8676 125.185 60.2776 124.783 60.6178C123.538 61.6693 122.291 62.7227 121.044 63.7751C120.933 63.8702 120.9 63.9821 120.913 64.0883C120.9 64.1955 120.933 64.3074 121.044 64.4016C122.29 65.454 123.537 66.5064 124.783 67.5598C125.185 67.9001 125.765 67.31 125.359 66.966C124.222 66.0059 123.087 65.0476 121.953 64.0883Z" fill="#C6CFD5"/>
<path d="M339.871 64.0784C339.871 67.2031 342.33 69.7349 345.36 69.7349C348.389 69.7349 350.846 67.2031 350.846 64.0784C350.846 60.9537 348.388 58.4219 345.36 58.4219C342.329 58.4219 339.871 60.9537 339.871 64.0784Z" fill="white"/>
<path d="M347.147 64.0883C346.012 63.1291 344.876 62.1699 343.74 61.2107C343.333 60.8676 343.912 60.2776 344.317 60.6178C345.561 61.6693 346.808 62.7227 348.053 63.7751C348.165 63.8702 348.199 63.9821 348.185 64.0883C348.2 64.1955 348.165 64.3074 348.053 64.4016C346.808 65.454 345.561 66.5064 344.317 67.5598C343.913 67.9001 343.333 67.31 343.74 66.966C344.877 66.0059 346.012 65.0476 347.147 64.0883Z" fill="#C6CFD5"/>
<g filter="url(#filter0_d_1722_28404)">
<g clip-path="url(#clip0_1722_28404)">
<path d="M400.367 47.6279H234.628V183.741H400.367V47.6279Z" fill="white"/>
<path d="M400.995 184.37H234V47H400.995V184.37ZM235.256 183.113H399.739V48.257H235.256V183.113Z" fill="white"/>
<path d="M400.367 47.6279H234.628V59.6169H400.367V47.6279Z" fill="#C6CFD5"/>
<path d="M400.995 60.245H234V47H400.995V60.245ZM235.256 58.989H399.739V48.257H235.256V58.989Z" fill="#C6CFD5" fill-opacity="0.733333"/>
<path d="M253.899 83.4668H247.489V85.8078H253.899V83.4668Z" fill="#EBEBEB"/>
<path d="M332.095 83.4668H258.57V85.8078H332.095V83.4668Z" fill="#EBEBEB"/>
<path d="M348.209 83.4668H336.034V85.8078H348.209V83.4668Z" fill="#C6CFD5"/>
<path d="M376.056 114.797H363.881V117.138H376.056V114.797Z" fill="#EBEBEB"/>
<path d="M371.903 83.4668H350.856V85.8078H371.903V83.4668Z" fill="#A6A6A6"/>
<path d="M260.309 89.7324H253.899V92.0734H260.309V89.7324Z" fill="#EBEBEB"/>
<path d="M313.071 89.7324H264.819V92.0734H313.071V89.7324Z" fill="#A6A6A6"/>
<path d="M360.99 114.797H332.738V117.138H360.99V114.797Z" fill="#A6A6A6"/>
<path d="M304.658 108.53H258.57V110.871H304.658V108.53Z" fill="#A6A6A6"/>
<path d="M297.151 95.999H264.819V98.34H297.151V95.999Z" fill="#C6CFD5"/>
<path d="M356.508 102.265H344.176V104.606H356.508V102.265Z" fill="#A6A6A6"/>
<path d="M352.371 95.999H300.739V98.34H352.371V95.999Z" fill="#A6A6A6"/>
<path d="M320.202 114.797H258.57V117.138H320.202V114.797Z" fill="#C6CFD5"/>
<path d="M382.899 89.7324H349.498V92.0734H382.899V89.7324Z" fill="#C6CFD5"/>
<path d="M346.851 89.7324H316.1V92.0734H346.851V89.7324Z" fill="#EBEBEB"/>
<path d="M375.549 95.999H354.798V98.34H375.549V95.999Z" fill="#EBEBEB"/>
<path d="M260.309 95.999H253.899V98.34H260.309V95.999Z" fill="#EBEBEB"/>
<path d="M253.899 102.265H247.489V104.606H253.899V102.265Z" fill="#A6A6A6"/>
<path d="M296.452 102.265H258.57V104.606H296.452V102.265Z" fill="#EBEBEB"/>
<path d="M302.701 121.062H264.819V123.403H302.701V121.062Z" fill="#EBEBEB"/>
<path d="M364.254 127.328H335.455V129.669H364.254V127.328Z" fill="#C6CFD5"/>
<path d="M343.764 121.062H305.776V123.403H343.764V121.062Z" fill="#C6CFD5"/>
<path d="M332.143 127.328H299.076V129.669H332.143V127.328Z" fill="#EBEBEB"/>
<path d="M275.787 127.328H264.819V129.669H275.787V127.328Z" fill="#A6A6A6"/>
<path d="M348.209 108.53H307.266V110.871H348.209V108.53Z" fill="#EBEBEB"/>
<path d="M376.907 108.53H350.856V110.871H376.907V108.53Z" fill="#C6CFD5"/>
<path d="M341.196 102.265H300.303V104.606H341.196V102.265Z" fill="#C6CFD5"/>
<path d="M253.899 108.53H247.489V110.871H253.899V108.53Z" fill="#EBEBEB"/>
<path d="M253.899 114.797H247.489V117.138H253.899V114.797Z" fill="#EBEBEB"/>
<path d="M260.309 121.062H253.899V123.403H260.309V121.062Z" fill="#A6A6A6"/>
<path d="M260.309 127.328H253.899V129.669H260.309V127.328Z" fill="#EBEBEB"/>
<path d="M253.899 132.576H247.489V134.917H253.899V132.576Z" fill="#EBEBEB"/>
<path d="M332.095 132.576H258.57V134.917H332.095V132.576Z" fill="#EBEBEB"/>
<path d="M260.309 138.843H253.899V141.184H260.309V138.843Z" fill="#EBEBEB"/>
<path d="M313.071 138.843H264.819V141.184H313.071V138.843Z" fill="#A6A6A6"/>
<path d="M304.658 157.642H258.57V159.983H304.658V157.642Z" fill="#A6A6A6"/>
<path d="M297.151 145.108H264.819V147.449H297.151V145.108Z" fill="#C6CFD5"/>
<path d="M352.371 145.108H300.739V147.449H352.371V145.108Z" fill="#A6A6A6"/>
<path d="M320.202 163.907H258.57V166.248H320.202V163.907Z" fill="#C6CFD5"/>
<path d="M382.899 138.843H349.498V141.184H382.899V138.843Z" fill="#C6CFD5"/>
<path d="M346.851 138.843H316.1V141.184H346.851V138.843Z" fill="#EBEBEB"/>
<path d="M375.549 145.108H354.798V147.449H375.549V145.108Z" fill="#EBEBEB"/>
<path d="M260.309 145.108H253.899V147.449H260.309V145.108Z" fill="#EBEBEB"/>
<path d="M253.899 151.376H247.489V153.717H253.899V151.376Z" fill="#A6A6A6"/>
<path d="M296.452 151.376H258.57V153.717H296.452V151.376Z" fill="#EBEBEB"/>
<path d="M348.209 157.642H307.266V159.983H348.209V157.642Z" fill="#EBEBEB"/>
<path d="M341.196 151.376H300.303V153.717H341.196V151.376Z" fill="#C6CFD5"/>
<path d="M253.899 157.642H247.489V159.983H253.899V157.642Z" fill="#EBEBEB"/>
<path d="M251.448 77.3005C251.669 77.5295 251.669 77.8725 251.448 78.0925C251.334 78.1975 251.203 78.2505 251.062 78.2505C250.912 78.2505 250.771 78.1975 250.657 78.0925L248.185 75.5855C248.158 75.5765 248.149 75.5595 248.141 75.5325C248.132 75.5235 248.114 75.5145 248.114 75.5145C248.097 75.4885 248.097 75.4705 248.088 75.4445C248.07 75.4355 248.061 75.4185 248.061 75.4095C248.052 75.3915 248.052 75.3655 248.044 75.3565C248.044 75.3305 248.025 75.3215 248.025 75.3125C248.025 75.2865 248.025 75.2685 248.025 75.2515C248.025 75.2335 248.017 75.2255 248.017 75.1985C248.017 75.1895 248.025 75.1625 248.025 75.1545C248.025 75.1365 248.025 75.1105 248.025 75.0935C248.025 75.0755 248.044 75.0675 248.044 75.0575C248.052 75.0315 248.052 75.0135 248.061 74.9865C248.061 74.9775 248.07 74.9775 248.07 74.9695C248.088 74.9435 248.097 74.9075 248.114 74.8905C248.114 74.8905 248.114 74.8725 248.132 74.8725C248.141 74.8545 248.158 74.8285 248.185 74.8115L250.657 72.3045C250.877 72.0925 251.237 72.0925 251.448 72.3045C251.669 72.5245 251.669 72.8765 251.448 73.0965L249.364 75.1995L251.448 77.3005Z" fill="#A6A6A6"/>
<path d="M253.69 77.5817L255.846 72.4517C255.951 72.2057 256.232 72.0907 256.488 72.1967C256.726 72.2927 256.84 72.5837 256.735 72.8207L254.58 77.9587C254.5 78.1437 254.316 78.2487 254.131 78.2487C254.078 78.2487 254.008 78.2397 253.956 78.2137C253.698 78.1187 253.584 77.8287 253.69 77.5817Z" fill="#A6A6A6"/>
<path d="M260.99 75.5136C260.99 75.5136 260.99 75.5226 260.981 75.5226C260.963 75.5406 260.945 75.5666 260.918 75.5846L258.446 78.0916C258.341 78.1966 258.191 78.2496 258.05 78.2496C257.9 78.2496 257.769 78.1966 257.655 78.0916C257.434 77.8716 257.434 77.5286 257.655 77.2996L259.739 75.1966L257.655 73.0936C257.434 72.8736 257.434 72.5216 257.655 72.3016C257.866 72.0896 258.227 72.0896 258.446 72.3016L260.918 74.8086C260.945 74.8256 260.962 74.8526 260.981 74.8696C260.99 74.8696 260.99 74.8876 260.99 74.8876C261.007 74.9226 261.024 74.9406 261.034 74.9666C261.034 74.9756 261.042 74.9756 261.042 74.9836C261.051 75.0106 261.051 75.0276 261.068 75.0636C261.068 75.0716 261.076 75.0716 261.076 75.0896C261.076 75.1066 261.076 75.1326 261.076 75.1506C261.076 75.1586 261.086 75.1856 261.086 75.1946C261.086 75.2036 261.076 75.2296 261.076 75.2386C261.076 75.2646 261.076 75.2826 261.076 75.3096C261.076 75.3186 261.068 75.3186 261.068 75.3276C261.051 75.3626 261.051 75.3886 261.042 75.4066C261.042 75.4156 261.034 75.4156 261.034 75.4326C261.024 75.4526 261.007 75.4796 260.99 75.5136Z" fill="#A6A6A6"/>
<path d="M269.16 78V73.128H267.176V72.36H272.024V73.128H270.04V78H269.16ZM272.298 78V74.032H273.082V74.976H273.09C273.186 74.6773 273.349 74.4427 273.578 74.272C273.813 74.096 274.101 73.9973 274.442 73.976L274.842 73.944L274.922 74.744L274.282 74.8C273.93 74.8267 273.658 74.9413 273.466 75.144C273.274 75.3413 273.178 75.5893 273.178 75.888V78H272.298ZM277.104 78.072C276.816 78.072 276.557 78.0187 276.328 77.912C276.104 77.8053 275.925 77.6613 275.792 77.48C275.664 77.2933 275.6 77.0827 275.6 76.848C275.6 76.5547 275.685 76.32 275.856 76.144C276.027 75.9627 276.288 75.832 276.64 75.752C276.997 75.672 277.453 75.632 278.008 75.632H278.568V76.192H278.048C277.771 76.192 277.531 76.2027 277.328 76.224C277.131 76.24 276.968 76.272 276.84 76.32C276.712 76.3627 276.616 76.424 276.552 76.504C276.493 76.5787 276.464 76.6773 276.464 76.8C276.464 77.0027 276.539 77.1573 276.688 77.264C276.843 77.3707 277.043 77.424 277.288 77.424C277.501 77.424 277.693 77.376 277.864 77.28C278.04 77.1787 278.179 77.048 278.28 76.888C278.387 76.7227 278.44 76.5413 278.44 76.344V75.456C278.44 75.1627 278.355 74.9547 278.184 74.832C278.019 74.704 277.771 74.64 277.44 74.64C277.211 74.64 276.979 74.672 276.744 74.736C276.515 74.8 276.275 74.904 276.024 75.048L275.768 74.424C275.933 74.3227 276.112 74.2373 276.304 74.168C276.501 74.0987 276.707 74.0453 276.92 74.008C277.133 73.9707 277.344 73.952 277.552 73.952C277.909 73.952 278.219 74.008 278.48 74.12C278.741 74.232 278.941 74.4053 279.08 74.64C279.219 74.8693 279.288 75.1707 279.288 75.544V78H278.536V77.152H278.528C278.453 77.3227 278.349 77.48 278.216 77.624C278.088 77.7627 277.931 77.872 277.744 77.952C277.557 78.032 277.344 78.072 277.104 78.072ZM282.475 78.072C282.065 78.072 281.705 77.9893 281.395 77.824C281.091 77.6533 280.854 77.4133 280.683 77.104C280.513 76.7947 280.427 76.4293 280.427 76.008C280.427 75.5867 280.513 75.224 280.683 74.92C280.854 74.6107 281.091 74.3733 281.395 74.208C281.705 74.0373 282.067 73.952 282.483 73.952C282.761 73.952 283.025 73.9973 283.275 74.088C283.531 74.1787 283.739 74.2987 283.899 74.448L283.619 75.088C283.47 74.96 283.302 74.864 283.115 74.8C282.929 74.7307 282.747 74.696 282.571 74.696C282.177 74.696 281.867 74.8107 281.643 75.04C281.425 75.264 281.315 75.5893 281.315 76.016C281.315 76.4373 281.425 76.7627 281.643 76.992C281.867 77.2213 282.174 77.336 282.563 77.336C282.745 77.336 282.926 77.304 283.107 77.24C283.294 77.1707 283.459 77.0747 283.603 76.952L283.883 77.592C283.729 77.7413 283.526 77.8587 283.275 77.944C283.025 78.0293 282.758 78.072 282.475 78.072ZM284.793 78V72.36H285.665V75.776H285.705L287.353 74.032H288.409L286.385 76.128L286.401 75.784L288.585 78H287.513L285.705 76.208H285.665V78H284.793ZM289.175 73.152V72.232H290.207V73.152H289.175ZM289.263 78V74.032H290.135V78H289.263ZM291.521 78V74.032H292.329V74.864H292.337C292.465 74.576 292.655 74.352 292.905 74.192C293.161 74.032 293.449 73.952 293.769 73.952C294.095 73.952 294.367 74.0133 294.585 74.136C294.809 74.2533 294.975 74.4347 295.081 74.68C295.193 74.92 295.249 75.2267 295.249 75.6V78H294.369V75.64C294.369 75.4373 294.34 75.2667 294.281 75.128C294.228 74.984 294.14 74.8747 294.017 74.8C293.895 74.7253 293.732 74.688 293.529 74.688C293.311 74.688 293.116 74.7387 292.945 74.84C292.775 74.936 292.639 75.0693 292.537 75.24C292.441 75.4053 292.393 75.592 292.393 75.8V78H291.521ZM298.376 79.512C298.056 79.512 297.739 79.4667 297.424 79.376C297.109 79.2907 296.84 79.168 296.616 79.008L296.872 78.344C297.016 78.4347 297.171 78.5147 297.336 78.584C297.501 78.6533 297.669 78.704 297.84 78.736C298.016 78.7733 298.184 78.792 298.344 78.792C298.755 78.792 299.069 78.6933 299.288 78.496C299.512 78.304 299.624 78.024 299.624 77.656V77H299.608C299.507 77.256 299.333 77.4667 299.088 77.632C298.843 77.792 298.557 77.872 298.232 77.872C297.864 77.872 297.541 77.792 297.264 77.632C296.987 77.4667 296.771 77.2373 296.616 76.944C296.461 76.6507 296.384 76.3067 296.384 75.912C296.384 75.5227 296.461 75.1813 296.616 74.888C296.771 74.5893 296.987 74.36 297.264 74.2C297.541 74.0347 297.864 73.952 298.232 73.952C298.563 73.952 298.851 74.0347 299.096 74.2C299.341 74.3653 299.515 74.5867 299.616 74.864H299.624V74.032H300.448V77.584C300.448 77.984 300.365 78.328 300.2 78.616C300.035 78.904 299.797 79.1253 299.488 79.28C299.179 79.4347 298.808 79.512 298.376 79.512ZM298.424 77.176C298.781 77.176 299.064 77.0613 299.272 76.832C299.48 76.6027 299.584 76.296 299.584 75.912C299.584 75.5227 299.48 75.216 299.272 74.992C299.064 74.7627 298.781 74.648 298.424 74.648C298.067 74.648 297.781 74.7627 297.568 74.992C297.36 75.216 297.256 75.5227 297.256 75.912C297.256 76.296 297.36 76.6027 297.568 76.832C297.781 77.0613 298.067 77.176 298.424 77.176ZM304.277 78V72.36H306.701C307.106 72.36 307.453 72.4293 307.741 72.568C308.034 72.7013 308.256 72.8987 308.405 73.16C308.56 73.416 308.637 73.728 308.637 74.096C308.637 74.4533 308.56 74.7627 308.405 75.024C308.25 75.2853 308.029 75.488 307.741 75.632C307.453 75.776 307.106 75.848 306.701 75.848H305.157V78H304.277ZM305.157 75.112H306.565C306.954 75.112 307.25 75.0293 307.453 74.864C307.656 74.6933 307.757 74.4373 307.757 74.096C307.757 73.7547 307.656 73.504 307.453 73.344C307.256 73.1787 306.96 73.096 306.565 73.096H305.157V75.112ZM309.672 73.152V72.232H310.704V73.152H309.672ZM309.76 78V74.032H310.632V78H309.76ZM311.506 78L313.138 75.736L313.154 76.208L311.578 74.032H312.546L313.594 75.488H313.53L314.578 74.032H315.546L313.97 76.2L313.994 75.752L315.618 78H314.642L313.53 76.448H313.594L312.482 78H311.506ZM318.378 78.072C317.914 78.072 317.517 77.992 317.186 77.832C316.856 77.6667 316.602 77.4293 316.426 77.12C316.25 76.8107 316.162 76.4427 316.162 76.016C316.162 75.616 316.242 75.2613 316.402 74.952C316.568 74.6427 316.802 74.4 317.106 74.224C317.41 74.0427 317.768 73.952 318.178 73.952C318.568 73.952 318.901 74.0347 319.178 74.2C319.456 74.3653 319.669 74.6 319.818 74.904C319.968 75.208 320.042 75.5707 320.042 75.992V76.264H316.842V75.696H319.442L319.298 75.84C319.298 75.4347 319.202 75.128 319.01 74.92C318.818 74.7067 318.546 74.6 318.194 74.6C317.954 74.6 317.744 74.6533 317.562 74.76C317.386 74.8613 317.248 75.0107 317.146 75.208C317.045 75.4 316.994 75.6347 316.994 75.912V76C316.994 76.3093 317.048 76.5653 317.154 76.768C317.266 76.9707 317.426 77.1227 317.634 77.224C317.848 77.3253 318.104 77.376 318.402 77.376C318.621 77.376 318.84 77.3493 319.058 77.296C319.282 77.2373 319.49 77.1333 319.682 76.984L319.954 77.592C319.746 77.7573 319.501 77.88 319.218 77.96C318.936 78.0347 318.656 78.072 318.378 78.072ZM322.456 78.072C322.04 78.072 321.723 77.9573 321.504 77.728C321.286 77.4933 321.176 77.1627 321.176 76.736V72.36H322.048V76.656C322.048 76.8107 322.07 76.9413 322.112 77.048C322.16 77.1547 322.227 77.2347 322.312 77.288C322.398 77.3413 322.502 77.368 322.624 77.368C322.704 77.368 322.779 77.3653 322.848 77.36C322.918 77.3493 322.99 77.3333 323.064 77.312L323.096 77.976C322.995 78.0133 322.894 78.0373 322.792 78.048C322.696 78.064 322.584 78.072 322.456 78.072Z" fill="#A6A6A6"/>
</g>
</g>
<path d="M234.365 140H201.906C193.523 140 188.284 130.926 192.475 123.666L208.705 95.555L224.935 67.4445C229.126 60.1852 239.605 60.1852 243.796 67.4445L260.027 95.555L276.257 123.666C280.448 130.926 275.209 140 266.826 140H234.365Z" fill="#FFB95E"/>
<path d="M269.313 126.912C269.313 126.912 269.404 127.08 269.567 127.416C269.691 127.765 269.896 128.299 269.896 129.037C269.913 129.765 269.732 130.698 269.136 131.6C268.833 132.043 268.435 132.477 267.914 132.818C267.389 133.15 266.747 133.381 266.047 133.428C260.516 133.488 252.528 133.478 242.65 133.502C232.771 133.512 221.012 133.525 207.955 133.539C206.322 133.54 204.67 133.54 202.998 133.542C201.238 133.58 199.565 132.33 198.999 130.648C198.7 129.817 198.636 128.894 198.835 128.02C198.892 127.804 198.962 127.591 199.032 127.379C199.128 127.177 199.218 126.968 199.319 126.773L199.945 125.628C200.781 124.098 201.626 122.553 202.478 120.995C205.888 114.761 209.418 108.307 213.034 101.698C216.653 95.0866 220.186 88.6317 223.599 82.3979C225.306 79.2813 226.983 76.2202 228.625 73.2223C229.044 72.474 229.426 71.725 229.869 70.9885C230.316 70.2441 230.943 69.6014 231.695 69.1754C233.191 68.3025 235.08 68.2418 236.604 68.9555C237.364 69.3098 238.045 69.8396 238.543 70.505C239.034 71.1874 239.373 71.9038 239.764 72.598C240.527 73.9941 241.279 75.3714 242.02 76.729C243.502 79.4437 244.941 82.0801 246.333 84.6285C249.114 89.7258 251.705 94.4747 254.07 98.8099C258.789 107.48 262.607 114.497 265.252 119.356C266.563 121.78 267.581 123.664 268.278 124.951C268.617 125.586 268.877 126.073 269.057 126.41C269.231 126.739 269.313 126.912 269.313 126.912C269.313 126.912 269.211 126.75 269.027 126.426C268.841 126.093 268.57 125.612 268.218 124.983C267.509 123.703 266.472 121.83 265.138 119.42C262.47 114.573 258.619 107.573 253.861 98.9254C251.484 94.596 248.881 89.8536 246.087 84.7635C244.691 82.2178 243.246 79.5847 241.759 76.8719C241.015 75.5156 240.261 74.1396 239.496 72.7448C239.108 72.0545 238.751 71.3186 238.298 70.6929C237.828 70.0659 237.187 69.5708 236.472 69.2387C235.04 68.5693 233.259 68.6293 231.857 69.4501C231.151 69.85 230.564 70.4535 230.144 71.1548C229.717 71.8666 229.325 72.6345 228.91 73.3776C227.271 76.3767 225.596 79.4398 223.891 82.5577C220.481 88.7928 216.949 95.2484 213.332 101.861C209.714 108.47 206.182 114.922 202.77 121.154C201.917 122.712 201.071 124.257 200.234 125.786C199.833 126.564 199.323 127.282 199.153 128.095C198.968 128.906 199.027 129.763 199.304 130.538C199.834 132.107 201.373 133.255 202.998 133.223C204.67 133.225 206.322 133.225 207.955 133.227C221.012 133.24 232.771 133.253 242.65 133.263C252.519 133.278 260.507 133.29 266.038 133.298C266.716 133.257 267.339 133.039 267.852 132.722C268.361 132.395 268.753 131.975 269.053 131.545C269.644 130.669 269.834 129.756 269.828 129.039C269.801 127.575 269.25 126.924 269.313 126.912Z" fill="white"/>
<path d="M229.104 120.905C229.104 118.027 231.397 115.88 234.666 115.88C237.934 115.88 240.179 118.027 240.179 120.905C240.179 123.736 237.934 126.029 234.666 126.029C231.397 126.029 229.104 123.736 229.104 120.905ZM229.153 91.4365H240.179L238.325 113.148H230.958L229.153 91.4365Z" fill="white"/>
<defs>
<filter id="filter0_d_1722_28404" x="226" y="44" width="178.995" height="149.37" filterUnits="userSpaceOnUse" color-interpolation-filters="sRGB">
<feFlood flood-opacity="0" result="BackgroundImageFix"/>
<feColorMatrix in="SourceAlpha" type="matrix" values="0 0 0 0 0 0 0 0 0 0 0 0 0 0 0 0 0 0 127 0" result="hardAlpha"/>
<feOffset dx="-2" dy="3"/>
<feGaussianBlur stdDeviation="3"/>
<feComposite in2="hardAlpha" operator="out"/>
<feColorMatrix type="matrix" values="0 0 0 0 0 0 0 0 0 0 0 0 0 0 0 0 0 0 0.2 0"/>
<feBlend mode="normal" in2="BackgroundImageFix" result="effect1_dropShadow_1722_28404"/>
<feBlend mode="normal" in="SourceGraphic" in2="effect1_dropShadow_1722_28404" result="shape"/>
</filter>
<clipPath id="clip0_1722_28404">
<rect x="234" y="47" width="166.995" height="137.37" rx="7" fill="white"/>
</clipPath>
</defs>
</svg>
