<svg 
  viewBox="0 0 50 50" 
  xmlns="http://www.w3.org/2000/svg" 
  preserveAspectRatio="xMidYMid meet"
  style="width: 100%; height: auto;"
>
  <title>Green Arrow Logo</title>
  <defs>
    <polygon id="path-1" points="0 0.365081081 44.1688649 0.365081081 44.1688649 41.0187027 0 41.0187027"></polygon>
  </defs>
  <g id="Artboard" stroke="none" stroke-width="1" fill="none" fill-rule="evenodd">
    <g id="ga-logo" transform="translate(0.000000, 8.000000)">
      <path d="M42.924973,2.91589189 L42.924973,30.3576216 C42.924973,31.4136216 42.0687568,32.2686486 41.0151351,32.2686486 L31.3398919,32.2686486 C30.8963243,32.2686486 30.467027,32.4232432 30.1245405,32.7062703 L23.0940541,40.1113514 C22.9134287,40.2674905 22.7019082,40.3837863 22.4732973,40.4526486 C22.1688649,40.5382703 21.843027,40.5370811 21.5397838,40.4502703 C21.3095183,40.3786667 21.0968314,40.2595621 20.9154595,40.1006486 L14.0752432,32.7300541 C13.7312894,32.4397523 13.2957098,32.2805172 12.8456216,32.2805405 L3.15135135,32.2805405 C2.09654054,32.2805405 1.24151351,31.4243243 1.24151351,30.3683243 L1.24151351,4.02540541 C1.24151351,2.96940541 2.09654054,2.11318919 3.15135135,2.11318919 L42.9237838,2.11318919" id="Path" fill="#BDEA32" fill-rule="nonzero"></path>
      <polygon id="Path" fill="#9ACC11" fill-rule="nonzero" points="22.0832432 11.2735135 43.1176216 32.3245405 30.6668108 32.3245405 22.0844324 40.5097297 13.4711351 32.3245405 1.05005405 32.3245405"></polygon>
      <polygon id="Path" fill="#FFFFFF" fill-rule="nonzero" points="22.0820541 22.6956757 1.24745946 1.84562162 43.296 1.84562162"></polygon>
      <g id="Group" transform="translate(0.000000, 0.237838)">
        <g id="Clipped">
          <mask id="mask-2" fill="white"></mask>
          <g id="a"></g>
          <path d="M22.0832432,41.0187072 C21.2151351,41.0187072 20.347027,40.6881081 19.6882162,40.0269189 L13.2107027,33.5434595 C13.0474655,33.3790928 12.8251645,33.2870028 12.5935135,33.2877838 L3.27502703,33.2877838 C1.46551037,33.2851594 0,31.8175186 0,30.008 L0,3.52 C0.00130801037,1.77952078 1.41087472,0.368358329 3.15135135,0.365081081 L25.3237838,0.365081081 C26.0107663,0.365081081 26.5676757,0.921990451 26.5676757,1.60897297 C26.5676757,2.2959555 26.0107663,2.85286486 25.3237838,2.85286486 L3.15254054,2.85286486 C2.78389189,2.85286486 2.48659459,3.15135135 2.48659459,3.51881081 L2.48659459,30.0091892 C2.48659459,30.4456216 2.83978378,30.8 3.27502703,30.8 L12.5935135,30.8 C13.4901622,30.8 14.3344865,31.1496216 14.9695135,31.7846486 L21.4458378,38.2681081 C21.7981333,38.6194942 22.3683532,38.6194942 22.7206486,38.2681081 L29.2183784,31.7703784 C29.8468212,31.1384795 30.7019934,30.7843346 31.5931892,30.7869189 L41.0151351,30.7869189 C41.3837838,30.7869189 41.6810811,30.4884324 41.6810811,30.120973 L41.6810811,19.2363243 C41.6810811,18.5493418 42.2379905,17.9924324 42.924973,17.9924324 C43.6119555,17.9924324 44.1688649,18.5493418 44.1688649,19.2363243 L44.1688649,30.1197838 C44.1675542,31.86119 42.7565407,33.2727355 41.0151351,33.2747027 L31.5931892,33.2747027 C31.3614379,33.2751768 31.1392288,33.3670517 30.9748108,33.5303784 L24.4782703,40.0281081 C23.8434412,40.6636879 22.9815569,41.0201673 22.0832432,41.0187072" id="Path" fill="#082D56" fill-rule="nonzero" mask="url(#mask-2)"></path>
        </g>
      </g>
      <path d="M34.5732973,0.602918919 C33.8863148,0.602918919 33.3294054,1.15982829 33.3294054,1.84681081 C33.3294054,2.53379333 33.8863148,3.0907027 34.5732973,3.0907027 L39.9222703,3.0907027 L22.7206486,20.2911351 C22.3680837,20.6418688 21.7984028,20.6418688 21.4458378,20.2911351 L16.0897297,14.9362162 C15.775336,14.6222473 15.3173238,14.4998552 14.888222,14.6151437 C14.4591201,14.7304322 14.1241193,15.0658863 14.0094111,15.4951437 C13.894703,15.9244011 14.0177144,16.3822474 14.3321081,16.6962162 L19.6882162,22.0523243 C20.3228216,22.6882388 21.1848515,23.0447785 22.0832432,23.0429262 C22.9815569,23.0443836 23.8434412,22.6879041 24.4782703,22.0523243 L41.6810811,4.84832432 L41.6810811,10.2032432 C41.661086,10.6601872 41.8934735,11.0912437 42.2862017,11.3256837 C42.6789299,11.5601237 43.1686376,11.5601237 43.5613659,11.3256837 C43.9540941,11.0912437 44.1864816,10.6601872 44.1664865,10.2032432 L44.1664865,0.602918919 L34.5721081,0.602918919 L34.5732973,0.602918919 Z" id="Path" fill="#082D56" fill-rule="nonzero"></path>
    </g>
  </g>
</svg>
