<svg width="16" height="16" viewBox="0 0 16 16" fill="none" xmlns="http://www.w3.org/2000/svg">
<g id="vuesax/bulk/tick-circle">
<g id="tick-circle">
<path id="Vector" d="M7.99992 14.6666C11.6818 14.6666 14.6666 11.6819 14.6666 7.99998C14.6666 4.31808 11.6818 1.33331 7.99992 1.33331C4.31802 1.33331 1.33325 4.31808 1.33325 7.99998C1.33325 11.6819 4.31802 14.6666 7.99992 14.6666Z" fill="#2B5B00"/>
<path id="Vector_2" d="M7.05321 10.3867C6.91988 10.3867 6.79321 10.3333 6.69988 10.24L4.81321 8.35334C4.61988 8.16 4.61988 7.84 4.81321 7.64667C5.00655 7.45334 5.32655 7.45334 5.51988 7.64667L7.05321 9.18L10.4799 5.75334C10.6732 5.56 10.9932 5.56 11.1865 5.75334C11.3799 5.94667 11.3799 6.26667 11.1865 6.46L7.40655 10.24C7.31321 10.3333 7.18655 10.3867 7.05321 10.3867Z" fill="white"/>
</g>
</g>
</svg>
