<svg width="18" height="18" viewBox="0 0 18 18" fill="none" xmlns="http://www.w3.org/2000/svg">
<path d="M9 0.75C6.81196 0.75 4.71354 1.61919 3.16637 3.16637C1.61919 4.71354 0.75 6.81196 0.75 9V15.4167C0.75 16.425 1.575 17.25 2.58333 17.25H6.25V9.91667H2.58333V9C2.58333 5.4525 5.4525 2.58333 9 2.58333C12.5475 2.58333 15.4167 5.4525 15.4167 9V9.91667H11.75V17.25H15.4167C16.425 17.25 17.25 16.425 17.25 15.4167V9C17.25 6.81196 16.3808 4.71354 14.8336 3.16637C13.2865 1.61919 11.188 0.75 9 0.75ZM4.41667 11.75V15.4167H2.58333V11.75H4.41667ZM15.4167 15.4167H13.5833V11.75H15.4167V15.4167Z" fill="#5052B2"/>
</svg>
