<svg width="49" height="49" viewBox="0 0 49 49" fill="none" xmlns="http://www.w3.org/2000/svg">
<path d="M24.5 32.8995C16.3375 20.7495 6.99479 18.52 6.57421 18.424L4.08337 17.8646V20.4167C4.08337 35.3005 12.0969 44.9167 24.5 44.9167C36.7113 44.9167 44.9167 35.0718 44.9167 20.4167V17.8646L42.4259 18.424C42.0053 18.52 32.6626 20.7495 24.5 32.8995Z" fill="#C1E4FF"/>
<path d="M23.0177 7.69096C19.3448 11.566 17.2194 15.3983 15.9883 18.5016C18.7017 20.1023 21.6662 22.4685 24.4796 26.0251C27.2644 22.4318 30.2493 20.0533 32.9933 18.4526C31.7581 15.3595 29.6327 11.5456 25.9802 7.69096L24.5 6.125L23.0177 7.69096Z" fill="#C1E4FF"/>
</svg>
