<svg width="20" height="20" viewBox="0 0 20 20" fill="none" xmlns="http://www.w3.org/2000/svg">
<g id="Group 427318041">
<rect id="Rectangle 27483" width="20" height="20" fill="white"/>
<path id="Vector" d="M18.5158 3.01275C18.9478 1.81775 17.7898 0.65975 16.5948 1.09275L1.9898 6.37475C0.790804 6.80875 0.645804 8.44475 1.7488 9.08375L6.4108 11.7828L10.5738 7.61975C10.7624 7.43759 11.015 7.3368 11.2772 7.33908C11.5394 7.34135 11.7902 7.44652 11.9756 7.63193C12.161 7.81734 12.2662 8.06815 12.2685 8.33035C12.2708 8.59255 12.17 8.84515 11.9878 9.03375L7.8248 13.1968L10.5248 17.8587C11.1628 18.9618 12.7988 18.8158 13.2328 17.6178L18.5158 3.01275Z" fill="#5052B2"/>
</g>
</svg>
