<svg width="635" height="141" viewBox="0 0 635 141" fill="none" xmlns="http://www.w3.org/2000/svg">
<g filter="url(#filter0_d_92_8974)">
<path d="M4 7C4 4.79086 5.79086 3 8 3H627C629.209 3 631 4.79086 631 7V132C631 134.209 629.209 136 627 136H8.00001C5.79087 136 4 134.209 4 132V7Z" fill="white"/>
<path d="M4.5 7C4.5 5.067 6.067 3.5 8 3.5H627C628.933 3.5 630.5 5.06701 630.5 7V132C630.5 133.933 628.933 135.5 627 135.5H8.00001C6.06701 135.5 4.5 133.933 4.5 132V7Z" stroke="#E4E4E4"/>
</g>
<path d="M526 4H626C628.209 4 630 5.79086 630 8V131C630 133.209 628.209 135 626 135H526V4Z" fill="#FFFBF0"/>
<path d="M556.071 87V79.95H559.031C559.804 79.95 560.398 80.13 560.811 80.49C561.231 80.8433 561.441 81.3533 561.441 82.02C561.441 82.42 561.354 82.7667 561.181 83.06C561.014 83.3467 560.774 83.5733 560.461 83.74C560.148 83.9 559.774 83.99 559.341 84.01L559.401 83.94L559.591 83.95C559.811 83.9633 560.001 84.0333 560.161 84.16C560.328 84.28 560.484 84.47 560.631 84.73L561.841 87H560.671L559.481 84.78C559.388 84.6067 559.284 84.4733 559.171 84.38C559.064 84.2867 558.938 84.2233 558.791 84.19C558.651 84.15 558.484 84.13 558.291 84.13H557.131V87H556.071ZM557.131 83.29H558.901C559.401 83.29 559.771 83.1867 560.011 82.98C560.258 82.7733 560.381 82.4633 560.381 82.05C560.381 81.6367 560.258 81.33 560.011 81.13C559.764 80.9233 559.388 80.82 558.881 80.82H557.131V83.29ZM565.206 87.09C564.653 87.09 564.176 86.99 563.776 86.79C563.376 86.5833 563.069 86.29 562.856 85.91C562.643 85.5233 562.536 85.0667 562.536 84.54C562.536 84.04 562.636 83.6 562.836 83.22C563.043 82.8333 563.329 82.5333 563.696 82.32C564.069 82.1 564.499 81.99 564.986 81.99C565.459 81.99 565.863 82.09 566.196 82.29C566.529 82.49 566.786 82.7767 566.966 83.15C567.146 83.5167 567.236 83.9567 567.236 84.47V84.81H563.356V84.14H566.516L566.346 84.31C566.346 83.8033 566.229 83.4167 565.996 83.15C565.769 82.8833 565.443 82.75 565.016 82.75C564.709 82.75 564.446 82.82 564.226 82.96C564.006 83.0933 563.836 83.2867 563.716 83.54C563.596 83.7867 563.536 84.0833 563.536 84.43V84.52C563.536 84.9067 563.599 85.23 563.726 85.49C563.859 85.75 564.053 85.9433 564.306 86.07C564.559 86.1967 564.866 86.26 565.226 86.26C565.499 86.26 565.773 86.2233 566.046 86.15C566.326 86.07 566.583 85.9333 566.816 85.74L567.146 86.47C566.899 86.67 566.599 86.8233 566.246 86.93C565.899 87.0367 565.553 87.09 565.206 87.09ZM569.632 87L567.822 82.08H568.892L570.232 86H570.092L571.522 82.08H572.342L573.752 86H573.622L574.962 82.08H575.992L574.192 87H573.242L571.752 82.98H572.062L570.582 87H569.632ZM578.499 87.09C578.152 87.09 577.839 87.0233 577.559 86.89C577.279 86.7567 577.059 86.5767 576.899 86.35C576.745 86.1167 576.669 85.8567 576.669 85.57C576.669 85.2033 576.765 84.9133 576.959 84.7C577.159 84.4867 577.475 84.3333 577.909 84.24C578.342 84.14 578.915 84.09 579.629 84.09H580.209V84.75H579.659C579.299 84.75 578.995 84.7633 578.749 84.79C578.502 84.81 578.302 84.85 578.149 84.91C577.995 84.97 577.882 85.05 577.809 85.15C577.742 85.2433 577.709 85.3633 577.709 85.51C577.709 85.7633 577.799 85.9633 577.979 86.11C578.165 86.25 578.409 86.32 578.709 86.32C578.969 86.32 579.199 86.2633 579.399 86.15C579.599 86.03 579.759 85.87 579.879 85.67C579.999 85.4633 580.059 85.2333 580.059 84.98V83.85C580.059 83.4767 579.965 83.21 579.779 83.05C579.599 82.89 579.315 82.81 578.929 82.81C578.642 82.81 578.355 82.85 578.069 82.93C577.789 83.01 577.495 83.14 577.189 83.32L576.869 82.58C577.062 82.4533 577.275 82.3467 577.509 82.26C577.749 82.1733 577.995 82.1067 578.249 82.06C578.509 82.0133 578.762 81.99 579.009 81.99C579.455 81.99 579.832 82.06 580.139 82.2C580.445 82.34 580.679 82.5533 580.839 82.84C580.999 83.1267 581.079 83.5 581.079 83.96V87H580.129V85.93H580.169C580.095 86.1567 579.982 86.36 579.829 86.54C579.675 86.7133 579.485 86.85 579.259 86.95C579.039 87.0433 578.785 87.09 578.499 87.09ZM582.601 87V82.08H583.591V83.25H583.541C583.654 82.87 583.851 82.5733 584.131 82.36C584.418 82.1467 584.784 82.0233 585.231 81.99L585.641 81.97L585.721 82.89L585.021 82.96C584.588 83 584.254 83.14 584.021 83.38C583.788 83.62 583.671 83.9367 583.671 84.33V87H582.601ZM588.496 87.09C588.049 87.09 587.659 86.9867 587.326 86.78C586.999 86.5667 586.743 86.27 586.556 85.89C586.376 85.5033 586.286 85.0533 586.286 84.54C586.286 84.02 586.376 83.57 586.556 83.19C586.736 82.81 586.993 82.5167 587.326 82.31C587.659 82.0967 588.046 81.99 588.486 81.99C588.906 81.99 589.266 82.09 589.566 82.29C589.873 82.49 590.086 82.76 590.206 83.1H590.156V79.95H591.206V87H590.216V85.92H590.256C590.129 86.2867 589.909 86.5733 589.596 86.78C589.289 86.9867 588.923 87.09 588.496 87.09ZM588.756 86.27C589.189 86.27 589.533 86.12 589.786 85.82C590.039 85.5133 590.166 85.0867 590.166 84.54C590.166 83.9867 590.039 83.5633 589.786 83.27C589.533 82.97 589.189 82.82 588.756 82.82C588.323 82.82 587.976 82.97 587.716 83.27C587.463 83.5633 587.336 83.9867 587.336 84.54C587.336 85.0867 587.463 85.5133 587.716 85.82C587.976 86.12 588.323 86.27 588.756 86.27ZM594.548 87.09C594.274 87.09 594.008 87.0667 593.748 87.02C593.488 86.9733 593.248 86.9067 593.028 86.82C592.814 86.7333 592.631 86.6267 592.478 86.5L592.778 85.78C592.944 85.8933 593.124 85.99 593.318 86.07C593.518 86.15 593.721 86.21 593.928 86.25C594.141 86.2833 594.344 86.3 594.538 86.3C594.911 86.3 595.194 86.2433 595.388 86.13C595.581 86.01 595.678 85.8467 595.678 85.64C595.678 85.4667 595.618 85.3333 595.498 85.24C595.384 85.1467 595.198 85.0767 594.938 85.03L593.928 84.84C593.488 84.76 593.158 84.6067 592.938 84.38C592.718 84.1467 592.608 83.8533 592.608 83.5C592.608 83.1933 592.691 82.93 592.858 82.71C593.024 82.4833 593.261 82.3067 593.568 82.18C593.881 82.0533 594.248 81.99 594.668 81.99C594.901 81.99 595.131 82.0133 595.358 82.06C595.591 82.1 595.808 82.1633 596.008 82.25C596.214 82.3367 596.384 82.4467 596.518 82.58L596.208 83.3C596.074 83.1867 595.921 83.0933 595.748 83.02C595.574 82.94 595.394 82.88 595.208 82.84C595.028 82.8 594.848 82.78 594.668 82.78C594.308 82.78 594.034 82.84 593.848 82.96C593.661 83.08 593.568 83.2467 593.568 83.46C593.568 83.6267 593.621 83.76 593.728 83.86C593.841 83.96 594.014 84.0333 594.248 84.08L595.238 84.26C595.711 84.3467 596.061 84.5 596.288 84.72C596.521 84.9333 596.638 85.2233 596.638 85.59C596.638 85.9033 596.551 86.1733 596.378 86.4C596.204 86.62 595.961 86.79 595.648 86.91C595.334 87.03 594.968 87.09 594.548 87.09ZM550.085 101V93.95H552.625C553.391 93.95 554.041 94.0867 554.575 94.36C555.115 94.6333 555.525 95.0333 555.805 95.56C556.091 96.08 556.235 96.7167 556.235 97.47C556.235 98.2233 556.091 98.8633 555.805 99.39C555.525 99.9167 555.115 100.317 554.575 100.59C554.041 100.863 553.391 101 552.625 101H550.085ZM551.145 100.09H552.555C553.401 100.09 554.038 99.8733 554.465 99.44C554.898 99.0067 555.115 98.35 555.115 97.47C555.115 96.59 554.898 95.9367 554.465 95.51C554.038 95.0767 553.401 94.86 552.555 94.86H551.145V100.09ZM557.55 94.96V93.86H558.78V94.96H557.55ZM557.64 101V96.08H558.7V101H557.64ZM562.038 101.09C561.764 101.09 561.498 101.067 561.238 101.02C560.978 100.973 560.738 100.907 560.518 100.82C560.304 100.733 560.121 100.627 559.968 100.5L560.268 99.78C560.434 99.8933 560.614 99.99 560.808 100.07C561.008 100.15 561.211 100.21 561.418 100.25C561.631 100.283 561.834 100.3 562.028 100.3C562.401 100.3 562.684 100.243 562.878 100.13C563.071 100.01 563.168 99.8467 563.168 99.64C563.168 99.4667 563.108 99.3333 562.988 99.24C562.874 99.1467 562.688 99.0767 562.428 99.03L561.418 98.84C560.978 98.76 560.648 98.6067 560.428 98.38C560.208 98.1467 560.098 97.8533 560.098 97.5C560.098 97.1933 560.181 96.93 560.348 96.71C560.514 96.4833 560.751 96.3067 561.058 96.18C561.371 96.0533 561.738 95.99 562.158 95.99C562.391 95.99 562.621 96.0133 562.848 96.06C563.081 96.1 563.298 96.1633 563.498 96.25C563.704 96.3367 563.874 96.4467 564.008 96.58L563.698 97.3C563.564 97.1867 563.411 97.0933 563.238 97.02C563.064 96.94 562.884 96.88 562.698 96.84C562.518 96.8 562.338 96.78 562.158 96.78C561.798 96.78 561.524 96.84 561.338 96.96C561.151 97.08 561.058 97.2467 561.058 97.46C561.058 97.6267 561.111 97.76 561.218 97.86C561.331 97.96 561.504 98.0333 561.738 98.08L562.728 98.26C563.201 98.3467 563.551 98.5 563.778 98.72C564.011 98.9333 564.128 99.2233 564.128 99.59C564.128 99.9033 564.041 100.173 563.868 100.4C563.694 100.62 563.451 100.79 563.138 100.91C562.824 101.03 562.458 101.09 562.038 101.09ZM567.456 101.09C566.829 101.09 566.359 100.93 566.046 100.61C565.739 100.29 565.586 99.8267 565.586 99.22V96.91H564.626V96.08H565.616V94.62H566.646V96.08H568.266V96.91H566.646V99.15C566.646 99.5033 566.723 99.77 566.876 99.95C567.036 100.123 567.283 100.21 567.616 100.21C567.736 100.21 567.853 100.197 567.966 100.17C568.079 100.143 568.193 100.11 568.306 100.07L568.466 100.87C568.346 100.943 568.193 100.997 568.006 101.03C567.819 101.07 567.636 101.09 567.456 101.09ZM569.291 101V96.08H570.281V97.25H570.231C570.344 96.87 570.541 96.5733 570.821 96.36C571.107 96.1467 571.474 96.0233 571.921 95.99L572.331 95.97L572.411 96.89L571.711 96.96C571.277 97 570.944 97.14 570.711 97.38C570.477 97.62 570.361 97.9367 570.361 98.33V101H569.291ZM573.234 94.96V93.86H574.464V94.96H573.234ZM573.324 101V96.08H574.384V101H573.324ZM578.631 101.09C578.205 101.09 577.835 100.987 577.521 100.78C577.215 100.573 576.998 100.287 576.871 99.92H576.921V101H575.921V93.95H576.981V97.1H576.921C577.041 96.76 577.251 96.49 577.551 96.29C577.858 96.09 578.221 95.99 578.641 95.99C579.088 95.99 579.475 96.0967 579.801 96.31C580.135 96.5167 580.391 96.81 580.571 97.19C580.751 97.57 580.841 98.02 580.841 98.54C580.841 99.0533 580.751 99.5033 580.571 99.89C580.391 100.27 580.135 100.567 579.801 100.78C579.468 100.987 579.078 101.09 578.631 101.09ZM578.371 100.27C578.811 100.27 579.158 100.12 579.411 99.82C579.665 99.5133 579.791 99.0867 579.791 98.54C579.791 97.9867 579.661 97.5633 579.401 97.27C579.148 96.97 578.805 96.82 578.371 96.82C577.938 96.82 577.595 96.97 577.341 97.27C577.088 97.5633 576.961 97.9867 576.961 98.54C576.961 99.0867 577.088 99.5133 577.341 99.82C577.601 100.12 577.945 100.27 578.371 100.27ZM583.913 101.09C583.506 101.09 583.166 101.017 582.893 100.87C582.626 100.723 582.423 100.503 582.283 100.21C582.15 99.91 582.083 99.5367 582.083 99.09V96.08H583.133V99.07C583.133 99.3167 583.166 99.53 583.233 99.71C583.306 99.8833 583.42 100.013 583.573 100.1C583.733 100.187 583.93 100.23 584.163 100.23C584.423 100.23 584.65 100.17 584.843 100.05C585.043 99.93 585.2 99.7667 585.313 99.56C585.433 99.3467 585.493 99.1067 585.493 98.84V96.08H586.543V101H585.543V99.93H585.613C585.46 100.303 585.236 100.59 584.943 100.79C584.656 100.99 584.313 101.09 583.913 101.09ZM590.23 101.09C589.603 101.09 589.133 100.93 588.82 100.61C588.513 100.29 588.36 99.8267 588.36 99.22V96.91H587.4V96.08H588.39V94.62H589.42V96.08H591.04V96.91H589.42V99.15C589.42 99.5033 589.496 99.77 589.65 99.95C589.81 100.123 590.056 100.21 590.39 100.21C590.51 100.21 590.626 100.197 590.74 100.17C590.853 100.143 590.966 100.11 591.08 100.07L591.24 100.87C591.12 100.943 590.966 100.997 590.78 101.03C590.593 101.07 590.41 101.09 590.23 101.09ZM591.974 94.96V93.86H593.204V94.96H591.974ZM592.064 101V96.08H593.124V101H592.064ZM596.842 101.09C596.342 101.09 595.905 100.987 595.532 100.78C595.165 100.567 594.882 100.27 594.682 99.89C594.482 99.5033 594.382 99.0533 594.382 98.54C594.382 98.02 594.482 97.57 594.682 97.19C594.882 96.81 595.165 96.5167 595.532 96.31C595.905 96.0967 596.342 95.99 596.842 95.99C597.348 95.99 597.785 96.0967 598.152 96.31C598.518 96.5167 598.802 96.81 599.002 97.19C599.202 97.57 599.302 98.02 599.302 98.54C599.302 99.0533 599.202 99.5033 599.002 99.89C598.802 100.27 598.518 100.567 598.152 100.78C597.785 100.987 597.348 101.09 596.842 101.09ZM596.842 100.25C597.275 100.25 597.618 100.1 597.872 99.8C598.125 99.5 598.252 99.0767 598.252 98.53C598.252 97.9833 598.125 97.5633 597.872 97.27C597.618 96.9767 597.275 96.83 596.842 96.83C596.408 96.83 596.065 96.9767 595.812 97.27C595.558 97.5633 595.432 97.9833 595.432 98.53C595.432 99.0767 595.558 99.5 595.812 99.8C596.065 100.1 596.408 100.25 596.842 100.25ZM600.56 101V96.08H601.56V97.12H601.51C601.663 96.7533 601.897 96.4733 602.21 96.28C602.53 96.0867 602.89 95.99 603.29 95.99C603.69 95.99 604.02 96.0633 604.28 96.21C604.547 96.35 604.747 96.57 604.88 96.87C605.013 97.17 605.08 97.5433 605.08 97.99V101H604.02V98.05C604.02 97.7833 603.983 97.5633 603.91 97.39C603.843 97.21 603.733 97.0767 603.58 96.99C603.433 96.8967 603.24 96.85 603 96.85C602.727 96.85 602.483 96.91 602.27 97.03C602.063 97.15 601.903 97.3167 601.79 97.53C601.677 97.7367 601.62 97.9767 601.62 98.25V101H600.56Z" fill="#202124"/>
<circle cx="577" cy="63" r="12" fill="#FFEAAF"/>
<path d="M574.837 60.7558C575.457 60.7558 576.018 61.0071 576.423 61.413C576.756 61.7458 576.984 62.183 577.056 62.671H579.588C579.656 62.2835 579.843 61.9362 580.11 61.6699C580.45 61.3298 580.92 61.1193 581.439 61.1193C581.958 61.1193 582.429 61.3298 582.769 61.6699C583.109 62.0105 583.32 62.4806 583.32 62.9999C583.32 63.5192 583.109 63.9894 582.769 64.33C582.429 64.67 581.958 64.8806 581.439 64.8806C580.92 64.8806 580.45 64.67 580.11 64.33C579.843 64.0631 579.656 63.7163 579.588 63.3288H577.056C576.985 63.8168 576.756 64.2541 576.423 64.5868C576.017 64.9928 575.457 65.2441 574.837 65.2441C574.545 65.2441 574.267 65.1882 574.01 65.0866L573.09 66.6807C573.392 66.9337 573.599 67.2693 573.697 67.6344C573.822 68.099 573.769 68.611 573.509 69.0605L573.497 69.0795C573.236 69.5184 572.824 69.8144 572.367 69.9361C571.904 70.06 571.392 70.007 570.942 69.7479L570.94 69.7474L570.94 69.7479C570.49 69.4883 570.188 69.0712 570.064 68.6066C569.94 68.1431 569.993 67.6311 570.253 67.181L570.253 67.1799L570.253 67.1794C570.512 66.7299 570.929 66.4278 571.394 66.3038C571.758 66.2061 572.153 66.2178 572.522 66.3535L573.444 64.7582C573.376 64.7046 573.311 64.6466 573.25 64.5857C572.845 64.1798 572.593 63.6192 572.593 62.9999C572.593 62.3806 572.845 61.8195 573.25 61.414C573.312 61.3532 573.376 61.2951 573.444 61.2415L572.522 59.6462C572.152 59.7819 571.758 59.7936 571.394 59.6959C570.929 59.5714 570.512 59.2699 570.253 58.8204L570.242 58.8003C569.991 58.3553 569.942 57.8511 570.064 57.3937C570.189 56.9292 570.49 56.5121 570.94 56.2524L570.96 56.2418C571.405 55.9916 571.909 55.9414 572.367 56.0642C572.83 56.1888 573.247 56.4903 573.507 56.9403L573.508 56.9398C573.768 57.3898 573.821 57.9019 573.697 58.3659C573.599 58.7311 573.392 59.0666 573.09 59.3196L574.01 60.9137C574.266 60.8121 574.545 60.7563 574.837 60.7563L574.837 60.7558Z" fill="black"/>
<path d="M5 8C5 5.79086 6.79086 4 9 4H109V135H9C6.79086 135 5 133.209 5 131V8Z" fill="#FFFBF0"/>
<path d="M16.4859 99.09C15.7326 99.09 15.0926 98.9467 14.5659 98.66C14.0392 98.3733 13.6359 97.96 13.3559 97.42C13.0826 96.88 12.9459 96.2333 12.9459 95.48C12.9459 94.7267 13.0826 94.08 13.3559 93.54C13.6359 93 14.0359 92.5867 14.5559 92.3C15.0759 92.0067 15.6959 91.86 16.4159 91.86C16.7559 91.86 17.0792 91.8933 17.3859 91.96C17.6992 92.02 17.9859 92.1133 18.2459 92.24C18.5126 92.3667 18.7392 92.52 18.9259 92.7L18.5459 93.53C18.2326 93.27 17.9026 93.0833 17.5559 92.97C17.2159 92.8567 16.8359 92.8 16.4159 92.8C15.6559 92.8 15.0726 93.03 14.6659 93.49C14.2592 93.95 14.0559 94.6133 14.0559 95.48C14.0559 96.3667 14.2659 97.0367 14.6859 97.49C15.1059 97.9433 15.7226 98.17 16.5359 98.17C16.8626 98.17 17.1726 98.1433 17.4659 98.09C17.7659 98.03 18.0492 97.9467 18.3159 97.84L18.0559 98.38V96.06H16.3659V95.22H18.9859V98.59C18.7859 98.69 18.5459 98.7767 18.2659 98.85C17.9926 98.9233 17.7026 98.98 17.3959 99.02C17.0892 99.0667 16.7859 99.09 16.4859 99.09ZM22.9852 99.09C22.4319 99.09 21.9552 98.99 21.5552 98.79C21.1552 98.5833 20.8485 98.29 20.6352 97.91C20.4219 97.5233 20.3152 97.0667 20.3152 96.54C20.3152 96.04 20.4152 95.6 20.6152 95.22C20.8219 94.8333 21.1085 94.5333 21.4752 94.32C21.8485 94.1 22.2785 93.99 22.7652 93.99C23.2385 93.99 23.6419 94.09 23.9752 94.29C24.3085 94.49 24.5652 94.7767 24.7452 95.15C24.9252 95.5167 25.0152 95.9567 25.0152 96.47V96.81H21.1352V96.14H24.2952L24.1252 96.31C24.1252 95.8033 24.0085 95.4167 23.7752 95.15C23.5485 94.8833 23.2219 94.75 22.7952 94.75C22.4885 94.75 22.2252 94.82 22.0052 94.96C21.7852 95.0933 21.6152 95.2867 21.4952 95.54C21.3752 95.7867 21.3152 96.0833 21.3152 96.43V96.52C21.3152 96.9067 21.3785 97.23 21.5052 97.49C21.6385 97.75 21.8319 97.9433 22.0852 98.07C22.3385 98.1967 22.6452 98.26 23.0052 98.26C23.2785 98.26 23.5519 98.2233 23.8252 98.15C24.1052 98.07 24.3619 97.9333 24.5952 97.74L24.9252 98.47C24.6785 98.67 24.3785 98.8233 24.0252 98.93C23.6785 99.0367 23.3319 99.09 22.9852 99.09ZM26.2495 99V94.08H27.2495V95.12H27.1995C27.3528 94.7533 27.5862 94.4733 27.8995 94.28C28.2195 94.0867 28.5795 93.99 28.9795 93.99C29.3795 93.99 29.7095 94.0633 29.9695 94.21C30.2362 94.35 30.4362 94.57 30.5695 94.87C30.7028 95.17 30.7695 95.5433 30.7695 95.99V99H29.7095V96.05C29.7095 95.7833 29.6728 95.5633 29.5995 95.39C29.5328 95.21 29.4228 95.0767 29.2695 94.99C29.1228 94.8967 28.9295 94.85 28.6895 94.85C28.4162 94.85 28.1728 94.91 27.9595 95.03C27.7528 95.15 27.5928 95.3167 27.4795 95.53C27.3662 95.7367 27.3095 95.9767 27.3095 96.25V99H26.2495ZM34.6746 99.09C34.1213 99.09 33.6446 98.99 33.2446 98.79C32.8446 98.5833 32.538 98.29 32.3246 97.91C32.1113 97.5233 32.0046 97.0667 32.0046 96.54C32.0046 96.04 32.1046 95.6 32.3046 95.22C32.5113 94.8333 32.798 94.5333 33.1646 94.32C33.538 94.1 33.968 93.99 34.4546 93.99C34.928 93.99 35.3313 94.09 35.6646 94.29C35.998 94.49 36.2546 94.7767 36.4346 95.15C36.6146 95.5167 36.7046 95.9567 36.7046 96.47V96.81H32.8246V96.14H35.9846L35.8146 96.31C35.8146 95.8033 35.698 95.4167 35.4646 95.15C35.238 94.8833 34.9113 94.75 34.4846 94.75C34.178 94.75 33.9146 94.82 33.6946 94.96C33.4746 95.0933 33.3046 95.2867 33.1846 95.54C33.0646 95.7867 33.0046 96.0833 33.0046 96.43V96.52C33.0046 96.9067 33.068 97.23 33.1946 97.49C33.328 97.75 33.5213 97.9433 33.7746 98.07C34.028 98.1967 34.3346 98.26 34.6946 98.26C34.968 98.26 35.2413 98.2233 35.5146 98.15C35.7946 98.07 36.0513 97.9333 36.2846 97.74L36.6146 98.47C36.368 98.67 36.068 98.8233 35.7146 98.93C35.368 99.0367 35.0213 99.09 34.6746 99.09ZM37.9389 99V94.08H38.9289V95.25H38.8789C38.9923 94.87 39.1889 94.5733 39.4689 94.36C39.7556 94.1467 40.1223 94.0233 40.5689 93.99L40.9789 93.97L41.0589 94.89L40.3589 94.96C39.9256 95 39.5923 95.14 39.3589 95.38C39.1256 95.62 39.0089 95.9367 39.0089 96.33V99H37.9389ZM43.5533 99.09C43.2067 99.09 42.8933 99.0233 42.6133 98.89C42.3333 98.7567 42.1133 98.5767 41.9533 98.35C41.8 98.1167 41.7233 97.8567 41.7233 97.57C41.7233 97.2033 41.82 96.9133 42.0133 96.7C42.2133 96.4867 42.53 96.3333 42.9633 96.24C43.3967 96.14 43.97 96.09 44.6833 96.09H45.2633V96.75H44.7133C44.3533 96.75 44.05 96.7633 43.8033 96.79C43.5567 96.81 43.3567 96.85 43.2033 96.91C43.05 96.97 42.9367 97.05 42.8633 97.15C42.7967 97.2433 42.7633 97.3633 42.7633 97.51C42.7633 97.7633 42.8533 97.9633 43.0333 98.11C43.22 98.25 43.4633 98.32 43.7633 98.32C44.0233 98.32 44.2533 98.2633 44.4533 98.15C44.6533 98.03 44.8133 97.87 44.9333 97.67C45.0533 97.4633 45.1133 97.2333 45.1133 96.98V95.85C45.1133 95.4767 45.02 95.21 44.8333 95.05C44.6533 94.89 44.37 94.81 43.9833 94.81C43.6967 94.81 43.41 94.85 43.1233 94.93C42.8433 95.01 42.55 95.14 42.2433 95.32L41.9233 94.58C42.1167 94.4533 42.33 94.3467 42.5633 94.26C42.8033 94.1733 43.05 94.1067 43.3033 94.06C43.5633 94.0133 43.8167 93.99 44.0633 93.99C44.51 93.99 44.8867 94.06 45.1933 94.2C45.5 94.34 45.7333 94.5533 45.8933 94.84C46.0533 95.1267 46.1333 95.5 46.1333 95.96V99H45.1833V97.93H45.2233C45.15 98.1567 45.0367 98.36 44.8833 98.54C44.73 98.7133 44.54 98.85 44.3133 98.95C44.0933 99.0433 43.84 99.09 43.5533 99.09ZM49.8057 99.09C49.1791 99.09 48.7091 98.93 48.3957 98.61C48.0891 98.29 47.9357 97.8267 47.9357 97.22V94.91H46.9757V94.08H47.9657V92.62H48.9957V94.08H50.6157V94.91H48.9957V97.15C48.9957 97.5033 49.0724 97.77 49.2257 97.95C49.3857 98.1233 49.6324 98.21 49.9657 98.21C50.0857 98.21 50.2024 98.1967 50.3157 98.17C50.4291 98.1433 50.5424 98.11 50.6557 98.07L50.8157 98.87C50.6957 98.9433 50.5424 98.9967 50.3557 99.03C50.1691 99.07 49.9857 99.09 49.8057 99.09ZM53.9813 99.09C53.428 99.09 52.9513 98.99 52.5513 98.79C52.1513 98.5833 51.8446 98.29 51.6313 97.91C51.418 97.5233 51.3113 97.0667 51.3113 96.54C51.3113 96.04 51.4113 95.6 51.6113 95.22C51.818 94.8333 52.1046 94.5333 52.4713 94.32C52.8446 94.1 53.2746 93.99 53.7613 93.99C54.2346 93.99 54.638 94.09 54.9713 94.29C55.3046 94.49 55.5613 94.7767 55.7413 95.15C55.9213 95.5167 56.0113 95.9567 56.0113 96.47V96.81H52.1313V96.14H55.2913L55.1213 96.31C55.1213 95.8033 55.0046 95.4167 54.7713 95.15C54.5446 94.8833 54.218 94.75 53.7913 94.75C53.4846 94.75 53.2213 94.82 53.0013 94.96C52.7813 95.0933 52.6113 95.2867 52.4913 95.54C52.3713 95.7867 52.3113 96.0833 52.3113 96.43V96.52C52.3113 96.9067 52.3746 97.23 52.5013 97.49C52.6346 97.75 52.828 97.9433 53.0813 98.07C53.3346 98.1967 53.6413 98.26 54.0013 98.26C54.2746 98.26 54.548 98.2233 54.8213 98.15C55.1013 98.07 55.358 97.9333 55.5913 97.74L55.9213 98.47C55.6746 98.67 55.3746 98.8233 55.0213 98.93C54.6746 99.0367 54.328 99.09 53.9813 99.09ZM60.1297 99V91.95H63.0897C63.8631 91.95 64.4564 92.13 64.8697 92.49C65.2897 92.8433 65.4997 93.3533 65.4997 94.02C65.4997 94.42 65.4131 94.7667 65.2397 95.06C65.0731 95.3467 64.8331 95.5733 64.5197 95.74C64.2064 95.9 63.8331 95.99 63.3997 96.01L63.4597 95.94L63.6497 95.95C63.8697 95.9633 64.0597 96.0333 64.2197 96.16C64.3864 96.28 64.5431 96.47 64.6897 96.73L65.8997 99H64.7297L63.5397 96.78C63.4464 96.6067 63.3431 96.4733 63.2297 96.38C63.1231 96.2867 62.9964 96.2233 62.8497 96.19C62.7097 96.15 62.5431 96.13 62.3497 96.13H61.1897V99H60.1297ZM61.1897 95.29H62.9597C63.4597 95.29 63.8297 95.1867 64.0697 94.98C64.3164 94.7733 64.4397 94.4633 64.4397 94.05C64.4397 93.6367 64.3164 93.33 64.0697 93.13C63.8231 92.9233 63.4464 92.82 62.9397 92.82H61.1897V95.29ZM69.2645 99.09C68.7112 99.09 68.2345 98.99 67.8345 98.79C67.4345 98.5833 67.1278 98.29 66.9145 97.91C66.7012 97.5233 66.5945 97.0667 66.5945 96.54C66.5945 96.04 66.6945 95.6 66.8945 95.22C67.1012 94.8333 67.3878 94.5333 67.7545 94.32C68.1278 94.1 68.5578 93.99 69.0445 93.99C69.5178 93.99 69.9212 94.09 70.2545 94.29C70.5878 94.49 70.8445 94.7767 71.0245 95.15C71.2045 95.5167 71.2945 95.9567 71.2945 96.47V96.81H67.4145V96.14H70.5745L70.4045 96.31C70.4045 95.8033 70.2878 95.4167 70.0545 95.15C69.8278 94.8833 69.5012 94.75 69.0745 94.75C68.7678 94.75 68.5045 94.82 68.2845 94.96C68.0645 95.0933 67.8945 95.2867 67.7745 95.54C67.6545 95.7867 67.5945 96.0833 67.5945 96.43V96.52C67.5945 96.9067 67.6578 97.23 67.7845 97.49C67.9178 97.75 68.1112 97.9433 68.3645 98.07C68.6178 98.1967 68.9245 98.26 69.2845 98.26C69.5578 98.26 69.8312 98.2233 70.1045 98.15C70.3845 98.07 70.6412 97.9333 70.8745 97.74L71.2045 98.47C70.9578 98.67 70.6578 98.8233 70.3045 98.93C69.9578 99.0367 69.6112 99.09 69.2645 99.09ZM72.829 99V94.89H71.849V94.08H73.119L72.829 94.36V94.03C72.829 93.3567 73.0057 92.85 73.359 92.51C73.719 92.1633 74.2624 91.97 74.989 91.93L75.489 91.9L75.559 92.72L75.009 92.75C74.7624 92.7633 74.5524 92.81 74.379 92.89C74.2124 92.97 74.0857 93.09 73.999 93.25C73.919 93.41 73.879 93.62 73.879 93.88V94.21L73.729 94.08H75.319V94.89H73.879V99H72.829ZM78.5125 99.09C77.9592 99.09 77.4825 98.99 77.0825 98.79C76.6825 98.5833 76.3759 98.29 76.1625 97.91C75.9492 97.5233 75.8425 97.0667 75.8425 96.54C75.8425 96.04 75.9425 95.6 76.1425 95.22C76.3492 94.8333 76.6359 94.5333 77.0025 94.32C77.3759 94.1 77.8059 93.99 78.2925 93.99C78.7659 93.99 79.1692 94.09 79.5025 94.29C79.8359 94.49 80.0925 94.7767 80.2725 95.15C80.4525 95.5167 80.5425 95.9567 80.5425 96.47V96.81H76.6625V96.14H79.8225L79.6525 96.31C79.6525 95.8033 79.5359 95.4167 79.3025 95.15C79.0759 94.8833 78.7492 94.75 78.3225 94.75C78.0159 94.75 77.7525 94.82 77.5325 94.96C77.3125 95.0933 77.1425 95.2867 77.0225 95.54C76.9025 95.7867 76.8425 96.0833 76.8425 96.43V96.52C76.8425 96.9067 76.9059 97.23 77.0325 97.49C77.1659 97.75 77.3592 97.9433 77.6125 98.07C77.8659 98.1967 78.1725 98.26 78.5325 98.26C78.8059 98.26 79.0792 98.2233 79.3525 98.15C79.6325 98.07 79.8892 97.9333 80.1225 97.74L80.4525 98.47C80.2059 98.67 79.9059 98.8233 79.5525 98.93C79.2059 99.0367 78.8592 99.09 78.5125 99.09ZM81.7768 99V94.08H82.7668V95.25H82.7168C82.8302 94.87 83.0268 94.5733 83.3068 94.36C83.5935 94.1467 83.9602 94.0233 84.4068 93.99L84.8168 93.97L84.8968 94.89L84.1968 94.96C83.7635 95 83.4302 95.14 83.1968 95.38C82.9635 95.62 82.8468 95.9367 82.8468 96.33V99H81.7768ZM85.81 99V94.08H86.8V95.25H86.75C86.8634 94.87 87.06 94.5733 87.34 94.36C87.6267 94.1467 87.9934 94.0233 88.44 93.99L88.85 93.97L88.93 94.89L88.23 94.96C87.7967 95 87.4634 95.14 87.23 95.38C86.9967 95.62 86.88 95.9367 86.88 96.33V99H85.81ZM91.4244 99.09C91.0777 99.09 90.7644 99.0233 90.4844 98.89C90.2044 98.7567 89.9844 98.5767 89.8244 98.35C89.6711 98.1167 89.5944 97.8567 89.5944 97.57C89.5944 97.2033 89.6911 96.9133 89.8844 96.7C90.0844 96.4867 90.4011 96.3333 90.8344 96.24C91.2677 96.14 91.8411 96.09 92.5544 96.09H93.1344V96.75H92.5844C92.2244 96.75 91.9211 96.7633 91.6744 96.79C91.4277 96.81 91.2277 96.85 91.0744 96.91C90.9211 96.97 90.8077 97.05 90.7344 97.15C90.6677 97.2433 90.6344 97.3633 90.6344 97.51C90.6344 97.7633 90.7244 97.9633 90.9044 98.11C91.0911 98.25 91.3344 98.32 91.6344 98.32C91.8944 98.32 92.1244 98.2633 92.3244 98.15C92.5244 98.03 92.6844 97.87 92.8044 97.67C92.9244 97.4633 92.9844 97.2333 92.9844 96.98V95.85C92.9844 95.4767 92.8911 95.21 92.7044 95.05C92.5244 94.89 92.2411 94.81 91.8544 94.81C91.5677 94.81 91.2811 94.85 90.9944 94.93C90.7144 95.01 90.4211 95.14 90.1144 95.32L89.7944 94.58C89.9877 94.4533 90.2011 94.3467 90.4344 94.26C90.6744 94.1733 90.9211 94.1067 91.1744 94.06C91.4344 94.0133 91.6877 93.99 91.9344 93.99C92.3811 93.99 92.7577 94.06 93.0644 94.2C93.3711 94.34 93.6044 94.5533 93.7644 94.84C93.9244 95.1267 94.0044 95.5 94.0044 95.96V99H93.0544V97.93H93.0944C93.0211 98.1567 92.9077 98.36 92.7544 98.54C92.6011 98.7133 92.4111 98.85 92.1844 98.95C91.9644 99.0433 91.7111 99.09 91.4244 99.09ZM97.1268 99.09C96.6002 99.09 96.2002 98.9433 95.9268 98.65C95.6602 98.35 95.5268 97.9233 95.5268 97.37V91.95H96.5868V97.29C96.5868 97.49 96.6135 97.6633 96.6668 97.81C96.7268 97.95 96.8135 98.0567 96.9268 98.13C97.0402 98.1967 97.1802 98.23 97.3468 98.23C97.4335 98.23 97.5168 98.2267 97.5968 98.22C97.6768 98.2067 97.7602 98.19 97.8468 98.17L97.8568 98.99C97.7368 99.0233 97.6168 99.0467 97.4968 99.06C97.3835 99.08 97.2602 99.09 97.1268 99.09ZM33.8553 113V105.95H34.9153V112.08H38.4053V113H33.8553ZM39.3382 106.96V105.86H40.5682V106.96H39.3382ZM39.4282 113V108.08H40.4882V113H39.4282ZM42.0259 113V108.08H43.0259V109.12H42.9759C43.1292 108.753 43.3625 108.473 43.6759 108.28C43.9959 108.087 44.3559 107.99 44.7559 107.99C45.1559 107.99 45.4859 108.063 45.7459 108.21C46.0125 108.35 46.2125 108.57 46.3459 108.87C46.4792 109.17 46.5459 109.543 46.5459 109.99V113H45.4859V110.05C45.4859 109.783 45.4492 109.563 45.3759 109.39C45.3092 109.21 45.1992 109.077 45.0459 108.99C44.8992 108.897 44.7059 108.85 44.4659 108.85C44.1925 108.85 43.9492 108.91 43.7359 109.03C43.5292 109.15 43.3692 109.317 43.2559 109.53C43.1425 109.737 43.0859 109.977 43.0859 110.25V113H42.0259ZM48.061 113V105.95H49.121V110.23H49.151L51.241 108.08H52.531L49.971 110.68L49.981 110.23L52.731 113H51.421L49.151 110.76H49.121V113H48.061ZM53.4679 113.66L52.6579 113.44L55.2279 105.45L56.0379 105.68L53.4679 113.66ZM59.7978 113.1C59.0978 113.1 58.4945 112.953 57.9878 112.66C57.4811 112.367 57.0911 111.95 56.8178 111.41C56.5445 110.863 56.4078 110.217 56.4078 109.47C56.4078 108.723 56.5445 108.08 56.8178 107.54C57.0911 107 57.4811 106.587 57.9878 106.3C58.4945 106.007 59.0978 105.86 59.7978 105.86C60.2845 105.86 60.7345 105.933 61.1478 106.08C61.5611 106.227 61.9078 106.44 62.1878 106.72L61.8178 107.56C61.5111 107.3 61.1978 107.11 60.8778 106.99C60.5578 106.87 60.2078 106.81 59.8278 106.81C59.0945 106.81 58.5278 107.04 58.1278 107.5C57.7278 107.953 57.5278 108.61 57.5278 109.47C57.5278 110.33 57.7278 110.99 58.1278 111.45C58.5278 111.91 59.0945 112.14 59.8278 112.14C60.2078 112.14 60.5578 112.08 60.8778 111.96C61.1978 111.84 61.5111 111.65 61.8178 111.39L62.1878 112.23C61.9078 112.51 61.5611 112.727 61.1478 112.88C60.7345 113.027 60.2845 113.1 59.7978 113.1ZM65.2703 113.09C64.7703 113.09 64.3336 112.987 63.9603 112.78C63.5936 112.567 63.3103 112.27 63.1103 111.89C62.9103 111.503 62.8103 111.053 62.8103 110.54C62.8103 110.02 62.9103 109.57 63.1103 109.19C63.3103 108.81 63.5936 108.517 63.9603 108.31C64.3336 108.097 64.7703 107.99 65.2703 107.99C65.777 107.99 66.2136 108.097 66.5803 108.31C66.947 108.517 67.2303 108.81 67.4303 109.19C67.6303 109.57 67.7303 110.02 67.7303 110.54C67.7303 111.053 67.6303 111.503 67.4303 111.89C67.2303 112.27 66.947 112.567 66.5803 112.78C66.2136 112.987 65.777 113.09 65.2703 113.09ZM65.2703 112.25C65.7036 112.25 66.047 112.1 66.3003 111.8C66.5536 111.5 66.6803 111.077 66.6803 110.53C66.6803 109.983 66.5536 109.563 66.3003 109.27C66.047 108.977 65.7036 108.83 65.2703 108.83C64.837 108.83 64.4936 108.977 64.2403 109.27C63.987 109.563 63.8603 109.983 63.8603 110.53C63.8603 111.077 63.987 111.5 64.2403 111.8C64.4936 112.1 64.837 112.25 65.2703 112.25ZM70.9188 113.09C70.4721 113.09 70.0821 112.987 69.7488 112.78C69.4221 112.567 69.1654 112.27 68.9788 111.89C68.7988 111.503 68.7088 111.053 68.7088 110.54C68.7088 110.02 68.7988 109.57 68.9788 109.19C69.1588 108.81 69.4154 108.517 69.7488 108.31C70.0821 108.097 70.4688 107.99 70.9088 107.99C71.3288 107.99 71.6888 108.09 71.9888 108.29C72.2954 108.49 72.5088 108.76 72.6288 109.1H72.5788V105.95H73.6288V113H72.6388V111.92H72.6788C72.5521 112.287 72.3321 112.573 72.0188 112.78C71.7121 112.987 71.3454 113.09 70.9188 113.09ZM71.1788 112.27C71.6121 112.27 71.9554 112.12 72.2088 111.82C72.4621 111.513 72.5888 111.087 72.5888 110.54C72.5888 109.987 72.4621 109.563 72.2088 109.27C71.9554 108.97 71.6121 108.82 71.1788 108.82C70.7454 108.82 70.3988 108.97 70.1388 109.27C69.8854 109.563 69.7588 109.987 69.7588 110.54C69.7588 111.087 69.8854 111.513 70.1388 111.82C70.3988 112.12 70.7454 112.27 71.1788 112.27ZM77.5604 113.09C77.0071 113.09 76.5304 112.99 76.1304 112.79C75.7304 112.583 75.4237 112.29 75.2104 111.91C74.9971 111.523 74.8904 111.067 74.8904 110.54C74.8904 110.04 74.9904 109.6 75.1904 109.22C75.3971 108.833 75.6837 108.533 76.0504 108.32C76.4237 108.1 76.8537 107.99 77.3404 107.99C77.8137 107.99 78.2171 108.09 78.5504 108.29C78.8837 108.49 79.1404 108.777 79.3204 109.15C79.5004 109.517 79.5904 109.957 79.5904 110.47V110.81H75.7104V110.14H78.8704L78.7004 110.31C78.7004 109.803 78.5837 109.417 78.3504 109.15C78.1237 108.883 77.7971 108.75 77.3704 108.75C77.0637 108.75 76.8004 108.82 76.5804 108.96C76.3604 109.093 76.1904 109.287 76.0704 109.54C75.9504 109.787 75.8904 110.083 75.8904 110.43V110.52C75.8904 110.907 75.9537 111.23 76.0804 111.49C76.2137 111.75 76.4071 111.943 76.6604 112.07C76.9137 112.197 77.2204 112.26 77.5804 112.26C77.8537 112.26 78.1271 112.223 78.4004 112.15C78.6804 112.07 78.9371 111.933 79.1704 111.74L79.5004 112.47C79.2537 112.67 78.9537 112.823 78.6004 112.93C78.2537 113.037 77.9071 113.09 77.5604 113.09Z" fill="#202124"/>
<circle cx="56" cy="70" r="12" fill="#FFEAAF"/>
<path d="M59.5014 63H52.5C50.5701 63 49 64.5701 49 66.4993V73.5014C49 75.4306 50.5701 77 52.5 77H59.5014C61.4306 77 63 75.4306 63 73.5014V66.4993C63 64.5701 61.4306 63 59.5014 63ZM54.8275 71.4665C55.1166 71.7234 55.1425 72.1665 54.8856 72.4549C54.747 72.6103 54.5552 72.6894 54.362 72.6894C54.1968 72.6894 54.0302 72.6313 53.8972 72.513L51.6593 70.5236C51.5095 70.3906 51.4241 70.2002 51.4241 70C51.4241 69.7998 51.5095 69.6094 51.6593 69.4764L53.8972 67.4877C54.1863 67.2308 54.628 67.2567 54.8856 67.5458C55.1425 67.8349 55.1166 68.2773 54.8275 68.5342L53.1783 70L54.8275 71.4665ZM60.3407 70.5222L58.1028 72.5116C57.9698 72.6299 57.8032 72.688 57.638 72.688C57.4448 72.688 57.253 72.6089 57.1144 72.4535C56.8575 72.1644 56.8834 71.722 57.1725 71.4651L58.8217 69.9986L57.1725 68.5328C56.8834 68.2759 56.8575 67.8335 57.1144 67.5444C57.3713 67.2546 57.8137 67.2287 58.1028 67.4863L60.3407 69.475C60.4905 69.608 60.5759 69.7984 60.5759 69.9986C60.5759 70.1988 60.4905 70.3892 60.3407 70.5222Z" fill="black"/>
<rect x="265" y="4" width="104" height="131" fill="#FFFBF0"/>
<path d="M270.329 25V17.95H273.289C274.062 17.95 274.656 18.13 275.069 18.49C275.489 18.8433 275.699 19.3533 275.699 20.02C275.699 20.42 275.612 20.7667 275.439 21.06C275.272 21.3467 275.032 21.5733 274.719 21.74C274.406 21.9 274.032 21.99 273.599 22.01L273.659 21.94L273.849 21.95C274.069 21.9633 274.259 22.0333 274.419 22.16C274.586 22.28 274.742 22.47 274.889 22.73L276.099 25H274.929L273.739 22.78C273.646 22.6067 273.542 22.4733 273.429 22.38C273.322 22.2867 273.196 22.2233 273.049 22.19C272.909 22.15 272.742 22.13 272.549 22.13H271.389V25H270.329ZM271.389 21.29H273.159C273.659 21.29 274.029 21.1867 274.269 20.98C274.516 20.7733 274.639 20.4633 274.639 20.05C274.639 19.6367 274.516 19.33 274.269 19.13C274.022 18.9233 273.646 18.82 273.139 18.82H271.389V21.29ZM279.464 25.09C278.91 25.09 278.434 24.99 278.034 24.79C277.634 24.5833 277.327 24.29 277.114 23.91C276.9 23.5233 276.794 23.0667 276.794 22.54C276.794 22.04 276.894 21.6 277.094 21.22C277.3 20.8333 277.587 20.5333 277.954 20.32C278.327 20.1 278.757 19.99 279.244 19.99C279.717 19.99 280.12 20.09 280.454 20.29C280.787 20.49 281.044 20.7767 281.224 21.15C281.404 21.5167 281.494 21.9567 281.494 22.47V22.81H277.614V22.14H280.774L280.604 22.31C280.604 21.8033 280.487 21.4167 280.254 21.15C280.027 20.8833 279.7 20.75 279.274 20.75C278.967 20.75 278.704 20.82 278.484 20.96C278.264 21.0933 278.094 21.2867 277.974 21.54C277.854 21.7867 277.794 22.0833 277.794 22.43V22.52C277.794 22.9067 277.857 23.23 277.984 23.49C278.117 23.75 278.31 23.9433 278.564 24.07C278.817 24.1967 279.124 24.26 279.484 24.26C279.757 24.26 280.03 24.2233 280.304 24.15C280.584 24.07 280.84 23.9333 281.074 23.74L281.404 24.47C281.157 24.67 280.857 24.8233 280.504 24.93C280.157 25.0367 279.81 25.09 279.464 25.09ZM283.028 25V20.89H282.048V20.08H283.318L283.028 20.36V20.03C283.028 19.3567 283.205 18.85 283.558 18.51C283.918 18.1633 284.462 17.97 285.188 17.93L285.688 17.9L285.758 18.72L285.208 18.75C284.962 18.7633 284.752 18.81 284.578 18.89C284.412 18.97 284.285 19.09 284.198 19.25C284.118 19.41 284.078 19.62 284.078 19.88V20.21L283.928 20.08H285.518V20.89H284.078V25H283.028ZM288.712 25.09C288.158 25.09 287.682 24.99 287.282 24.79C286.882 24.5833 286.575 24.29 286.362 23.91C286.148 23.5233 286.042 23.0667 286.042 22.54C286.042 22.04 286.142 21.6 286.342 21.22C286.548 20.8333 286.835 20.5333 287.202 20.32C287.575 20.1 288.005 19.99 288.492 19.99C288.965 19.99 289.368 20.09 289.702 20.29C290.035 20.49 290.292 20.7767 290.472 21.15C290.652 21.5167 290.742 21.9567 290.742 22.47V22.81H286.862V22.14H290.022L289.852 22.31C289.852 21.8033 289.735 21.4167 289.502 21.15C289.275 20.8833 288.948 20.75 288.522 20.75C288.215 20.75 287.952 20.82 287.732 20.96C287.512 21.0933 287.342 21.2867 287.222 21.54C287.102 21.7867 287.042 22.0833 287.042 22.43V22.52C287.042 22.9067 287.105 23.23 287.232 23.49C287.365 23.75 287.558 23.9433 287.812 24.07C288.065 24.1967 288.372 24.26 288.732 24.26C289.005 24.26 289.278 24.2233 289.552 24.15C289.832 24.07 290.088 23.9333 290.322 23.74L290.652 24.47C290.405 24.67 290.105 24.8233 289.752 24.93C289.405 25.0367 289.058 25.09 288.712 25.09ZM291.976 25V20.08H292.966V21.25H292.916C293.029 20.87 293.226 20.5733 293.506 20.36C293.793 20.1467 294.159 20.0233 294.606 19.99L295.016 19.97L295.096 20.89L294.396 20.96C293.963 21 293.629 21.14 293.396 21.38C293.163 21.62 293.046 21.9367 293.046 22.33V25H291.976ZM296.009 25V20.08H296.999V21.25H296.949C297.063 20.87 297.259 20.5733 297.539 20.36C297.826 20.1467 298.193 20.0233 298.639 19.99L299.049 19.97L299.129 20.89L298.429 20.96C297.996 21 297.663 21.14 297.429 21.38C297.196 21.62 297.079 21.9367 297.079 22.33V25H296.009ZM302.364 25.09C301.811 25.09 301.334 24.99 300.934 24.79C300.534 24.5833 300.227 24.29 300.014 23.91C299.801 23.5233 299.694 23.0667 299.694 22.54C299.694 22.04 299.794 21.6 299.994 21.22C300.201 20.8333 300.487 20.5333 300.854 20.32C301.227 20.1 301.657 19.99 302.144 19.99C302.617 19.99 303.021 20.09 303.354 20.29C303.687 20.49 303.944 20.7767 304.124 21.15C304.304 21.5167 304.394 21.9567 304.394 22.47V22.81H300.514V22.14H303.674L303.504 22.31C303.504 21.8033 303.387 21.4167 303.154 21.15C302.927 20.8833 302.601 20.75 302.174 20.75C301.867 20.75 301.604 20.82 301.384 20.96C301.164 21.0933 300.994 21.2867 300.874 21.54C300.754 21.7867 300.694 22.0833 300.694 22.43V22.52C300.694 22.9067 300.757 23.23 300.884 23.49C301.017 23.75 301.211 23.9433 301.464 24.07C301.717 24.1967 302.024 24.26 302.384 24.26C302.657 24.26 302.931 24.2233 303.204 24.15C303.484 24.07 303.741 23.9333 303.974 23.74L304.304 24.47C304.057 24.67 303.757 24.8233 303.404 24.93C303.057 25.0367 302.711 25.09 302.364 25.09ZM305.628 25V20.08H306.618V21.25H306.568C306.682 20.87 306.878 20.5733 307.158 20.36C307.445 20.1467 307.812 20.0233 308.258 19.99L308.668 19.97L308.748 20.89L308.048 20.96C307.615 21 307.282 21.14 307.048 21.38C306.815 21.62 306.698 21.9367 306.698 22.33V25H305.628ZM314.686 25L311.596 17.95H312.746L315.286 23.92H315.056L317.586 17.95H318.696L315.606 25H314.686ZM321.222 25.09C320.668 25.09 320.192 24.99 319.792 24.79C319.392 24.5833 319.085 24.29 318.872 23.91C318.658 23.5233 318.552 23.0667 318.552 22.54C318.552 22.04 318.652 21.6 318.852 21.22C319.058 20.8333 319.345 20.5333 319.712 20.32C320.085 20.1 320.515 19.99 321.002 19.99C321.475 19.99 321.878 20.09 322.212 20.29C322.545 20.49 322.802 20.7767 322.982 21.15C323.162 21.5167 323.252 21.9567 323.252 22.47V22.81H319.372V22.14H322.532L322.362 22.31C322.362 21.8033 322.245 21.4167 322.012 21.15C321.785 20.8833 321.458 20.75 321.032 20.75C320.725 20.75 320.462 20.82 320.242 20.96C320.022 21.0933 319.852 21.2867 319.732 21.54C319.612 21.7867 319.552 22.0833 319.552 22.43V22.52C319.552 22.9067 319.615 23.23 319.742 23.49C319.875 23.75 320.068 23.9433 320.322 24.07C320.575 24.1967 320.882 24.26 321.242 24.26C321.515 24.26 321.788 24.2233 322.062 24.15C322.342 24.07 322.598 23.9333 322.832 23.74L323.162 24.47C322.915 24.67 322.615 24.8233 322.262 24.93C321.915 25.0367 321.568 25.09 321.222 25.09ZM324.486 25V20.08H325.476V21.25H325.426C325.539 20.87 325.736 20.5733 326.016 20.36C326.302 20.1467 326.669 20.0233 327.116 19.99L327.526 19.97L327.606 20.89L326.906 20.96C326.472 21 326.139 21.14 325.906 21.38C325.672 21.62 325.556 21.9367 325.556 22.33V25H324.486ZM328.429 18.96V17.86H329.659V18.96H328.429ZM328.519 25V20.08H329.579V25H328.519ZM331.427 25V20.89H330.447V20.08H331.707L331.427 20.35V20.01C331.427 19.35 331.603 18.85 331.957 18.51C332.317 18.1633 332.857 17.97 333.577 17.93L333.997 17.9L334.057 18.73L333.607 18.75C333.353 18.7633 333.143 18.8133 332.977 18.9C332.81 18.98 332.683 19.1 332.597 19.26C332.517 19.42 332.477 19.6267 332.477 19.88V20.21L332.397 20.08H335.727V25H334.667V20.89H332.477V25H331.427ZM334.597 18.95V17.88H335.787V18.95H334.597ZM339.469 25.09C338.956 25.09 338.513 24.9867 338.139 24.78C337.766 24.5667 337.476 24.2667 337.269 23.88C337.069 23.4933 336.969 23.04 336.969 22.52C336.969 22 337.069 21.55 337.269 21.17C337.476 20.79 337.766 20.5 338.139 20.3C338.519 20.0933 338.963 19.99 339.469 19.99C339.796 19.99 340.113 20.0433 340.419 20.15C340.726 20.2567 340.979 20.4033 341.179 20.59L340.849 21.35C340.663 21.1833 340.453 21.06 340.219 20.98C339.993 20.8933 339.773 20.85 339.559 20.85C339.079 20.85 338.706 20.9967 338.439 21.29C338.173 21.5767 338.039 21.99 338.039 22.53C338.039 23.07 338.173 23.49 338.439 23.79C338.706 24.0833 339.079 24.23 339.559 24.23C339.773 24.23 339.993 24.19 340.219 24.11C340.446 24.0233 340.649 23.8967 340.829 23.73L341.169 24.5C340.976 24.68 340.723 24.8233 340.409 24.93C340.103 25.0367 339.789 25.09 339.469 25.09ZM343.733 25.09C343.386 25.09 343.073 25.0233 342.793 24.89C342.513 24.7567 342.293 24.5767 342.133 24.35C341.98 24.1167 341.903 23.8567 341.903 23.57C341.903 23.2033 342 22.9133 342.193 22.7C342.393 22.4867 342.71 22.3333 343.143 22.24C343.576 22.14 344.15 22.09 344.863 22.09H345.443V22.75H344.893C344.533 22.75 344.23 22.7633 343.983 22.79C343.736 22.81 343.536 22.85 343.383 22.91C343.23 22.97 343.116 23.05 343.043 23.15C342.976 23.2433 342.943 23.3633 342.943 23.51C342.943 23.7633 343.033 23.9633 343.213 24.11C343.4 24.25 343.643 24.32 343.943 24.32C344.203 24.32 344.433 24.2633 344.633 24.15C344.833 24.03 344.993 23.87 345.113 23.67C345.233 23.4633 345.293 23.2333 345.293 22.98V21.85C345.293 21.4767 345.2 21.21 345.013 21.05C344.833 20.89 344.55 20.81 344.163 20.81C343.876 20.81 343.59 20.85 343.303 20.93C343.023 21.01 342.73 21.14 342.423 21.32L342.103 20.58C342.296 20.4533 342.51 20.3467 342.743 20.26C342.983 20.1733 343.23 20.1067 343.483 20.06C343.743 20.0133 343.996 19.99 344.243 19.99C344.69 19.99 345.066 20.06 345.373 20.2C345.68 20.34 345.913 20.5533 346.073 20.84C346.233 21.1267 346.313 21.5 346.313 21.96V25H345.363V23.93H345.403C345.33 24.1567 345.216 24.36 345.063 24.54C344.91 24.7133 344.72 24.85 344.493 24.95C344.273 25.0433 344.02 25.09 343.733 25.09ZM349.985 25.09C349.359 25.09 348.889 24.93 348.575 24.61C348.269 24.29 348.115 23.8267 348.115 23.22V20.91H347.155V20.08H348.145V18.62H349.175V20.08H350.795V20.91H349.175V23.15C349.175 23.5033 349.252 23.77 349.405 23.95C349.565 24.1233 349.812 24.21 350.145 24.21C350.265 24.21 350.382 24.1967 350.495 24.17C350.609 24.1433 350.722 24.11 350.835 24.07L350.995 24.87C350.875 24.9433 350.722 24.9967 350.535 25.03C350.349 25.07 350.165 25.09 349.985 25.09ZM351.73 18.96V17.86H352.96V18.96H351.73ZM351.82 25V20.08H352.88V25H351.82ZM356.597 25.09C356.097 25.09 355.661 24.9867 355.287 24.78C354.921 24.5667 354.637 24.27 354.437 23.89C354.237 23.5033 354.137 23.0533 354.137 22.54C354.137 22.02 354.237 21.57 354.437 21.19C354.637 20.81 354.921 20.5167 355.287 20.31C355.661 20.0967 356.097 19.99 356.597 19.99C357.104 19.99 357.541 20.0967 357.907 20.31C358.274 20.5167 358.557 20.81 358.757 21.19C358.957 21.57 359.057 22.02 359.057 22.54C359.057 23.0533 358.957 23.5033 358.757 23.89C358.557 24.27 358.274 24.5667 357.907 24.78C357.541 24.9867 357.104 25.09 356.597 25.09ZM356.597 24.25C357.031 24.25 357.374 24.1 357.627 23.8C357.881 23.5 358.007 23.0767 358.007 22.53C358.007 21.9833 357.881 21.5633 357.627 21.27C357.374 20.9767 357.031 20.83 356.597 20.83C356.164 20.83 355.821 20.9767 355.567 21.27C355.314 21.5633 355.187 21.9833 355.187 22.53C355.187 23.0767 355.314 23.5 355.567 23.8C355.821 24.1 356.164 24.25 356.597 24.25ZM360.316 25V20.08H361.316V21.12H361.266C361.419 20.7533 361.653 20.4733 361.966 20.28C362.286 20.0867 362.646 19.99 363.046 19.99C363.446 19.99 363.776 20.0633 364.036 20.21C364.303 20.35 364.503 20.57 364.636 20.87C364.769 21.17 364.836 21.5433 364.836 21.99V25H363.776V22.05C363.776 21.7833 363.739 21.5633 363.666 21.39C363.599 21.21 363.489 21.0767 363.336 20.99C363.189 20.8967 362.996 20.85 362.756 20.85C362.483 20.85 362.239 20.91 362.026 21.03C361.819 21.15 361.659 21.3167 361.546 21.53C361.433 21.7367 361.376 21.9767 361.376 22.25V25H360.316Z" fill="#202124"/>
<circle cx="317" cy="42" r="12" fill="#FFEAAF"/>
<path fill-rule="evenodd" clip-rule="evenodd" d="M321.95 37.0503C319.216 34.3166 314.784 34.3166 312.05 37.0503C309.317 39.7839 309.317 44.2159 312.05 46.9497C314.784 49.6834 319.216 49.6834 321.95 46.9497C324.683 44.2161 324.683 39.7841 321.95 37.0503ZM321.127 37.873C323.406 40.1521 323.406 43.8477 321.127 46.1275C318.848 48.4067 315.152 48.4067 312.872 46.1275C310.593 43.8484 310.593 40.1528 312.872 37.873C315.152 35.5938 318.848 35.5932 321.127 37.873ZM317 35.6248C320.521 35.6248 323.375 38.4789 323.375 41.9999C323.375 45.521 320.521 48.3751 317 48.3751C313.479 48.3751 310.625 45.521 310.625 41.9999C310.625 38.4793 313.479 35.6248 317 35.6248ZM316.141 42.8513L319.203 39.6041L320.087 40.4354L316.582 44.151C316.343 44.405 315.939 44.4044 315.699 44.151L313.914 42.2577L314.797 41.4264L316.141 42.8513Z" fill="black"/>
<path d="M58.292 70.3021C73.792 58.9688 110.292 22.8035 149.792 63.3021C189.292 103.801 221.292 92.3021 221.292 92.3021C234.459 89.3017 253 84.5003 272.792 61.3008C297.429 32.4221 343.597 28.2099 365.292 61.3008C378.397 81.2887 406.5 100.001 426.5 98.5003C446.5 97 448.792 88.8007 479.792 63.8007C510.792 38.8007 547.292 39.8007 575.792 60.3007" stroke="#202124" stroke-width="0.5" stroke-dasharray="5 5"/>
<path d="M73.7531 25.09C73.3731 25.09 73.0131 25.06 72.6731 25C72.3331 24.94 72.0198 24.8533 71.7331 24.74C71.4531 24.62 71.2031 24.4733 70.9831 24.3L71.3431 23.44C71.5698 23.6067 71.8065 23.7467 72.0531 23.86C72.2998 23.9667 72.5631 24.0467 72.8431 24.1C73.1298 24.1467 73.4331 24.17 73.7531 24.17C74.2998 24.17 74.7065 24.07 74.9731 23.87C75.2465 23.67 75.3831 23.4033 75.3831 23.07C75.3831 22.89 75.3398 22.74 75.2531 22.62C75.1731 22.4933 75.0365 22.39 74.8431 22.31C74.6565 22.2233 74.4131 22.15 74.1131 22.09L73.0031 21.87C72.3631 21.7433 71.8898 21.52 71.5831 21.2C71.2831 20.88 71.1331 20.4667 71.1331 19.96C71.1331 19.5333 71.2498 19.1633 71.4831 18.85C71.7165 18.5367 72.0365 18.2933 72.4431 18.12C72.8565 17.9467 73.3265 17.86 73.8531 17.86C74.1798 17.86 74.4898 17.89 74.7831 17.95C75.0831 18.01 75.3565 18.1033 75.6031 18.23C75.8498 18.35 76.0665 18.5 76.2531 18.68L75.9031 19.52C75.6165 19.26 75.3031 19.0733 74.9631 18.96C74.6298 18.84 74.2565 18.78 73.8431 18.78C73.5165 18.78 73.2298 18.8267 72.9831 18.92C72.7365 19.0133 72.5431 19.1467 72.4031 19.32C72.2698 19.4933 72.2031 19.7 72.2031 19.94C72.2031 20.2133 72.2898 20.43 72.4631 20.59C72.6365 20.75 72.9365 20.87 73.3631 20.95L74.4631 21.17C75.1365 21.3033 75.6365 21.52 75.9631 21.82C76.2898 22.12 76.4531 22.5167 76.4531 23.01C76.4531 23.4167 76.3431 23.78 76.1231 24.1C75.9031 24.4133 75.5898 24.6567 75.1831 24.83C74.7765 25.0033 74.2998 25.09 73.7531 25.09ZM77.6587 25V17.95H78.6887V21.1H78.6287C78.7753 20.7467 79.0053 20.4733 79.3187 20.28C79.632 20.0867 79.9887 19.99 80.3887 19.99C80.7887 19.99 81.1187 20.0633 81.3787 20.21C81.6453 20.3567 81.8453 20.58 81.9787 20.88C82.112 21.1733 82.1787 21.5433 82.1787 21.99V25H81.1187V22.05C81.1187 21.7833 81.082 21.5633 81.0087 21.39C80.942 21.21 80.832 21.0767 80.6787 20.99C80.532 20.8967 80.3387 20.85 80.0987 20.85C79.8253 20.85 79.5853 20.91 79.3787 21.03C79.172 21.15 79.0087 21.3167 78.8887 21.53C78.7753 21.7367 78.7187 21.9767 78.7187 22.25V25H77.6587ZM85.3238 25.09C84.9772 25.09 84.6638 25.0233 84.3838 24.89C84.1038 24.7567 83.8838 24.5767 83.7238 24.35C83.5705 24.1167 83.4938 23.8567 83.4938 23.57C83.4938 23.2033 83.5905 22.9133 83.7838 22.7C83.9838 22.4867 84.3005 22.3333 84.7338 22.24C85.1672 22.14 85.7405 22.09 86.4538 22.09H87.0338V22.75H86.4838C86.1238 22.75 85.8205 22.7633 85.5738 22.79C85.3272 22.81 85.1272 22.85 84.9738 22.91C84.8205 22.97 84.7072 23.05 84.6338 23.15C84.5672 23.2433 84.5338 23.3633 84.5338 23.51C84.5338 23.7633 84.6238 23.9633 84.8038 24.11C84.9905 24.25 85.2338 24.32 85.5338 24.32C85.7938 24.32 86.0238 24.2633 86.2238 24.15C86.4238 24.03 86.5838 23.87 86.7038 23.67C86.8238 23.4633 86.8838 23.2333 86.8838 22.98V21.85C86.8838 21.4767 86.7905 21.21 86.6038 21.05C86.4238 20.89 86.1405 20.81 85.7538 20.81C85.4672 20.81 85.1805 20.85 84.8938 20.93C84.6138 21.01 84.3205 21.14 84.0138 21.32L83.6938 20.58C83.8872 20.4533 84.1005 20.3467 84.3338 20.26C84.5738 20.1733 84.8205 20.1067 85.0738 20.06C85.3338 20.0133 85.5872 19.99 85.8338 19.99C86.2805 19.99 86.6572 20.06 86.9638 20.2C87.2705 20.34 87.5038 20.5533 87.6638 20.84C87.8238 21.1267 87.9038 21.5 87.9038 21.96V25H86.9538V23.93H86.9938C86.9205 24.1567 86.8072 24.36 86.6538 24.54C86.5005 24.7133 86.3105 24.85 86.0838 24.95C85.8638 25.0433 85.6105 25.09 85.3238 25.09ZM89.4263 25V20.08H90.4163V21.25H90.3663C90.4796 20.87 90.6763 20.5733 90.9563 20.36C91.2429 20.1467 91.6096 20.0233 92.0563 19.99L92.4663 19.97L92.5463 20.89L91.8463 20.96C91.4129 21 91.0796 21.14 90.8463 21.38C90.6129 21.62 90.4963 21.9367 90.4963 22.33V25H89.4263ZM95.7811 25.09C95.2278 25.09 94.7511 24.99 94.3511 24.79C93.9511 24.5833 93.6444 24.29 93.4311 23.91C93.2178 23.5233 93.1111 23.0667 93.1111 22.54C93.1111 22.04 93.2111 21.6 93.4111 21.22C93.6178 20.8333 93.9044 20.5333 94.2711 20.32C94.6444 20.1 95.0744 19.99 95.5611 19.99C96.0344 19.99 96.4378 20.09 96.7711 20.29C97.1044 20.49 97.3611 20.7767 97.5411 21.15C97.7211 21.5167 97.8111 21.9567 97.8111 22.47V22.81H93.9311V22.14H97.0911L96.9211 22.31C96.9211 21.8033 96.8044 21.4167 96.5711 21.15C96.3444 20.8833 96.0178 20.75 95.5911 20.75C95.2844 20.75 95.0211 20.82 94.8011 20.96C94.5811 21.0933 94.4111 21.2867 94.2911 21.54C94.1711 21.7867 94.1111 22.0833 94.1111 22.43V22.52C94.1111 22.9067 94.1744 23.23 94.3011 23.49C94.4344 23.75 94.6278 23.9433 94.8811 24.07C95.1344 24.1967 95.4411 24.26 95.8011 24.26C96.0744 24.26 96.3478 24.2233 96.6211 24.15C96.9011 24.07 97.1578 23.9333 97.3911 23.74L97.7211 24.47C97.4744 24.67 97.1744 24.8233 96.8211 24.93C96.4744 25.0367 96.1278 25.09 95.7811 25.09ZM103.94 25.09C103.313 25.09 102.843 24.93 102.53 24.61C102.223 24.29 102.07 23.8267 102.07 23.22V20.91H101.11V20.08H102.1V18.62H103.13V20.08H104.75V20.91H103.13V23.15C103.13 23.5033 103.206 23.77 103.36 23.95C103.52 24.1233 103.766 24.21 104.1 24.21C104.22 24.21 104.336 24.1967 104.45 24.17C104.563 24.1433 104.676 24.11 104.79 24.07L104.95 24.87C104.83 24.9433 104.676 24.9967 104.49 25.03C104.303 25.07 104.12 25.09 103.94 25.09ZM105.774 25V17.95H106.804V21.1H106.744C106.891 20.7467 107.121 20.4733 107.434 20.28C107.747 20.0867 108.104 19.99 108.504 19.99C108.904 19.99 109.234 20.0633 109.494 20.21C109.761 20.3567 109.961 20.58 110.094 20.88C110.227 21.1733 110.294 21.5433 110.294 21.99V25H109.234V22.05C109.234 21.7833 109.197 21.5633 109.124 21.39C109.057 21.21 108.947 21.0767 108.794 20.99C108.647 20.8967 108.454 20.85 108.214 20.85C107.941 20.85 107.701 20.91 107.494 21.03C107.287 21.15 107.124 21.3167 107.004 21.53C106.891 21.7367 106.834 21.9767 106.834 22.25V25H105.774ZM114.199 25.09C113.646 25.09 113.169 24.99 112.769 24.79C112.369 24.5833 112.062 24.29 111.849 23.91C111.636 23.5233 111.529 23.0667 111.529 22.54C111.529 22.04 111.629 21.6 111.829 21.22C112.036 20.8333 112.322 20.5333 112.689 20.32C113.062 20.1 113.492 19.99 113.979 19.99C114.452 19.99 114.856 20.09 115.189 20.29C115.522 20.49 115.779 20.7767 115.959 21.15C116.139 21.5167 116.229 21.9567 116.229 22.47V22.81H112.349V22.14H115.509L115.339 22.31C115.339 21.8033 115.222 21.4167 114.989 21.15C114.762 20.8833 114.436 20.75 114.009 20.75C113.702 20.75 113.439 20.82 113.219 20.96C112.999 21.0933 112.829 21.2867 112.709 21.54C112.589 21.7867 112.529 22.0833 112.529 22.43V22.52C112.529 22.9067 112.592 23.23 112.719 23.49C112.852 23.75 113.046 23.9433 113.299 24.07C113.552 24.1967 113.859 24.26 114.219 24.26C114.492 24.26 114.766 24.2233 115.039 24.15C115.319 24.07 115.576 23.9333 115.809 23.74L116.139 24.47C115.892 24.67 115.592 24.8233 115.239 24.93C114.892 25.0367 114.546 25.09 114.199 25.09ZM120.348 25V17.95H121.408V24.08H124.898V25H120.348ZM125.83 18.96V17.86H127.06V18.96H125.83ZM125.92 25V20.08H126.98V25H125.92ZM128.518 25V20.08H129.518V21.12H129.468C129.621 20.7533 129.855 20.4733 130.168 20.28C130.488 20.0867 130.848 19.99 131.248 19.99C131.648 19.99 131.978 20.0633 132.238 20.21C132.505 20.35 132.705 20.57 132.838 20.87C132.971 21.17 133.038 21.5433 133.038 21.99V25H131.978V22.05C131.978 21.7833 131.941 21.5633 131.868 21.39C131.801 21.21 131.691 21.0767 131.538 20.99C131.391 20.8967 131.198 20.85 130.958 20.85C130.685 20.85 130.441 20.91 130.228 21.03C130.021 21.15 129.861 21.3167 129.748 21.53C129.635 21.7367 129.578 21.9767 129.578 22.25V25H128.518ZM134.553 25V17.95H135.613V22.23H135.643L137.733 20.08H139.023L136.463 22.68L136.473 22.23L139.223 25H137.913L135.643 22.76H135.613V25H134.553ZM139.96 25.66L139.15 25.44L141.72 17.45L142.53 17.68L139.96 25.66ZM146.29 25.1C145.59 25.1 144.987 24.9533 144.48 24.66C143.973 24.3667 143.583 23.95 143.31 23.41C143.037 22.8633 142.9 22.2167 142.9 21.47C142.9 20.7233 143.037 20.08 143.31 19.54C143.583 19 143.973 18.5867 144.48 18.3C144.987 18.0067 145.59 17.86 146.29 17.86C146.777 17.86 147.227 17.9333 147.64 18.08C148.053 18.2267 148.4 18.44 148.68 18.72L148.31 19.56C148.003 19.3 147.69 19.11 147.37 18.99C147.05 18.87 146.7 18.81 146.32 18.81C145.587 18.81 145.02 19.04 144.62 19.5C144.22 19.9533 144.02 20.61 144.02 21.47C144.02 22.33 144.22 22.99 144.62 23.45C145.02 23.91 145.587 24.14 146.32 24.14C146.7 24.14 147.05 24.08 147.37 23.96C147.69 23.84 148.003 23.65 148.31 23.39L148.68 24.23C148.4 24.51 148.053 24.7267 147.64 24.88C147.227 25.0267 146.777 25.1 146.29 25.1ZM151.763 25.09C151.263 25.09 150.826 24.9867 150.453 24.78C150.086 24.5667 149.803 24.27 149.603 23.89C149.403 23.5033 149.303 23.0533 149.303 22.54C149.303 22.02 149.403 21.57 149.603 21.19C149.803 20.81 150.086 20.5167 150.453 20.31C150.826 20.0967 151.263 19.99 151.763 19.99C152.269 19.99 152.706 20.0967 153.073 20.31C153.439 20.5167 153.723 20.81 153.923 21.19C154.123 21.57 154.223 22.02 154.223 22.54C154.223 23.0533 154.123 23.5033 153.923 23.89C153.723 24.27 153.439 24.5667 153.073 24.78C152.706 24.9867 152.269 25.09 151.763 25.09ZM151.763 24.25C152.196 24.25 152.539 24.1 152.793 23.8C153.046 23.5 153.173 23.0767 153.173 22.53C153.173 21.9833 153.046 21.5633 152.793 21.27C152.539 20.9767 152.196 20.83 151.763 20.83C151.329 20.83 150.986 20.9767 150.733 21.27C150.479 21.5633 150.353 21.9833 150.353 22.53C150.353 23.0767 150.479 23.5 150.733 23.8C150.986 24.1 151.329 24.25 151.763 24.25ZM157.411 25.09C156.964 25.09 156.574 24.9867 156.241 24.78C155.914 24.5667 155.658 24.27 155.471 23.89C155.291 23.5033 155.201 23.0533 155.201 22.54C155.201 22.02 155.291 21.57 155.471 21.19C155.651 20.81 155.908 20.5167 156.241 20.31C156.574 20.0967 156.961 19.99 157.401 19.99C157.821 19.99 158.181 20.09 158.481 20.29C158.788 20.49 159.001 20.76 159.121 21.1H159.071V17.95H160.121V25H159.131V23.92H159.171C159.044 24.2867 158.824 24.5733 158.511 24.78C158.204 24.9867 157.838 25.09 157.411 25.09ZM157.671 24.27C158.104 24.27 158.448 24.12 158.701 23.82C158.954 23.5133 159.081 23.0867 159.081 22.54C159.081 21.9867 158.954 21.5633 158.701 21.27C158.448 20.97 158.104 20.82 157.671 20.82C157.238 20.82 156.891 20.97 156.631 21.27C156.378 21.5633 156.251 21.9867 156.251 22.54C156.251 23.0867 156.378 23.5133 156.631 23.82C156.891 24.12 157.238 24.27 157.671 24.27ZM164.053 25.09C163.499 25.09 163.023 24.99 162.623 24.79C162.223 24.5833 161.916 24.29 161.703 23.91C161.489 23.5233 161.383 23.0667 161.383 22.54C161.383 22.04 161.483 21.6 161.683 21.22C161.889 20.8333 162.176 20.5333 162.543 20.32C162.916 20.1 163.346 19.99 163.833 19.99C164.306 19.99 164.709 20.09 165.043 20.29C165.376 20.49 165.633 20.7767 165.813 21.15C165.993 21.5167 166.083 21.9567 166.083 22.47V22.81H162.203V22.14H165.363L165.193 22.31C165.193 21.8033 165.076 21.4167 164.843 21.15C164.616 20.8833 164.289 20.75 163.863 20.75C163.556 20.75 163.293 20.82 163.073 20.96C162.853 21.0933 162.683 21.2867 162.563 21.54C162.443 21.7867 162.383 22.0833 162.383 22.43V22.52C162.383 22.9067 162.446 23.23 162.573 23.49C162.706 23.75 162.899 23.9433 163.153 24.07C163.406 24.1967 163.713 24.26 164.073 24.26C164.346 24.26 164.619 24.2233 164.893 24.15C165.173 24.07 165.429 23.9333 165.663 23.74L165.993 24.47C165.746 24.67 165.446 24.8233 165.093 24.93C164.746 25.0367 164.399 25.09 164.053 25.09Z" fill="#202124"/>
<path d="M173.063 121V113.95H176.023C176.797 113.95 177.39 114.13 177.803 114.49C178.223 114.843 178.433 115.353 178.433 116.02C178.433 116.42 178.347 116.767 178.173 117.06C178.007 117.347 177.767 117.573 177.453 117.74C177.14 117.9 176.767 117.99 176.333 118.01L176.393 117.94L176.583 117.95C176.803 117.963 176.993 118.033 177.153 118.16C177.32 118.28 177.477 118.47 177.623 118.73L178.833 121H177.663L176.473 118.78C176.38 118.607 176.277 118.473 176.163 118.38C176.057 118.287 175.93 118.223 175.783 118.19C175.643 118.15 175.477 118.13 175.283 118.13H174.123V121H173.063ZM174.123 117.29H175.893C176.393 117.29 176.763 117.187 177.003 116.98C177.25 116.773 177.373 116.463 177.373 116.05C177.373 115.637 177.25 115.33 177.003 115.13C176.757 114.923 176.38 114.82 175.873 114.82H174.123V117.29ZM182.198 121.09C181.645 121.09 181.168 120.99 180.768 120.79C180.368 120.583 180.061 120.29 179.848 119.91C179.635 119.523 179.528 119.067 179.528 118.54C179.528 118.04 179.628 117.6 179.828 117.22C180.035 116.833 180.321 116.533 180.688 116.32C181.061 116.1 181.491 115.99 181.978 115.99C182.451 115.99 182.855 116.09 183.188 116.29C183.521 116.49 183.778 116.777 183.958 117.15C184.138 117.517 184.228 117.957 184.228 118.47V118.81H180.348V118.14H183.508L183.338 118.31C183.338 117.803 183.221 117.417 182.988 117.15C182.761 116.883 182.435 116.75 182.008 116.75C181.701 116.75 181.438 116.82 181.218 116.96C180.998 117.093 180.828 117.287 180.708 117.54C180.588 117.787 180.528 118.083 180.528 118.43V118.52C180.528 118.907 180.591 119.23 180.718 119.49C180.851 119.75 181.045 119.943 181.298 120.07C181.551 120.197 181.858 120.26 182.218 120.26C182.491 120.26 182.765 120.223 183.038 120.15C183.318 120.07 183.575 119.933 183.808 119.74L184.138 120.47C183.891 120.67 183.591 120.823 183.238 120.93C182.891 121.037 182.545 121.09 182.198 121.09ZM185.763 121V116.89H184.783V116.08H186.053L185.763 116.36V116.03C185.763 115.357 185.939 114.85 186.293 114.51C186.653 114.163 187.196 113.97 187.923 113.93L188.423 113.9L188.493 114.72L187.943 114.75C187.696 114.763 187.486 114.81 187.313 114.89C187.146 114.97 187.019 115.09 186.933 115.25C186.853 115.41 186.813 115.62 186.813 115.88V116.21L186.663 116.08H188.253V116.89H186.813V121H185.763ZM191.446 121.09C190.893 121.09 190.416 120.99 190.016 120.79C189.616 120.583 189.309 120.29 189.096 119.91C188.883 119.523 188.776 119.067 188.776 118.54C188.776 118.04 188.876 117.6 189.076 117.22C189.283 116.833 189.569 116.533 189.936 116.32C190.309 116.1 190.739 115.99 191.226 115.99C191.699 115.99 192.103 116.09 192.436 116.29C192.769 116.49 193.026 116.777 193.206 117.15C193.386 117.517 193.476 117.957 193.476 118.47V118.81H189.596V118.14H192.756L192.586 118.31C192.586 117.803 192.469 117.417 192.236 117.15C192.009 116.883 191.683 116.75 191.256 116.75C190.949 116.75 190.686 116.82 190.466 116.96C190.246 117.093 190.076 117.287 189.956 117.54C189.836 117.787 189.776 118.083 189.776 118.43V118.52C189.776 118.907 189.839 119.23 189.966 119.49C190.099 119.75 190.293 119.943 190.546 120.07C190.799 120.197 191.106 120.26 191.466 120.26C191.739 120.26 192.013 120.223 192.286 120.15C192.566 120.07 192.823 119.933 193.056 119.74L193.386 120.47C193.139 120.67 192.839 120.823 192.486 120.93C192.139 121.037 191.793 121.09 191.446 121.09ZM194.71 121V116.08H195.7V117.25H195.65C195.764 116.87 195.96 116.573 196.24 116.36C196.527 116.147 196.894 116.023 197.34 115.99L197.75 115.97L197.83 116.89L197.13 116.96C196.697 117 196.364 117.14 196.13 117.38C195.897 117.62 195.78 117.937 195.78 118.33V121H194.71ZM198.744 121V116.08H199.734V117.25H199.684C199.797 116.87 199.994 116.573 200.274 116.36C200.56 116.147 200.927 116.023 201.374 115.99L201.784 115.97L201.864 116.89L201.164 116.96C200.73 117 200.397 117.14 200.164 117.38C199.93 117.62 199.814 117.937 199.814 118.33V121H198.744ZM204.358 121.09C204.011 121.09 203.698 121.023 203.418 120.89C203.138 120.757 202.918 120.577 202.758 120.35C202.605 120.117 202.528 119.857 202.528 119.57C202.528 119.203 202.625 118.913 202.818 118.7C203.018 118.487 203.335 118.333 203.768 118.24C204.201 118.14 204.775 118.09 205.488 118.09H206.068V118.75H205.518C205.158 118.75 204.855 118.763 204.608 118.79C204.361 118.81 204.161 118.85 204.008 118.91C203.855 118.97 203.741 119.05 203.668 119.15C203.601 119.243 203.568 119.363 203.568 119.51C203.568 119.763 203.658 119.963 203.838 120.11C204.025 120.25 204.268 120.32 204.568 120.32C204.828 120.32 205.058 120.263 205.258 120.15C205.458 120.03 205.618 119.87 205.738 119.67C205.858 119.463 205.918 119.233 205.918 118.98V117.85C205.918 117.477 205.825 117.21 205.638 117.05C205.458 116.89 205.175 116.81 204.788 116.81C204.501 116.81 204.215 116.85 203.928 116.93C203.648 117.01 203.355 117.14 203.048 117.32L202.728 116.58C202.921 116.453 203.135 116.347 203.368 116.26C203.608 116.173 203.855 116.107 204.108 116.06C204.368 116.013 204.621 115.99 204.868 115.99C205.315 115.99 205.691 116.06 205.998 116.2C206.305 116.34 206.538 116.553 206.698 116.84C206.858 117.127 206.938 117.5 206.938 117.96V121H205.988V119.93H206.028C205.955 120.157 205.841 120.36 205.688 120.54C205.535 120.713 205.345 120.85 205.118 120.95C204.898 121.043 204.645 121.09 204.358 121.09ZM210.06 121.09C209.534 121.09 209.134 120.943 208.86 120.65C208.594 120.35 208.46 119.923 208.46 119.37V113.95H209.52V119.29C209.52 119.49 209.547 119.663 209.6 119.81C209.66 119.95 209.747 120.057 209.86 120.13C209.974 120.197 210.114 120.23 210.28 120.23C210.367 120.23 210.45 120.227 210.53 120.22C210.61 120.207 210.694 120.19 210.78 120.17L210.79 120.99C210.67 121.023 210.55 121.047 210.43 121.06C210.317 121.08 210.194 121.09 210.06 121.09ZM216.938 121.09C216.558 121.09 216.198 121.06 215.858 121C215.518 120.94 215.204 120.853 214.918 120.74C214.638 120.62 214.388 120.473 214.168 120.3L214.528 119.44C214.754 119.607 214.991 119.747 215.238 119.86C215.484 119.967 215.748 120.047 216.028 120.1C216.314 120.147 216.618 120.17 216.938 120.17C217.484 120.17 217.891 120.07 218.158 119.87C218.431 119.67 218.568 119.403 218.568 119.07C218.568 118.89 218.524 118.74 218.438 118.62C218.358 118.493 218.221 118.39 218.028 118.31C217.841 118.223 217.598 118.15 217.298 118.09L216.188 117.87C215.548 117.743 215.074 117.52 214.768 117.2C214.468 116.88 214.318 116.467 214.318 115.96C214.318 115.533 214.434 115.163 214.668 114.85C214.901 114.537 215.221 114.293 215.628 114.12C216.041 113.947 216.511 113.86 217.038 113.86C217.364 113.86 217.674 113.89 217.968 113.95C218.268 114.01 218.541 114.103 218.788 114.23C219.034 114.35 219.251 114.5 219.438 114.68L219.088 115.52C218.801 115.26 218.488 115.073 218.148 114.96C217.814 114.84 217.441 114.78 217.028 114.78C216.701 114.78 216.414 114.827 216.168 114.92C215.921 115.013 215.728 115.147 215.588 115.32C215.454 115.493 215.388 115.7 215.388 115.94C215.388 116.213 215.474 116.43 215.648 116.59C215.821 116.75 216.121 116.87 216.548 116.95L217.648 117.17C218.321 117.303 218.821 117.52 219.148 117.82C219.474 118.12 219.638 118.517 219.638 119.01C219.638 119.417 219.528 119.78 219.308 120.1C219.088 120.413 218.774 120.657 218.368 120.83C217.961 121.003 217.484 121.09 216.938 121.09ZM220.753 114.96V113.86H221.983V114.96H220.753ZM220.843 121V116.08H221.903V121H220.843ZM225.651 122.89C225.231 122.89 224.828 122.837 224.441 122.73C224.054 122.623 223.718 122.467 223.431 122.26L223.751 121.48C223.938 121.6 224.131 121.703 224.331 121.79C224.538 121.877 224.748 121.94 224.961 121.98C225.174 122.027 225.388 122.05 225.601 122.05C226.088 122.05 226.458 121.93 226.711 121.69C226.964 121.45 227.091 121.1 227.091 120.64V119.72H227.131C227.018 120.06 226.804 120.337 226.491 120.55C226.178 120.757 225.814 120.86 225.401 120.86C224.948 120.86 224.551 120.76 224.211 120.56C223.878 120.353 223.618 120.067 223.431 119.7C223.251 119.333 223.161 118.907 223.161 118.42C223.161 117.933 223.251 117.51 223.431 117.15C223.618 116.783 223.878 116.5 224.211 116.3C224.551 116.093 224.948 115.99 225.401 115.99C225.821 115.99 226.188 116.097 226.501 116.31C226.814 116.517 227.024 116.797 227.131 117.15H227.091V116.08H228.101V120.53C228.101 121.037 228.004 121.467 227.811 121.82C227.624 122.173 227.348 122.44 226.981 122.62C226.614 122.8 226.171 122.89 225.651 122.89ZM225.641 120.03C226.081 120.03 226.428 119.887 226.681 119.6C226.941 119.307 227.071 118.913 227.071 118.42C227.071 117.927 226.941 117.537 226.681 117.25C226.428 116.963 226.081 116.82 225.641 116.82C225.201 116.82 224.851 116.963 224.591 117.25C224.338 117.537 224.211 117.927 224.211 118.42C224.211 118.913 224.338 119.307 224.591 119.6C224.851 119.887 225.201 120.03 225.641 120.03ZM229.642 121V116.08H230.642V117.12H230.592C230.745 116.753 230.979 116.473 231.292 116.28C231.612 116.087 231.972 115.99 232.372 115.99C232.772 115.99 233.102 116.063 233.362 116.21C233.629 116.35 233.829 116.57 233.962 116.87C234.095 117.17 234.162 117.543 234.162 117.99V121H233.102V118.05C233.102 117.783 233.065 117.563 232.992 117.39C232.925 117.21 232.815 117.077 232.662 116.99C232.515 116.897 232.322 116.85 232.082 116.85C231.809 116.85 231.565 116.91 231.352 117.03C231.145 117.15 230.985 117.317 230.872 117.53C230.759 117.737 230.702 117.977 230.702 118.25V121H229.642ZM235.607 118.75V117.9H238.487V118.75H235.607ZM242.934 121.09C241.994 121.09 241.274 120.847 240.774 120.36C240.281 119.867 240.034 119.143 240.034 118.19V113.95H241.104V118.17C241.104 118.837 241.258 119.333 241.564 119.66C241.878 119.98 242.334 120.14 242.934 120.14C243.534 120.14 243.988 119.98 244.294 119.66C244.608 119.333 244.764 118.837 244.764 118.17V113.95H245.824V118.19C245.824 119.143 245.578 119.867 245.084 120.36C244.591 120.847 243.874 121.09 242.934 121.09ZM247.435 122.8V116.08H248.435V117.15H248.385C248.512 116.79 248.732 116.507 249.045 116.3C249.358 116.093 249.728 115.99 250.155 115.99C250.595 115.99 250.982 116.097 251.315 116.31C251.648 116.517 251.905 116.81 252.085 117.19C252.265 117.57 252.355 118.02 252.355 118.54C252.355 119.047 252.265 119.493 252.085 119.88C251.905 120.267 251.652 120.567 251.325 120.78C250.998 120.987 250.608 121.09 250.155 121.09C249.735 121.09 249.372 120.99 249.065 120.79C248.765 120.583 248.555 120.313 248.435 119.98H248.495V122.8H247.435ZM249.885 120.27C250.318 120.27 250.662 120.12 250.915 119.82C251.175 119.513 251.305 119.083 251.305 118.53C251.305 117.983 251.178 117.563 250.925 117.27C250.672 116.97 250.325 116.82 249.885 116.82C249.452 116.82 249.108 116.97 248.855 117.27C248.602 117.563 248.475 117.983 248.475 118.53C248.475 119.083 248.602 119.513 248.855 119.82C249.115 120.12 249.458 120.27 249.885 120.27Z" fill="#202124"/>
<path d="M399.006 121V113.95H401.966C402.739 113.95 403.332 114.13 403.746 114.49C404.166 114.843 404.376 115.353 404.376 116.02C404.376 116.42 404.289 116.767 404.116 117.06C403.949 117.347 403.709 117.573 403.396 117.74C403.082 117.9 402.709 117.99 402.276 118.01L402.336 117.94L402.526 117.95C402.746 117.963 402.936 118.033 403.096 118.16C403.262 118.28 403.419 118.47 403.566 118.73L404.776 121H403.606L402.416 118.78C402.322 118.607 402.219 118.473 402.106 118.38C401.999 118.287 401.872 118.223 401.726 118.19C401.586 118.15 401.419 118.13 401.226 118.13H400.066V121H399.006ZM400.066 117.29H401.836C402.336 117.29 402.706 117.187 402.946 116.98C403.192 116.773 403.316 116.463 403.316 116.05C403.316 115.637 403.192 115.33 402.946 115.13C402.699 114.923 402.322 114.82 401.816 114.82H400.066V117.29ZM408.14 121.09C407.587 121.09 407.11 120.99 406.71 120.79C406.31 120.583 406.004 120.29 405.79 119.91C405.577 119.523 405.47 119.067 405.47 118.54C405.47 118.04 405.57 117.6 405.77 117.22C405.977 116.833 406.264 116.533 406.63 116.32C407.004 116.1 407.434 115.99 407.92 115.99C408.394 115.99 408.797 116.09 409.13 116.29C409.464 116.49 409.72 116.777 409.9 117.15C410.08 117.517 410.17 117.957 410.17 118.47V118.81H406.29V118.14H409.45L409.28 118.31C409.28 117.803 409.164 117.417 408.93 117.15C408.704 116.883 408.377 116.75 407.95 116.75C407.644 116.75 407.38 116.82 407.16 116.96C406.94 117.093 406.77 117.287 406.65 117.54C406.53 117.787 406.47 118.083 406.47 118.43V118.52C406.47 118.907 406.534 119.23 406.66 119.49C406.794 119.75 406.987 119.943 407.24 120.07C407.494 120.197 407.8 120.26 408.16 120.26C408.434 120.26 408.707 120.223 408.98 120.15C409.26 120.07 409.517 119.933 409.75 119.74L410.08 120.47C409.834 120.67 409.534 120.823 409.18 120.93C408.834 121.037 408.487 121.09 408.14 121.09ZM412.566 121L410.756 116.08H411.826L413.166 120H413.026L414.456 116.08H415.276L416.686 120H416.556L417.896 116.08H418.926L417.126 121H416.176L414.686 116.98H414.996L413.516 121H412.566ZM421.433 121.09C421.087 121.09 420.773 121.023 420.493 120.89C420.213 120.757 419.993 120.577 419.833 120.35C419.68 120.117 419.603 119.857 419.603 119.57C419.603 119.203 419.7 118.913 419.893 118.7C420.093 118.487 420.41 118.333 420.843 118.24C421.277 118.14 421.85 118.09 422.563 118.09H423.143V118.75H422.593C422.233 118.75 421.93 118.763 421.683 118.79C421.437 118.81 421.237 118.85 421.083 118.91C420.93 118.97 420.817 119.05 420.743 119.15C420.677 119.243 420.643 119.363 420.643 119.51C420.643 119.763 420.733 119.963 420.913 120.11C421.1 120.25 421.343 120.32 421.643 120.32C421.903 120.32 422.133 120.263 422.333 120.15C422.533 120.03 422.693 119.87 422.813 119.67C422.933 119.463 422.993 119.233 422.993 118.98V117.85C422.993 117.477 422.9 117.21 422.713 117.05C422.533 116.89 422.25 116.81 421.863 116.81C421.577 116.81 421.29 116.85 421.003 116.93C420.723 117.01 420.43 117.14 420.123 117.32L419.803 116.58C419.997 116.453 420.21 116.347 420.443 116.26C420.683 116.173 420.93 116.107 421.183 116.06C421.443 116.013 421.697 115.99 421.943 115.99C422.39 115.99 422.767 116.06 423.073 116.2C423.38 116.34 423.613 116.553 423.773 116.84C423.933 117.127 424.013 117.5 424.013 117.96V121H423.063V119.93H423.103C423.03 120.157 422.917 120.36 422.763 120.54C422.61 120.713 422.42 120.85 422.193 120.95C421.973 121.043 421.72 121.09 421.433 121.09ZM425.536 121V116.08H426.526V117.25H426.476C426.589 116.87 426.786 116.573 427.066 116.36C427.352 116.147 427.719 116.023 428.166 115.99L428.576 115.97L428.656 116.89L427.956 116.96C427.522 117 427.189 117.14 426.956 117.38C426.722 117.62 426.606 117.937 426.606 118.33V121H425.536ZM431.43 121.09C430.984 121.09 430.594 120.987 430.26 120.78C429.934 120.567 429.677 120.27 429.49 119.89C429.31 119.503 429.22 119.053 429.22 118.54C429.22 118.02 429.31 117.57 429.49 117.19C429.67 116.81 429.927 116.517 430.26 116.31C430.594 116.097 430.98 115.99 431.42 115.99C431.84 115.99 432.2 116.09 432.5 116.29C432.807 116.49 433.02 116.76 433.14 117.1H433.09V113.95H434.14V121H433.15V119.92H433.19C433.064 120.287 432.844 120.573 432.53 120.78C432.224 120.987 431.857 121.09 431.43 121.09ZM431.69 120.27C432.124 120.27 432.467 120.12 432.72 119.82C432.974 119.513 433.1 119.087 433.1 118.54C433.1 117.987 432.974 117.563 432.72 117.27C432.467 116.97 432.124 116.82 431.69 116.82C431.257 116.82 430.91 116.97 430.65 117.27C430.397 117.563 430.27 117.987 430.27 118.54C430.27 119.087 430.397 119.513 430.65 119.82C430.91 120.12 431.257 120.27 431.69 120.27ZM440.276 121V114.86H437.786V113.95H443.836V114.86H441.346V121H440.276ZM443.954 121V116.08H444.944V117.25H444.894C445.007 116.87 445.204 116.573 445.484 116.36C445.77 116.147 446.137 116.023 446.584 115.99L446.994 115.97L447.074 116.89L446.374 116.96C445.94 117 445.607 117.14 445.374 117.38C445.14 117.62 445.024 117.937 445.024 118.33V121H443.954ZM447.897 114.96V113.86H449.127V114.96H447.897ZM447.987 121V116.08H449.047V121H447.987ZM452.794 122.89C452.374 122.89 451.971 122.837 451.584 122.73C451.198 122.623 450.861 122.467 450.574 122.26L450.894 121.48C451.081 121.6 451.274 121.703 451.474 121.79C451.681 121.877 451.891 121.94 452.104 121.98C452.318 122.027 452.531 122.05 452.744 122.05C453.231 122.05 453.601 121.93 453.854 121.69C454.108 121.45 454.234 121.1 454.234 120.64V119.72H454.274C454.161 120.06 453.948 120.337 453.634 120.55C453.321 120.757 452.958 120.86 452.544 120.86C452.091 120.86 451.694 120.76 451.354 120.56C451.021 120.353 450.761 120.067 450.574 119.7C450.394 119.333 450.304 118.907 450.304 118.42C450.304 117.933 450.394 117.51 450.574 117.15C450.761 116.783 451.021 116.5 451.354 116.3C451.694 116.093 452.091 115.99 452.544 115.99C452.964 115.99 453.331 116.097 453.644 116.31C453.958 116.517 454.168 116.797 454.274 117.15H454.234V116.08H455.244V120.53C455.244 121.037 455.148 121.467 454.954 121.82C454.768 122.173 454.491 122.44 454.124 122.62C453.758 122.8 453.314 122.89 452.794 122.89ZM452.784 120.03C453.224 120.03 453.571 119.887 453.824 119.6C454.084 119.307 454.214 118.913 454.214 118.42C454.214 117.927 454.084 117.537 453.824 117.25C453.571 116.963 453.224 116.82 452.784 116.82C452.344 116.82 451.994 116.963 451.734 117.25C451.481 117.537 451.354 117.927 451.354 118.42C451.354 118.913 451.481 119.307 451.734 119.6C451.994 119.887 452.344 120.03 452.784 120.03ZM458.996 122.89C458.576 122.89 458.172 122.837 457.786 122.73C457.399 122.623 457.062 122.467 456.776 122.26L457.096 121.48C457.282 121.6 457.476 121.703 457.676 121.79C457.882 121.877 458.092 121.94 458.306 121.98C458.519 122.027 458.732 122.05 458.946 122.05C459.432 122.05 459.802 121.93 460.056 121.69C460.309 121.45 460.436 121.1 460.436 120.64V119.72H460.476C460.362 120.06 460.149 120.337 459.836 120.55C459.522 120.757 459.159 120.86 458.746 120.86C458.292 120.86 457.896 120.76 457.556 120.56C457.222 120.353 456.962 120.067 456.776 119.7C456.596 119.333 456.506 118.907 456.506 118.42C456.506 117.933 456.596 117.51 456.776 117.15C456.962 116.783 457.222 116.5 457.556 116.3C457.896 116.093 458.292 115.99 458.746 115.99C459.166 115.99 459.532 116.097 459.846 116.31C460.159 116.517 460.369 116.797 460.476 117.15H460.436V116.08H461.446V120.53C461.446 121.037 461.349 121.467 461.156 121.82C460.969 122.173 460.692 122.44 460.326 122.62C459.959 122.8 459.516 122.89 458.996 122.89ZM458.986 120.03C459.426 120.03 459.772 119.887 460.026 119.6C460.286 119.307 460.416 118.913 460.416 118.42C460.416 117.927 460.286 117.537 460.026 117.25C459.772 116.963 459.426 116.82 458.986 116.82C458.546 116.82 458.196 116.963 457.936 117.25C457.682 117.537 457.556 117.927 457.556 118.42C457.556 118.913 457.682 119.307 457.936 119.6C458.196 119.887 458.546 120.03 458.986 120.03ZM465.377 121.09C464.823 121.09 464.347 120.99 463.947 120.79C463.547 120.583 463.24 120.29 463.027 119.91C462.813 119.523 462.707 119.067 462.707 118.54C462.707 118.04 462.807 117.6 463.007 117.22C463.213 116.833 463.5 116.533 463.867 116.32C464.24 116.1 464.67 115.99 465.157 115.99C465.63 115.99 466.033 116.09 466.367 116.29C466.7 116.49 466.957 116.777 467.137 117.15C467.317 117.517 467.407 117.957 467.407 118.47V118.81H463.527V118.14H466.687L466.517 118.31C466.517 117.803 466.4 117.417 466.167 117.15C465.94 116.883 465.613 116.75 465.187 116.75C464.88 116.75 464.617 116.82 464.397 116.96C464.177 117.093 464.007 117.287 463.887 117.54C463.767 117.787 463.707 118.083 463.707 118.43V118.52C463.707 118.907 463.77 119.23 463.897 119.49C464.03 119.75 464.223 119.943 464.477 120.07C464.73 120.197 465.037 120.26 465.397 120.26C465.67 120.26 465.943 120.223 466.217 120.15C466.497 120.07 466.753 119.933 466.987 119.74L467.317 120.47C467.07 120.67 466.77 120.823 466.417 120.93C466.07 121.037 465.723 121.09 465.377 121.09ZM468.641 121V116.08H469.631V117.25H469.581C469.694 116.87 469.891 116.573 470.171 116.36C470.458 116.147 470.824 116.023 471.271 115.99L471.681 115.97L471.761 116.89L471.061 116.96C470.628 117 470.294 117.14 470.061 117.38C469.828 117.62 469.711 117.937 469.711 118.33V121H468.641Z" fill="#202124"/>
<circle cx="118" cy="48" r="12" fill="#FFEAAF"/>
<path fill-rule="evenodd" clip-rule="evenodd" d="M125.826 47.3731L119.508 52.2496C119.385 52.3603 119.223 52.4279 119.045 52.4279C118.664 52.4279 118.355 52.1192 118.355 51.738V49.5174C116.945 49.5836 115.414 49.7735 114.228 50.376C113.557 50.7162 112.999 51.1861 112.56 51.8269C112.106 52.4895 111.77 53.3419 111.557 54.4308C111.509 54.7041 111.296 54.9322 111.008 54.9875C110.634 55.0593 110.273 54.814 110.202 54.4404C110.072 53.7669 110 53.0332 110 52.3481C110 49.3862 110.929 47.3897 112.557 46.0959C114.01 44.9408 115.996 44.3882 118.355 44.2325L118.357 41.6879C118.357 41.5363 118.406 41.384 118.508 41.2569C118.746 40.9605 119.179 40.914 119.476 41.1517L125.836 46.2925C126.182 46.5712 126.179 47.1006 125.826 47.3731L125.826 47.3731Z" fill="black"/>
<circle cx="434" cy="98" r="12" fill="#FFEAAF"/>
<path d="M438.759 100.545C437.691 99.3075 438.445 97.6497 437.944 94.9526C437.599 93.1142 435.729 92.4784 434.572 92.2586V91.8897C434.562 91.6504 434.46 91.4242 434.287 91.2584C434.115 91.0926 433.884 91 433.645 91C433.405 91 433.175 91.0926 433.002 91.2584C432.83 91.4242 432.728 91.6504 432.718 91.8897V92.257C431.559 92.4784 429.69 93.1142 429.344 94.9526C428.839 97.6497 429.597 99.3091 428.529 100.545C427.462 101.78 427.883 101.921 427.883 101.921H439.406C439.406 101.921 439.826 101.782 438.759 100.545Z" fill="black"/>
<path d="M433.646 105C434.19 105 434.712 104.783 435.096 104.398C435.481 104.014 435.697 103.492 435.697 102.948H431.593C431.593 103.218 431.646 103.485 431.749 103.734C431.852 103.983 432.004 104.209 432.194 104.4C432.385 104.59 432.611 104.741 432.861 104.844C433.11 104.947 433.377 105 433.646 105Z" fill="black"/>
<path d="M439.795 96.5005C439.732 96.5005 439.669 96.4866 439.612 96.4599C439.554 96.4332 439.503 96.3943 439.462 96.346C439.421 96.2976 439.391 96.2409 439.374 96.1797C439.357 96.1186 439.353 96.0545 439.363 95.9919C439.784 93.4282 437.546 92.312 437.522 92.301C437.427 92.2451 437.356 92.1554 437.324 92.0498C437.292 91.9441 437.302 91.8303 437.35 91.7311C437.398 91.632 437.482 91.5547 437.585 91.5148C437.688 91.4749 437.802 91.4754 437.905 91.516C437.933 91.5302 440.751 92.9415 440.227 96.1347C440.21 96.2369 440.157 96.3297 440.078 96.3967C439.999 96.4637 439.899 96.5005 439.795 96.5005Z" fill="black"/>
<path d="M427.497 96.5005C427.393 96.5004 427.293 96.4634 427.213 96.3961C427.134 96.3288 427.082 96.2356 427.065 96.1332C426.541 92.9399 429.359 91.5286 429.387 91.5145C429.49 91.4722 429.605 91.4706 429.709 91.51C429.813 91.5495 429.898 91.627 429.947 91.7268C429.996 91.8267 430.005 91.9414 429.972 92.0477C429.94 92.1541 429.868 92.244 429.772 92.2994C429.677 92.3465 427.512 93.4517 427.928 95.9919C427.947 96.1064 427.92 96.2235 427.852 96.3177C427.784 96.4119 427.682 96.4754 427.567 96.4942C427.544 96.4982 427.52 96.5003 427.497 96.5005Z" fill="black"/>
<circle cx="209" cy="92" r="12" fill="#FFEAAF"/>
<path fill-rule="evenodd" clip-rule="evenodd" d="M203.445 85H213.917C215.266 85 216.363 86.0969 216.363 87.4453C216.363 88.7937 215.266 89.8907 213.917 89.8907H208.721V89.5677C208.721 89.0153 208.272 88.5661 207.72 88.5661C207.45 88.5661 207.196 88.6722 207.006 88.8649C206.817 89.055 206.715 89.3056 206.718 89.5705L206.722 89.8907H203.445C202.097 89.8907 201 88.7937 201 87.4453C201 86.0969 202.097 85 203.445 85ZM208.456 93.698C208.603 93.698 208.721 93.5793 208.721 93.4331L208.721 91.7197C208.721 91.4597 208.933 91.2479 209.193 91.2479C209.453 91.2479 209.665 91.4595 209.665 91.7197V92.448V93.3456V93.7973C209.665 93.9436 209.783 94.0622 209.93 94.0622C210.076 94.0622 210.195 93.9436 210.195 93.7973V93.3456V92.448C210.195 92.188 210.407 91.9762 210.667 91.9762C210.927 91.9762 211.138 92.188 211.138 92.448V94.4267C211.138 94.5729 211.257 94.6916 211.403 94.6916C211.55 94.6916 211.668 94.5729 211.668 94.4267V93.185C211.668 92.925 211.88 92.7133 212.14 92.7133C212.4 92.7133 212.612 92.9248 212.612 93.185V94.9565V94.9571V94.9576C212.619 96.9087 212.527 98.1336 212.032 98.6197C211.681 98.9639 211.076 99.0174 210.083 98.9958C208.594 98.9635 207.637 98.1788 206.981 96.4516C206.698 95.7075 206.073 95.1525 205.411 94.565C205.227 94.4019 205.037 94.2329 204.848 94.0554C204.744 93.9568 204.69 93.465 204.866 93.2459C205.001 93.079 205.279 93.2157 205.489 93.3596L206.882 94.3139C206.963 94.3699 207.069 94.3756 207.156 94.329C207.243 94.2825 207.297 94.1913 207.296 94.0925L207.248 89.5648C207.247 89.4425 207.294 89.3264 207.382 89.2374C207.473 89.146 207.593 89.0957 207.72 89.0957C207.98 89.0957 208.192 89.3073 208.192 89.5674V93.4331C208.192 93.5793 208.31 93.698 208.456 93.698Z" fill="black"/>
<path d="M82.5257 48.6071L91.6237 48.4058L87.2491 56.3856L82.5257 48.6071Z" fill="#735B08"/>
<path d="M160.192 66.9866L163.06 75.623L154.147 73.7888L160.192 66.9866Z" fill="#735B08"/>
<path d="M265.565 68.1989L264.377 77.2212L257.157 71.6805L265.565 68.1989Z" fill="#735B08"/>
<path d="M365.45 61.6209L357.141 57.9101L364.509 52.5695L365.45 61.6209Z" fill="#735B08"/>
<path d="M513.555 46.209C514.026 46.3919 514.123 47.0165 513.729 47.3332L508.409 51.6088C508.015 51.9256 507.425 51.6969 507.348 51.1973L506.305 44.4522C506.228 43.9526 506.721 43.5567 507.192 43.7396L513.555 46.209Z" fill="black"/>
<defs>
<filter id="filter0_d_92_8974" x="0" y="0" width="635" height="141" filterUnits="userSpaceOnUse" color-interpolation-filters="sRGB">
<feFlood flood-opacity="0" result="BackgroundImageFix"/>
<feColorMatrix in="SourceAlpha" type="matrix" values="0 0 0 0 0 0 0 0 0 0 0 0 0 0 0 0 0 0 127 0" result="hardAlpha"/>
<feOffset dy="1"/>
<feGaussianBlur stdDeviation="2"/>
<feComposite in2="hardAlpha" operator="out"/>
<feColorMatrix type="matrix" values="0 0 0 0 0 0 0 0 0 0 0 0 0 0 0 0 0 0 0.25 0"/>
<feBlend mode="normal" in2="BackgroundImageFix" result="effect1_dropShadow_92_8974"/>
<feBlend mode="normal" in="SourceGraphic" in2="effect1_dropShadow_92_8974" result="shape"/>
</filter>
</defs>
</svg>
