<svg width="16" height="17" viewBox="0 0 16 17" fill="none" xmlns="http://www.w3.org/2000/svg">
<path d="M13.4264 5.04175H2.57307C1.8864 5.04175 1.3264 5.60175 1.33307 6.28175V10.4217C1.33307 11.1084 1.8864 11.6617 2.57307 11.6617H7.71307L10.0597 12.9684L9.5264 11.6617H13.4197C14.1064 11.6617 14.6597 11.1084 14.6597 10.4217V6.28175C14.6664 5.59508 14.1131 5.04175 13.4264 5.04175ZM2.33973 6.00175C2.1864 6.01508 2.07307 6.06841 1.99973 6.16841C1.91973 6.26841 1.89307 6.39508 1.91307 6.53508C2.23307 8.58175 2.53307 9.95508 2.81307 10.6751C2.91973 10.9351 3.0464 11.0617 3.19307 11.0484C3.41973 11.0351 3.69307 10.7151 4.01307 10.1017C4.17973 9.75508 4.4464 9.22841 4.79973 8.53508C5.09307 9.56841 5.49973 10.3417 6.0064 10.8551C6.1464 11.0017 6.29307 11.0684 6.43973 11.0551C6.50044 11.0514 6.55906 11.0316 6.60948 10.9976C6.6599 10.9636 6.70028 10.9167 6.7264 10.8617C6.77973 10.7551 6.79973 10.6351 6.79307 10.5017C6.75973 10.0084 6.8064 9.31508 6.9464 8.42175C7.0864 7.50841 7.25973 6.84841 7.47307 6.45508C7.52379 6.36125 7.54022 6.25267 7.51954 6.14803C7.49885 6.04339 7.44234 5.94923 7.35973 5.88175C7.26264 5.80209 7.13814 5.76378 7.01307 5.77508C6.85307 5.78842 6.73307 5.86175 6.65307 6.01508C6.31307 6.62841 6.07307 7.62841 5.93307 9.01508C5.7264 8.49508 5.55307 7.87508 5.41307 7.14841C5.35307 6.82175 5.2064 6.66841 4.9664 6.68841C4.8064 6.70175 4.6664 6.80841 4.55973 7.01508L3.3664 9.28841C3.17307 8.49508 2.9864 7.53508 2.81307 6.39508C2.77973 6.10841 2.61973 5.98175 2.33973 6.00175ZM12.8464 6.39508C13.2331 6.47508 13.5197 6.68175 13.7197 7.02841C13.8931 7.32175 13.9797 7.67508 13.9797 8.10175C13.9797 8.66175 13.8397 9.17508 13.5531 9.64175C13.2264 10.1884 12.7997 10.4617 12.2731 10.4617C12.1797 10.4617 12.0797 10.4484 11.9797 10.4284C11.7962 10.3945 11.6225 10.3201 11.4714 10.2105C11.3203 10.1009 11.1956 9.95901 11.1064 9.79508C10.9331 9.49508 10.8464 9.13508 10.8464 8.71508C10.8464 8.15508 10.9864 7.64175 11.2731 7.17508C11.6064 6.62841 12.0331 6.35508 12.5531 6.35508C12.6464 6.36175 12.7397 6.37508 12.8464 6.39508ZM12.6197 9.34175C12.8197 9.16175 12.9597 8.89508 13.0331 8.53508C13.0531 8.40841 13.0731 8.27508 13.0731 8.12841C13.0731 7.96841 13.0397 7.80175 12.9731 7.63508C12.8931 7.42175 12.7797 7.30841 12.6531 7.28175C12.4597 7.24175 12.2664 7.35508 12.0864 7.62175C11.8675 7.92629 11.7529 8.29343 11.7597 8.66841C11.7597 8.82841 11.7931 8.99508 11.8597 9.16175C11.9397 9.37508 12.0531 9.48841 12.1797 9.51508C12.3131 9.54175 12.4597 9.48175 12.6197 9.34175ZM10.2997 7.02841C10.1064 6.68175 9.8064 6.47508 9.4264 6.39508C9.3264 6.37508 9.2264 6.36175 9.13307 6.36175C8.61307 6.36175 8.1864 6.63508 7.85307 7.18175C7.56775 7.64426 7.41978 8.17835 7.4264 8.72175C7.4264 9.14175 7.51307 9.50175 7.6864 9.80175C7.87973 10.1484 8.17307 10.3551 8.55973 10.4351C8.6664 10.4551 8.75973 10.4684 8.85307 10.4684C9.37973 10.4684 9.8064 10.1951 10.1331 9.64841C10.4197 9.18175 10.5597 8.66842 10.5597 8.10842C10.5597 7.67508 10.4731 7.32175 10.2997 7.02841ZM9.61307 8.53508C9.53973 8.89508 9.39973 9.16175 9.19973 9.34175C9.03973 9.48175 8.89307 9.54175 8.75973 9.51508C8.6264 9.48841 8.51973 9.37508 8.43973 9.16175C8.37307 8.99508 8.33973 8.82175 8.33973 8.66841C8.33973 8.53508 8.35307 8.39508 8.37973 8.26841C8.4264 8.04175 8.51973 7.82841 8.6664 7.62175C8.8464 7.35508 9.03973 7.24841 9.23307 7.28175C9.3664 7.30841 9.47307 7.42175 9.55307 7.63508C9.61973 7.80175 9.65307 7.97508 9.65307 8.12841C9.65307 8.27508 9.63973 8.40841 9.61307 8.53508Z" fill="#6F7ADB"/>
</svg>
