<svg width="16" height="17" viewBox="0 0 16 17" fill="none" xmlns="http://www.w3.org/2000/svg">
<path d="M9.93353 3.77507C9.93353 3.77507 9.8002 3.81507 9.57353 3.8884C9.53353 3.7684 9.4802 3.61507 9.4002 3.4684C9.14686 2.98173 8.77353 2.7284 8.3202 2.72173C8.28686 2.72173 8.2602 2.72173 8.22686 2.7284C8.21353 2.71507 8.2002 2.69507 8.18686 2.68173C7.99353 2.4684 7.7402 2.3684 7.4402 2.37507C6.8602 2.39507 6.2802 2.81507 5.80686 3.56174C5.47353 4.0884 5.22686 4.7484 5.15353 5.25507C4.48686 5.46174 4.0202 5.6084 4.00686 5.6084C3.66686 5.71507 3.6602 5.7284 3.61353 6.04173C3.5802 6.28173 2.7002 13.1084 2.7002 13.1084L10.0202 14.3751V3.76173C9.98686 3.76173 9.95353 3.7684 9.93353 3.77507ZM8.2402 4.30173C7.85353 4.42173 7.42686 4.55507 7.00686 4.68174C7.12686 4.22173 7.35353 3.7684 7.63353 3.4684C7.7402 3.35507 7.8802 3.23507 8.05353 3.16173C8.21353 3.50173 8.24686 3.97507 8.2402 4.30173ZM7.44686 2.76173C7.5802 2.76173 7.7002 2.7884 7.8002 2.85507C7.6402 2.93507 7.49353 3.05507 7.34686 3.2084C6.9802 3.60173 6.69353 4.22173 6.5802 4.81507C6.22686 4.92173 5.88686 5.0284 5.56686 5.1284C5.76686 4.1884 6.55353 2.7884 7.44686 2.76173ZM6.31353 8.0884C6.35353 8.7084 7.99353 8.8484 8.08686 10.3084C8.1602 11.4551 7.4802 12.2417 6.49353 12.3017C5.3202 12.3751 4.66686 11.6817 4.66686 11.6817L4.91353 10.6217C4.91353 10.6217 5.56686 11.1151 6.08686 11.0817C6.42686 11.0617 6.54686 10.7817 6.5402 10.5884C6.48686 9.77507 5.15353 9.82173 5.07353 8.4884C5.0002 7.36173 5.7402 6.2284 7.36686 6.12173C8.0002 6.08173 8.3202 6.24173 8.3202 6.24173L7.94686 7.63507C7.94686 7.63507 7.53353 7.4484 7.0402 7.47507C6.3202 7.52173 6.30686 7.97507 6.31353 8.0884ZM8.62686 4.18173C8.62019 3.8884 8.58686 3.47507 8.44686 3.12173C8.88686 3.2084 9.10686 3.70173 9.2002 4.00173C9.03353 4.05507 8.8402 4.11507 8.62686 4.18173ZM10.2602 14.3484L13.3002 13.5951C13.3002 13.5951 11.9935 4.75507 11.9869 4.69507C11.9802 4.63507 11.9269 4.60173 11.8802 4.59507C11.8335 4.5884 10.9802 4.57507 10.9802 4.57507C10.9802 4.57507 10.4602 4.0684 10.2602 3.87507V14.3484Z" fill="#92E84F"/>
</svg>
