<svg width="368" height="132" viewBox="0 0 368 132" fill="none" xmlns="http://www.w3.org/2000/svg">
<rect x="74" y="48.1736" width="148" height="47.6531" rx="3.5" fill="white"/>
<rect x="74" y="48.1736" width="148" height="47.6531" rx="3.5" stroke="#3898FC" stroke-dasharray="2 2"/>
<path d="M125.289 77.6426V67.7726H126.745V77.6426H125.289ZM128.895 77.6426V70.8106H130.267V72.2666H130.113C130.234 71.9306 130.402 71.6459 130.617 71.4126C130.832 71.1792 131.088 71.0019 131.387 70.8806C131.695 70.7499 132.031 70.6846 132.395 70.6846C132.964 70.6846 133.426 70.8199 133.781 71.0906C134.136 71.3612 134.378 71.7766 134.509 72.3366H134.313C134.49 71.8232 134.794 71.4219 135.223 71.1326C135.652 70.8339 136.152 70.6846 136.721 70.6846C137.244 70.6846 137.673 70.7872 138.009 70.9926C138.345 71.1886 138.597 71.4919 138.765 71.9026C138.933 72.3039 139.017 72.8126 139.017 73.4286V77.6426H137.603V73.4986C137.603 72.9199 137.5 72.4952 137.295 72.2246C137.099 71.9539 136.772 71.8186 136.315 71.8186C135.979 71.8186 135.685 71.8979 135.433 72.0566C135.181 72.2152 134.985 72.4486 134.845 72.7566C134.714 73.0552 134.649 73.4099 134.649 73.8206V77.6426H133.235V73.4986C133.235 72.9199 133.137 72.4952 132.941 72.2246C132.745 71.9539 132.418 71.8186 131.961 71.8186C131.616 71.8186 131.317 71.8979 131.065 72.0566C130.822 72.2152 130.636 72.4486 130.505 72.7566C130.374 73.0552 130.309 73.4099 130.309 73.8206V77.6426H128.895ZM140.994 80.1626V70.8106H142.38V72.3506H142.226C142.375 71.8466 142.669 71.4452 143.108 71.1466C143.547 70.8386 144.065 70.6846 144.662 70.6846C145.269 70.6846 145.796 70.8292 146.244 71.1186C146.701 71.4079 147.051 71.8139 147.294 72.3366C147.546 72.8592 147.672 73.4892 147.672 74.2266C147.672 74.9452 147.546 75.5752 147.294 76.1166C147.051 76.6486 146.706 77.0592 146.258 77.3486C145.81 77.6286 145.278 77.7686 144.662 77.7686C144.074 77.7686 143.561 77.6192 143.122 77.3206C142.683 77.0219 142.389 76.6252 142.24 76.1306H142.408V80.1626H140.994ZM144.312 76.6766C144.9 76.6766 145.367 76.4666 145.712 76.0466C146.067 75.6266 146.244 75.0199 146.244 74.2266C146.244 73.4239 146.067 72.8172 145.712 72.4066C145.367 71.9959 144.9 71.7906 144.312 71.7906C143.733 71.7906 143.267 71.9959 142.912 72.4066C142.557 72.8172 142.38 73.4239 142.38 74.2266C142.38 75.0199 142.557 75.6266 142.912 76.0466C143.267 76.4666 143.733 76.6766 144.312 76.6766ZM152.233 77.7686C151.543 77.7686 150.945 77.6239 150.441 77.3346C149.947 77.0452 149.559 76.6346 149.279 76.1026C148.999 75.5706 148.859 74.9452 148.859 74.2266C148.859 73.4986 148.999 72.8732 149.279 72.3506C149.559 71.8186 149.947 71.4079 150.441 71.1186C150.945 70.8292 151.543 70.6846 152.233 70.6846C152.915 70.6846 153.503 70.8292 153.997 71.1186C154.501 71.4079 154.893 71.8186 155.173 72.3506C155.453 72.8826 155.593 73.5079 155.593 74.2266C155.593 74.9452 155.453 75.5706 155.173 76.1026C154.893 76.6346 154.501 77.0452 153.997 77.3346C153.503 77.6239 152.915 77.7686 152.233 77.7686ZM152.219 76.6766C152.807 76.6766 153.279 76.4666 153.633 76.0466C153.988 75.6266 154.165 75.0199 154.165 74.2266C154.165 73.4239 153.988 72.8172 153.633 72.4066C153.279 71.9959 152.807 71.7906 152.219 71.7906C151.641 71.7906 151.174 71.9959 150.819 72.4066C150.465 72.8172 150.287 73.4239 150.287 74.2266C150.287 75.0199 150.465 75.6266 150.819 76.0466C151.174 76.4666 151.641 76.6766 152.219 76.6766ZM157.182 77.6426V70.8106H158.554V72.4486H158.414C158.563 71.8886 158.829 71.4639 159.212 71.1746C159.604 70.8852 160.122 70.7172 160.766 70.6706L161.228 70.6426L161.326 71.8466L160.472 71.9306C159.865 71.9866 159.403 72.1779 159.086 72.5046C158.768 72.8312 158.61 73.2792 158.61 73.8486V77.6426H157.182ZM165.699 77.7686C164.85 77.7686 164.21 77.5492 163.781 77.1106C163.361 76.6719 163.151 76.0372 163.151 75.2066V71.9026H161.821V70.8106H163.151V68.7526H164.565V70.8106H166.679V71.9026H164.565V75.0946C164.565 75.5892 164.668 75.9626 164.873 76.2146C165.088 76.4666 165.433 76.5926 165.909 76.5926C166.049 76.5926 166.189 76.5739 166.329 76.5366C166.478 76.4992 166.623 76.4619 166.763 76.4246L166.987 77.4886C166.847 77.5726 166.651 77.6379 166.399 77.6846C166.156 77.7406 165.923 77.7686 165.699 77.7686ZM175.022 77.7686C174.509 77.7686 174.019 77.7266 173.552 77.6426C173.095 77.5492 172.67 77.4186 172.278 77.2506C171.895 77.0732 171.555 76.8632 171.256 76.6206L171.718 75.4726C172.035 75.7059 172.362 75.9019 172.698 76.0606C173.034 76.2192 173.393 76.3406 173.776 76.4246C174.159 76.4992 174.574 76.5366 175.022 76.5366C175.815 76.5366 176.399 76.3966 176.772 76.1166C177.155 75.8272 177.346 75.4539 177.346 74.9966C177.346 74.7446 177.285 74.5299 177.164 74.3526C177.052 74.1752 176.865 74.0259 176.604 73.9046C176.343 73.7739 176.002 73.6666 175.582 73.5826L174.084 73.2746C173.197 73.0879 172.535 72.7799 172.096 72.3506C171.667 71.9212 171.452 71.3426 171.452 70.6146C171.452 70.0172 171.611 69.4946 171.928 69.0466C172.245 68.5986 172.679 68.2532 173.23 68.0106C173.79 67.7679 174.434 67.6466 175.162 67.6466C175.61 67.6466 176.035 67.6932 176.436 67.7866C176.847 67.8706 177.225 68.0012 177.57 68.1786C177.925 68.3559 178.233 68.5706 178.494 68.8226L178.018 69.9286C177.617 69.5739 177.183 69.3126 176.716 69.1446C176.249 68.9672 175.727 68.8786 175.148 68.8786C174.691 68.8786 174.289 68.9486 173.944 69.0886C173.608 69.2286 173.347 69.4246 173.16 69.6766C172.983 69.9286 172.894 70.2272 172.894 70.5726C172.894 70.9646 173.02 71.2772 173.272 71.5106C173.524 71.7439 173.944 71.9212 174.532 72.0426L176.016 72.3506C176.949 72.5466 177.645 72.8499 178.102 73.2606C178.559 73.6712 178.788 74.2172 178.788 74.8986C178.788 75.4679 178.634 75.9719 178.326 76.4106C178.018 76.8399 177.584 77.1759 177.024 77.4186C176.464 77.6519 175.797 77.7686 175.022 77.7686ZM183.255 77.7686C182.564 77.7686 181.967 77.6239 181.463 77.3346C180.968 77.0452 180.581 76.6346 180.301 76.1026C180.021 75.5706 179.881 74.9452 179.881 74.2266C179.881 73.4986 180.021 72.8732 180.301 72.3506C180.581 71.8186 180.968 71.4079 181.463 71.1186C181.967 70.8292 182.564 70.6846 183.255 70.6846C183.936 70.6846 184.524 70.8292 185.019 71.1186C185.523 71.4079 185.915 71.8186 186.195 72.3506C186.475 72.8826 186.615 73.5079 186.615 74.2266C186.615 74.9452 186.475 75.5706 186.195 76.1026C185.915 76.6346 185.523 77.0452 185.019 77.3346C184.524 77.6239 183.936 77.7686 183.255 77.7686ZM183.241 76.6766C183.829 76.6766 184.3 76.4666 184.655 76.0466C185.01 75.6266 185.187 75.0199 185.187 74.2266C185.187 73.4239 185.01 72.8172 184.655 72.4066C184.3 71.9959 183.829 71.7906 183.241 71.7906C182.662 71.7906 182.196 71.9959 181.841 72.4066C181.486 72.8172 181.309 73.4239 181.309 74.2266C181.309 75.0199 181.486 75.6266 181.841 76.0466C182.196 76.4666 182.662 76.6766 183.241 76.6766ZM190.639 77.7686C190.088 77.7686 189.626 77.6659 189.253 77.4606C188.889 77.2552 188.614 76.9519 188.427 76.5506C188.25 76.1399 188.161 75.6266 188.161 75.0106V70.8106H189.575V75.0246C189.575 75.3886 189.622 75.6919 189.715 75.9346C189.818 76.1772 189.972 76.3546 190.177 76.4666C190.392 76.5786 190.658 76.6346 190.975 76.6346C191.33 76.6346 191.642 76.5552 191.913 76.3966C192.184 76.2379 192.394 76.0092 192.543 75.7106C192.692 75.4119 192.767 75.0666 192.767 74.6746V70.8106H194.181V77.6426H192.809V76.1446H192.991C192.804 76.6672 192.506 77.0686 192.095 77.3486C191.684 77.6286 191.199 77.7686 190.639 77.7686ZM196.174 77.6426V70.8106H197.546V72.4486H197.406C197.555 71.8886 197.821 71.4639 198.204 71.1746C198.596 70.8852 199.114 70.7172 199.758 70.6706L200.22 70.6426L200.318 71.8466L199.464 71.9306C198.857 71.9866 198.395 72.1779 198.078 72.5046C197.76 72.8312 197.602 73.2792 197.602 73.8486V77.6426H196.174ZM204.311 77.7686C203.611 77.7686 203.004 77.6239 202.491 77.3346C201.987 77.0359 201.595 76.6206 201.315 76.0886C201.035 75.5472 200.895 74.9126 200.895 74.1846C200.895 73.4659 201.035 72.8452 201.315 72.3226C201.595 71.7999 201.987 71.3986 202.491 71.1186C203.004 70.8292 203.611 70.6846 204.311 70.6846C204.74 70.6846 205.165 70.7592 205.585 70.9086C206.005 71.0486 206.35 71.2539 206.621 71.5246L206.173 72.5186C205.921 72.2759 205.636 72.0986 205.319 71.9866C205.001 71.8652 204.703 71.8046 204.423 71.8046C203.76 71.8046 203.247 72.0146 202.883 72.4346C202.528 72.8452 202.351 73.4332 202.351 74.1986C202.351 74.9639 202.528 75.5659 202.883 76.0046C203.247 76.4339 203.76 76.6486 204.423 76.6486C204.703 76.6486 205.001 76.5926 205.319 76.4806C205.636 76.3592 205.921 76.1772 206.173 75.9346L206.621 76.9426C206.35 77.1946 206 77.3952 205.571 77.5446C205.151 77.6939 204.731 77.7686 204.311 77.7686ZM210.905 77.7686C210.158 77.7686 209.514 77.6286 208.973 77.3486C208.441 77.0592 208.026 76.6532 207.727 76.1306C207.438 75.5986 207.293 74.9686 207.293 74.2406C207.293 73.5312 207.438 72.9106 207.727 72.3786C208.016 71.8466 208.413 71.4312 208.917 71.1326C209.421 70.8339 209.995 70.6846 210.639 70.6846C211.274 70.6846 211.815 70.8246 212.263 71.1046C212.72 71.3752 213.07 71.7626 213.313 72.2666C213.556 72.7706 213.677 73.3726 213.677 74.0726V74.5486H208.413V73.6806H212.725L212.487 73.8766C212.487 73.1766 212.333 72.6352 212.025 72.2526C211.717 71.8699 211.274 71.6786 210.695 71.6786C210.256 71.6786 209.883 71.7812 209.575 71.9866C209.276 72.1919 209.048 72.4766 208.889 72.8406C208.73 73.2046 208.651 73.6292 208.651 74.1146V74.1986C208.651 74.7399 208.735 75.1972 208.903 75.5706C209.08 75.9346 209.337 76.2099 209.673 76.3966C210.009 76.5832 210.424 76.6766 210.919 76.6766C211.311 76.6766 211.694 76.6159 212.067 76.4946C212.45 76.3639 212.809 76.1632 213.145 75.8926L213.565 76.8726C213.257 77.1526 212.86 77.3719 212.375 77.5306C211.89 77.6892 211.4 77.7686 210.905 77.7686Z" fill="#3898FC"/>
<rect x="86.2188" y="60.1484" width="24" height="24" rx="4" fill="#3898FC" fill-opacity="0.2"/>
<path d="M93.4207 74.068V76.2809C93.4207 76.6162 93.5471 76.9379 93.7721 77.175C93.9972 77.4121 94.3024 77.5454 94.6207 77.5454H101.821C102.139 77.5454 102.444 77.4121 102.669 77.175C102.894 76.9379 103.021 76.6162 103.021 76.2809V74.068M98.2211 73.9109L98.2211 66.7454M98.2211 66.7454L95.4782 69.4833M98.2211 66.7454L100.964 69.4833" stroke="#3898FC" stroke-width="1.5" stroke-linecap="round" stroke-linejoin="round"/>
<g filter="url(#filter0_d_1371_2418)">
<path d="M240.233 49.6546L239.724 48.2312C239.004 46.2135 236.983 44.9598 234.851 45.2086L214.598 47.5737C212.072 47.8686 210.264 50.1526 210.559 52.6751L216.324 101.883C216.527 103.613 218.095 104.852 219.828 104.649L292.29 96.1876C294.022 95.9854 295.263 94.419 295.06 92.6894L290.077 50.1504C289.874 48.4208 288.306 47.1824 286.573 47.3846L244.495 52.2981C242.631 52.5156 240.864 51.4193 240.233 49.6546Z" fill="#3B495E"/>
<path d="M242.249 28.7565L218.864 33.2739L225.337 64.7427L248.723 60.2252L242.249 28.7565Z" fill="#C6CFD5"/>
<path opacity="0.7" d="M242.249 28.7611L218.864 33.2786L225.337 64.7473L248.723 60.2299L242.249 28.7611Z" fill="white"/>
<path d="M239.281 35.5094L225.141 38.0161C224.456 38.1378 223.789 37.7417 223.652 37.1318C223.515 36.5218 223.961 35.9289 224.646 35.8072L238.786 33.3005C239.472 33.1788 240.139 33.5749 240.275 34.1848C240.412 34.7948 239.967 35.3877 239.281 35.5094Z" fill="#C6CFD5"/>
<path d="M240.472 40.2689L226.332 42.7756C225.646 42.8973 224.98 42.5012 224.843 41.8913C224.706 41.2814 225.152 40.6884 225.837 40.5667L239.977 38.0601C240.663 37.9384 241.33 38.3344 241.467 38.9444C241.603 39.5547 241.158 40.1476 240.472 40.2689Z" fill="#C6CFD5"/>
<path d="M241.663 46.2182L227.523 48.7248C226.837 48.8465 226.171 48.4505 226.034 47.8405C225.897 47.2306 226.342 46.6376 227.028 46.5159L241.168 44.0093C241.854 43.8876 242.521 44.2836 242.657 44.8936C242.794 45.5035 242.349 46.0965 241.663 46.2182Z" fill="#C6CFD5"/>
<path d="M242.854 50.9777L228.714 53.4843C228.028 53.606 227.362 53.21 227.225 52.6C227.088 51.9901 227.533 51.3972 228.219 51.2755L242.359 48.7688C243.045 48.6471 243.712 49.0432 243.848 49.6531C243.985 50.2634 243.54 50.8564 242.854 50.9777Z" fill="#C6CFD5"/>
<path d="M240.449 57.3023L229.939 59.4301C229.238 59.5723 228.556 59.1096 228.416 58.3971C228.276 57.6846 228.732 56.9919 229.433 56.8498L239.943 54.722C240.644 54.5798 241.326 55.0425 241.466 55.755C241.605 56.4675 241.15 57.1601 240.449 57.3023Z" fill="#C6CFD5"/>
<path d="M275.812 22.9506L252.209 26.144L256.615 57.9676L280.218 54.7742L275.812 22.9506Z" fill="#C6CFD5"/>
<path opacity="0.7" d="M275.812 22.9462L252.209 26.1396L256.615 57.9633L280.218 54.7698L275.812 22.9462Z" fill="white"/>
<path d="M271.37 30.0022L257.207 32.076C256.521 32.1765 255.888 31.6624 255.794 30.9278C255.7 30.1933 256.18 29.516 256.867 29.4155L271.029 27.3416C271.716 27.2412 272.349 27.7553 272.443 28.4899C272.537 29.2249 272.057 29.9017 271.37 30.0022Z" fill="#C6CFD5"/>
<path d="M272.561 34.7615L258.398 36.8356C257.712 36.9361 257.079 36.4218 256.985 35.6872C256.891 34.9522 257.371 34.2753 258.058 34.1747L272.22 32.1012C272.907 32.0007 273.54 32.5149 273.634 33.2495C273.728 33.9837 273.247 34.661 272.561 34.7615Z" fill="#C6CFD5"/>
<path d="M261.92 42.1574L258.296 42.7837C257.659 42.8938 257.071 42.3303 256.984 41.5252C256.897 40.7197 257.343 39.9779 257.98 39.8678L261.604 39.2415C262.241 39.1314 262.829 39.6949 262.917 40.4999C263.004 41.3055 262.558 42.0473 261.92 42.1574Z" fill="#C6CFD5"/>
<path d="M270.256 40.9675L266.633 41.5937C265.995 41.7038 265.407 41.1403 265.32 40.3353C265.233 39.5303 265.679 38.788 266.317 38.6778L269.94 38.0516C270.578 37.9415 271.166 38.505 271.253 39.31C271.34 40.115 270.894 40.8573 270.256 40.9675Z" fill="#C6CFD5"/>
<path d="M273.751 45.4705L259.589 47.5443C258.903 47.6448 258.269 47.1306 258.176 46.3961C258.082 45.6611 258.562 44.9842 259.249 44.8837L273.411 42.8099C274.098 42.7094 274.731 43.2236 274.825 43.9581C274.919 44.6927 274.438 45.3695 273.751 45.4705Z" fill="#C6CFD5"/>
<path d="M270.153 51.0227L259.622 52.3058C258.92 52.3913 258.272 51.9535 258.176 51.3282C258.08 50.7028 258.571 50.1261 259.274 50.0405L269.805 48.7575C270.508 48.6719 271.156 49.1097 271.252 49.7351C271.348 50.3605 270.856 50.9372 270.153 51.0227Z" fill="#C6CFD5"/>
<path d="M253.315 27.6984L229.582 29.709L232.343 60.5224L256.076 58.5118L253.315 27.6984Z" fill="white"/>
<path opacity="0.8" d="M253.315 27.6984L229.582 29.709L232.343 60.5224L256.076 58.5118L253.315 27.6984Z" fill="white"/>
<path d="M248.686 34.4729L234.512 35.6537C233.825 35.711 233.219 35.2248 233.159 34.5674C233.099 33.9105 233.608 33.3313 234.296 33.274L248.47 32.0932C249.157 32.0359 249.763 32.5221 249.823 33.1794C249.882 33.8368 249.373 34.4155 248.686 34.4729Z" fill="#C6CFD5"/>
<path d="M248.686 39.2325L234.512 40.4132C233.825 40.4705 233.219 39.9843 233.159 39.3271C233.099 38.6702 233.608 38.0911 234.296 38.0338L248.47 36.8527C249.157 36.7954 249.763 37.2816 249.822 37.9388C249.882 38.5961 249.374 39.1752 248.686 39.2325Z" fill="#C6CFD5"/>
<path d="M249.877 45.1816L235.703 46.3624C235.016 46.4197 234.41 45.9335 234.35 45.2762C234.29 44.6188 234.799 44.0401 235.486 43.9828L249.66 42.802C250.348 42.7446 250.953 43.2308 251.013 43.8882C251.073 44.5451 250.564 45.1243 249.877 45.1816Z" fill="#C6CFD5"/>
<path d="M249.877 49.9411L235.703 51.1219C235.016 51.1792 234.41 50.693 234.35 50.0357C234.29 49.3788 234.799 48.7996 235.486 48.7423L249.66 47.5615C250.348 47.5042 250.953 47.9903 251.013 48.6477C251.073 49.3046 250.564 49.8838 249.877 49.9411Z" fill="#C6CFD5"/>
<path d="M247.469 56.1275L236.926 57.0709C236.223 57.1339 235.603 56.5994 235.541 55.8768C235.48 55.1546 236 54.5178 236.704 54.4548L247.247 53.5114C247.95 53.4484 248.57 53.9829 248.632 54.7055C248.692 55.4278 248.172 56.0645 247.469 56.1275Z" fill="#C6CFD5"/>
<path d="M292.672 26.1852L268.882 27.3291L270.436 59.4181L294.227 58.2743L292.672 26.1852Z" fill="white"/>
<path opacity="0.8" d="M292.672 26.1852L268.882 27.3291L270.436 59.4181L294.227 58.2743L292.672 26.1852Z" fill="white"/>
<path d="M287.941 33.6978L273.761 34.4667C273.074 34.5038 272.489 33.9079 272.456 33.1353C272.423 32.3628 272.953 31.7063 273.641 31.6691L287.821 30.9003C288.508 30.8632 289.092 31.4591 289.126 32.2317C289.159 33.0038 288.628 33.6603 287.941 33.6978Z" fill="#C6CFD5"/>
<path d="M287.941 39.6473L273.761 40.4161C273.073 40.4532 272.49 39.8574 272.456 39.0848C272.423 38.3122 272.953 37.6557 273.641 37.6186L287.821 36.8498C288.508 36.8127 289.093 37.4085 289.126 38.1811C289.159 38.9532 288.628 39.6097 287.941 39.6473Z" fill="#C6CFD5"/>
<path d="M278.276 45.0084L273.913 45.1758C273.146 45.2051 272.493 44.7345 272.456 44.1242C272.419 43.514 273.012 42.9958 273.779 42.9661L278.141 42.7987C278.909 42.7693 279.561 43.24 279.598 43.8503C279.636 44.4605 279.044 44.9791 278.276 45.0084Z" fill="#C6CFD5"/>
<path d="M286.612 43.8185L282.25 43.9859C281.482 44.0152 280.83 43.5445 280.793 42.9343C280.756 42.324 281.348 41.8058 282.116 41.7761L286.478 41.6087C287.246 41.5794 287.898 42.0501 287.935 42.6603C287.972 43.2706 287.38 43.7888 286.612 43.8185Z" fill="#C6CFD5"/>
<path d="M289.132 50.3561L274.952 51.1249C274.264 51.162 273.68 50.5661 273.647 49.7935C273.614 49.021 274.144 48.3645 274.832 48.3273L289.012 47.5585C289.699 47.5214 290.284 48.1173 290.317 48.8899C290.35 49.6624 289.819 50.3185 289.132 50.3561Z" fill="#C6CFD5"/>
<path d="M285.531 55.2906L274.983 55.8843C274.279 55.9237 273.681 55.2906 273.647 54.4697C273.613 53.6488 274.156 52.9513 274.86 52.9118L285.408 52.3182C286.112 52.2787 286.71 52.9118 286.744 53.7327C286.777 54.5536 286.234 55.2511 285.531 55.2906Z" fill="#C6CFD5"/>
<path d="M247.271 50.7401L246.9 49.3473C246.375 47.3727 244.494 46.1501 242.365 46.399L222.137 48.7642C219.613 49.0592 217.615 51.3004 217.674 53.7702L218.822 101.949C218.862 103.642 220.298 104.851 222.028 104.649L294.403 96.1852C296.133 95.9829 297.503 94.4458 297.463 92.7522L296.471 51.104C296.431 49.4104 294.995 48.2018 293.264 48.404L251.238 53.3186C249.376 53.5361 247.731 52.4667 247.271 50.7401Z" fill="#76A6F5"/>
<path opacity="0.3" d="M247.271 50.7401L246.9 49.3473C246.375 47.3727 244.494 46.1501 242.365 46.399L222.137 48.7642C219.613 49.0592 217.615 51.3004 217.674 53.7702L218.822 101.949C218.862 103.642 220.298 104.851 222.028 104.649L294.403 96.1852C296.133 95.9829 297.503 94.4458 297.463 92.7522L296.471 51.104C296.431 49.4104 294.995 48.2018 293.264 48.404L251.238 53.3186C249.376 53.5361 247.731 52.4667 247.271 50.7401Z" fill="#76A6F5"/>
</g>
<path d="M246.066 80.643L245.223 71.5169L248.616 71.2224C249.635 71.1339 250.515 71.2359 251.255 71.5283C252.005 71.8199 252.596 72.2905 253.031 72.9401C253.473 73.5802 253.739 74.3879 253.829 75.3631C253.919 76.3383 253.805 77.1832 253.489 77.898C253.18 78.612 252.684 79.177 252 79.593C251.325 80.0083 250.478 80.2601 249.459 80.3485L246.066 80.643ZM247.597 79.127L249.229 78.9854C250.291 78.8932 251.056 78.5614 251.526 77.99C252.003 77.4093 252.192 76.5838 252.093 75.5137C251.995 74.4436 251.657 73.6682 251.082 73.1875C250.507 72.7067 249.692 72.5121 248.639 72.6035L247.007 72.7451L247.597 79.127ZM257.873 79.7488C257.415 79.7885 256.997 79.7378 256.618 79.5967C256.248 79.4462 255.945 79.2289 255.71 78.9448C255.483 78.66 255.352 78.3278 255.317 77.948C255.274 77.482 255.361 77.1048 255.578 76.8162C255.794 76.5191 256.169 76.2865 256.702 76.1185C257.235 75.9505 257.959 75.8267 258.874 75.7473L259.521 75.6911L259.607 76.6231L258.973 76.6782C258.567 76.7134 258.228 76.7603 257.954 76.8188C257.681 76.8687 257.46 76.9356 257.294 77.0196C257.136 77.0943 257.023 77.1911 256.955 77.31C256.897 77.4282 256.875 77.5693 256.89 77.7332C256.916 78.018 257.037 78.2424 257.253 78.4064C257.468 78.5704 257.752 78.637 258.106 78.6063C258.391 78.5816 258.636 78.4951 258.84 78.3469C259.051 78.1894 259.211 77.9885 259.319 77.7442C259.427 77.5 259.467 77.2268 259.439 76.9248L259.302 75.4361C259.262 75.0046 259.138 74.7022 258.931 74.5288C258.723 74.3554 258.395 74.2882 257.946 74.3272C257.592 74.3579 257.235 74.4455 256.874 74.5899C256.512 74.7257 256.152 74.9223 255.793 75.1796L255.225 74.1198C255.435 73.9449 255.686 73.7883 255.978 73.6499C256.277 73.5021 256.593 73.3834 256.924 73.2938C257.263 73.1947 257.584 73.1321 257.886 73.1059C258.507 73.0519 259.026 73.1027 259.44 73.258C259.864 73.4127 260.192 73.6756 260.427 74.0467C260.661 74.4092 260.805 74.8924 260.861 75.4965L261.215 79.3282L259.7 79.4597L259.575 78.1135L259.679 78.1045C259.646 78.4118 259.55 78.6855 259.389 78.9256C259.237 79.1563 259.032 79.3437 258.775 79.4878C258.519 79.6318 258.218 79.7188 257.873 79.7488ZM265.771 79.0633C264.925 79.1367 264.275 78.98 263.822 78.5931C263.368 78.2062 263.104 77.6071 263.029 76.7959L262.775 74.0387L261.557 74.1443L261.445 72.9275L262.662 72.8218L262.488 70.9319L264.106 70.7914L264.281 72.6813L266.198 72.515L266.31 73.7318L264.393 73.8982L264.64 76.5648C264.678 76.979 264.797 77.2819 264.998 77.4732C265.198 77.6646 265.501 77.7427 265.907 77.7075C266.028 77.697 266.152 77.6732 266.279 77.636C266.405 77.5903 266.536 77.5442 266.671 77.4976L267.027 78.6672C266.88 78.767 266.687 78.8533 266.451 78.926C266.222 78.9981 265.996 79.0438 265.771 79.0633ZM269.926 78.7027C269.468 78.7424 269.05 78.6917 268.672 78.5506C268.301 78.4001 267.998 78.1828 267.763 77.8987C267.536 77.6139 267.406 77.2817 267.37 76.9019C267.327 76.4359 267.414 76.0587 267.632 75.7702C267.848 75.473 268.222 75.2404 268.755 75.0724C269.288 74.9044 270.012 74.7806 270.927 74.7012L271.575 74.645L271.661 75.577L271.026 75.6321C270.62 75.6673 270.281 75.7142 270.008 75.7727C269.734 75.8226 269.514 75.8895 269.347 75.9735C269.189 76.0482 269.076 76.145 269.009 76.2639C268.95 76.3821 268.928 76.5232 268.943 76.6871C268.97 76.9719 269.091 77.1963 269.306 77.3603C269.521 77.5243 269.806 77.5909 270.16 77.5602C270.445 77.5355 270.689 77.449 270.893 77.3009C271.105 77.1433 271.265 76.9424 271.373 76.6981C271.481 76.4539 271.521 76.1807 271.493 75.8787L271.355 74.39C271.315 73.9585 271.192 73.6561 270.984 73.4827C270.777 73.3094 270.449 73.2421 270 73.2811C269.646 73.3118 269.288 73.3994 268.927 73.5438C268.566 73.6796 268.205 73.8762 267.846 74.1335L267.278 73.0737C267.488 72.8988 267.739 72.7422 268.031 72.6038C268.331 72.456 268.646 72.3373 268.977 72.2477C269.316 72.1486 269.637 72.086 269.939 72.0598C270.561 72.0058 271.079 72.0566 271.494 72.212C271.917 72.3666 272.246 72.6295 272.48 73.0006C272.714 73.3631 272.859 73.8463 272.914 74.4504L273.268 78.2821L271.753 78.4136L271.629 77.0674L271.732 77.0584C271.7 77.3657 271.603 77.6394 271.443 77.8795C271.29 78.1102 271.085 78.2976 270.829 78.4417C270.572 78.5857 270.271 78.6727 269.926 78.7027Z" fill="white"/>
<defs>
<filter id="filter0_d_1371_2418" x="205.027" y="20.4463" width="93.9365" height="88.7246" filterUnits="userSpaceOnUse" color-interpolation-filters="sRGB">
<feFlood flood-opacity="0" result="BackgroundImageFix"/>
<feColorMatrix in="SourceAlpha" type="matrix" values="0 0 0 0 0 0 0 0 0 0 0 0 0 0 0 0 0 0 127 0" result="hardAlpha"/>
<feOffset dx="-2" dy="1"/>
<feGaussianBlur stdDeviation="1.75"/>
<feComposite in2="hardAlpha" operator="out"/>
<feColorMatrix type="matrix" values="0 0 0 0 0 0 0 0 0 0 0 0 0 0 0 0 0 0 0.1 0"/>
<feBlend mode="normal" in2="BackgroundImageFix" result="effect1_dropShadow_1371_2418"/>
<feBlend mode="normal" in="SourceGraphic" in2="effect1_dropShadow_1371_2418" result="shape"/>
</filter>
</defs>
</svg>
