<svg width="403" height="403" viewBox="0 0 403 403" fill="none" xmlns="http://www.w3.org/2000/svg">
<path d="M159.496 223.89C126.713 216.276 98.8841 219.87 75.5014 187.747C53.3892 157.385 59.5967 130.577 82.2557 107.556C141.46 47.4431 200.359 123.895 274.19 136.149C338.516 146.827 357.267 253.022 301.842 290.002C283.983 301.926 248.893 312.902 227.995 296.837C198.743 274.314 204.556 234.343 159.496 223.89Z" fill="rgba(56, 152, 252, 1)"/>
<path opacity="0.9" d="M159.496 223.89C126.713 216.276 98.8841 219.87 75.5014 187.747C53.3892 157.385 59.5967 130.577 82.2557 107.556C141.46 47.4431 200.359 123.895 274.19 136.149C338.516 146.827 357.267 253.022 301.842 290.002C283.983 301.926 248.893 312.902 227.995 296.837C198.743 274.314 204.556 234.343 159.496 223.89Z" fill="white"/>
<path d="M201.025 343.791C287.128 343.791 356.928 339.716 356.928 334.689C356.928 329.662 287.128 325.587 201.025 325.587C114.922 325.587 45.122 329.662 45.122 334.689C45.122 339.716 114.922 343.791 201.025 343.791Z" fill="#F5F5F5"/>
<path d="M285.83 326.707C285.831 328.313 285.262 329.869 284.224 331.095C283.186 332.322 281.746 333.14 280.161 333.405C260.653 336.696 240.731 336.696 221.222 333.405C219.644 333.133 218.213 332.311 217.183 331.085C216.152 329.859 215.589 328.308 215.594 326.707V261.576H285.862L285.83 326.707Z" fill="rgba(56, 152, 252, 1)"/>
<path opacity="0.3" d="M215.553 262.75V271.892C219.783 273.46 233.669 274.61 250.692 274.61C267.714 274.61 281.624 273.46 285.83 271.892V262.75H215.553Z" fill="black"/>
<path d="M287.148 269.72C287.148 271.786 271.195 273.459 250.691 273.459C230.187 273.459 214.234 271.786 214.234 269.72L213.567 261.599H287.856L287.148 269.72Z" fill="rgba(56, 152, 252, 1)"/>
<path d="M250.691 265.33C271.194 265.33 287.815 263.66 287.815 261.599C287.815 259.539 271.194 257.868 250.691 257.868C230.188 257.868 213.567 259.539 213.567 261.599C213.567 263.66 230.188 265.33 250.691 265.33Z" fill="rgba(56, 152, 252, 1)"/>
<path opacity="0.3" d="M250.691 265.33C271.194 265.33 287.815 263.66 287.815 261.599C287.815 259.539 271.194 257.868 250.691 257.868C230.188 257.868 213.567 259.539 213.567 261.599C213.567 263.66 230.188 265.33 250.691 265.33Z" fill="black"/>
<path opacity="0.2" d="M224.98 322.123C224.257 322.121 223.565 321.833 223.055 321.322C222.544 320.812 222.256 320.12 222.254 319.397V282.056C222.256 281.334 222.544 280.642 223.055 280.131C223.565 279.62 224.257 279.332 224.98 279.33C225.701 279.334 226.392 279.623 226.903 280.133C227.413 280.643 227.701 281.334 227.706 282.056V319.397C227.701 320.119 227.413 320.81 226.903 321.32C226.392 321.83 225.701 322.119 224.98 322.123Z" fill="black"/>
<path opacity="0.2" d="M276.411 322.123C275.689 322.121 274.997 321.833 274.486 321.322C273.975 320.812 273.687 320.12 273.685 319.397V282.056C273.687 281.334 273.975 280.642 274.486 280.131C274.997 279.62 275.689 279.332 276.411 279.33C277.133 279.334 277.824 279.623 278.334 280.133C278.844 280.643 279.133 281.334 279.137 282.056V319.397C279.133 320.119 278.844 320.81 278.334 321.32C277.824 321.83 277.133 322.119 276.411 322.123Z" fill="black"/>
<path opacity="0.2" d="M259.263 322.123C258.541 322.119 257.85 321.83 257.34 321.32C256.83 320.81 256.541 320.119 256.537 319.397V282.056C256.541 281.334 256.83 280.643 257.34 280.133C257.85 279.623 258.541 279.334 259.263 279.33C259.985 279.332 260.677 279.62 261.188 280.131C261.699 280.642 261.987 281.334 261.989 282.056V319.397C261.987 320.12 261.699 320.812 261.188 321.322C260.677 321.833 259.985 322.121 259.263 322.123Z" fill="black"/>
<path opacity="0.2" d="M242.122 322.123C241.4 322.119 240.709 321.83 240.199 321.32C239.689 320.81 239.4 320.119 239.396 319.397V282.056C239.4 281.334 239.689 280.643 240.199 280.133C240.709 279.623 241.4 279.334 242.122 279.33C242.844 279.332 243.536 279.62 244.047 280.131C244.557 280.642 244.845 281.334 244.847 282.056V319.397C244.845 320.12 244.557 320.812 244.047 321.322C243.536 321.833 242.844 322.121 242.122 322.123Z" fill="black"/>
<path d="M155.089 111.896C155.089 112.633 154.87 113.355 154.461 113.968C154.051 114.582 153.468 115.06 152.786 115.342C152.105 115.625 151.355 115.698 150.631 115.554C149.907 115.411 149.242 115.055 148.721 114.534C148.199 114.012 147.844 113.347 147.7 112.623C147.556 111.9 147.63 111.15 147.912 110.468C148.194 109.786 148.673 109.204 149.286 108.794C149.9 108.384 150.621 108.165 151.359 108.165C152.348 108.165 153.297 108.558 153.997 109.258C154.696 109.957 155.089 110.906 155.089 111.896Z" fill="#263238"/>
<path d="M148.36 112.435C148.324 112.436 148.288 112.427 148.257 112.408C148.226 112.39 148.2 112.363 148.184 112.331C147.937 111.878 147.782 111.381 147.728 110.868C147.673 110.355 147.72 109.837 147.866 109.342C148.012 108.847 148.254 108.386 148.578 107.985C148.902 107.584 149.302 107.251 149.755 107.004C150.208 106.758 150.705 106.603 151.218 106.548C151.731 106.494 152.25 106.541 152.744 106.687C153.239 106.833 153.7 107.075 154.101 107.399C154.502 107.723 154.835 108.123 155.082 108.576C155.105 108.623 155.11 108.678 155.095 108.728C155.081 108.779 155.047 108.822 155.001 108.849C154.978 108.862 154.953 108.87 154.926 108.873C154.9 108.876 154.873 108.873 154.848 108.866C154.823 108.858 154.799 108.846 154.778 108.829C154.758 108.813 154.741 108.792 154.728 108.769C154.281 107.948 153.527 107.338 152.63 107.074C151.734 106.809 150.769 106.911 149.948 107.358C149.127 107.805 148.517 108.559 148.253 109.456C147.988 110.352 148.091 111.317 148.537 112.138C148.55 112.161 148.558 112.186 148.561 112.213C148.564 112.239 148.561 112.266 148.554 112.291C148.546 112.317 148.534 112.34 148.517 112.361C148.501 112.381 148.48 112.398 148.457 112.411C148.427 112.426 148.394 112.435 148.36 112.435Z" fill="#263238"/>
<path d="M144.731 128.941C144.005 128.938 143.293 128.733 142.675 128.35C142.058 127.967 141.558 127.421 141.233 126.771C140.907 126.121 140.768 125.394 140.83 124.67C140.893 123.946 141.155 123.253 141.588 122.669C141.896 122.257 142.283 121.908 142.725 121.645C143.168 121.381 143.659 121.208 144.169 121.134C144.195 121.129 144.221 121.13 144.247 121.136C144.272 121.142 144.297 121.154 144.318 121.169C144.339 121.185 144.356 121.205 144.37 121.228C144.383 121.251 144.391 121.276 144.394 121.303C144.401 121.355 144.387 121.408 144.355 121.45C144.324 121.492 144.277 121.52 144.225 121.528C143.301 121.663 142.468 122.16 141.91 122.91C141.352 123.659 141.115 124.599 141.25 125.524C141.385 126.448 141.883 127.281 142.632 127.839C143.381 128.396 144.322 128.634 145.246 128.498C145.299 128.49 145.354 128.503 145.398 128.535C145.441 128.566 145.471 128.614 145.479 128.667C145.488 128.721 145.475 128.775 145.443 128.819C145.411 128.863 145.364 128.892 145.31 128.9C145.118 128.926 144.925 128.939 144.731 128.941Z" fill="#263238"/>
<path d="M165.006 135.019C164.252 135.018 163.515 134.798 162.884 134.384C162.839 134.355 162.807 134.309 162.795 134.256C162.783 134.204 162.792 134.149 162.819 134.103C162.85 134.059 162.897 134.029 162.949 134.019C163.001 134.008 163.056 134.018 163.101 134.046C163.884 134.555 164.838 134.731 165.752 134.537C166.665 134.342 167.464 133.793 167.973 133.009C168.482 132.226 168.658 131.272 168.464 130.358C168.269 129.445 167.72 128.646 166.936 128.137C166.891 128.107 166.859 128.062 166.847 128.009C166.835 127.957 166.844 127.902 166.872 127.856C166.902 127.812 166.949 127.782 167.001 127.772C167.053 127.761 167.108 127.771 167.153 127.799C168.025 128.367 168.636 129.257 168.853 130.274C169.07 131.291 168.875 132.353 168.311 133.226C168.032 133.661 167.67 134.036 167.245 134.329C166.819 134.621 166.34 134.826 165.834 134.931C165.562 134.988 165.285 135.018 165.006 135.019Z" fill="#263238"/>
<path d="M149.272 123.534C152.185 123.534 154.546 121.172 154.546 118.259C154.546 115.346 152.185 112.984 149.272 112.984C146.358 112.984 143.997 115.346 143.997 118.259C143.997 121.172 146.358 123.534 149.272 123.534Z" fill="#263238"/>
<path d="M154.218 130.304C156.95 127.572 156.95 123.143 154.218 120.411C151.486 117.679 147.057 117.679 144.325 120.411C141.593 123.143 141.593 127.572 144.325 130.304C147.057 133.036 151.486 133.036 154.218 130.304Z" fill="#263238"/>
<path d="M150.009 141.985C154.281 141.985 157.744 138.522 157.744 134.25C157.744 129.978 154.281 126.515 150.009 126.515C145.737 126.515 142.274 129.978 142.274 134.25C142.274 138.522 145.737 141.985 150.009 141.985Z" fill="#263238"/>
<path d="M165.275 136.552C166.256 132.394 163.681 128.228 159.523 127.247C155.365 126.265 151.199 128.84 150.218 132.998C149.237 137.156 151.812 141.322 155.97 142.303C160.127 143.285 164.293 140.71 165.275 136.552Z" fill="#263238"/>
<path d="M183.404 150.732C183.404 151.359 183.405 152.155 183.461 152.879C183.517 153.603 183.517 154.375 183.565 155.122C183.67 156.618 183.774 158.13 183.935 159.633C184.225 162.651 184.629 165.656 185.149 168.647C185.286 169.387 185.407 170.143 185.559 170.882L185.913 172.708C186.002 172.997 185.913 172.941 185.801 172.933C185.688 172.925 185.801 173.077 186.275 173.077C187.489 172.956 188.672 172.615 189.765 172.072C190.408 171.783 191.067 171.469 191.727 171.132C192.386 170.794 193.053 170.408 193.657 170.07L196.004 172.78C195.444 173.421 194.848 174.031 194.219 174.605C193.6 175.195 192.945 175.745 192.257 176.254C191.537 176.796 190.776 177.282 189.982 177.709C189.078 178.202 188.109 178.565 187.103 178.786C186.483 178.922 185.848 178.976 185.214 178.947C184.44 178.902 183.681 178.711 182.978 178.384C182.231 178.033 181.565 177.529 181.024 176.905C180.56 176.362 180.181 175.752 179.899 175.096C179.68 174.593 179.503 174.075 179.368 173.544L179.054 172.37C178.829 171.566 178.644 170.802 178.451 170.014C177.699 166.853 177.119 163.653 176.715 160.429C176.514 158.821 176.353 157.213 176.256 155.565C176.208 154.76 176.168 153.956 176.144 153.104C176.12 152.252 176.144 151.496 176.144 150.539L183.404 150.732Z" fill="#FFB573"/>
<path d="M179.501 142.065C186.36 147.315 186.087 157.213 186.087 157.213L173.817 160.148C173.817 160.148 170.054 150.194 171.581 146.552C173.173 142.756 175.642 139.106 179.501 142.065Z" fill="rgba(56, 152, 252, 1)"/>
<path opacity="0.7" d="M179.501 142.065C186.36 147.315 186.087 157.213 186.087 157.213L173.817 160.148C173.817 160.148 170.054 150.194 171.581 146.552C173.173 142.756 175.642 139.106 179.501 142.065Z" fill="white"/>
<path d="M193.196 170.997L195.223 167.588L200.304 173.023C200.304 173.023 196.662 175.355 192.883 173.69L193.196 170.997Z" fill="#FFB573"/>
<path d="M197.721 165.955L204.241 169.798L200.302 173.022L195.22 167.587L197.721 165.955Z" fill="#FFB573"/>
<path d="M141.111 328.756L148.122 329.431L152.48 313.005L145.461 312.329L141.111 328.756Z" fill="#FFB573"/>
<path d="M105.163 314.951L111.459 318.248L118.945 303.405L112.649 300.108L105.163 314.951Z" fill="#FFB573"/>
<path d="M113.143 315.362L107.514 309.645C107.421 309.545 107.293 309.483 107.157 309.471C107.02 309.459 106.884 309.498 106.774 309.581L101.604 313.384C101.479 313.485 101.376 313.611 101.303 313.754C101.229 313.897 101.186 314.054 101.177 314.215C101.168 314.375 101.193 314.536 101.25 314.687C101.307 314.837 101.395 314.974 101.508 315.088C103.502 317.05 104.563 317.895 107.04 320.411C108.567 321.955 111.703 325.598 113.81 327.736C115.917 329.875 118.136 327.905 117.452 326.828C114.381 322.003 113.866 318.972 113.673 316.52C113.638 316.083 113.45 315.673 113.143 315.362Z" fill="#263238"/>
<path d="M149.214 327.3H140.715C140.563 327.301 140.416 327.352 140.295 327.445C140.175 327.538 140.088 327.668 140.048 327.814L138.231 334.496C138.185 334.655 138.178 334.822 138.209 334.984C138.24 335.146 138.309 335.299 138.41 335.43C138.511 335.56 138.641 335.666 138.79 335.737C138.939 335.808 139.103 335.843 139.268 335.839C142.251 335.839 143.666 335.839 147.389 335.839H158.783C161.879 335.839 162.53 332.711 161.243 332.422C155.502 331.151 152.19 329.398 150.421 327.726C150.085 327.439 149.655 327.287 149.214 327.3Z" fill="#263238"/>
<path opacity="0.2" d="M152.468 313.015L150.224 321.481H143.029L145.449 312.34L152.468 313.015Z" fill="black"/>
<path opacity="0.2" d="M112.642 300.108L118.946 303.413L115.086 311.06L108.782 307.755L112.642 300.108Z" fill="black"/>
<path d="M177.429 141.053C177.429 141.053 180.533 142.411 170.128 183.58L141.229 181.08C142.733 169.364 143.368 162.111 139.838 137.482C143.958 137 148.107 136.815 152.253 136.928C156.649 136.994 161.034 137.373 165.376 138.061C169.441 138.854 173.464 139.853 177.429 141.053Z" fill="rgba(56, 152, 252, 1)"/>
<path opacity="0.7" d="M177.429 141.053C177.429 141.053 180.533 142.411 170.128 183.58L141.229 181.08C142.733 169.364 143.368 162.111 139.838 137.482C143.958 137 148.107 136.815 152.253 136.928C156.649 136.994 161.034 137.373 165.376 138.061C169.441 138.854 173.464 139.853 177.429 141.053Z" fill="white"/>
<path d="M152.253 136.694C152.253 136.694 150.645 136.694 148.675 136.694C147.509 138.487 152.43 143.722 158.686 148.868C160.197 144.18 162.577 144.196 162.577 144.196L152.253 136.694Z" fill="white"/>
<path d="M165.367 137.956C165.367 137.956 166.099 138.061 167.852 138.463C169.009 140.256 169.661 144.742 166.243 148.65C164.901 143.826 162.585 144.26 162.585 144.26L165.367 137.956Z" fill="white"/>
<path d="M154.823 122.263C155.289 126.556 155.442 134.324 152.25 136.929C152.25 136.929 155.659 140.419 162.574 144.262C167.591 140.789 165.372 138.063 165.372 138.063C160.757 136.535 161.183 133.053 162.284 129.837L154.823 122.263Z" fill="#FFB573"/>
<path opacity="0.2" d="M157.873 125.357L162.287 129.836C162.016 130.58 161.812 131.347 161.676 132.127C159.907 131.717 157.335 129.868 157.303 127.97C157.333 127.072 157.527 126.187 157.873 125.357Z" fill="black"/>
<path d="M171.402 108.253C174.361 110.874 175.23 117.258 172.416 121.592C171.571 117.199 171.231 112.723 171.402 108.253Z" fill="#263238"/>
<path d="M153.925 113.245C153.411 120.313 153.049 123.296 156.105 127.373C160.704 133.508 169.5 132.583 172.114 125.813C174.47 119.71 174.912 109.176 168.423 105.461C166.997 104.629 165.382 104.176 163.731 104.147C162.08 104.118 160.449 104.512 158.995 105.293C157.54 106.074 156.31 107.215 155.422 108.608C154.535 110 154.019 111.596 153.925 113.245Z" fill="#FFB573"/>
<path d="M152.983 118.94C158.209 118.739 161.104 111.905 159.793 109.018C165.719 112.106 174.693 114.534 173.696 110.562C172.353 105.199 165.864 101.267 157.88 104.129C153.256 106.139 149.3 110.562 152.983 118.94Z" fill="#263238"/>
<path d="M151.39 118.93C151.613 120.282 152.358 121.491 153.464 122.299C154.943 123.352 156.294 122.178 156.399 120.466C156.495 118.914 155.844 116.502 154.107 116.132C153.727 116.057 153.334 116.078 152.964 116.193C152.593 116.308 152.258 116.514 151.988 116.793C151.718 117.071 151.521 117.412 151.417 117.785C151.313 118.159 151.303 118.552 151.39 118.93Z" fill="#FFB573"/>
<path d="M170.127 183.582C170.127 183.582 176.664 226.239 173.022 253.642C170.264 274.347 152.47 319.022 152.47 319.022L140.915 318.708C140.915 318.708 152.848 275.408 155.316 258.402C159.538 229.278 148.964 181.781 148.964 181.781L170.127 183.582Z" fill="#263238"/>
<path opacity="0.2" d="M158.854 192.321L152.687 202.043C154.544 213.569 155.723 225.195 156.217 236.859C164.885 221.341 160.816 200.531 158.854 192.321Z" fill="black"/>
<path d="M154.272 319.662L139.751 319.268L140.635 314.597L155.639 314.685L154.272 319.662Z" fill="rgba(56, 152, 252, 1)"/>
<path d="M163.808 183.12C163.808 183.12 158.984 230.351 147.96 256.05C139.043 276.795 117.783 309.979 117.783 309.979L109.292 305.01C109.292 305.01 122.961 268.111 129.707 254.281C146.167 220.373 130.857 193.171 141.23 181.109L163.808 183.12Z" fill="#263238"/>
<path d="M118.707 310.707L107.876 304.765L109.637 300.134L121.175 306.647L118.707 310.707Z" fill="rgba(56, 152, 252, 1)"/>
<path d="M140.936 179.351L139.409 181.828C139.296 182.013 139.513 182.246 139.851 182.27L170.157 184.891C170.414 184.891 170.647 184.803 170.671 184.642L171.162 182.077C171.162 181.9 170.977 181.731 170.695 181.707L141.427 179.174C141.337 179.16 141.245 179.17 141.159 179.2C141.073 179.231 140.997 179.283 140.936 179.351Z" fill="rgba(56, 152, 252, 1)"/>
<path d="M144.589 182.962L143.785 182.898C143.632 182.898 143.52 182.793 143.536 182.697L144.195 179.368C144.195 179.264 144.364 179.199 144.517 179.215L145.321 179.28C145.482 179.28 145.594 179.384 145.57 179.481L144.919 182.809C144.887 182.906 144.734 182.978 144.589 182.962Z" fill="#263238"/>
<path d="M167.934 184.98L167.13 184.916C166.969 184.916 166.856 184.811 166.881 184.715L167.54 181.386C167.54 181.29 167.701 181.218 167.853 181.234L168.657 181.298C168.81 181.298 168.923 181.403 168.907 181.499L168.247 184.828C168.231 184.94 168.054 184.996 167.934 184.98Z" fill="#263238"/>
<path d="M156.256 183.974L155.452 183.901C155.299 183.901 155.187 183.797 155.203 183.7L155.862 180.372C155.862 180.275 156.023 180.203 156.184 180.219L156.988 180.291C157.14 180.291 157.253 180.396 157.237 180.492L156.578 183.821C156.562 183.917 156.417 183.982 156.256 183.974Z" fill="#263238"/>
<path d="M164.996 116.761C164.916 117.332 165.157 117.838 165.527 117.886C165.897 117.935 166.267 117.517 166.331 116.946C166.395 116.375 166.162 115.868 165.792 115.82C165.422 115.772 165.069 116.19 164.996 116.761Z" fill="#263238"/>
<path d="M171.443 117.628C171.371 118.199 171.612 118.705 171.982 118.754C172.352 118.802 172.722 118.384 172.786 117.813C172.85 117.242 172.625 116.736 172.255 116.687C171.885 116.639 171.524 117.057 171.443 117.628Z" fill="#263238"/>
<path d="M172.073 116.697L173.504 116.488C173.504 116.488 172.668 117.461 172.073 116.697Z" fill="#263238"/>
<path d="M168.915 118.257C169.25 119.626 169.77 120.943 170.459 122.172C170.141 122.341 169.79 122.439 169.43 122.458C169.071 122.478 168.711 122.419 168.377 122.285L168.915 118.257Z" fill="#ED893E"/>
<path d="M165.03 123.99C163.899 123.622 162.951 122.837 162.377 121.796C162.362 121.762 162.361 121.725 162.373 121.691C162.385 121.656 162.409 121.628 162.441 121.611C162.475 121.594 162.515 121.591 162.551 121.603C162.587 121.615 162.617 121.641 162.634 121.675C162.991 122.301 163.491 122.835 164.093 123.231C164.695 123.628 165.383 123.877 166.099 123.958C166.135 123.958 166.17 123.973 166.196 123.998C166.221 124.024 166.236 124.059 166.236 124.095C166.236 124.131 166.221 124.166 166.196 124.192C166.17 124.217 166.135 124.232 166.099 124.232C165.735 124.191 165.376 124.111 165.03 123.99Z" fill="#263238"/>
<path d="M162.06 113.456C162.013 113.437 161.972 113.406 161.939 113.368C161.913 113.342 161.892 113.311 161.877 113.278C161.863 113.244 161.856 113.207 161.856 113.171C161.856 113.134 161.863 113.097 161.877 113.064C161.892 113.03 161.913 112.999 161.939 112.974C162.333 112.621 162.807 112.37 163.32 112.241C163.832 112.112 164.368 112.11 164.882 112.234C164.917 112.244 164.95 112.261 164.978 112.284C165.007 112.307 165.03 112.335 165.047 112.368C165.065 112.4 165.075 112.435 165.079 112.472C165.082 112.508 165.078 112.545 165.067 112.58C165.046 112.651 164.998 112.711 164.934 112.747C164.869 112.783 164.793 112.792 164.721 112.773C164.298 112.678 163.859 112.686 163.44 112.795C163.02 112.904 162.633 113.111 162.309 113.4C162.274 113.427 162.234 113.445 162.191 113.455C162.148 113.465 162.103 113.465 162.06 113.456Z" fill="#263238"/>
<path d="M174.154 115.168C174.112 115.151 174.074 115.127 174.041 115.095C173.759 114.765 173.404 114.505 173.003 114.337C172.602 114.17 172.167 114.099 171.734 114.131C171.697 114.139 171.659 114.139 171.622 114.131C171.586 114.124 171.551 114.108 171.521 114.086C171.49 114.064 171.465 114.036 171.446 114.004C171.427 113.971 171.416 113.935 171.412 113.897C171.401 113.824 171.419 113.749 171.462 113.688C171.506 113.628 171.572 113.588 171.645 113.576C172.17 113.529 172.699 113.608 173.187 113.806C173.675 114.005 174.109 114.317 174.451 114.717C174.49 114.764 174.513 114.822 174.517 114.882C174.52 114.943 174.504 115.003 174.471 115.054C174.437 115.104 174.388 115.143 174.331 115.163C174.274 115.184 174.212 115.185 174.154 115.168Z" fill="#263238"/>
<path d="M180.516 175.835C181.037 174.213 181.872 172.71 182.973 171.411C184.075 170.111 185.422 169.042 186.937 168.263C188.452 167.484 190.105 167.012 191.803 166.872C193.501 166.732 195.209 166.928 196.831 167.449C198.453 167.969 199.957 168.804 201.256 169.906C202.555 171.007 203.625 172.354 204.403 173.869C205.182 175.384 205.655 177.038 205.795 178.735C205.934 180.433 205.738 182.142 205.218 183.763L200.216 199.411L175.515 191.475L180.516 175.835Z" fill="rgba(56, 152, 252, 1)"/>
<path opacity="0.3" d="M180.516 175.835C181.037 174.213 181.872 172.71 182.973 171.411C184.075 170.111 185.422 169.042 186.937 168.263C188.452 167.484 190.105 167.012 191.803 166.872C193.501 166.732 195.209 166.928 196.831 167.449C198.453 167.969 199.957 168.804 201.256 169.906C202.555 171.007 203.625 172.354 204.403 173.869C205.182 175.384 205.655 177.038 205.795 178.735C205.934 180.433 205.738 182.142 205.218 183.763L200.216 199.411L175.515 191.475L180.516 175.835Z" fill="black"/>
<path d="M156.144 168.004L151.625 182.076C151.559 182.278 151.533 182.491 151.55 182.703C151.567 182.915 151.626 183.122 151.723 183.311C151.82 183.5 151.954 183.668 152.116 183.806C152.279 183.943 152.467 184.046 152.67 184.11L175.506 191.443L180.524 175.828C181.576 172.556 183.885 169.835 186.943 168.264C190.001 166.693 193.557 166.4 196.83 167.45L172.459 159.618C169.183 158.571 165.626 158.865 162.567 160.438C159.509 162.01 157.199 164.731 156.144 168.004Z" fill="rgba(56, 152, 252, 1)"/>
<path d="M168.401 178.674L174.696 159.079C174.718 159.009 174.724 158.934 174.715 158.861C174.705 158.788 174.68 158.718 174.642 158.656C174.603 158.593 174.551 158.54 174.49 158.499C174.428 158.458 174.359 158.431 174.286 158.42L167.854 157.471L167.05 160.012L171.737 161.515L166.431 178.031L168.401 178.674Z" fill="#263238"/>
<path d="M165.055 177.599C164.91 178.053 164.902 178.54 165.034 178.998C165.165 179.456 165.429 179.865 165.793 180.174C166.156 180.482 166.603 180.676 167.077 180.73C167.551 180.785 168.03 180.697 168.454 180.48C168.878 180.262 169.228 179.924 169.46 179.507C169.692 179.09 169.795 178.615 169.757 178.139C169.718 177.664 169.54 177.211 169.244 176.837C168.948 176.463 168.548 176.185 168.094 176.039C167.792 175.941 167.474 175.904 167.158 175.93C166.842 175.955 166.533 176.043 166.251 176.188C165.969 176.333 165.718 176.532 165.513 176.774C165.307 177.016 165.152 177.296 165.055 177.599Z" fill="#263238"/>
<path d="M176.697 193.784L208.377 203.955C208.492 203.993 208.614 204.007 208.735 203.997C208.855 203.988 208.973 203.954 209.08 203.899C209.188 203.844 209.284 203.767 209.362 203.675C209.44 203.583 209.499 203.476 209.535 203.36C209.574 203.245 209.589 203.123 209.58 203.003C209.571 202.882 209.538 202.764 209.482 202.656C209.427 202.548 209.35 202.452 209.257 202.374C209.164 202.296 209.056 202.238 208.94 202.202L175.507 191.468C175.357 191.933 175.399 192.438 175.622 192.872C175.845 193.306 176.232 193.634 176.697 193.784Z" fill="rgba(56, 152, 252, 1)"/>
<path opacity="0.2" d="M176.697 193.783L189.642 197.94C189.758 197.978 189.88 197.993 190.001 197.983C190.122 197.973 190.24 197.94 190.348 197.885C190.457 197.829 190.553 197.753 190.632 197.661C190.711 197.568 190.771 197.461 190.808 197.345C190.881 197.113 190.86 196.861 190.749 196.644C190.637 196.427 190.445 196.263 190.213 196.188L175.507 191.468C175.357 191.933 175.399 192.438 175.622 192.872C175.845 193.306 176.232 193.634 176.697 193.783Z" fill="black"/>
<path d="M143.238 148.837L142.796 149.327L142.297 149.898C141.96 150.284 141.622 150.702 141.3 151.096C140.641 151.9 140.014 152.76 139.427 153.629C136.997 157.068 135.085 160.844 133.75 164.838C133.428 165.835 133.131 166.832 132.898 167.853C132.817 168.151 132.809 168.271 132.769 168.408C132.763 168.526 132.763 168.644 132.769 168.762C132.756 168.887 132.756 169.014 132.769 169.14C132.769 169.284 133.042 169.622 133.702 169.944C134.495 170.3 135.329 170.554 136.186 170.699C138.255 171.028 140.349 171.166 142.442 171.11C144.629 171.11 146.849 170.917 149.068 170.683C151.287 170.45 153.539 170.161 155.718 169.831L156.594 173.313C152.106 174.773 147.488 175.799 142.804 176.376C140.338 176.697 137.844 176.751 135.366 176.537C133.95 176.404 132.559 176.074 131.233 175.556C130.438 175.237 129.691 174.81 129.014 174.286C128.216 173.66 127.559 172.874 127.084 171.978C126.267 170.297 126.049 168.388 126.465 166.567C126.658 165.336 126.94 164.154 127.269 162.916C127.9 160.539 128.74 158.222 129.778 155.993C130.819 153.758 132.031 151.608 133.404 149.56C134.096 148.539 134.836 147.55 135.608 146.577C136.002 146.095 136.412 145.62 136.814 145.146L137.465 144.446C137.698 144.197 137.883 143.996 138.205 143.69L143.238 148.837Z" fill="#FFB573"/>
<path d="M153.964 170.571L159.592 167.588L159.841 173.634C159.841 173.634 155.821 175.298 153.522 173.465L153.964 170.571Z" fill="#FFB573"/>
<path d="M164.236 167.128L163.392 172.7L159.855 173.632L159.605 167.586L164.236 167.128Z" fill="#FFB573"/>
<path d="M139.838 137.5C136.292 138.127 131.331 148.29 131.331 148.29L140.264 156.331C140.264 156.331 147.364 148.58 146.986 143.964C146.664 140.065 144.348 136.695 139.838 137.5Z" fill="rgba(56, 152, 252, 1)"/>
<path opacity="0.7" d="M139.838 137.5C136.292 138.127 131.331 148.29 131.331 148.29L140.264 156.331C140.264 156.331 147.364 148.58 146.986 143.964C146.664 140.065 144.348 136.695 139.838 137.5Z" fill="white"/>
<path d="M115.907 318.464C115.813 318.477 115.719 318.477 115.625 318.464C114.733 318.416 113.784 317.049 113.294 316.245C113.278 316.223 113.27 316.196 113.27 316.169C113.27 316.142 113.278 316.115 113.294 316.092C113.308 316.069 113.33 316.05 113.356 316.04C113.383 316.03 113.411 316.028 113.438 316.036C113.728 316.092 116.228 316.655 116.542 317.499C116.574 317.591 116.583 317.69 116.566 317.786C116.549 317.881 116.507 317.971 116.445 318.046C116.317 318.241 116.127 318.388 115.907 318.464ZM113.712 316.422C114.427 317.524 115.135 318.183 115.641 318.215C115.757 318.217 115.871 318.19 115.972 318.135C116.074 318.08 116.159 317.999 116.22 317.901C116.255 317.866 116.279 317.822 116.289 317.773C116.299 317.725 116.294 317.674 116.276 317.628C116.083 317.114 114.58 316.631 113.712 316.422Z" fill="rgba(56, 152, 252, 1)"/>
<path d="M115.65 316.244C114.909 316.448 114.131 316.481 113.375 316.341C113.351 316.333 113.33 316.319 113.313 316.301C113.296 316.283 113.284 316.26 113.278 316.236C113.267 316.215 113.261 316.192 113.261 316.168C113.261 316.144 113.267 316.12 113.278 316.099C113.342 316.043 114.806 314.612 115.827 314.684C115.953 314.686 116.077 314.718 116.189 314.776C116.3 314.835 116.397 314.919 116.47 315.022C116.558 315.116 116.612 315.237 116.624 315.365C116.635 315.493 116.604 315.621 116.534 315.73C116.303 315.993 115.993 316.173 115.65 316.244ZM113.712 316.115C114.516 316.228 116.02 316.027 116.333 315.569C116.382 315.496 116.422 315.384 116.277 315.199C116.228 315.128 116.164 315.07 116.088 315.03C116.013 314.989 115.929 314.967 115.843 314.966C115.143 314.917 114.13 315.738 113.712 316.115Z" fill="rgba(56, 152, 252, 1)"/>
<path d="M152.214 328.378C151.437 328.359 150.663 328.26 149.907 328.08C149.88 328.071 149.857 328.054 149.841 328.031C149.825 328.007 149.816 327.98 149.816 327.952C149.816 327.924 149.825 327.896 149.841 327.873C149.857 327.85 149.88 327.833 149.907 327.823C150.252 327.654 153.332 326.215 154.104 326.762C154.173 326.809 154.229 326.875 154.264 326.951C154.299 327.028 154.313 327.112 154.305 327.196C154.301 327.353 154.261 327.507 154.189 327.647C154.116 327.786 154.013 327.907 153.887 328C153.382 328.297 152.797 328.43 152.214 328.378ZM150.389 327.896C151.298 328.064 152.986 328.29 153.686 327.767C153.775 327.696 153.849 327.608 153.901 327.506C153.954 327.405 153.985 327.294 153.991 327.18C153.998 327.145 153.994 327.108 153.98 327.075C153.965 327.042 153.941 327.014 153.911 326.995C153.476 326.698 151.659 327.333 150.365 327.896H150.389Z" fill="rgba(56, 152, 252, 1)"/>
<path d="M149.928 328.064C149.899 328.072 149.868 328.072 149.839 328.064C149.82 328.045 149.805 328.023 149.797 327.997C149.788 327.972 149.786 327.945 149.791 327.919C149.791 327.79 150.523 324.759 152.203 324.952C152.621 325.008 152.734 325.209 152.758 325.378C152.862 326.182 150.925 327.702 150 328.088L149.928 328.064ZM152.034 325.193C150.973 325.193 150.354 326.962 150.145 327.67C151.15 327.139 152.557 325.877 152.468 325.386C152.468 325.346 152.468 325.234 152.155 325.201L152.034 325.193Z" fill="rgba(56, 152, 252, 1)"/>
<path d="M165.639 115.829L167.062 115.62C167.062 115.62 166.218 116.593 165.639 115.829Z" fill="#263238"/>
<path d="M215.114 183.099L183.98 189.532C183.447 189.632 182.897 189.519 182.446 189.219C181.995 188.918 181.68 188.453 181.567 187.923L180.112 181.169L179.589 178.676L180.506 175.83C180.634 175.421 180.787 175.021 180.964 174.632C180.984 174.57 181.011 174.511 181.045 174.455C181.558 173.284 182.25 172.199 183.095 171.239L184.703 170.901L211.399 165.361C211.931 165.261 212.482 165.373 212.932 165.674C213.383 165.974 213.699 166.439 213.811 166.969L216.649 180.638C216.766 181.168 216.67 181.722 216.383 182.182C216.096 182.641 215.64 182.971 215.114 183.099Z" fill="rgba(56, 152, 252, 1)"/>
<path opacity="0.3" d="M213.57 166.246L198.549 181.523L195.333 180.221L182.822 175.147L181.061 174.431C181.574 173.26 182.266 172.175 183.111 171.215L184.719 170.877L211.415 165.337C211.824 165.256 212.247 165.298 212.632 165.46C213.016 165.622 213.343 165.896 213.57 166.246Z" fill="black"/>
<path d="M213.572 166.246L195.335 180.245L194.145 181.162L182.687 175.477L180.983 174.673C181.003 174.611 181.03 174.552 181.063 174.496C181.577 173.325 182.268 172.24 183.113 171.28L184.722 170.942L211.417 165.402C211.819 165.314 212.239 165.347 212.623 165.497C213.006 165.647 213.337 165.908 213.572 166.246Z" fill="rgba(56, 152, 252, 1)"/>
<path opacity="0.2" d="M213.572 166.246L195.335 180.245L194.145 181.162L182.687 175.477L180.983 174.673C181.003 174.611 181.03 174.552 181.063 174.496C181.577 173.325 182.268 172.24 183.113 171.28L184.722 170.942L211.417 165.402C211.819 165.314 212.239 165.347 212.623 165.497C213.006 165.647 213.337 165.908 213.572 166.246Z" fill="white"/>
<path d="M253.118 211.299L243.63 221.527C243.256 221.925 242.739 222.16 242.192 222.179C241.646 222.199 241.113 222.002 240.711 221.631L217.441 199.961C217.041 199.588 216.805 199.071 216.785 198.523C216.766 197.976 216.964 197.443 217.337 197.042L226.857 186.814C227.042 186.614 227.264 186.452 227.511 186.338C227.759 186.224 228.026 186.16 228.299 186.151C228.571 186.141 228.842 186.185 229.097 186.281C229.352 186.377 229.586 186.523 229.784 186.71L253.046 208.38C253.348 208.66 253.558 209.024 253.652 209.426C253.745 209.827 253.716 210.247 253.569 210.631C253.468 210.883 253.315 211.111 253.118 211.299Z" fill="rgba(56, 152, 252, 1)"/>
<path opacity="0.3" d="M253.537 210.671L232.374 207.222L227.461 186.316C227.836 186.143 228.254 186.085 228.662 186.15C229.069 186.214 229.449 186.398 229.753 186.678L253.015 208.348C253.331 208.634 253.551 209.011 253.644 209.427C253.738 209.843 253.701 210.277 253.537 210.671Z" fill="black"/>
<path d="M253.537 210.672L232.929 204.529L227.461 186.389C227.836 186.216 228.254 186.158 228.662 186.223C229.069 186.287 229.449 186.471 229.753 186.751L253.015 208.421C253.316 208.701 253.527 209.065 253.62 209.467C253.713 209.868 253.684 210.288 253.537 210.672Z" fill="rgba(56, 152, 252, 1)"/>
<path opacity="0.2" d="M253.537 210.672L232.929 204.529L227.461 186.389C227.836 186.216 228.254 186.158 228.662 186.223C229.069 186.287 229.449 186.471 229.753 186.751L253.015 208.421C253.316 208.701 253.527 209.065 253.62 209.467C253.713 209.868 253.684 210.288 253.537 210.672Z" fill="white"/>
<path d="M261.398 228.142L271.851 240.348C272.05 240.582 272.2 240.853 272.292 241.147C272.383 241.44 272.413 241.749 272.381 242.055C272.348 242.36 272.254 242.656 272.103 242.924C271.953 243.192 271.749 243.426 271.505 243.613L248.798 261.303C248.416 261.532 247.963 261.612 247.526 261.526C247.089 261.439 246.699 261.194 246.434 260.836L238.256 251.509C238.102 251.33 237.975 251.129 237.878 250.914C237.726 250.618 237.663 250.285 237.696 249.954C237.729 249.623 237.856 249.309 238.063 249.048L258.165 228.054C258.479 227.714 258.894 227.484 259.348 227.397C259.803 227.31 260.273 227.371 260.69 227.571C260.96 227.715 261.2 227.909 261.398 228.142Z" fill="rgba(56, 152, 252, 1)"/>
<path opacity="0.3" d="M260.689 227.598L255.696 249.807L237.909 250.94C237.758 250.645 237.694 250.311 237.727 249.98C237.76 249.649 237.887 249.335 238.094 249.075L258.196 228.08C258.508 227.747 258.917 227.522 259.364 227.435C259.812 227.348 260.276 227.405 260.689 227.598Z" fill="black"/>
<path d="M260.686 227.594L252.315 251.162L237.89 250.937C237.738 250.641 237.675 250.308 237.708 249.977C237.741 249.646 237.868 249.332 238.075 249.071L258.177 228.077C258.49 227.74 258.902 227.512 259.353 227.426C259.804 227.339 260.271 227.398 260.686 227.594Z" fill="rgba(56, 152, 252, 1)"/>
<path opacity="0.2" d="M260.686 227.594L252.315 251.162L237.89 250.937C237.738 250.641 237.675 250.308 237.708 249.977C237.741 249.646 237.868 249.332 238.075 249.071L258.177 228.077C258.49 227.74 258.902 227.512 259.353 227.426C259.804 227.339 260.271 227.398 260.686 227.594Z" fill="white"/>
</svg>
