<svg width="18" height="18" viewBox="0 0 18 18" fill="none" xmlns="http://www.w3.org/2000/svg">
<path d="M4.2 15H13.8C14.2201 15 14.4301 15 14.5905 14.9183C14.7316 14.8463 14.8463 14.7316 14.9183 14.5905C15 14.4301 15 14.2201 15 13.8V5.19853C15 4.74417 15 4.51699 14.9101 4.41179C14.8322 4.32051 14.7152 4.27207 14.5956 4.28149C14.4577 4.29234 14.297 4.45298 13.9757 4.77427L11.5243 7.22573C11.203 7.54702 11.0423 7.70767 10.9044 7.71855C10.7848 7.72792 10.6678 7.67948 10.5898 7.5882C10.5 7.48301 10.5 7.25584 10.5 6.80147V5.19853C10.5 4.74417 10.5 4.51699 10.4102 4.41179C10.3322 4.32051 10.2152 4.27207 10.0956 4.28149C9.95768 4.29234 9.79703 4.45298 9.47573 4.77427L7.02427 7.22573C6.70298 7.54702 6.54234 7.70767 6.40442 7.71855C6.28475 7.72792 6.1678 7.67948 6.08985 7.5882C6 7.48301 6 7.25584 6 6.80147V3.6C6 3.38998 6 3.28497 5.95913 3.20475C5.92318 3.13419 5.86581 3.07682 5.79525 3.04088C5.71503 3 5.61002 3 5.4 3H3.6C3.38998 3 3.28497 3 3.20475 3.04088C3.13419 3.07682 3.07682 3.13419 3.04088 3.20475C3 3.28497 3 3.38998 3 3.6V13.8C3 14.2201 3 14.4301 3.08174 14.5905C3.15365 14.7316 3.26839 14.8463 3.40951 14.9183C3.56994 15 3.77996 15 4.2 15Z" stroke="#5F6368" stroke-linecap="round" stroke-linejoin="round"/>
</svg>
