<svg width="14" height="14" viewBox="0 0 14 14" fill="none" xmlns="http://www.w3.org/2000/svg">
<g id="Group 53801">
<path id="Rectangle 27291" d="M10.3333 0.333374H3.66659C1.82564 0.333374 0.333252 1.82576 0.333252 3.66671V10.3334C0.333252 12.1743 1.82564 13.6667 3.66659 13.6667H10.3333C12.1742 13.6667 13.6666 12.1743 13.6666 10.3334V3.66671C13.6666 1.82576 12.1742 0.333374 10.3333 0.333374Z" fill="#8693A4"/>
<g id="info_10">
<path id="Path 21373" d="M8.29522 5.28333L5.85522 5.59L5.77188 5.995L6.25022 6.08416C6.56272 6.15832 6.62438 6.27166 6.55688 6.58416L5.77188 10.2783C5.56605 11.2333 5.88355 11.6842 6.63272 11.6842C7.21649 11.6863 7.77749 11.4578 8.19355 11.0483L8.28606 10.6058C8.07921 10.7731 7.82206 10.8659 7.55605 10.8692C7.26272 10.8692 7.15689 10.6633 7.23272 10.3017L8.29522 5.28333Z" fill="white"/>
<path id="Ellipse 6743" d="M7.28757 4.36335C7.84308 4.36335 8.29341 3.91302 8.29341 3.35752C8.29341 2.80201 7.84308 2.35168 7.28757 2.35168C6.73207 2.35168 6.28174 2.80201 6.28174 3.35752C6.28174 3.91302 6.73207 4.36335 7.28757 4.36335Z" fill="white"/>
</g>
</g>
</svg>
