<svg width="25" height="24" viewBox="0 0 25 24" fill="none" xmlns="http://www.w3.org/2000/svg">
<path d="M19.042 0H6.29199C3.18539 0 0.666992 2.5184 0.666992 5.625V18.375C0.666992 21.4816 3.18539 24 6.29199 24H19.042C22.1486 24 24.667 21.4816 24.667 18.375V5.625C24.667 2.5184 22.1486 0 19.042 0Z" fill="#0073AA"/>
<path d="M4.625 11.9994C4.625 15.1827 6.47497 17.9337 9.15753 19.2374L5.32128 8.72649C4.86142 9.75629 4.62415 10.8716 4.625 11.9994ZM18.0963 11.5936C18.0963 10.5997 17.7393 9.9114 17.4331 9.37561C17.0254 8.71318 16.6433 8.15218 16.6433 7.48974C16.6433 6.75043 17.204 6.0623 17.9938 6.0623C18.0295 6.0623 18.0632 6.06671 18.098 6.06868C16.6672 4.75786 14.761 3.95752 12.6672 3.95752C9.85766 3.95752 7.38575 5.39902 5.94781 7.58246C6.13644 7.58808 6.31428 7.59211 6.46531 7.59211C7.30653 7.59211 8.60863 7.48993 8.60863 7.48993C9.04213 7.46443 9.09331 8.10118 8.66019 8.15246C8.66019 8.15246 8.22453 8.20374 7.73975 8.22914L10.6683 16.9402L12.4283 11.6618L11.1753 8.22886C10.7423 8.20346 10.332 8.15218 10.332 8.15218C9.89863 8.12677 9.94944 7.46414 10.3828 7.48974C10.3828 7.48974 11.7109 7.59174 12.5011 7.59174C13.3423 7.59174 14.6444 7.48974 14.6444 7.48974C15.0783 7.46414 15.1292 8.10089 14.696 8.15218C14.696 8.15218 14.2594 8.20346 13.7756 8.22886L16.6819 16.8739L17.484 14.1934C17.8318 13.081 18.0963 12.2821 18.0963 11.5936Z" fill="white"/>
<path d="M12.8075 12.703L10.3945 19.7146C11.1322 19.9318 11.8973 20.0422 12.6664 20.0422C13.576 20.0425 14.479 19.8884 15.3369 19.5863C15.3146 19.5511 15.2955 19.5141 15.2797 19.4755L12.8075 12.703ZM19.723 8.14111C19.7596 8.41521 19.7777 8.69146 19.7772 8.96799C19.7772 9.78408 19.6248 10.7015 19.1657 11.8486L16.7092 18.9511C19.1001 17.5568 20.7083 14.9666 20.7083 11.9997C20.7083 10.6014 20.3512 9.28655 19.723 8.14111Z" fill="white"/>
<path d="M12.6668 2.625C7.49762 2.625 3.29199 6.83034 3.29199 11.9994C3.29199 17.1692 7.49762 21.3743 12.6668 21.3743C17.8357 21.3743 22.042 17.1692 22.042 11.9994C22.0418 6.83034 17.8357 2.625 12.6668 2.625ZM12.6668 20.9447C7.73462 20.9447 3.72184 16.9318 3.72184 11.9994C3.72184 7.06734 7.73452 3.05484 12.6668 3.05484C17.5987 3.05484 21.6112 7.06734 21.6112 11.9994C21.6112 16.9318 17.5987 20.9447 12.6668 20.9447Z" fill="white"/>
</svg>
