<svg width="32" height="32" viewBox="0 0 32 32" fill="none" xmlns="http://www.w3.org/2000/svg">
<rect width="32" height="32" rx="3.2" fill="#DCDCEF"/>
<path d="M8.53402 5.19995C7.34986 5.19995 6.40039 6.11538 6.40039 7.25709V23.7142C6.40039 24.2598 6.62518 24.7831 7.02532 25.1689C7.42545 25.5546 7.96815 25.7714 8.53402 25.7714H12.8013V23.8068L15.0309 21.6571H8.53402V19.6H17.1646L19.2982 17.5428H8.53402V15.4857H21.4318L23.4694 13.5211V11.3714L17.0685 5.19995H8.53402ZM16.0017 6.74281L21.8692 12.4H16.0017V6.74281ZM23.6295 16.5142C23.5505 16.5126 23.472 16.5263 23.3987 16.5546C23.3254 16.5828 23.2587 16.6251 23.2027 16.6788L22.1146 17.728L24.3442 19.8674L25.4324 18.8285C25.6564 18.6022 25.6564 18.232 25.4324 18.016L24.0455 16.6788C23.9911 16.6259 23.9263 16.584 23.8548 16.5558C23.7833 16.5275 23.7067 16.5134 23.6295 16.5142ZM21.4852 18.3348L14.9349 24.6605V26.8H17.1539L23.7148 20.4742L21.4852 18.3348Z" fill="#5052B2"/>
</svg>
