<svg width="25" height="24" viewBox="0 0 25 24" fill="none" xmlns="http://www.w3.org/2000/svg">
<g clip-path="url(#clip0_386_193856)">
<path d="M21.6461 4.71281C21.6273 4.59281 21.5074 4.5264 21.4083 4.51909C20.6776 4.47095 19.9469 4.4232 19.2161 4.37583C19.2162 4.37583 17.7624 3.11049 17.6028 2.97043C17.4431 2.83046 17.1313 2.87303 17.0103 2.90427C16.9925 2.90887 16.6927 2.98999 16.1967 3.12454C15.7111 1.89939 14.8541 0.773526 13.3463 0.773526C13.3046 0.773526 13.2618 0.775006 13.219 0.777143C12.7901 0.279965 12.259 0.0639648 11.8001 0.0639648C8.2878 0.0639648 6.60977 3.91342 6.08365 5.86958C4.71884 6.24035 3.74927 6.50394 3.62543 6.53805C2.86362 6.74755 2.83952 6.7686 2.73949 7.39794C2.66421 7.8744 0.670898 21.3891 0.670898 21.3891L16.2032 23.9405L24.6191 22.3443C24.6191 22.3443 21.6647 4.83281 21.6461 4.71281ZM15.3383 3.35731L14.024 3.71394C14.0245 3.63273 14.0249 3.55284 14.0249 3.46547C14.0249 2.70405 13.9044 2.09098 13.711 1.60498C14.4879 1.69046 15.0053 2.46544 15.3383 3.35731ZM12.7472 1.75596C12.9632 2.23046 13.1036 2.91142 13.1036 3.83032C13.1036 3.87733 13.1032 3.92032 13.1027 3.9638C12.248 4.19591 11.3192 4.44791 10.3884 4.70073C10.911 2.93229 11.8907 2.07816 12.7472 1.75596ZM11.7037 0.88991C11.8553 0.88991 12.008 0.935033 12.1541 1.02323C11.0285 1.48761 9.82193 2.6572 9.3124 4.99284L7.16684 5.57542C7.76365 3.79391 9.18087 0.88991 11.7037 0.88991Z" fill="#95BF46"/>
<path d="M21.4084 4.51911C20.6778 4.47098 19.947 4.42322 19.2163 4.37585C19.2163 4.37585 17.7625 3.11051 17.6029 2.97046C17.5432 2.91835 17.4627 2.89163 17.3785 2.88013L16.2041 23.9404L24.6193 22.3444C24.6193 22.3444 21.6649 4.83284 21.6463 4.71284C21.6274 4.59284 21.5075 4.52643 21.4084 4.51911Z" fill="#5E8E3E"/>
<path d="M13.3457 8.59605L12.308 11.3023C12.308 11.3023 11.3988 10.8769 10.2843 10.8769C8.65044 10.8769 8.56822 11.7758 8.56822 12.0023C8.56822 13.2383 12.2432 13.7119 12.2432 16.607C12.2432 18.8848 10.5954 20.3515 8.3735 20.3515C5.70725 20.3515 4.34375 18.8967 4.34375 18.8967L5.05766 16.8288C5.05766 16.8288 6.45922 17.8837 7.64188 17.8837C8.41466 17.8837 8.729 17.3503 8.729 16.9605C8.729 15.3483 5.714 15.2764 5.714 12.6271C5.714 10.3973 7.5395 8.2395 11.2244 8.2395C12.6443 8.2395 13.3457 8.59605 13.3457 8.59605Z" fill="white"/>
</g>
<defs>
<clipPath id="clip0_386_193856">
<rect width="24" height="24" fill="white" transform="translate(0.666992)"/>
</clipPath>
</defs>
</svg>
