<svg width="25" height="24" viewBox="0 0 25 24" fill="none" xmlns="http://www.w3.org/2000/svg">
<g clip-path="url(#clip0_386_193849)">
<path d="M14.4199 23.0172L10.2539 18.9549L19.2008 9.8186L23.5139 14.0459L14.4199 23.0172Z" fill="#8AB4F8"/>
<path d="M14.4377 5.05676L10.287 0.818604L1.21051 9.80904C0.0405078 10.979 0.0405078 12.8759 1.21051 14.0472L10.1505 23.0459L14.3777 19.0913L7.56638 11.9282L14.4377 5.05676Z" fill="#4285F4"/>
<path d="M23.4537 9.87848L14.4537 0.878484C13.2824 -0.292828 11.3828 -0.292828 10.2115 0.878484C9.04021 2.0498 9.04012 3.94945 10.2115 5.12086L19.2115 14.1209C20.3828 15.2922 22.2824 15.2922 23.4537 14.1209C24.625 12.9495 24.6251 11.0498 23.4537 9.87848Z" fill="#8AB4F8"/>
<path d="M12.2639 24.0004C13.8831 24.0004 15.1957 22.6878 15.1957 21.0686C15.1957 19.4494 13.8831 18.1367 12.2639 18.1367C10.6447 18.1367 9.33203 19.4494 9.33203 21.0686C9.33203 22.6878 10.6447 24.0004 12.2639 24.0004Z" fill="#246FDB"/>
</g>
<defs>
<clipPath id="clip0_386_193849">
<rect width="24" height="24" fill="white" transform="translate(0.333008)"/>
</clipPath>
</defs>
</svg>
