<svg width="24" height="24" viewBox="0 0 24 24" fill="none" xmlns="http://www.w3.org/2000/svg">
<path d="M4.53365 1.19995C3.34949 1.19995 2.40002 2.11538 2.40002 3.25709V19.7142C2.40002 20.2598 2.62482 20.7831 3.02495 21.1689C3.42508 21.5546 3.96778 21.7714 4.53365 21.7714H8.80091V19.8068L11.0306 17.6571H4.53365V15.6H13.1642L15.2978 13.5428H4.53365V11.4857H17.4314L19.4691 9.5211V7.37138L13.0682 1.19995H4.53365ZM12.0014 2.74281L17.8688 8.39995H12.0014V2.74281ZM19.6291 12.5142C19.5501 12.5126 19.4716 12.5263 19.3983 12.5546C19.325 12.5828 19.2583 12.6251 19.2024 12.6788L18.1142 13.728L20.3439 15.8674L21.432 14.8285C21.656 14.6022 21.656 14.232 21.432 14.016L20.0451 12.6788C19.9908 12.6259 19.9259 12.584 19.8545 12.5558C19.783 12.5275 19.7063 12.5134 19.6291 12.5142ZM17.4848 14.3348L10.9345 20.6605V22.8H13.1535L19.7144 16.4742L17.4848 14.3348Z" fill="#3898FC"/>
</svg>
