<svg width="74" height="68" viewBox="0 0 74 68" fill="none" xmlns="http://www.w3.org/2000/svg">
<g clip-path="url(#clip0_687_1093)">
<path d="M55.5 52.5C65.7173 42.2827 65.7173 25.7173 55.5 15.5C45.2827 5.28273 28.7173 5.28273 18.5 15.5C8.28273 25.7173 8.28273 42.2827 18.5 52.5C28.7173 62.7173 45.2827 62.7173 55.5 52.5Z" fill="#D3E4FF"/>
<path d="M31.0122 56.4124C31.0122 56.4124 30.9432 59.0953 36.8762 59.0953C42.8092 59.0953 42.533 56.4124 42.533 56.4124H31.0122Z" fill="#BD99FF"/>
<path d="M42.8374 57.1622H30.8668C30.0757 57.1622 29.4346 56.5211 29.4346 55.73V50.8612C29.4346 50.0701 30.0757 49.429 30.8668 49.429H42.8377C43.6288 49.429 44.27 50.0701 44.27 50.8612V55.73C44.2697 56.5211 43.6285 57.1622 42.8374 57.1622Z" fill="#3B495E"/>
<path d="M55.4799 20.8325C55.0687 15.0303 51.4862 3.71231 37.5441 3.03254V3C37.319 3 37.0967 3.00304 36.8765 3.00821C36.6563 3.00304 36.4339 3 36.2089 3V3.03254C22.2667 3.71201 18.6842 15.0299 18.273 20.8325C17.849 26.816 20.9583 31.4801 23.5496 36.1442C26.141 40.8086 27.0832 47.0509 27.4835 49.3122C27.884 51.5736 29.9334 51.503 29.9334 51.503H36.2086H36.8762L37.5438 51.5033L43.8189 51.503C43.8189 51.503 45.8683 51.5736 46.2688 49.3122C46.6694 47.0509 47.6117 40.8083 50.203 36.1442C52.7943 31.4801 55.9039 26.816 55.4799 20.8325Z" fill="#98BCF7"/>
<path d="M32.1461 52.0563C33.7489 47.0543 34.5388 41.7931 34.4762 36.5411C34.4515 34.4683 34.2836 32.3502 33.4591 30.4484C33.3104 30.1053 33.0534 29.7178 32.6808 29.7476C32.3517 29.7738 32.1494 30.1163 32.043 30.4289C31.6488 31.5868 31.8088 32.9205 32.4664 33.9522C33.1236 34.9839 34.2645 35.6925 35.4808 35.8245C35.8041 35.8595 36.1392 35.8546 36.4443 35.7418C37.0775 35.5076 37.4586 34.8628 37.6992 34.232C38.223 32.8582 38.3172 31.3237 37.9653 29.8961C37.8777 29.5405 37.6621 29.1172 37.2965 29.143C37.0389 29.1613 36.8616 29.4052 36.7451 29.6357C36.121 30.873 36.1928 32.3633 36.5945 33.6894C36.7706 34.2709 37.0173 34.8509 37.4507 35.2767C38.5104 36.3185 40.3976 36.0493 41.4703 35.0213C42.5428 33.9929 42.9433 32.443 43.0455 30.9609C43.0945 30.2489 42.9108 29.3148 42.2036 29.2169C41.4755 29.1159 41.0552 30.0065 40.8915 30.723C39.4709 36.9383 39.1561 43.4048 39.9663 49.7289C40.119 50.9215 40.3328 52.1621 41.053 53.1247" stroke="#3B495E" stroke-miterlimit="10"/>
<path d="M23.6076 10.6329C23.0866 11.2473 22.5772 11.8982 22.3257 12.6634C22.0738 13.4287 22.1231 14.3387 22.6414 14.9555C23.3722 15.826 24.7741 15.812 25.7732 15.2703C26.7726 14.7286 27.4846 13.7936 28.2368 12.9414C29.4208 11.5998 30.8251 10.3753 32.5277 9.82482C33.1737 9.61587 33.8513 9.5079 34.4827 9.2588C35.1142 9.00971 35.7197 8.58512 35.9737 7.95553C36.3152 7.10939 35.8989 6.08381 35.1592 5.54942C33.3717 4.2577 31.0517 5.48281 29.3001 6.22737C27.0086 7.20094 25.2093 8.74419 23.6076 10.6329Z" fill="white"/>
<path d="M23.4455 21.3785V19.824H21.891C21.891 19.1786 21.3678 18.6558 20.7227 18.6558C20.0773 18.6558 19.5545 19.1789 19.5545 19.824H18V25.2698H19.5545C19.5545 24.6244 20.0776 24.1016 20.7227 24.1016C21.3681 24.1016 21.891 24.6247 21.891 25.2698H23.4455V23.7153C24.0909 23.7153 24.6137 23.1922 24.6137 22.5471C24.614 21.9017 24.0909 21.3785 23.4455 21.3785Z" fill="#D3E4FF"/>
<path d="M54.8315 19.3889C54.7317 19.3889 54.6365 19.4053 54.5444 19.4288V17.8344H52.9899C52.9899 18.4798 52.4667 19.003 51.8216 19.003C51.1765 19.003 50.6534 18.4798 50.6534 17.8344H49.0989V19.3889C48.4535 19.3889 47.9307 19.9121 47.9307 20.5575C47.9307 21.2029 48.4538 21.7257 49.0989 21.7257V23.2802H50.6853C50.6853 22.6348 51.2085 22.1117 51.8536 22.1117C52.4987 22.1117 53.0218 22.6348 53.0218 23.2802H54.5447V21.6858C54.6371 21.7093 54.732 21.7257 54.8318 21.7257C55.4772 21.7257 56 21.2026 56 20.5575C56 19.9124 55.4766 19.3889 54.8315 19.3889Z" fill="#D3E4FF"/>
<path d="M28.9269 39.8339C28.9269 39.1885 28.4038 38.6656 27.7584 38.6656C27.113 38.6656 26.5901 39.1888 26.5901 39.8339H25.0356V45.2796H26.5901C26.5901 44.6342 27.1133 44.1111 27.7584 44.1111C28.4035 44.1111 28.9269 44.6342 28.9269 45.2796H30.4814V39.8339H28.9269Z" fill="#D3E4FF"/>
<path d="M48.1061 39.1132V37.5587H46.5516C46.5516 36.9133 46.0285 36.3902 45.3834 36.3902C44.738 36.3902 44.2151 36.9133 44.2151 37.5587H42.6606V39.1132C43.306 39.1132 43.8289 39.6363 43.8289 40.2817C43.8289 40.9271 43.3057 41.4499 42.6606 41.4499V43.0044H44.2151C44.2151 42.359 44.7383 41.8362 45.3834 41.8362C46.0288 41.8362 46.5516 42.3593 46.5516 43.0044H48.1061V41.4499C48.7515 41.4499 49.2746 40.9268 49.2746 40.2817C49.2746 39.6366 48.7515 39.1132 48.1061 39.1132Z" fill="#D3E4FF"/>
</g>
<defs>
<clipPath id="clip0_687_1093">
<rect width="74" height="68" fill="white"/>
</clipPath>
</defs>
</svg>
