<svg width="33" height="32" viewBox="0 0 33 32" fill="none" xmlns="http://www.w3.org/2000/svg">
<path d="M1.33188 22.7778C0.858125 22.8322 0.5 23.2328 0.5 23.7097V30.3597C0.5 30.9141 0.98375 31.3541 1.54188 31.291C1.56438 31.2885 3.58562 31.0747 5.15312 31.6678V23.0547C3.31875 22.5628 1.43125 22.7666 1.33188 22.7778Z" fill="#3898FC" fill-opacity="0.8"/>
<path d="M11.2715 7.29802C12.6687 5.90083 12.6683 3.63927 11.2715 2.24114C9.94023 0.909893 7.81273 0.849893 6.40961 2.05927C5.00586 0.849893 2.87836 0.909893 1.54773 2.24114C0.153359 3.63552 0.153359 5.90427 1.54773 7.29802L5.74648 11.4974C6.11205 11.8617 6.70355 11.8647 7.07211 11.4974L11.2715 7.29802Z" fill="#3898FC" fill-opacity="0.8"/>
<path d="M32.5006 2.18604C32.4985 1.73191 32.1686 1.35191 31.7366 1.27029L25.0869 0.0202889C24.5105 -0.0880236 23.9762 0.354476 23.9762 0.941664V6.45635C22.5185 6.16104 21.166 7.27623 21.166 8.75216C21.166 10.046 22.2148 11.0948 23.5086 11.0948C24.8024 11.0948 25.8512 10.046 25.8512 8.75216V2.07185L30.6259 2.96941V8.14091C29.1732 7.85023 27.8295 8.96235 27.8295 10.4309C27.8295 11.7209 28.8753 12.7666 30.1652 12.7666C31.4551 12.7666 32.5009 11.7209 32.5009 10.431C32.5009 10.3423 32.501 2.24048 32.5006 2.18604Z" fill="#3898FC" fill-opacity="0.8"/>
<path d="M22.3517 3.22678C22.5355 2.74278 22.2922 2.20134 21.8082 2.0174C19.3042 1.06609 16.6229 0.828464 14.0858 1.24165C13.5747 1.32484 13.2279 1.80659 13.3112 2.31765C13.3944 2.82865 13.8758 3.17534 14.3872 3.09228C16.5992 2.73203 18.947 2.93615 21.1423 3.77028C21.6264 3.95403 22.1678 3.71071 22.3517 3.22678Z" fill="#3898FC" fill-opacity="0.8"/>
<path d="M19.3997 28.7654C17.7127 29.1474 15.9771 29.183 14.3338 28.9094C13.8232 28.8243 13.3402 29.1694 13.2551 29.6802C13.17 30.1909 13.5151 30.6739 14.0258 30.7589C15.9573 31.0806 17.9367 31.0191 19.8137 30.5942C20.3187 30.4799 20.6353 29.9778 20.521 29.4728C20.4068 28.9678 19.9045 28.6514 19.3997 28.7654Z" fill="#3898FC" fill-opacity="0.8"/>
<path d="M3.23403 11.3661C2.73484 11.2283 2.21853 11.5209 2.08066 12.02C1.72391 13.3108 1.54297 14.6518 1.54297 16.006C1.54297 17.5474 1.77678 19.0675 2.23797 20.524C2.39441 21.018 2.92184 21.291 3.41472 21.1346C3.90828 20.9784 4.18172 20.4515 4.02547 19.9579C3.62234 18.6848 3.41791 17.3551 3.41791 16.006C3.41791 14.8206 3.57597 13.6476 3.88784 12.5195C4.02584 12.0204 3.73303 11.504 3.23403 11.3661Z" fill="#3898FC" fill-opacity="0.8"/>
<path d="M29.7154 20.7893C30.2129 20.9326 30.7325 20.6454 30.8757 20.1478C31.4109 18.2888 31.5633 16.3776 31.3893 14.574C31.3396 14.0587 30.882 13.6818 30.3661 13.7309C29.8508 13.7805 29.4733 14.2386 29.5229 14.754C29.6743 16.3242 29.5435 17.998 29.0739 19.629C28.9307 20.1265 29.2179 20.646 29.7154 20.7893Z" fill="#3898FC" fill-opacity="0.8"/>
<path d="M10.848 22.7778C10.7486 22.7666 8.86234 22.5628 7.02734 23.0547V31.6647C8.11547 31.2591 9.65672 31.1822 10.6373 31.291C11.1967 31.3528 11.6798 30.916 11.6798 30.3597V23.7097C11.6798 23.2328 11.3217 22.8322 10.848 22.7778Z" fill="#3898FC" fill-opacity="0.8"/>
<path d="M27.849 22.5475C27.7162 21.7416 27.2695 20.2969 25.7668 19.4619C25.3142 19.2105 24.7435 19.3734 24.492 19.8259C24.2405 20.2786 24.4035 20.8493 24.856 21.1008C25.5037 21.4606 25.794 22.0498 25.9243 22.502C24.5503 22.1385 23.3983 22.3739 22.6287 23.1915C21.5013 24.3878 21.0242 26.5341 21.8637 28.5978C22.1393 29.2753 22.5587 29.9415 23.1824 30.694C24.7983 32.6433 26.2099 31.8665 26.968 31.7515C27.7396 31.8692 29.1435 32.6369 30.7537 30.694C31.285 30.0531 31.7593 29.3655 32.0724 28.5978C32.9107 26.537 32.4357 24.3904 31.3074 23.1915C30.5077 22.342 29.295 22.1211 27.849 22.5475Z" fill="#3898FC" fill-opacity="0.8"/>
<path d="M19.2452 11.4833C19.2452 9.96953 18.0133 8.73828 16.4995 8.73828C14.9858 8.73828 13.7539 9.96953 13.7539 11.4833C13.7539 12.9977 14.9858 14.2289 16.4995 14.2289C18.0133 14.2289 19.2452 12.9977 19.2452 11.4833Z" fill="#3898FC" fill-opacity="0.8"/>
<path d="M16.4997 15.2305C14.0316 15.2305 12.0234 17.2386 12.0234 19.7073V20.7498C12.0234 21.2348 12.4159 21.6286 12.9016 21.6286H16.4997H20.0978C20.5834 21.6286 20.9759 21.2348 20.9759 20.7498V19.7073C20.9759 17.2386 18.9678 15.2305 16.4997 15.2305Z" fill="#3898FC" fill-opacity="0.8"/>
</svg>
