<svg width="368" height="158" viewBox="0 0 368 158" fill="none" xmlns="http://www.w3.org/2000/svg">
<g clip-path="url(#clip0_1173_12576)">
<rect width="368" height="158" fill="white"/>
<g filter="url(#filter0_d_1173_12576)">
<rect x="93" y="-51" width="198" height="198" rx="99" fill="white" shape-rendering="crispEdges"/>
<g filter="url(#filter1_d_1173_12576)">
<rect x="109" y="-35" width="166" height="166" rx="83" fill="white" shape-rendering="crispEdges"/>
<g filter="url(#filter2_d_1173_12576)">
<rect x="127" y="-17" width="130" height="130" rx="65" fill="white" shape-rendering="crispEdges"/>
<g filter="url(#filter3_d_1173_12576)">
<g clip-path="url(#clip1_1173_12576)">
<rect x="147" y="3" width="90" height="90" rx="45" fill="white"/>
<rect x="150" y="6" width="84" height="84" rx="42" fill="#3898FC" fill-opacity="0.2"/>
<path d="M193.659 32.2861C192.343 32.2861 191.276 33.3527 191.276 34.6693C191.276 35.9858 192.343 37.0524 193.659 37.0524C194.976 37.0524 196.043 35.9858 196.043 34.6693C196.043 33.3527 194.976 32.2861 193.659 32.2861Z" fill="#3898FC"/>
<path d="M194.015 23.0039C187.615 22.8206 182.349 27.7869 182.032 34.0696L178.833 38.3359C178.416 38.8859 178.816 39.6691 179.499 39.6691H181.999V44.6687C181.999 46.5019 183.499 48.0017 185.332 48.0017H186.999V51.3348C186.999 52.2514 187.749 53.0013 188.665 53.0013H196.998C197.914 53.0013 198.664 52.2514 198.664 51.3348V45.202C202.731 43.2688 205.497 39.0692 205.33 34.2363C205.097 28.2035 200.031 23.1873 194.015 23.0039ZM198.664 34.6696C198.664 34.8862 198.648 35.1029 198.631 35.3195L200.014 36.4194C200.147 36.5194 200.181 36.6861 200.097 36.836L198.764 39.1525C198.681 39.3025 198.498 39.3525 198.364 39.3025L196.714 38.6359C196.364 38.9025 195.998 39.1192 195.598 39.2858L195.331 41.0523C195.315 41.219 195.165 41.3356 194.998 41.3356H192.332C192.165 41.3356 192.032 41.219 191.998 41.0523L191.748 39.2858C191.332 39.1192 190.965 38.9025 190.615 38.6359L188.965 39.3025C188.815 39.3525 188.632 39.3025 188.549 39.1525L187.215 36.836C187.132 36.7027 187.165 36.5194 187.299 36.4194L188.698 35.3195C188.682 35.1029 188.665 34.8862 188.665 34.6696C188.665 34.4529 188.698 34.2196 188.732 34.0196L187.315 32.9197C187.182 32.8197 187.149 32.6531 187.232 32.4864L188.565 30.1866C188.648 30.0367 188.815 29.9867 188.965 30.0367L190.632 30.7033C190.965 30.4533 191.348 30.22 191.748 30.0533L191.998 28.2868C192.032 28.1202 192.165 28.0035 192.332 28.0035H194.998C195.165 28.0035 195.298 28.1202 195.331 28.2868L195.581 30.0533C195.981 30.22 196.348 30.4366 196.698 30.7033L198.364 30.0367C198.514 29.9867 198.698 30.0367 198.764 30.1866L200.097 32.4864C200.181 32.6364 200.147 32.8197 200.014 32.9197L198.598 34.0196C198.648 34.2196 198.664 34.4363 198.664 34.6696Z" fill="#3898FC"/>
<path d="M170.703 60.4697V69.001H169.572V60.4697H170.703ZM173.68 64.0146V69.001H172.596V62.6611H173.621L173.68 64.0146ZM173.422 65.5908L172.971 65.5732C172.975 65.1396 173.039 64.7393 173.164 64.3721C173.289 64.001 173.465 63.6787 173.691 63.4053C173.918 63.1318 174.188 62.9209 174.5 62.7725C174.816 62.6201 175.166 62.5439 175.549 62.5439C175.861 62.5439 176.143 62.5869 176.393 62.6729C176.643 62.7549 176.855 62.8877 177.031 63.0713C177.211 63.2549 177.348 63.4932 177.441 63.7861C177.535 64.0752 177.582 64.4287 177.582 64.8467V69.001H176.492V64.835C176.492 64.5029 176.443 64.2373 176.346 64.0381C176.248 63.835 176.105 63.6885 175.918 63.5986C175.73 63.5049 175.5 63.458 175.227 63.458C174.957 63.458 174.711 63.5146 174.488 63.6279C174.27 63.7412 174.08 63.8975 173.92 64.0967C173.764 64.2959 173.641 64.5244 173.551 64.7822C173.465 65.0361 173.422 65.3057 173.422 65.5908ZM181.883 62.6611V63.4932H178.455V62.6611H181.883ZM179.615 61.1201H180.699V67.4307C180.699 67.6455 180.732 67.8076 180.799 67.917C180.865 68.0264 180.951 68.0986 181.057 68.1338C181.162 68.1689 181.275 68.1865 181.396 68.1865C181.486 68.1865 181.58 68.1787 181.678 68.1631C181.779 68.1436 181.855 68.1279 181.906 68.1162L181.912 69.001C181.826 69.0283 181.713 69.0537 181.572 69.0771C181.436 69.1045 181.27 69.1182 181.074 69.1182C180.809 69.1182 180.564 69.0654 180.342 68.96C180.119 68.8545 179.941 68.6787 179.809 68.4326C179.68 68.1826 179.615 67.8467 179.615 67.4248V61.1201ZM185.785 69.1182C185.344 69.1182 184.943 69.0439 184.584 68.8955C184.229 68.7432 183.922 68.5303 183.664 68.2568C183.41 67.9834 183.215 67.6592 183.078 67.2842C182.941 66.9092 182.873 66.499 182.873 66.0537V65.8076C182.873 65.292 182.949 64.833 183.102 64.4307C183.254 64.0244 183.461 63.6807 183.723 63.3994C183.984 63.1182 184.281 62.9053 184.613 62.7607C184.945 62.6162 185.289 62.5439 185.645 62.5439C186.098 62.5439 186.488 62.6221 186.816 62.7783C187.148 62.9346 187.42 63.1533 187.631 63.4346C187.842 63.7119 187.998 64.04 188.1 64.4189C188.201 64.7939 188.252 65.2041 188.252 65.6494V66.1357H183.518V65.251H187.168V65.1689C187.152 64.8877 187.094 64.6143 186.992 64.3486C186.895 64.083 186.738 63.8643 186.523 63.6924C186.309 63.5205 186.016 63.4346 185.645 63.4346C185.398 63.4346 185.172 63.4873 184.965 63.5928C184.758 63.6943 184.58 63.8467 184.432 64.0498C184.283 64.2529 184.168 64.501 184.086 64.7939C184.004 65.0869 183.963 65.4248 183.963 65.8076V66.0537C183.963 66.3545 184.004 66.6377 184.086 66.9033C184.172 67.165 184.295 67.3955 184.455 67.5947C184.619 67.7939 184.816 67.9502 185.047 68.0635C185.281 68.1768 185.547 68.2334 185.844 68.2334C186.227 68.2334 186.551 68.1553 186.816 67.999C187.082 67.8428 187.314 67.6338 187.514 67.3721L188.17 67.8936C188.033 68.1006 187.859 68.2979 187.648 68.4854C187.438 68.6729 187.178 68.8252 186.869 68.9424C186.564 69.0596 186.203 69.1182 185.785 69.1182ZM190.602 63.6572V69.001H189.518V62.6611H190.572L190.602 63.6572ZM192.582 62.626L192.576 63.6338C192.486 63.6143 192.4 63.6025 192.318 63.5986C192.24 63.5908 192.15 63.5869 192.049 63.5869C191.799 63.5869 191.578 63.626 191.387 63.7041C191.195 63.7822 191.033 63.8916 190.9 64.0322C190.768 64.1729 190.662 64.3408 190.584 64.5361C190.51 64.7275 190.461 64.9385 190.438 65.1689L190.133 65.3447C190.133 64.9619 190.17 64.6025 190.244 64.2666C190.322 63.9307 190.441 63.6338 190.602 63.376C190.762 63.1143 190.965 62.9111 191.211 62.7666C191.461 62.6182 191.758 62.5439 192.102 62.5439C192.18 62.5439 192.27 62.5537 192.371 62.5732C192.473 62.5889 192.543 62.6064 192.582 62.626ZM196.098 69.1182C195.656 69.1182 195.256 69.0439 194.896 68.8955C194.541 68.7432 194.234 68.5303 193.977 68.2568C193.723 67.9834 193.527 67.6592 193.391 67.2842C193.254 66.9092 193.186 66.499 193.186 66.0537V65.8076C193.186 65.292 193.262 64.833 193.414 64.4307C193.566 64.0244 193.773 63.6807 194.035 63.3994C194.297 63.1182 194.594 62.9053 194.926 62.7607C195.258 62.6162 195.602 62.5439 195.957 62.5439C196.41 62.5439 196.801 62.6221 197.129 62.7783C197.461 62.9346 197.732 63.1533 197.943 63.4346C198.154 63.7119 198.311 64.04 198.412 64.4189C198.514 64.7939 198.564 65.2041 198.564 65.6494V66.1357H193.83V65.251H197.48V65.1689C197.465 64.8877 197.406 64.6143 197.305 64.3486C197.207 64.083 197.051 63.8643 196.836 63.6924C196.621 63.5205 196.328 63.4346 195.957 63.4346C195.711 63.4346 195.484 63.4873 195.277 63.5928C195.07 63.6943 194.893 63.8467 194.744 64.0498C194.596 64.2529 194.48 64.501 194.398 64.7939C194.316 65.0869 194.275 65.4248 194.275 65.8076V66.0537C194.275 66.3545 194.316 66.6377 194.398 66.9033C194.484 67.165 194.607 67.3955 194.768 67.5947C194.932 67.7939 195.129 67.9502 195.359 68.0635C195.594 68.1768 195.859 68.2334 196.156 68.2334C196.539 68.2334 196.863 68.1553 197.129 67.999C197.395 67.8428 197.627 67.6338 197.826 67.3721L198.482 67.8936C198.346 68.1006 198.172 68.2979 197.961 68.4854C197.75 68.6729 197.49 68.8252 197.182 68.9424C196.877 69.0596 196.516 69.1182 196.098 69.1182ZM203.521 67.3193C203.521 67.1631 203.486 67.0186 203.416 66.8857C203.35 66.749 203.211 66.626 203 66.5166C202.793 66.4033 202.48 66.3057 202.062 66.2236C201.711 66.1494 201.393 66.0615 201.107 65.96C200.826 65.8584 200.586 65.7354 200.387 65.5908C200.191 65.4463 200.041 65.2764 199.936 65.0811C199.83 64.8857 199.777 64.6572 199.777 64.3955C199.777 64.1455 199.832 63.9092 199.941 63.6865C200.055 63.4639 200.213 63.2666 200.416 63.0947C200.623 62.9229 200.871 62.7881 201.16 62.6904C201.449 62.5928 201.771 62.5439 202.127 62.5439C202.635 62.5439 203.068 62.6338 203.428 62.8135C203.787 62.9932 204.062 63.2334 204.254 63.5342C204.445 63.8311 204.541 64.1611 204.541 64.5244H203.457C203.457 64.3486 203.404 64.1787 203.299 64.0146C203.197 63.8467 203.047 63.708 202.848 63.5986C202.652 63.4893 202.412 63.4346 202.127 63.4346C201.826 63.4346 201.582 63.4814 201.395 63.5752C201.211 63.665 201.076 63.7803 200.99 63.9209C200.908 64.0615 200.867 64.21 200.867 64.3662C200.867 64.4834 200.887 64.5889 200.926 64.6826C200.969 64.7725 201.043 64.8564 201.148 64.9346C201.254 65.0088 201.402 65.0791 201.594 65.1455C201.785 65.2119 202.029 65.2783 202.326 65.3447C202.846 65.4619 203.273 65.6025 203.609 65.7666C203.945 65.9307 204.195 66.1318 204.359 66.3701C204.523 66.6084 204.605 66.8975 204.605 67.2373C204.605 67.5146 204.547 67.7686 204.43 67.999C204.316 68.2295 204.15 68.4287 203.932 68.5967C203.717 68.7607 203.459 68.8896 203.158 68.9834C202.861 69.0732 202.527 69.1182 202.156 69.1182C201.598 69.1182 201.125 69.0186 200.738 68.8193C200.352 68.6201 200.059 68.3623 199.859 68.0459C199.66 67.7295 199.561 67.3955 199.561 67.0439H200.65C200.666 67.3408 200.752 67.5771 200.908 67.7529C201.064 67.9248 201.256 68.0479 201.482 68.1221C201.709 68.1924 201.934 68.2275 202.156 68.2275C202.453 68.2275 202.701 68.1885 202.9 68.1104C203.104 68.0322 203.258 67.9248 203.363 67.7881C203.469 67.6514 203.521 67.4951 203.521 67.3193ZM208.684 62.6611V63.4932H205.256V62.6611H208.684ZM206.416 61.1201H207.5V67.4307C207.5 67.6455 207.533 67.8076 207.6 67.917C207.666 68.0264 207.752 68.0986 207.857 68.1338C207.963 68.1689 208.076 68.1865 208.197 68.1865C208.287 68.1865 208.381 68.1787 208.479 68.1631C208.58 68.1436 208.656 68.1279 208.707 68.1162L208.713 69.001C208.627 69.0283 208.514 69.0537 208.373 69.0771C208.236 69.1045 208.07 69.1182 207.875 69.1182C207.609 69.1182 207.365 69.0654 207.143 68.96C206.92 68.8545 206.742 68.6787 206.609 68.4326C206.48 68.1826 206.416 67.8467 206.416 67.4248V61.1201ZM213.646 67.3193C213.646 67.1631 213.611 67.0186 213.541 66.8857C213.475 66.749 213.336 66.626 213.125 66.5166C212.918 66.4033 212.605 66.3057 212.188 66.2236C211.836 66.1494 211.518 66.0615 211.232 65.96C210.951 65.8584 210.711 65.7354 210.512 65.5908C210.316 65.4463 210.166 65.2764 210.061 65.0811C209.955 64.8857 209.902 64.6572 209.902 64.3955C209.902 64.1455 209.957 63.9092 210.066 63.6865C210.18 63.4639 210.338 63.2666 210.541 63.0947C210.748 62.9229 210.996 62.7881 211.285 62.6904C211.574 62.5928 211.896 62.5439 212.252 62.5439C212.76 62.5439 213.193 62.6338 213.553 62.8135C213.912 62.9932 214.188 63.2334 214.379 63.5342C214.57 63.8311 214.666 64.1611 214.666 64.5244H213.582C213.582 64.3486 213.529 64.1787 213.424 64.0146C213.322 63.8467 213.172 63.708 212.973 63.5986C212.777 63.4893 212.537 63.4346 212.252 63.4346C211.951 63.4346 211.707 63.4814 211.52 63.5752C211.336 63.665 211.201 63.7803 211.115 63.9209C211.033 64.0615 210.992 64.21 210.992 64.3662C210.992 64.4834 211.012 64.5889 211.051 64.6826C211.094 64.7725 211.168 64.8564 211.273 64.9346C211.379 65.0088 211.527 65.0791 211.719 65.1455C211.91 65.2119 212.154 65.2783 212.451 65.3447C212.971 65.4619 213.398 65.6025 213.734 65.7666C214.07 65.9307 214.32 66.1318 214.484 66.3701C214.648 66.6084 214.73 66.8975 214.73 67.2373C214.73 67.5146 214.672 67.7686 214.555 67.999C214.441 68.2295 214.275 68.4287 214.057 68.5967C213.842 68.7607 213.584 68.8896 213.283 68.9834C212.986 69.0732 212.652 69.1182 212.281 69.1182C211.723 69.1182 211.25 69.0186 210.863 68.8193C210.477 68.6201 210.184 68.3623 209.984 68.0459C209.785 67.7295 209.686 67.3955 209.686 67.0439H210.775C210.791 67.3408 210.877 67.5771 211.033 67.7529C211.189 67.9248 211.381 68.0479 211.607 68.1221C211.834 68.1924 212.059 68.2275 212.281 68.2275C212.578 68.2275 212.826 68.1885 213.025 68.1104C213.229 68.0322 213.383 67.9248 213.488 67.7881C213.594 67.6514 213.646 67.4951 213.646 67.3193Z" fill="#3898FC"/>
</g>
</g>
</g>
</g>
<g filter="url(#filter4_d_1173_12576)">
<rect x="249" y="22" width="68" height="21" rx="10.5" fill="white" shape-rendering="crispEdges"/>
<g clip-path="url(#clip2_1173_12576)">
<path d="M267.334 33.8337H266.807L266.62 33.6537C267.42 32.7204 267.834 31.4471 267.607 30.0938C267.294 28.2404 265.747 26.7604 263.88 26.5338C261.06 26.1871 258.687 28.5604 259.034 31.3804C259.26 33.2471 260.74 34.7937 262.594 35.1071C263.947 35.3337 265.22 34.9204 266.154 34.1204L266.334 34.3071V34.8337L269.167 37.6671C269.44 37.9404 269.887 37.9404 270.16 37.6671C270.434 37.3938 270.434 36.9471 270.16 36.6737L267.334 33.8337ZM263.334 33.8337C261.674 33.8337 260.334 32.4938 260.334 30.8338C260.334 29.1738 261.674 27.8338 263.334 27.8338C264.994 27.8338 266.334 29.1738 266.334 30.8338C266.334 32.4938 264.994 33.8337 263.334 33.8337Z" fill="#5F6368"/>
</g>
<path d="M279.031 33.0098H276.869L276.857 32.1016H278.82C279.145 32.1016 279.428 32.0469 279.67 31.9375C279.912 31.8281 280.1 31.6719 280.232 31.4688C280.369 31.2617 280.438 31.0156 280.438 30.7305C280.438 30.418 280.377 30.1641 280.256 29.9688C280.139 29.7695 279.957 29.625 279.711 29.5352C279.469 29.4414 279.16 29.3945 278.785 29.3945H277.121V37H275.99V28.4688H278.785C279.223 28.4688 279.613 28.5137 279.957 28.6035C280.301 28.6895 280.592 28.8262 280.83 29.0137C281.072 29.1973 281.256 29.4316 281.381 29.7168C281.506 30.002 281.568 30.3438 281.568 30.7422C281.568 31.0938 281.479 31.4121 281.299 31.6973C281.119 31.9785 280.869 32.209 280.549 32.3887C280.232 32.5684 279.861 32.6836 279.436 32.7344L279.031 33.0098ZM278.979 37H276.424L277.062 36.0801H278.979C279.338 36.0801 279.643 36.0176 279.893 35.8926C280.146 35.7676 280.34 35.5918 280.473 35.3652C280.605 35.1348 280.672 34.8633 280.672 34.5508C280.672 34.2344 280.615 33.9609 280.502 33.7305C280.389 33.5 280.211 33.3223 279.969 33.1973C279.727 33.0723 279.414 33.0098 279.031 33.0098H277.42L277.432 32.1016H279.635L279.875 32.4297C280.285 32.4648 280.633 32.582 280.918 32.7812C281.203 32.9766 281.42 33.2266 281.568 33.5312C281.721 33.8359 281.797 34.1719 281.797 34.5391C281.797 35.0703 281.68 35.5195 281.445 35.8867C281.215 36.25 280.889 36.5273 280.467 36.7188C280.045 36.9062 279.549 37 278.979 37ZM283.016 33.9004V33.7656C283.016 33.3086 283.082 32.8848 283.215 32.4941C283.348 32.0996 283.539 31.7578 283.789 31.4688C284.039 31.1758 284.342 30.9492 284.697 30.7891C285.053 30.625 285.451 30.543 285.893 30.543C286.338 30.543 286.738 30.625 287.094 30.7891C287.453 30.9492 287.758 31.1758 288.008 31.4688C288.262 31.7578 288.455 32.0996 288.588 32.4941C288.721 32.8848 288.787 33.3086 288.787 33.7656V33.9004C288.787 34.3574 288.721 34.7812 288.588 35.1719C288.455 35.5625 288.262 35.9043 288.008 36.1973C287.758 36.4863 287.455 36.7129 287.1 36.877C286.748 37.0371 286.35 37.1172 285.904 37.1172C285.459 37.1172 285.059 37.0371 284.703 36.877C284.348 36.7129 284.043 36.4863 283.789 36.1973C283.539 35.9043 283.348 35.5625 283.215 35.1719C283.082 34.7812 283.016 34.3574 283.016 33.9004ZM284.1 33.7656V33.9004C284.1 34.2168 284.137 34.5156 284.211 34.7969C284.285 35.0742 284.396 35.3203 284.545 35.5352C284.697 35.75 284.887 35.9199 285.113 36.0449C285.34 36.166 285.604 36.2266 285.904 36.2266C286.201 36.2266 286.461 36.166 286.684 36.0449C286.91 35.9199 287.098 35.75 287.246 35.5352C287.395 35.3203 287.506 35.0742 287.58 34.7969C287.658 34.5156 287.697 34.2168 287.697 33.9004V33.7656C287.697 33.4531 287.658 33.1582 287.58 32.8809C287.506 32.5996 287.393 32.3516 287.24 32.1367C287.092 31.918 286.904 31.7461 286.678 31.6211C286.455 31.4961 286.193 31.4336 285.893 31.4336C285.596 31.4336 285.334 31.4961 285.107 31.6211C284.885 31.7461 284.697 31.918 284.545 32.1367C284.396 32.3516 284.285 32.5996 284.211 32.8809C284.137 33.1582 284.1 33.4531 284.1 33.7656ZM289.859 33.9004V33.7656C289.859 33.3086 289.926 32.8848 290.059 32.4941C290.191 32.0996 290.383 31.7578 290.633 31.4688C290.883 31.1758 291.186 30.9492 291.541 30.7891C291.896 30.625 292.295 30.543 292.736 30.543C293.182 30.543 293.582 30.625 293.938 30.7891C294.297 30.9492 294.602 31.1758 294.852 31.4688C295.105 31.7578 295.299 32.0996 295.432 32.4941C295.564 32.8848 295.631 33.3086 295.631 33.7656V33.9004C295.631 34.3574 295.564 34.7812 295.432 35.1719C295.299 35.5625 295.105 35.9043 294.852 36.1973C294.602 36.4863 294.299 36.7129 293.943 36.877C293.592 37.0371 293.193 37.1172 292.748 37.1172C292.303 37.1172 291.902 37.0371 291.547 36.877C291.191 36.7129 290.887 36.4863 290.633 36.1973C290.383 35.9043 290.191 35.5625 290.059 35.1719C289.926 34.7812 289.859 34.3574 289.859 33.9004ZM290.943 33.7656V33.9004C290.943 34.2168 290.98 34.5156 291.055 34.7969C291.129 35.0742 291.24 35.3203 291.389 35.5352C291.541 35.75 291.73 35.9199 291.957 36.0449C292.184 36.166 292.447 36.2266 292.748 36.2266C293.045 36.2266 293.305 36.166 293.527 36.0449C293.754 35.9199 293.941 35.75 294.09 35.5352C294.238 35.3203 294.35 35.0742 294.424 34.7969C294.502 34.5156 294.541 34.2168 294.541 33.9004V33.7656C294.541 33.4531 294.502 33.1582 294.424 32.8809C294.35 32.5996 294.236 32.3516 294.084 32.1367C293.936 31.918 293.748 31.7461 293.521 31.6211C293.299 31.4961 293.037 31.4336 292.736 31.4336C292.439 31.4336 292.178 31.4961 291.951 31.6211C291.729 31.7461 291.541 31.918 291.389 32.1367C291.24 32.3516 291.129 32.5996 291.055 32.8809C290.98 33.1582 290.943 33.4531 290.943 33.7656ZM298.08 28V37H296.99V28H298.08ZM301.953 30.6602L299.188 33.6191L297.641 35.2246L297.553 34.0703L298.66 32.7461L300.629 30.6602H301.953ZM300.963 37L298.701 33.9766L299.264 33.0098L302.24 37H300.963ZM306.764 35.3184C306.764 35.1621 306.729 35.0176 306.658 34.8848C306.592 34.748 306.453 34.625 306.242 34.5156C306.035 34.4023 305.723 34.3047 305.305 34.2227C304.953 34.1484 304.635 34.0605 304.35 33.959C304.068 33.8574 303.828 33.7344 303.629 33.5898C303.434 33.4453 303.283 33.2754 303.178 33.0801C303.072 32.8848 303.02 32.6562 303.02 32.3945C303.02 32.1445 303.074 31.9082 303.184 31.6855C303.297 31.4629 303.455 31.2656 303.658 31.0938C303.865 30.9219 304.113 30.7871 304.402 30.6895C304.691 30.5918 305.014 30.543 305.369 30.543C305.877 30.543 306.311 30.6328 306.67 30.8125C307.029 30.9922 307.305 31.2324 307.496 31.5332C307.688 31.8301 307.783 32.1602 307.783 32.5234H306.699C306.699 32.3477 306.646 32.1777 306.541 32.0137C306.439 31.8457 306.289 31.707 306.09 31.5977C305.895 31.4883 305.654 31.4336 305.369 31.4336C305.068 31.4336 304.824 31.4805 304.637 31.5742C304.453 31.6641 304.318 31.7793 304.232 31.9199C304.15 32.0605 304.109 32.209 304.109 32.3652C304.109 32.4824 304.129 32.5879 304.168 32.6816C304.211 32.7715 304.285 32.8555 304.391 32.9336C304.496 33.0078 304.645 33.0781 304.836 33.1445C305.027 33.2109 305.271 33.2773 305.568 33.3438C306.088 33.4609 306.516 33.6016 306.852 33.7656C307.188 33.9297 307.438 34.1309 307.602 34.3691C307.766 34.6074 307.848 34.8965 307.848 35.2363C307.848 35.5137 307.789 35.7676 307.672 35.998C307.559 36.2285 307.393 36.4277 307.174 36.5957C306.959 36.7598 306.701 36.8887 306.4 36.9824C306.104 37.0723 305.77 37.1172 305.398 37.1172C304.84 37.1172 304.367 37.0176 303.98 36.8184C303.594 36.6191 303.301 36.3613 303.102 36.0449C302.902 35.7285 302.803 35.3945 302.803 35.043H303.893C303.908 35.3398 303.994 35.5762 304.15 35.752C304.307 35.9238 304.498 36.0469 304.725 36.1211C304.951 36.1914 305.176 36.2266 305.398 36.2266C305.695 36.2266 305.943 36.1875 306.143 36.1094C306.346 36.0312 306.5 35.9238 306.605 35.7871C306.711 35.6504 306.764 35.4941 306.764 35.3184Z" fill="#5F6368"/>
</g>
<g filter="url(#filter5_d_1173_12576)">
<rect x="259" y="69" width="24" height="24" rx="12" fill="#F7EAFC" shape-rendering="crispEdges"/>
<rect x="259.5" y="69.5" width="23" height="23" rx="11.5" stroke="white" shape-rendering="crispEdges"/>
<g clip-path="url(#clip3_1173_12576)">
<path d="M270.999 83.6654C273.579 83.6654 275.665 81.5787 275.665 78.9987C275.665 76.4187 273.579 74.332 270.999 74.332C268.419 74.332 266.332 76.4187 266.332 78.9987C266.332 81.5787 268.419 83.6654 270.999 83.6654ZM270.999 75.6654C272.839 75.6654 274.332 77.1587 274.332 78.9987C274.332 80.8387 272.839 82.332 270.999 82.332C269.159 82.332 267.665 80.8387 267.665 78.9987C267.665 77.1587 269.159 75.6654 270.999 75.6654Z" fill="#966EBD"/>
<path d="M269.667 78.9974C270.035 78.9974 270.333 78.6989 270.333 78.3307C270.333 77.9625 270.035 77.6641 269.667 77.6641C269.298 77.6641 269 77.9625 269 78.3307C269 78.6989 269.298 78.9974 269.667 78.9974Z" fill="#966EBD"/>
<path d="M272.331 78.9974C272.699 78.9974 272.997 78.6989 272.997 78.3307C272.997 77.9625 272.699 77.6641 272.331 77.6641C271.963 77.6641 271.664 77.9625 271.664 78.3307C271.664 78.6989 271.963 78.9974 272.331 78.9974Z" fill="#966EBD"/>
<path d="M270.999 77.6654C271.367 77.6654 271.665 77.3669 271.665 76.9987C271.665 76.6305 271.367 76.332 270.999 76.332C270.631 76.332 270.332 76.6305 270.332 76.9987C270.332 77.3669 270.631 77.6654 270.999 77.6654Z" fill="#966EBD"/>
<path d="M273.664 84.332H268.331C267.964 84.332 267.664 84.632 267.664 84.9987C267.664 85.3654 267.964 85.6654 268.331 85.6654H268.997C269.731 85.6654 270.331 86.2654 270.331 86.9987V87.6654H271.664V86.9987C271.664 86.2654 272.264 85.6654 272.997 85.6654H273.664C274.031 85.6654 274.331 85.3654 274.331 84.9987C274.331 84.632 274.031 84.332 273.664 84.332Z" fill="#966EBD"/>
</g>
</g>
</g>
<g filter="url(#filter6_d_1173_12576)">
<rect x="162" y="107" width="38" height="38" rx="19" fill="#DBF6E7" shape-rendering="crispEdges"/>
<rect x="162.5" y="107.5" width="37" height="37" rx="18.5" stroke="white" shape-rendering="crispEdges"/>
<path d="M192.384 130.938L191.112 122.002C190.786 119.703 188.814 118 186.492 118H175.922C173.601 118 171.629 119.703 171.302 122.002L170.031 130.938C169.774 132.735 171.162 134.333 172.971 134.333C173.764 134.333 174.511 134.018 175.071 133.458L177.707 130.833H184.707L187.332 133.458C187.892 134.018 188.651 134.333 189.432 134.333C191.252 134.333 192.641 132.735 192.384 130.938ZM180.041 125H177.707V127.333H176.541V125H174.207V123.833H176.541V121.5H177.707V123.833H180.041V125ZM184.707 123.833C184.066 123.833 183.541 123.308 183.541 122.667C183.541 122.025 184.066 121.5 184.707 121.5C185.349 121.5 185.874 122.025 185.874 122.667C185.874 123.308 185.349 123.833 184.707 123.833ZM187.041 127.333C186.399 127.333 185.874 126.808 185.874 126.167C185.874 125.525 186.399 125 187.041 125C187.682 125 188.207 125.525 188.207 126.167C188.207 126.808 187.682 127.333 187.041 127.333Z" fill="#419D6A"/>
</g>
<g filter="url(#filter7_d_1173_12576)">
<rect x="111" width="32" height="32" rx="16" fill="#FEF7DF" shape-rendering="crispEdges"/>
<rect x="111.5" y="0.5" width="31" height="31" rx="15.5" stroke="white" shape-rendering="crispEdges"/>
<path d="M132 10H130V7C130 6.45 129.55 6 129 6H125C124.45 6 124 6.45 124 7V10H122C120.9 10 120 10.9 120 12V23C120 24.1 120.9 25 122 25C122 25.55 122.45 26 123 26C123.55 26 124 25.55 124 25H130C130 25.55 130.45 26 131 26C131.55 26 132 25.55 132 25C133.1 25 134 24.1 134 23V12C134 10.9 133.1 10 132 10ZM123.75 22C123.34 22 123 21.66 123 21.25V13.75C123 13.34 123.34 13 123.75 13C124.16 13 124.5 13.34 124.5 13.75V21.25C124.5 21.66 124.16 22 123.75 22ZM127 22C126.59 22 126.25 21.66 126.25 21.25V13.75C126.25 13.34 126.59 13 127 13C127.41 13 127.75 13.34 127.75 13.75V21.25C127.75 21.66 127.41 22 127 22ZM128.5 10H125.5V7.5H128.5V10ZM130.25 22C129.84 22 129.5 21.66 129.5 21.25V13.75C129.5 13.34 129.84 13 130.25 13C130.66 13 131 13.34 131 13.75V21.25C131 21.66 130.66 22 130.25 22Z" fill="#EBC12E"/>
</g>
<g filter="url(#filter8_d_1173_12576)">
<rect x="71" y="60" width="65" height="21" rx="10.5" fill="white" shape-rendering="crispEdges"/>
<g clip-path="url(#clip4_1173_12576)">
<path d="M87.9001 75.9204C87.3934 76.3804 86.6134 76.3804 86.1068 75.9138L86.0334 75.8471C82.5334 72.6804 80.2468 70.6071 80.3334 68.0204C80.3734 66.8871 80.9534 65.8004 81.8934 65.1604C83.6534 63.9604 85.8268 64.5204 87.0001 65.8938C88.1734 64.5204 90.3468 63.9538 92.1068 65.1604C93.0468 65.8004 93.6268 66.8871 93.6668 68.0204C93.7601 70.6071 91.4668 72.6804 87.9668 75.8604L87.9001 75.9204Z" fill="#D90F0F"/>
</g>
<path d="M103.031 71.0098H100.869L100.857 70.1016H102.82C103.145 70.1016 103.428 70.0469 103.67 69.9375C103.912 69.8281 104.1 69.6719 104.232 69.4688C104.369 69.2617 104.438 69.0156 104.438 68.7305C104.438 68.418 104.377 68.1641 104.256 67.9688C104.139 67.7695 103.957 67.625 103.711 67.5352C103.469 67.4414 103.16 67.3945 102.785 67.3945H101.121V75H99.9902V66.4688H102.785C103.223 66.4688 103.613 66.5137 103.957 66.6035C104.301 66.6895 104.592 66.8262 104.83 67.0137C105.072 67.1973 105.256 67.4316 105.381 67.7168C105.506 68.002 105.568 68.3438 105.568 68.7422C105.568 69.0938 105.479 69.4121 105.299 69.6973C105.119 69.9785 104.869 70.209 104.549 70.3887C104.232 70.5684 103.861 70.6836 103.436 70.7344L103.031 71.0098ZM102.979 75H100.424L101.062 74.0801H102.979C103.338 74.0801 103.643 74.0176 103.893 73.8926C104.146 73.7676 104.34 73.5918 104.473 73.3652C104.605 73.1348 104.672 72.8633 104.672 72.5508C104.672 72.2344 104.615 71.9609 104.502 71.7305C104.389 71.5 104.211 71.3223 103.969 71.1973C103.727 71.0723 103.414 71.0098 103.031 71.0098H101.42L101.432 70.1016H103.635L103.875 70.4297C104.285 70.4648 104.633 70.582 104.918 70.7812C105.203 70.9766 105.42 71.2266 105.568 71.5312C105.721 71.8359 105.797 72.1719 105.797 72.5391C105.797 73.0703 105.68 73.5195 105.445 73.8867C105.215 74.25 104.889 74.5273 104.467 74.7188C104.045 74.9062 103.549 75 102.979 75ZM107.824 66.4688H108.92L111.715 73.4238L114.504 66.4688H115.605L112.137 75H111.281L107.824 66.4688ZM107.467 66.4688H108.434L108.592 71.6719V75H107.467V66.4688ZM114.99 66.4688H115.957V75H114.832V71.6719L114.99 66.4688ZM120.188 72.4219L121.881 66.4688H122.701L122.227 68.7832L120.404 75H119.59L120.188 72.4219ZM118.436 66.4688L119.783 72.3047L120.188 75H119.379L117.311 66.4688H118.436ZM124.893 72.2988L126.211 66.4688H127.342L125.279 75H124.471L124.893 72.2988ZM122.824 66.4688L124.471 72.4219L125.068 75H124.254L122.496 68.7832L122.016 66.4688H122.824Z" fill="#5F6368"/>
</g>
</g>
<defs>
<filter id="filter0_d_1173_12576" x="83" y="-59" width="244" height="218" filterUnits="userSpaceOnUse" color-interpolation-filters="sRGB">
<feFlood flood-opacity="0" result="BackgroundImageFix"/>
<feColorMatrix in="SourceAlpha" type="matrix" values="0 0 0 0 0 0 0 0 0 0 0 0 0 0 0 0 0 0 127 0" result="hardAlpha"/>
<feOffset dy="2"/>
<feGaussianBlur stdDeviation="5"/>
<feComposite in2="hardAlpha" operator="out"/>
<feColorMatrix type="matrix" values="0 0 0 0 0 0 0 0 0 0 0 0 0 0 0 0 0 0 0.08 0"/>
<feBlend mode="normal" in2="BackgroundImageFix" result="effect1_dropShadow_1173_12576"/>
<feBlend mode="normal" in="SourceGraphic" in2="effect1_dropShadow_1173_12576" result="shape"/>
</filter>
<filter id="filter1_d_1173_12576" x="99" y="-43" width="186" height="186" filterUnits="userSpaceOnUse" color-interpolation-filters="sRGB">
<feFlood flood-opacity="0" result="BackgroundImageFix"/>
<feColorMatrix in="SourceAlpha" type="matrix" values="0 0 0 0 0 0 0 0 0 0 0 0 0 0 0 0 0 0 127 0" result="hardAlpha"/>
<feOffset dy="2"/>
<feGaussianBlur stdDeviation="5"/>
<feComposite in2="hardAlpha" operator="out"/>
<feColorMatrix type="matrix" values="0 0 0 0 0 0 0 0 0 0 0 0 0 0 0 0 0 0 0.08 0"/>
<feBlend mode="normal" in2="BackgroundImageFix" result="effect1_dropShadow_1173_12576"/>
<feBlend mode="normal" in="SourceGraphic" in2="effect1_dropShadow_1173_12576" result="shape"/>
</filter>
<filter id="filter2_d_1173_12576" x="117" y="-25" width="150" height="150" filterUnits="userSpaceOnUse" color-interpolation-filters="sRGB">
<feFlood flood-opacity="0" result="BackgroundImageFix"/>
<feColorMatrix in="SourceAlpha" type="matrix" values="0 0 0 0 0 0 0 0 0 0 0 0 0 0 0 0 0 0 127 0" result="hardAlpha"/>
<feOffset dy="2"/>
<feGaussianBlur stdDeviation="5"/>
<feComposite in2="hardAlpha" operator="out"/>
<feColorMatrix type="matrix" values="0 0 0 0 0 0 0 0 0 0 0 0 0 0 0 0 0 0 0.08 0"/>
<feBlend mode="normal" in2="BackgroundImageFix" result="effect1_dropShadow_1173_12576"/>
<feBlend mode="normal" in="SourceGraphic" in2="effect1_dropShadow_1173_12576" result="shape"/>
</filter>
<filter id="filter3_d_1173_12576" x="137" y="-5" width="110" height="110" filterUnits="userSpaceOnUse" color-interpolation-filters="sRGB">
<feFlood flood-opacity="0" result="BackgroundImageFix"/>
<feColorMatrix in="SourceAlpha" type="matrix" values="0 0 0 0 0 0 0 0 0 0 0 0 0 0 0 0 0 0 127 0" result="hardAlpha"/>
<feOffset dy="2"/>
<feGaussianBlur stdDeviation="5"/>
<feComposite in2="hardAlpha" operator="out"/>
<feColorMatrix type="matrix" values="0 0 0 0 0 0 0 0 0 0 0 0 0 0 0 0 0 0 0.12 0"/>
<feBlend mode="normal" in2="BackgroundImageFix" result="effect1_dropShadow_1173_12576"/>
<feBlend mode="normal" in="SourceGraphic" in2="effect1_dropShadow_1173_12576" result="shape"/>
</filter>
<filter id="filter4_d_1173_12576" x="239" y="14" width="88" height="41" filterUnits="userSpaceOnUse" color-interpolation-filters="sRGB">
<feFlood flood-opacity="0" result="BackgroundImageFix"/>
<feColorMatrix in="SourceAlpha" type="matrix" values="0 0 0 0 0 0 0 0 0 0 0 0 0 0 0 0 0 0 127 0" result="hardAlpha"/>
<feOffset dy="2"/>
<feGaussianBlur stdDeviation="5"/>
<feComposite in2="hardAlpha" operator="out"/>
<feColorMatrix type="matrix" values="0 0 0 0 0 0 0 0 0 0 0 0 0 0 0 0 0 0 0.1 0"/>
<feBlend mode="normal" in2="BackgroundImageFix" result="effect1_dropShadow_1173_12576"/>
<feBlend mode="normal" in="SourceGraphic" in2="effect1_dropShadow_1173_12576" result="shape"/>
</filter>
<filter id="filter5_d_1173_12576" x="249" y="61" width="44" height="44" filterUnits="userSpaceOnUse" color-interpolation-filters="sRGB">
<feFlood flood-opacity="0" result="BackgroundImageFix"/>
<feColorMatrix in="SourceAlpha" type="matrix" values="0 0 0 0 0 0 0 0 0 0 0 0 0 0 0 0 0 0 127 0" result="hardAlpha"/>
<feOffset dy="2"/>
<feGaussianBlur stdDeviation="5"/>
<feComposite in2="hardAlpha" operator="out"/>
<feColorMatrix type="matrix" values="0 0 0 0 0 0 0 0 0 0 0 0 0 0 0 0 0 0 0.1 0"/>
<feBlend mode="normal" in2="BackgroundImageFix" result="effect1_dropShadow_1173_12576"/>
<feBlend mode="normal" in="SourceGraphic" in2="effect1_dropShadow_1173_12576" result="shape"/>
</filter>
<filter id="filter6_d_1173_12576" x="152" y="99" width="58" height="58" filterUnits="userSpaceOnUse" color-interpolation-filters="sRGB">
<feFlood flood-opacity="0" result="BackgroundImageFix"/>
<feColorMatrix in="SourceAlpha" type="matrix" values="0 0 0 0 0 0 0 0 0 0 0 0 0 0 0 0 0 0 127 0" result="hardAlpha"/>
<feOffset dy="2"/>
<feGaussianBlur stdDeviation="5"/>
<feComposite in2="hardAlpha" operator="out"/>
<feColorMatrix type="matrix" values="0 0 0 0 0 0 0 0 0 0 0 0 0 0 0 0 0 0 0.1 0"/>
<feBlend mode="normal" in2="BackgroundImageFix" result="effect1_dropShadow_1173_12576"/>
<feBlend mode="normal" in="SourceGraphic" in2="effect1_dropShadow_1173_12576" result="shape"/>
</filter>
<filter id="filter7_d_1173_12576" x="101" y="-8" width="52" height="52" filterUnits="userSpaceOnUse" color-interpolation-filters="sRGB">
<feFlood flood-opacity="0" result="BackgroundImageFix"/>
<feColorMatrix in="SourceAlpha" type="matrix" values="0 0 0 0 0 0 0 0 0 0 0 0 0 0 0 0 0 0 127 0" result="hardAlpha"/>
<feOffset dy="2"/>
<feGaussianBlur stdDeviation="5"/>
<feComposite in2="hardAlpha" operator="out"/>
<feColorMatrix type="matrix" values="0 0 0 0 0 0 0 0 0 0 0 0 0 0 0 0 0 0 0.1 0"/>
<feBlend mode="normal" in2="BackgroundImageFix" result="effect1_dropShadow_1173_12576"/>
<feBlend mode="normal" in="SourceGraphic" in2="effect1_dropShadow_1173_12576" result="shape"/>
</filter>
<filter id="filter8_d_1173_12576" x="61" y="52" width="85" height="41" filterUnits="userSpaceOnUse" color-interpolation-filters="sRGB">
<feFlood flood-opacity="0" result="BackgroundImageFix"/>
<feColorMatrix in="SourceAlpha" type="matrix" values="0 0 0 0 0 0 0 0 0 0 0 0 0 0 0 0 0 0 127 0" result="hardAlpha"/>
<feOffset dy="2"/>
<feGaussianBlur stdDeviation="5"/>
<feComposite in2="hardAlpha" operator="out"/>
<feColorMatrix type="matrix" values="0 0 0 0 0 0 0 0 0 0 0 0 0 0 0 0 0 0 0.1 0"/>
<feBlend mode="normal" in2="BackgroundImageFix" result="effect1_dropShadow_1173_12576"/>
<feBlend mode="normal" in="SourceGraphic" in2="effect1_dropShadow_1173_12576" result="shape"/>
</filter>
<clipPath id="clip0_1173_12576">
<rect width="368" height="158" fill="white"/>
</clipPath>
<clipPath id="clip1_1173_12576">
<rect x="147" y="3" width="90" height="90" rx="45" fill="white"/>
</clipPath>
<clipPath id="clip2_1173_12576">
<rect width="16" height="16" fill="white" transform="translate(257 24.5)"/>
</clipPath>
<clipPath id="clip3_1173_12576">
<rect width="16" height="16" fill="white" transform="translate(263 73)"/>
</clipPath>
<clipPath id="clip4_1173_12576">
<rect width="16" height="16" fill="white" transform="translate(79 62.5)"/>
</clipPath>
</defs>
</svg>
