<svg width="16" height="16" viewBox="0 0 16 16" fill="none" xmlns="http://www.w3.org/2000/svg">
<path d="M7.20505 15.9875C6.84505 15.9875 6.49255 15.8975 6.16255 15.7175C5.50255 15.35 5.10505 14.6825 5.10505 13.9325V9.9575C5.10505 9.5825 4.85755 9.02 4.62505 8.735L1.82005 5.765C1.34755 5.2925 0.987549 4.4825 0.987549 3.875V2.15C0.987549 0.949997 1.89505 0.0124969 3.05005 0.0124969H12.9501C14.0901 0.0124969 15.0126 0.934997 15.0126 2.075V3.725C15.0126 4.5125 14.54 5.405 14.0975 5.8475L10.85 8.72C10.535 8.9825 10.2875 9.56 10.2875 10.025V13.25C10.2875 13.9175 9.86755 14.69 9.34255 15.005L8.30755 15.6725C7.97005 15.8825 7.58755 15.9875 7.20505 15.9875ZM3.05005 1.1375C2.52505 1.1375 2.11255 1.58 2.11255 2.15V3.875C2.11255 4.1525 2.33755 4.6925 2.62255 4.9775L5.48005 7.985C5.86255 8.4575 6.23755 9.245 6.23755 9.95V13.925C6.23755 14.4125 6.57505 14.6525 6.71755 14.7275C7.03255 14.9 7.41505 14.9 7.70755 14.72L8.75005 14.0525C8.96005 13.925 9.17005 13.52 9.17005 13.25V10.025C9.17005 9.2225 9.56005 8.3375 10.1226 7.865L13.3326 5.0225C13.5876 4.7675 13.8951 4.16 13.8951 3.7175V2.075C13.8951 1.5575 13.4751 1.1375 12.9576 1.1375H3.05005Z" fill="#737373"/>
</svg>
