<svg width="130" height="31" viewBox="0 0 130 31" fill="none" xmlns="http://www.w3.org/2000/svg">
<path fill-rule="evenodd" clip-rule="evenodd" d="M26 16.7089H23.9672L13.439 25.6049L2.91073 16.7088H1V18.9195L11.7466 28.0001H11.8929L11.8929 28.0001H15.1314L26 18.8165V16.7089Z" fill="#002868"/>
<path fill-rule="evenodd" clip-rule="evenodd" d="M1 14.4241V12.0806L11.7466 3H11.8929H15.036H15.1314L26 12.1837V14.4241H24.1244L13.439 5.39522L2.75361 14.4241H1Z" fill="#002868"/>
<path fill-rule="evenodd" clip-rule="evenodd" d="M11.0339 10.4775L6.88235 13.9854V14.0654V17.0305V17.1104L11.0339 20.6183H12.5546V18.4007L9.17844 15.5479L12.5546 12.6952V10.4775H11.0339Z" fill="#002868"/>
<path fill-rule="evenodd" clip-rule="evenodd" d="M15.9661 10.4775L20.1176 13.9855V14.0654V17.0304V17.1104L15.9661 20.6183H14.4454V18.4006L17.8215 15.5479L14.4454 12.6952V10.4775H15.9661Z" fill="#002868"/>
<path d="M54.994 28L56.896 23.8H57.49L59.398 28H58.768L57.07 24.136H57.31L55.612 28H54.994ZM55.804 26.95L55.966 26.47H58.33L58.504 26.95H55.804ZM59.6645 28V23.8H60.1565L62.9345 27.25H62.6765V23.8H63.2765V28H62.7845L60.0065 24.55H60.2645V28H59.6645ZM64.789 28L66.691 23.8H67.285L69.193 28H68.563L66.865 24.136H67.105L65.407 28H64.789ZM65.599 26.95L65.761 26.47H68.125L68.299 26.95H65.599ZM69.4595 28V23.8H70.0595V27.478H72.3335V28H69.4595ZM72.662 28V23.8H73.262V27.478H75.536V28H72.662ZM76.4045 25.786H78.5705V26.302H76.4045V25.786ZM76.4645 28H75.8645V23.8H78.8285V24.322H76.4645V28ZM81.1622 28.048C80.8422 28.048 80.5442 27.994 80.2682 27.886C79.9962 27.778 79.7602 27.628 79.5602 27.436C79.3602 27.24 79.2042 27.012 79.0922 26.752C78.9802 26.492 78.9242 26.208 78.9242 25.9C78.9242 25.592 78.9802 25.308 79.0922 25.048C79.2042 24.788 79.3602 24.562 79.5602 24.37C79.7602 24.174 79.9962 24.022 80.2682 23.914C80.5402 23.806 80.8382 23.752 81.1622 23.752C81.4822 23.752 81.7762 23.806 82.0442 23.914C82.3162 24.018 82.5522 24.168 82.7522 24.364C82.9562 24.556 83.1122 24.782 83.2202 25.042C83.3322 25.302 83.3882 25.588 83.3882 25.9C83.3882 26.212 83.3322 26.498 83.2202 26.758C83.1122 27.018 82.9562 27.246 82.7522 27.442C82.5522 27.634 82.3162 27.784 82.0442 27.892C81.7762 27.996 81.4822 28.048 81.1622 28.048ZM81.1622 27.514C81.3942 27.514 81.6082 27.474 81.8042 27.394C82.0042 27.314 82.1762 27.202 82.3202 27.058C82.4682 26.91 82.5822 26.738 82.6622 26.542C82.7462 26.346 82.7882 26.132 82.7882 25.9C82.7882 25.668 82.7462 25.454 82.6622 25.258C82.5822 25.062 82.4682 24.892 82.3202 24.748C82.1762 24.6 82.0042 24.486 81.8042 24.406C81.6082 24.326 81.3942 24.286 81.1622 24.286C80.9262 24.286 80.7082 24.326 80.5082 24.406C80.3122 24.486 80.1402 24.6 79.9922 24.748C79.8442 24.892 79.7282 25.062 79.6442 25.258C79.5642 25.454 79.5242 25.668 79.5242 25.9C79.5242 26.132 79.5642 26.346 79.6442 26.542C79.7282 26.738 79.8442 26.91 79.9922 27.058C80.1402 27.202 80.3122 27.314 80.5082 27.394C80.7082 27.474 80.9262 27.514 81.1622 27.514ZM83.9453 28V23.8H85.5833C85.9513 23.8 86.2653 23.858 86.5253 23.974C86.7853 24.09 86.9853 24.258 87.1253 24.478C87.2653 24.698 87.3353 24.96 87.3353 25.264C87.3353 25.568 87.2653 25.83 87.1253 26.05C86.9853 26.266 86.7853 26.432 86.5253 26.548C86.2653 26.664 85.9513 26.722 85.5833 26.722H84.2753L84.5453 26.446V28H83.9453ZM86.7533 28L85.6853 26.476H86.3273L87.4073 28H86.7533ZM84.5453 26.506L84.2753 26.212H85.5653C85.9493 26.212 86.2393 26.13 86.4353 25.966C86.6353 25.798 86.7353 25.564 86.7353 25.264C86.7353 24.964 86.6353 24.732 86.4353 24.568C86.2393 24.404 85.9493 24.322 85.5653 24.322H84.2753L84.5453 24.022V26.506ZM89.8227 28.048C89.5027 28.048 89.2067 27.996 88.9347 27.892C88.6667 27.784 88.4327 27.634 88.2327 27.442C88.0367 27.246 87.8827 27.018 87.7707 26.758C87.6587 26.498 87.6027 26.212 87.6027 25.9C87.6027 25.588 87.6587 25.302 87.7707 25.042C87.8827 24.782 88.0387 24.556 88.2387 24.364C88.4387 24.168 88.6727 24.018 88.9407 23.914C89.2127 23.806 89.5087 23.752 89.8287 23.752C90.1527 23.752 90.4507 23.808 90.7227 23.92C90.9987 24.028 91.2327 24.19 91.4247 24.406L91.0347 24.784C90.8747 24.616 90.6947 24.492 90.4947 24.412C90.2947 24.328 90.0807 24.286 89.8527 24.286C89.6167 24.286 89.3967 24.326 89.1927 24.406C88.9927 24.486 88.8187 24.598 88.6707 24.742C88.5227 24.886 88.4067 25.058 88.3227 25.258C88.2427 25.454 88.2027 25.668 88.2027 25.9C88.2027 26.132 88.2427 26.348 88.3227 26.548C88.4067 26.744 88.5227 26.914 88.6707 27.058C88.8187 27.202 88.9927 27.314 89.1927 27.394C89.3967 27.474 89.6167 27.514 89.8527 27.514C90.0807 27.514 90.2947 27.474 90.4947 27.394C90.6947 27.31 90.8747 27.182 91.0347 27.01L91.4247 27.388C91.2327 27.604 90.9987 27.768 90.7227 27.88C90.4507 27.992 90.1507 28.048 89.8227 28.048ZM92.4666 25.612H94.6266V26.122H92.4666V25.612ZM92.5206 27.478H94.9686V28H91.9206V23.8H94.8846V24.322H92.5206V27.478ZM98.7095 28.048C98.3895 28.048 98.0935 27.996 97.8215 27.892C97.5535 27.784 97.3195 27.634 97.1195 27.442C96.9235 27.246 96.7695 27.018 96.6575 26.758C96.5455 26.498 96.4895 26.212 96.4895 25.9C96.4895 25.588 96.5455 25.302 96.6575 25.042C96.7695 24.782 96.9255 24.556 97.1255 24.364C97.3255 24.168 97.5595 24.018 97.8275 23.914C98.0995 23.806 98.3955 23.752 98.7155 23.752C99.0395 23.752 99.3375 23.808 99.6095 23.92C99.8855 24.028 100.119 24.19 100.311 24.406L99.9215 24.784C99.7615 24.616 99.5815 24.492 99.3815 24.412C99.1815 24.328 98.9675 24.286 98.7395 24.286C98.5035 24.286 98.2835 24.326 98.0795 24.406C97.8795 24.486 97.7055 24.598 97.5575 24.742C97.4095 24.886 97.2935 25.058 97.2095 25.258C97.1295 25.454 97.0895 25.668 97.0895 25.9C97.0895 26.132 97.1295 26.348 97.2095 26.548C97.2935 26.744 97.4095 26.914 97.5575 27.058C97.7055 27.202 97.8795 27.314 98.0795 27.394C98.2835 27.474 98.5035 27.514 98.7395 27.514C98.9675 27.514 99.1815 27.474 99.3815 27.394C99.5815 27.31 99.7615 27.182 99.9215 27.01L100.311 27.388C100.119 27.604 99.8855 27.768 99.6095 27.88C99.3375 27.992 99.0375 28.048 98.7095 28.048ZM102.616 28.048C102.296 28.048 101.998 27.994 101.722 27.886C101.45 27.778 101.214 27.628 101.014 27.436C100.814 27.24 100.658 27.012 100.546 26.752C100.434 26.492 100.378 26.208 100.378 25.9C100.378 25.592 100.434 25.308 100.546 25.048C100.658 24.788 100.814 24.562 101.014 24.37C101.214 24.174 101.45 24.022 101.722 23.914C101.994 23.806 102.292 23.752 102.616 23.752C102.936 23.752 103.23 23.806 103.498 23.914C103.77 24.018 104.006 24.168 104.206 24.364C104.41 24.556 104.566 24.782 104.674 25.042C104.786 25.302 104.842 25.588 104.842 25.9C104.842 26.212 104.786 26.498 104.674 26.758C104.566 27.018 104.41 27.246 104.206 27.442C104.006 27.634 103.77 27.784 103.498 27.892C103.23 27.996 102.936 28.048 102.616 28.048ZM102.616 27.514C102.848 27.514 103.062 27.474 103.258 27.394C103.458 27.314 103.63 27.202 103.774 27.058C103.922 26.91 104.036 26.738 104.116 26.542C104.2 26.346 104.242 26.132 104.242 25.9C104.242 25.668 104.2 25.454 104.116 25.258C104.036 25.062 103.922 24.892 103.774 24.748C103.63 24.6 103.458 24.486 103.258 24.406C103.062 24.326 102.848 24.286 102.616 24.286C102.38 24.286 102.162 24.326 101.962 24.406C101.766 24.486 101.594 24.6 101.446 24.748C101.298 24.892 101.182 25.062 101.098 25.258C101.018 25.454 100.978 25.668 100.978 25.9C100.978 26.132 101.018 26.346 101.098 26.542C101.182 26.738 101.298 26.91 101.446 27.058C101.594 27.202 101.766 27.314 101.962 27.394C102.162 27.474 102.38 27.514 102.616 27.514ZM105.399 28V23.8H105.891L107.775 26.974H107.511L109.371 23.8H109.863L109.869 28H109.293L109.287 24.706H109.425L107.769 27.49H107.493L105.825 24.706H105.975V28H105.399ZM110.769 28V23.8H112.407C112.775 23.8 113.089 23.858 113.349 23.974C113.609 24.09 113.809 24.258 113.949 24.478C114.089 24.698 114.159 24.96 114.159 25.264C114.159 25.568 114.089 25.83 113.949 26.05C113.809 26.266 113.609 26.434 113.349 26.554C113.089 26.67 112.775 26.728 112.407 26.728H111.099L111.369 26.446V28H110.769ZM111.369 26.506L111.099 26.206H112.389C112.773 26.206 113.063 26.124 113.259 25.96C113.459 25.796 113.559 25.564 113.559 25.264C113.559 24.964 113.459 24.732 113.259 24.568C113.063 24.404 112.773 24.322 112.389 24.322H111.099L111.369 24.022V26.506ZM113.834 28L115.736 23.8H116.33L118.238 28H117.608L115.91 24.136H116.15L114.452 28H113.834ZM114.644 26.95L114.806 26.47H117.17L117.344 26.95H114.644ZM118.504 28V23.8H118.996L121.774 27.25H121.516V23.8H122.116V28H121.624L118.846 24.55H119.104V28H118.504ZM124.027 28V26.392L124.165 26.764L122.359 23.8H123.001L124.519 26.302H124.171L125.695 23.8H126.289L124.489 26.764L124.621 26.392V28H124.027Z" fill="#002868"/>
<path d="M31.024 20L36.616 4.928C36.888 4.24 37.28 3.736 37.792 3.416C38.304 3.08 38.888 2.912 39.544 2.912C40.216 2.912 40.808 3.072 41.32 3.392C41.848 3.712 42.24 4.216 42.496 4.904L48.112 20H44.968L43.672 16.28H35.368L34.024 20H31.024ZM36.232 13.736H42.808L40.12 5.888C40.056 5.728 39.976 5.608 39.88 5.528C39.8 5.448 39.696 5.408 39.568 5.408C39.44 5.408 39.336 5.456 39.256 5.552C39.176 5.632 39.112 5.744 39.064 5.888L36.232 13.736ZM48.8288 20V2.48H51.5888V20H48.8288ZM53.9391 20V2.48H56.6991V20H53.9391ZM59.0014 20V17.648H64.9054C65.1934 17.648 65.4414 17.584 65.6494 17.456C65.8734 17.328 66.0414 17.16 66.1534 16.952C66.2814 16.744 66.3454 16.528 66.3454 16.304C66.3454 16.048 66.2894 15.824 66.1774 15.632C66.0654 15.44 65.9054 15.288 65.6974 15.176C65.4894 15.048 65.2494 14.984 64.9774 14.984H62.5774C61.7934 14.984 61.0974 14.856 60.4894 14.6C59.8814 14.344 59.4014 13.952 59.0494 13.424C58.6974 12.88 58.5214 12.2 58.5214 11.384C58.5214 10.728 58.6814 10.128 59.0014 9.584C59.3374 9.04 59.7854 8.6 60.3454 8.264C60.9054 7.928 61.5374 7.76 62.2414 7.76H67.9294V10.112H62.5054C62.1374 10.112 61.8334 10.232 61.5934 10.472C61.3534 10.696 61.2334 10.976 61.2334 11.312C61.2334 11.632 61.3534 11.912 61.5934 12.152C61.8334 12.392 62.1534 12.512 62.5534 12.512H64.8814C65.7614 12.512 66.5134 12.648 67.1374 12.92C67.7614 13.192 68.2334 13.6 68.5534 14.144C68.8894 14.688 69.0574 15.376 69.0574 16.208C69.0574 16.88 68.8894 17.512 68.5534 18.104C68.2174 18.68 67.7534 19.144 67.1614 19.496C66.5854 19.832 65.9294 20 65.1934 20H59.0014ZM76.6714 20.288C75.4074 20.288 74.2874 20.008 73.3114 19.448C72.3354 18.872 71.5594 18.104 70.9834 17.144C70.4234 16.168 70.1434 15.08 70.1434 13.88C70.1434 12.68 70.4234 11.6 70.9834 10.64C71.5594 9.664 72.3354 8.896 73.3114 8.336C74.2874 7.76 75.4074 7.472 76.6714 7.472C77.9194 7.472 79.0314 7.76 80.0074 8.336C80.9834 8.896 81.7514 9.656 82.3114 10.616C82.8874 11.576 83.1754 12.664 83.1754 13.88C83.1754 15.08 82.8874 16.168 82.3114 17.144C81.7514 18.104 80.9834 18.872 80.0074 19.448C79.0314 20.008 77.9194 20.288 76.6714 20.288ZM76.6714 17.936C77.4234 17.936 78.0794 17.76 78.6394 17.408C79.1994 17.04 79.6314 16.552 79.9354 15.944C80.2394 15.336 80.3914 14.648 80.3914 13.88C80.3914 13.128 80.2394 12.448 79.9354 11.84C79.6314 11.216 79.1994 10.728 78.6394 10.376C78.0794 10.008 77.4234 9.824 76.6714 9.824C75.9034 9.824 75.2394 10.008 74.6794 10.376C74.1354 10.728 73.7034 11.208 73.3834 11.816C73.0794 12.424 72.9274 13.112 72.9274 13.88C72.9274 14.632 73.0794 15.32 73.3834 15.944C73.7034 16.552 74.1354 17.04 74.6794 17.408C75.2394 17.76 75.9034 17.936 76.6714 17.936ZM90.6886 20.288C89.5046 20.288 88.4726 20.056 87.5926 19.592C86.7126 19.112 86.0326 18.456 85.5526 17.624C85.0726 16.792 84.8326 15.856 84.8326 14.816V7.76H87.5926V14.792C87.5926 15.416 87.7286 15.968 88.0006 16.448C88.2886 16.912 88.6646 17.28 89.1286 17.552C89.6086 17.808 90.1286 17.936 90.6886 17.936C91.2486 17.936 91.7606 17.808 92.2246 17.552C92.7046 17.28 93.0806 16.912 93.3526 16.448C93.6406 15.968 93.7846 15.416 93.7846 14.792V7.76H96.5446V14.816C96.5446 15.856 96.3046 16.792 95.8246 17.624C95.3446 18.456 94.6646 19.112 93.7846 19.592C92.9046 20.056 91.8726 20.288 90.6886 20.288ZM98.8 20V11.24C98.8 10.152 99.104 9.304 99.712 8.696C100.336 8.072 101.192 7.76 102.28 7.76H105.232V10.112H102.784C102.4 10.112 102.096 10.224 101.872 10.448C101.664 10.672 101.56 10.976 101.56 11.36V20H98.8ZM112.09 20C110.826 20 109.698 19.728 108.706 19.184C107.714 18.64 106.93 17.912 106.354 17C105.778 16.072 105.49 15.032 105.49 13.88C105.49 12.728 105.778 11.696 106.354 10.784C106.93 9.856 107.714 9.12 108.706 8.576C109.698 8.032 110.826 7.76 112.09 7.76H113.578V10.112H112.042C111.306 10.112 110.65 10.28 110.074 10.616C109.514 10.936 109.074 11.384 108.754 11.96C108.434 12.536 108.274 13.176 108.274 13.88C108.274 14.584 108.434 15.224 108.754 15.8C109.074 16.376 109.514 16.832 110.074 17.168C110.65 17.488 111.306 17.648 112.042 17.648H113.578V20H112.09ZM121.215 20C119.839 20 118.631 19.744 117.591 19.232C116.567 18.704 115.767 17.984 115.191 17.072C114.615 16.144 114.327 15.08 114.327 13.88C114.327 12.616 114.583 11.504 115.095 10.544C115.607 9.584 116.311 8.832 117.207 8.288C118.103 7.744 119.135 7.472 120.303 7.472C121.615 7.472 122.695 7.752 123.543 8.312C124.391 8.872 125.015 9.624 125.415 10.568C125.831 11.512 126.039 12.568 126.039 13.736C126.039 13.896 126.031 14.08 126.015 14.288C125.999 14.496 125.975 14.656 125.943 14.768H117.255C117.351 15.408 117.583 15.944 117.951 16.376C118.319 16.792 118.783 17.112 119.343 17.336C119.903 17.544 120.527 17.648 121.215 17.648H124.503V20H121.215ZM117.231 12.896H123.279C123.263 12.592 123.215 12.288 123.135 11.984C123.071 11.68 122.959 11.392 122.799 11.12C122.655 10.848 122.463 10.616 122.223 10.424C121.999 10.216 121.727 10.056 121.407 9.944C121.087 9.816 120.719 9.752 120.303 9.752C119.823 9.752 119.399 9.848 119.031 10.04C118.663 10.216 118.351 10.456 118.095 10.76C117.839 11.048 117.639 11.384 117.495 11.768C117.367 12.136 117.279 12.512 117.231 12.896Z" fill="#002868"/>
</svg>
