<svg width="130" height="30" viewBox="0 0 130 30" fill="none" xmlns="http://www.w3.org/2000/svg">
<path d="M24.208 27V3.64H27.888V27H24.208ZM31.0218 27V3.64H34.7018V27H31.0218ZM37.7715 27V23.864H45.6435C46.0275 23.864 46.3582 23.7787 46.6355 23.608C46.9342 23.4373 47.1582 23.2133 47.3075 22.936C47.4782 22.6587 47.5635 22.3707 47.5635 22.072C47.5635 21.7307 47.4888 21.432 47.3395 21.176C47.1902 20.92 46.9768 20.7173 46.6995 20.568C46.4222 20.3973 46.1022 20.312 45.7395 20.312H42.5395C41.4942 20.312 40.5662 20.1413 39.7555 19.8C38.9448 19.4587 38.3048 18.936 37.8355 18.232C37.3662 17.5067 37.1315 16.6 37.1315 15.512C37.1315 14.6373 37.3448 13.8373 37.7715 13.112C38.2195 12.3867 38.8168 11.8 39.5635 11.352C40.3102 10.904 41.1528 10.68 42.0915 10.68H49.6755V13.816H42.4435C41.9528 13.816 41.5475 13.976 41.2275 14.296C40.9075 14.5947 40.7475 14.968 40.7475 15.416C40.7475 15.8427 40.9075 16.216 41.2275 16.536C41.5475 16.856 41.9742 17.016 42.5075 17.016H45.6115C46.7848 17.016 47.7875 17.1973 48.6195 17.56C49.4515 17.9227 50.0808 18.4667 50.5075 19.192C50.9555 19.9173 51.1795 20.8347 51.1795 21.944C51.1795 22.84 50.9555 23.6827 50.5075 24.472C50.0595 25.24 49.4408 25.8587 48.6515 26.328C47.8835 26.776 47.0088 27 46.0275 27H37.7715Z" fill="#002868"/>
<path d="M80.016 27.384C78.4373 27.384 77.0613 27.0747 75.888 26.456C74.7147 25.816 73.808 24.9413 73.168 23.832C72.528 22.7227 72.208 21.4747 72.208 20.088V10.68H75.888V20.056C75.888 20.888 76.0693 21.624 76.432 22.264C76.816 22.8827 77.3173 23.3733 77.936 23.736C78.576 24.0773 79.2693 24.248 80.016 24.248C80.7627 24.248 81.4453 24.0773 82.064 23.736C82.704 23.3733 83.2053 22.8827 83.568 22.264C83.952 21.624 84.144 20.888 84.144 20.056V10.68H87.824V20.088C87.824 21.4747 87.504 22.7227 86.864 23.832C86.224 24.9413 85.3173 25.816 84.144 26.456C82.9707 27.0747 81.5947 27.384 80.016 27.384ZM90.8312 27V15.32C90.8312 13.8693 91.2366 12.7387 92.0472 11.928C92.8792 11.096 94.0206 10.68 95.4712 10.68H99.4072V13.816H96.1432C95.6312 13.816 95.2259 13.9653 94.9272 14.264C94.6499 14.5627 94.5112 14.968 94.5112 15.48V27H90.8312ZM108.551 27C106.866 27 105.362 26.6373 104.039 25.912C102.717 25.1867 101.671 24.216 100.903 23C100.135 21.7627 99.7513 20.376 99.7513 18.84C99.7513 17.304 100.135 15.928 100.903 14.712C101.671 13.4747 102.717 12.4933 104.039 11.768C105.362 11.0427 106.866 10.68 108.551 10.68H110.535V13.816H108.487C107.506 13.816 106.631 14.04 105.863 14.488C105.117 14.9147 104.53 15.512 104.103 16.28C103.677 17.048 103.463 17.9013 103.463 18.84C103.463 19.7787 103.677 20.632 104.103 21.4C104.53 22.168 105.117 22.776 105.863 23.224C106.631 23.6507 107.506 23.864 108.487 23.864H110.535V27H108.551ZM120.718 27C118.883 27 117.272 26.6587 115.886 25.976C114.52 25.272 113.454 24.312 112.686 23.096C111.918 21.8587 111.534 20.44 111.534 18.84C111.534 17.1547 111.875 15.672 112.558 14.392C113.24 13.112 114.179 12.1093 115.374 11.384C116.568 10.6587 117.944 10.296 119.502 10.296C121.251 10.296 122.691 10.6693 123.822 11.416C124.952 12.1627 125.784 13.1653 126.318 14.424C126.872 15.6827 127.15 17.0907 127.15 18.648C127.15 18.8613 127.139 19.1067 127.118 19.384C127.096 19.6613 127.064 19.8747 127.022 20.024H115.438C115.566 20.8773 115.875 21.592 116.366 22.168C116.856 22.7227 117.475 23.1493 118.222 23.448C118.968 23.7253 119.8 23.864 120.718 23.864H125.102V27H120.718ZM115.406 17.528H123.47C123.448 17.1227 123.384 16.7173 123.278 16.312C123.192 15.9067 123.043 15.5227 122.83 15.16C122.638 14.7973 122.382 14.488 122.062 14.232C121.763 13.9547 121.4 13.7413 120.974 13.592C120.547 13.4213 120.056 13.336 119.502 13.336C118.862 13.336 118.296 13.464 117.806 13.72C117.315 13.9547 116.899 14.2747 116.558 14.68C116.216 15.064 115.95 15.512 115.758 16.024C115.587 16.5147 115.47 17.016 115.406 17.528Z" fill="#002868"/>
<path fill-rule="evenodd" clip-rule="evenodd" d="M69.7325 16.8561C69.1078 13.3722 66.3603 10.6247 62.8764 10C62.8697 10.1212 62.8663 10.2433 62.8663 10.3663C62.8663 13.9561 65.7764 16.8663 69.3663 16.8663C69.4892 16.8663 69.6113 16.8628 69.7325 16.8561ZM59.8561 10C56.3722 10.6247 53.6247 13.3722 53 16.8561C53.1212 16.8628 53.2433 16.8663 53.3663 16.8663C56.9561 16.8663 59.8663 13.9561 59.8663 10.3663C59.8663 10.2433 59.8628 10.1212 59.8561 10ZM62.8764 26.7325C66.3603 26.1078 69.1078 23.3603 69.7325 19.8764C69.6113 19.8697 69.4892 19.8663 69.3663 19.8663C65.7764 19.8663 62.8663 22.7764 62.8663 26.3663C62.8663 26.4892 62.8697 26.6113 62.8764 26.7325ZM59.8561 26.7325C59.8628 26.6113 59.8663 26.4892 59.8663 26.3663C59.8663 22.7764 56.9561 19.8663 53.3663 19.8663C53.2433 19.8663 53.1212 19.8697 53 19.8764C53.6247 23.3603 56.3722 26.1078 59.8561 26.7325Z" fill="#002868"/>
<path fill-rule="evenodd" clip-rule="evenodd" d="M58 18.4956C59.5758 17.8371 60.8371 16.5758 61.4956 15C62.1541 16.5758 63.4154 17.8371 64.9912 18.4956C63.4154 19.1541 62.1541 20.4154 61.4956 21.9912C60.8371 20.4154 59.5758 19.1541 58 18.4956Z" fill="#002868"/>
<path fill-rule="evenodd" clip-rule="evenodd" d="M12.6511 22.3022C12.414 22.1808 12.414 21.8192 12.6511 21.6977C14.3879 20.808 15.8081 19.3878 16.6978 17.651C16.8193 17.4139 17.1809 17.4139 17.3023 17.651C18.1921 19.3878 19.6122 20.808 21.349 21.6977C21.5861 21.8192 21.5861 22.1808 21.349 22.3022C19.6122 23.192 18.1921 24.6121 17.3023 26.3489C17.1809 26.586 16.8193 26.586 16.6978 26.3489C15.8081 24.6121 14.3879 23.192 12.6511 22.3022Z" fill="#002868"/>
<path d="M13.6615 3.5L17.2615 12.5H14.3465L12.9682 8.82444L12.4911 7.55239L12.0297 8.83018L5.64895 26.5H2.7215L11.3465 3.5H13.6615Z" fill="#002868" stroke="#002868"/>
</svg>
