<svg width="265" height="99" viewBox="0 0 265 99" fill="none" xmlns="http://www.w3.org/2000/svg">
<path fill-rule="evenodd" clip-rule="evenodd" d="M21.7197 30.3906L30.549 45.6834L17.6586 68.0102H0L21.7197 30.3906ZM30.549 45.6834L39.3782 30.3906L61.0979 68.0102H43.4394L30.549 45.6834ZM30.5416 52.6583L39.7508 68.6091H21.3325L30.5416 52.6583Z" fill="#F8464B"/>
<path d="M73.223 31.2586H78.6056L91.2618 62.1719H91.6982L104.354 31.2586H109.737V68.5H105.518V40.2053H105.155L93.5167 68.5H89.4434L77.8055 40.2053H77.4418V68.5H73.223V31.2586ZM126.417 69.1546C124.647 69.1546 123.04 68.8213 121.598 68.1545C120.155 67.4756 119.009 66.4997 118.161 65.2268C117.312 63.9418 116.888 62.3901 116.888 60.5717C116.888 58.9714 117.203 57.6743 117.834 56.6802C118.464 55.674 119.306 54.886 120.361 54.3163C121.416 53.7465 122.58 53.3222 123.853 53.0434C125.138 52.7524 126.429 52.5221 127.726 52.3524C129.423 52.1342 130.799 51.9705 131.854 51.8614C132.92 51.7402 133.696 51.5401 134.181 51.2613C134.678 50.9825 134.927 50.4976 134.927 49.8066V49.6611C134.927 47.8669 134.436 46.4728 133.454 45.4787C132.484 44.4846 131.011 43.9876 129.035 43.9876C126.986 43.9876 125.38 44.4362 124.216 45.3332C123.052 46.2303 122.234 47.188 121.761 48.2064L117.688 46.7516C118.415 45.0544 119.385 43.733 120.598 42.7874C121.822 41.8297 123.155 41.163 124.598 40.7872C126.053 40.3992 127.483 40.2053 128.89 40.2053C129.787 40.2053 130.817 40.3144 131.981 40.5326C133.157 40.7387 134.29 41.169 135.381 41.8237C136.485 42.4783 137.4 43.4663 138.127 44.7877C138.855 46.1091 139.218 47.879 139.218 50.0975V68.5H134.927V64.7177H134.709C134.418 65.3238 133.933 65.9724 133.254 66.6634C132.575 67.3544 131.672 67.9423 130.544 68.4273C129.417 68.9122 128.041 69.1546 126.417 69.1546ZM127.071 65.2996C128.768 65.2996 130.199 64.9662 131.363 64.2994C132.539 63.6327 133.424 62.772 134.018 61.7173C134.624 60.6626 134.927 59.5533 134.927 58.3895V54.4617C134.745 54.68 134.345 54.88 133.727 55.0618C133.12 55.2315 132.417 55.3831 131.617 55.5164C130.829 55.6377 130.059 55.7468 129.308 55.8438C128.568 55.9286 127.968 56.0013 127.508 56.062C126.392 56.2074 125.35 56.4438 124.38 56.7711C123.422 57.0863 122.646 57.5652 122.052 58.2077C121.47 58.8381 121.179 59.6988 121.179 60.7899C121.179 62.281 121.731 63.4084 122.834 64.1721C123.95 64.9238 125.362 65.2996 127.071 65.2996ZM150.252 40.569L156.943 51.9887L163.635 40.569H168.581L159.562 54.5345L168.581 68.5H163.635L156.943 57.6622L150.252 68.5H145.305L154.179 54.5345L145.305 40.569H150.252ZM174.705 68.5V40.569H178.996V68.5H174.705ZM176.887 35.9138C176.05 35.9138 175.329 35.6289 174.723 35.0591C174.129 34.4894 173.832 33.8044 173.832 33.0043C173.832 32.2042 174.129 31.5193 174.723 30.9495C175.329 30.3797 176.05 30.0948 176.887 30.0948C177.723 30.0948 178.439 30.3797 179.033 30.9495C179.639 31.5193 179.942 32.2042 179.942 33.0043C179.942 33.8044 179.639 34.4894 179.033 35.0591C178.439 35.6289 177.723 35.9138 176.887 35.9138ZM186.856 68.5V40.569H191.003V44.9332H191.366C191.948 43.4421 192.888 42.2843 194.185 41.46C195.482 40.6235 197.04 40.2053 198.858 40.2053C200.701 40.2053 202.234 40.6235 203.459 41.46C204.695 42.2843 205.659 43.4421 206.35 44.9332H206.641C207.356 43.4906 208.429 42.345 209.86 41.4964C211.29 40.6356 213.005 40.2053 215.006 40.2053C217.503 40.2053 219.546 40.9872 221.134 42.5511C222.722 44.1028 223.516 46.5213 223.516 49.8066V68.5H219.224V49.8066C219.224 47.7457 218.661 46.2728 217.533 45.3878C216.406 44.5028 215.078 44.0603 213.551 44.0603C211.587 44.0603 210.066 44.6544 208.987 45.8424C207.908 47.0183 207.368 48.5094 207.368 50.3157V68.5H203.004V49.3702C203.004 47.7821 202.489 46.5031 201.458 45.5333C200.428 44.5513 199.101 44.0603 197.476 44.0603C196.361 44.0603 195.318 44.3574 194.348 44.9514C193.391 45.5454 192.615 46.3697 192.021 47.4244C191.439 48.467 191.148 49.6732 191.148 51.0431V68.5H186.856ZM231.362 68.5V40.569H235.654V68.5H231.362ZM233.545 35.9138C232.708 35.9138 231.987 35.6289 231.381 35.0591C230.787 34.4894 230.49 33.8044 230.49 33.0043C230.49 32.2042 230.787 31.5193 231.381 30.9495C231.987 30.3797 232.708 30.0948 233.545 30.0948C234.381 30.0948 235.096 30.3797 235.69 30.9495C236.296 31.5193 236.6 32.2042 236.6 33.0043C236.6 33.8044 236.296 34.4894 235.69 35.0591C235.096 35.6289 234.381 35.9138 233.545 35.9138ZM242.714 68.5V65.2268L258.571 44.8605V44.5695H243.223V40.569H264.099V43.9876L248.678 64.2085V64.4995H264.608V68.5H242.714Z" fill="#F8464B"/>
</svg>
