<svg width="17" height="17" viewBox="0 0 17 17" fill="none" xmlns="http://www.w3.org/2000/svg">
<path fill-rule="evenodd" clip-rule="evenodd" d="M16.7325 6.85611C16.1078 3.3722 13.3603 0.624688 9.8764 0C9.86967 0.121227 9.86625 0.243341 9.86625 0.366252C9.86625 3.9561 12.7764 6.86625 16.3663 6.86625C16.4892 6.86625 16.6113 6.86284 16.7325 6.85611ZM6.85611 2.98023e-08C3.3722 0.624688 0.624691 3.3722 2.5034e-06 6.85611C0.12123 6.86284 0.243344 6.86625 0.366254 6.86625C3.9561 6.86625 6.86625 3.9561 6.86625 0.366252C6.86625 0.243341 6.86284 0.121227 6.85611 2.98023e-08ZM9.8764 16.7325C13.3603 16.1078 16.1078 13.3603 16.7325 9.8764C16.6113 9.86966 16.4892 9.86625 16.3663 9.86625C12.7764 9.86625 9.86625 12.7764 9.86625 16.3663C9.86625 16.4892 9.86967 16.6113 9.8764 16.7325ZM6.85611 16.7325C6.86284 16.6113 6.86625 16.4892 6.86625 16.3663C6.86625 12.7764 3.9561 9.86625 0.366254 9.86625C0.243344 9.86625 0.121227 9.86966 0 9.8764C0.624688 13.3603 3.3722 16.1078 6.85611 16.7325Z" fill="#002868"/>
<path fill-rule="evenodd" clip-rule="evenodd" d="M5 8.4956C6.57584 7.83708 7.83708 6.57584 8.4956 5C9.15412 6.57584 10.4154 7.83708 11.9912 8.4956C10.4154 9.15412 9.15412 10.4154 8.4956 11.9912C7.83708 10.4154 6.57584 9.15412 5 8.4956Z" fill="#002868"/>
</svg>
