<svg width="16" height="12" viewBox="0 0 16 12" fill="none" xmlns="http://www.w3.org/2000/svg">
<g clip-path="url(#clip0_313_20689)">
<path d="M1.72819 7.53975C1.72819 8.15069 1.86231 8.61975 2.03756 8.9035C2.26737 9.27519 2.61006 9.43262 2.9595 9.43262C3.41019 9.43262 3.8225 9.32075 4.617 8.22188C5.25356 7.34113 6.00363 6.10475 6.50825 5.32969L7.36294 4.01656C7.95662 3.10462 8.64375 2.09087 9.43169 1.40369C10.0747 0.842812 10.7686 0.53125 11.4669 0.53125C12.6392 0.53125 13.7559 1.21063 14.6106 2.48481C15.5459 3.88025 16 5.63794 16 7.45181C16 8.53012 15.7875 9.32244 15.4258 9.94844C15.0764 10.5538 14.3953 11.1586 13.2497 11.1586V9.43262C14.2306 9.43262 14.4754 8.53125 14.4754 7.49969C14.4754 6.02969 14.1327 4.39825 13.3777 3.23263C12.8418 2.40575 12.1474 1.90056 11.3835 1.90056C10.5573 1.90056 9.89231 2.52369 9.14506 3.63494C8.74781 4.22525 8.33994 4.94469 7.88206 5.75644L7.37794 6.6495C6.36525 8.445 6.10875 8.85394 5.60244 9.52888C4.71494 10.7108 3.95719 11.1586 2.9595 11.1586C1.77606 11.1586 1.02763 10.6461 0.564188 9.87387C0.185813 9.24456 0 8.41888 0 7.478L1.72819 7.53975Z" fill="#0081FB"/>
<path d="M1.3623 2.60663C2.15468 1.38538 3.29805 0.53125 4.60949 0.53125C5.36905 0.53125 6.12405 0.756063 6.91249 1.39981C7.77487 2.10363 8.69405 3.26262 9.8408 5.17281L10.2521 5.85825C11.2446 7.51194 11.8094 8.36263 12.1399 8.76388C12.565 9.27906 12.8627 9.43262 13.2494 9.43262C14.2303 9.43262 14.4751 8.53125 14.4751 7.49969L15.9997 7.45181C15.9997 8.53012 15.7872 9.32244 15.4255 9.94844C15.0761 10.5538 14.395 11.1586 13.2494 11.1586C12.5372 11.1586 11.9062 11.0039 11.2085 10.3457C10.6721 9.8405 10.0451 8.943 9.56262 8.13619L8.12762 5.73919C7.40768 4.53625 6.74718 3.63937 6.36499 3.23312C5.95387 2.79638 5.42524 2.26888 4.58174 2.26888C3.89905 2.26888 3.31924 2.748 2.83405 3.48075L1.3623 2.60663Z" fill="url(#paint0_linear_313_20689)"/>
<path d="M4.582 2.26888C3.89931 2.26888 3.3195 2.748 2.83431 3.48075C2.14831 4.51625 1.72819 6.05856 1.72819 7.53975C1.72819 8.15069 1.86231 8.61975 2.03756 8.9035L0.564188 9.87387C0.185813 9.24456 0 8.41888 0 7.478C0 5.767 0.469625 3.98375 1.36263 2.60663C2.155 1.38538 3.29838 0.53125 4.60981 0.53125L4.582 2.26888Z" fill="url(#paint1_linear_313_20689)"/>
</g>
<defs>
<linearGradient id="paint0_linear_313_20689" x1="204.5" y1="594.963" x2="1304.87" y2="650.539" gradientUnits="userSpaceOnUse">
<stop stop-color="#0064E1"/>
<stop offset="0.4" stop-color="#0064E1"/>
<stop offset="0.83" stop-color="#0073EE"/>
<stop offset="1" stop-color="#0082FB"/>
</linearGradient>
<linearGradient id="paint1_linear_313_20689" x1="250.382" y1="773.932" x2="250.382" y2="367.762" gradientUnits="userSpaceOnUse">
<stop stop-color="#0082FB"/>
<stop offset="1" stop-color="#0064E0"/>
</linearGradient>
<clipPath id="clip0_313_20689">
<rect width="16" height="10.6875" fill="white" transform="translate(0 0.53125)"/>
</clipPath>
</defs>
</svg>
