<svg width="236" height="68" viewBox="0 0 236 68" fill="none" xmlns="http://www.w3.org/2000/svg">
<rect width="235.5" height="68" fill="#E8EFFF"/>
<path d="M133.5 52.5C143.717 42.2827 143.717 25.7173 133.5 15.5C123.283 5.28273 106.717 5.28273 96.5 15.5C86.2827 25.7173 86.2827 42.2827 96.5 52.5C106.717 62.7173 123.283 62.7173 133.5 52.5Z" fill="#D3E4FF"/>
<path d="M118.722 16.1774C119.419 13.1115 122.469 11.1899 125.535 11.8861C128.601 12.5825 130.522 15.6333 129.826 18.6993C129.129 21.7652 126.079 23.6858 123.013 22.9895C119.947 22.2929 118.026 19.2432 118.722 16.1774Z" fill="#BD99FF" stroke="#8847FE"/>
<path opacity="0.2" d="M118.722 16.1774C119.419 13.1115 122.469 11.1899 125.535 11.8861C128.601 12.5825 130.522 15.6333 129.826 18.6993C129.129 21.7652 126.079 23.6858 123.013 22.9895C119.947 22.2929 118.026 19.2432 118.722 16.1774Z" fill="white" stroke="#8847FE"/>
<path d="M123.631 25.4674C120.339 25.2035 117.575 22.9971 116.588 19.8458L116.818 19.7737C117.775 22.8303 120.457 24.9709 123.65 25.2269L123.631 25.4674Z" fill="#8847FE"/>
<path opacity="0.2" d="M123.631 25.4674C120.339 25.2035 117.575 22.9971 116.588 19.8458L116.818 19.7737C117.775 22.8303 120.457 24.9709 123.65 25.2269L123.631 25.4674Z" fill="white"/>
<path d="M116.785 15.2075L116.554 15.1385C117.322 12.568 119.308 10.5553 121.864 9.75429C123.517 9.23652 125.253 9.25969 126.886 9.82161L126.808 10.0496C125.224 9.50458 123.54 9.4819 121.936 9.98422C119.456 10.7614 117.531 12.714 116.785 15.2075Z" fill="#8847FE"/>
<path opacity="0.2" d="M116.785 15.2075L116.554 15.1385C117.322 12.568 119.308 10.5553 121.864 9.75429C123.517 9.23652 125.253 9.25969 126.886 9.82161L126.808 10.0496C125.224 9.50458 123.54 9.4819 121.936 9.98422C119.456 10.7614 117.531 12.714 116.785 15.2075Z" fill="white"/>
<path d="M131.726 15.1027C131.16 13.2977 129.961 11.7611 128.349 10.7755L128.475 10.5694C130.137 11.5854 131.373 13.1696 131.956 15.0303L131.726 15.1027Z" fill="#8847FE"/>
<path opacity="0.2" d="M131.726 15.1027C131.16 13.2977 129.961 11.7611 128.349 10.7755L128.475 10.5694C130.137 11.5854 131.373 13.1696 131.956 15.0303L131.726 15.1027Z" fill="white"/>
<path d="M130.314 35.9084C131.072 32.5731 128.982 29.2552 125.647 28.4976C122.311 27.74 118.993 29.8297 118.236 33.1651C117.478 36.5004 119.568 39.8183 122.903 40.5759C126.238 41.3334 129.556 39.2438 130.314 35.9084Z" fill="#407BFF"/>
<path opacity="0.6" d="M118.723 33.2761C119.42 30.2102 122.47 28.2886 125.536 28.9848C128.602 29.6812 130.523 32.732 129.827 35.7981C129.13 38.8639 126.079 40.7846 123.014 40.0882C119.948 39.3917 118.027 36.3419 118.723 33.2761Z" fill="#DFEBFF" stroke="#76A6F5"/>
<path d="M130.314 53.0071C131.072 49.6718 128.982 46.3538 125.647 45.5963C122.312 44.8387 118.994 46.9284 118.236 50.2637C117.479 53.599 119.568 56.917 122.904 57.6745C126.239 58.4321 129.557 56.3424 130.314 53.0071Z" fill="#407BFF"/>
<path opacity="0.6" d="M118.724 50.3748C119.42 47.3089 122.47 45.3873 125.536 46.0835C128.602 46.7799 130.523 49.8307 129.827 52.8967C129.131 55.9626 126.08 57.8832 123.014 57.1869C119.948 56.4904 118.028 53.4406 118.724 50.3748Z" fill="#DFEBFF" stroke="#76A6F5"/>
<path d="M113.215 18.8101C113.972 15.4748 111.882 12.1568 108.547 11.3993C105.212 10.6417 101.894 12.7314 101.136 16.0667C100.379 19.4021 102.468 22.72 105.804 23.4776C109.139 24.2351 112.457 22.1454 113.215 18.8101Z" fill="#407BFF"/>
<path opacity="0.6" d="M101.624 16.1778C102.32 13.1119 105.37 11.1903 108.436 11.8865C111.502 12.5829 113.424 15.6337 112.727 18.6997C112.031 21.7656 108.98 23.6862 105.914 22.9899C102.848 22.2934 100.928 19.2436 101.624 16.1778Z" fill="#DFEBFF" stroke="#76A6F5"/>
<path d="M113.215 35.9088C113.973 32.5734 111.883 29.2555 108.548 28.4979C105.213 27.7404 101.895 29.8301 101.137 33.1654C100.38 36.5007 102.469 39.8187 105.805 40.5762C109.14 41.3338 112.458 39.2441 113.215 35.9088Z" fill="#407BFF"/>
<path opacity="0.6" d="M101.625 33.2765C102.321 30.2105 105.371 28.289 108.437 28.9852C111.503 29.6816 113.424 32.7324 112.728 35.7984C112.031 38.8642 108.981 40.7849 105.915 40.0885C102.849 39.392 100.928 36.3423 101.625 33.2765Z" fill="#DFEBFF" stroke="#76A6F5"/>
<path d="M113.216 53.0074C113.974 49.672 111.884 46.3541 108.549 45.5965C105.213 44.839 101.895 46.9287 101.138 50.264C100.38 53.5993 102.47 56.9173 105.805 57.6748C109.141 58.4324 112.459 56.3427 113.216 53.0074Z" fill="#407BFF"/>
<path opacity="0.6" d="M101.625 50.3751C102.322 47.3091 105.372 45.3876 108.438 46.0838C111.504 46.7802 113.425 49.831 112.729 52.897C112.032 55.9629 108.982 57.8835 105.916 57.1871C102.85 56.4906 100.929 53.4409 101.625 50.3751Z" fill="#DFEBFF" stroke="#76A6F5"/>
<path d="M143.7 33.5788L142.652 32.4937L141.532 33.9373C141.532 33.9373 142.384 34.7598 143.4 34.5274L143.7 33.5788Z" fill="black"/>
<path d="M141.21 31.8964L140.731 33.4115L141.533 33.9371L142.652 32.4936L141.21 31.8964Z" fill="black"/>
<path d="M126.922 31.9791C127.301 30.8623 128.575 30.3838 129.578 30.9086L128.418 30.3016C127.532 29.8383 127.102 28.7677 127.502 27.8514C127.941 26.8451 129.143 26.434 130.1 26.9341L128.939 26.3271C128.053 25.8638 127.624 24.7931 128.024 23.8766C128.463 22.8704 129.665 22.4594 130.621 22.9595L125.075 20.0596C124.246 19.626 123.811 18.6544 124.111 17.7683C124.49 16.6515 125.764 16.173 126.768 16.6978L138.447 22.8046L137.245 17.882C137.124 17.3905 137.196 16.8946 137.415 16.4771C137.654 16.02 138.068 15.6566 138.593 15.4921C139.603 15.1742 140.684 15.698 141.065 16.6854L144.897 26.6376C145.225 27.4883 145.851 28.1903 146.659 28.6127L147.325 28.9612C147.755 29.1858 147.921 29.7165 147.697 30.1463L143.029 39.0732C142.804 39.503 142.274 39.6693 141.844 39.4446L140.205 38.5875C139.586 38.2638 138.889 38.132 138.191 38.1709C136.514 38.2644 134.836 37.9046 133.337 37.1207L127.885 34.2703C127.056 33.8368 126.621 32.8652 126.922 31.9791Z" fill="white"/>
<path d="M142.249 39.8366C142.066 39.8366 141.881 39.7938 141.708 39.7034L140.069 38.8463C139.518 38.5582 138.875 38.4258 138.208 38.4626C136.474 38.5599 134.741 38.1846 133.201 37.3795L127.75 34.5291C126.781 34.0222 126.306 32.8856 126.645 31.8854C126.85 31.2803 127.307 30.7977 127.897 30.5612C127.977 30.5291 128.059 30.502 128.14 30.4798C127.2 29.9007 126.802 28.7263 127.235 27.7346C127.478 27.1763 127.929 26.757 128.505 26.5542C128.557 26.5359 128.609 26.5197 128.662 26.5055C127.722 25.9262 127.323 24.7517 127.756 23.7601C128 23.2018 128.451 22.7827 129.027 22.5798C129.076 22.5625 129.125 22.5469 129.175 22.5333L124.94 20.3186C123.97 19.8118 123.495 18.6752 123.835 17.6748C124.04 17.0697 124.497 16.5871 125.087 16.3506C125.679 16.1131 126.342 16.1454 126.904 16.4394L138.011 22.2469L136.961 17.9516C136.828 17.409 136.897 16.8373 137.156 16.3421C137.441 15.798 137.92 15.3971 138.506 15.2136C139.659 14.8507 140.903 15.4511 141.337 16.5803L145.17 26.5326C145.472 27.3173 146.049 27.9641 146.794 28.3537L147.461 28.7021C148.032 29.0011 148.254 29.7095 147.955 30.2813L143.288 39.2082C143.079 39.6078 142.671 39.8366 142.249 39.8366ZM138.427 37.8726C139.109 37.8726 139.765 38.0287 140.34 38.3289L141.979 39.186C142.118 39.2586 142.276 39.2728 142.426 39.2259C142.576 39.1792 142.698 39.077 142.77 38.9382L147.438 30.0113C147.588 29.7247 147.476 29.3698 147.19 29.2201L146.524 28.8717C145.652 28.4164 144.978 27.6603 144.625 26.7428L140.792 16.7906C140.468 15.9482 139.541 15.5003 138.681 15.7709C138.244 15.9081 137.886 16.207 137.674 16.6128C137.481 16.9819 137.429 17.4081 137.529 17.8128L138.731 22.7359C138.759 22.8473 138.718 22.9645 138.628 23.0351C138.537 23.1058 138.414 23.1171 138.312 23.064L126.633 16.9572C126.223 16.7427 125.738 16.7195 125.304 16.893C124.866 17.0686 124.541 17.4129 124.388 17.8626C124.14 18.593 124.494 19.4266 125.211 19.8013L130.757 22.7013C130.9 22.776 130.955 22.9524 130.88 23.0953C130.806 23.238 130.629 23.2937 130.486 23.2187C130.098 23.0161 129.637 22.9839 129.221 23.1305C128.8 23.2791 128.47 23.5855 128.292 23.9937C127.96 24.7541 128.304 25.6655 129.075 26.0687L130.235 26.6756C130.378 26.7504 130.433 26.9268 130.359 27.0696C130.284 27.2123 130.108 27.268 129.965 27.1931L129.963 27.1921C129.576 26.9904 129.115 26.9585 128.7 27.1051C128.278 27.2536 127.948 27.56 127.77 27.9682C127.438 28.7286 127.782 29.64 128.553 30.0432L129.712 30.6488C129.712 30.6492 129.713 30.6496 129.714 30.65C129.857 30.7247 129.912 30.9011 129.837 31.044C129.762 31.1867 129.586 31.2422 129.443 31.1674L129.441 31.1664C129.031 30.9527 128.548 30.9295 128.114 31.1034C127.676 31.2788 127.351 31.6231 127.198 32.073C126.95 32.8034 127.304 33.6368 128.021 34.0117L133.472 36.862C134.919 37.6185 136.546 37.9699 138.175 37.8796C138.259 37.8747 138.343 37.8726 138.427 37.8726Z" fill="white"/>
<path d="M131.033 31.9617C130.988 31.9617 130.941 31.951 130.898 31.9284L129.443 31.1674C129.3 31.0927 129.245 30.9163 129.32 30.7734C129.394 30.6305 129.571 30.5749 129.714 30.65L131.169 31.411C131.312 31.4857 131.367 31.6621 131.292 31.805C131.24 31.9046 131.138 31.9617 131.033 31.9617Z" fill="white"/>
<path d="M131.555 27.9872C131.509 27.9872 131.463 27.9765 131.42 27.9539L129.965 27.1929C129.822 27.1182 129.766 26.9418 129.841 26.7989C129.916 26.656 130.092 26.6005 130.235 26.6755L131.691 27.4364C131.833 27.5112 131.889 27.6876 131.814 27.8305C131.762 27.9301 131.66 27.9872 131.555 27.9872Z" fill="white"/>
<path d="M132.076 24.0129C132.031 24.0129 131.984 24.0022 131.941 23.9797L130.486 23.2187C130.343 23.1439 130.288 22.9676 130.363 22.8247C130.437 22.6818 130.614 22.6261 130.757 22.7013L132.212 23.4622C132.355 23.537 132.41 23.7134 132.335 23.8562C132.283 23.9559 132.182 24.0129 132.076 24.0129Z" fill="white"/>
<path d="M142.249 39.8366C142.066 39.8366 141.881 39.7938 141.708 39.7034L140.069 38.8463C139.518 38.5582 138.875 38.4258 138.208 38.4626C136.474 38.5599 134.741 38.1846 133.201 37.3795L127.75 34.5291C126.781 34.0222 126.306 32.8856 126.645 31.8854C126.85 31.2803 127.307 30.7977 127.897 30.5612C127.977 30.5291 128.059 30.502 128.14 30.4798C127.2 29.9007 126.802 28.7263 127.235 27.7346C127.478 27.1763 127.929 26.757 128.505 26.5542C128.557 26.5359 128.609 26.5197 128.662 26.5055C127.722 25.9262 127.323 24.7517 127.756 23.7601C128 23.2018 128.451 22.7827 129.027 22.5798C129.076 22.5625 129.125 22.5469 129.175 22.5333L124.94 20.3186C123.97 19.8118 123.495 18.6752 123.835 17.6748C124.04 17.0697 124.497 16.5871 125.087 16.3506C125.679 16.1131 126.342 16.1454 126.904 16.4394L138.011 22.2469L136.961 17.9516C136.828 17.409 136.897 16.8373 137.156 16.3421C137.441 15.798 137.92 15.3971 138.506 15.2136C139.659 14.8507 140.903 15.4511 141.337 16.5803L145.17 26.5326C145.472 27.3173 146.049 27.9641 146.794 28.3537L147.461 28.7021C148.032 29.0011 148.254 29.7095 147.955 30.2813L143.288 39.2082C143.079 39.6078 142.671 39.8366 142.249 39.8366ZM138.427 37.8726C139.109 37.8726 139.765 38.0287 140.34 38.3289L141.979 39.186C142.118 39.2586 142.276 39.2728 142.426 39.2259C142.576 39.1792 142.698 39.077 142.77 38.9382L147.438 30.0113C147.588 29.7247 147.476 29.3698 147.19 29.2201L146.524 28.8717C145.652 28.4164 144.978 27.6603 144.625 26.7428L140.792 16.7906C140.468 15.9482 139.541 15.5003 138.681 15.7709C138.244 15.9081 137.886 16.207 137.674 16.6128C137.481 16.9819 137.429 17.4081 137.529 17.8128L138.731 22.7359C138.759 22.8473 138.718 22.9645 138.628 23.0351C138.537 23.1058 138.414 23.1171 138.312 23.064L126.633 16.9572C126.223 16.7427 125.738 16.7195 125.304 16.893C124.866 17.0686 124.541 17.4129 124.388 17.8626C124.14 18.593 124.494 19.4266 125.211 19.8013L130.757 22.7013C130.9 22.776 130.955 22.9524 130.88 23.0953C130.806 23.238 130.629 23.2937 130.486 23.2187C130.098 23.0161 129.637 22.9839 129.221 23.1305C128.8 23.2791 128.47 23.5855 128.292 23.9937C127.96 24.7541 128.304 25.6655 129.075 26.0687L130.235 26.6756C130.378 26.7504 130.433 26.9268 130.359 27.0696C130.284 27.2123 130.108 27.268 129.965 27.1931L129.963 27.1921C129.576 26.9904 129.115 26.9585 128.7 27.1051C128.278 27.2536 127.948 27.56 127.77 27.9682C127.438 28.7286 127.782 29.64 128.553 30.0432L129.712 30.6488C129.712 30.6492 129.713 30.6496 129.714 30.65C129.857 30.7247 129.912 30.9011 129.837 31.044C129.762 31.1867 129.586 31.2422 129.443 31.1674L129.441 31.1664C129.031 30.9527 128.548 30.9295 128.114 31.1034C127.676 31.2788 127.351 31.6231 127.198 32.073C126.95 32.8034 127.304 33.6368 128.021 34.0117L133.472 36.862C134.919 37.6185 136.546 37.9699 138.175 37.8796C138.259 37.8747 138.343 37.8726 138.427 37.8726Z" fill="#161616"/>
</svg>
