<svg width="236" height="68" viewBox="0 0 236 68" fill="none" xmlns="http://www.w3.org/2000/svg">
<rect width="235.5" height="68" transform="translate(0.5)" fill="#E8EFFF"/>
<path d="M136.521 8.37283L97.5498 6.00143C96.6522 5.95534 95.8442 6.98562 95.8442 7.85071V60.636C95.8442 61.8358 97.0093 62.0772 97.9069 61.9808L136.521 57.8327C137.226 57.757 137.796 57.078 137.796 56.316V9.81808C137.796 9.05605 137.226 8.40904 136.521 8.37283Z" fill="url(#paint0_linear_643_49052)"/>
<path d="M136.77 8.87724L98.9933 6.9281C98.1249 6.88331 97.4177 7.52861 97.4177 8.36964V59.6872C97.4177 60.5282 98.1249 61.1337 98.9933 61.04L136.77 56.9619C137.453 56.8882 138.004 56.2281 138.004 55.4873V10.2823C138.004 9.54149 137.453 8.91246 136.77 8.87724Z" fill="#B5D0FD"/>
<path opacity="0.3" d="M98.9932 60.3439C98.5248 60.3935 98.1428 60.0653 98.1428 59.6121V8.40373C98.1428 7.95053 98.5248 7.60073 98.9932 7.62392L136.77 9.49555C137.139 9.51383 137.439 9.85477 137.439 10.2556V55.5457C137.439 55.9465 137.139 56.3043 136.77 56.3434L98.9932 60.3439Z" fill="url(#paint1_linear_643_49052)"/>
<path d="M134.336 55.1289L102.025 58.3941V11.15L134.336 12.4263V55.1289Z" fill="white"/>
<path d="M128.424 10.7394C128.363 10.3938 128.099 10.1512 127.766 10.1356L125.703 10.0386C124.766 9.9946 124.08 9.19659 124.114 8.18584L124.194 5.84357C124.209 5.4104 123.914 5.0633 123.508 5.03792L122.83 4.99544C122.313 4.96306 121.969 4.48508 122.042 3.93241C122.168 2.96652 121.537 2.13301 120.623 2.06762C119.701 2.00175 118.841 2.74024 118.704 3.71848C118.684 3.86385 118.637 4.00747 118.561 4.13565C118.348 4.49394 117.974 4.69121 117.609 4.6683L116.91 4.62448C116.486 4.59794 116.083 4.90987 115.976 5.34877L115.395 7.7263C115.143 8.75456 114.194 9.49758 113.187 9.45024L110.924 9.34384C110.553 9.32641 110.189 9.55303 110.019 9.90834L108.655 12.747C108.543 12.9794 108.68 13.2306 108.924 13.2391L128.553 13.9229C128.768 13.9304 128.95 13.7057 128.91 13.4824L128.424 10.7394ZM120.345 4.09489C120.074 4.07731 119.887 3.8308 119.926 3.5443C119.965 3.25781 120.217 3.04053 120.487 3.05899C120.757 3.07742 120.943 3.32386 120.904 3.60951C120.865 3.8951 120.615 4.11243 120.345 4.09489Z" fill="#3B495E"/>
<path d="M131.185 18.5275L106.161 18.3677V16.8093L131.185 17.0263V18.5275Z" fill="#D8DEE8"/>
<path d="M131.185 21.1559L106.161 21.0963V19.5378L131.185 19.6547V21.1559Z" fill="#D8DEE8"/>
<path d="M131.185 23.7842L106.161 23.8247V22.2662L131.185 22.2829V23.7842Z" fill="#D8DEE8"/>
<path d="M131.185 26.4125L106.161 26.5532V24.9947L131.185 24.9113V26.4125Z" fill="#D8DEE8"/>
<path d="M126.953 30.7414L105.786 31.2762V29.6532L126.953 29.2199V30.7414Z" fill="#D8DEE8"/>
<path d="M126.953 33.4053L105.786 34.1176V32.4946L126.953 31.8838V33.4053Z" fill="#D8DEE8"/>
<path d="M126.953 36.0692L105.786 36.9591V35.3362L126.953 34.5477V36.0692Z" fill="#D8DEE8"/>
<path d="M126.953 38.7329L105.786 39.8005V38.1775L126.953 37.2114V38.7329Z" fill="#D8DEE8"/>
<path d="M131.185 30.6345L128.4 30.7048V29.1902L131.185 29.1332V30.6345Z" fill="#D8DEE8"/>
<path d="M131.185 33.263L128.4 33.3567V31.8421L131.185 31.7617V33.263Z" fill="#D8DEE8"/>
<path d="M131.185 35.8913L128.4 36.0084V34.4938L131.185 34.3901V35.8913Z" fill="#D8DEE8"/>
<path d="M131.185 38.5195L128.4 38.66V37.1454L131.185 37.0183V38.5195Z" fill="#D8DEE8"/>
<path d="M126.953 43.0557L105.786 44.4115V42.7885L126.953 41.5342V43.0557Z" fill="#D8DEE8"/>
<path d="M126.953 45.7196L105.786 47.2529V45.6299L126.953 44.1981V45.7196Z" fill="#D8DEE8"/>
<path d="M126.953 48.3833L105.786 50.0943V48.4713L126.953 46.8618V48.3833Z" fill="#D8DEE8"/>
<path d="M126.953 51.0472L105.786 52.9358V51.3128L126.953 49.5257V51.0472Z" fill="#D8DEE8"/>
<path d="M131.185 42.7848L128.4 42.9632V41.4486L131.185 41.2836V42.7848Z" fill="#D8DEE8"/>
<path d="M131.185 45.413L128.4 45.6147V44.1002L131.185 43.9118V45.413Z" fill="#D8DEE8"/>
<path d="M131.185 48.0415L128.4 48.2665V46.7519L131.185 46.5402V48.0415Z" fill="#D8DEE8"/>
<path d="M131.185 50.6698L128.4 50.9182V49.4036L131.185 49.1685V50.6698Z" fill="#D8DEE8"/>
<path d="M104.384 15.8206L111.647 20.9449C110.581 22.446 109.958 24.1948 109.958 26.2591L100.852 26.1253C100.852 22.1967 102.166 18.6787 104.384 15.8206Z" fill="url(#paint2_linear_643_49052)"/>
<path d="M125.348 10.2208L122.979 17.4665C122.088 17.1553 121.134 16.9623 120.139 16.9106C119.249 16.8644 118.381 16.9337 117.55 17.1058L115.03 9.3059C116.673 8.98318 118.389 8.88212 120.139 9.02705C121.977 9.1793 123.725 9.59247 125.348 10.2208Z" fill="url(#paint3_linear_643_49052)"/>
<path d="M133.654 16.6391L127.567 20.7489C126.605 19.5137 125.339 18.5012 123.869 17.8258L126.226 10.5864C129.252 11.9385 131.81 14.0589 133.654 16.6391Z" fill="url(#paint4_linear_643_49052)"/>
<path d="M136.892 26.6546L129.567 26.547C129.567 24.6353 129.03 22.9788 128.101 21.5152L134.162 17.4005C135.892 20.1002 136.892 23.2418 136.892 26.6546Z" fill="url(#paint5_linear_643_49052)"/>
<path d="M116.606 17.3511C114.9 17.8856 113.397 18.8655 112.251 20.1672L105.021 15.0375C107.364 12.357 110.514 10.42 114.065 9.52179L116.606 17.3511Z" fill="url(#paint6_linear_643_49052)"/>
<path d="M119.027 23.6299L128.728 16.2907L121.838 26.179L119.027 23.6299Z" fill="url(#paint7_linear_643_49052)"/>
<path d="M122.68 25.4697C122.68 26.8288 121.549 27.9206 120.139 27.9082C118.713 27.8956 117.546 26.7612 117.546 25.3744C117.546 23.9877 118.713 22.8965 120.139 22.9369C121.549 22.9767 122.68 24.1105 122.68 25.4697Z" fill="url(#paint8_linear_643_49052)"/>
<defs>
<linearGradient id="paint0_linear_643_49052" x1="95.8442" y1="33.9999" x2="137.796" y2="33.9999" gradientUnits="userSpaceOnUse">
<stop stop-color="#76A6F5"/>
<stop offset="0.9964" stop-color="#76A6F5"/>
</linearGradient>
<linearGradient id="paint1_linear_643_49052" x1="98.1428" y1="33.9859" x2="137.439" y2="33.9859" gradientUnits="userSpaceOnUse">
<stop offset="0.0036" stop-color="#C4DAFF"/>
<stop offset="1" stop-color="#76A6F5"/>
</linearGradient>
<linearGradient id="paint2_linear_643_49052" x1="106.052" y1="23.303" x2="92.0139" y2="75.2433" gradientUnits="userSpaceOnUse">
<stop stop-color="#005FBF"/>
<stop offset="1" stop-color="#0B4E96"/>
</linearGradient>
<linearGradient id="paint3_linear_643_49052" x1="119.749" y1="17.2121" x2="116.651" y2="64.8289" gradientUnits="userSpaceOnUse">
<stop stop-color="#76A6F5"/>
<stop offset="0.9964" stop-color="#76A6F5" stop-opacity="0.4"/>
</linearGradient>
<linearGradient id="paint4_linear_643_49052" x1="126.6" y1="16.2965" x2="166.19" y2="-12.6144" gradientUnits="userSpaceOnUse">
<stop offset="0.0036" stop-color="#ABCBFF"/>
<stop offset="1" stop-color="#AABBCC" stop-opacity="0.733333"/>
</linearGradient>
<linearGradient id="paint5_linear_643_49052" x1="141.574" y1="-11.8227" x2="128.645" y2="34.6698" gradientUnits="userSpaceOnUse">
<stop offset="0.0036" stop-color="#BD99FF"/>
<stop offset="1" stop-color="#BD99FF"/>
</linearGradient>
<linearGradient id="paint6_linear_643_49052" x1="111.425" y1="-0.988186" x2="110.523" y2="22.0401" gradientUnits="userSpaceOnUse">
<stop stop-color="#6095F9"/>
<stop offset="0.9964" stop-color="#477CE1"/>
</linearGradient>
<linearGradient id="paint7_linear_643_49052" x1="122.977" y1="19.0969" x2="125.837" y2="21.5898" gradientUnits="userSpaceOnUse">
<stop stop-color="#3B495E"/>
<stop offset="0.9964" stop-color="#3B495E"/>
</linearGradient>
<linearGradient id="paint8_linear_643_49052" x1="117.546" y1="25.422" x2="122.68" y2="25.422" gradientUnits="userSpaceOnUse">
<stop stop-color="#3B495E"/>
<stop offset="0.9964" stop-color="#3B495E"/>
</linearGradient>
</defs>
</svg>
