<svg width="74" height="74" viewBox="0 0 74 74" fill="none" xmlns="http://www.w3.org/2000/svg">
<path d="M55.5 55.5C65.7173 45.2827 65.7173 28.7173 55.5 18.5C45.2827 8.28273 28.7173 8.28273 18.5 18.5C8.28273 28.7173 8.28273 45.2827 18.5 55.5C28.7173 65.7173 45.2827 65.7173 55.5 55.5Z" fill="#D3E4FF"/>
<path d="M40.7225 19.1774C41.4189 16.1115 44.4689 14.1899 47.5348 14.8861C50.6008 15.5825 52.5223 18.6333 51.8259 21.6993C51.1293 24.7652 48.0788 26.6858 45.0128 25.9895C41.9471 25.2929 40.0263 22.2432 40.7225 19.1774Z" fill="#BD99FF" stroke="#8847FE"/>
<path opacity="0.2" d="M40.7225 19.1774C41.4189 16.1115 44.4689 14.1899 47.5348 14.8861C50.6008 15.5825 52.5223 18.6333 51.8259 21.6993C51.1293 24.7652 48.0788 26.6858 45.0128 25.9895C41.9471 25.2929 40.0263 22.2432 40.7225 19.1774Z" fill="white" stroke="#8847FE"/>
<path d="M45.6308 28.4674C42.3394 28.2035 39.5749 25.9971 38.5876 22.8458L38.8178 22.7737C39.7754 25.8303 42.4574 27.9709 45.6501 28.2269L45.6308 28.4674Z" fill="#8847FE"/>
<path opacity="0.2" d="M45.6308 28.4674C42.3394 28.2035 39.5749 25.9971 38.5876 22.8458L38.8178 22.7737C39.7754 25.8303 42.4574 27.9709 45.6501 28.2269L45.6308 28.4674Z" fill="white"/>
<path d="M38.7849 18.2075L38.5537 18.1385C39.3224 15.568 41.3076 13.5553 43.8641 12.7543C45.5168 12.2365 47.2535 12.2597 48.8862 12.8216L48.8077 13.0496C47.224 12.5046 45.5397 12.4819 43.9362 12.9842C41.4564 13.7614 39.5306 15.714 38.7849 18.2075Z" fill="#8847FE"/>
<path opacity="0.2" d="M38.7849 18.2075L38.5537 18.1385C39.3224 15.568 41.3076 13.5553 43.8641 12.7543C45.5168 12.2365 47.2535 12.2597 48.8862 12.8216L48.8077 13.0496C47.224 12.5046 45.5397 12.4819 43.9362 12.9842C41.4564 13.7614 39.5306 15.714 38.7849 18.2075Z" fill="white"/>
<path d="M53.7257 18.1027C53.1602 16.2977 51.9613 14.7611 50.3494 13.7755L50.4751 13.5694C52.1367 14.5854 53.3727 16.1696 53.9557 18.0303L53.7257 18.1027Z" fill="#8847FE"/>
<path opacity="0.2" d="M53.7257 18.1027C53.1602 16.2977 51.9613 14.7611 50.3494 13.7755L50.4751 13.5694C52.1367 14.5854 53.3727 16.1696 53.9557 18.0303L53.7257 18.1027Z" fill="white"/>
<path d="M52.314 38.9084C53.0715 35.5731 50.9818 32.2552 47.6465 31.4976C44.3112 30.74 40.9933 32.8297 40.2357 36.1651C39.4781 39.5004 41.5678 42.8183 44.9031 43.5759C48.2385 44.3334 51.5564 42.2438 52.314 38.9084Z" fill="#407BFF"/>
<path opacity="0.6" d="M40.7232 36.2761C41.4196 33.2102 44.4696 31.2886 47.5355 31.9848C50.6015 32.6812 52.523 35.732 51.8266 38.7981C51.1301 41.8639 48.0795 43.7846 45.0136 43.0882C41.9478 42.3917 40.0271 39.3419 40.7232 36.2761Z" fill="#DFEBFF" stroke="#76A6F5"/>
<path d="M52.3145 56.0071C53.072 52.6718 50.9823 49.3538 47.647 48.5963C44.3117 47.8387 40.9937 49.9284 40.2362 53.2637C39.4786 56.599 41.5683 59.917 44.9036 60.6745C48.239 61.4321 51.5569 59.3424 52.3145 56.0071Z" fill="#407BFF"/>
<path opacity="0.6" d="M40.7237 53.3748C41.4201 50.3089 44.4701 48.3873 47.536 49.0835C50.602 49.7799 52.5235 52.8307 51.8271 55.8967C51.1306 58.9626 48.08 60.8832 45.0141 60.1869C41.9483 59.4904 40.0276 56.4406 40.7237 53.3748Z" fill="#DFEBFF" stroke="#76A6F5"/>
<path d="M35.2146 21.8101C35.9722 18.4748 33.8825 15.1568 30.5472 14.3993C27.2118 13.6417 23.8939 15.7314 23.1363 19.0667C22.3788 22.4021 24.4685 25.72 27.8038 26.4776C31.1391 27.2351 34.457 25.1454 35.2146 21.8101Z" fill="#407BFF"/>
<path opacity="0.6" d="M23.6239 19.1778C24.3202 16.1119 27.3702 14.1903 30.4362 14.8865C33.5022 15.5829 35.4236 18.6337 34.7272 21.6997C34.0307 24.7656 30.9801 26.6862 27.9142 25.9899C24.8485 25.2934 22.9277 22.2436 23.6239 19.1778Z" fill="#DFEBFF" stroke="#76A6F5"/>
<path d="M35.2153 38.9088C35.9729 35.5734 33.8832 32.2555 30.5479 31.4979C27.2126 30.7404 23.8946 32.8301 23.1371 36.1654C22.3795 39.5007 24.4692 42.8187 27.8045 43.5762C31.1398 44.3338 34.4578 42.2441 35.2153 38.9088Z" fill="#407BFF"/>
<path opacity="0.6" d="M23.6246 36.2765C24.321 33.2105 27.371 31.289 30.4369 31.9852C33.5029 32.6816 35.4244 35.7324 34.728 38.7984C34.0314 41.8642 30.9809 43.7849 27.9149 43.0885C24.8492 42.392 22.9284 39.3423 23.6246 36.2765Z" fill="#DFEBFF" stroke="#76A6F5"/>
<path d="M35.2161 56.0074C35.9736 52.672 33.8839 49.3541 30.5486 48.5965C27.2133 47.839 23.8954 49.9287 23.1378 53.264C22.3802 56.5993 24.4699 59.9173 27.8052 60.6748C31.1406 61.4324 34.4585 59.3427 35.2161 56.0074Z" fill="#407BFF"/>
<path opacity="0.6" d="M23.6253 53.3751C24.3217 50.3091 27.3717 48.3876 30.4376 49.0838C33.5036 49.7802 35.4251 52.831 34.7287 55.897C34.0322 58.9629 30.9816 60.8835 27.9157 60.1871C24.8499 59.4906 22.9292 56.4409 23.6253 53.3751Z" fill="#DFEBFF" stroke="#76A6F5"/>
<path d="M65.7003 36.5788L64.6518 35.4937L63.5325 36.9373C63.5325 36.9373 64.3843 37.7598 65.3995 37.5274L65.7003 36.5788Z" fill="black"/>
<path d="M63.21 34.8964L62.731 36.4115L63.5326 36.9371L64.6519 35.4936L63.21 34.8964Z" fill="black"/>
<path d="M48.9215 34.9791C49.3006 33.8623 50.5747 33.3838 51.5784 33.9086L50.4178 33.3016C49.5318 32.8383 49.1024 31.7677 49.5022 30.8514C49.9412 29.8451 51.1433 29.434 52.0999 29.9341L50.9391 29.3271C50.0531 28.8638 49.6237 27.7931 50.0236 26.8766C50.4625 25.8704 51.6646 25.4594 52.6212 25.9595L47.0749 23.0596C46.2456 22.626 45.8105 21.6544 46.1111 20.7683C46.4901 19.6515 47.7642 19.173 48.7681 19.6978L60.4473 25.8046L59.2446 20.882C59.1239 20.3905 59.1963 19.8946 59.4147 19.4771C59.6538 19.02 60.0679 18.6566 60.5933 18.4921C61.603 18.1742 62.6844 18.698 63.0646 19.6854L66.8972 29.6376C67.2248 30.4883 67.8511 31.1903 68.6588 31.6127L69.3253 31.9612C69.7551 32.1858 69.9214 32.7165 69.6965 33.1463L65.029 42.0732C64.8043 42.503 64.2737 42.6693 63.8438 42.4446L62.2047 41.5875C61.5857 41.2638 60.8892 41.132 60.1915 41.1709C58.5144 41.2644 56.8362 40.9046 55.3366 40.1207L49.8853 37.2703C49.0561 36.8368 48.621 35.8652 48.9215 34.9791Z" fill="white"/>
<path d="M64.2487 42.8366C64.0661 42.8366 63.8811 42.7938 63.7085 42.7034L62.0694 41.8463C61.5181 41.5582 60.8747 41.4258 60.2077 41.4626C58.4738 41.5599 56.7413 41.1846 55.2015 40.3795L49.7502 37.5291C48.7807 37.0222 48.3057 35.8856 48.6452 34.8854C48.8504 34.2803 49.3069 33.7977 49.8973 33.5612C49.9773 33.5291 50.0585 33.502 50.1405 33.4798C49.2 32.9007 48.8021 31.7263 49.2347 30.7346C49.4782 30.1763 49.9294 29.757 50.5053 29.5542C50.5571 29.5359 50.6094 29.5197 50.662 29.5055C49.7215 28.9262 49.3234 27.7517 49.756 26.7601C49.9995 26.2018 50.4508 25.7827 51.0266 25.5798C51.0757 25.5625 51.1253 25.5469 51.1751 25.5333L46.9397 23.3186C45.9705 22.8118 45.4953 21.6752 45.8348 20.6748C46.0402 20.0697 46.4967 19.5871 47.0871 19.3506C47.6795 19.1131 48.3417 19.1454 48.9035 19.4394L60.0107 25.2469L58.9613 20.9516C58.8281 20.409 58.8972 19.8373 59.1561 19.3421C59.4405 18.798 59.92 18.3971 60.5062 18.2136C61.6586 17.8507 62.9025 18.4511 63.337 19.5803L67.1697 29.5326C67.472 30.3173 68.049 30.9641 68.7942 31.3537L69.4607 31.7021C70.0323 32.0011 70.2544 32.7095 69.9554 33.2813L65.2878 42.2082C65.0791 42.6078 64.6707 42.8366 64.2487 42.8366ZM60.4267 40.8726C61.1087 40.8726 61.7655 41.0287 62.3401 41.3289L63.9792 42.186C64.1178 42.2586 64.2765 42.2728 64.426 42.2259C64.5755 42.1792 64.6978 42.077 64.7704 41.9382L69.4379 33.0113C69.5878 32.7247 69.4765 32.3698 69.1901 32.2201L68.5236 31.8717C67.6524 31.4164 66.9783 30.6603 66.625 29.7428L62.7923 19.7906C62.4678 18.9482 61.5408 18.5003 60.6812 18.7709C60.2436 18.9081 59.886 19.207 59.6738 19.6128C59.4808 19.9819 59.4293 20.4081 59.5285 20.8128L60.7314 25.7359C60.7586 25.8473 60.7182 25.9645 60.6278 26.0351C60.5373 26.1058 60.4141 26.1171 60.3125 26.064L48.6331 19.9572C48.223 19.7427 47.7385 19.7195 47.3043 19.893C46.8661 20.0686 46.5407 20.4129 46.3878 20.8626C46.14 21.593 46.4935 22.4266 47.2105 22.8013L52.7568 25.7013C52.8997 25.776 52.955 25.9524 52.8802 26.0953C52.8057 26.238 52.6289 26.2937 52.4862 26.2187C52.0984 26.0161 51.6373 25.9839 51.2209 26.1305C50.7996 26.2791 50.4697 26.5855 50.2915 26.9937C49.9598 27.7541 50.3038 28.6655 51.0747 29.0687L52.2353 29.6756C52.3782 29.7504 52.4335 29.9268 52.3587 30.0696C52.284 30.2123 52.1076 30.268 51.9647 30.1931L51.9628 30.1921C51.5756 29.9904 51.1152 29.9585 50.6996 30.1051C50.2781 30.2536 49.9481 30.56 49.77 30.9682C49.4383 31.7286 49.7823 32.64 50.5532 33.0432L51.7116 33.6488C51.7124 33.6492 51.713 33.6496 51.7138 33.65C51.8567 33.7247 51.9119 33.9011 51.8372 34.044C51.7624 34.1867 51.5861 34.2422 51.4432 34.1674L51.441 34.1664C51.0311 33.9527 50.5479 33.9295 50.1142 34.1034C49.676 34.2788 49.3505 34.6231 49.1981 35.073C48.9503 35.8034 49.3038 36.6368 50.0207 37.0117L55.4718 39.862C56.9188 40.6185 58.5457 40.9699 60.1752 40.8796C60.2593 40.8747 60.3432 40.8726 60.4267 40.8726Z" fill="white"/>
<path d="M53.0334 34.9617C52.9878 34.9617 52.9415 34.951 52.8985 34.9284L51.4431 34.1674C51.3002 34.0927 51.2449 33.9163 51.3197 33.7734C51.3942 33.6305 51.5708 33.5749 51.7137 33.65L53.169 34.411C53.3119 34.4857 53.3672 34.6621 53.2925 34.805C53.2403 34.9046 53.1385 34.9617 53.0334 34.9617Z" fill="white"/>
<path d="M53.5548 30.9872C53.5093 30.9872 53.463 30.9765 53.4199 30.9539L51.9646 30.1929C51.8217 30.1182 51.7664 29.9418 51.8412 29.7989C51.9157 29.656 52.0921 29.6005 52.2352 29.6755L53.6905 30.4364C53.8334 30.5112 53.8887 30.6876 53.8139 30.8305C53.7618 30.9301 53.6602 30.9872 53.5548 30.9872Z" fill="white"/>
<path d="M54.0763 27.0129C54.0308 27.0129 53.9844 27.0022 53.9414 26.9797L52.4861 26.2187C52.3432 26.1439 52.2879 25.9676 52.3627 25.8247C52.4372 25.6818 52.6136 25.6261 52.7567 25.7013L54.212 26.4622C54.3549 26.537 54.4102 26.7134 54.3354 26.8562C54.2833 26.9559 54.1816 27.0129 54.0763 27.0129Z" fill="white"/>
<path d="M64.2487 42.8366C64.0661 42.8366 63.8811 42.7938 63.7085 42.7034L62.0694 41.8463C61.5181 41.5582 60.8747 41.4258 60.2077 41.4626C58.4738 41.5599 56.7413 41.1846 55.2015 40.3795L49.7502 37.5291C48.7807 37.0222 48.3057 35.8856 48.6452 34.8854C48.8504 34.2803 49.3069 33.7977 49.8973 33.5612C49.9773 33.5291 50.0585 33.502 50.1405 33.4798C49.2 32.9007 48.8021 31.7263 49.2347 30.7346C49.4782 30.1763 49.9294 29.757 50.5053 29.5542C50.5571 29.5359 50.6094 29.5197 50.662 29.5055C49.7215 28.9262 49.3234 27.7517 49.756 26.7601C49.9995 26.2018 50.4508 25.7827 51.0266 25.5798C51.0757 25.5625 51.1253 25.5469 51.1751 25.5333L46.9397 23.3186C45.9705 22.8118 45.4953 21.6752 45.8348 20.6748C46.0402 20.0697 46.4967 19.5871 47.0871 19.3506C47.6795 19.1131 48.3417 19.1454 48.9035 19.4394L60.0107 25.2469L58.9613 20.9516C58.8281 20.409 58.8972 19.8373 59.1561 19.3421C59.4405 18.798 59.92 18.3971 60.5062 18.2136C61.6586 17.8507 62.9025 18.4511 63.337 19.5803L67.1697 29.5326C67.472 30.3173 68.049 30.9641 68.7942 31.3537L69.4607 31.7021C70.0323 32.0011 70.2544 32.7095 69.9554 33.2813L65.2878 42.2082C65.0791 42.6078 64.6707 42.8366 64.2487 42.8366ZM60.4267 40.8726C61.1087 40.8726 61.7655 41.0287 62.3401 41.3289L63.9792 42.186C64.1178 42.2586 64.2765 42.2728 64.426 42.2259C64.5755 42.1792 64.6978 42.077 64.7704 41.9382L69.4379 33.0113C69.5878 32.7247 69.4765 32.3698 69.1901 32.2201L68.5236 31.8717C67.6524 31.4164 66.9783 30.6603 66.625 29.7428L62.7923 19.7906C62.4678 18.9482 61.5408 18.5003 60.6812 18.7709C60.2436 18.9081 59.886 19.207 59.6738 19.6128C59.4808 19.9819 59.4293 20.4081 59.5285 20.8128L60.7314 25.7359C60.7586 25.8473 60.7182 25.9645 60.6278 26.0351C60.5373 26.1058 60.4141 26.1171 60.3125 26.064L48.6331 19.9572C48.223 19.7427 47.7385 19.7195 47.3043 19.893C46.8661 20.0686 46.5407 20.4129 46.3878 20.8626C46.14 21.593 46.4935 22.4266 47.2105 22.8013L52.7568 25.7013C52.8997 25.776 52.955 25.9524 52.8802 26.0953C52.8057 26.238 52.6289 26.2937 52.4862 26.2187C52.0984 26.0161 51.6373 25.9839 51.2209 26.1305C50.7996 26.2791 50.4697 26.5855 50.2915 26.9937C49.9598 27.7541 50.3038 28.6655 51.0747 29.0687L52.2353 29.6756C52.3782 29.7504 52.4335 29.9268 52.3587 30.0696C52.284 30.2123 52.1076 30.268 51.9647 30.1931L51.9628 30.1921C51.5756 29.9904 51.1152 29.9585 50.6996 30.1051C50.2781 30.2536 49.9481 30.56 49.77 30.9682C49.4383 31.7286 49.7823 32.64 50.5532 33.0432L51.7116 33.6488C51.7124 33.6492 51.713 33.6496 51.7138 33.65C51.8567 33.7247 51.9119 33.9011 51.8372 34.044C51.7624 34.1867 51.5861 34.2422 51.4432 34.1674L51.441 34.1664C51.0311 33.9527 50.5479 33.9295 50.1142 34.1034C49.676 34.2788 49.3505 34.6231 49.1981 35.073C48.9503 35.8034 49.3038 36.6368 50.0207 37.0117L55.4718 39.862C56.9188 40.6185 58.5457 40.9699 60.1752 40.8796C60.2593 40.8747 60.3432 40.8726 60.4267 40.8726Z" fill="#161616"/>
</svg>
