<svg width="74" height="74" viewBox="0 0 74 74" fill="none" xmlns="http://www.w3.org/2000/svg">
<path d="M55.5 55.5C65.7173 45.2827 65.7173 28.7173 55.5 18.5C45.2827 8.28273 28.7173 8.28273 18.5 18.5C8.28273 28.7173 8.28273 45.2827 18.5 55.5C28.7173 65.7173 45.2827 65.7173 55.5 55.5Z" fill="#D3E4FF"/>
<path d="M57.5208 11.3728L18.5498 9.00145C17.6522 8.95536 16.8442 9.98564 16.8442 10.8507V63.636C16.8442 64.8358 18.0093 65.0773 18.9069 64.9808L57.5209 60.8328C58.2262 60.757 58.7957 60.078 58.7957 59.316V12.8181C58.7957 12.0561 58.2262 11.4091 57.5208 11.3728Z" fill="url(#paint0_linear_2001_3522)"/>
<path d="M57.7703 11.8773L19.9933 9.92813C19.1249 9.88334 18.4177 10.5286 18.4177 11.3697V62.6872C18.4177 63.5283 19.1249 64.1337 19.9933 64.04L57.7703 59.9619C58.4527 59.8882 59.0036 59.2282 59.0036 58.4873V13.2824C59.0036 12.5415 58.4527 11.9125 57.7703 11.8773Z" fill="#B5D0FD"/>
<path opacity="0.3" d="M19.9932 63.3439C19.5248 63.3935 19.1428 63.0653 19.1428 62.6121V11.4037C19.1428 10.9505 19.5248 10.6007 19.9932 10.6239L57.7702 12.4956C58.1391 12.5138 58.4385 12.8548 58.4385 13.2556V58.5457C58.4385 58.9465 58.1391 59.3043 57.7702 59.3434L19.9932 63.3439Z" fill="url(#paint1_linear_2001_3522)"/>
<path d="M55.3355 58.129L23.0247 61.3941V14.15L55.3355 15.4263V58.129Z" fill="white"/>
<path d="M49.4242 13.7394C49.3629 13.3938 49.0989 13.1513 48.7663 13.1356L46.7029 13.0386C45.7664 12.9946 45.0798 12.1966 45.1142 11.1859L45.1938 8.84359C45.2085 8.41041 44.9136 8.06332 44.5082 8.03793L43.8303 7.99546C43.3133 7.96307 42.9692 7.4851 43.0417 6.93242C43.1684 5.96654 42.5374 5.13303 41.623 5.06764C40.7013 5.00176 39.8412 5.74025 39.704 6.71849C39.6836 6.86387 39.6367 7.00749 39.5606 7.13566C39.3476 7.49395 38.9744 7.69122 38.609 7.66831L37.9097 7.6245C37.486 7.59796 37.0833 7.90989 36.976 8.34878L36.3945 10.7263C36.143 11.7546 35.1945 12.4976 34.1872 12.4503L31.9237 12.3439C31.553 12.3264 31.1892 12.553 31.0185 12.9084L29.6546 15.747C29.5429 15.9795 29.6804 16.2306 29.9239 16.2391L49.5527 16.9229C49.7676 16.9304 49.9499 16.7057 49.9103 16.4824L49.4242 13.7394ZM41.3448 7.09491C41.0744 7.07733 40.8868 6.83081 40.9261 6.54432C40.9654 6.25782 41.2167 6.04055 41.4869 6.05901C41.7567 6.07744 41.9433 6.32388 41.9041 6.60952C41.8649 6.89512 41.6146 7.11244 41.3448 7.09491Z" fill="#3B495E"/>
<path d="M52.1846 21.5276L27.1606 21.3678V19.8093L52.1846 20.0263V21.5276Z" fill="#D8DEE8"/>
<path d="M52.1846 24.156L27.1606 24.0963V22.5378L52.1846 22.6547V24.156Z" fill="#D8DEE8"/>
<path d="M52.1846 26.7842L27.1606 26.8247V25.2663L52.1846 25.283V26.7842Z" fill="#D8DEE8"/>
<path d="M52.1846 29.4126L27.1606 29.5532V27.9948L52.1846 27.9113V29.4126Z" fill="#D8DEE8"/>
<path d="M47.9529 33.7415L26.7861 34.2762V32.6532L47.9529 32.2199V33.7415Z" fill="#D8DEE8"/>
<path d="M47.9529 36.4053L26.7861 37.1176V35.4946L47.9529 34.8838V36.4053Z" fill="#D8DEE8"/>
<path d="M47.9529 39.0692L26.7861 39.9592V38.3362L47.9529 37.5477V39.0692Z" fill="#D8DEE8"/>
<path d="M47.9529 41.733L26.7861 42.8005V41.1775L47.9529 40.2115V41.733Z" fill="#D8DEE8"/>
<path d="M52.1846 33.6345L49.4001 33.7049V32.1903L52.1846 32.1333V33.6345Z" fill="#D8DEE8"/>
<path d="M52.1846 36.263L49.4001 36.3567V34.8421L52.1846 34.7617V36.263Z" fill="#D8DEE8"/>
<path d="M52.1846 38.8913L49.4001 39.0084V37.4938L52.1846 37.3901V38.8913Z" fill="#D8DEE8"/>
<path d="M52.1846 41.5196L49.4001 41.66V40.1454L52.1846 40.0183V41.5196Z" fill="#D8DEE8"/>
<path d="M47.9529 46.0558L26.7861 47.4115V45.7885L47.9529 44.5342V46.0558Z" fill="#D8DEE8"/>
<path d="M47.9529 48.7196L26.7861 50.2529V48.63L47.9529 47.1981V48.7196Z" fill="#D8DEE8"/>
<path d="M47.9529 51.3834L26.7861 53.0943V51.4714L47.9529 49.8618V51.3834Z" fill="#D8DEE8"/>
<path d="M47.9529 54.0473L26.7861 55.9358V54.3129L47.9529 52.5258V54.0473Z" fill="#D8DEE8"/>
<path d="M52.1846 45.7848L49.4001 45.9632V44.4486L52.1846 44.2836V45.7848Z" fill="#D8DEE8"/>
<path d="M52.1846 48.4131L49.4001 48.6148V47.1002L52.1846 46.9118V48.4131Z" fill="#D8DEE8"/>
<path d="M52.1846 51.0415L49.4001 51.2665V49.7519L52.1846 49.5402V51.0415Z" fill="#D8DEE8"/>
<path d="M52.1846 53.6698L49.4001 53.9183V52.4037L52.1846 52.1686V53.6698Z" fill="#D8DEE8"/>
<path d="M25.3842 18.8206L32.6466 23.9449C31.5814 25.446 30.9585 27.1948 30.9585 29.2591L21.8523 29.1253C21.8523 25.1967 23.1656 21.6787 25.3842 18.8206Z" fill="url(#paint2_linear_2001_3522)"/>
<path d="M46.3485 13.2208L43.9795 20.4665C43.088 20.1553 42.1345 19.9623 41.1388 19.9106C40.2491 19.8644 39.3812 19.9337 38.5504 20.1058L36.0295 12.3059C37.6729 11.9832 39.3885 11.8821 41.1388 12.0271C42.9773 12.1793 44.7253 12.5925 46.3485 13.2208Z" fill="url(#paint3_linear_2001_3522)"/>
<path d="M54.6545 19.6391L48.5669 23.7489C47.6055 22.5137 46.3387 21.5012 44.8689 20.8258L47.2264 13.5864C50.252 14.9385 52.8097 17.0589 54.6545 19.6391Z" fill="url(#paint4_linear_2001_3522)"/>
<path d="M57.8924 29.6546L50.5667 29.547C50.5667 27.6353 50.03 25.9788 49.1008 24.5152L55.1616 20.4005C56.8925 23.1002 57.8924 26.2418 57.8924 29.6546Z" fill="url(#paint5_linear_2001_3522)"/>
<path d="M37.6055 20.3511C35.8997 20.8856 34.3967 21.8655 33.2513 23.1672L26.0215 18.0375C28.3637 15.357 31.5135 13.42 35.065 12.5218L37.6055 20.3511Z" fill="url(#paint6_linear_2001_3522)"/>
<path d="M40.0266 26.6299L49.7282 19.2907L42.8383 29.179L40.0266 26.6299Z" fill="url(#paint7_linear_2001_3522)"/>
<path d="M43.6801 28.4697C43.6801 29.8288 42.5486 30.9206 41.1387 30.9082C39.7131 30.8956 38.5457 29.7612 38.5457 28.3744C38.5457 26.9877 39.7131 25.8965 41.1387 25.9369C42.5486 25.9767 43.6801 27.1105 43.6801 28.4697Z" fill="url(#paint8_linear_2001_3522)"/>
<defs>
<linearGradient id="paint0_linear_2001_3522" x1="16.8442" y1="36.9999" x2="58.7957" y2="36.9999" gradientUnits="userSpaceOnUse">
<stop stop-color="#76A6F5"/>
<stop offset="0.9964" stop-color="#76A6F5"/>
</linearGradient>
<linearGradient id="paint1_linear_2001_3522" x1="19.1428" y1="36.9859" x2="58.4385" y2="36.9859" gradientUnits="userSpaceOnUse">
<stop offset="0.0036" stop-color="#C4DAFF"/>
<stop offset="1" stop-color="#76A6F5"/>
</linearGradient>
<linearGradient id="paint2_linear_2001_3522" x1="27.0521" y1="26.303" x2="13.0139" y2="78.2433" gradientUnits="userSpaceOnUse">
<stop stop-color="#005FBF"/>
<stop offset="1" stop-color="#0B4E96"/>
</linearGradient>
<linearGradient id="paint3_linear_2001_3522" x1="40.7486" y1="20.2121" x2="37.6514" y2="67.8289" gradientUnits="userSpaceOnUse">
<stop stop-color="#76A6F5"/>
<stop offset="0.9964" stop-color="#76A6F5" stop-opacity="0.4"/>
</linearGradient>
<linearGradient id="paint4_linear_2001_3522" x1="47.5996" y1="19.2965" x2="87.1901" y2="-9.61441" gradientUnits="userSpaceOnUse">
<stop offset="0.0036" stop-color="#ABCBFF"/>
<stop offset="1" stop-color="#AABBCC" stop-opacity="0.733333"/>
</linearGradient>
<linearGradient id="paint5_linear_2001_3522" x1="62.5743" y1="-8.82271" x2="49.6448" y2="37.6698" gradientUnits="userSpaceOnUse">
<stop offset="0.0036" stop-color="#BD99FF"/>
<stop offset="1" stop-color="#BD99FF"/>
</linearGradient>
<linearGradient id="paint6_linear_2001_3522" x1="32.4253" y1="2.01181" x2="31.5233" y2="25.0401" gradientUnits="userSpaceOnUse">
<stop stop-color="#6095F9"/>
<stop offset="0.9964" stop-color="#477CE1"/>
</linearGradient>
<linearGradient id="paint7_linear_2001_3522" x1="43.9767" y1="22.0969" x2="46.8374" y2="24.5898" gradientUnits="userSpaceOnUse">
<stop stop-color="#3B495E"/>
<stop offset="0.9964" stop-color="#3B495E"/>
</linearGradient>
<linearGradient id="paint8_linear_2001_3522" x1="38.5456" y1="28.422" x2="43.6801" y2="28.422" gradientUnits="userSpaceOnUse">
<stop stop-color="#3B495E"/>
<stop offset="0.9964" stop-color="#3B495E"/>
</linearGradient>
</defs>
</svg>
