<svg width="74" height="74" viewBox="0 0 74 74" fill="none" xmlns="http://www.w3.org/2000/svg">
<path d="M55.5 55.5C65.7173 45.2827 65.7173 28.7173 55.5 18.5C45.2827 8.28273 28.7173 8.28273 18.5 18.5C8.28273 28.7173 8.28273 45.2827 18.5 55.5C28.7173 65.7173 45.2827 65.7173 55.5 55.5Z" fill="#D3E4FF"/>
<path d="M48.6924 65H22.0584C20.3461 65 19.0222 63.7376 19.116 62.1949L22.1838 11.8051C22.2779 10.2624 23.7557 9 25.4677 9H52.1017C53.8139 9 55.1379 10.2624 55.044 11.8051L51.9762 62.1949C51.8824 63.7376 50.4046 65 48.6924 65Z" fill="#76A6F5"/>
<path opacity="0.8" d="M47.5576 63.9231H22.1085C20.3671 63.9231 19.0207 62.6849 19.1161 61.1719L22.236 11.7512C22.3317 10.2381 23.8346 9 25.5757 9H51.0248C52.7661 9 54.1126 10.2381 54.0172 11.7512L50.8973 61.1719C50.8016 62.6849 49.2987 63.9231 47.5576 63.9231Z" fill="#C4DAFF"/>
<path d="M34.8026 19.7159H27.5603C26.8316 19.7159 26.2681 19.0907 26.3082 18.3265C26.3482 17.5622 26.977 16.937 27.7057 16.937H34.948C35.6767 16.937 36.24 17.5625 36.2002 18.3265C36.1601 19.0904 35.5313 19.7159 34.8026 19.7159Z" fill="white"/>
<path d="M36.1999 18.3262C36.1275 19.7074 35.0013 20.8274 33.6844 20.8274C32.3675 20.8274 31.3583 19.7077 31.4307 18.3262C31.5028 16.9449 32.6292 15.825 33.9461 15.825C35.2631 15.8253 36.2722 16.9449 36.1999 18.3262Z" fill="#BD99FF"/>
<path d="M34.3373 28.6044H27.0952C26.3665 28.6044 25.803 27.9793 25.8431 27.215C25.8831 26.4508 26.512 25.8256 27.2406 25.8256H34.483C35.2116 25.8256 35.7752 26.4508 35.7351 27.215C35.6948 27.9793 35.066 28.6044 34.3373 28.6044Z" fill="white"/>
<path d="M31.7652 28.9607C32.7353 27.9708 32.7974 26.3874 31.9039 25.4242C31.0104 24.461 29.4996 24.4827 28.5295 25.4726C27.5594 26.4626 27.4973 28.0459 28.3908 29.0092C29.2843 29.9724 30.7951 29.9507 31.7652 28.9607Z" fill="#76A6F5"/>
<path opacity="0.3" d="M31.7652 28.9607C32.7353 27.9708 32.7974 26.3874 31.9039 25.4242C31.0104 24.461 29.4996 24.4827 28.5295 25.4726C27.5594 26.4626 27.4973 28.0459 28.3908 29.0092C29.2843 29.9724 30.7951 29.9507 31.7652 28.9607Z" fill="#76A6F5"/>
<path d="M26.1655 46.3822H33.4076C34.1363 46.3822 34.7651 45.757 34.8052 44.9928C34.845 44.2286 34.2817 43.6034 33.553 43.6034H26.3109C25.5823 43.6034 24.9535 44.2286 24.9134 44.9928C24.8733 45.757 25.4369 46.3822 26.1655 46.3822Z" fill="white"/>
<path d="M28.917 46.7399C29.8873 45.75 29.9495 44.1665 29.056 43.2031C28.1625 42.2398 26.6516 42.2614 25.6814 43.2513C24.7111 44.2413 24.6489 45.8247 25.5424 46.7881C26.4359 47.7514 27.9468 47.7299 28.917 46.7399Z" fill="#76A6F5"/>
<path opacity="0.7" d="M28.917 46.7399C29.8873 45.75 29.9495 44.1665 29.056 43.2031C28.1625 42.2398 26.6516 42.2614 25.6814 43.2513C24.7111 44.2413 24.6489 45.8247 25.5424 46.7881C26.4359 47.7514 27.9468 47.7299 28.917 46.7399Z" fill="#76A6F5"/>
<path d="M32.9425 55.271H25.7002C24.9715 55.271 24.408 54.6459 24.4481 53.8816C24.4881 53.1174 25.1169 52.4922 25.8456 52.4922H33.0877C33.8164 52.4922 34.3797 53.1174 34.3398 53.8816C34.3 54.6459 33.6712 55.271 32.9425 55.271Z" fill="white"/>
<path d="M34.152 53.5012C34.0799 54.8824 32.9535 56.0024 31.6366 56.0024C30.3196 56.0024 29.3104 54.8827 29.3828 53.5012C29.4552 52.1199 30.5814 51 31.8983 51C33.2152 51 34.2242 52.1199 34.152 53.5012Z" fill="#BD99FF"/>
<path d="M26.6303 37.4934H33.8724C34.6011 37.4934 35.2299 36.8682 35.27 36.104C35.3098 35.3397 34.7465 34.7146 34.0178 34.7146H26.7755C26.0468 34.7146 25.418 35.3397 25.3779 36.104C25.3383 36.8682 25.9016 37.4934 26.6303 37.4934Z" fill="white"/>
<path d="M25.3779 36.104C25.3056 37.4852 26.3147 38.6052 27.6317 38.6052C28.9486 38.6052 30.0748 37.4855 30.1472 36.104C30.2193 34.7227 29.2103 33.6028 27.8934 33.6028C26.5765 33.6028 25.4503 34.7227 25.3779 36.104Z" fill="#76A6F5"/>
<path opacity="0.7" d="M25.3779 36.104C25.3056 37.4852 26.3147 38.6052 27.6317 38.6052C28.9486 38.6052 30.0748 37.4855 30.1472 36.104C30.2193 34.7227 29.2103 33.6028 27.8934 33.6028C26.5765 33.6028 25.4503 34.7227 25.3779 36.104Z" fill="#76A6F5"/>
<path d="M50.6675 17.9095H39.9325C39.641 17.9095 39.4157 17.6595 39.4317 17.3537C39.4477 17.048 39.6992 16.798 39.9907 16.798H50.7256C51.0171 16.798 51.2425 17.048 51.2264 17.3537C51.2104 17.6592 50.959 17.9095 50.6675 17.9095Z" fill="white"/>
<path d="M47.0912 19.8547H39.831C39.5394 19.8547 39.3141 19.6047 39.3302 19.299C39.3462 18.9932 39.5976 18.7432 39.8891 18.7432H47.1493C47.4408 18.7432 47.6662 18.9932 47.6501 19.299C47.6341 19.6047 47.3827 19.8547 47.0912 19.8547Z" fill="white"/>
<path d="M47.4513 53.4647H38.0729C37.7814 53.4647 37.5561 53.2146 37.5721 52.9089C37.5881 52.6031 37.8396 52.3531 38.1311 52.3531H47.5094C47.801 52.3531 48.0263 52.6031 48.0102 52.9089C47.9942 53.2146 47.7426 53.4647 47.4513 53.4647Z" fill="white"/>
<path d="M42.6052 55.4101H37.9711C37.6796 55.4101 37.4543 55.1601 37.4703 54.8544C37.4863 54.5486 37.7377 54.2986 38.0293 54.2986H42.6634C42.9549 54.2986 43.1802 54.5486 43.1642 54.8544C43.1482 55.1599 42.8965 55.4101 42.6052 55.4101Z" fill="white"/>
<path d="M50.159 27.632H39.424C39.1325 27.632 38.8811 27.882 38.8651 28.1878C38.849 28.4935 39.0744 28.7435 39.3659 28.7435H50.1008C50.3923 28.7435 50.6437 28.4935 50.6598 28.1878C50.6758 27.882 50.4505 27.632 50.159 27.632Z" fill="white"/>
<path d="M46.786 25.6866H39.5258C39.2343 25.6866 38.9829 25.9367 38.9669 26.2424C38.9508 26.5482 39.1762 26.7982 39.4677 26.7982H46.7279C47.0194 26.7982 47.2708 26.5482 47.2868 26.2424C47.3029 25.9369 47.0776 25.6866 46.786 25.6866Z" fill="white"/>
<path d="M44.5087 35.687H39.0031C38.7116 35.687 38.4862 35.437 38.5023 35.1312C38.5183 34.8255 38.7697 34.5755 39.0612 34.5755H44.5669C44.8584 34.5755 45.0837 34.8255 45.0677 35.1312C45.0517 35.437 44.8 35.687 44.5087 35.687Z" fill="white"/>
<path d="M49.7375 35.687H46.4945C46.203 35.687 45.9777 35.437 45.9937 35.1312C46.0098 34.8255 46.2612 34.5755 46.5527 34.5755H49.7957C50.0872 34.5755 50.3125 34.8255 50.2965 35.1312C50.2805 35.437 50.029 35.687 49.7375 35.687Z" fill="white"/>
<path d="M46.1612 37.6323H38.901C38.6095 37.6323 38.3842 37.3823 38.4002 37.0766C38.4162 36.7708 38.6677 36.5208 38.9592 36.5208H46.2194C46.5109 36.5208 46.7362 36.7708 46.7202 37.0766C46.7042 37.3821 46.4527 37.6323 46.1612 37.6323Z" fill="white"/>
<path d="M41.6721 45.4095H38.4943C38.2028 45.4095 37.9514 45.6595 37.9354 45.9653C37.9193 46.271 38.1447 46.521 38.4362 46.521H41.6139C41.9054 46.521 42.1568 46.271 42.1729 45.9653C42.1889 45.6598 41.9636 45.4095 41.6721 45.4095Z" fill="white"/>
<path d="M47.3427 45.4095H43.6584C43.3669 45.4095 43.1155 45.6595 43.0994 45.9653C43.0834 46.271 43.3087 46.521 43.6002 46.521H47.2847C47.5762 46.521 47.8277 46.271 47.8437 45.9653C47.8595 45.6598 47.6342 45.4095 47.3427 45.4095Z" fill="white"/>
<path d="M45.8561 43.4643H38.5959C38.3044 43.4643 38.053 43.7143 38.0369 44.0201C38.0209 44.3258 38.2462 44.5758 38.5377 44.5758H45.7979C46.0895 44.5758 46.3409 44.3258 46.3569 44.0201C46.3729 43.7143 46.1476 43.4643 45.8561 43.4643Z" fill="white"/>
</svg>
