<svg width="236" height="68" viewBox="0 0 236 68" fill="none" xmlns="http://www.w3.org/2000/svg">
<rect width="235.5" height="68" transform="translate(0.5)" fill="#E8EFFF"/>
<g opacity="0.3">
<path d="M84.4319 47.1358C84.5799 47.1741 84.7295 47.0792 84.766 46.9239C84.8368 46.6222 84.9212 46.3193 85.0168 46.0234C85.0652 45.8738 84.9901 45.7115 84.849 45.6582C84.8473 45.6575 84.8456 45.6569 84.8439 45.6562C84.6995 45.6049 84.5428 45.6861 84.4938 45.8376C84.3932 46.149 84.3044 46.4679 84.2298 46.7855C84.1957 46.9307 84.2727 47.0774 84.404 47.127C84.413 47.1304 84.4223 47.1334 84.4319 47.1358ZM85.5763 44.6171C85.7093 44.3378 85.8551 44.0619 86.0095 43.7968C86.089 43.6604 86.048 43.4821 85.9179 43.3987C85.7871 43.3155 85.6179 43.3584 85.5384 43.4949C85.3759 43.7738 85.2224 44.0643 85.0824 44.3581C85.0142 44.5011 85.0695 44.6751 85.2059 44.7466C85.2158 44.7518 85.2259 44.7563 85.2361 44.7601C85.3658 44.8092 85.513 44.7497 85.5763 44.6171ZM86.8511 42.5556C87.0396 42.3151 87.2403 42.0803 87.4479 41.8576C87.5545 41.7432 87.5525 41.5598 87.4435 41.4481C87.3344 41.3365 87.1597 41.3384 87.053 41.4527C86.8344 41.6873 86.623 41.9346 86.4246 42.1879C86.3277 42.3114 86.3448 42.4939 86.4625 42.5955C86.4876 42.6171 86.5153 42.6333 86.5442 42.6443C86.651 42.6846 86.7749 42.6528 86.8511 42.5556ZM88.5335 40.845C88.7688 40.6544 89.0147 40.4725 89.2643 40.3041C89.3925 40.2175 89.4296 40.0383 89.3471 39.9039C89.2645 39.7695 89.0938 39.7307 88.9656 39.817C88.7027 39.9944 88.4439 40.186 88.1962 40.3864C88.0755 40.4841 88.0532 40.6659 88.1463 40.7925C88.1797 40.8378 88.2232 40.8699 88.271 40.888C88.3568 40.9204 88.456 40.9076 88.5335 40.845ZM90.5374 39.57C90.8064 39.4394 91.0847 39.319 91.3643 39.2124C91.5076 39.1576 91.5815 38.9915 91.5294 38.8412C91.4772 38.6908 91.3188 38.6134 91.1755 38.6682C90.8813 38.7804 90.5886 38.9071 90.3054 39.0445C90.1671 39.1116 90.1068 39.2837 90.1709 39.4289C90.2031 39.502 90.2608 39.5544 90.3278 39.5797C90.3938 39.6046 90.4687 39.6033 90.5374 39.57ZM92.7602 38.7919C93.0506 38.7268 93.3472 38.6741 93.6419 38.6351C93.7932 38.615 93.9004 38.4701 93.8812 38.3116C93.8622 38.1529 93.7241 38.0405 93.5728 38.0605C93.2627 38.1015 92.9504 38.1571 92.6449 38.2256C92.4957 38.259 92.4007 38.4128 92.4326 38.5692C92.4532 38.6708 92.5224 38.7484 92.6092 38.7812C92.656 38.7989 92.7079 38.8036 92.7602 38.7919ZM102.641 41.6589C102.748 41.5444 102.745 41.3611 102.636 41.2494C102.412 41.0209 102.176 40.7994 101.934 40.5913C101.816 40.49 101.642 40.5082 101.545 40.632C101.449 40.7556 101.466 40.938 101.584 41.0393C101.814 41.2369 102.038 41.4472 102.251 41.6643C102.28 41.6941 102.314 41.7157 102.35 41.7293C102.448 41.7667 102.563 41.743 102.641 41.6589ZM95.0908 38.5501C95.3875 38.5544 95.6877 38.5722 95.983 38.6033C96.1347 38.6191 96.27 38.5031 96.2852 38.3439C96.3004 38.1847 96.1895 38.0436 96.0379 38.027C95.727 37.9944 95.4109 37.9756 95.0984 37.9711C94.946 37.9689 94.8206 38.0967 94.8185 38.2567C94.8169 38.3835 94.8932 38.4924 95.001 38.5331C95.0291 38.5437 95.0593 38.5496 95.0908 38.5501ZM100.778 40.0621C100.857 39.9255 100.816 39.7473 100.686 39.6642C100.419 39.494 100.141 39.3336 99.8612 39.1874C99.7248 39.1154 99.559 39.1745 99.491 39.3176C99.4231 39.4608 99.4787 39.6346 99.6152 39.7059C99.8814 39.8449 100.145 39.9972 100.399 40.1591C100.415 40.1694 100.432 40.1777 100.449 40.1841C100.57 40.2298 100.709 40.1817 100.778 40.0621ZM97.4141 38.8606C97.7022 38.9344 97.9911 39.0222 98.2728 39.1216C98.4173 39.1727 98.5739 39.0912 98.6226 38.9397C98.6706 38.7901 98.5955 38.6281 98.4546 38.5749C98.4528 38.5742 98.4509 38.5735 98.449 38.5729C98.1525 38.4681 97.8484 38.3756 97.5451 38.2979C97.3969 38.2601 97.2476 38.3552 97.2113 38.5106C97.1775 38.6557 97.2546 38.802 97.3857 38.8515C97.3949 38.855 97.4044 38.858 97.4141 38.8606Z" fill="#76A6F5"/>
<path d="M103.61 43.2743C103.559 43.255 103.513 43.2197 103.479 43.1696C103.396 43.0479 103.31 42.9259 103.223 42.807C103.129 42.6805 103.152 42.4986 103.272 42.4009C103.393 42.3031 103.566 42.3262 103.66 42.453C103.752 42.578 103.842 42.7062 103.929 42.8344C104.017 42.9647 103.988 43.1456 103.864 43.2381C103.787 43.2952 103.692 43.3054 103.61 43.2743Z" fill="#76A6F5"/>
</g>
<g opacity="0.3">
<path d="M105.415 51.8968C105.29 51.8495 105.212 51.7124 105.238 51.5707C105.264 51.424 105.288 51.2743 105.309 51.1257C105.331 50.9675 105.472 50.8581 105.622 50.8813C105.774 50.9046 105.878 51.0517 105.855 51.2098C105.834 51.3662 105.808 51.5239 105.78 51.6784C105.752 51.8355 105.608 51.9387 105.458 51.9091C105.443 51.9062 105.429 51.902 105.415 51.8968Z" fill="#76A6F5"/>
<path d="M91.729 60.6029C91.8748 60.6497 92.0292 60.5636 92.0738 60.4106C92.1184 60.2577 92.0364 60.0961 91.8905 60.0491C91.6129 59.96 91.3347 59.8572 91.0602 59.7424C90.9194 59.683 90.7579 59.7556 90.7015 59.9042C90.645 60.0527 90.714 60.2211 90.8556 60.2804C90.9746 60.3301 91.0938 60.3776 91.2133 60.4228C91.3838 60.4872 91.5573 60.5479 91.729 60.6029ZM89.8754 59.4884C89.9505 59.3493 89.9038 59.1727 89.7711 59.0939C89.5164 58.9426 89.265 58.7785 89.024 58.6058C88.8985 58.5154 88.7263 58.5496 88.6403 58.6817C88.5543 58.8137 88.5867 58.9939 88.7126 59.084C88.9664 59.2658 89.231 59.4386 89.4991 59.5978C89.513 59.606 89.5273 59.6129 89.5418 59.6184C89.666 59.6653 89.8081 59.6131 89.8754 59.4884ZM93.1944 60.96C93.4977 61.0112 93.8072 61.0495 94.1144 61.0738C94.2664 61.0858 94.399 60.9662 94.4104 60.8067C94.4219 60.6473 94.3079 60.5085 94.1558 60.4962C93.8641 60.4733 93.5702 60.4369 93.2823 60.3882C93.1317 60.3628 92.99 60.4701 92.9657 60.628C92.9443 60.7677 93.022 60.9001 93.1445 60.9464C93.1604 60.9524 93.1771 60.957 93.1944 60.96ZM87.9208 58.0867C88.0233 57.9682 88.0148 57.785 87.9018 57.6777C87.6853 57.4718 87.4746 57.2537 87.2756 57.0295C87.1716 56.9123 86.997 56.9058 86.8854 57.0149C86.7738 57.1238 86.7676 57.307 86.8714 57.424C87.081 57.6601 87.3029 57.8898 87.5309 58.1066C87.5584 58.1328 87.5896 58.1522 87.6226 58.1646C87.7247 58.2032 87.8434 58.1762 87.9208 58.0867ZM95.6177 61.0838C95.924 61.0638 96.2339 61.0298 96.5387 60.9827C96.6895 60.9594 96.7937 60.8123 96.7715 60.6541C96.7493 60.4958 96.609 60.3865 96.4582 60.4098C96.1687 60.4545 95.8744 60.4868 95.5834 60.5058C95.4312 60.5157 95.3155 60.6532 95.325 60.8128C95.332 60.9317 95.4066 61.0294 95.507 61.0673C95.5414 61.0803 95.5789 61.0863 95.6177 61.0838ZM98.0081 60.6472C98.3036 60.5572 98.5989 60.4532 98.8859 60.3379C99.0283 60.2806 99.0995 60.1132 99.0449 59.9638C98.9903 59.8143 98.8307 59.7397 98.6884 59.7971C98.4157 59.9066 98.135 60.0055 97.8542 60.0911C97.7078 60.1356 97.6235 60.2963 97.666 60.4499C97.6917 60.5424 97.7575 60.6113 97.8378 60.6416C97.8907 60.6616 97.9499 60.6649 98.0081 60.6472ZM100.251 59.6746C100.521 59.5192 100.788 59.3501 101.044 59.1721C101.171 59.0837 101.205 58.9041 101.121 58.7708C101.037 58.6373 100.866 58.6011 100.739 58.6894C100.495 58.8586 100.242 59.0192 99.9854 59.1668C99.8517 59.2438 99.8028 59.4198 99.8762 59.56C99.9099 59.6244 99.9635 59.67 100.025 59.6931C100.096 59.7203 100.179 59.7161 100.251 59.6746ZM102.238 58.2119C102.469 57.9984 102.694 57.7721 102.907 57.5392C103.012 57.4237 103.009 57.2404 102.899 57.1297C102.789 57.0193 102.614 57.0232 102.508 57.1386C102.306 57.3598 102.093 57.5747 101.873 57.7775C101.759 57.8833 101.748 58.0661 101.849 58.1861C101.88 58.224 101.92 58.2511 101.962 58.2671C102.054 58.3017 102.16 58.2843 102.238 58.2119ZM103.871 56.3261C104.051 56.0651 104.223 55.7925 104.382 55.5159C104.461 55.3788 104.418 55.2009 104.288 55.1184C104.157 55.0363 103.988 55.0801 103.909 55.2172C103.758 55.48 103.595 55.7388 103.424 55.9868C103.335 56.1163 103.362 56.2974 103.486 56.3911C103.507 56.4074 103.53 56.42 103.554 56.429C103.667 56.4716 103.798 56.4331 103.871 56.3261ZM105.069 54.1125C105.158 53.8945 105.242 53.6708 105.319 53.4479C105.347 53.3671 105.373 53.2864 105.399 53.2054C105.448 53.0539 105.373 52.8874 105.226 52.8388C105.081 52.7878 104.925 52.8694 104.876 53.0211C104.851 53.0979 104.826 53.1749 104.799 53.2516C104.727 53.4636 104.647 53.6761 104.561 53.8834C104.501 54.0302 104.566 54.2006 104.706 54.2639C104.711 54.2662 104.716 54.2685 104.722 54.2705C104.858 54.3219 105.011 54.2539 105.069 54.1125Z" fill="#76A6F5"/>
<path d="M86.0528 56.2976C86.0011 56.2781 85.9545 56.2423 85.9206 56.1917C85.8347 56.0634 85.7497 55.9308 85.6681 55.7976C85.5857 55.663 85.6228 55.4839 85.7511 55.3974C85.8794 55.3111 86.0501 55.3498 86.1326 55.4845C86.2102 55.6111 86.2909 55.737 86.3724 55.8589C86.4601 55.9896 86.43 56.1702 86.3052 56.2622C86.2287 56.3185 86.1344 56.3285 86.0528 56.2976Z" fill="#76A6F5"/>
</g>
<path d="M86.8626 51.4068C86.8444 51.3523 86.861 51.2917 86.9042 51.2558L88.1345 50.2321C88.055 49.4674 88.0913 48.6839 88.2535 47.9108L87.1365 46.7545C87.0973 46.7139 87.087 46.6518 87.1108 46.5997L87.9247 44.8179C87.9484 44.7658 88.0011 44.7353 88.0558 44.7419L89.6149 44.9303C90.0877 44.3132 90.6471 43.7926 91.2651 43.3784L91.2548 41.7313C91.2545 41.6736 91.2891 41.622 91.341 41.6028L93.1178 40.9465C93.1697 40.9273 93.2275 40.9448 93.2617 40.99L94.2378 42.2804C94.9669 42.197 95.7139 42.235 96.451 42.4053L97.5534 41.2337C97.5921 41.1926 97.6514 41.1818 97.701 41.2067L99.3999 42.0603C99.4496 42.0853 99.4786 42.1405 99.4723 42.1979L99.2927 43.8332C99.881 44.329 100.377 44.9158 100.772 45.5639L102.343 45.5531C102.398 45.5527 102.447 45.589 102.465 45.6435L103.091 47.507C103.109 47.5615 103.093 47.6221 103.05 47.658L101.819 48.6817C101.899 49.4464 101.862 50.2299 101.7 51.003L102.817 52.1593C102.856 52.1999 102.867 52.262 102.843 52.3141L102.029 54.096C102.005 54.148 101.953 54.1785 101.898 54.1719L100.339 53.9835C99.866 54.6006 99.3065 55.1212 98.6886 55.5354L98.6989 57.1825C98.6993 57.2402 98.6647 57.2919 98.6127 57.3111L96.8359 57.9674C96.784 57.9866 96.7262 57.9691 96.692 57.9239L95.716 56.6335C94.9869 56.7168 94.2399 56.6788 93.5027 56.5086L92.4003 57.6802C92.3616 57.7213 92.3023 57.7321 92.2527 57.7072L90.5538 56.8535C90.5042 56.8286 90.4751 56.7733 90.4814 56.716L90.661 55.0807C90.0727 54.5849 89.5763 53.9981 89.1813 53.35L87.6109 53.3608C87.5559 53.3611 87.5067 53.3249 87.4884 53.2704L86.8626 51.4068Z" fill="#76A6F5"/>
<path d="M94.602 51.4035C95.6253 51.6204 96.6262 50.9238 96.8332 49.8504C96.9334 49.3304 96.8346 48.8007 96.5549 48.3587C96.2753 47.9167 95.8483 47.6153 95.3525 47.5103C94.3291 47.2933 93.3282 47.9899 93.1213 49.0633C92.933 50.0398 93.4658 50.9968 94.3341 51.325C94.4203 51.3575 94.5097 51.3839 94.602 51.4035ZM96.1869 48.6149C96.4013 48.9538 96.4771 49.36 96.4002 49.7587C96.2416 50.5816 95.4741 51.1158 94.6895 50.9494C93.9046 50.7832 93.3956 49.978 93.5542 49.155C93.7129 48.3322 94.4803 47.7979 95.2649 47.9643C95.3361 47.9794 95.4052 47.9998 95.4723 48.0251C95.7636 48.1353 96.0126 48.3395 96.1869 48.6149Z" fill="#BDD0FB"/>
<path d="M93.4434 54.0372C93.2942 53.9808 93.1469 53.9163 93.002 53.8435C92.9564 53.8206 92.9111 53.7969 92.8662 53.7724C92.6448 53.6519 92.4329 53.513 92.2338 53.3581C92.2311 53.356 92.2284 53.3539 92.2257 53.3517C92.218 53.3457 92.2103 53.3397 92.2027 53.3336C92.1878 53.3218 92.173 53.3098 92.1582 53.2979C92.1194 53.2664 92.1061 53.2132 92.1218 53.1672C92.1257 53.156 92.1313 53.1453 92.1385 53.1354C92.1759 53.0848 92.2452 53.0758 92.2934 53.1148C92.5415 53.3164 92.812 53.4912 93.0974 53.6345C94.5146 54.347 96.1169 54.1965 97.3616 53.3843C98.054 52.9326 98.6356 52.2761 99.0133 51.4493C99.0795 51.3043 99.1383 51.1569 99.1895 51.0077C99.5343 50.0036 99.5394 48.9147 99.1967 47.8944C98.8032 46.7225 97.9981 45.7814 96.9298 45.2446C94.7233 44.1361 92.0704 45.1167 91.0139 47.4298C90.9488 47.5724 90.8907 47.718 90.84 47.8658C90.6201 48.5063 90.5362 49.1902 90.5968 49.8687C90.5983 49.8862 90.5961 49.9032 90.5907 49.9187C90.5767 49.9596 90.5411 49.9905 90.4971 49.9948C90.4363 50.0005 90.3824 49.9541 90.3769 49.8902C90.3133 49.1779 90.4013 48.4598 90.6322 47.7874C90.6854 47.6322 90.7463 47.4794 90.8147 47.3297C91.9239 44.9012 94.7106 43.8726 97.0252 45.0356C98.1468 45.5991 98.9919 46.5871 99.405 47.8174C99.7647 48.8885 99.7594 50.0316 99.3974 51.0858C99.3436 51.2424 99.2819 51.3971 99.2125 51.5493C98.6751 52.7257 97.7332 53.6122 96.5602 54.0454C95.5388 54.4228 94.4486 54.4171 93.4434 54.0372Z" fill="#BDD0FB"/>
<g opacity="0.3">
<path d="M73.074 50.9564C73.0046 50.9301 72.957 50.8585 72.9617 50.7773C72.9704 50.6258 72.9836 50.4724 73.001 50.3216C73.0123 50.2235 73.0972 50.1537 73.1907 50.1655C73.2844 50.177 73.3508 50.2664 73.3396 50.3645C73.323 50.5082 73.3104 50.6544 73.3021 50.799C73.2964 50.8975 73.2156 50.9726 73.1216 50.9668C73.1049 50.9656 73.089 50.962 73.074 50.9564Z" fill="#76A6F5"/>
<path d="M73.2897 49.602C73.3811 49.6258 73.4736 49.5675 73.4964 49.4716C73.5539 49.2298 73.6239 48.9882 73.7044 48.7537C73.7214 48.7042 73.739 48.6548 73.7571 48.6054C73.7908 48.5133 73.747 48.4098 73.6591 48.3744C73.5747 48.3444 73.4725 48.385 73.4386 48.4773C73.4197 48.529 73.4014 48.5807 73.3836 48.6324C73.2991 48.8782 73.2257 49.1316 73.1655 49.3852C73.1441 49.475 73.1917 49.5659 73.273 49.5966C73.2784 49.5987 73.284 49.6004 73.2897 49.602ZM74.1163 47.779C74.2516 47.5121 74.4039 47.2516 74.5689 47.0049C74.623 46.924 74.6043 46.8126 74.5272 46.7558C74.4504 46.6995 74.3438 46.7186 74.2897 46.7995C74.1167 47.0581 73.957 47.3311 73.8153 47.611C73.7711 47.6982 73.8026 47.8065 73.8858 47.8529C73.893 47.857 73.9006 47.8604 73.9082 47.8633C73.9867 47.893 74.076 47.8584 74.1163 47.779ZM75.1095 46.2953C75.3027 46.0716 75.5113 45.8585 75.7297 45.6614C75.8011 45.5971 75.8092 45.4841 75.7478 45.4093C75.6861 45.3342 75.5788 45.3258 75.5073 45.3903C75.2783 45.5968 75.0594 45.8206 74.8568 46.055C74.7936 46.1282 74.7988 46.2414 74.8686 46.3077C74.8856 46.3238 74.9049 46.3357 74.9253 46.3434C74.9883 46.3672 75.0617 46.3505 75.1095 46.2953ZM76.4199 45.1128C76.6599 44.9455 76.912 44.7922 77.169 44.6576C77.2533 44.6134 77.2874 44.506 77.2453 44.4177C77.2032 44.3296 77.1009 44.2935 77.0166 44.3376C76.747 44.4789 76.4828 44.6395 76.231 44.815C76.1526 44.8697 76.1313 44.9808 76.1834 45.0631C76.2046 45.0961 76.2343 45.1196 76.2675 45.1321C76.3166 45.1507 76.3731 45.1455 76.4199 45.1128ZM77.9658 44.3018C78.2373 44.2007 78.5171 44.1164 78.7979 44.0509C78.8897 44.0296 78.9477 43.934 78.9273 43.8375C78.9069 43.7411 78.8158 43.6801 78.7238 43.7018C78.4296 43.7703 78.1362 43.8588 77.8517 43.9646C77.763 43.9977 77.7166 44.0999 77.7481 44.1929C77.7659 44.2455 77.8047 44.2839 77.8511 44.3014C77.8868 44.315 77.9272 44.3161 77.9658 44.3018ZM79.6526 43.9089C79.939 43.8801 80.2298 43.8699 80.517 43.8786C80.6111 43.8814 80.6897 43.8037 80.6923 43.705C80.695 43.6063 80.6212 43.5242 80.5268 43.521C80.2256 43.5119 79.9205 43.5227 79.6201 43.5528C79.5263 43.5623 79.4576 43.6496 79.4666 43.7478C79.4731 43.819 79.5185 43.8764 79.5786 43.8992C79.6016 43.9078 79.6267 43.9115 79.6526 43.9089ZM81.3791 43.9606C81.6626 44.0063 81.9471 44.0713 82.2249 44.154C82.3155 44.1808 82.4097 44.1257 82.4354 44.0306C82.4611 43.9357 82.4082 43.8382 82.3179 43.8097C82.0267 43.7232 81.7283 43.655 81.431 43.6071C81.3379 43.5921 81.2508 43.6591 81.2365 43.7567C81.2239 43.8426 81.2719 43.9236 81.3471 43.952C81.3572 43.9559 81.3679 43.9588 81.3791 43.9606ZM84.0505 44.7927C84.0975 44.707 84.0693 44.5978 83.9877 44.5485C83.7616 44.4123 83.5246 44.2867 83.2839 44.1754C83.2474 44.1583 83.2108 44.1419 83.1741 44.1256C83.0888 44.0848 82.9872 44.13 82.9508 44.2213C82.9143 44.3124 82.9552 44.4171 83.042 44.4555C83.0765 44.4706 83.1108 44.4862 83.1457 44.5025C83.3761 44.6089 83.6022 44.7287 83.8178 44.8586C83.8266 44.864 83.8358 44.8684 83.8451 44.8719C83.9214 44.9007 84.0087 44.8689 84.0505 44.7927Z" fill="#76A6F5"/>
</g>
<g opacity="0.3">
<path d="M77.9156 58.5469C78.1965 58.6488 78.4858 58.7334 78.7753 58.7988C78.8673 58.8195 78.9581 58.7582 78.9779 58.6615C78.9977 58.5649 78.9383 58.4706 78.847 58.4491C78.5708 58.3868 78.295 58.306 78.027 58.2088C77.938 58.1765 77.8409 58.2261 77.8102 58.3194C77.7797 58.412 77.8259 58.513 77.9134 58.5461C77.9141 58.5464 77.9149 58.5467 77.9156 58.5469ZM77.3185 58.1055C77.3596 58.0168 77.3244 57.9097 77.2398 57.8666C76.9851 57.7365 76.7353 57.589 76.4974 57.428C76.4186 57.375 76.3127 57.3983 76.2616 57.4815C76.2106 57.5645 76.2334 57.6751 76.3125 57.7287C76.5618 57.8974 76.8236 58.052 77.0905 58.1881C77.0962 58.191 77.1018 58.1935 77.1076 58.1957C77.1884 58.2262 77.2799 58.1886 77.3185 58.1055ZM79.6585 58.9393C79.9547 58.967 80.255 58.9759 80.551 58.9658C80.6452 58.9626 80.7191 58.8799 80.7159 58.7813C80.713 58.6825 80.6344 58.6054 80.5401 58.6082C80.2576 58.6179 79.9712 58.6094 79.6887 58.5832C79.5948 58.5744 79.5121 58.6471 79.5037 58.7453C79.4967 58.8281 79.5446 58.9026 79.6157 58.9295C79.6292 58.9346 79.6435 58.9379 79.6585 58.9393ZM75.833 57.1506C75.8933 57.0749 75.8836 56.962 75.8114 56.8987C75.5939 56.7083 75.3856 56.502 75.192 56.2854C75.1276 56.2136 75.0196 56.2099 74.951 56.2771C74.8823 56.3447 74.8788 56.4579 74.9432 56.53C75.1461 56.7572 75.3647 56.9737 75.5928 57.1733C75.6086 57.1871 75.626 57.1974 75.6443 57.2043C75.7098 57.229 75.7858 57.2098 75.833 57.1506ZM81.4395 58.8784C81.7327 58.8306 82.0261 58.7635 82.3118 58.6789C82.4024 58.6521 82.4552 58.5532 82.4296 58.4581C82.404 58.3631 82.3099 58.3076 82.2191 58.3346C81.9467 58.4154 81.6668 58.4793 81.3872 58.5248C81.2942 58.5399 81.2304 58.6313 81.2449 58.729C81.2548 58.7959 81.299 58.8484 81.3557 58.8699C81.3816 58.8797 81.4103 58.8831 81.4395 58.8784ZM83.1548 58.371C83.4291 58.2507 83.6988 58.1119 83.9565 57.9585C84.0383 57.9097 84.0671 57.8007 84.0206 57.7148C83.9742 57.6289 83.8701 57.5987 83.7881 57.6475C83.5423 57.7938 83.285 57.9261 83.0233 58.0409C82.9364 58.079 82.8954 58.1838 82.9317 58.2749C82.9509 58.323 82.9879 58.3578 83.0313 58.3742C83.07 58.3888 83.1139 58.3889 83.1548 58.371ZM84.7051 57.4474C84.9441 57.2616 85.1743 57.0589 85.3893 56.8449C85.4576 56.7768 85.4604 56.6637 85.3955 56.592C85.3307 56.5204 85.2227 56.5176 85.1545 56.5854C84.9496 56.7895 84.7301 56.9829 84.5021 57.1598C84.4264 57.2186 84.4105 57.3306 84.4666 57.41C84.4873 57.4395 84.5151 57.4602 84.5456 57.4717C84.5975 57.4913 84.6575 57.4843 84.7051 57.4474Z" fill="#76A6F5"/>
<path d="M74.4478 55.8647C74.4168 55.853 74.3888 55.8318 74.3679 55.8019C74.2819 55.6782 74.199 55.5513 74.1215 55.4247C74.0706 55.3416 74.0935 55.2309 74.1728 55.1775C74.252 55.1244 74.3574 55.1483 74.4085 55.2313C74.4824 55.352 74.5615 55.4731 74.6435 55.5911C74.699 55.6709 74.6823 55.7829 74.6062 55.841C74.5586 55.8773 74.4992 55.8841 74.4478 55.8647Z" fill="#76A6F5"/>
</g>
<path d="M74.909 52.4944C74.8968 52.4579 74.9079 52.4174 74.9368 52.3933L75.76 51.7083C75.7069 51.1966 75.7311 50.6723 75.8397 50.155L75.0922 49.3812C75.066 49.3541 75.0591 49.3125 75.075 49.2776L75.6196 48.0854C75.6355 48.0505 75.6708 48.0301 75.7073 48.0345L76.7507 48.1606C77.067 47.7476 77.4413 47.3993 77.8549 47.1221L77.848 46.0199C77.8478 45.9813 77.8709 45.9467 77.9057 45.9339L79.0946 45.4947C79.1293 45.4819 79.1681 45.4936 79.191 45.5239L79.8441 46.3873C80.332 46.3315 80.8318 46.357 81.3251 46.4709L82.0628 45.6869C82.0887 45.6594 82.1283 45.6521 82.1615 45.6688L83.2983 46.24C83.3316 46.2568 83.351 46.2937 83.3468 46.3321L83.2266 47.4263C83.6203 47.7581 83.9524 48.1507 84.2167 48.5845L85.2676 48.5772C85.3044 48.577 85.3373 48.6013 85.3496 48.6377L85.7683 49.8847C85.7805 49.9212 85.7694 49.9617 85.7405 49.9857L84.9172 50.6708C84.9704 51.1825 84.9462 51.7067 84.8376 52.2241L85.5851 52.9978C85.6113 53.025 85.6182 53.0665 85.6023 53.1014L85.0577 54.2937C85.0418 54.3285 85.0065 54.349 84.9699 54.3445L83.9266 54.2184C83.6103 54.6314 83.2359 54.9798 82.8224 55.2569L82.8293 56.3591C82.8296 56.3977 82.8064 56.4323 82.7717 56.4451L81.5827 56.8843C81.548 56.8971 81.5093 56.8854 81.4864 56.8552L80.8332 55.9917C80.3454 56.0475 79.8455 56.022 79.3523 55.9081L78.6145 56.6921C78.5887 56.7196 78.549 56.7269 78.5158 56.7102L77.379 56.1389C77.3458 56.1222 77.3263 56.0853 77.3305 56.0469L77.4507 54.9527C77.057 54.6209 76.7249 54.2282 76.4606 53.7945L75.4097 53.8018C75.3729 53.802 75.34 53.7777 75.3277 53.7413L74.909 52.4944Z" fill="#76A6F5"/>
<path d="M80.083 52.5154C80.4208 52.5871 80.7649 52.5165 81.0519 52.3167C81.339 52.1169 81.5347 51.8118 81.6029 51.4576C81.7439 50.7266 81.292 50.0128 80.5943 49.8635C79.8971 49.7159 79.2154 50.1904 79.0746 50.9213C79.0062 51.2755 79.0735 51.6364 79.264 51.9375C79.4189 52.1822 79.6401 52.3636 79.8989 52.4614C79.9584 52.4839 80.0199 52.502 80.083 52.5154ZM81.2687 51.3866C81.2184 51.6472 81.0745 51.8716 80.8633 52.0187C80.6522 52.1656 80.3991 52.2175 80.1507 52.1649C79.9023 52.1118 79.6883 51.9612 79.5481 51.7397C79.408 51.5183 79.3586 51.2528 79.4088 50.9923C79.5124 50.4545 80.0139 50.1055 80.5267 50.2141C80.573 50.2239 80.6177 50.2371 80.6609 50.2534C81.096 50.4179 81.363 50.8975 81.2687 51.3866Z" fill="#BDD0FB"/>
<path d="M79.2761 54.3487C79.1745 54.3103 79.0741 54.2662 78.9748 54.2164C78.7775 54.1174 78.5897 53.9972 78.4161 53.8588C78.4083 53.8526 78.4006 53.8463 78.3928 53.84C78.3329 53.7914 78.3123 53.7092 78.3367 53.6382C78.3426 53.6209 78.3512 53.6043 78.3624 53.5891C78.4201 53.511 78.5271 53.4972 78.6016 53.5573C78.7625 53.6881 78.9376 53.8012 79.122 53.8937L79.1221 53.8938C79.1322 53.8989 79.1424 53.9038 79.1525 53.9088C79.5907 54.1236 80.0633 54.2157 80.5336 54.1855C80.7889 54.1691 81.0436 54.1165 81.2918 54.0274C81.2938 54.0267 81.2959 54.026 81.2979 54.0252C81.3041 54.0229 81.3102 54.0208 81.3163 54.0184C82.0397 53.7512 82.6205 53.2046 82.9518 52.4792C82.9948 52.3853 83.0328 52.29 83.066 52.1934C83.2892 51.5433 83.2924 50.8384 83.0707 50.1778C82.8159 49.4191 82.2946 48.81 81.6031 48.4625C80.9118 48.1155 80.1322 48.0708 79.4088 48.3379C78.6855 48.6051 78.1046 49.1517 77.7733 49.8771C77.7311 49.9694 77.6936 50.0637 77.6607 50.1593C77.5183 50.574 77.4641 51.0167 77.5033 51.4559C77.5057 51.4829 77.5023 51.5091 77.4939 51.5331C77.4723 51.5962 77.4173 51.6439 77.3494 51.6506C77.2556 51.6595 77.1725 51.5876 77.1637 51.489C77.1199 50.9976 77.1806 50.5022 77.3398 50.0383C77.3766 49.9312 77.4185 49.8258 77.4657 49.7226C77.8364 48.9109 78.4863 48.2994 79.2956 48.0004C80.1049 47.7016 80.9765 47.7503 81.7504 48.1399C82.5242 48.5286 83.1073 49.2101 83.3923 50.0591C83.6405 50.798 83.6368 51.5867 83.3871 52.3139C83.35 52.4219 83.3074 52.5287 83.2595 52.6337C82.5417 54.2049 80.8065 54.927 79.2761 54.3487Z" fill="#BDD0FB"/>
<path d="M137 52.5C147.217 42.2827 147.217 25.7173 137 15.5C126.783 5.28273 110.217 5.28273 100 15.5C89.7827 25.7173 89.7827 42.2827 100 52.5C110.217 62.7173 126.783 62.7173 137 52.5Z" fill="#D3E4FF"/>
<path d="M102.377 51H101.706C101.628 51 101.565 50.9278 101.565 50.8387V10.1613C101.565 10.0722 101.628 10 101.706 10H102.377C102.455 10 102.518 10.0722 102.518 10.1613V50.8387C102.518 50.9278 102.455 51 102.377 51Z" fill="white"/>
<path d="M134.794 51H134.123C134.045 51 133.982 50.9278 133.982 50.8387V10.1613C133.982 10.0722 134.045 10 134.123 10H134.794C134.872 10 134.935 10.0722 134.935 10.1613V50.8387C134.935 50.9278 134.872 51 134.794 51Z" fill="white"/>
<path d="M162.794 34.9424H138.541C138.129 34.9424 137.796 34.5788 137.796 34.1302V19.8122C137.796 19.3637 138.129 19 138.541 19H162.794C163.205 19 163.539 19.3637 163.539 19.8122V34.1302C163.539 34.5788 163.205 34.9424 162.794 34.9424Z" fill="url(#paint0_linear_643_49140)"/>
<path d="M160.128 34.2655H140.862C139.475 34.2655 138.351 33.0396 138.351 31.5275V22.4151C138.351 20.9029 139.475 19.6771 140.862 19.6771H160.128C161.514 19.6771 162.639 20.903 162.639 22.4151V31.5275C162.639 33.0397 161.514 34.2655 160.128 34.2655Z" fill="#ABCBFF"/>
<path d="M161.256 24.8244H149.871C149.761 24.8244 149.673 24.7279 149.673 24.6088V23.5859C149.673 23.4668 149.761 23.3702 149.871 23.3702H161.256C161.365 23.3702 161.454 23.4668 161.454 23.5859V24.6088C161.454 24.7279 161.365 24.8244 161.256 24.8244Z" fill="url(#paint1_linear_643_49140)"/>
<path d="M161.256 27.9404H149.871C149.761 27.9404 149.673 27.8439 149.673 27.7247V26.7019C149.673 26.5828 149.761 26.4862 149.871 26.4862H161.256C161.365 26.4862 161.454 26.5828 161.454 26.7019V27.7247C161.454 27.8438 161.365 27.9404 161.256 27.9404Z" fill="url(#paint2_linear_643_49140)"/>
<path d="M161.256 30.9303H149.871C149.761 30.9303 149.673 30.8337 149.673 30.7146V29.6918C149.673 29.5726 149.761 29.4761 149.871 29.4761H161.256C161.365 29.4761 161.454 29.5726 161.454 29.6918V30.7146C161.454 30.8337 161.365 30.9303 161.256 30.9303Z" fill="url(#paint3_linear_643_49140)"/>
<path d="M144.63 25.7942H140.192C140.047 25.7942 139.929 25.6659 139.929 25.5075V21.5567C139.929 21.3984 140.047 21.27 140.192 21.27H144.63C144.776 21.27 144.893 21.3984 144.893 21.5567V25.5075C144.893 25.6659 144.776 25.7942 144.63 25.7942Z" fill="url(#paint4_linear_643_49140)"/>
<path d="M140.944 23.3722C141.123 23.2571 141.355 23.3258 141.457 23.5244L141.934 24.4585C141.982 24.552 142.107 24.5461 142.148 24.4484L143.333 21.571C143.392 21.4275 143.588 21.476 143.586 21.6333C143.574 22.5135 143.36 24.1864 142.07 25.5868C142.07 25.5868 141.359 25.2856 140.787 23.9151C140.704 23.7172 140.772 23.4822 140.944 23.3722Z" fill="url(#paint5_linear_643_49140)"/>
<path d="M130.376 34.9424H106.123C105.712 34.9424 105.378 34.5788 105.378 34.1302V19.8122C105.378 19.3637 105.712 19 106.123 19H130.376C130.788 19 131.121 19.3637 131.121 19.8122V34.1302C131.121 34.5788 130.788 34.9424 130.376 34.9424Z" fill="url(#paint6_linear_643_49140)"/>
<path d="M127.711 34.2653H108.445C107.058 34.2653 105.934 33.0394 105.934 31.5273V22.4149C105.934 20.9027 107.058 19.6769 108.445 19.6769H127.711C129.097 19.6769 130.222 20.9027 130.222 22.4149V31.5273C130.222 33.0394 129.097 34.2653 127.711 34.2653Z" fill="#ABCBFF"/>
<path d="M128.838 24.8243H117.453C117.343 24.8243 117.255 24.7278 117.255 24.6086V23.5858C117.255 23.4667 117.343 23.3701 117.453 23.3701H128.838C128.947 23.3701 129.036 23.4667 129.036 23.5858V24.6086C129.036 24.7278 128.947 24.8243 128.838 24.8243Z" fill="url(#paint7_linear_643_49140)"/>
<path d="M128.838 27.9404H117.453C117.343 27.9404 117.255 27.8439 117.255 27.7247V26.7019C117.255 26.5828 117.343 26.4862 117.453 26.4862H128.838C128.947 26.4862 129.036 26.5828 129.036 26.7019V27.7247C129.036 27.8439 128.947 27.9404 128.838 27.9404Z" fill="url(#paint8_linear_643_49140)"/>
<path d="M128.838 30.9297H117.453C117.343 30.9297 117.255 30.8331 117.255 30.714V29.6911C117.255 29.572 117.343 29.4755 117.453 29.4755H128.838C128.947 29.4755 129.036 29.572 129.036 29.6911V30.714C129.036 30.8331 128.947 30.9297 128.838 30.9297Z" fill="url(#paint9_linear_643_49140)"/>
<path d="M112.213 25.7938H107.775C107.629 25.7938 107.512 25.6654 107.512 25.5071V21.5562C107.512 21.3979 107.629 21.2695 107.775 21.2695H112.213C112.358 21.2695 112.476 21.3979 112.476 21.5562V25.5071C112.476 25.6654 112.358 25.7938 112.213 25.7938Z" fill="url(#paint10_linear_643_49140)"/>
<path d="M130.376 52.9424H106.123C105.712 52.9424 105.378 52.5788 105.378 52.1302V37.8122C105.378 37.3637 105.712 37 106.123 37H130.376C130.788 37 131.121 37.3637 131.121 37.8122V52.1302C131.121 52.5788 130.788 52.9424 130.376 52.9424Z" fill="url(#paint11_linear_643_49140)"/>
<path d="M127.71 52.2656H108.445C107.058 52.2656 105.934 51.0397 105.934 49.5275V40.4151C105.934 38.9029 107.058 37.6771 108.445 37.6771H127.71C129.097 37.6771 130.221 38.903 130.221 40.4151V49.5275C130.221 51.0397 129.097 52.2656 127.71 52.2656Z" fill="#ABCBFF"/>
<path d="M128.838 42.8243H117.453C117.343 42.8243 117.255 42.7278 117.255 42.6086V41.5858C117.255 41.4667 117.343 41.3701 117.453 41.3701H128.838C128.947 41.3701 129.036 41.4667 129.036 41.5858V42.6086C129.036 42.7278 128.947 42.8243 128.838 42.8243Z" fill="url(#paint12_linear_643_49140)"/>
<path d="M128.838 45.9404H117.453C117.343 45.9404 117.255 45.8439 117.255 45.7247V44.7019C117.255 44.5828 117.343 44.4862 117.453 44.4862H128.838C128.947 44.4862 129.036 44.5828 129.036 44.7019V45.7247C129.036 45.8439 128.947 45.9404 128.838 45.9404Z" fill="url(#paint13_linear_643_49140)"/>
<path d="M128.838 48.9298H117.453C117.343 48.9298 117.255 48.8332 117.255 48.7141V47.6913C117.255 47.5722 117.343 47.4756 117.453 47.4756H128.838C128.947 47.4756 129.036 47.5722 129.036 47.6913V48.7141C129.036 48.8332 128.947 48.9298 128.838 48.9298Z" fill="url(#paint14_linear_643_49140)"/>
<path d="M112.213 43.7937H107.775C107.629 43.7937 107.512 43.6654 107.512 43.5071V39.5562C107.512 39.3979 107.629 39.2695 107.775 39.2695H112.213C112.358 39.2695 112.476 39.3979 112.476 39.5562V43.5071C112.476 43.6654 112.358 43.7937 112.213 43.7937Z" fill="white"/>
<path d="M98.0234 34.9424H73.7082C73.2958 34.9424 72.9614 34.5788 72.9614 34.1302V19.8122C72.9614 19.3637 73.2958 19 73.7082 19H98.0234C98.4358 19 98.7702 19.3637 98.7702 19.8122V34.1302C98.7702 34.5788 98.4358 34.9424 98.0234 34.9424Z" fill="url(#paint15_linear_643_49140)"/>
<path d="M95.351 34.2656H76.0363C74.6459 34.2656 73.5188 33.0397 73.5188 31.5275V22.4151C73.5188 20.9029 74.6459 19.6771 76.0363 19.6771H95.351C96.7414 19.6771 97.8685 20.903 97.8685 22.4151V31.5275C97.8685 33.0397 96.7414 34.2656 95.351 34.2656Z" fill="#ABCBFF"/>
<path d="M96.4813 24.8244H85.0667C84.9572 24.8244 84.8684 24.7279 84.8684 24.6088V23.5859C84.8684 23.4668 84.9572 23.3702 85.0667 23.3702H96.4813C96.5908 23.3702 96.6796 23.4668 96.6796 23.5859V24.6088C96.6796 24.7279 96.5908 24.8244 96.4813 24.8244Z" fill="url(#paint16_linear_643_49140)"/>
<path d="M96.4813 27.9409H85.0667C84.9572 27.9409 84.8684 27.8443 84.8684 27.7252V26.7024C84.8684 26.5833 84.9572 26.4867 85.0667 26.4867H96.4813C96.5908 26.4867 96.6796 26.5833 96.6796 26.7024V27.7252C96.6796 27.8443 96.5908 27.9409 96.4813 27.9409Z" fill="url(#paint17_linear_643_49140)"/>
<path d="M96.4813 30.9298H85.0667C84.9572 30.9298 84.8684 30.8332 84.8684 30.7141V29.6913C84.8684 29.5721 84.9572 29.4756 85.0667 29.4756H96.4813C96.5908 29.4756 96.6796 29.5721 96.6796 29.6913V30.7141C96.6796 30.8332 96.5908 30.9298 96.4813 30.9298Z" fill="url(#paint18_linear_643_49140)"/>
<path d="M79.8135 25.7942H75.3637C75.2181 25.7942 75.1001 25.6659 75.1001 25.5076V21.5567C75.1001 21.3984 75.2181 21.27 75.3637 21.27H79.8135C79.9591 21.27 80.0771 21.3984 80.0771 21.5567V25.5076C80.0771 25.6658 79.9591 25.7942 79.8135 25.7942Z" fill="url(#paint19_linear_643_49140)"/>
<path d="M162.794 52.9424H138.541C138.129 52.9424 137.796 52.5787 137.796 52.1302V37.8122C137.796 37.3637 138.129 37 138.541 37H162.794C163.205 37 163.539 37.3637 163.539 37.8122V52.1302C163.539 52.5787 163.205 52.9424 162.794 52.9424Z" fill="url(#paint20_linear_643_49140)"/>
<path d="M160.128 52.2655H140.862C139.475 52.2655 138.351 51.0397 138.351 49.5275V40.4151C138.351 38.9029 139.475 37.6771 140.862 37.6771H160.128C161.514 37.6771 162.639 38.903 162.639 40.4151V49.5275C162.639 51.0397 161.514 52.2655 160.128 52.2655Z" fill="#ABCBFF"/>
<path d="M161.256 42.8243H149.871C149.761 42.8243 149.673 42.7278 149.673 42.6086V41.5858C149.673 41.4667 149.761 41.3701 149.871 41.3701H161.256C161.365 41.3701 161.454 41.4667 161.454 41.5858V42.6086C161.454 42.7278 161.365 42.8243 161.256 42.8243Z" fill="url(#paint21_linear_643_49140)"/>
<path d="M161.256 45.9409H149.871C149.761 45.9409 149.673 45.8443 149.673 45.7252V44.7024C149.673 44.5833 149.761 44.4867 149.871 44.4867H161.256C161.365 44.4867 161.454 44.5833 161.454 44.7024V45.7252C161.454 45.8443 161.365 45.9409 161.256 45.9409Z" fill="url(#paint22_linear_643_49140)"/>
<path d="M161.256 48.9303H149.871C149.761 48.9303 149.673 48.8337 149.673 48.7146V47.6918C149.673 47.5726 149.761 47.4761 149.871 47.4761H161.256C161.365 47.4761 161.454 47.5726 161.454 47.6918V48.7146C161.454 48.8337 161.365 48.9303 161.256 48.9303Z" fill="url(#paint23_linear_643_49140)"/>
<path d="M144.63 43.7942H140.192C140.047 43.7942 139.929 43.6659 139.929 43.5076V39.5567C139.929 39.3984 140.047 39.27 140.192 39.27H144.63C144.776 39.27 144.893 39.3984 144.893 39.5567V43.5076C144.893 43.6658 144.776 43.7942 144.63 43.7942Z" fill="url(#paint24_linear_643_49140)"/>
<path d="M98.2269 14H73.4389C73.1752 14 72.9614 13.7813 72.9614 13.5115V8.48852C72.9614 8.21873 73.1752 8 73.4389 8H98.2269C98.4906 8 98.7043 8.21873 98.7043 8.48852V13.5115C98.7043 13.7813 98.4906 14 98.2269 14Z" fill="white"/>
<path d="M130.644 14H105.856C105.592 14 105.378 13.7813 105.378 13.5115V8.48852C105.378 8.21872 105.592 8 105.856 8H130.644C130.908 8 131.121 8.21872 131.121 8.48852V13.5115C131.121 13.7813 130.908 14 130.644 14Z" fill="white"/>
<path d="M163.061 14H138.273C138.009 14 137.796 13.7813 137.796 13.5115V8.48852C137.796 8.21872 138.009 8 138.273 8H163.061C163.325 8 163.539 8.21872 163.539 8.48852V13.5115C163.539 13.7813 163.325 14 163.061 14Z" fill="white"/>
<path d="M127.093 47.1378H97.6616C97.2339 47.1378 96.8872 46.7742 96.8872 46.3256V29.4948C96.8872 29.0463 97.2339 28.6826 97.6616 28.6826H127.093C127.521 28.6826 127.868 29.0463 127.868 29.4948V46.3256C127.868 46.7742 127.521 47.1378 127.093 47.1378Z" fill="url(#paint25_linear_643_49140)"/>
<path d="M126.011 46.3541H98.3303C97.9026 46.3541 97.5559 45.9904 97.5559 45.5418V30.2784C97.5559 29.8299 97.9026 29.4662 98.3303 29.4662H126.011C126.438 29.4662 126.785 29.8299 126.785 30.2784V45.5418C126.785 45.9904 126.438 46.3541 126.011 46.3541Z" fill="url(#paint26_linear_643_49140)"/>
<path opacity="0.8" d="M125.153 35.4247H111.386C111.272 35.4247 111.18 35.3281 111.18 35.209V33.957C111.18 33.8378 111.272 33.7413 111.386 33.7413H125.153C125.266 33.7413 125.358 33.8378 125.358 33.957V35.209C125.358 35.3281 125.266 35.4247 125.153 35.4247Z" fill="white"/>
<path opacity="0.8" d="M125.153 39.0321H111.386C111.272 39.0321 111.18 38.9356 111.18 38.8164V37.5644C111.18 37.4453 111.272 37.3487 111.386 37.3487H125.153C125.266 37.3487 125.358 37.4453 125.358 37.5644V38.8164C125.358 38.9356 125.266 39.0321 125.153 39.0321Z" fill="white"/>
<path opacity="0.8" d="M125.153 42.4928H111.386C111.272 42.4928 111.18 42.3962 111.18 42.2771V41.025C111.18 40.9059 111.272 40.8094 111.386 40.8094H125.153C125.266 40.8094 125.358 40.9059 125.358 41.025V42.2771C125.358 42.3962 125.266 42.4928 125.153 42.4928Z" fill="white"/>
<path opacity="0.8" d="M105.155 36.5471H99.7274C99.5765 36.5471 99.4541 36.4188 99.4541 36.2605V31.5965C99.4541 31.4382 99.5765 31.3098 99.7274 31.3098H105.155C105.306 31.3098 105.428 31.4382 105.428 31.5965V36.2605C105.428 36.4188 105.306 36.5471 105.155 36.5471Z" fill="white"/>
<defs>
<linearGradient id="paint0_linear_643_49140" x1="154.759" y1="-4.88693" x2="146.384" y2="49.9551" gradientUnits="userSpaceOnUse">
<stop stop-color="#76A6F5"/>
<stop offset="1" stop-color="#76A6F5"/>
</linearGradient>
<linearGradient id="paint1_linear_643_49140" x1="149.673" y1="24.0973" x2="161.454" y2="24.0973" gradientUnits="userSpaceOnUse">
<stop stop-color="#DAE3FE"/>
<stop offset="1" stop-color="#E9EFFD"/>
</linearGradient>
<linearGradient id="paint2_linear_643_49140" x1="149.673" y1="27.2133" x2="161.454" y2="27.2133" gradientUnits="userSpaceOnUse">
<stop stop-color="#DAE3FE"/>
<stop offset="1" stop-color="#E9EFFD"/>
</linearGradient>
<linearGradient id="paint3_linear_643_49140" x1="149.673" y1="30.2032" x2="161.454" y2="30.2032" gradientUnits="userSpaceOnUse">
<stop stop-color="#DAE3FE"/>
<stop offset="1" stop-color="#E9EFFD"/>
</linearGradient>
<linearGradient id="paint4_linear_643_49140" x1="139.929" y1="23.5321" x2="144.893" y2="23.5321" gradientUnits="userSpaceOnUse">
<stop stop-color="#DAE3FE"/>
<stop offset="1" stop-color="#E9EFFD"/>
</linearGradient>
<linearGradient id="paint5_linear_643_49140" x1="148.058" y1="12.4176" x2="134.026" y2="34.382" gradientUnits="userSpaceOnUse">
<stop stop-color="#BD99FF"/>
<stop offset="1" stop-color="#BD99FF"/>
</linearGradient>
<linearGradient id="paint6_linear_643_49140" x1="122.941" y1="-9.54957" x2="114.566" y2="45.2925" gradientUnits="userSpaceOnUse">
<stop stop-color="#76A6F5"/>
<stop offset="1" stop-color="#76A6F5"/>
</linearGradient>
<linearGradient id="paint7_linear_643_49140" x1="117.255" y1="24.0972" x2="129.036" y2="24.0972" gradientUnits="userSpaceOnUse">
<stop stop-color="#DAE3FE"/>
<stop offset="1" stop-color="#E9EFFD"/>
</linearGradient>
<linearGradient id="paint8_linear_643_49140" x1="117.255" y1="27.2133" x2="129.036" y2="27.2133" gradientUnits="userSpaceOnUse">
<stop stop-color="#DAE3FE"/>
<stop offset="1" stop-color="#E9EFFD"/>
</linearGradient>
<linearGradient id="paint9_linear_643_49140" x1="117.255" y1="30.2026" x2="129.036" y2="30.2026" gradientUnits="userSpaceOnUse">
<stop stop-color="#DAE3FE"/>
<stop offset="1" stop-color="#E9EFFD"/>
</linearGradient>
<linearGradient id="paint10_linear_643_49140" x1="107.512" y1="23.5316" x2="112.476" y2="23.5316" gradientUnits="userSpaceOnUse">
<stop stop-color="#DAE3FE"/>
<stop offset="1" stop-color="#E9EFFD"/>
</linearGradient>
<linearGradient id="paint11_linear_643_49140" x1="120.967" y1="32.1109" x2="107.453" y2="85.9043" gradientUnits="userSpaceOnUse">
<stop stop-color="#76A6F5"/>
<stop offset="1" stop-color="#76A6F5"/>
</linearGradient>
<linearGradient id="paint12_linear_643_49140" x1="117.255" y1="42.0972" x2="129.036" y2="42.0972" gradientUnits="userSpaceOnUse">
<stop stop-color="#DAE3FE"/>
<stop offset="1" stop-color="#E9EFFD"/>
</linearGradient>
<linearGradient id="paint13_linear_643_49140" x1="117.255" y1="45.2133" x2="129.036" y2="45.2133" gradientUnits="userSpaceOnUse">
<stop stop-color="#DAE3FE"/>
<stop offset="1" stop-color="#E9EFFD"/>
</linearGradient>
<linearGradient id="paint14_linear_643_49140" x1="117.255" y1="48.2027" x2="129.036" y2="48.2027" gradientUnits="userSpaceOnUse">
<stop stop-color="#DAE3FE"/>
<stop offset="1" stop-color="#E9EFFD"/>
</linearGradient>
<linearGradient id="paint15_linear_643_49140" x1="91.0943" y1="-13.6314" x2="82.74" y2="41.217" gradientUnits="userSpaceOnUse">
<stop stop-color="#76A6F5"/>
<stop offset="1" stop-color="#76A6F5"/>
</linearGradient>
<linearGradient id="paint16_linear_643_49140" x1="84.8684" y1="24.0973" x2="96.6796" y2="24.0973" gradientUnits="userSpaceOnUse">
<stop stop-color="#DAE3FE"/>
<stop offset="1" stop-color="#E9EFFD"/>
</linearGradient>
<linearGradient id="paint17_linear_643_49140" x1="84.8684" y1="27.2138" x2="96.6796" y2="27.2138" gradientUnits="userSpaceOnUse">
<stop stop-color="#DAE3FE"/>
<stop offset="1" stop-color="#E9EFFD"/>
</linearGradient>
<linearGradient id="paint18_linear_643_49140" x1="84.8684" y1="30.2027" x2="96.6796" y2="30.2027" gradientUnits="userSpaceOnUse">
<stop stop-color="#DAE3FE"/>
<stop offset="1" stop-color="#E9EFFD"/>
</linearGradient>
<linearGradient id="paint19_linear_643_49140" x1="75.1001" y1="23.5321" x2="80.0771" y2="23.5321" gradientUnits="userSpaceOnUse">
<stop stop-color="#DAE3FE"/>
<stop offset="1" stop-color="#E9EFFD"/>
</linearGradient>
<linearGradient id="paint20_linear_643_49140" x1="152.895" y1="37.0321" x2="144.633" y2="61.7939" gradientUnits="userSpaceOnUse">
<stop stop-color="#76A6F5"/>
<stop offset="1" stop-color="#76A6F5"/>
</linearGradient>
<linearGradient id="paint21_linear_643_49140" x1="149.673" y1="42.0972" x2="161.454" y2="42.0972" gradientUnits="userSpaceOnUse">
<stop stop-color="#DAE3FE"/>
<stop offset="1" stop-color="#E9EFFD"/>
</linearGradient>
<linearGradient id="paint22_linear_643_49140" x1="149.673" y1="45.2138" x2="161.454" y2="45.2138" gradientUnits="userSpaceOnUse">
<stop stop-color="#DAE3FE"/>
<stop offset="1" stop-color="#E9EFFD"/>
</linearGradient>
<linearGradient id="paint23_linear_643_49140" x1="149.673" y1="48.2032" x2="161.454" y2="48.2032" gradientUnits="userSpaceOnUse">
<stop stop-color="#DAE3FE"/>
<stop offset="1" stop-color="#E9EFFD"/>
</linearGradient>
<linearGradient id="paint24_linear_643_49140" x1="139.929" y1="41.5321" x2="144.893" y2="41.5321" gradientUnits="userSpaceOnUse">
<stop stop-color="#DAE3FE"/>
<stop offset="1" stop-color="#E9EFFD"/>
</linearGradient>
<linearGradient id="paint25_linear_643_49140" x1="121.277" y1="1.5086" x2="118.436" y2="12.0696" gradientUnits="userSpaceOnUse">
<stop stop-color="#BD99FF"/>
<stop offset="1" stop-color="#8847FE"/>
</linearGradient>
<linearGradient id="paint26_linear_643_49140" x1="111.987" y1="23.5149" x2="112.819" y2="82.9914" gradientUnits="userSpaceOnUse">
<stop stop-color="#BD99FF"/>
<stop offset="1" stop-color="#BD99FF"/>
</linearGradient>
</defs>
</svg>
