<svg width="115" height="69" viewBox="0 0 115 69" fill="none" xmlns="http://www.w3.org/2000/svg">
<path d="M36.7236 52.5386L34.8392 65.5424H56.701L53.8534 52.5386H36.7236Z" fill="url(#paint0_linear_682_87329)"/>
<path d="M0 10.9015V49.6061C0 52.7901 2.53724 55.3938 5.72015 55.4759C19.857 55.8404 69.3008 56.7243 82.758 56.5259C85.071 56.4918 86.9447 54.6409 87.0114 52.3287C87.2709 43.3371 87.6923 21.7153 86.1327 11.6771C85.8043 9.56316 84.02 7.98241 81.8817 7.91402C70.0369 7.5351 17.6233 6.33187 4.17223 6.63396C1.85239 6.68606 0 8.58104 0 10.9015Z" fill="url(#paint1_linear_682_87329)"/>
<path d="M2.43335 10.7133V47.4854C2.43335 49.3444 3.92561 50.8591 5.78437 50.8869L80.8267 51.814C82.6695 51.8416 84.1801 50.359 84.187 48.5159L84.3125 12.0724C84.3174 10.7546 83.2676 9.67483 81.9501 9.64278L5.12066 8.09062C3.64719 8.05477 2.43335 9.23944 2.43335 10.7133Z" fill="#D3E4FF"/>
<path d="M44.3997 55.0448C43.864 55.0448 43.4281 54.6089 43.4281 54.0732C43.4281 53.5375 43.8639 53.1016 44.3997 53.1016C44.9354 53.1016 45.3713 53.5375 45.3713 54.0732C45.3713 54.6089 44.9354 55.0448 44.3997 55.0448ZM44.3997 53.3318C43.9909 53.3318 43.6582 53.6644 43.6582 54.0732C43.6582 54.482 43.9909 54.8147 44.3997 54.8147C44.8085 54.8147 45.1411 54.482 45.1411 54.0732C45.1411 53.6644 44.8085 53.3318 44.3997 53.3318Z" fill="white"/>
<path d="M61.4089 69H29.4128C28.5435 69 27.8908 68.3812 28.0588 67.7166L28.4694 66.0928C28.5929 65.6045 29.1301 65.246 29.7681 65.2261L60.6135 64.2636C61.2801 64.2428 61.8704 64.5967 62.0156 65.1042L62.7558 67.6904C62.9481 68.3623 62.2922 69 61.4089 69Z" fill="url(#paint2_linear_682_87329)"/>
<path d="M46.6371 65.6769C46.5744 65.6769 46.5231 65.6264 46.5221 65.5635C46.5212 65.4999 46.572 65.4476 46.6355 65.4467L47.9573 65.4274C48.0191 65.4266 48.0731 65.4773 48.074 65.5408C48.0749 65.6044 48.0242 65.6567 47.9606 65.6576L46.6388 65.6769C46.6383 65.6769 46.6377 65.6769 46.6371 65.6769Z" fill="white"/>
<path d="M29.2456 68.1159C29.2396 68.1159 29.2335 68.1154 29.2273 68.1144C29.1645 68.1044 29.1218 68.0454 29.1318 67.9827L29.3204 66.8016C29.4226 66.1618 29.9669 65.6906 30.6147 65.6811L44.634 65.4761C44.6965 65.4729 44.7499 65.526 44.7508 65.5895C44.7517 65.6531 44.701 65.7053 44.6374 65.7062L30.6181 65.9112C30.0823 65.9191 29.6322 66.3088 29.5477 66.8378L29.3591 68.0189C29.3501 68.0755 29.3011 68.1159 29.2456 68.1159Z" fill="white"/>
<path d="M50.2055 13.5998H47.3021V28.6083H50.2055V13.5998Z" fill="white"/>
<path d="M55.0535 13.5998H52.1501V28.6083H55.0535V13.5998Z" fill="white"/>
<path d="M59.897 13.5998H56.9937V28.6083H59.897V13.5998Z" fill="white"/>
<path d="M64.7543 13.5998H61.851V28.6083H64.7543V13.5998Z" fill="white"/>
<path d="M69.6071 13.5998H66.7037V28.6083H69.6071V13.5998Z" fill="white"/>
<path d="M74.4552 13.5998H71.5519V28.6083H74.4552V13.5998Z" fill="white"/>
<path d="M79.3079 13.5998H76.4045V28.6083H79.3079V13.5998Z" fill="white"/>
<path d="M50.2063 20.7541H47.303V28.6086H50.2063V20.7541Z" fill="url(#paint3_linear_682_87329)"/>
<path d="M55.0544 23.4532H52.151V28.6083H55.0544V23.4532Z" fill="url(#paint4_linear_682_87329)"/>
<path d="M59.8979 16.7819H56.9945V28.6085H59.8979V16.7819Z" fill="url(#paint5_linear_682_87329)"/>
<path d="M64.7552 25.7674H61.8518V28.6086H64.7552V25.7674Z" fill="url(#paint6_linear_682_87329)"/>
<path d="M69.6079 18.3629H66.7046V28.6084H69.6079V18.3629Z" fill="url(#paint7_linear_682_87329)"/>
<path d="M74.4561 20.1368H71.5527V28.6083H74.4561V20.1368Z" fill="url(#paint8_linear_682_87329)"/>
<path d="M79.3088 22.0653H76.4054V28.6086H79.3088V22.0653Z" fill="url(#paint9_linear_682_87329)"/>
<path d="M13.8388 31.6082C10.8711 31.6082 8.46533 34.0139 8.46533 36.9816C8.46533 39.9493 10.8711 42.3551 13.8388 42.3551C16.8065 42.3551 19.2123 39.9493 19.2123 36.9816C19.2123 34.0139 16.8065 31.6082 13.8388 31.6082ZM13.8388 40.043C12.1481 40.043 10.7774 38.6724 10.7774 36.9816C10.7774 35.2909 12.1481 33.9203 13.8388 33.9203C15.5296 33.9203 16.9002 35.2909 16.9002 36.9816C16.9002 38.6724 15.5296 40.043 13.8388 40.043Z" fill="white"/>
<mask id="mask0_682_87329" style="mask-type:luminance" maskUnits="userSpaceOnUse" x="8" y="31" width="12" height="12">
<path d="M13.8371 31.6082C10.8694 31.6082 8.46362 34.0139 8.46362 36.9816C8.46362 39.9493 10.8694 42.3551 13.8371 42.3551C16.8048 42.3551 19.2106 39.9493 19.2106 36.9816C19.2106 34.0139 16.8048 31.6082 13.8371 31.6082ZM13.8371 40.043C12.1463 40.043 10.7757 38.6724 10.7757 36.9816C10.7757 35.2909 12.1463 33.9203 13.8371 33.9203C15.5278 33.9203 16.8985 35.2909 16.8985 36.9816C16.8985 38.6724 15.5278 40.043 13.8371 40.043Z" fill="white"/>
</mask>
<g mask="url(#mask0_682_87329)">
<path d="M22.2953 35.8002H6.3335V42.5552H22.2953V35.8002Z" fill="url(#paint10_linear_682_87329)"/>
</g>
<path d="M26.9353 31.6082C23.9676 31.6082 21.5619 34.0139 21.5619 36.9816C21.5619 39.9493 23.9676 42.3551 26.9353 42.3551C29.9031 42.3551 32.3088 39.9493 32.3088 36.9816C32.3088 34.0139 29.9031 31.6082 26.9353 31.6082ZM26.9353 40.043C25.2446 40.043 23.874 38.6724 23.874 36.9816C23.874 35.2909 25.2446 33.9203 26.9353 33.9203C28.6261 33.9203 29.9967 35.2909 29.9967 36.9816C29.9967 38.6724 28.6261 40.043 26.9353 40.043Z" fill="white"/>
<mask id="mask1_682_87329" style="mask-type:luminance" maskUnits="userSpaceOnUse" x="21" y="31" width="12" height="12">
<path d="M26.9329 31.6082C23.9652 31.6082 21.5594 34.0139 21.5594 36.9816C21.5594 39.9493 23.9652 42.3551 26.9329 42.3551C29.9006 42.3551 32.3064 39.9493 32.3064 36.9816C32.3064 34.0139 29.9006 31.6082 26.9329 31.6082ZM26.9329 40.043C25.2422 40.043 23.8715 38.6724 23.8715 36.9816C23.8715 35.2909 25.2421 33.9203 26.9329 33.9203C28.6237 33.9203 29.9943 35.2909 29.9943 36.9816C29.9943 38.6724 28.6237 40.043 26.9329 40.043Z" fill="white"/>
</mask>
<g mask="url(#mask1_682_87329)">
<path d="M35.3915 33.1892H19.4297V42.5551H35.3915V33.1892Z" fill="url(#paint11_linear_682_87329)"/>
</g>
<path d="M40.0319 31.6082C37.0642 31.6082 34.6584 34.0139 34.6584 36.9816C34.6584 39.9493 37.0642 42.3551 40.0319 42.3551C42.9996 42.3551 45.4054 39.9493 45.4054 36.9816C45.4054 34.0139 42.9996 31.6082 40.0319 31.6082ZM40.0319 40.043C38.3412 40.043 36.9705 38.6724 36.9705 36.9816C36.9705 35.2909 38.3412 33.9203 40.0319 33.9203C41.7227 33.9203 43.0933 35.2909 43.0933 36.9816C43.0933 38.6724 41.7227 40.043 40.0319 40.043Z" fill="white"/>
<mask id="mask2_682_87329" style="mask-type:luminance" maskUnits="userSpaceOnUse" x="34" y="31" width="12" height="12">
<path d="M40.0288 31.6082C37.061 31.6082 34.6553 34.0139 34.6553 36.9816C34.6553 39.9493 37.061 42.3551 40.0288 42.3551C42.9965 42.3551 45.4022 39.9493 45.4022 36.9816C45.4022 34.0139 42.9965 31.6082 40.0288 31.6082ZM40.0288 40.043C38.338 40.043 36.9673 38.6724 36.9673 36.9816C36.9673 35.2909 38.338 33.9203 40.0288 33.9203C41.7195 33.9203 43.0901 35.2909 43.0901 36.9816C43.0901 38.6724 41.7195 40.043 40.0288 40.043Z" fill="white"/>
</mask>
<g mask="url(#mask2_682_87329)">
<path d="M48.4923 39.1778H32.5305V42.5553H48.4923V39.1778Z" fill="url(#paint12_linear_682_87329)"/>
</g>
<path d="M79.1572 49.6959L48.3993 49.4649C47.7925 49.4603 47.303 48.9672 47.303 48.3604V32.5575C47.303 31.9474 47.7975 31.4529 48.4076 31.4529H79.1655C79.7756 31.4529 80.2701 31.9474 80.2701 32.5575V48.5914C80.2701 49.2047 79.7705 49.7006 79.1572 49.6959Z" fill="white"/>
<path opacity="0.44" d="M74.3782 38.5878L70.423 34.4062L64.7519 40.5744L60.7503 36.2566L56.9973 40.4991L54.1193 37.0026L48.4475 42.9076V47.1779C48.4475 47.7422 48.9028 48.2009 49.4671 48.2052L78.0741 48.4201C78.6445 48.4244 79.1092 47.9632 79.1092 47.3928V35.7759L74.3782 38.5878Z" fill="#D3E4FF"/>
<path d="M74.5152 38.4714H74.4001V48.42H74.5152V38.4714Z" fill="white"/>
<path d="M70.4859 34.4062H70.3708V48.3627H70.4859V34.4062Z" fill="white"/>
<path d="M64.8096 40.4991H64.6946V48.3201H64.8096V40.4991Z" fill="white"/>
<path d="M60.9154 36.4095H60.8003V48.32H60.9154V36.4095Z" fill="white"/>
<path d="M57.0629 40.3721H56.9479V48.3198H57.0629V40.3721Z" fill="white"/>
<path d="M54.2435 36.7061H54.1284V48.2438H54.2435V36.7061Z" fill="white"/>
<path d="M55.057 36.706C55.057 37.186 54.6679 37.5751 54.1879 37.5751C53.7079 37.5751 53.3188 37.186 53.3188 36.706C53.3188 36.226 53.7079 35.8369 54.1879 35.8369C54.6679 35.8369 55.057 36.226 55.057 36.706Z" fill="url(#paint13_linear_682_87329)"/>
<path d="M57.004 40.9448C57.3202 40.9448 57.5766 40.6885 57.5766 40.3723C57.5766 40.0561 57.3202 39.7998 57.004 39.7998C56.6878 39.7998 56.4315 40.0561 56.4315 40.3723C56.4315 40.6885 56.6878 40.9448 57.004 40.9448Z" fill="url(#paint14_linear_682_87329)"/>
<path d="M61.4336 36.4091C61.4336 36.7253 61.1773 36.9816 60.8611 36.9816C60.5449 36.9816 60.2886 36.7253 60.2886 36.4091C60.2886 36.0929 60.5449 35.8366 60.8611 35.8366C61.1773 35.8366 61.4336 36.0929 61.4336 36.4091Z" fill="url(#paint15_linear_682_87329)"/>
<path d="M64.7554 41.0713C65.0716 41.0713 65.3279 40.815 65.3279 40.4988C65.3279 40.1826 65.0716 39.9263 64.7554 39.9263C64.4392 39.9263 64.1829 40.1826 64.1829 40.4988C64.1829 40.815 64.4392 41.0713 64.7554 41.0713Z" fill="url(#paint16_linear_682_87329)"/>
<path d="M70.427 34.9786C70.7432 34.9786 70.9995 34.7223 70.9995 34.4061C70.9995 34.0899 70.7432 33.8336 70.427 33.8336C70.1108 33.8336 69.8545 34.0899 69.8545 34.4061C69.8545 34.7223 70.1108 34.9786 70.427 34.9786Z" fill="url(#paint17_linear_682_87329)"/>
<path d="M74.4562 39.0439C74.7724 39.0439 75.0287 38.7876 75.0287 38.4714C75.0287 38.1552 74.7724 37.8989 74.4562 37.8989C74.14 37.8989 73.8837 38.1552 73.8837 38.4714C73.8837 38.7876 74.14 39.0439 74.4562 39.0439Z" fill="url(#paint18_linear_682_87329)"/>
<path d="M18.4946 13.5998H9.00765C8.61077 13.5998 8.28906 13.8948 8.28906 14.2588C8.28906 14.6228 8.6108 14.9179 9.00765 14.9179H18.4946C18.8915 14.9179 19.2132 14.6228 19.2132 14.2588C19.2132 13.8948 18.8915 13.5998 18.4946 13.5998Z" fill="white"/>
<path d="M18.4946 16.5182H9.00765C8.61077 16.5182 8.28906 16.8132 8.28906 17.1772C8.28906 17.5412 8.6108 17.8363 9.00765 17.8363H18.4946C18.8915 17.8363 19.2132 17.5412 19.2132 17.1772C19.2132 16.8133 18.8915 16.5182 18.4946 16.5182Z" fill="white"/>
<path d="M18.4946 28.1911H9.00765C8.61077 28.1911 8.28906 28.4862 8.28906 28.8502C8.28906 29.2142 8.6108 29.5093 9.00765 29.5093H18.4946C18.8915 29.5093 19.2132 29.2142 19.2132 28.8502C19.2132 28.4862 18.8915 28.1911 18.4946 28.1911Z" fill="white"/>
<path d="M18.4946 25.2728H9.00765C8.61077 25.2728 8.28906 25.5678 8.28906 25.9318C8.28906 26.2958 8.6108 26.5909 9.00765 26.5909H18.4946C18.8915 26.5909 19.2132 26.2958 19.2132 25.9318C19.2132 25.5678 18.8915 25.2728 18.4946 25.2728Z" fill="white"/>
<path d="M18.4946 22.3546H9.00765C8.61077 22.3546 8.28906 22.6497 8.28906 23.0137C8.28906 23.3777 8.6108 23.6728 9.00765 23.6728H18.4946C18.8915 23.6728 19.2132 23.3777 19.2132 23.0137C19.2132 22.6497 18.8915 22.3546 18.4946 22.3546Z" fill="white"/>
<path d="M31.6825 13.5996H22.1955C21.7986 13.5996 21.4769 13.8947 21.4769 14.2587C21.4769 14.6226 21.7987 14.9177 22.1955 14.9177H31.6825C32.0794 14.9177 32.4011 14.6226 32.4011 14.2587C32.4011 13.8947 32.0794 13.5996 31.6825 13.5996Z" fill="white"/>
<path d="M31.6826 16.5182H22.1956C21.7988 16.5182 21.4771 16.8132 21.4771 17.1772C21.4771 17.5412 21.7988 17.8363 22.1956 17.8363H31.6826C32.0795 17.8363 32.4012 17.5412 32.4012 17.1772C32.4012 16.8133 32.0795 16.5182 31.6826 16.5182Z" fill="white"/>
<path d="M31.6826 28.1911H22.1956C21.7988 28.1911 21.4771 28.4862 21.4771 28.8502C21.4771 29.2142 21.7988 29.5093 22.1956 29.5093H31.6826C32.0795 29.5093 32.4012 29.2142 32.4012 28.8502C32.4012 28.4862 32.0795 28.1911 31.6826 28.1911Z" fill="white"/>
<path d="M31.6826 25.2728H22.1956C21.7988 25.2728 21.4771 25.5678 21.4771 25.9318C21.4771 26.2958 21.7988 26.5909 22.1956 26.5909H31.6826C32.0795 26.5909 32.4012 26.2958 32.4012 25.9318C32.4012 25.5678 32.0795 25.2728 31.6826 25.2728Z" fill="white"/>
<path d="M31.6826 22.3546H22.1956C21.7988 22.3546 21.4771 22.6497 21.4771 23.0137C21.4771 23.3777 21.7988 23.6728 22.1956 23.6728H31.6826C32.0795 23.6728 32.4012 23.3777 32.4012 23.0137C32.4012 22.6497 32.0795 22.3546 31.6826 22.3546Z" fill="white"/>
<path d="M44.8665 13.5998H35.3795C34.9826 13.5998 34.6609 13.8948 34.6609 14.2588C34.6609 14.6228 34.9826 14.9179 35.3795 14.9179H44.8665C45.2633 14.9179 45.585 14.6228 45.585 14.2588C45.585 13.8948 45.2633 13.5998 44.8665 13.5998Z" fill="white"/>
<path d="M44.8665 16.5182H35.3795C34.9826 16.5182 34.6609 16.8132 34.6609 17.1772C34.6609 17.5412 34.9826 17.8363 35.3795 17.8363H44.8665C45.2633 17.8363 45.585 17.5412 45.585 17.1772C45.585 16.8133 45.2633 16.5182 44.8665 16.5182Z" fill="white"/>
<path d="M44.8665 28.1911H35.3795C34.9826 28.1911 34.6609 28.4862 34.6609 28.8502C34.6609 29.2142 34.9826 29.5093 35.3795 29.5093H44.8665C45.2633 29.5093 45.585 29.2142 45.585 28.8502C45.585 28.4862 45.2633 28.1911 44.8665 28.1911Z" fill="white"/>
<path d="M44.8665 25.2728H35.3795C34.9826 25.2728 34.6609 25.5678 34.6609 25.9318C34.6609 26.2958 34.9826 26.5909 35.3795 26.5909H44.8665C45.2633 26.5909 45.585 26.2958 45.585 25.9318C45.585 25.5678 45.2633 25.2728 44.8665 25.2728Z" fill="white"/>
<path d="M44.8665 22.3546H35.3795C34.9826 22.3546 34.6609 22.6497 34.6609 23.0137C34.6609 23.3777 34.9826 23.6728 35.3795 23.6728H44.8665C45.2633 23.6728 45.585 23.3777 45.585 23.0137C45.585 22.6497 45.2633 22.3546 44.8665 22.3546Z" fill="white"/>
<path opacity="0.8" d="M101.357 33.3588C107.498 27.2176 107.498 17.2608 101.357 11.1196C95.2155 4.97837 85.2586 4.97837 79.1174 11.1196C72.9762 17.2608 72.9762 27.2176 79.1174 33.3588C85.2586 39.5 95.2155 39.5 101.357 33.3588Z" fill="white"/>
<path d="M90.2349 35.6606C97.6472 35.6606 103.656 29.6517 103.656 22.2393C103.656 14.827 97.6472 8.81805 90.2349 8.81805C82.8225 8.81805 76.8136 14.827 76.8136 22.2393C76.8136 29.6517 82.8225 35.6606 90.2349 35.6606Z" fill="url(#paint19_linear_682_87329)"/>
<path d="M90.2379 36.3325C82.4667 36.3325 76.1444 30.0102 76.1444 22.239C76.1444 14.4677 82.4667 8.14545 90.2379 8.14545C98.009 8.14545 104.331 14.4677 104.331 22.239C104.331 30.0102 98.009 36.3325 90.2379 36.3325ZM90.2379 8.81771C82.8374 8.81771 76.8167 14.8384 76.8167 22.239C76.8167 29.6395 82.8374 35.6602 90.2379 35.6602C97.6384 35.6602 103.659 29.6395 103.659 22.239C103.659 14.8384 97.6384 8.81771 90.2379 8.81771Z" fill="white"/>
<path d="M90.2373 30.4214C94.7562 30.4214 98.4195 26.7581 98.4195 22.2392C98.4195 17.7203 94.7562 14.057 90.2373 14.057C85.7184 14.057 82.0551 17.7203 82.0551 22.2392C82.0551 26.7581 85.7184 30.4214 90.2373 30.4214Z" fill="url(#paint20_linear_682_87329)"/>
<path d="M90.2403 31.0938C85.358 31.0938 81.3859 27.1217 81.3859 22.2393C81.3859 17.3569 85.358 13.3849 90.2403 13.3849C95.1227 13.3849 99.0948 17.3569 99.0948 22.2393C99.0948 27.1216 95.1227 31.0938 90.2403 31.0938ZM90.2403 14.7293C86.0993 14.7293 82.7303 18.0983 82.7303 22.2393C82.7303 26.3803 86.0993 29.7494 90.2403 29.7494C94.3814 29.7494 97.7504 26.3803 97.7504 22.2393C97.7504 18.0982 94.3814 14.7293 90.2403 14.7293Z" fill="white"/>
<path d="M90.2385 25.4092C91.9893 25.4092 93.4086 23.99 93.4086 22.2392C93.4086 20.4884 91.9893 19.0692 90.2385 19.0692C88.4878 19.0692 87.0685 20.4884 87.0685 22.2392C87.0685 23.99 88.4878 25.4092 90.2385 25.4092Z" fill="url(#paint21_linear_682_87329)"/>
<path d="M90.2414 26.0815C88.1228 26.0815 86.3992 24.3579 86.3992 22.2392C86.3992 20.1205 88.1228 18.3969 90.2414 18.3969C92.36 18.3969 94.0837 20.1205 94.0837 22.2392C94.0837 24.3579 92.36 26.0815 90.2414 26.0815ZM90.2414 19.7413C88.8641 19.7413 87.7436 20.8618 87.7436 22.2392C87.7436 23.6166 88.8641 24.7371 90.2414 24.7371C91.6187 24.7371 92.7393 23.6166 92.7393 22.2392C92.7393 20.8618 91.6187 19.7413 90.2414 19.7413Z" fill="white"/>
<path d="M112.217 5.76074L112.574 6.2423L94.3393 19.7567L93.9824 19.2751L112.217 5.76074Z" fill="url(#paint22_linear_682_87329)"/>
<path d="M94.4288 18.308C94.705 18.1032 95.6703 19.4056 95.394 19.6103L90.6972 22.2911C90.5236 22.3901 90.3522 22.1589 90.4975 22.0217L94.4288 18.308Z" fill="url(#paint23_linear_682_87329)"/>
<path d="M112.561 6.25002L114.665 6.77982L111.298 9.27574C110.194 10.0935 108.782 10.3732 107.45 10.0379L112.561 6.25002Z" fill="#91B3FA"/>
<path d="M112.208 5.7686L112.313 3.60141L108.945 6.09733C107.842 6.91509 107.163 8.18465 107.097 9.55644L112.208 5.7686Z" fill="#76A6F5"/>
<defs>
<linearGradient id="paint0_linear_682_87329" x1="45.6913" y1="69.3228" x2="46.4852" y2="31.2153" gradientUnits="userSpaceOnUse">
<stop stop-color="#2C3748"/>
<stop offset="1" stop-color="#3B495E"/>
</linearGradient>
<linearGradient id="paint1_linear_682_87329" x1="43.7165" y1="-11.71" x2="43.5577" y2="55.1371" gradientUnits="userSpaceOnUse">
<stop stop-color="#3B495E"/>
<stop offset="1" stop-color="#3B495E"/>
</linearGradient>
<linearGradient id="paint2_linear_682_87329" x1="46.7088" y1="87.135" x2="45.1209" y2="63.6353" gradientUnits="userSpaceOnUse">
<stop stop-color="#3B495E"/>
<stop offset="1" stop-color="#3B495E"/>
</linearGradient>
<linearGradient id="paint3_linear_682_87329" x1="48.7519" y1="24.4019" x2="48.8488" y2="34.3783" gradientUnits="userSpaceOnUse">
<stop stop-color="#BD99FF"/>
<stop offset="1" stop-color="#BD99FF"/>
</linearGradient>
<linearGradient id="paint4_linear_682_87329" x1="53.5866" y1="24.371" x2="53.6835" y2="34.3554" gradientUnits="userSpaceOnUse">
<stop stop-color="#BD99FF"/>
<stop offset="1" stop-color="#BD99FF"/>
</linearGradient>
<linearGradient id="paint5_linear_682_87329" x1="58.4622" y1="24.3491" x2="58.5591" y2="34.3206" gradientUnits="userSpaceOnUse">
<stop stop-color="#BD99FF"/>
<stop offset="1" stop-color="#BD99FF"/>
</linearGradient>
<linearGradient id="paint6_linear_682_87329" x1="63.2755" y1="24.3088" x2="63.3727" y2="34.3116" gradientUnits="userSpaceOnUse">
<stop stop-color="#BD99FF"/>
<stop offset="1" stop-color="#BD99FF"/>
</linearGradient>
<linearGradient id="paint7_linear_682_87329" x1="68.1641" y1="24.2938" x2="68.261" y2="34.2668" gradientUnits="userSpaceOnUse">
<stop stop-color="#BD99FF"/>
<stop offset="1" stop-color="#BD99FF"/>
</linearGradient>
<linearGradient id="paint8_linear_682_87329" x1="73.0034" y1="24.2654" x2="73.1002" y2="34.2409" gradientUnits="userSpaceOnUse">
<stop stop-color="#BD99FF"/>
<stop offset="1" stop-color="#BD99FF" stop-opacity="0.133333"/>
</linearGradient>
<linearGradient id="paint9_linear_682_87329" x1="77.8464" y1="24.2368" x2="77.9433" y2="34.2163" gradientUnits="userSpaceOnUse">
<stop stop-color="#BD99FF"/>
<stop offset="1" stop-color="#BD99FF"/>
</linearGradient>
<linearGradient id="paint10_linear_682_87329" x1="14.572" y1="31.5136" x2="13.8146" y2="54.0466" gradientUnits="userSpaceOnUse">
<stop stop-color="#BD99FF"/>
<stop offset="1" stop-color="#BD99FF"/>
</linearGradient>
<linearGradient id="paint11_linear_682_87329" x1="27.6096" y1="31.9518" x2="26.8522" y2="54.485" gradientUnits="userSpaceOnUse">
<stop stop-color="#BD99FF"/>
<stop offset="1" stop-color="#BD99FF"/>
</linearGradient>
<linearGradient id="paint12_linear_682_87329" x1="40.7962" y1="32.3952" x2="40.0388" y2="54.9282" gradientUnits="userSpaceOnUse">
<stop stop-color="#BD99FF"/>
<stop offset="1" stop-color="#BD99FF"/>
</linearGradient>
<linearGradient id="paint13_linear_682_87329" x1="54.9148" y1="34.5084" x2="51.2682" y2="45.5331" gradientUnits="userSpaceOnUse">
<stop stop-color="#FF928E"/>
<stop offset="1" stop-color="#FE7062"/>
</linearGradient>
<linearGradient id="paint14_linear_682_87329" x1="57.4829" y1="38.9247" x2="55.0806" y2="46.1873" gradientUnits="userSpaceOnUse">
<stop stop-color="#FF928E"/>
<stop offset="1" stop-color="#FE7062"/>
</linearGradient>
<linearGradient id="paint15_linear_682_87329" x1="61.3399" y1="34.9615" x2="58.9376" y2="42.2241" gradientUnits="userSpaceOnUse">
<stop stop-color="#FDF53F"/>
<stop offset="1" stop-color="#D93C65"/>
</linearGradient>
<linearGradient id="paint16_linear_682_87329" x1="65.2342" y1="39.0512" x2="62.832" y2="46.3138" gradientUnits="userSpaceOnUse">
<stop stop-color="#FF928E"/>
<stop offset="1" stop-color="#FE7062"/>
</linearGradient>
<linearGradient id="paint17_linear_682_87329" x1="70.9058" y1="32.9585" x2="68.5036" y2="40.2211" gradientUnits="userSpaceOnUse">
<stop stop-color="#FDF53F"/>
<stop offset="1" stop-color="#D93C65"/>
</linearGradient>
<linearGradient id="paint18_linear_682_87329" x1="74.935" y1="37.0238" x2="72.5328" y2="44.2864" gradientUnits="userSpaceOnUse">
<stop stop-color="#53D8FF"/>
<stop offset="1" stop-color="#3840F7"/>
</linearGradient>
<linearGradient id="paint19_linear_682_87329" x1="101.927" y1="6.71576" x2="71.7077" y2="46.8372" gradientUnits="userSpaceOnUse">
<stop stop-color="#76A6F5"/>
<stop offset="1" stop-color="#76A6F5"/>
</linearGradient>
<linearGradient id="paint20_linear_682_87329" x1="101.93" y1="6.71564" x2="71.7101" y2="46.837" gradientUnits="userSpaceOnUse">
<stop stop-color="#76A6F5"/>
<stop offset="1" stop-color="#76A6F5"/>
</linearGradient>
<linearGradient id="paint21_linear_682_87329" x1="101.931" y1="6.71564" x2="71.7114" y2="46.837" gradientUnits="userSpaceOnUse">
<stop stop-color="#76A6F5"/>
<stop offset="1" stop-color="#76A6F5"/>
</linearGradient>
<linearGradient id="paint22_linear_682_87329" x1="86.2805" y1="19.8738" x2="104.786" y2="12.1277" gradientUnits="userSpaceOnUse">
<stop stop-color="#3B495E"/>
<stop offset="1" stop-color="#3B495E"/>
</linearGradient>
<linearGradient id="paint23_linear_682_87329" x1="91.1478" y1="-7.46148" x2="92.2142" y2="9.33532" gradientUnits="userSpaceOnUse">
<stop stop-color="#BD99FF"/>
<stop offset="1" stop-color="#BD99FF"/>
</linearGradient>
</defs>
</svg>
