<svg width="92" height="74" viewBox="0 0 92 74" fill="none" xmlns="http://www.w3.org/2000/svg">
<g opacity="0.3">
<path d="M12.4319 50.1358C12.5799 50.1741 12.7295 50.0792 12.766 49.9239C12.8368 49.6222 12.9212 49.3193 13.0168 49.0234C13.0652 48.8738 12.9901 48.7115 12.849 48.6582C12.8473 48.6575 12.8456 48.6569 12.8439 48.6562C12.6995 48.6049 12.5428 48.6861 12.4938 48.8376C12.3932 49.149 12.3044 49.4679 12.2298 49.7855C12.1957 49.9307 12.2727 50.0774 12.404 50.127C12.413 50.1304 12.4223 50.1334 12.4319 50.1358ZM13.5763 47.6171C13.7093 47.3378 13.8551 47.0619 14.0095 46.7968C14.089 46.6604 14.048 46.4821 13.9179 46.3987C13.7871 46.3155 13.6179 46.3584 13.5384 46.4949C13.3759 46.7738 13.2224 47.0643 13.0824 47.3581C13.0142 47.5011 13.0695 47.6751 13.2059 47.7466C13.2158 47.7518 13.2259 47.7563 13.2361 47.7601C13.3658 47.8092 13.513 47.7497 13.5763 47.6171ZM14.8511 45.5556C15.0396 45.3151 15.2403 45.0803 15.4479 44.8576C15.5545 44.7432 15.5525 44.5598 15.4435 44.4481C15.3344 44.3365 15.1597 44.3384 15.053 44.4527C14.8344 44.6873 14.623 44.9346 14.4246 45.1879C14.3277 45.3114 14.3448 45.4939 14.4625 45.5955C14.4876 45.6171 14.5153 45.6333 14.5442 45.6443C14.651 45.6846 14.7749 45.6528 14.8511 45.5556ZM16.5335 43.845C16.7688 43.6544 17.0147 43.4725 17.2643 43.3041C17.3925 43.2175 17.4296 43.0383 17.3471 42.9039C17.2645 42.7695 17.0938 42.7307 16.9656 42.817C16.7027 42.9944 16.4439 43.186 16.1962 43.3864C16.0755 43.4841 16.0532 43.6659 16.1463 43.7925C16.1797 43.8378 16.2232 43.8699 16.271 43.888C16.3568 43.9204 16.456 43.9076 16.5335 43.845ZM18.5374 42.57C18.8064 42.4394 19.0847 42.319 19.3643 42.2124C19.5076 42.1576 19.5815 41.9915 19.5294 41.8412C19.4772 41.6908 19.3188 41.6134 19.1755 41.6682C18.8813 41.7804 18.5886 41.9071 18.3054 42.0445C18.1671 42.1116 18.1068 42.2837 18.1709 42.4289C18.2031 42.502 18.2608 42.5544 18.3278 42.5797C18.3938 42.6046 18.4687 42.6033 18.5374 42.57ZM20.7602 41.7919C21.0506 41.7268 21.3472 41.6741 21.6419 41.6351C21.7932 41.615 21.9004 41.4701 21.8812 41.3116C21.8622 41.1529 21.7241 41.0405 21.5728 41.0605C21.2627 41.1015 20.9504 41.1571 20.6449 41.2256C20.4957 41.259 20.4007 41.4128 20.4326 41.5692C20.4532 41.6708 20.5224 41.7484 20.6092 41.7812C20.656 41.7989 20.7079 41.8036 20.7602 41.7919ZM30.6411 44.6589C30.7475 44.5444 30.7453 44.3611 30.6361 44.2494C30.4123 44.0209 30.176 43.7994 29.9337 43.5913C29.8157 43.49 29.6418 43.5082 29.5452 43.632C29.4486 43.7556 29.466 43.938 29.5839 44.0393C29.8139 44.2369 30.0383 44.4472 30.2508 44.6643C30.2799 44.6941 30.3137 44.7157 30.3496 44.7293C30.4483 44.7667 30.5631 44.743 30.6411 44.6589ZM23.0908 41.5501C23.3875 41.5544 23.6877 41.5722 23.983 41.6033C24.1347 41.6191 24.27 41.5031 24.2852 41.3439C24.3004 41.1847 24.1895 41.0436 24.0379 41.027C23.727 40.9944 23.4109 40.9756 23.0984 40.9711C22.946 40.9689 22.8206 41.0967 22.8185 41.2567C22.8169 41.3835 22.8932 41.4924 23.001 41.5331C23.0291 41.5437 23.0593 41.5496 23.0908 41.5501ZM28.7779 43.0621C28.8572 42.9255 28.8158 42.7473 28.6855 42.6642C28.4187 42.494 28.1413 42.3336 27.8612 42.1874C27.7248 42.1154 27.559 42.1745 27.491 42.3176C27.4231 42.4608 27.4787 42.6346 27.6152 42.7059C27.8814 42.8449 28.145 42.9972 28.3986 43.1591C28.4148 43.1694 28.4316 43.1777 28.4487 43.1841C28.5697 43.2298 28.7086 43.1817 28.7779 43.0621ZM25.4141 41.8606C25.7022 41.9344 25.9911 42.0222 26.2728 42.1216C26.4173 42.1727 26.5739 42.0912 26.6226 41.9397C26.6706 41.7901 26.5955 41.6281 26.4546 41.5749C26.4528 41.5742 26.4509 41.5735 26.449 41.5729C26.1525 41.4681 25.8484 41.3756 25.5451 41.2979C25.3969 41.2601 25.2476 41.3552 25.2113 41.5106C25.1775 41.6557 25.2546 41.802 25.3857 41.8515C25.3949 41.855 25.4044 41.858 25.4141 41.8606Z" fill="#76A6F5"/>
<path d="M31.6101 46.2743C31.5589 46.255 31.5126 46.2197 31.4788 46.1696C31.3964 46.0479 31.3102 45.9259 31.2226 45.807C31.1294 45.6805 31.1516 45.4986 31.2723 45.4009C31.3929 45.3031 31.5664 45.3262 31.6595 45.453C31.7517 45.578 31.8423 45.7062 31.929 45.8344C32.0172 45.9647 31.988 46.1456 31.8637 46.2381C31.7871 46.2952 31.6922 46.3054 31.6101 46.2743Z" fill="#76A6F5"/>
</g>
<g opacity="0.3">
<path d="M33.4153 54.8968C33.2899 54.8495 33.2123 54.7124 33.2379 54.5707C33.2644 54.424 33.2883 54.2743 33.3091 54.1257C33.3313 53.9675 33.4715 53.8581 33.6223 53.8813C33.7738 53.9046 33.8776 54.0517 33.8554 54.2098C33.8335 54.3662 33.8083 54.5239 33.7804 54.6784C33.7521 54.8355 33.6077 54.9387 33.4578 54.9091C33.4431 54.9062 33.4289 54.902 33.4153 54.8968Z" fill="#76A6F5"/>
<path d="M19.729 63.6029C19.8748 63.6497 20.0292 63.5636 20.0738 63.4106C20.1184 63.2577 20.0364 63.0961 19.8905 63.0491C19.6129 62.96 19.3347 62.8572 19.0602 62.7424C18.9194 62.683 18.7579 62.7556 18.7015 62.9042C18.645 63.0527 18.714 63.2211 18.8556 63.2804C18.9746 63.3301 19.0938 63.3776 19.2133 63.4228C19.3838 63.4872 19.5573 63.5479 19.729 63.6029ZM17.8754 62.4884C17.9505 62.3493 17.9038 62.1727 17.7711 62.0939C17.5164 61.9426 17.265 61.7785 17.024 61.6058C16.8985 61.5154 16.7263 61.5496 16.6403 61.6817C16.5543 61.8137 16.5867 61.9939 16.7126 62.084C16.9664 62.2658 17.231 62.4386 17.4991 62.5978C17.513 62.606 17.5273 62.6129 17.5418 62.6184C17.666 62.6653 17.8081 62.6131 17.8754 62.4884ZM21.1944 63.96C21.4977 64.0112 21.8072 64.0495 22.1144 64.0738C22.2664 64.0858 22.399 63.9662 22.4104 63.8067C22.4219 63.6473 22.3079 63.5085 22.1558 63.4962C21.8641 63.4733 21.5702 63.4369 21.2823 63.3882C21.1317 63.3628 20.99 63.4701 20.9657 63.628C20.9443 63.7677 21.022 63.9001 21.1445 63.9464C21.1604 63.9524 21.1771 63.957 21.1944 63.96ZM15.9208 61.0867C16.0233 60.9682 16.0148 60.785 15.9018 60.6777C15.6853 60.4718 15.4746 60.2537 15.2756 60.0295C15.1716 59.9123 14.997 59.9058 14.8854 60.0149C14.7738 60.1238 14.7676 60.307 14.8714 60.424C15.081 60.6601 15.3029 60.8898 15.5309 61.1066C15.5584 61.1328 15.5896 61.1522 15.6226 61.1646C15.7247 61.2032 15.8434 61.1762 15.9208 61.0867ZM23.6177 64.0838C23.924 64.0638 24.2339 64.0298 24.5387 63.9827C24.6895 63.9594 24.7937 63.8123 24.7715 63.6541C24.7493 63.4958 24.609 63.3865 24.4582 63.4098C24.1687 63.4545 23.8744 63.4868 23.5834 63.5058C23.4312 63.5157 23.3155 63.6532 23.325 63.8128C23.332 63.9317 23.4066 64.0294 23.507 64.0673C23.5414 64.0803 23.5789 64.0863 23.6177 64.0838ZM26.0081 63.6472C26.3036 63.5572 26.5989 63.4532 26.8859 63.3379C27.0283 63.2806 27.0995 63.1132 27.0449 62.9638C26.9903 62.8143 26.8307 62.7397 26.6884 62.7971C26.4157 62.9066 26.135 63.0055 25.8542 63.0911C25.7078 63.1356 25.6235 63.2963 25.666 63.4499C25.6917 63.5424 25.7575 63.6113 25.8378 63.6416C25.8907 63.6616 25.9499 63.6649 26.0081 63.6472ZM28.251 62.6746C28.521 62.5192 28.7877 62.3501 29.0437 62.1721C29.1708 62.0837 29.2055 61.9041 29.1213 61.7708C29.0369 61.6373 28.8657 61.6011 28.7387 61.6894C28.4954 61.8586 28.242 62.0192 27.9854 62.1668C27.8517 62.2438 27.8028 62.4198 27.8762 62.56C27.9099 62.6244 27.9635 62.67 28.0245 62.6931C28.0965 62.7203 28.1788 62.7161 28.251 62.6746ZM30.2383 61.2119C30.4693 60.9984 30.6943 60.7721 30.907 60.5392C31.0125 60.4237 31.0087 60.2404 30.8985 60.1297C30.7886 60.0193 30.6137 60.0232 30.5082 60.1386C30.3063 60.3598 30.0926 60.5747 29.8732 60.7775C29.7588 60.8833 29.7478 61.0661 29.8486 61.1861C29.8804 61.224 29.9196 61.2511 29.9619 61.2671C30.0535 61.3017 30.1599 61.2843 30.2383 61.2119ZM31.8713 59.3261C32.0514 59.0651 32.2231 58.7925 32.3819 58.5159C32.4606 58.3788 32.4184 58.2009 32.2877 58.1184C32.1575 58.0363 31.9875 58.0801 31.9088 58.2172C31.758 58.48 31.5949 58.7388 31.4239 58.9868C31.3345 59.1163 31.3623 59.2974 31.4858 59.3911C31.5073 59.4074 31.5303 59.42 31.5541 59.429C31.6669 59.4716 31.7976 59.4331 31.8713 59.3261ZM33.0685 57.1125C33.1581 56.8945 33.2423 56.6708 33.3189 56.4479C33.3467 56.3671 33.3734 56.2864 33.3994 56.2054C33.4479 56.0539 33.3728 55.8874 33.2256 55.8388C33.0811 55.7878 32.9245 55.8694 32.8759 56.0211C32.8513 56.0979 32.8258 56.1749 32.7995 56.2516C32.7266 56.4636 32.6466 56.6761 32.5615 56.8834C32.5011 57.0302 32.5657 57.2006 32.7058 57.2639C32.711 57.2662 32.7163 57.2685 32.7217 57.2705C32.8579 57.3219 33.0105 57.2539 33.0685 57.1125Z" fill="#76A6F5"/>
<path d="M14.0528 59.2976C14.0011 59.2781 13.9545 59.2423 13.9206 59.1917C13.8347 59.0634 13.7497 58.9308 13.6681 58.7976C13.5857 58.663 13.6228 58.4839 13.7511 58.3974C13.8794 58.3111 14.0501 58.3498 14.1326 58.4845C14.2102 58.6111 14.2909 58.737 14.3724 58.8589C14.4601 58.9896 14.43 59.1702 14.3052 59.2622C14.2287 59.3185 14.1344 59.3285 14.0528 59.2976Z" fill="#76A6F5"/>
</g>
<path d="M14.8626 54.4068C14.8444 54.3523 14.861 54.2917 14.9042 54.2558L16.1345 53.2321C16.055 52.4674 16.0913 51.6839 16.2535 50.9108L15.1365 49.7545C15.0973 49.7139 15.087 49.6518 15.1108 49.5997L15.9247 47.8179C15.9484 47.7658 16.0011 47.7353 16.0558 47.7419L17.6149 47.9303C18.0877 47.3132 18.6471 46.7926 19.2651 46.3784L19.2548 44.7313C19.2545 44.6736 19.2891 44.622 19.341 44.6028L21.1178 43.9465C21.1697 43.9273 21.2275 43.9448 21.2617 43.99L22.2378 45.2804C22.9669 45.197 23.7139 45.235 24.451 45.4053L25.5534 44.2337C25.5921 44.1926 25.6514 44.1818 25.701 44.2067L27.3999 45.0603C27.4496 45.0853 27.4786 45.1405 27.4723 45.1979L27.2927 46.8332C27.881 47.329 28.3774 47.9158 28.7723 48.5639L30.3428 48.5531C30.3978 48.5527 30.447 48.589 30.4653 48.6435L31.0911 50.507C31.1093 50.5615 31.0926 50.6221 31.0496 50.658L29.8192 51.6817C29.8987 52.4464 29.8624 53.2299 29.7002 54.003L30.8172 55.1593C30.8564 55.1999 30.8667 55.262 30.8429 55.3141L30.029 57.096C30.0052 57.148 29.9526 57.1785 29.8979 57.1719L28.3387 56.9835C27.866 57.6006 27.3065 58.1212 26.6886 58.5354L26.6989 60.1825C26.6993 60.2402 26.6647 60.2919 26.6127 60.3111L24.8359 60.9674C24.784 60.9866 24.7262 60.9691 24.692 60.9239L23.716 59.6335C22.9869 59.7168 22.2399 59.6788 21.5027 59.5086L20.4003 60.6802C20.3616 60.7213 20.3023 60.7321 20.2527 60.7072L18.5538 59.8535C18.5042 59.8286 18.4751 59.7733 18.4814 59.716L18.661 58.0807C18.0727 57.5849 17.5763 56.9981 17.1813 56.35L15.6109 56.3608C15.5559 56.3611 15.5067 56.3249 15.4884 56.2704L14.8626 54.4068Z" fill="#76A6F5"/>
<path d="M22.602 54.4035C23.6253 54.6204 24.6262 53.9238 24.8332 52.8504C24.9334 52.3304 24.8346 51.8007 24.5549 51.3587C24.2753 50.9167 23.8483 50.6153 23.3525 50.5103C22.3291 50.2933 21.3282 50.9899 21.1213 52.0633C20.933 53.0398 21.4658 53.9968 22.3341 54.325C22.4203 54.3575 22.5097 54.3839 22.602 54.4035ZM24.1869 51.6149C24.4013 51.9538 24.4771 52.36 24.4002 52.7587C24.2416 53.5816 23.4741 54.1158 22.6895 53.9494C21.9046 53.7832 21.3956 52.978 21.5542 52.155C21.7129 51.3322 22.4803 50.7979 23.2649 50.9643C23.3361 50.9794 23.4052 50.9998 23.4723 51.0251C23.7636 51.1353 24.0126 51.3395 24.1869 51.6149Z" fill="#BDD0FB"/>
<path d="M21.4434 57.0372C21.2942 56.9808 21.1469 56.9163 21.002 56.8435C20.9564 56.8206 20.9111 56.7969 20.8662 56.7724C20.6448 56.6519 20.4329 56.513 20.2338 56.3581C20.2311 56.356 20.2284 56.3539 20.2257 56.3517C20.218 56.3457 20.2103 56.3397 20.2027 56.3336C20.1878 56.3218 20.173 56.3098 20.1582 56.2979C20.1194 56.2664 20.1061 56.2132 20.1218 56.1672C20.1257 56.156 20.1313 56.1453 20.1385 56.1354C20.1759 56.0848 20.2452 56.0758 20.2934 56.1148C20.5415 56.3164 20.812 56.4912 21.0974 56.6345C22.5146 57.347 24.1169 57.1965 25.3616 56.3843C26.054 55.9326 26.6356 55.2761 27.0133 54.4493C27.0795 54.3043 27.1383 54.1569 27.1895 54.0077C27.5343 53.0036 27.5394 51.9147 27.1967 50.8944C26.8032 49.7225 25.9981 48.7814 24.9298 48.2446C22.7233 47.1361 20.0704 48.1167 19.0139 50.4298C18.9488 50.5724 18.8907 50.718 18.84 50.8658C18.6201 51.5063 18.5362 52.1902 18.5968 52.8687C18.5983 52.8862 18.5961 52.9032 18.5907 52.9187C18.5767 52.9596 18.5411 52.9905 18.4971 52.9948C18.4363 53.0005 18.3824 52.9541 18.3769 52.8902C18.3133 52.1779 18.4013 51.4598 18.6322 50.7874C18.6854 50.6322 18.7463 50.4794 18.8147 50.3297C19.9239 47.9012 22.7106 46.8726 25.0252 48.0356C26.1468 48.5991 26.9919 49.5871 27.405 50.8174C27.7647 51.8885 27.7594 53.0316 27.3974 54.0858C27.3436 54.2424 27.2819 54.3971 27.2125 54.5493C26.6751 55.7257 25.7332 56.6122 24.5602 57.0454C23.5388 57.4228 22.4486 57.4171 21.4434 57.0372Z" fill="#BDD0FB"/>
<g opacity="0.3">
<path d="M1.07402 53.9564C1.00463 53.9301 0.956995 53.8585 0.961715 53.7773C0.970418 53.6258 0.983622 53.4724 1.001 53.3216C1.0123 53.2235 1.09715 53.1537 1.19074 53.1655C1.2844 53.177 1.35084 53.2664 1.33957 53.3645C1.32301 53.5082 1.31041 53.6544 1.30206 53.799C1.29644 53.8975 1.21562 53.9726 1.12157 53.9668C1.10493 53.9656 1.089 53.962 1.07402 53.9564Z" fill="#76A6F5"/>
<path d="M1.2897 52.602C1.38108 52.6258 1.4736 52.5675 1.49636 52.4716C1.55387 52.2298 1.62385 51.9882 1.7044 51.7537C1.7214 51.7042 1.73899 51.6548 1.75711 51.6054C1.79081 51.5133 1.74696 51.4098 1.65905 51.3744C1.57466 51.3444 1.47254 51.385 1.43865 51.4773C1.41974 51.529 1.40135 51.5807 1.38356 51.6324C1.29912 51.8782 1.22572 52.1316 1.16551 52.3852C1.14414 52.475 1.19167 52.5659 1.27298 52.5966C1.27838 52.5987 1.28397 52.6004 1.2897 52.602ZM2.11634 50.779C2.25164 50.5121 2.40386 50.2516 2.5689 50.0049C2.62298 49.924 2.60434 49.8126 2.52721 49.7558C2.45043 49.6995 2.34378 49.7186 2.2897 49.7995C2.11672 50.0581 1.95705 50.3311 1.81525 50.611C1.77105 50.6982 1.80259 50.8065 1.88576 50.8529C1.89304 50.857 1.90063 50.8604 1.90821 50.8633C1.98671 50.893 2.07601 50.8584 2.11634 50.779ZM3.10948 49.2953C3.30268 49.0716 3.51133 48.8585 3.72974 48.6614C3.80106 48.5971 3.80916 48.4841 3.74777 48.4093C3.68614 48.3342 3.57877 48.3258 3.50732 48.3903C3.27829 48.5968 3.05944 48.8206 2.8568 49.055C2.79358 49.1282 2.7988 49.2414 2.86859 49.3077C2.88564 49.3238 2.90491 49.3357 2.92526 49.3434C2.98831 49.3672 3.06165 49.3505 3.10948 49.2953ZM4.41989 48.1128C4.65986 47.9455 4.91199 47.7922 5.16896 47.6576C5.25326 47.6134 5.28742 47.506 5.24527 47.4177C5.20322 47.3296 5.10086 47.2935 5.01657 47.3376C4.74698 47.4789 4.48276 47.6395 4.23103 47.815C4.15262 47.8697 4.13133 47.9808 4.18345 48.0631C4.20457 48.0961 4.23428 48.1196 4.26751 48.1321C4.31662 48.1507 4.3731 48.1455 4.41989 48.1128ZM5.96582 47.3018C6.23727 47.2007 6.51713 47.1164 6.79785 47.0509C6.88969 47.0296 6.94767 46.934 6.92726 46.8375C6.90686 46.7411 6.81583 46.6801 6.7238 46.7018C6.42962 46.7703 6.13621 46.8588 5.85172 46.9646C5.76301 46.9977 5.71658 47.0999 5.74806 47.1929C5.76585 47.2455 5.80468 47.2839 5.85106 47.3014C5.88683 47.315 5.92716 47.3161 5.96582 47.3018ZM7.65262 46.9089C7.93905 46.8801 8.22981 46.8699 8.51704 46.8786C8.61111 46.8814 8.68967 46.8037 8.69234 46.705C8.69499 46.6063 8.62115 46.5242 8.52678 46.521C8.22564 46.5119 7.92052 46.5227 7.62007 46.5528C7.52634 46.5623 7.45761 46.6496 7.46659 46.7478C7.47314 46.819 7.51854 46.8764 7.5786 46.8992C7.60157 46.9078 7.62667 46.9115 7.65262 46.9089ZM9.37906 46.9606C9.66257 47.0063 9.94714 47.0713 10.2249 47.154C10.3155 47.1808 10.4097 47.1257 10.4354 47.0306C10.4611 46.9357 10.4082 46.8382 10.3179 46.8097C10.0267 46.7232 9.7283 46.655 9.43095 46.6071C9.33786 46.5921 9.25077 46.6591 9.23647 46.7567C9.22386 46.8426 9.27188 46.9236 9.34705 46.952C9.35723 46.9559 9.36792 46.9588 9.37906 46.9606ZM12.0505 47.7927C12.0975 47.707 12.0693 47.5978 11.9877 47.5485C11.7616 47.4123 11.5246 47.2867 11.2839 47.1754C11.2474 47.1583 11.2108 47.1419 11.1741 47.1256C11.0888 47.0848 10.9872 47.13 10.9508 47.2213C10.9143 47.3124 10.9552 47.4171 11.042 47.4555C11.0765 47.4706 11.1108 47.4862 11.1457 47.5025C11.3761 47.6089 11.6022 47.7287 11.8178 47.8586C11.8266 47.864 11.8358 47.8684 11.8451 47.8719C11.9214 47.9007 12.0087 47.8689 12.0505 47.7927Z" fill="#76A6F5"/>
</g>
<g opacity="0.3">
<path d="M5.91562 61.5469C6.19648 61.6488 6.48575 61.7334 6.77532 61.7988C6.86735 61.8195 6.95807 61.7582 6.97788 61.6615C6.99771 61.5649 6.93826 61.4706 6.84697 61.4491C6.57082 61.3868 6.29495 61.306 6.02699 61.2088C5.93802 61.1765 5.84089 61.2261 5.81016 61.3194C5.77969 61.412 5.82588 61.513 5.91344 61.5461C5.91412 61.5464 5.91491 61.5467 5.91562 61.5469ZM5.31847 61.1055C5.35964 61.0168 5.32442 60.9097 5.23976 60.8666C4.98506 60.7365 4.73527 60.589 4.49738 60.428C4.41858 60.375 4.31272 60.3983 4.26165 60.4815C4.21057 60.5645 4.23338 60.6751 4.31248 60.7287C4.5618 60.8974 4.82356 61.052 5.09051 61.1881C5.09616 61.191 5.10176 61.1935 5.10757 61.1957C5.18841 61.2262 5.27992 61.1886 5.31847 61.1055ZM7.65851 61.9393C7.95468 61.967 8.25497 61.9759 8.55104 61.9658C8.64517 61.9626 8.71905 61.8799 8.71594 61.7813C8.71297 61.6825 8.63439 61.6054 8.54007 61.6082C8.25762 61.6179 7.97124 61.6094 7.68866 61.5832C7.59483 61.5744 7.51208 61.6471 7.50373 61.7453C7.49672 61.8281 7.54457 61.9026 7.6157 61.9295C7.62918 61.9346 7.64348 61.9379 7.65851 61.9393ZM3.83298 60.1506C3.89333 60.0749 3.88362 59.962 3.81137 59.8987C3.59394 59.7083 3.38558 59.502 3.19202 59.2854C3.1276 59.2136 3.01964 59.2099 2.95105 59.2771C2.88232 59.3447 2.87877 59.4579 2.94321 59.53C3.14613 59.7572 3.36473 59.9737 3.5928 60.1733C3.6086 60.1871 3.62603 60.1974 3.64428 60.2043C3.70977 60.229 3.78581 60.2098 3.83298 60.1506ZM9.43952 61.8784C9.73266 61.8306 10.0261 61.7635 10.3118 61.6789C10.4024 61.6521 10.4552 61.5532 10.4296 61.4581C10.404 61.3631 10.3099 61.3076 10.2191 61.3346C9.94665 61.4154 9.6668 61.4793 9.38719 61.5248C9.29418 61.5399 9.23042 61.6313 9.2449 61.729C9.25475 61.7959 9.29895 61.8484 9.35573 61.8699C9.38163 61.8797 9.41027 61.8831 9.43952 61.8784ZM11.1548 61.371C11.4291 61.2507 11.6988 61.1119 11.9565 60.9585C12.0383 60.9097 12.0671 60.8007 12.0206 60.7148C11.9742 60.6289 11.8701 60.5987 11.7881 60.6475C11.5423 60.7938 11.285 60.9261 11.0233 61.0409C10.9364 61.079 10.8954 61.1838 10.9317 61.2749C10.9509 61.323 10.9879 61.3578 11.0313 61.3742C11.07 61.3888 11.1139 61.3889 11.1548 61.371ZM12.7051 60.4474C12.9441 60.2616 13.1743 60.0589 13.3893 59.8449C13.4576 59.7768 13.4604 59.6637 13.3955 59.592C13.3307 59.5204 13.2227 59.5176 13.1545 59.5854C12.9496 59.7895 12.7301 59.9829 12.5021 60.1598C12.4264 60.2186 12.4105 60.3306 12.4666 60.41C12.4873 60.4395 12.5151 60.4602 12.5456 60.4717C12.5975 60.4913 12.6575 60.4843 12.7051 60.4474Z" fill="#76A6F5"/>
<path d="M2.44776 58.8647C2.41682 58.853 2.3888 58.8318 2.36793 58.8019C2.2819 58.6782 2.19904 58.5513 2.12147 58.4247C2.07061 58.3416 2.09353 58.2309 2.17276 58.1775C2.25197 58.1244 2.35739 58.1483 2.40847 58.2313C2.48238 58.352 2.56151 58.4731 2.64352 58.5911C2.69902 58.6709 2.68227 58.7829 2.6062 58.841C2.55865 58.8773 2.49922 58.8841 2.44776 58.8647Z" fill="#76A6F5"/>
</g>
<path d="M2.90901 55.4944C2.89679 55.4579 2.90795 55.4174 2.93678 55.3933L3.76004 54.7083C3.70686 54.1966 3.73114 53.6723 3.8397 53.155L3.09222 52.3812C3.066 52.3541 3.0591 52.3125 3.07501 52.2776L3.61963 51.0854C3.63551 51.0505 3.67079 51.0301 3.70735 51.0345L4.75067 51.1606C5.06701 50.7476 5.44135 50.3993 5.8549 50.1221L5.84802 49.0199C5.84777 48.9813 5.87094 48.9467 5.90567 48.9339L7.09461 48.4947C7.12934 48.4819 7.16806 48.4936 7.19095 48.5239L7.84408 49.3873C8.33195 49.3315 8.83183 49.357 9.32508 49.4709L10.0628 48.6869C10.0887 48.6594 10.1283 48.6521 10.1615 48.6688L11.2983 49.24C11.3316 49.2568 11.351 49.2937 11.3468 49.3321L11.2266 50.4263C11.6203 50.7581 11.9524 51.1507 12.2167 51.5845L13.2676 51.5772C13.3044 51.577 13.3373 51.6013 13.3496 51.6377L13.7683 52.8847C13.7805 52.9212 13.7694 52.9617 13.7405 52.9857L12.9172 53.6708C12.9704 54.1825 12.9462 54.7067 12.8376 55.2241L13.5851 55.9978C13.6113 56.025 13.6182 56.0665 13.6023 56.1014L13.0577 57.2937C13.0418 57.3285 13.0065 57.349 12.9699 57.3445L11.9266 57.2184C11.6103 57.6314 11.2359 57.9798 10.8224 58.2569L10.8293 59.3591C10.8296 59.3977 10.8064 59.4323 10.7717 59.4451L9.58272 59.8843C9.54796 59.8971 9.5093 59.8854 9.48638 59.8552L8.83325 58.9917C8.34538 59.0475 7.8455 59.022 7.35226 58.9081L6.61455 59.6921C6.58865 59.7196 6.54901 59.7269 6.51578 59.7102L5.37897 59.1389C5.34577 59.1222 5.32629 59.0853 5.33052 59.0469L5.45073 57.9527C5.05702 57.6209 4.72489 57.2282 4.46062 56.7945L3.40973 56.8018C3.3729 56.802 3.33997 56.7777 3.32774 56.7413L2.90901 55.4944Z" fill="#76A6F5"/>
<path d="M8.08301 55.5154C8.42076 55.5871 8.76487 55.5165 9.05193 55.3167C9.33896 55.1169 9.53467 54.8118 9.60291 54.4576C9.74386 53.7266 9.29203 53.0128 8.59426 52.8635C7.8971 52.7159 7.21537 53.1904 7.07456 53.9213C7.00624 54.2755 7.07352 54.6364 7.26399 54.9375C7.41886 55.1822 7.64011 55.3636 7.89887 55.4614C7.95835 55.4839 8.01993 55.502 8.08301 55.5154ZM9.26868 54.3866C9.21845 54.6472 9.07452 54.8716 8.86331 55.0187C8.65221 55.1656 8.39907 55.2175 8.15067 55.1649C7.90233 55.1118 7.68834 54.9612 7.54813 54.7397C7.40797 54.5183 7.35859 54.2528 7.40876 53.9923C7.51244 53.4545 8.01387 53.1055 8.52668 53.2141C8.57295 53.2239 8.6177 53.2371 8.66087 53.2534C9.09597 53.4179 9.363 53.8975 9.26868 54.3866Z" fill="#BDD0FB"/>
<path d="M7.27605 57.3487C7.17453 57.3103 7.07412 57.2662 6.97475 57.2164C6.77752 57.1174 6.58969 56.9972 6.41608 56.8588C6.40833 56.8526 6.40055 56.8463 6.3928 56.84C6.33286 56.7914 6.31234 56.7092 6.33665 56.6382C6.34257 56.6209 6.3512 56.6043 6.36244 56.5891C6.42009 56.511 6.5271 56.4972 6.60161 56.5573C6.76254 56.6881 6.93765 56.8012 7.12198 56.8937L7.12206 56.8938C7.13215 56.8989 7.14239 56.9038 7.15248 56.9088C7.59067 57.1236 8.06329 57.2157 8.53359 57.1855C8.78886 57.1691 9.04361 57.1165 9.29182 57.0274C9.29384 57.0267 9.29585 57.026 9.29787 57.0252C9.30406 57.0229 9.3102 57.0208 9.31632 57.0184C10.0397 56.7512 10.6205 56.2046 10.9518 55.4792C10.9948 55.3853 11.0328 55.29 11.066 55.1934C11.2892 54.5433 11.2924 53.8384 11.0707 53.1778C10.8159 52.4191 10.2946 51.81 9.6031 51.4625C8.91183 51.1155 8.13221 51.0708 7.40884 51.3379C6.68554 51.6051 6.10463 52.1517 5.77332 52.8771C5.73108 52.9694 5.69359 53.0637 5.66074 53.1593C5.51834 53.574 5.46408 54.0167 5.50328 54.4559C5.50568 54.4829 5.50227 54.5091 5.49392 54.5331C5.47226 54.5962 5.41734 54.6439 5.3494 54.6506C5.25562 54.6595 5.17251 54.5876 5.1637 54.489C5.11986 53.9976 5.18056 53.5022 5.33977 53.0383C5.37657 52.9312 5.41851 52.8258 5.46566 52.7226C5.83642 51.9109 6.48628 51.2994 7.29564 51.0004C8.10487 50.7016 8.97649 50.7503 9.75041 51.1399C10.5242 51.5286 11.1073 52.2101 11.3923 53.0591C11.6405 53.798 11.6368 54.5867 11.3871 55.3139C11.35 55.4219 11.3074 55.5287 11.2595 55.6337C10.5417 57.2049 8.80646 57.927 7.27605 57.3487Z" fill="#BDD0FB"/>
<path d="M65 55.5C75.2173 45.2827 75.2173 28.7173 65 18.5C54.7827 8.28273 38.2173 8.28273 28 18.5C17.7827 28.7173 17.7827 45.2827 28 55.5C38.2173 65.7173 54.7827 65.7173 65 55.5Z" fill="#D3E4FF"/>
<path d="M30.3767 54H29.7061C29.628 54 29.5647 53.9278 29.5647 53.8387V13.1613C29.5647 13.0722 29.628 13 29.7061 13H30.3767C30.4548 13 30.5181 13.0722 30.5181 13.1613V53.8387C30.5181 53.9278 30.4548 54 30.3767 54Z" fill="white"/>
<path d="M62.7937 54H62.1231C62.045 54 61.9817 53.9278 61.9817 53.8387V13.1613C61.9817 13.0722 62.045 13 62.1231 13H62.7937C62.8718 13 62.9351 13.0722 62.9351 13.1613V53.8387C62.9352 53.9278 62.8718 54 62.7937 54Z" fill="white"/>
<path d="M90.7937 37.9424H66.5406C66.1292 37.9424 65.7957 37.5788 65.7957 37.1302V22.8122C65.7957 22.3637 66.1292 22 66.5406 22H90.7937C91.2051 22 91.5386 22.3637 91.5386 22.8122V37.1302C91.5385 37.5788 91.2051 37.9424 90.7937 37.9424Z" fill="url(#paint0_linear_2004_3524)"/>
<path d="M88.1276 37.2655H68.8622C67.4753 37.2655 66.3511 36.0396 66.3511 34.5275V25.4151C66.3511 23.9029 67.4753 22.6771 68.8622 22.6771H88.1276C89.5144 22.6771 90.6387 23.903 90.6387 25.4151V34.5275C90.6387 36.0397 89.5144 37.2655 88.1276 37.2655Z" fill="#ABCBFF"/>
<path d="M89.2561 27.8244H77.8707C77.7614 27.8244 77.6729 27.7279 77.6729 27.6088V26.5859C77.6729 26.4668 77.7614 26.3702 77.8707 26.3702H89.2561C89.3653 26.3702 89.4539 26.4668 89.4539 26.5859V27.6088C89.4539 27.7279 89.3653 27.8244 89.2561 27.8244Z" fill="url(#paint1_linear_2004_3524)"/>
<path d="M89.2561 30.9404H77.8707C77.7614 30.9404 77.6729 30.8439 77.6729 30.7247V29.7019C77.6729 29.5828 77.7614 29.4862 77.8707 29.4862H89.2561C89.3653 29.4862 89.4539 29.5828 89.4539 29.7019V30.7247C89.4539 30.8438 89.3653 30.9404 89.2561 30.9404Z" fill="url(#paint2_linear_2004_3524)"/>
<path d="M89.2561 33.9303H77.8707C77.7614 33.9303 77.6729 33.8337 77.6729 33.7146V32.6918C77.6729 32.5726 77.7614 32.4761 77.8707 32.4761H89.2561C89.3653 32.4761 89.4539 32.5726 89.4539 32.6918V33.7146C89.4539 33.8337 89.3653 33.9303 89.2561 33.9303Z" fill="url(#paint3_linear_2004_3524)"/>
<path d="M72.6303 28.7942H68.1919C68.0467 28.7942 67.929 28.6659 67.929 28.5075V24.5567C67.929 24.3984 68.0467 24.27 68.1919 24.27H72.6303C72.7756 24.27 72.8933 24.3984 72.8933 24.5567V28.5075C72.8933 28.6659 72.7756 28.7942 72.6303 28.7942Z" fill="url(#paint4_linear_2004_3524)"/>
<path d="M68.9436 26.3722C69.1235 26.2571 69.355 26.3258 69.4566 26.5244L69.9345 27.4585C69.9823 27.552 70.1075 27.5461 70.1477 27.4484L71.333 24.571C71.3922 24.4275 71.5882 24.476 71.5861 24.6333C71.5739 25.5135 71.3598 27.1864 70.07 28.5868C70.07 28.5868 69.3593 28.2856 68.7869 26.9151C68.7042 26.7172 68.7716 26.4822 68.9436 26.3722Z" fill="url(#paint5_linear_2004_3524)"/>
<path d="M58.3764 37.9424H34.1233C33.7119 37.9424 33.3784 37.5788 33.3784 37.1302V22.8122C33.3784 22.3637 33.7119 22 34.1233 22H58.3764C58.7878 22 59.1213 22.3637 59.1213 22.8122V37.1302C59.1213 37.5788 58.7878 37.9424 58.3764 37.9424Z" fill="url(#paint6_linear_2004_3524)"/>
<path d="M55.7105 37.2653H36.4452C35.0583 37.2653 33.9341 36.0394 33.9341 34.5273V25.4149C33.9341 23.9027 35.0584 22.6769 36.4452 22.6769H55.7105C57.0974 22.6769 58.2217 23.9027 58.2217 25.4149V34.5273C58.2217 36.0394 57.0974 37.2653 55.7105 37.2653Z" fill="#ABCBFF"/>
<path d="M56.8381 27.8243H45.4527C45.3434 27.8243 45.2549 27.7278 45.2549 27.6086V26.5858C45.2549 26.4667 45.3434 26.3701 45.4527 26.3701H56.8381C56.9474 26.3701 57.0359 26.4667 57.0359 26.5858V27.6086C57.0359 27.7278 56.9474 27.8243 56.8381 27.8243Z" fill="url(#paint7_linear_2004_3524)"/>
<path d="M56.8381 30.9404H45.4527C45.3434 30.9404 45.2549 30.8439 45.2549 30.7247V29.7019C45.2549 29.5828 45.3434 29.4862 45.4527 29.4862H56.8381C56.9474 29.4862 57.0359 29.5828 57.0359 29.7019V30.7247C57.0359 30.8439 56.9473 30.9404 56.8381 30.9404Z" fill="url(#paint8_linear_2004_3524)"/>
<path d="M56.8381 33.9297H45.4527C45.3434 33.9297 45.2549 33.8331 45.2549 33.714V32.6911C45.2549 32.572 45.3434 32.4755 45.4527 32.4755H56.8381C56.9474 32.4755 57.0359 32.572 57.0359 32.6911V33.714C57.0359 33.8331 56.9474 33.9297 56.8381 33.9297Z" fill="url(#paint9_linear_2004_3524)"/>
<path d="M40.2131 28.7938H35.7746C35.6294 28.7938 35.5117 28.6654 35.5117 28.5071V24.5562C35.5117 24.3979 35.6294 24.2695 35.7746 24.2695H40.2131C40.3583 24.2695 40.476 24.3979 40.476 24.5562V28.5071C40.4761 28.6654 40.3583 28.7938 40.2131 28.7938Z" fill="url(#paint10_linear_2004_3524)"/>
<path d="M58.3764 55.9424H34.1233C33.7119 55.9424 33.3784 55.5788 33.3784 55.1302V40.8122C33.3784 40.3637 33.7119 40 34.1233 40H58.3764C58.7878 40 59.1213 40.3637 59.1213 40.8122V55.1302C59.1213 55.5788 58.7878 55.9424 58.3764 55.9424Z" fill="url(#paint11_linear_2004_3524)"/>
<path d="M55.7103 55.2656H36.4449C35.0581 55.2656 33.9338 54.0397 33.9338 52.5275V43.4151C33.9338 41.9029 35.0581 40.6771 36.4449 40.6771H55.7103C57.0972 40.6771 58.2214 41.903 58.2214 43.4151V52.5275C58.2214 54.0397 57.0972 55.2656 55.7103 55.2656Z" fill="#ABCBFF"/>
<path d="M56.8381 45.8243H45.4527C45.3434 45.8243 45.2549 45.7278 45.2549 45.6086V44.5858C45.2549 44.4667 45.3434 44.3701 45.4527 44.3701H56.8381C56.9474 44.3701 57.0359 44.4667 57.0359 44.5858V45.6086C57.0359 45.7278 56.9474 45.8243 56.8381 45.8243Z" fill="url(#paint12_linear_2004_3524)"/>
<path d="M56.8381 48.9404H45.4527C45.3434 48.9404 45.2549 48.8439 45.2549 48.7247V47.7019C45.2549 47.5828 45.3434 47.4862 45.4527 47.4862H56.8381C56.9474 47.4862 57.0359 47.5828 57.0359 47.7019V48.7247C57.0359 48.8439 56.9474 48.9404 56.8381 48.9404Z" fill="url(#paint13_linear_2004_3524)"/>
<path d="M56.8381 51.9298H45.4527C45.3434 51.9298 45.2549 51.8332 45.2549 51.7141V50.6913C45.2549 50.5722 45.3434 50.4756 45.4527 50.4756H56.8381C56.9474 50.4756 57.0359 50.5722 57.0359 50.6913V51.7141C57.0359 51.8332 56.9474 51.9298 56.8381 51.9298Z" fill="url(#paint14_linear_2004_3524)"/>
<path d="M40.2131 46.7937H35.7746C35.6294 46.7937 35.5117 46.6654 35.5117 46.5071V42.5562C35.5117 42.3979 35.6294 42.2695 35.7746 42.2695H40.2131C40.3583 42.2695 40.476 42.3979 40.476 42.5562V46.5071C40.476 46.6654 40.3583 46.7937 40.2131 46.7937Z" fill="white"/>
<path d="M26.0234 37.9424H1.70823C1.29579 37.9424 0.961426 37.5788 0.961426 37.1302V22.8122C0.961426 22.3637 1.29579 22 1.70823 22H26.0234C26.4358 22 26.7702 22.3637 26.7702 22.8122V37.1302C26.7702 37.5788 26.4358 37.9424 26.0234 37.9424Z" fill="url(#paint15_linear_2004_3524)"/>
<path d="M23.351 37.2656H4.03633C2.64591 37.2656 1.5188 36.0397 1.5188 34.5275V25.4151C1.5188 23.9029 2.64595 22.6771 4.03633 22.6771H23.351C24.7414 22.6771 25.8685 23.903 25.8685 25.4151V34.5275C25.8685 36.0397 24.7414 37.2656 23.351 37.2656Z" fill="#ABCBFF"/>
<path d="M24.4813 27.8244H13.0667C12.9572 27.8244 12.8684 27.7279 12.8684 27.6088V26.5859C12.8684 26.4668 12.9572 26.3702 13.0667 26.3702H24.4813C24.5908 26.3702 24.6796 26.4668 24.6796 26.5859V27.6088C24.6796 27.7279 24.5908 27.8244 24.4813 27.8244Z" fill="url(#paint16_linear_2004_3524)"/>
<path d="M24.4813 30.9409H13.0667C12.9572 30.9409 12.8684 30.8443 12.8684 30.7252V29.7024C12.8684 29.5833 12.9572 29.4867 13.0667 29.4867H24.4813C24.5908 29.4867 24.6796 29.5833 24.6796 29.7024V30.7252C24.6796 30.8443 24.5908 30.9409 24.4813 30.9409Z" fill="url(#paint17_linear_2004_3524)"/>
<path d="M24.4813 33.9298H13.0667C12.9572 33.9298 12.8684 33.8332 12.8684 33.7141V32.6913C12.8684 32.5721 12.9572 32.4756 13.0667 32.4756H24.4813C24.5908 32.4756 24.6796 32.5721 24.6796 32.6913V33.7141C24.6796 33.8332 24.5908 33.9298 24.4813 33.9298Z" fill="url(#paint18_linear_2004_3524)"/>
<path d="M7.81351 28.7942H3.36369C3.21811 28.7942 3.1001 28.6659 3.1001 28.5076V24.5567C3.1001 24.3984 3.21811 24.27 3.36369 24.27H7.81351C7.95909 24.27 8.0771 24.3984 8.0771 24.5567V28.5076C8.0771 28.6658 7.95909 28.7942 7.81351 28.7942Z" fill="url(#paint19_linear_2004_3524)"/>
<path d="M90.7937 55.9424H66.5406C66.1292 55.9424 65.7957 55.5787 65.7957 55.1302V40.8122C65.7957 40.3637 66.1292 40 66.5406 40H90.7937C91.2051 40 91.5386 40.3637 91.5386 40.8122V55.1302C91.5385 55.5787 91.2051 55.9424 90.7937 55.9424Z" fill="url(#paint20_linear_2004_3524)"/>
<path d="M88.1276 55.2655H68.8622C67.4753 55.2655 66.3511 54.0397 66.3511 52.5275V43.4151C66.3511 41.9029 67.4753 40.6771 68.8622 40.6771H88.1276C89.5144 40.6771 90.6387 41.903 90.6387 43.4151V52.5275C90.6387 54.0397 89.5144 55.2655 88.1276 55.2655Z" fill="#ABCBFF"/>
<path d="M89.2561 45.8243H77.8707C77.7614 45.8243 77.6729 45.7278 77.6729 45.6086V44.5858C77.6729 44.4667 77.7614 44.3701 77.8707 44.3701H89.2561C89.3653 44.3701 89.4539 44.4667 89.4539 44.5858V45.6086C89.4539 45.7278 89.3653 45.8243 89.2561 45.8243Z" fill="url(#paint21_linear_2004_3524)"/>
<path d="M89.2561 48.9409H77.8707C77.7614 48.9409 77.6729 48.8443 77.6729 48.7252V47.7024C77.6729 47.5833 77.7614 47.4867 77.8707 47.4867H89.2561C89.3653 47.4867 89.4539 47.5833 89.4539 47.7024V48.7252C89.4539 48.8443 89.3653 48.9409 89.2561 48.9409Z" fill="url(#paint22_linear_2004_3524)"/>
<path d="M89.2561 51.9303H77.8707C77.7614 51.9303 77.6729 51.8337 77.6729 51.7146V50.6918C77.6729 50.5726 77.7614 50.4761 77.8707 50.4761H89.2561C89.3653 50.4761 89.4539 50.5726 89.4539 50.6918V51.7146C89.4539 51.8337 89.3653 51.9303 89.2561 51.9303Z" fill="url(#paint23_linear_2004_3524)"/>
<path d="M72.6303 46.7942H68.1919C68.0467 46.7942 67.929 46.6659 67.929 46.5076V42.5567C67.929 42.3984 68.0467 42.27 68.1919 42.27H72.6303C72.7756 42.27 72.8933 42.3984 72.8933 42.5567V46.5076C72.8933 46.6658 72.7756 46.7942 72.6303 46.7942Z" fill="url(#paint24_linear_2004_3524)"/>
<path d="M26.2269 17H1.43886C1.17519 17 0.961426 16.7813 0.961426 16.5115V11.4885C0.961426 11.2187 1.17519 11 1.43886 11H26.2269C26.4906 11 26.7043 11.2187 26.7043 11.4885V16.5115C26.7043 16.7813 26.4906 17 26.2269 17Z" fill="white"/>
<path d="M58.6439 17H33.8559C33.5922 17 33.3784 16.7813 33.3784 16.5115V11.4885C33.3784 11.2187 33.5922 11 33.8559 11H58.6439C58.9076 11 59.1213 11.2187 59.1213 11.4885V16.5115C59.1213 16.7813 58.9076 17 58.6439 17Z" fill="white"/>
<path d="M91.0611 17H66.2731C66.0094 17 65.7957 16.7813 65.7957 16.5115V11.4885C65.7957 11.2187 66.0094 11 66.2731 11H91.0611C91.3248 11 91.5386 11.2187 91.5386 11.4885V16.5115C91.5386 16.7813 91.3248 17 91.0611 17Z" fill="white"/>
<path d="M55.0932 50.1378H25.6616C25.2339 50.1378 24.8872 49.7742 24.8872 49.3256V32.4948C24.8872 32.0463 25.2339 31.6826 25.6616 31.6826H55.0932C55.5209 31.6826 55.8676 32.0463 55.8676 32.4948V49.3256C55.8676 49.7742 55.5209 50.1378 55.0932 50.1378Z" fill="url(#paint25_linear_2004_3524)"/>
<path d="M54.0106 49.3541H26.3303C25.9026 49.3541 25.5559 48.9904 25.5559 48.5418V33.2784C25.5559 32.8299 25.9026 32.4662 26.3303 32.4662H54.0106C54.4382 32.4662 54.7849 32.8299 54.7849 33.2784V48.5418C54.7849 48.9904 54.4382 49.3541 54.0106 49.3541Z" fill="url(#paint26_linear_2004_3524)"/>
<path opacity="0.8" d="M53.1527 38.4247H39.3861C39.2725 38.4247 39.1804 38.3281 39.1804 38.209V36.957C39.1804 36.8378 39.2725 36.7413 39.3861 36.7413H53.1527C53.2663 36.7413 53.3584 36.8378 53.3584 36.957V38.209C53.3584 38.3281 53.2663 38.4247 53.1527 38.4247Z" fill="white"/>
<path opacity="0.8" d="M53.1527 42.0321H39.3861C39.2725 42.0321 39.1804 41.9356 39.1804 41.8164V40.5644C39.1804 40.4453 39.2725 40.3487 39.3861 40.3487H53.1527C53.2663 40.3487 53.3584 40.4453 53.3584 40.5644V41.8164C53.3584 41.9356 53.2663 42.0321 53.1527 42.0321Z" fill="white"/>
<path opacity="0.8" d="M53.1527 45.4928H39.3861C39.2725 45.4928 39.1804 45.3962 39.1804 45.2771V44.025C39.1804 43.9059 39.2725 43.8094 39.3861 43.8094H53.1527C53.2663 43.8094 53.3584 43.9059 53.3584 44.025V45.2771C53.3584 45.3962 53.2663 45.4928 53.1527 45.4928Z" fill="white"/>
<path opacity="0.8" d="M33.1551 39.5471H27.7274C27.5765 39.5471 27.4541 39.4188 27.4541 39.2605V34.5965C27.4541 34.4382 27.5765 34.3098 27.7274 34.3098H33.1551C33.3061 34.3098 33.4284 34.4382 33.4284 34.5965V39.2605C33.4284 39.4188 33.3061 39.5471 33.1551 39.5471Z" fill="white"/>
<defs>
<linearGradient id="paint0_linear_2004_3524" x1="82.7591" y1="-1.88693" x2="74.3844" y2="52.9551" gradientUnits="userSpaceOnUse">
<stop stop-color="#76A6F5"/>
<stop offset="1" stop-color="#76A6F5"/>
</linearGradient>
<linearGradient id="paint1_linear_2004_3524" x1="77.6729" y1="27.0973" x2="89.4539" y2="27.0973" gradientUnits="userSpaceOnUse">
<stop stop-color="#DAE3FE"/>
<stop offset="1" stop-color="#E9EFFD"/>
</linearGradient>
<linearGradient id="paint2_linear_2004_3524" x1="77.6729" y1="30.2133" x2="89.4539" y2="30.2133" gradientUnits="userSpaceOnUse">
<stop stop-color="#DAE3FE"/>
<stop offset="1" stop-color="#E9EFFD"/>
</linearGradient>
<linearGradient id="paint3_linear_2004_3524" x1="77.6729" y1="33.2032" x2="89.4539" y2="33.2032" gradientUnits="userSpaceOnUse">
<stop stop-color="#DAE3FE"/>
<stop offset="1" stop-color="#E9EFFD"/>
</linearGradient>
<linearGradient id="paint4_linear_2004_3524" x1="67.9289" y1="26.5321" x2="72.8933" y2="26.5321" gradientUnits="userSpaceOnUse">
<stop stop-color="#DAE3FE"/>
<stop offset="1" stop-color="#E9EFFD"/>
</linearGradient>
<linearGradient id="paint5_linear_2004_3524" x1="76.058" y1="15.4176" x2="62.0261" y2="37.382" gradientUnits="userSpaceOnUse">
<stop stop-color="#BD99FF"/>
<stop offset="1" stop-color="#BD99FF"/>
</linearGradient>
<linearGradient id="paint6_linear_2004_3524" x1="50.9407" y1="-6.54957" x2="42.5661" y2="48.2925" gradientUnits="userSpaceOnUse">
<stop stop-color="#76A6F5"/>
<stop offset="1" stop-color="#76A6F5"/>
</linearGradient>
<linearGradient id="paint7_linear_2004_3524" x1="45.2549" y1="27.0972" x2="57.0359" y2="27.0972" gradientUnits="userSpaceOnUse">
<stop stop-color="#DAE3FE"/>
<stop offset="1" stop-color="#E9EFFD"/>
</linearGradient>
<linearGradient id="paint8_linear_2004_3524" x1="45.2549" y1="30.2133" x2="57.0359" y2="30.2133" gradientUnits="userSpaceOnUse">
<stop stop-color="#DAE3FE"/>
<stop offset="1" stop-color="#E9EFFD"/>
</linearGradient>
<linearGradient id="paint9_linear_2004_3524" x1="45.2549" y1="33.2026" x2="57.0359" y2="33.2026" gradientUnits="userSpaceOnUse">
<stop stop-color="#DAE3FE"/>
<stop offset="1" stop-color="#E9EFFD"/>
</linearGradient>
<linearGradient id="paint10_linear_2004_3524" x1="35.5117" y1="26.5316" x2="40.476" y2="26.5316" gradientUnits="userSpaceOnUse">
<stop stop-color="#DAE3FE"/>
<stop offset="1" stop-color="#E9EFFD"/>
</linearGradient>
<linearGradient id="paint11_linear_2004_3524" x1="48.9675" y1="35.1109" x2="35.4528" y2="88.9043" gradientUnits="userSpaceOnUse">
<stop stop-color="#76A6F5"/>
<stop offset="1" stop-color="#76A6F5"/>
</linearGradient>
<linearGradient id="paint12_linear_2004_3524" x1="45.2549" y1="45.0972" x2="57.0359" y2="45.0972" gradientUnits="userSpaceOnUse">
<stop stop-color="#DAE3FE"/>
<stop offset="1" stop-color="#E9EFFD"/>
</linearGradient>
<linearGradient id="paint13_linear_2004_3524" x1="45.2549" y1="48.2133" x2="57.0359" y2="48.2133" gradientUnits="userSpaceOnUse">
<stop stop-color="#DAE3FE"/>
<stop offset="1" stop-color="#E9EFFD"/>
</linearGradient>
<linearGradient id="paint14_linear_2004_3524" x1="45.2549" y1="51.2027" x2="57.0359" y2="51.2027" gradientUnits="userSpaceOnUse">
<stop stop-color="#DAE3FE"/>
<stop offset="1" stop-color="#E9EFFD"/>
</linearGradient>
<linearGradient id="paint15_linear_2004_3524" x1="19.0943" y1="-10.6314" x2="10.74" y2="44.217" gradientUnits="userSpaceOnUse">
<stop stop-color="#76A6F5"/>
<stop offset="1" stop-color="#76A6F5"/>
</linearGradient>
<linearGradient id="paint16_linear_2004_3524" x1="12.8684" y1="27.0973" x2="24.6796" y2="27.0973" gradientUnits="userSpaceOnUse">
<stop stop-color="#DAE3FE"/>
<stop offset="1" stop-color="#E9EFFD"/>
</linearGradient>
<linearGradient id="paint17_linear_2004_3524" x1="12.8684" y1="30.2138" x2="24.6796" y2="30.2138" gradientUnits="userSpaceOnUse">
<stop stop-color="#DAE3FE"/>
<stop offset="1" stop-color="#E9EFFD"/>
</linearGradient>
<linearGradient id="paint18_linear_2004_3524" x1="12.8684" y1="33.2027" x2="24.6796" y2="33.2027" gradientUnits="userSpaceOnUse">
<stop stop-color="#DAE3FE"/>
<stop offset="1" stop-color="#E9EFFD"/>
</linearGradient>
<linearGradient id="paint19_linear_2004_3524" x1="3.10008" y1="26.5321" x2="8.07712" y2="26.5321" gradientUnits="userSpaceOnUse">
<stop stop-color="#DAE3FE"/>
<stop offset="1" stop-color="#E9EFFD"/>
</linearGradient>
<linearGradient id="paint20_linear_2004_3524" x1="80.8952" y1="40.0321" x2="72.6331" y2="64.7939" gradientUnits="userSpaceOnUse">
<stop stop-color="#76A6F5"/>
<stop offset="1" stop-color="#76A6F5"/>
</linearGradient>
<linearGradient id="paint21_linear_2004_3524" x1="77.6729" y1="45.0972" x2="89.4539" y2="45.0972" gradientUnits="userSpaceOnUse">
<stop stop-color="#DAE3FE"/>
<stop offset="1" stop-color="#E9EFFD"/>
</linearGradient>
<linearGradient id="paint22_linear_2004_3524" x1="77.6729" y1="48.2138" x2="89.4539" y2="48.2138" gradientUnits="userSpaceOnUse">
<stop stop-color="#DAE3FE"/>
<stop offset="1" stop-color="#E9EFFD"/>
</linearGradient>
<linearGradient id="paint23_linear_2004_3524" x1="77.6729" y1="51.2032" x2="89.4539" y2="51.2032" gradientUnits="userSpaceOnUse">
<stop stop-color="#DAE3FE"/>
<stop offset="1" stop-color="#E9EFFD"/>
</linearGradient>
<linearGradient id="paint24_linear_2004_3524" x1="67.9289" y1="44.5321" x2="72.8933" y2="44.5321" gradientUnits="userSpaceOnUse">
<stop stop-color="#DAE3FE"/>
<stop offset="1" stop-color="#E9EFFD"/>
</linearGradient>
<linearGradient id="paint25_linear_2004_3524" x1="49.2766" y1="4.5086" x2="46.4364" y2="15.0696" gradientUnits="userSpaceOnUse">
<stop stop-color="#BD99FF"/>
<stop offset="1" stop-color="#8847FE"/>
</linearGradient>
<linearGradient id="paint26_linear_2004_3524" x1="39.9874" y1="26.5149" x2="40.8192" y2="85.9914" gradientUnits="userSpaceOnUse">
<stop stop-color="#BD99FF"/>
<stop offset="1" stop-color="#BD99FF"/>
</linearGradient>
</defs>
</svg>
