<svg width="236" height="68" viewBox="0 0 236 68" fill="none" xmlns="http://www.w3.org/2000/svg">
<rect width="235.5" height="68" fill="#E8EFFF"/>
<path d="M136.5 52.5C146.717 42.2827 146.717 25.7173 136.5 15.5C126.283 5.28273 109.717 5.28273 99.5 15.5C89.2827 25.7173 89.2827 42.2827 99.5 52.5C109.717 62.7173 126.283 62.7173 136.5 52.5Z" fill="#D3E4FF"/>
<path d="M129.692 62H103.058C101.346 62 100.022 60.7376 100.116 59.1949L103.184 8.80513C103.278 7.26242 104.756 6 106.468 6H133.102C134.814 6 136.138 7.26242 136.044 8.80513L132.976 59.1949C132.882 60.7376 131.405 62 129.692 62Z" fill="#76A6F5"/>
<path opacity="0.8" d="M128.558 60.9231H103.108C101.367 60.9231 100.021 59.6849 100.116 58.1719L103.236 8.75118C103.332 7.23814 104.835 6 106.576 6H132.025C133.766 6 135.113 7.23814 135.017 8.75118L131.897 58.1719C131.802 59.6849 130.299 60.9231 128.558 60.9231Z" fill="#C4DAFF"/>
<path d="M115.803 16.7159H108.56C107.832 16.7159 107.268 16.0907 107.308 15.3265C107.348 14.5622 107.977 13.937 108.706 13.937H115.948C116.677 13.937 117.24 14.5625 117.2 15.3265C117.16 16.0904 116.531 16.7159 115.803 16.7159Z" fill="white"/>
<path d="M117.2 15.3262C117.128 16.7074 116.001 17.8274 114.684 17.8274C113.367 17.8274 112.358 16.7077 112.431 15.3262C112.503 13.9449 113.629 12.825 114.946 12.825C116.263 12.8253 117.272 13.9449 117.2 15.3262Z" fill="#BD99FF"/>
<path d="M115.337 25.6044H108.095C107.367 25.6044 106.803 24.9793 106.843 24.215C106.883 23.4508 107.512 22.8256 108.241 22.8256H115.483C116.212 22.8256 116.775 23.4508 116.735 24.215C116.695 24.9793 116.066 25.6044 115.337 25.6044Z" fill="white"/>
<path d="M112.765 25.9607C113.735 24.9708 113.797 23.3874 112.904 22.4242C112.01 21.461 110.5 21.4827 109.53 22.4726C108.559 23.4626 108.497 25.0459 109.391 26.0092C110.284 26.9724 111.795 26.9507 112.765 25.9607Z" fill="#76A6F5"/>
<path opacity="0.3" d="M112.765 25.9607C113.735 24.9708 113.797 23.3874 112.904 22.4242C112.01 21.461 110.5 21.4827 109.53 22.4726C108.559 23.4626 108.497 25.0459 109.391 26.0092C110.284 26.9724 111.795 26.9507 112.765 25.9607Z" fill="#76A6F5"/>
<path d="M107.166 43.3822H114.408C115.136 43.3822 115.765 42.757 115.805 41.9928C115.845 41.2286 115.282 40.6034 114.553 40.6034H107.311C106.582 40.6034 105.953 41.2286 105.913 41.9928C105.873 42.757 106.437 43.3822 107.166 43.3822Z" fill="white"/>
<path d="M109.917 43.7399C110.887 42.75 110.95 41.1665 110.056 40.2031C109.163 39.2398 107.652 39.2614 106.681 40.2513C105.711 41.2413 105.649 42.8247 106.542 43.7881C107.436 44.7514 108.947 44.7299 109.917 43.7399Z" fill="#76A6F5"/>
<path opacity="0.7" d="M109.917 43.7399C110.887 42.75 110.95 41.1665 110.056 40.2031C109.163 39.2398 107.652 39.2614 106.681 40.2513C105.711 41.2413 105.649 42.8247 106.542 43.7881C107.436 44.7514 108.947 44.7299 109.917 43.7399Z" fill="#76A6F5"/>
<path d="M113.943 52.271H106.7C105.972 52.271 105.408 51.6459 105.448 50.8816C105.488 50.1174 106.117 49.4922 106.846 49.4922H114.088C114.816 49.4922 115.38 50.1174 115.34 50.8816C115.3 51.6459 114.671 52.271 113.943 52.271Z" fill="white"/>
<path d="M115.152 50.5012C115.08 51.8824 113.953 53.0024 112.637 53.0024C111.32 53.0024 110.31 51.8827 110.383 50.5012C110.455 49.1199 111.581 48 112.898 48C114.215 48 115.224 49.1199 115.152 50.5012Z" fill="#BD99FF"/>
<path d="M107.63 34.4934H114.872C115.601 34.4934 116.23 33.8682 116.27 33.104C116.31 32.3397 115.746 31.7146 115.018 31.7146H107.775C107.047 31.7146 106.418 32.3397 106.378 33.104C106.338 33.8682 106.902 34.4934 107.63 34.4934Z" fill="white"/>
<path d="M106.378 33.104C106.306 34.4852 107.315 35.6052 108.632 35.6052C109.949 35.6052 111.075 34.4855 111.147 33.104C111.219 31.7227 110.21 30.6028 108.893 30.6028C107.576 30.6028 106.45 31.7227 106.378 33.104Z" fill="#76A6F5"/>
<path opacity="0.7" d="M106.378 33.104C106.306 34.4852 107.315 35.6052 108.632 35.6052C109.949 35.6052 111.075 34.4855 111.147 33.104C111.219 31.7227 110.21 30.6028 108.893 30.6028C107.576 30.6028 106.45 31.7227 106.378 33.104Z" fill="#76A6F5"/>
<path d="M131.667 14.9095H120.933C120.641 14.9095 120.416 14.6595 120.432 14.3537C120.448 14.048 120.699 13.798 120.991 13.798H131.726C132.017 13.798 132.242 14.048 132.226 14.3537C132.21 14.6592 131.959 14.9095 131.667 14.9095Z" fill="white"/>
<path d="M128.091 16.8547H120.831C120.539 16.8547 120.314 16.6047 120.33 16.299C120.346 15.9932 120.598 15.7432 120.889 15.7432H128.149C128.441 15.7432 128.666 15.9932 128.65 16.299C128.634 16.6047 128.383 16.8547 128.091 16.8547Z" fill="white"/>
<path d="M128.451 50.4647H119.073C118.781 50.4647 118.556 50.2146 118.572 49.9089C118.588 49.6031 118.84 49.3531 119.131 49.3531H128.509C128.801 49.3531 129.026 49.6031 129.01 49.9089C128.994 50.2146 128.743 50.4647 128.451 50.4647Z" fill="white"/>
<path d="M123.605 52.4101H118.971C118.68 52.4101 118.454 52.1601 118.47 51.8544C118.486 51.5486 118.738 51.2986 119.029 51.2986H123.663C123.955 51.2986 124.18 51.5486 124.164 51.8544C124.148 52.1599 123.896 52.4101 123.605 52.4101Z" fill="white"/>
<path d="M131.159 24.632H120.424C120.133 24.632 119.881 24.882 119.865 25.1878C119.849 25.4935 120.074 25.7435 120.366 25.7435H131.101C131.392 25.7435 131.644 25.4935 131.66 25.1878C131.676 24.882 131.45 24.632 131.159 24.632Z" fill="white"/>
<path d="M127.786 22.6866H120.526C120.234 22.6866 119.983 22.9367 119.967 23.2424C119.951 23.5482 120.176 23.7982 120.468 23.7982H127.728C128.019 23.7982 128.271 23.5482 128.287 23.2424C128.303 22.9369 128.078 22.6866 127.786 22.6866Z" fill="white"/>
<path d="M125.509 32.687H120.003C119.712 32.687 119.486 32.437 119.502 32.1312C119.518 31.8255 119.77 31.5755 120.061 31.5755H125.567C125.858 31.5755 126.084 31.8255 126.068 32.1312C126.052 32.437 125.8 32.687 125.509 32.687Z" fill="white"/>
<path d="M130.738 32.687H127.495C127.203 32.687 126.978 32.437 126.994 32.1312C127.01 31.8255 127.261 31.5755 127.553 31.5755H130.796C131.087 31.5755 131.313 31.8255 131.296 32.1312C131.28 32.437 131.029 32.687 130.738 32.687Z" fill="white"/>
<path d="M127.161 34.6323H119.901C119.61 34.6323 119.384 34.3823 119.4 34.0766C119.416 33.7708 119.668 33.5208 119.959 33.5208H127.219C127.511 33.5208 127.736 33.7708 127.72 34.0766C127.704 34.3821 127.453 34.6323 127.161 34.6323Z" fill="white"/>
<path d="M122.672 42.4095H119.494C119.203 42.4095 118.951 42.6595 118.935 42.9653C118.919 43.271 119.145 43.521 119.436 43.521H122.614C122.905 43.521 123.157 43.271 123.173 42.9653C123.189 42.6598 122.964 42.4095 122.672 42.4095Z" fill="white"/>
<path d="M128.343 42.4095H124.658C124.367 42.4095 124.115 42.6595 124.099 42.9653C124.083 43.271 124.309 43.521 124.6 43.521H128.285C128.576 43.521 128.828 43.271 128.844 42.9653C128.859 42.6598 128.634 42.4095 128.343 42.4095Z" fill="white"/>
<path d="M126.856 40.4643H119.596C119.304 40.4643 119.053 40.7143 119.037 41.0201C119.021 41.3258 119.246 41.5758 119.538 41.5758H126.798C127.089 41.5758 127.341 41.3258 127.357 41.0201C127.373 40.7143 127.148 40.4643 126.856 40.4643Z" fill="white"/>
</svg>
