<svg width="18" height="19" viewBox="0 0 18 19" fill="none" xmlns="http://www.w3.org/2000/svg">
<path opacity="0.5" d="M2.8834 3.3834C2.03887 4.22792 2.03887 5.59717 2.8834 6.4417L4.0742 7.6325C4.08314 7.62217 4.49018 8.00975 4.5 7.99992L7.5 4.99992C7.50983 4.99012 7.12219 4.58311 7.13249 4.5742L5.94169 3.3834C5.09717 2.53887 3.72792 2.53887 2.8834 3.3834Z" fill="#5052B2"/>
<path opacity="0.5" d="M3.8499 11.9804C3.97061 11.6732 4.40375 11.6732 4.52446 11.9804L4.64215 12.2799C4.679 12.3737 4.75297 12.4479 4.84641 12.4849L5.14481 12.603C5.45087 12.7242 5.45087 13.1589 5.14481 13.2801L4.84641 13.3982C4.75297 13.4352 4.679 13.5094 4.64215 13.6033L4.52446 13.9027C4.40375 14.2099 3.97061 14.2099 3.8499 13.9027L3.73221 13.6033C3.69536 13.5094 3.62139 13.4352 3.52795 13.3982L3.22955 13.2801C2.92349 13.1589 2.92349 12.7242 3.22955 12.603L3.52795 12.4849C3.62139 12.4479 3.69536 12.3737 3.73221 12.2799L3.8499 11.9804Z" fill="#5052B2"/>
<path opacity="0.2" d="M14.9749 7.34758C15.0956 7.04039 15.5288 7.04039 15.6495 7.34758L15.7671 7.64709C15.804 7.74088 15.878 7.81512 15.9714 7.8521L16.2698 7.97023C16.5759 8.09139 16.5759 8.52616 16.2698 8.64729L15.9714 8.76541C15.878 8.80239 15.804 8.87664 15.7671 8.97039L15.6495 9.26994C15.5288 9.57714 15.0956 9.57714 14.9749 9.26994L14.8572 8.97039C14.8203 8.87664 14.7464 8.80239 14.6529 8.76541L14.3545 8.64729C14.0485 8.52616 14.0485 8.09139 14.3545 7.97023L14.6529 7.8521C14.7464 7.81512 14.8203 7.74088 14.8572 7.64709L14.9749 7.34758Z" fill="#5052B2"/>
<path opacity="0.7" d="M12.075 2.23039C12.1957 1.9232 12.6289 1.9232 12.7495 2.23039L13.0723 3.05185C13.1092 3.14564 13.1832 3.21988 13.2766 3.25687L14.095 3.58085C14.4011 3.70201 14.4011 4.13675 14.095 4.25791L13.2766 4.58189C13.1832 4.61888 13.1092 4.69312 13.0723 4.7869L12.7496 5.60836C12.6289 5.91556 12.1957 5.91556 12.075 5.60837L11.7523 4.7869C11.7154 4.69312 11.6414 4.61888 11.548 4.58189L10.7296 4.25791C10.4235 4.13675 10.4235 3.70201 10.7296 3.58085L11.548 3.25687C11.6414 3.21988 11.7154 3.14564 11.7523 3.05185L12.075 2.23039Z" fill="#5052B2"/>
<path d="M7.92608 5.36786C7.91715 5.37817 7.50998 4.99039 7.50015 5.00018L4.50018 8.00018C4.49037 8.00997 4.87811 8.41722 4.86777 8.42614L12.0585 15.6168C12.903 16.4614 14.2723 16.4614 15.1168 15.6168C15.9614 14.7723 15.9614 13.4031 15.1168 12.5586L7.92608 5.36786Z" fill="#5052B2"/>
</svg>
