<svg width="200" height="200" viewBox="0 0 200 200" fill="none" xmlns="http://www.w3.org/2000/svg">
<circle cx="100" cy="100" r="100" fill="#FDE5E2"/>
<path d="M63 57H136.667C141.175 57 145.499 58.7911 148.687 61.9792C151.876 65.1673 153.667 69.4913 153.667 74V125C153.667 129.509 151.876 133.833 148.687 137.021C145.499 140.209 141.175 142 136.667 142H63C58.4913 142 54.1673 140.209 50.9792 137.021C47.7911 133.833 46 129.509 46 125V74C46 69.4913 47.7911 65.1673 50.9792 61.9792C54.1673 58.7911 58.4913 57 63 57ZM63 62.6667C60.1667 62.6667 57.6733 63.63 55.7467 65.33L99.8333 93.8333L143.92 65.33C141.993 63.63 139.5 62.6667 136.667 62.6667H63ZM99.8333 100.69L52.4033 69.92C51.95 71.1667 51.6667 72.5833 51.6667 74V125C51.6667 128.006 52.8607 130.888 54.9861 133.014C57.1115 135.139 59.9942 136.333 63 136.333H136.667C139.672 136.333 142.555 135.139 144.681 133.014C146.806 130.888 148 128.006 148 125V74C148 72.5833 147.717 71.1667 147.263 69.92L99.8333 100.69Z" fill="#F96C70"/>
</svg>
