<svg width="120" height="120" viewBox="0 0 120 120" fill="none" xmlns="http://www.w3.org/2000/svg">
<circle cx="60" cy="60" r="60" fill="#1E88E5" fill-opacity="0.2"/>
<path d="M37.8006 34.2H82.0006C84.7058 34.2 87.3002 35.2746 89.2131 37.1875C91.1259 39.1003 92.2006 41.6947 92.2006 44.4V75C92.2006 77.7052 91.1259 80.2996 89.2131 82.2124C87.3002 84.1253 84.7058 85.2 82.0006 85.2H37.8006C35.0954 85.2 32.501 84.1253 30.5881 82.2124C28.6752 80.2996 27.6006 77.7052 27.6006 75V44.4C27.6006 41.6947 28.6752 39.1003 30.5881 37.1875C32.501 35.2746 35.0954 34.2 37.8006 34.2ZM37.8006 37.6C36.1006 37.6 34.6046 38.178 33.4486 39.198L59.9006 56.3L86.3526 39.198C85.1966 38.178 83.7006 37.6 82.0006 37.6H37.8006ZM59.9006 60.414L31.4426 41.952C31.1706 42.7 31.0006 43.55 31.0006 44.4V75C31.0006 76.8034 31.717 78.533 32.9923 79.8083C34.2675 81.0835 35.9971 81.8 37.8006 81.8H82.0006C83.8041 81.8 85.5337 81.0835 86.8089 79.8083C88.0842 78.533 88.8006 76.8034 88.8006 75V44.4C88.8006 43.55 88.6306 42.7 88.3586 41.952L59.9006 60.414Z" fill="#1E88E5"/>
</svg>
