<svg width="88" height="120" viewBox="0 0 88 120" fill="none" xmlns="http://www.w3.org/2000/svg">
<path d="M44 30C49.5228 30 54 25.5228 54 20C54 14.4772 49.5228 10 44 10C38.4772 10 34 14.4772 34 20C34 25.5228 38.4772 30 44 30Z" fill="#C1E4FF"/>
<path d="M59 35H29C27.6739 35 26.4021 35.5268 25.4645 36.4645C24.5268 37.4021 24 38.6739 24 40V75H34V110H54V75H64V40C64 38.6739 63.4732 37.4021 62.5355 36.4645C61.5979 35.5268 60.3261 35 59 35Z" fill="#C1E4FF"/>
<path fill-rule="evenodd" clip-rule="evenodd" d="M24 51.4283V77.1426H34V112.143H54V77.1426H64V51.4283H24Z" fill="#C1E4FF"/>
</svg>
