<svg width="18" height="12" viewBox="0 0 18 12" fill="none" xmlns="http://www.w3.org/2000/svg">
<g clip-path="url(#clip0_2286_24698)">
<mask id="mask0_2286_24698" style="mask-type:luminance" maskUnits="userSpaceOnUse" x="0" y="0" width="18" height="12">
<path d="M17.5783 0H0V12H17.5783V0Z" fill="white"/>
</mask>
<g mask="url(#mask0_2286_24698)">
<path d="M1.89867 7.91625C1.89867 8.60735 2.04599 9.1357 2.23855 9.45615C2.34116 9.63855 2.48893 9.7898 2.66684 9.8945C2.84474 9.99925 3.04645 10.0537 3.25146 10.0524C3.74661 10.0524 4.19958 9.9267 5.0725 8.68525C5.77182 7.6907 6.59583 6.2978 7.15091 5.4182L8.08983 3.93549C8.74207 2.90576 9.49583 1.76104 10.3626 0.98262C11.0687 0.351833 11.831 0 12.5981 0C13.8861 0 15.1129 0.76712 16.0519 2.20586C17.0795 3.78157 17.5802 5.7663 17.5802 7.81445C17.5802 9.03205 17.3466 9.9267 16.9493 10.6335C16.566 11.317 15.8153 12 14.5567 12V10.0524C15.6344 10.0524 15.9015 9.03455 15.9015 7.86975C15.9015 6.20985 15.525 4.36775 14.6954 3.05152C14.1068 2.11791 13.3439 1.54744 12.5046 1.54744C11.5968 1.54744 10.8663 2.2511 10.0454 3.50576C9.60889 4.17235 9.16083 4.98471 8.65771 5.90135L8.10389 6.9066C6.99135 8.93405 6.70953 9.3958 6.15328 10.1579C5.18011 11.4974 4.34751 12 3.25146 12C1.95124 12 1.12906 11.4214 0.622907 10.5493C0.204172 9.83875 0 8.9064 0 7.844L1.89867 7.91625Z" fill="#0081FB"/>
<path d="M1.49707 2.34346C2.36755 0.9644 3.62376 0 5.06455 0C5.89897 0 6.72853 0.251309 7.59472 0.980735C8.5422 1.7755 9.55083 3.08419 10.8119 5.24105L11.2637 6.0151C12.3542 7.8823 12.9753 8.8423 13.3378 9.2959C13.8048 9.8777 14.1325 10.0499 14.5567 10.0499C15.6344 10.0499 15.9016 9.03205 15.9016 7.8672L17.5765 7.8132C17.5765 9.0308 17.343 9.92545 16.9456 10.6322C16.566 11.317 15.8154 12 14.5567 12C13.7743 12 13.0811 11.8253 12.3145 11.0821C11.7252 10.5116 11.0363 9.4982 10.5063 8.5872L8.92978 5.88065C8.13875 4.52231 7.41316 3.50953 6.99318 3.05341C6.54084 2.5577 5.96071 1.9621 5.034 1.9621C4.28395 1.9621 3.64699 2.50304 3.11394 3.33047L1.49707 2.34346Z" fill="url(#paint0_linear_2286_24698)"/>
<path d="M5.03397 1.9621C4.28393 1.9621 3.64697 2.50304 3.11392 3.33047C2.3602 4.49969 1.89867 6.24125 1.89867 7.91625C1.89867 8.60735 2.04599 9.1357 2.23855 9.45615L0.619852 10.5493C0.204172 9.83875 0 8.9064 0 7.844C0 5.91205 0.515929 3.89843 1.49706 2.34346C2.36754 0.9644 3.62374 0 5.06457 0L5.03397 1.9621Z" fill="url(#paint1_linear_2286_24698)"/>
</g>
</g>
<defs>
<linearGradient id="paint0_linear_2286_24698" x1="3.81081" y1="5.689" x2="15.9161" y2="6.28388" gradientUnits="userSpaceOnUse">
<stop stop-color="#0064E1"/>
<stop offset="0.4" stop-color="#0064E1"/>
<stop offset="0.83" stop-color="#0073EE"/>
<stop offset="1" stop-color="#0082FB"/>
</linearGradient>
<linearGradient id="paint1_linear_2286_24698" x1="2.53197" y1="8.733" x2="2.53197" y2="4.14659" gradientUnits="userSpaceOnUse">
<stop stop-color="#0082FB"/>
<stop offset="1" stop-color="#0064E0"/>
</linearGradient>
<clipPath id="clip0_2286_24698">
<rect width="18" height="12" fill="white"/>
</clipPath>
</defs>
</svg>
