<svg width="37" height="24" viewBox="0 0 37 24" fill="none" xmlns="http://www.w3.org/2000/svg">
<g id="meta-icon 1" clip-path="url(#clip0_165_32303)">
<path id="Vector" d="M3.90283 15.8325C3.90283 17.2147 4.20565 18.2714 4.60147 18.9123C4.81239 19.2771 5.11613 19.5796 5.48183 19.789C5.84752 19.9985 6.26214 20.1074 6.68356 20.1047C7.70136 20.1047 8.63246 19.8534 10.4268 17.3705C11.8643 15.3814 13.5581 12.5956 14.6991 10.8364L16.6291 7.87099C17.9698 5.81152 19.5192 3.52209 21.3009 1.96524C22.7523 0.703665 24.3192 0 25.8961 0C28.5437 0 31.0655 1.53424 32.9956 4.41173C35.1079 7.56314 36.137 11.5326 36.137 15.6289C36.137 18.0641 35.657 19.8534 34.8402 21.267C34.0524 22.6341 32.5093 24 29.9221 24V20.1047C32.1374 20.1047 32.6865 18.0691 32.6865 15.7395C32.6865 12.4197 31.9125 8.7355 30.2073 6.10304C28.9973 4.23581 27.4291 3.09487 25.7039 3.09487C23.8379 3.09487 22.3363 4.5022 20.6488 7.01152C19.7516 8.34471 18.8306 9.96942 17.7964 11.8027L16.658 13.8132C14.3711 17.8681 13.7918 18.7916 12.6484 20.3158C10.648 22.9948 8.93654 24 6.68356 24C4.01089 24 2.32084 22.8427 1.28042 21.0986C0.419686 19.6775 0 17.8128 0 15.688L3.90283 15.8325Z" fill="#0081FB"/>
<path id="Vector_2" d="M3.07715 4.68691C4.86647 1.9288 7.44867 0 10.4103 0C12.1255 0 13.8307 0.502618 15.6112 1.96147C17.5588 3.55099 19.6321 6.16838 22.2244 10.4821L23.153 12.0302C25.3946 15.7646 26.6713 17.6846 27.4164 18.5918C28.3764 19.7554 29.0499 20.0997 29.922 20.0997C32.1373 20.0997 32.6864 18.0641 32.6864 15.7344L36.1293 15.6264C36.1293 18.0616 35.6493 19.8509 34.8325 21.2645C34.0522 22.6341 32.5092 24 29.922 24C28.3136 24 26.8887 23.6507 25.313 22.1642C24.1016 21.0232 22.6855 18.9964 21.5961 17.1744L18.3555 11.7613C16.7295 9.04461 15.238 7.01906 14.3747 6.10681C13.4449 5.11539 12.2524 3.92419 10.3475 3.92419C8.80573 3.92419 7.49642 5.00607 6.40071 6.66094L3.07715 4.68691Z" fill="url(#paint0_linear_165_32303)"/>
<path id="Vector_3" d="M10.3476 3.92419C8.80586 3.92419 7.49654 5.00607 6.40084 6.66094C4.85152 8.99937 3.90283 12.4825 3.90283 15.8325C3.90283 17.2147 4.20565 18.2714 4.60147 18.9123L1.27414 21.0986C0.419686 19.6775 0 17.8128 0 15.688C0 11.8241 1.06052 7.79686 3.07728 4.68691C4.8666 1.9288 7.4488 0 10.4105 0L10.3476 3.92419Z" fill="url(#paint1_linear_165_32303)"/>
</g>
<defs>
<linearGradient id="paint0_linear_165_32303" x1="7.83317" y1="11.378" x2="32.7128" y2="12.6346" gradientUnits="userSpaceOnUse">
<stop stop-color="#0064E1"/>
<stop offset="0.4" stop-color="#0064E1"/>
<stop offset="0.83" stop-color="#0073EE"/>
<stop offset="1" stop-color="#0082FB"/>
</linearGradient>
<linearGradient id="paint1_linear_165_32303" x1="5.20461" y1="17.466" x2="5.20461" y2="8.29319" gradientUnits="userSpaceOnUse">
<stop stop-color="#0082FB"/>
<stop offset="1" stop-color="#0064E0"/>
</linearGradient>
<clipPath id="clip0_165_32303">
<rect width="36.1332" height="24" fill="white"/>
</clipPath>
</defs>
</svg>
