<svg width="52" height="52" viewBox="0 0 52 52" fill="none" xmlns="http://www.w3.org/2000/svg">
<rect width="52" height="52" rx="4" fill="rgba(56, 152, 252, 1)" fill-opacity="0.2"/>
<path d="M25.8111 24.6817C25.6945 24.67 25.5545 24.67 25.4261 24.6817C22.6495 24.5883 20.4445 22.3133 20.4445 19.5133C20.4445 16.655 22.7545 14.3333 25.6245 14.3333C28.4828 14.3333 30.8045 16.655 30.8045 19.5133C30.7928 22.3133 28.5878 24.5883 25.8111 24.6817Z" stroke="rgba(56, 152, 252, 1)" stroke-width="2.4" stroke-linecap="round" stroke-linejoin="round"/>
<path d="M19.978 28.9867C17.1547 30.8767 17.1547 33.9567 19.978 35.835C23.1864 37.9817 28.448 37.9817 31.6564 35.835C34.4797 33.945 34.4797 30.865 31.6564 28.9867C28.4597 26.8517 23.198 26.8517 19.978 28.9867Z" stroke="rgba(56, 152, 252, 1)" stroke-width="2.4" stroke-linecap="round" stroke-linejoin="round"/>
</svg>
