<svg width="400" height="300" viewBox="0 0 450 372" fill="none" xmlns="http://www.w3.org/2000/svg">
<path d="M305.272 274.188H195.252C195.252 274.188 199.814 344.268 178.029 344.268C184.999 344.268 315.525 344.268 322.495 344.268C300.71 344.268 305.272 274.188 305.272 274.188Z" fill="#C0D9FF"/>
<path opacity="0.55" d="M194.003 316.314L304.92 293.841C304.717 282.727 305.272 274.188 305.272 274.188H195.252C195.252 274.188 196.721 296.784 194.003 316.314Z" fill="#3898FC"/>
<path d="M452.605 295.317H47.9191C37.7441 295.317 29.4961 287.069 29.4961 276.894V24.006C29.4961 13.831 37.7441 5.58301 47.9191 5.58301H452.605C462.78 5.58301 471.028 13.831 471.028 24.006V276.894C471.028 287.068 462.78 295.317 452.605 295.317Z" fill="#C0D9FF"/>
<path d="M443.877 285.048H56.647C48.499 285.048 41.895 278.443 41.895 270.296V30.604C41.895 22.457 48.5 15.8521 56.647 15.8521H443.878C452.026 15.8521 458.63 22.457 458.63 30.604V270.296C458.63 278.443 452.025 285.048 443.877 285.048Z" fill="white" stroke="#3898FC" stroke-width="2" stroke-miterlimit="10"/>
<path d="M41.894 49.8042H458.63" stroke="#3898FC" stroke-width="2" stroke-miterlimit="10"/>
<path d="M408.582 39.2299H121.48C117.546 39.2299 114.357 36.0409 114.357 32.1069C114.357 28.1729 117.546 24.9839 121.48 24.9839H408.582C412.516 24.9839 415.705 28.1729 415.705 32.1069C415.705 36.0409 412.516 39.2299 408.582 39.2299Z" fill="#E0EBFC"/>
<path d="M62.3451 32.4592C62.3451 34.5582 60.6441 36.2592 58.5451 36.2592C56.4461 36.2592 54.7451 34.5582 54.7451 32.4592C54.7451 30.3602 56.4461 28.6592 58.5451 28.6592C60.6441 28.6592 62.3451 30.3602 62.3451 32.4592Z" stroke="#3898FC" stroke-width="1.5" stroke-miterlimit="10"/>
<path d="M80.0802 32.4592C80.0802 34.5582 78.3792 36.2592 76.2802 36.2592C74.1812 36.2592 72.4802 34.5582 72.4802 32.4592C72.4802 30.3602 74.1822 28.6592 76.2802 28.6592C78.3792 28.6582 80.0802 30.3602 80.0802 32.4592Z" stroke="#3898FC" stroke-width="1.5" stroke-miterlimit="10"/>
<path d="M97.8151 32.4592C97.8151 34.5582 96.1141 36.2592 94.0151 36.2592C91.9161 36.2592 90.2151 34.5582 90.2151 32.4592C90.2151 30.3602 91.9161 28.6592 94.0151 28.6592C96.1141 28.6592 97.8151 30.3602 97.8151 32.4592Z" stroke="#3898FC" stroke-width="1.5" stroke-miterlimit="10"/>
<path d="M366.574 148.346H133.95C125.138 148.346 117.994 141.202 117.994 132.39C117.994 123.578 125.138 116.434 133.95 116.434H366.575C375.387 116.434 382.531 123.578 382.531 132.39C382.53 141.203 375.387 148.346 366.574 148.346Z" stroke="#3898FC" stroke-width="1.5" stroke-miterlimit="10"/>
<path d="M366.574 116.434H339.797V148.346H366.574C375.386 148.346 382.53 141.202 382.53 132.39C382.53 123.578 375.387 116.434 366.574 116.434Z" fill="#3898FC"/>
<path d="M371.236 140.088L365.954 134.805C367.022 133.377 367.605 131.631 367.605 129.843C367.605 125.268 363.884 121.547 359.31 121.547C354.735 121.547 351.013 125.269 351.013 129.843C351.013 134.417 354.735 138.139 359.31 138.139C360.637 138.139 361.952 137.814 363.134 137.196L368.63 142.693C368.979 143.041 369.441 143.232 369.933 143.232C370.425 143.232 370.887 143.04 371.236 142.692C371.584 142.344 371.776 141.881 371.776 141.389C371.776 140.899 371.584 140.436 371.236 140.088ZM365.265 129.844C365.265 133.128 362.594 135.799 359.311 135.799C356.027 135.799 353.355 133.128 353.355 129.844C353.355 126.56 356.027 123.889 359.311 123.889C362.594 123.888 365.265 126.56 365.265 129.844Z" fill="white"/>
<path opacity="0.75" d="M200.913 139.258H134.339C130.546 139.258 127.471 136.183 127.471 132.39C127.471 128.597 130.546 125.522 134.339 125.522H200.913C204.706 125.522 207.781 128.597 207.781 132.39C207.781 136.183 204.706 139.258 200.913 139.258Z" fill="#E0EBFC"/>
<path d="M342.143 342.268H158.382V352.494H342.143V342.268Z" fill="#C0D9FF"/>
<path opacity="0.75" d="M219.038 182.565H173.989C169.751 182.565 166.315 179.129 166.315 174.891C166.315 170.653 169.751 167.217 173.989 167.217H219.038C223.276 167.217 226.712 170.653 226.712 174.891C226.713 179.129 223.277 182.565 219.038 182.565Z" fill="#E0EBFC"/>
<path d="M174.57 176.807H218.457" stroke="#3898FC" stroke-width="1.5" stroke-miterlimit="10"/>
<path opacity="0.75" d="M326.535 182.565H246.562C242.324 182.565 238.888 179.129 238.888 174.891C238.888 170.653 242.324 167.217 246.562 167.217H326.535C330.773 167.217 334.209 170.653 334.209 174.891C334.209 179.129 330.773 182.565 326.535 182.565Z" fill="#E0EBFC"/>
<path d="M255.617 176.807H317.481" stroke="#3898FC" stroke-width="1.5" stroke-miterlimit="10"/>
<path d="M377.002 62.6631H393.862" stroke="#3898FC" stroke-width="1.5" stroke-miterlimit="10"/>
<path d="M402.028 62.6631H418.888" stroke="#3898FC" stroke-width="1.5" stroke-miterlimit="10"/>
<path opacity="0.75" d="M427.226 58.0962H424.958V60.3642H427.226V58.0962Z" fill="#E0EBFC"/>
<path opacity="0.75" d="M430.391 58.0962H428.123V60.3642H430.391V58.0962Z" fill="#E0EBFC"/>
<path opacity="0.75" d="M433.556 58.0962H431.288V60.3642H433.556V58.0962Z" fill="#E0EBFC"/>
<path opacity="0.75" d="M427.226 61.5293H424.958V63.7973H427.226V61.5293Z" fill="#E0EBFC"/>
<path opacity="0.75" d="M430.391 61.5293H428.123V63.7973H430.391V61.5293Z" fill="#E0EBFC"/>
<path opacity="0.75" d="M433.556 61.5293H431.288V63.7973H433.556V61.5293Z" fill="#E0EBFC"/>
<path opacity="0.75" d="M427.226 64.9624H424.958V67.2304H427.226V64.9624Z" fill="#E0EBFC"/>
<path opacity="0.75" d="M430.391 64.9624H428.123V67.2304H430.391V64.9624Z" fill="#E0EBFC"/>
<path opacity="0.75" d="M433.556 64.9624H431.288V67.2304H433.556V64.9624Z" fill="#E0EBFC"/>
<path opacity="0.75" d="M442.929 68.4131C446.105 68.4131 448.679 65.8387 448.679 62.6631C448.679 59.4874 446.105 56.9131 442.929 56.9131C439.754 56.9131 437.179 59.4874 437.179 62.6631C437.179 65.8387 439.754 68.4131 442.929 68.4131Z" fill="#E0EBFC"/>
<path opacity="0.65" d="M150.616 72H29.5V115H150.616C153.313 115 155.5 112.92 155.5 110.353V76.6483C155.499 74.0804 153.313 72 150.616 72Z" fill="#C0D9FF"/>
<path d="M447.121 26.4839C447.95 26.4839 448.621 25.8123 448.621 24.9839C448.621 24.1555 447.95 23.4839 447.121 23.4839C446.293 23.4839 445.621 24.1555 445.621 24.9839C445.621 25.8123 446.293 26.4839 447.121 26.4839Z" fill="#3898FC"/>
<path d="M447.121 33.6069C447.95 33.6069 448.621 32.9354 448.621 32.1069C448.621 31.2785 447.95 30.6069 447.121 30.6069C446.293 30.6069 445.621 31.2785 445.621 32.1069C445.621 32.9354 446.293 33.6069 447.121 33.6069Z" fill="#3898FC"/>
<path d="M447.121 40.73C447.95 40.73 448.621 40.0584 448.621 39.23C448.621 38.4016 447.95 37.73 447.121 37.73C446.293 37.73 445.621 38.4016 445.621 39.23C445.621 40.0584 446.293 40.73 447.121 40.73Z" fill="#3898FC"/>
<path d="M317.481 342.814H223.449" stroke="#3898FC" stroke-width="1.5" stroke-miterlimit="10"/>
<path d="M212.9 342.814H182.202" stroke="#3898FC" stroke-width="1.5" stroke-miterlimit="10"/>
<path opacity="0.65" d="M437.447 269.167H239.816C235.869 269.167 232.669 265.967 232.669 262.02V210.187C232.669 206.24 235.869 203.04 239.816 203.04H437.447C441.394 203.04 444.594 206.24 444.594 210.187V262.02C444.594 265.967 441.395 269.167 437.447 269.167Z" fill="#C0D9FF"/>
<path d="M428.552 262.225H230.921C226.974 262.225 223.774 259.025 223.774 255.078V203.245C223.774 199.298 226.974 196.098 230.921 196.098H428.552C432.499 196.098 435.699 199.298 435.699 203.245V255.078C435.699 259.025 432.499 262.225 428.552 262.225Z" fill="white" stroke="#3898FC" stroke-width="1.5" stroke-miterlimit="10"/>
<path d="M421.651 226.33H297.611C295.505 226.33 293.797 224.622 293.797 222.516C293.797 220.41 295.505 218.702 297.611 218.702H421.651C423.757 218.702 425.465 220.41 425.465 222.516C425.465 224.622 423.757 226.33 421.651 226.33Z" fill="#E0EBFC"/>
<path d="M421.651 239.62H297.611C295.505 239.62 293.797 237.912 293.797 235.806C293.797 233.7 295.505 231.992 297.611 231.992H421.651C423.757 231.992 425.465 233.7 425.465 235.806C425.465 237.912 423.757 239.62 421.651 239.62Z" fill="#E0EBFC"/>
<path d="M421.651 213.04H297.611C295.505 213.04 293.797 211.332 293.797 209.226C293.797 207.12 295.505 205.412 297.611 205.412H421.651C423.757 205.412 425.465 207.12 425.465 209.226C425.465 211.332 423.757 213.04 421.651 213.04Z" fill="#E0EBFC"/>
<path d="M325.067 252.91H297.611C295.505 252.91 293.797 251.203 293.797 249.096C293.797 246.99 295.505 245.282 297.611 245.282H325.067C327.173 245.282 328.881 246.99 328.881 249.096C328.881 251.202 327.173 252.91 325.067 252.91Z" fill="#E0EBFC"/>
<path opacity="0.65" d="M427.421 71.213H286.391C282.6 71.213 279.527 68.14 279.527 64.349V14.571C279.527 10.78 282.6 7.70703 286.391 7.70703H427.42C431.211 7.70703 434.284 10.78 434.284 14.571V64.349C434.284 68.14 431.211 71.213 427.421 71.213Z" fill="#C0D9FF"/>
<path d="M416.877 64.506H275.848C272.057 64.506 268.984 61.433 268.984 57.642V7.864C268.984 4.073 272.057 1 275.848 1H416.877C420.668 1 423.741 4.073 423.741 7.864V57.642C423.741 61.433 420.668 64.506 416.877 64.506Z" fill="white" stroke="#3898FC" stroke-width="1.5" stroke-miterlimit="10"/>
<path d="M409.249 30.035H338.894C336.871 30.035 335.231 28.395 335.231 26.372C335.231 24.349 336.871 22.709 338.894 22.709H409.249C411.272 22.709 412.912 24.349 412.912 26.372C412.912 28.395 411.272 30.035 409.249 30.035Z" fill="#E0EBFC"/>
<path d="M409.249 42.7977H338.894C336.871 42.7977 335.231 41.1577 335.231 39.1347C335.231 37.1117 336.871 35.4717 338.894 35.4717H409.249C411.272 35.4717 412.912 37.1117 412.912 39.1347C412.912 41.1577 411.272 42.7977 409.249 42.7977Z" fill="#E0EBFC"/>
<path d="M409.249 17.2718H338.894C336.871 17.2718 335.231 15.6318 335.231 13.6088C335.231 11.5858 336.871 9.9458 338.894 9.9458H409.249C411.272 9.9458 412.912 11.5858 412.912 13.6088C412.912 15.6318 411.272 17.2718 409.249 17.2718Z" fill="#E0EBFC"/>
<path d="M365.261 55.5609H338.894C336.871 55.5609 335.231 53.9209 335.231 51.8979C335.231 49.8749 336.871 48.2349 338.894 48.2349H365.261C367.284 48.2349 368.924 49.8749 368.924 51.8979C368.924 53.9209 367.284 55.5609 365.261 55.5609Z" fill="#E0EBFC"/>
<path d="M142.547 109.246H6.165C3.589 109.246 1.5 107.157 1.5 104.581V70.7509C1.5 68.1749 3.589 66.0859 6.165 66.0859H142.546C145.122 66.0859 147.211 68.1749 147.211 70.7509V104.581C147.211 107.158 145.123 109.246 142.547 109.246Z" fill="white" stroke="#3898FC" stroke-width="1.5" stroke-miterlimit="10"/>
<path d="M138.042 85.8188H49.6919C48.3169 85.8188 47.2029 84.7048 47.2029 83.3298C47.2029 81.9548 48.3179 80.8408 49.6919 80.8408H138.042C139.417 80.8408 140.531 81.9558 140.531 83.3298C140.532 84.7038 139.417 85.8188 138.042 85.8188Z" fill="#E0EBFC"/>
<path d="M138.042 94.4931H49.6919C48.3169 94.4931 47.2029 93.3781 47.2029 92.0041C47.2029 90.6291 48.3179 89.5151 49.6919 89.5151H138.042C139.417 89.5151 140.531 90.6301 140.531 92.0041C140.532 93.3781 139.417 94.4931 138.042 94.4931Z" fill="#E0EBFC"/>
<path d="M138.042 77.145H49.6919C48.3169 77.145 47.2029 76.03 47.2029 74.656C47.2029 73.281 48.3179 72.167 49.6919 72.167H138.042C139.417 72.167 140.531 73.281 140.531 74.656C140.532 76.03 139.417 77.145 138.042 77.145Z" fill="#E0EBFC"/>
<path d="M108.147 103.167H49.6919C48.3169 103.167 47.2029 102.053 47.2029 100.678C47.2029 99.303 48.3179 98.189 49.6919 98.189H108.147C109.522 98.189 110.636 99.304 110.636 100.678C110.637 102.052 109.522 103.167 108.147 103.167Z" fill="#E0EBFC"/>
<path d="M20.7039 80.7718V94.5608C20.7039 95.7258 22.0268 96.3978 22.9678 95.7098L32.3988 88.8158C33.1768 88.2468 33.1768 87.0858 32.3988 86.5168L22.9678 79.6228C22.0268 78.9348 20.7039 79.6068 20.7039 80.7718Z" fill="white"/>
<mask id="mask0_1901_43753" style="mask-type:luminance" maskUnits="userSpaceOnUse" x="329" y="94" width="77" height="77">
<path d="M401.227 149.229C410.608 130.593 403.105 107.88 384.468 98.4995C365.832 89.1187 343.119 96.6218 333.739 115.258C324.358 133.895 331.861 156.607 350.497 165.988C369.134 175.369 391.846 167.866 401.227 149.229Z" fill="white"/>
</mask>
<g mask="url(#mask0_1901_43753)">
<path d="M377.654 81.1621C377.654 81.1621 324.767 173.871 324.471 174.521H347.84L401.023 81.1621H377.654Z" fill="url(#paint0_linear_1901_43753)"/>
<path d="M413.307 81.1621C413.307 81.1621 360.42 173.871 360.124 174.521H367.518L420.701 81.1621H413.307Z" fill="url(#paint1_linear_1901_43753)"/>
</g>
<path d="M384.275 170.133L376.472 172.69L386.895 204.486L394.697 201.928L384.275 170.133Z" fill="#3898FC"/>
<path d="M354.527 92.6561C332.663 99.8221 320.747 123.357 327.914 145.221C335.08 167.086 358.615 179.001 380.479 171.834C402.344 164.668 414.259 141.133 407.092 119.269C399.926 97.4051 376.391 85.4901 354.527 92.6561ZM378.632 166.2C359.879 172.346 339.695 162.127 333.549 143.374C327.403 124.622 337.622 104.437 356.374 98.2911C375.127 92.1451 395.311 102.364 401.457 121.116C407.603 139.869 397.384 160.054 378.632 166.2Z" fill="#19202D"/>
<path d="M400.839 233.954C397.64 235.003 394.196 233.259 393.148 230.06L378.877 186.561L390.463 182.764L404.734 226.263C405.782 229.462 404.038 232.906 400.839 233.954Z" fill="#19202D"/>
<path d="M161.35 241.507C173.259 241.507 182.913 231.853 182.913 219.944C182.913 208.035 173.259 198.381 161.35 198.381C149.441 198.381 139.787 208.035 139.787 219.944C139.787 231.853 149.441 241.507 161.35 241.507Z" fill="#E0EBFC"/>
<defs>
<linearGradient id="paint0_linear_1901_43753" x1="362.747" y1="174.521" x2="362.747" y2="81.1622" gradientUnits="userSpaceOnUse">
<stop stop-color="white" stop-opacity="0.2"/>
<stop offset="0.6741" stop-color="white" stop-opacity="0.6265"/>
<stop offset="0.7903" stop-color="white" stop-opacity="0.7"/>
</linearGradient>
<linearGradient id="paint1_linear_1901_43753" x1="390.412" y1="174.521" x2="390.412" y2="81.1622" gradientUnits="userSpaceOnUse">
<stop stop-color="white" stop-opacity="0.2"/>
<stop offset="0.6741" stop-color="white" stop-opacity="0.6265"/>
<stop offset="0.7903" stop-color="white" stop-opacity="0.7"/>
</linearGradient>
</defs>
</svg>
