<svg width="19" height="19" viewBox="0 0 19 19" fill="none" xmlns="http://www.w3.org/2000/svg">
<path d="M9.28785 15.6702C7.54035 15.6702 5.79285 15.3927 4.13535 14.8377C3.50535 14.6202 3.02535 14.1777 2.81535 13.6002C2.59785 13.0227 2.67285 12.3852 3.01785 11.8152L3.88035 10.3827C4.06035 10.0827 4.22535 9.48274 4.22535 9.13024V6.96274C4.22535 4.17274 6.49785 1.90024 9.28785 1.90024C12.0779 1.90024 14.3504 4.17274 14.3504 6.96274V9.13024C14.3504 9.47524 14.5154 10.0827 14.6954 10.3902L15.5504 11.8152C15.8729 12.3552 15.9329 13.0077 15.7154 13.6002C15.4979 14.1927 15.0254 14.6427 14.4329 14.8377C12.7829 15.3927 11.0354 15.6702 9.28785 15.6702ZM9.28785 3.02524C7.12035 3.02524 5.35035 4.78774 5.35035 6.96274V9.13024C5.35035 9.67774 5.12535 10.4877 4.84785 10.9602L3.98535 12.3927C3.82035 12.6702 3.77535 12.9627 3.87285 13.2102C3.96285 13.4652 4.18785 13.6602 4.49535 13.7652C7.63035 14.8152 10.9529 14.8152 14.0879 13.7652C14.3579 13.6752 14.5679 13.4727 14.6654 13.2027C14.7629 12.9327 14.7404 12.6402 14.5904 12.3927L13.7279 10.9602C13.4429 10.4727 13.2254 9.67024 13.2254 9.12274V6.96274C13.2254 4.78774 11.4629 3.02524 9.28785 3.02524Z" fill="#808080"/>
<path d="M10.6829 3.22775C10.6304 3.22775 10.5779 3.22025 10.5254 3.20525C10.3079 3.14525 10.0979 3.10025 9.89541 3.07025C9.25791 2.98775 8.64291 3.03275 8.06541 3.20525C7.85541 3.27275 7.63041 3.20525 7.48791 3.04775C7.34541 2.89025 7.30041 2.66525 7.38291 2.46275C7.69041 1.67525 8.44041 1.15775 9.29541 1.15775C10.1504 1.15775 10.9004 1.66775 11.2079 2.46275C11.2829 2.66525 11.2454 2.89025 11.1029 3.04775C10.9904 3.16775 10.8329 3.22775 10.6829 3.22775Z" fill="#808080"/>
<path d="M9.28809 17.3802C8.54559 17.3802 7.82559 17.0802 7.30059 16.5552C6.77559 16.0302 6.47559 15.3102 6.47559 14.5677H7.60059C7.60059 15.0102 7.78059 15.4452 8.09559 15.7602C8.41059 16.0752 8.84559 16.2552 9.28809 16.2552C10.2181 16.2552 10.9756 15.4977 10.9756 14.5677H12.1006C12.1006 16.1202 10.8406 17.3802 9.28809 17.3802Z" fill="#808080"/>
</svg>
