<svg width="37" height="49" viewBox="0 0 37 49" fill="none" xmlns="http://www.w3.org/2000/svg">
<path d="M32.9739 12.4385H26.7923V8.62742C26.7923 4.07815 23.0911 0.376953 18.542 0.376953H18.4582C13.9089 0.376953 10.2077 4.07815 10.2077 8.62742V12.4385H4.02618L0.407715 48.6231H36.5923L32.9739 12.4385ZM12.4693 8.62742C12.4693 5.32501 15.1558 2.63849 18.4582 2.63849H18.542C21.8443 2.63849 24.5308 5.32501 24.5308 8.62742V12.4385H12.4693V8.62742ZM11.3385 20.1993C9.98533 20.1993 8.88848 19.1025 8.88848 17.7493C8.88848 16.8044 9.42428 15.9859 10.2077 15.5771V17.527C10.2077 18.1513 10.7141 18.6577 11.3385 18.6577C11.9629 18.6577 12.4693 18.1513 12.4693 17.527V15.5771C13.2527 15.9859 13.7885 16.8044 13.7885 17.7493C13.7885 19.1025 12.6916 20.1993 11.3385 20.1993ZM25.6616 20.1051C24.3612 20.1051 23.3058 19.0516 23.3058 17.7493C23.3058 16.8587 23.8011 16.0833 24.5308 15.683V17.527C24.5308 18.1513 25.0372 18.6577 25.6616 18.6577C26.2859 18.6577 26.7923 18.1513 26.7923 17.527V15.683C27.5221 16.0835 28.0173 16.8589 28.0173 17.7493C28.0173 19.0516 26.9619 20.1051 25.6616 20.1051Z" fill="#C1E4FF"/>
</svg>
