<svg width="16" height="16" viewBox="0 0 16 16" fill="none" xmlns="http://www.w3.org/2000/svg">
<path d="M3.11227 13.291L3.11214 13.2909L3.10285 13.3007C3.00239 13.4068 2.822 13.4209 2.69214 13.291L2.33859 13.6446L2.69214 13.291C1.27216 11.8711 0.5 9.99631 0.5 7.99159C0.5 3.85974 3.85974 0.5 7.99159 0.5C12.1221 0.5 15.4832 3.87519 15.4832 8.00841C15.4832 12.1403 12.1234 15.5 7.99159 15.5C7.81347 15.5 7.68402 15.3705 7.68402 15.1924C7.68402 15.0211 7.82349 14.8849 7.99159 14.8849C11.8009 14.8849 14.8849 11.8009 14.8849 7.99159C14.8849 4.18232 11.8009 1.09832 7.99159 1.09832C4.18232 1.09832 1.09832 4.18232 1.09832 7.99159C1.09832 9.54906 1.60614 11.0212 2.55152 12.2211L2.89984 12.6632L3.29782 12.2652L9.11906 6.44398L9.97262 5.59043H8.76551H7.23449C7.06313 5.59043 6.92692 5.45096 6.92692 5.28286C6.92692 5.13513 7.05944 4.99211 7.23449 4.99211H10.7171L10.7335 4.99214L10.7372 4.99218L10.7874 5.00894H10.8021C10.8114 5.01124 10.8225 5.01378 10.8349 5.01615C10.8369 5.01748 10.8389 5.01879 10.8408 5.02008L10.8445 5.02379L10.8973 5.05545C10.9111 5.0637 10.9363 5.08893 10.9445 5.10267L10.9762 5.15545L10.9799 5.15916C10.9812 5.16112 10.9825 5.16309 10.9839 5.16507C10.9862 5.17754 10.9888 5.18863 10.9911 5.19786V5.21258L11.0078 5.26285L11.0079 5.26654L11.0079 5.28286V8.74869C11.0079 8.9268 10.8784 9.05626 10.7003 9.05626C10.529 9.05626 10.3927 8.91678 10.3927 8.74869V7.21767V6.01056L9.53919 6.86411L3.11227 13.291Z" stroke="#5052B2"/>
</svg>
