<svg width="47" height="47" viewBox="0 0 47 47" fill="none" xmlns="http://www.w3.org/2000/svg">
<path d="M45.06 44.08H44.08V39.18C44.08 38.9201 43.9767 38.6709 43.7929 38.4871C43.6091 38.3033 43.3599 38.2 43.1 38.2C42.84 38.2 42.5908 38.3033 42.407 38.4871C42.2232 38.6709 42.12 38.9201 42.12 39.18V40.16H4.87996V39.18C4.87996 38.9201 4.77671 38.6709 4.59293 38.4871C4.40914 38.3033 4.15987 38.2 3.89996 38.2C3.64005 38.2 3.39078 38.3033 3.207 38.4871C3.02321 38.6709 2.91996 38.9201 2.91996 39.18V44.08H1.93996C1.68005 44.08 1.43078 44.1833 1.247 44.3671C1.06321 44.5509 0.959961 44.8001 0.959961 45.06C0.959961 45.3199 1.06321 45.5692 1.247 45.753C1.43078 45.9368 1.68005 46.04 1.93996 46.04H45.06C45.3199 46.04 45.5691 45.9368 45.7529 45.753C45.9367 45.5692 46.04 45.3199 46.04 45.06C46.04 44.8001 45.9367 44.5509 45.7529 44.3671C45.5691 44.1833 45.3199 44.08 45.06 44.08ZM42.12 44.08H39.18V42.12H42.12V44.08ZM4.87996 42.12H7.81996V44.08H4.87996V42.12ZM20.6633 12.1784C20.6054 12.0632 20.5708 11.9377 20.5614 11.8092C20.552 11.6806 20.5681 11.5515 20.6087 11.4291C20.6493 11.3068 20.7137 11.1937 20.7981 11.0962C20.8825 10.9988 20.9853 10.919 21.1006 10.8613C21.2159 10.8037 21.3414 10.7693 21.47 10.7603C21.5986 10.7512 21.7277 10.7676 21.85 10.8085C21.9722 10.8494 22.0852 10.914 22.1824 10.9987C22.2796 11.0833 22.3592 11.1863 22.4166 11.3017L23.5 13.4684L24.5833 11.3017C24.6999 11.0698 24.9038 10.8937 25.1501 10.8119C25.3964 10.7301 25.6651 10.7494 25.8972 10.8655C26.1294 10.9815 26.306 11.185 26.3884 11.4311C26.4707 11.6772 26.4521 11.9459 26.3366 12.1784L24.6203 15.611L38.5212 38.2H30.0695L24.3881 26.0256C24.3092 25.8566 24.1837 25.7136 24.0264 25.6134C23.8691 25.5133 23.6865 25.46 23.5 25.46C23.3134 25.46 23.1308 25.5133 22.9735 25.6134C22.8162 25.7136 22.6907 25.8566 22.6118 26.0256L16.9304 38.2H8.4787L22.3796 15.611L20.6633 12.1784ZM24.48 38.2V30.8575L27.9065 38.2H24.48ZM22.52 38.2H19.0934L22.52 30.8575V38.2ZM28.4 9.76142C28.4018 7.5448 29.237 5.40989 30.7396 3.78032C32.2422 2.15075 34.3026 1.14562 36.5118 0.964378C36.668 0.949904 36.8255 0.973207 36.9709 1.03232C37.1163 1.09144 37.2453 1.18463 37.3472 1.30406C37.449 1.42348 37.5206 1.56564 37.5561 1.71854C37.5915 1.87144 37.5896 2.03061 37.5506 2.18265C37.4071 2.73287 37.333 3.29888 37.33 3.8675C37.3464 5.70535 38.0911 7.46164 39.4008 8.75116C40.7104 10.0407 42.478 10.7581 44.3159 10.7461C44.5369 10.7461 44.7547 10.7327 44.9705 10.7131C45.1268 10.6987 45.2843 10.7221 45.4296 10.7813C45.575 10.8405 45.7041 10.9337 45.8059 11.0532C45.9077 11.1726 45.9793 11.3148 46.0147 11.4677C46.0502 11.6206 46.0483 11.7798 46.0094 11.9319C45.4568 14.0254 44.1644 15.8478 42.3713 17.0615C40.5783 18.2752 38.4062 18.798 36.2573 18.5332C34.1083 18.2683 32.1282 17.2337 30.6835 15.6209C29.2389 14.0081 28.4276 11.9264 28.4 9.76142ZM0.959961 18.11C0.959939 17.9044 1.02462 17.7039 1.14486 17.537C1.26509 17.3702 1.43478 17.2454 1.62988 17.1803C2.75044 16.87 3.77356 16.2796 4.60285 15.4646C5.43215 14.6496 6.04032 13.6369 6.37006 12.5219C6.41694 12.3021 6.53771 12.1049 6.71228 11.9632C6.88685 11.8216 7.10467 11.744 7.32948 11.7434H7.3357C7.56089 11.7441 7.77893 11.8225 7.95296 11.9654C8.12699 12.1083 8.24633 12.3069 8.29082 12.5277C8.62149 13.6414 9.22995 14.6527 10.059 15.4666C10.888 16.2805 11.9104 16.8702 13.03 17.1803C13.2251 17.2454 13.3948 17.3702 13.515 17.5371C13.6353 17.7039 13.7 17.9044 13.7 18.11C13.7 18.3157 13.6353 18.5162 13.515 18.683C13.3948 18.8499 13.2251 18.9747 13.03 19.0398C11.9095 19.3501 10.8864 19.9405 10.0571 20.7555C9.22777 21.5705 8.61961 22.5832 8.28986 23.6981C8.24298 23.918 8.12221 24.1152 7.94764 24.2568C7.77307 24.3985 7.55525 24.4761 7.33044 24.4767H7.32422C7.09903 24.476 6.881 24.3976 6.70696 24.2547C6.53293 24.1118 6.41359 23.9131 6.3691 23.6924C6.03843 22.5787 5.42997 21.5673 4.60093 20.7535C3.7719 19.9396 2.74951 19.3499 1.62988 19.0398C1.43478 18.9747 1.26509 18.8499 1.14486 18.683C1.02462 18.5162 0.959939 18.3157 0.959961 18.11ZM7.81996 7.33004C7.81994 7.12437 7.88462 6.9239 8.00486 6.75703C8.12509 6.59017 8.29478 6.46536 8.48988 6.40028C9.61044 6.09 10.6336 5.49956 11.4629 4.68458C12.2921 3.8696 12.9003 2.85691 13.2301 1.74193C13.2769 1.52206 13.3977 1.32488 13.5723 1.18323C13.7468 1.04157 13.9647 0.963986 14.1895 0.963388H14.1957C14.4209 0.964078 14.6389 1.0425 14.813 1.18541C14.987 1.32831 15.1063 1.52693 15.1508 1.74767C15.4815 2.86139 16.0899 3.87273 16.919 4.68662C17.748 5.5005 18.7704 6.0902 19.89 6.40028C20.0851 6.46538 20.2548 6.59019 20.375 6.75705C20.4953 6.92392 20.56 7.12437 20.56 7.33004C20.56 7.5357 20.4953 7.73616 20.375 7.90302C20.2548 8.06988 20.0851 8.1947 19.89 8.25979C18.7695 8.57007 17.7464 9.16051 16.9171 9.97549C16.0878 10.7905 15.4796 11.8032 15.1499 12.9181C15.103 13.138 14.9822 13.3352 14.8076 13.4768C14.6331 13.6185 14.4153 13.6961 14.1904 13.6967H14.1842C13.959 13.696 13.741 13.6176 13.567 13.4747C13.3929 13.3318 13.2736 13.1331 13.2291 12.9124C12.8984 11.7987 12.29 10.7873 11.4609 9.97346C10.6319 9.15957 9.60951 8.56987 8.48988 8.25979C8.29478 8.19472 8.12509 8.06991 8.00486 7.90304C7.88462 7.73617 7.81994 7.53571 7.81996 7.33004Z" fill="#C1E4FF"/>
</svg>
