<svg width="43" height="28" viewBox="0 0 43 28" fill="none" xmlns="http://www.w3.org/2000/svg">
<path d="M42.1417 12.5223L35.854 0.795001C35.5896 0.304313 35.078 6.50069e-06 34.5189 6.50069e-06C34.2716 6.50069e-06 34.0263 0.0608675 33.8076 0.178788L29.8668 2.2899C29.5111 2.48009 29.2524 2.79772 29.1345 3.18568C29.0166 3.57367 29.0584 3.98257 29.2486 4.33635L29.2543 4.34586L28.1912 4.70912L21.3805 3.70871C21.2284 3.68588 21.0743 3.72582 20.9526 3.81902L19.0488 5.27209L14.2293 5.27399L13.0216 4.42953L13.071 4.33824C13.2612 3.98449 13.3012 3.57557 13.1852 3.18757C13.0691 2.79958 12.8086 2.48197 12.4529 2.29179L8.51024 0.178782C8.29152 0.0627657 8.04617 0 7.79894 0C7.23979 0 6.72817 0.304307 6.46379 0.796894L0.179976 12.5222C-0.010213 12.8779 -0.0520565 13.2868 0.0658587 13.6729C0.181875 14.0609 0.442439 14.3785 0.798093 14.5686L4.74079 16.6817C4.95951 16.7977 5.20485 16.8604 5.45209 16.8604C6.00174 16.8604 6.50387 16.5656 6.772 16.0902C6.78912 16.0978 6.80623 16.1073 6.82525 16.113L7.56129 16.3393C7.69442 16.7178 7.9645 17.3759 8.39241 17.9198C8.46278 18.0111 8.55787 18.0701 8.65868 18.1043L8.2821 18.4809C7.47761 19.2873 7.47761 20.5958 8.2821 21.4003C8.67199 21.7902 9.19122 22.0052 9.74277 22.0052C9.99192 22.0052 10.2297 21.9557 10.456 21.872C10.5378 22.2581 10.7279 22.6118 11.0113 22.8953C11.4012 23.2852 11.9204 23.5001 12.472 23.5001C12.7687 23.5001 13.0521 23.4335 13.3146 23.3156C13.402 23.6693 13.5751 24.006 13.8509 24.2818C14.2408 24.6717 14.76 24.8866 15.3097 24.8866C15.4961 24.8866 15.6768 24.8543 15.8517 24.8048C15.9202 25.2289 16.1142 25.6207 16.4242 25.9326C16.8141 26.3225 17.3333 26.5356 17.883 26.5356C18.3984 26.5356 18.8815 26.3416 19.26 25.9992L21.335 27.5607C21.7306 27.8574 22.1927 28 22.653 28C23.3205 28 23.9805 27.6976 24.4123 27.1251C24.6823 26.7656 24.8326 26.3415 24.8516 25.9022C25.019 25.944 25.192 25.9707 25.367 25.9707C25.4716 25.9707 25.5762 25.963 25.6808 25.9478C26.2628 25.866 26.7763 25.5617 27.1301 25.092C27.3869 24.7515 27.5333 24.3521 27.5637 23.9375C27.7749 24.0041 27.9936 24.0402 28.218 24.0402C28.3226 24.0402 28.4272 24.0326 28.5318 24.0174C29.1119 23.9356 29.6273 23.6313 29.9792 23.1615C30.2702 22.7754 30.4205 22.3152 30.4186 21.8397C30.5251 21.8549 30.6335 21.8663 30.7438 21.8663C30.8484 21.8663 30.953 21.8587 31.0576 21.8435C31.6377 21.7617 32.1531 21.4574 32.505 20.9896C32.8587 20.5198 33.0071 19.9397 32.9253 19.3577C32.9025 19.2017 32.8625 19.0496 32.8093 18.905C34.2224 18.129 34.8329 16.9518 35.0498 16.4021L35.6242 16.1967C35.9037 16.6056 36.3678 16.8567 36.8737 16.8567C37.121 16.8567 37.3663 16.7958 37.585 16.6779L41.5258 14.5649C42.258 14.1769 42.5354 13.2583 42.1417 12.5223ZM5.27678 15.6775L1.33599 13.5645C1.2485 13.5189 1.18574 13.439 1.1572 13.3439C1.12868 13.2488 1.13819 13.148 1.18383 13.0605L7.47154 1.33523C7.5362 1.21541 7.66173 1.14123 7.80057 1.14123C7.86143 1.14123 7.92039 1.15645 7.97364 1.18498L11.9144 3.29799C12 3.34363 12.0647 3.42161 12.0932 3.51861C12.1217 3.6137 12.1122 3.7126 12.0666 3.80009L5.77889 15.5254C5.6876 15.6985 5.45364 15.7707 5.27678 15.6775ZM9.08631 20.5961C8.72685 20.2367 8.72685 19.6509 9.08631 19.2895L10.3511 18.0266C10.5261 17.8516 10.7581 17.7565 11.0054 17.7565C11.2526 17.7565 11.4828 17.8516 11.6577 18.0247C12.0172 18.3861 12.0172 18.9718 11.6577 19.3313L10.3929 20.5961C10.043 20.9461 9.43434 20.9461 9.08631 20.5961ZM12.4698 22.363C12.2226 22.363 11.9905 22.266 11.8155 22.091C11.6425 21.9179 11.5455 21.6859 11.5455 21.4387C11.5455 21.1914 11.6425 20.9594 11.8155 20.7844L14.1359 18.4641C14.3108 18.2891 14.5429 18.194 14.7882 18.194C15.0354 18.194 15.2675 18.291 15.4405 18.466C15.8 18.8254 15.8 19.4112 15.4405 19.7726L13.8467 21.3664C13.8467 21.3664 13.8467 21.3683 13.8448 21.3683L13.1202 22.0929C12.9471 22.2679 12.7151 22.363 12.4698 22.363ZM14.6551 23.4794C14.2957 23.12 14.2957 22.5361 14.6513 22.1766L15.1591 21.6688L15.9199 20.9099C16.0949 20.7349 16.325 20.6398 16.5722 20.6398C16.8195 20.6398 17.0515 20.7368 17.2265 20.9118C17.4015 21.0868 17.4966 21.3169 17.4966 21.5642C17.4966 21.8114 17.4015 22.0434 17.2265 22.2165L16.6521 22.789L16.4239 23.0172L16.422 23.0191L15.9618 23.4794C15.6118 23.8274 15.0051 23.8275 14.6551 23.4794ZM17.8827 25.4004C17.6354 25.4004 17.4034 25.3053 17.2303 25.1303C17.0554 24.9553 16.9603 24.7233 16.9603 24.476C16.9603 24.2307 17.0554 24.0005 17.2284 23.8256L17.8333 23.2208C18.0082 23.0458 18.2403 22.9507 18.4875 22.9507C18.7348 22.9507 18.9649 23.0458 19.1399 23.2188C19.4993 23.5783 19.4993 24.166 19.1418 24.5255L18.5351 25.1284C18.362 25.3034 18.1299 25.4004 17.8827 25.4004ZM31.5896 20.3089C31.4203 20.5353 31.1731 20.6798 30.8935 20.7198C30.6139 20.7578 30.3363 20.6874 30.1061 20.5144L29.5755 20.1226C29.5622 20.113 29.5527 20.0997 29.5394 20.0902C29.5241 20.0788 29.5089 20.0712 29.4937 20.0636L24.3108 16.2274C24.0578 16.041 23.7003 16.0943 23.512 16.3473C23.3237 16.6002 23.3788 16.9578 23.6318 17.146L28.8926 21.0374C29.0962 21.2047 29.2312 21.4368 29.2692 21.7012C29.3092 21.9807 29.2369 22.2584 29.0676 22.4848C28.8983 22.7111 28.6511 22.8556 28.3715 22.8956C28.0919 22.9355 27.8143 22.8632 27.5955 22.6997L22.639 18.8616C22.3898 18.6695 22.0322 18.7152 21.8383 18.9643C21.6462 19.2135 21.6918 19.571 21.941 19.765L25.9084 22.8366C25.9369 22.8708 25.9692 22.9051 26.0054 22.9336C26.2317 23.1029 26.3781 23.352 26.4181 23.6316C26.458 23.9112 26.3857 24.1889 26.2165 24.4133C26.0472 24.6396 25.798 24.7861 25.5185 24.826C25.2389 24.866 24.9612 24.7937 24.7444 24.6301L20.7181 21.4863C20.4689 21.2923 20.1113 21.336 19.9174 21.5852C19.7234 21.8343 19.7671 22.1919 20.0163 22.3859L23.1887 24.864C23.2191 24.9002 23.2514 24.9363 23.2914 24.9668C23.5177 25.136 23.6641 25.3852 23.7022 25.6648C23.7421 25.9443 23.6698 26.222 23.5006 26.4484C23.1506 26.9124 22.4869 27.0075 22.0209 26.6576L20.0695 25.1893C20.739 24.3772 20.7047 23.1752 19.9459 22.4163C19.5864 22.0569 19.1147 21.8553 18.6107 21.8248C18.6221 21.7393 18.6354 21.6537 18.6354 21.5662C18.6354 21.0146 18.4205 20.4954 18.0306 20.1074C17.6978 19.7746 17.2718 19.5787 16.8115 19.5254C16.9408 18.8711 16.7525 18.1674 16.2486 17.6635C15.8587 17.2736 15.3394 17.0586 14.7879 17.0586C14.2363 17.0586 13.7171 17.2736 13.3291 17.6635L12.9544 18.0381C12.8574 17.7395 12.6996 17.4581 12.4619 17.2222C12.072 16.8342 11.5546 16.6193 11.0031 16.6193C10.4515 16.6193 9.93231 16.8342 9.54241 17.2241L9.37504 17.3877C9.35412 17.3287 9.32749 17.2698 9.28565 17.2184C8.80447 16.6041 8.56291 15.7406 8.55911 15.733C8.50776 15.5447 8.36322 15.3945 8.17683 15.3374L7.31527 15.073L12.4773 5.44184L13.7192 6.31294C13.8143 6.37951 13.9285 6.41564 14.0464 6.41564H17.5478L15.1894 8.21485C15.0753 8.30234 14.9973 8.42977 14.9726 8.57051L14.0425 13.9054C14.0064 14.1127 14.0882 14.3238 14.2536 14.4531C14.5446 14.6814 15.0467 14.9039 15.6572 14.9039C16.3666 14.9039 17.2225 14.6034 18.0708 13.6657C18.0822 13.6543 18.0917 13.641 18.1031 13.6277L19.8928 11.2636L20.7411 10.9536L31.3821 18.8315C31.6065 19.0007 31.7529 19.2461 31.7929 19.5257C31.8328 19.8033 31.7608 20.0826 31.5896 20.3089ZM34.4044 15.4249C34.2295 15.4877 34.0944 15.6361 34.045 15.8148C34.0279 15.8738 33.6456 17.2109 32.1316 17.9773C32.1069 17.9583 32.0879 17.9336 32.0632 17.9146L25.4789 13.0398C25.7319 13.0569 25.9944 13.0683 26.2701 13.0683C27.1926 13.0683 28.2253 12.9523 29.2486 12.6043C29.5472 12.5035 29.7069 12.1782 29.6042 11.8796C29.5034 11.581 29.1782 11.4213 28.8796 11.524C26.4888 12.338 23.9328 11.6799 23.461 11.5449L22.025 10.4817C22.3122 10.3676 22.4587 10.0481 22.3522 9.75707C22.2437 9.46037 21.9166 9.30822 21.6199 9.41663L19.3452 10.2497C19.2425 10.2877 19.1531 10.3543 19.0866 10.4417L17.215 12.918C16.3516 13.8652 15.627 13.8233 15.2447 13.694L16.0663 8.98677L21.4542 4.87483L28.1641 5.86C28.2534 5.87332 28.3447 5.86381 28.4322 5.83528L29.8035 5.36741L35.0678 15.1909L34.4044 15.4249ZM40.9833 13.5649L37.0425 15.6779C36.8656 15.773 36.6317 15.6988 36.5404 15.5276L30.2527 3.79649C30.2071 3.71091 30.1976 3.61011 30.2261 3.51501C30.2546 3.41992 30.3193 3.34194 30.4049 3.29439L34.3457 1.18328C34.3989 1.15475 34.4579 1.13953 34.5187 1.13953C34.6576 1.13953 34.785 1.21371 34.8478 1.33353L41.1335 13.0608C41.2324 13.2434 41.164 13.4679 40.9833 13.5649Z" fill="#F8464B"/>
</svg>
