<svg width="26" height="30" viewBox="0 0 26 30" fill="none" xmlns="http://www.w3.org/2000/svg">
<path d="M14.1663 18.0023V20.789C12.9596 20.3623 11.668 20.2315 10.4002 20.4074C9.13239 20.5833 7.92527 21.0609 6.88025 21.7999C5.83523 22.539 4.9828 23.5181 4.39456 24.6549C3.80632 25.7917 3.49943 27.053 3.49968 28.333H0.833009C0.832391 26.7047 1.20455 25.0979 1.92097 23.6358C2.63738 22.1736 3.67904 20.8948 4.9661 19.8975C6.25317 18.9001 7.75148 18.2107 9.34622 17.8819C10.941 17.5532 12.5898 17.5953 14.1663 18.0023ZM11.4997 16.333C7.07968 16.333 3.49968 12.753 3.49968 8.33301C3.49968 3.91301 7.07968 0.333008 11.4997 0.333008C15.9197 0.333008 19.4997 3.91301 19.4997 8.33301C19.4997 12.753 15.9197 16.333 11.4997 16.333ZM11.4997 13.6663C14.4463 13.6663 16.833 11.2797 16.833 8.33301C16.833 5.38634 14.4463 2.99967 11.4997 2.99967C8.55301 2.99967 6.16634 5.38634 6.16634 8.33301C6.16634 11.2797 8.55301 13.6663 11.4997 13.6663ZM19.2237 25.5517L23.937 20.8383L25.8237 22.7237L19.2237 29.3237L14.509 24.609L16.3957 22.7237L19.2237 25.5517Z" fill="#E0B005"/>
</svg>
