<svg width="29" height="30" viewBox="0 0 29 30" fill="none" xmlns="http://www.w3.org/2000/svg">
<path d="M13.3337 3.33366C12.096 3.33366 10.909 3.82532 10.0338 4.70049C9.15866 5.57566 8.66699 6.76265 8.66699 8.00033C8.66699 9.238 9.15866 10.425 10.0338 11.3002C10.909 12.1753 12.096 12.667 13.3337 12.667C14.5713 12.667 15.7583 12.1753 16.6335 11.3002C17.5087 10.425 18.0003 9.238 18.0003 8.00033C18.0003 6.76265 17.5087 5.57566 16.6335 4.70049C15.7583 3.82532 14.5713 3.33366 13.3337 3.33366ZM6.00033 8.00033C6.00033 6.0554 6.77294 4.19014 8.14821 2.81488C9.52348 1.43961 11.3887 0.666992 13.3337 0.666992C15.2786 0.666992 17.1438 1.43961 18.5191 2.81488C19.8944 4.19014 20.667 6.0554 20.667 8.00033C20.667 9.94525 19.8944 11.8105 18.5191 13.1858C17.1438 14.561 15.2786 15.3337 13.3337 15.3337C11.3887 15.3337 9.52348 14.561 8.14821 13.1858C6.77294 11.8105 6.00033 9.94525 6.00033 8.00033ZM17.667 16.0003H29.0003V29.727L23.3377 26.2377L17.667 29.723V16.0003ZM20.3337 18.667V24.9537L23.339 23.107L26.3337 24.951V18.667H20.3337ZM8.66699 19.3337C7.2525 19.3337 5.89595 19.8956 4.89576 20.8958C3.89556 21.896 3.33366 23.2525 3.33366 24.667H15.067V27.3337H0.666992V24.667C0.666992 22.5453 1.50985 20.5104 3.01014 19.0101C4.51043 17.5098 6.54526 16.667 8.66699 16.667H15.0003V19.3337H8.66699Z" fill="#5052B2"/>
</svg>
