<svg width="29" height="28" viewBox="0 0 29 28" fill="none" xmlns="http://www.w3.org/2000/svg">
<path d="M12.6667 2.55313C11.429 2.55313 10.242 3.02386 9.36684 3.86176C8.49167 4.69967 8 5.83612 8 7.0211C8 8.20608 8.49167 9.34252 9.36684 10.1804C10.242 11.0183 11.429 11.4891 12.6667 11.4891C13.9043 11.4891 15.0913 11.0183 15.9665 10.1804C16.8417 9.34252 17.3333 8.20608 17.3333 7.0211C17.3333 5.83612 16.8417 4.69967 15.9665 3.86176C15.0913 3.02386 13.9043 2.55313 12.6667 2.55313ZM5.33333 7.0211C5.33333 5.15899 6.10595 3.37314 7.48122 2.05643C8.85648 0.739721 10.7217 0 12.6667 0C14.6116 0 16.4769 0.739721 17.8521 2.05643C19.2274 3.37314 20 5.15899 20 7.0211C20 8.88321 19.2274 10.6691 17.8521 11.9858C16.4769 13.3025 14.6116 14.0422 12.6667 14.0422C10.7217 14.0422 8.85648 13.3025 7.48122 11.9858C6.10595 10.6691 5.33333 8.88321 5.33333 7.0211ZM17 14.6805H28.3333V27.8227L22.6707 24.4819L17 27.8189V14.6805ZM19.6667 17.2336V23.2526L22.672 21.4846L25.6667 23.25V17.2336H19.6667ZM8 17.8719C6.58551 17.8719 5.22896 18.4099 4.22876 19.3675C3.22857 20.3251 2.66667 21.6239 2.66667 22.9781H14.4V25.5313H0V22.9781C0 20.9467 0.842855 18.9985 2.34315 17.5621C3.84344 16.1257 5.87827 15.3188 8 15.3188H14.3333V17.8719H8Z" fill="rgba(56, 152, 252, 1)"/>
</svg>
