<svg width="12" height="12" viewBox="0 0 12 12" fill="none" xmlns="http://www.w3.org/2000/svg">
<path d="M6.00024 0.000244141C6.79589 0.000244141 7.55896 0.316315 8.12156 0.878924C8.68417 1.44153 9.00024 2.20459 9.00024 3.00024C9.00024 3.79589 8.68417 4.55896 8.12156 5.12156C7.55896 5.68417 6.79589 6.00024 6.00024 6.00024C5.20459 6.00024 4.44153 5.68417 3.87892 5.12156C3.31631 4.55896 3.00024 3.79589 3.00024 3.00024C3.00024 2.20459 3.31631 1.44153 3.87892 0.878924C4.44153 0.316315 5.20459 0.000244141 6.00024 0.000244141ZM6.00024 7.50024C9.31524 7.50024 12.0002 8.84274 12.0002 10.5002V12.0002H0.000244141V10.5002C0.000244141 8.84274 2.68524 7.50024 6.00024 7.50024Z" fill="#808080"/>
</svg>
