<svg width="26" height="30" viewBox="0 0 26 30" fill="none" xmlns="http://www.w3.org/2000/svg">
<path d="M13.6663 18.0033V20.79C12.4596 20.3633 11.168 20.2325 9.90021 20.4084C8.63239 20.5843 7.42527 21.0618 6.38025 21.8009C5.33523 22.54 4.4828 23.5191 3.89456 24.6559C3.30632 25.7927 2.99943 27.054 2.99968 28.334H0.333009C0.332391 26.7057 0.704551 25.0989 1.42097 23.6367C2.13738 22.1746 3.17904 20.8958 4.4661 19.8984C5.75317 18.9011 7.25148 18.2116 8.84622 17.8829C10.441 17.5542 12.0898 17.5963 13.6663 18.0033ZM10.9997 16.334C6.57968 16.334 2.99968 12.754 2.99968 8.33398C2.99968 3.91398 6.57968 0.333984 10.9997 0.333984C15.4197 0.333984 18.9997 3.91398 18.9997 8.33398C18.9997 12.754 15.4197 16.334 10.9997 16.334ZM10.9997 13.6673C13.9463 13.6673 16.333 11.2807 16.333 8.33398C16.333 5.38732 13.9463 3.00065 10.9997 3.00065C8.05301 3.00065 5.66634 5.38732 5.66634 8.33398C5.66634 11.2807 8.05301 13.6673 10.9997 13.6673ZM18.7237 25.5527L23.437 20.8393L25.3237 22.7247L18.7237 29.3247L14.009 24.61L15.8957 22.7247L18.7237 25.5527Z" fill="#E0B005"/>
</svg>
