<svg width="100" height="79" viewBox="0 0 100 79" fill="none" xmlns="http://www.w3.org/2000/svg">
<path d="M99.8754 20.5953C99.6844 20.0889 99.2903 19.6855 98.7882 19.4831L90.3542 16.0804C89.8302 13.3558 87.7608 11.1736 85.0976 10.4857L84.6427 5.24483C84.5762 4.47794 84.0614 3.82334 83.332 3.57747C82.6021 3.33159 81.7965 3.54154 81.2795 4.11181L79.115 6.49938L77.7772 1.81717C77.5466 1.01006 76.8219 0.443445 75.983 0.414189C75.1429 0.386009 74.3819 0.89992 74.0955 1.6894L64.0993 29.2664L27.1033 30.9935C27.0878 30.9942 27.0721 30.9948 27.0568 30.9957C19.4624 31.4517 12.2711 27.3891 8.73606 20.6445C8.23957 19.6974 7.06934 19.3317 6.12261 19.8284C5.17546 20.3249 4.81019 21.4949 5.30646 22.4418C8.44759 28.4352 13.9956 32.6635 20.3646 34.231C20.1385 34.4307 19.9111 34.641 19.6831 34.8658C17.2533 37.2627 14.3532 41.6433 13.9317 49.0835L5.54976 52.765C5.06016 52.9799 4.68134 53.388 4.50301 53.892L0.110989 66.3104C-0.200283 67.1909 0.161111 68.1679 0.970377 68.6339L3.07937 69.8477C3.37666 70.019 3.71009 70.1059 4.04546 70.1059C4.27133 70.1059 4.49806 70.0663 4.7149 69.9865C5.25355 69.7879 5.67646 69.3605 5.86921 68.8195L8.98817 60.0639L16.5134 59.4411L14.2267 62.5469C13.9096 62.9776 13.7848 63.5201 13.8818 64.0459L16.2707 76.9995C16.44 77.9178 17.2409 78.5845 18.1747 78.5845H20.6081C21.1822 78.5845 21.7269 78.3295 22.0947 77.8888C22.4626 77.4478 22.6158 76.8663 22.5129 76.3017L20.8481 67.1575L37.0051 55.9779C36.9586 56.0169 37.055 55.9435 37.0051 55.9779C38.5354 54.6926 39.6463 53.277 40.4409 51.8213C48.5764 53.2494 59.9422 55.2799 67.2714 56.4673C67.1656 56.4389 67.3693 56.5123 67.2714 56.4673L82.4584 77.2314C82.8338 77.7446 83.421 78.0247 84.022 78.0247C84.3219 78.0247 84.6252 77.955 84.9072 77.8098L86.6871 76.8932C87.1436 76.6581 87.488 76.2513 87.6446 75.7624C87.8012 75.2734 87.7571 74.7421 87.522 74.2856L79.6479 58.9947L87.7188 60.6371L87.5244 63.4317C87.4751 64.1424 87.8199 64.8231 88.4225 65.2034L89.6101 65.9529C89.9229 66.1501 90.2817 66.2517 90.6435 66.2517C90.8417 66.2517 91.0408 66.2211 91.2336 66.1596C91.7787 65.9851 92.2186 65.5783 92.4352 65.0487L95.2096 58.2666C95.4129 57.7696 95.4006 57.2103 95.1758 56.7229C94.951 56.2352 94.5337 55.8631 94.0239 55.6948L79.445 50.6784C79.459 50.614 83.794 30.6055 83.794 30.6055C84.6033 30.7403 85.4205 30.8113 86.2438 30.8113C91.9136 30.8113 97.1056 27.4919 99.7935 22.1484C100.037 21.6648 100.066 21.1017 99.8754 20.5953Z" fill="#E2E0FD"/>
</svg>
