<svg width="60" height="49" viewBox="0 0 60 49" fill="none" xmlns="http://www.w3.org/2000/svg">
<path fill-rule="evenodd" clip-rule="evenodd" d="M56.8769 0.0313694C57.4021 0.140768 57.9629 0.562465 58.3966 1.17116C58.7651 1.6896 59.1532 2.63269 59.3522 3.49576C59.401 3.71779 59.5184 4.16535 59.6098 4.49382C59.9816 5.83624 60.0173 6.13911 59.9947 7.8197C59.9783 9.13653 59.9783 9.14623 59.7272 10.0799C59.5479 10.7527 59.0097 12.266 58.7651 12.7842C58.7162 12.8903 58.6346 13.0706 58.5858 13.1867C58.2009 14.0883 57.2293 15.6689 56.5019 16.5673C55.9541 17.2466 55.2366 17.8841 54.1538 18.6567C53.355 19.2266 51.9657 19.9573 50.2861 20.6881C48.1664 21.6153 47.0316 22.3557 46.614 23.0897L46.5032 23.2862L46.6402 23.5082C46.9988 24.0943 47.5957 25.3208 48.0098 26.3221C48.6293 27.8257 48.9358 28.7432 49.1643 29.7992C49.2262 30.0921 49.3144 30.4882 49.3567 30.6846C49.399 30.8778 49.5164 31.4509 49.6176 31.9564C50.0546 34.1555 50.1231 34.4387 50.4263 35.2597C50.6971 35.9872 50.9872 36.6118 51.1829 36.8662C51.2744 36.9885 51.5907 37.3361 51.8841 37.639C52.4581 38.2312 52.6374 38.46 52.781 38.782C52.9701 39.2102 52.9963 39.5192 52.9147 40.3597C52.8298 41.1904 52.8233 41.5798 52.8626 42.7293C52.8951 43.7015 52.8921 43.9752 52.8495 44.7092C52.82 45.1759 52.781 45.8876 52.7646 46.2869C52.7321 47.0885 52.6571 47.5555 52.5168 47.8484C52.2689 48.3668 51.2744 48.8529 50.1916 48.9849C49.536 49.0655 48.9784 48.8176 48.8024 48.3668C48.7568 48.2445 48.747 48.151 48.7601 47.8387C48.7895 47.1914 48.9754 46.7762 49.4219 46.3448C49.559 46.2128 49.696 46.0649 49.7219 46.0099C49.797 45.8682 49.7871 45.5558 49.6894 45.0762C49.6406 44.8445 49.5655 44.4131 49.5167 44.1135C49.4222 43.505 49.2265 42.771 49.083 42.4876C48.9167 42.1656 48.5906 41.7115 48.447 41.6086C48.0916 41.3542 47.5731 41.1354 46.8555 40.939C45.7141 40.6267 44.1032 40.015 43.2749 39.5804C42.9553 39.4098 42.6032 39.1843 42.1466 38.8593C41.9997 38.7532 41.5889 38.46 41.2333 38.2056C40.379 37.5972 40.1375 37.4137 39.6877 37.0402C39.2573 36.6862 39.0648 36.4865 38.9049 36.2419L38.7941 36.0713L38.5561 37.2399C38.0637 39.6642 38.0244 39.8768 37.9755 40.6011C37.9038 41.628 37.8385 42.05 37.6789 42.4846C37.4376 43.151 37.1898 43.4312 36.1821 44.1814C34.7732 45.2277 34.4342 45.4691 34.1634 45.6399C34.0005 45.7396 33.7134 45.9231 33.5242 46.0425C33.1721 46.271 31.6295 47.06 31.2253 47.2208C30.8339 47.3755 30.3612 47.4399 29.0795 47.5234C28.3294 47.5716 28.1043 47.562 27.726 47.4687C27.2238 47.3464 26.9792 47.0664 26.8586 46.4707C26.7868 46.1325 26.7933 45.8814 26.8749 45.6208C26.9598 45.3535 27.051 45.2603 27.4129 45.0703C27.7358 44.8997 27.9315 44.8512 28.512 44.7839C29.1057 44.7162 29.422 44.6262 29.9861 44.3557C30.508 44.1046 30.8309 43.8761 31.258 43.4606C31.6754 43.055 31.871 42.823 32.2526 42.2919C32.4385 42.0343 32.6506 41.7511 32.7253 41.6641C32.9243 41.4324 32.9699 41.3259 32.9699 41.0974C32.9699 40.8204 32.8296 40.3731 32.4677 39.4813C32.2982 39.0725 32.109 38.5926 32.0405 38.4188C31.9753 38.245 31.8317 37.8971 31.7242 37.646C31.6167 37.3949 31.4567 37.0214 31.3721 36.8185C31.2482 36.5288 31.2026 36.4483 31.1535 36.4515C31.121 36.4547 30.9122 36.4933 30.687 36.5385C28.8966 36.9023 28.6553 36.9314 27.9967 36.8958C27.2401 36.8508 24.6183 36.8605 24.3443 36.9055C24.0148 36.9635 23.8031 37.0311 23.6952 37.1181C23.6071 37.189 23.6038 37.1987 23.6529 37.2728C23.8355 37.556 23.9302 38.6026 23.8257 39.1851C23.7703 39.4877 23.6333 40.0835 23.5451 40.4084C23.4376 40.8045 23.4081 41.0233 23.4474 41.1618C23.5323 41.4774 23.9496 41.9829 24.4908 42.4272C24.7649 42.6525 25.391 43.3929 25.5736 43.7052C25.9194 44.304 25.9063 44.7933 25.5182 45.8205C25.2507 46.5256 25.0517 46.9473 24.8659 47.2017C24.6538 47.4946 24.5364 47.601 24.2788 47.7233C24.07 47.823 24.031 47.8327 23.8385 47.8166C23.5711 47.7972 23.3593 47.7104 23.1734 47.5396C22.8702 47.2626 22.743 46.915 22.6974 46.2357C22.6551 45.6176 22.6125 45.3985 22.5017 45.17C22.4007 44.9639 22.1952 44.7836 21.6114 44.3813C21.1223 44.0464 20.7896 43.7793 20.5614 43.5441C20.268 43.2383 19.9091 42.7939 19.7592 42.5493C19.5701 42.2434 19.3386 41.6994 19.2308 41.2936L19.1298 40.9234L19.1364 39.7803C19.1528 37.6942 19.0744 37.3367 18.5299 37.0502C18.2788 36.9182 18.0212 36.8603 17.4799 36.8185C17.2387 36.7991 16.8276 36.7606 16.5667 36.7315C15.9176 36.6638 15.0372 36.6638 14.6589 36.7315C14.4959 36.7606 14.2675 36.7862 14.1436 36.7862C14.0098 36.7862 13.9249 36.7991 13.9249 36.8215C13.9249 36.9053 12.9107 38.2412 12.2813 38.9914C11.7726 39.5933 11.3651 40.1279 11.0127 40.6461C10.4909 41.4221 9.81916 42.2108 9.2288 42.7387C8.8082 43.1186 7.96346 43.8012 7.61793 44.0394C6.96233 44.4902 6.68203 44.7187 6.29391 45.1147C6.05591 45.3562 5.82419 45.6267 5.73958 45.762C5.36129 46.3704 4.9568 46.9532 4.84271 47.0626C4.57851 47.3138 4.27527 47.4102 3.73732 47.4102C3.37213 47.4102 2.81125 47.4585 2.16875 47.5423C1.20665 47.6711 0.932896 47.6517 0.469724 47.4264C0.163216 47.2782 0 47.1044 0 46.9274C0 46.6377 0.238001 46.3319 0.772956 45.9293C1.29153 45.5364 1.44465 45.4432 2.06422 45.1374C2.70671 44.8219 2.94144 44.6513 3.22856 44.294C3.63933 43.7885 3.93301 43.4762 4.19394 43.2701C4.39946 43.106 4.5201 42.9804 4.64729 42.7904C4.85608 42.4781 5.05178 42.1208 5.16914 41.8406C5.218 41.7247 5.36811 41.406 5.50185 41.1322C5.63887 40.8584 5.80181 40.5108 5.87032 40.3594C5.93882 40.208 6.09194 39.8668 6.21285 39.6028C6.33021 39.3355 6.55539 38.8076 6.7085 38.4277C6.86189 38.0477 7.11927 37.4231 7.28249 37.0432C7.73911 35.9614 8.00959 35.2756 8.06854 35.0374C8.21866 34.4481 8.19573 34.0167 7.96756 33.1474C7.88595 32.8384 7.79151 32.4617 7.75876 32.3102C7.58927 31.5633 7.3903 29.4834 7.35427 28.1248C7.31851 26.8241 7.25001 26.2478 7.05431 25.694C6.75763 24.8506 6.4705 24.4319 5.50868 23.4338C5.26085 23.1762 5.19889 23.083 4.99665 22.6934C4.52392 21.7662 4.3738 21.3571 4.30202 20.7713C4.23679 20.2403 4.31512 19.1552 4.45541 18.6111C4.53047 18.3215 4.71306 17.8545 4.92814 17.4005C5.12383 16.9852 5.23137 16.6374 5.19234 16.5409C5.18252 16.5088 5.07498 16.3768 4.95762 16.2415C4.68359 15.9292 4.56295 15.7007 4.43904 15.2788C4.31512 14.8506 4.27282 14.6092 4.27282 14.3645C4.27609 13.814 4.50754 13.5114 4.92841 13.5082C5.33618 13.5082 6.40582 13.8816 6.9959 14.2325C7.39057 14.4674 7.48501 14.4998 7.72956 14.503C8.78609 14.5127 11.7993 14.4739 12.0766 14.4451C12.6277 14.3904 12.644 14.3839 12.9604 14.049C13.4137 13.5758 13.8245 13.2956 14.3008 13.1379C14.6368 13.0253 14.878 13.0156 14.9757 13.1121C15.0344 13.1732 15.0508 13.2344 15.0702 13.5305C15.1321 14.3966 15.0964 14.8603 14.9332 15.327C14.8093 15.6778 14.8876 16.0578 15.2951 17.1138C15.4321 17.4775 15.5724 17.8445 15.6016 17.9348C15.6993 18.2406 15.8298 18.8846 15.8983 19.406C15.9146 19.538 15.9307 19.5607 15.9897 19.5607C16.0287 19.5607 16.1919 19.6024 16.3549 19.6571C16.7755 19.7924 17.9038 19.9759 18.3345 19.9791C18.4551 19.9791 18.8367 19.9438 19.1825 19.8986C21.1032 19.6571 22.1731 19.7183 24.6317 20.2044C25.861 20.4491 27.1916 20.552 28.3461 20.4941C29.0699 20.4555 29.4223 20.4103 30.13 20.2688C31.1475 20.0594 32.2139 19.8824 33.1173 19.7698C33.6359 19.7054 34.2325 19.6248 34.438 19.5928C34.6435 19.5575 35.3414 19.4704 35.9869 19.3995C36.6327 19.3287 37.4545 19.2354 37.8131 19.1902C39.1208 19.0261 41.0775 19.0002 41.6613 19.1387C42.2677 19.2837 42.9135 19.5219 43.494 19.8148L44.068 20.1077L44.3811 19.8083C44.5539 19.6442 44.7757 19.451 44.8767 19.3769C45.1508 19.1772 45.8582 18.7362 46.227 18.5368C46.4063 18.4403 46.6836 18.2856 46.8465 18.1924C47.0062 18.0992 47.3389 17.9186 47.5802 17.7898C48.5161 17.2908 48.6856 17.1943 49.0576 16.9303C49.2729 16.7821 49.5955 16.573 49.7751 16.4636C50.3131 16.1448 51.7482 15.1629 52.1491 14.8409C52.4425 14.6059 53.76 13.2762 54.096 12.8803C54.6372 12.2428 54.9863 11.6506 55.3905 10.691C55.6285 10.1244 55.6839 9.89909 55.8177 8.99749C55.9317 8.20233 55.9547 7.436 55.8829 6.7373C55.8111 6.05801 55.6708 4.96348 55.6351 4.79911C55.5373 4.36448 55.3024 2.76122 55.2732 2.33952C55.221 1.60876 55.247 0.993865 55.3449 0.710398C55.4394 0.423967 55.6937 0.156666 55.9448 0.0696316C56.1659 -0.0039297 56.6095 -0.02333 56.8769 0.0313694Z" fill="#C1E4FF"/>
</svg>
