<svg width="792" height="168" viewBox="0 0 792 168" fill="none" xmlns="http://www.w3.org/2000/svg">
<rect width="792" height="168" fill="white"/>
<g filter="url(#filter0_d_1991_3513)">
<rect x="616" y="16" width="136" height="136" rx="68" fill="#E8EFFF" fill-opacity="0.2" shape-rendering="crispEdges"/>
<rect x="616" y="16" width="136" height="136" rx="68" fill="white" fill-opacity="0.15" shape-rendering="crispEdges"/>
<g filter="url(#filter1_d_1991_3513)">
<rect x="632" y="32" width="104" height="104" rx="52" fill="white" fill-opacity="0.5" shape-rendering="crispEdges"/>
<g filter="url(#filter2_d_1991_3513)">
<rect x="648" y="48" width="72" height="72" rx="36" fill="white"/>
<path d="M664.92 92.0321L678.2 69.2969C679.887 70.29 688.393 74.9976 689.767 75.8927L676.487 98.6293C675.035 100.548 663.08 94.9438 664.92 92.0307V92.0321Z" fill="#FBBC04"/>
<path d="M703.076 92.0315L689.796 69.2977C687.939 66.2081 683.94 65.0853 680.656 66.9102C677.372 68.735 676.372 72.666 678.229 75.8936L691.509 98.6301C693.365 101.718 697.364 102.841 700.648 101.016C703.789 99.1915 704.932 95.1212 703.076 92.0343V92.0315Z" fill="#4285F4"/>
<path d="M670.666 101.895C674.348 101.895 677.332 98.9847 677.332 95.3945C677.332 91.8043 674.348 88.8938 670.666 88.8938C666.985 88.8938 664 91.8043 664 95.3945C664 98.9847 666.985 101.895 670.666 101.895Z" fill="#34A853"/>
</g>
</g>
</g>
<path d="M452 83.1562C451.448 83.1563 451 83.604 451 84.1563C451 84.7085 451.448 85.1563 452 85.1562L452 83.1562ZM608 84.1562L598 78.3827L598 89.9297L608 84.1562ZM452.5 85.1562C453.052 85.1562 453.5 84.7085 453.5 84.1562C453.5 83.604 453.052 83.1562 452.5 83.1562L452.5 85.1562ZM457.5 83.1562C456.948 83.1562 456.5 83.604 456.5 84.1562C456.5 84.7085 456.948 85.1562 457.5 85.1562L457.5 83.1562ZM458.5 85.1562C459.052 85.1562 459.5 84.7085 459.5 84.1562C459.5 83.604 459.052 83.1562 458.5 83.1562L458.5 85.1562ZM463.5 83.1562C462.948 83.1562 462.5 83.604 462.5 84.1562C462.5 84.7085 462.948 85.1562 463.5 85.1562L463.5 83.1562ZM464.5 85.1562C465.052 85.1562 465.5 84.7085 465.5 84.1562C465.5 83.604 465.052 83.1562 464.5 83.1562L464.5 85.1562ZM469.5 83.1562C468.948 83.1562 468.5 83.604 468.5 84.1562C468.5 84.7085 468.948 85.1562 469.5 85.1562L469.5 83.1562ZM470.5 85.1562C471.052 85.1562 471.5 84.7085 471.5 84.1562C471.5 83.604 471.052 83.1562 470.5 83.1562L470.5 85.1562ZM475.5 83.1562C474.948 83.1562 474.5 83.604 474.5 84.1562C474.5 84.7085 474.948 85.1562 475.5 85.1562L475.5 83.1562ZM476.5 85.1562C477.052 85.1562 477.5 84.7085 477.5 84.1562C477.5 83.604 477.052 83.1562 476.5 83.1562L476.5 85.1562ZM481.5 83.1562C480.948 83.1562 480.5 83.604 480.5 84.1562C480.5 84.7085 480.948 85.1562 481.5 85.1562L481.5 83.1562ZM482.5 85.1562C483.052 85.1562 483.5 84.7085 483.5 84.1562C483.5 83.604 483.052 83.1562 482.5 83.1562L482.5 85.1562ZM487.5 83.1562C486.948 83.1562 486.5 83.604 486.5 84.1562C486.5 84.7085 486.948 85.1562 487.5 85.1562L487.5 83.1562ZM488.5 85.1562C489.052 85.1562 489.5 84.7085 489.5 84.1562C489.5 83.604 489.052 83.1562 488.5 83.1562L488.5 85.1562ZM493.5 83.1562C492.948 83.1562 492.5 83.604 492.5 84.1562C492.5 84.7085 492.948 85.1562 493.5 85.1562L493.5 83.1562ZM494.5 85.1562C495.052 85.1562 495.5 84.7085 495.5 84.1562C495.5 83.604 495.052 83.1562 494.5 83.1562L494.5 85.1562ZM499.5 83.1562C498.948 83.1562 498.5 83.604 498.5 84.1562C498.5 84.7085 498.948 85.1562 499.5 85.1562L499.5 83.1562ZM500.5 85.1562C501.052 85.1562 501.5 84.7085 501.5 84.1562C501.5 83.604 501.052 83.1562 500.5 83.1562L500.5 85.1562ZM505.5 83.1562C504.948 83.1562 504.5 83.604 504.5 84.1562C504.5 84.7085 504.948 85.1562 505.5 85.1562L505.5 83.1562ZM506.5 85.1562C507.052 85.1562 507.5 84.7085 507.5 84.1562C507.5 83.604 507.052 83.1562 506.5 83.1562L506.5 85.1562ZM511.5 83.1562C510.948 83.1562 510.5 83.604 510.5 84.1562C510.5 84.7085 510.948 85.1562 511.5 85.1562L511.5 83.1562ZM512.5 85.1562C513.052 85.1562 513.5 84.7085 513.5 84.1562C513.5 83.604 513.052 83.1562 512.5 83.1562L512.5 85.1562ZM517.5 83.1562C516.948 83.1562 516.5 83.604 516.5 84.1562C516.5 84.7085 516.948 85.1562 517.5 85.1562L517.5 83.1562ZM518.5 85.1562C519.052 85.1562 519.5 84.7085 519.5 84.1562C519.5 83.604 519.052 83.1562 518.5 83.1562L518.5 85.1562ZM523.5 83.1562C522.948 83.1562 522.5 83.604 522.5 84.1562C522.5 84.7085 522.948 85.1562 523.5 85.1562L523.5 83.1562ZM524.5 85.1562C525.052 85.1562 525.5 84.7085 525.5 84.1562C525.5 83.604 525.052 83.1562 524.5 83.1562L524.5 85.1562ZM529.5 83.1562C528.948 83.1562 528.5 83.604 528.5 84.1562C528.5 84.7085 528.948 85.1562 529.5 85.1562L529.5 83.1562ZM530.5 85.1562C531.052 85.1562 531.5 84.7085 531.5 84.1562C531.5 83.604 531.052 83.1562 530.5 83.1562L530.5 85.1562ZM535.5 83.1562C534.948 83.1562 534.5 83.604 534.5 84.1562C534.5 84.7085 534.948 85.1562 535.5 85.1562L535.5 83.1562ZM536.5 85.1562C537.052 85.1562 537.5 84.7085 537.5 84.1562C537.5 83.604 537.052 83.1562 536.5 83.1562L536.5 85.1562ZM541.5 83.1562C540.948 83.1562 540.5 83.604 540.5 84.1562C540.5 84.7085 540.948 85.1562 541.5 85.1562L541.5 83.1562ZM542.5 85.1562C543.052 85.1562 543.5 84.7085 543.5 84.1562C543.5 83.604 543.052 83.1562 542.5 83.1562L542.5 85.1562ZM547.5 83.1562C546.948 83.1562 546.5 83.604 546.5 84.1562C546.5 84.7085 546.948 85.1562 547.5 85.1562L547.5 83.1562ZM548.5 85.1562C549.052 85.1562 549.5 84.7085 549.5 84.1562C549.5 83.604 549.052 83.1562 548.5 83.1562L548.5 85.1562ZM553.5 83.1562C552.948 83.1562 552.5 83.604 552.5 84.1562C552.5 84.7085 552.948 85.1562 553.5 85.1562L553.5 83.1562ZM554.5 85.1562C555.052 85.1562 555.5 84.7085 555.5 84.1562C555.5 83.604 555.052 83.1562 554.5 83.1562L554.5 85.1562ZM559.5 83.1562C558.948 83.1562 558.5 83.6039 558.5 84.1562C558.5 84.7085 558.948 85.1562 559.5 85.1562L559.5 83.1562ZM560.5 85.1562C561.052 85.1562 561.5 84.7085 561.5 84.1562C561.5 83.6039 561.052 83.1562 560.5 83.1562L560.5 85.1562ZM565.5 83.1562C564.948 83.1562 564.5 83.6039 564.5 84.1562C564.5 84.7085 564.948 85.1562 565.5 85.1562L565.5 83.1562ZM566.5 85.1562C567.052 85.1562 567.5 84.7085 567.5 84.1562C567.5 83.6039 567.052 83.1562 566.5 83.1562L566.5 85.1562ZM571.5 83.1562C570.948 83.1562 570.5 83.6039 570.5 84.1562C570.5 84.7085 570.948 85.1562 571.5 85.1562L571.5 83.1562ZM572.5 85.1562C573.052 85.1562 573.5 84.7085 573.5 84.1562C573.5 83.6039 573.052 83.1562 572.5 83.1562L572.5 85.1562ZM577.5 83.1562C576.948 83.1562 576.5 83.6039 576.5 84.1562C576.5 84.7085 576.948 85.1562 577.5 85.1562L577.5 83.1562ZM578.5 85.1562C579.052 85.1562 579.5 84.7085 579.5 84.1562C579.5 83.6039 579.052 83.1562 578.5 83.1562L578.5 85.1562ZM583.5 83.1562C582.948 83.1562 582.5 83.6039 582.5 84.1562C582.5 84.7085 582.948 85.1562 583.5 85.1562L583.5 83.1562ZM584.5 85.1562C585.052 85.1562 585.5 84.7085 585.5 84.1562C585.5 83.6039 585.052 83.1562 584.5 83.1562L584.5 85.1562ZM589.5 83.1562C588.948 83.1562 588.5 83.6039 588.5 84.1562C588.5 84.7085 588.948 85.1562 589.5 85.1562L589.5 83.1562ZM590.5 85.1562C591.052 85.1562 591.5 84.7085 591.5 84.1562C591.5 83.6039 591.052 83.1562 590.5 83.1562L590.5 85.1562ZM595.5 83.1562C594.948 83.1562 594.5 83.6039 594.5 84.1562C594.5 84.7085 594.948 85.1562 595.5 85.1562L595.5 83.1562ZM596.5 85.1562C597.052 85.1562 597.5 84.7085 597.5 84.1562C597.5 83.6039 597.052 83.1562 596.5 83.1562L596.5 85.1562ZM601.5 83.1562C600.948 83.1562 600.5 83.6039 600.5 84.1562C600.5 84.7085 600.948 85.1562 601.5 85.1562L601.5 83.1562ZM602.5 85.1562C603.052 85.1562 603.5 84.7085 603.5 84.1562C603.5 83.6039 603.052 83.1562 602.5 83.1562L602.5 85.1562ZM607.5 83.1562C606.948 83.1562 606.5 83.6039 606.5 84.1562C606.5 84.7085 606.948 85.1562 607.5 85.1562L607.5 83.1562ZM452 84.1562L452 85.1562L452.5 85.1562L452.5 84.1562L452.5 83.1562L452 83.1562L452 84.1562ZM457.5 84.1562L457.5 85.1562L458.5 85.1562L458.5 84.1562L458.5 83.1562L457.5 83.1562L457.5 84.1562ZM463.5 84.1562L463.5 85.1562L464.5 85.1562L464.5 84.1562L464.5 83.1562L463.5 83.1562L463.5 84.1562ZM469.5 84.1562L469.5 85.1562L470.5 85.1562L470.5 84.1562L470.5 83.1562L469.5 83.1562L469.5 84.1562ZM475.5 84.1562L475.5 85.1562L476.5 85.1562L476.5 84.1562L476.5 83.1562L475.5 83.1562L475.5 84.1562ZM481.5 84.1562L481.5 85.1562L482.5 85.1562L482.5 84.1562L482.5 83.1562L481.5 83.1562L481.5 84.1562ZM487.5 84.1562L487.5 85.1562L488.5 85.1562L488.5 84.1562L488.5 83.1562L487.5 83.1562L487.5 84.1562ZM493.5 84.1562L493.5 85.1562L494.5 85.1562L494.5 84.1562L494.5 83.1562L493.5 83.1562L493.5 84.1562ZM499.5 84.1562L499.5 85.1562L500.5 85.1562L500.5 84.1562L500.5 83.1562L499.5 83.1562L499.5 84.1562ZM505.5 84.1562L505.5 85.1562L506.5 85.1562L506.5 84.1562L506.5 83.1562L505.5 83.1562L505.5 84.1562ZM511.5 84.1562L511.5 85.1562L512.5 85.1562L512.5 84.1562L512.5 83.1562L511.5 83.1562L511.5 84.1562ZM517.5 84.1562L517.5 85.1562L518.5 85.1562L518.5 84.1562L518.5 83.1562L517.5 83.1562L517.5 84.1562ZM523.5 84.1562L523.5 85.1562L524.5 85.1562L524.5 84.1562L524.5 83.1562L523.5 83.1562L523.5 84.1562ZM529.5 84.1562L529.5 85.1562L530.5 85.1562L530.5 84.1562L530.5 83.1562L529.5 83.1562L529.5 84.1562ZM535.5 84.1562L535.5 85.1562L536.5 85.1562L536.5 84.1562L536.5 83.1562L535.5 83.1562L535.5 84.1562ZM541.5 84.1562L541.5 85.1562L542.5 85.1562L542.5 84.1562L542.5 83.1562L541.5 83.1562L541.5 84.1562ZM547.5 84.1562L547.5 85.1562L548.5 85.1562L548.5 84.1562L548.5 83.1562L547.5 83.1562L547.5 84.1562ZM553.5 84.1562L553.5 85.1562L554.5 85.1562L554.5 84.1562L554.5 83.1562L553.5 83.1562L553.5 84.1562ZM559.5 84.1562L559.5 85.1562L560.5 85.1562L560.5 84.1562L560.5 83.1562L559.5 83.1562L559.5 84.1562ZM565.5 84.1562L565.5 85.1562L566.5 85.1562L566.5 84.1562L566.5 83.1562L565.5 83.1562L565.5 84.1562ZM571.5 84.1562L571.5 85.1562L572.5 85.1562L572.5 84.1562L572.5 83.1562L571.5 83.1562L571.5 84.1562ZM577.5 84.1562L577.5 85.1562L578.5 85.1562L578.5 84.1562L578.5 83.1562L577.5 83.1562L577.5 84.1562ZM583.5 84.1562L583.5 85.1562L584.5 85.1562L584.5 84.1562L584.5 83.1562L583.5 83.1562L583.5 84.1562ZM589.5 84.1562L589.5 85.1562L590.5 85.1562L590.5 84.1562L590.5 83.1562L589.5 83.1562L589.5 84.1562ZM595.5 84.1562L595.5 85.1562L596.5 85.1562L596.5 84.1562L596.5 83.1562L595.5 83.1562L595.5 84.1562ZM601.5 84.1562L601.5 85.1562L602.5 85.1562L602.5 84.1562L602.5 83.1562L601.5 83.1562L601.5 84.1562Z" fill="#E8EFFF"/>
<path d="M451.608 59.2361C451.1 59.4524 450.864 60.0396 451.08 60.5478C451.296 61.056 451.883 61.2927 452.392 61.0764L451.608 59.2361ZM608 60.1562L600.9 51.0503L596.564 61.7523L608 60.1562ZM453.326 60.6798C453.835 60.4647 454.073 59.878 453.858 59.3693C453.643 58.8606 453.056 58.6227 452.547 58.8378L453.326 60.6798ZM457.181 56.9099C456.67 57.119 456.425 57.7029 456.634 58.214C456.843 58.7252 457.427 58.9701 457.938 58.761L457.181 56.9099ZM459.812 57.9999C460.325 57.7934 460.573 57.2108 460.366 56.6986C460.16 56.1863 459.577 55.9384 459.065 56.1449L459.812 57.9999ZM463.74 54.2976C463.225 54.4969 462.969 55.0761 463.168 55.5911C463.367 56.1062 463.947 56.3621 464.462 56.1628L463.74 54.2976ZM466.338 55.4431C466.854 55.2469 467.114 54.6693 466.917 54.1531C466.721 53.6368 466.144 53.3774 465.627 53.5736L466.338 55.4431ZM470.348 51.8223C469.828 52.0101 469.559 52.5834 469.747 53.1028C469.935 53.6221 470.508 53.8909 471.028 53.703L470.348 51.8223ZM472.904 53.0316C473.425 52.8474 473.698 52.2759 473.514 51.7553C473.329 51.2346 472.758 50.9619 472.237 51.1461L472.904 53.0316ZM477.004 49.5086C476.48 49.6831 476.197 50.2493 476.371 50.7733C476.546 51.2973 477.112 51.5807 477.636 51.4063L477.004 49.5086ZM479.529 50.7845C480.055 50.6143 480.343 50.0504 480.173 49.525C480.002 48.9996 479.439 48.7116 478.913 48.8818L479.529 50.7845ZM483.723 47.3801C483.194 47.5389 482.894 48.0964 483.053 48.6254C483.212 49.1544 483.769 49.4545 484.298 49.2957L483.723 47.3801ZM486.226 48.7269C486.756 48.573 487.061 48.0183 486.907 47.4879C486.754 46.9575 486.199 46.6522 485.669 46.806L486.226 48.7269ZM490.529 45.4604C489.995 45.6011 489.676 46.1481 489.816 46.6822C489.957 47.2162 490.504 47.5351 491.038 47.3945L490.529 45.4604ZM492.964 46.8981C493.499 46.763 493.824 46.2194 493.689 45.6839C493.554 45.1484 493.01 44.8237 492.475 44.9588L492.964 46.8981ZM497.384 43.7925C496.845 43.9126 496.505 44.4469 496.625 44.986C496.745 45.525 497.279 45.8648 497.818 45.7447L497.384 43.7925ZM499.776 45.321C500.316 45.2073 500.662 44.6771 500.549 44.1366C500.435 43.5962 499.905 43.2501 499.364 43.3638L499.776 45.321ZM504.321 42.4008C503.778 42.4976 503.415 43.0168 503.512 43.5605C503.609 44.1043 504.128 44.4666 504.672 44.3698L504.321 42.4008ZM506.634 44.0336C507.179 43.9439 507.548 43.4294 507.458 42.8844C507.368 42.3395 506.854 41.9705 506.309 42.0602L506.634 44.0336ZM511.305 41.3233C510.758 41.3946 510.372 41.8963 510.443 42.444C510.514 42.9917 511.016 43.3779 511.563 43.3066L511.305 41.3233ZM513.546 43.0628C514.095 42.9993 514.488 42.503 514.425 41.9544C514.361 41.4058 513.865 41.0126 513.316 41.0761L513.546 43.0628ZM518.346 40.5845C517.796 40.6283 517.385 41.1101 517.429 41.6606C517.472 42.2112 517.954 42.622 518.505 42.5782L518.346 40.5845ZM520.49 42.4351C521.041 42.3995 521.459 41.9238 521.423 41.3726C521.387 40.8215 520.912 40.4036 520.361 40.4393L520.49 42.4351ZM525.411 40.2066C524.859 40.2218 524.424 40.6815 524.439 41.2336C524.454 41.7857 524.914 42.221 525.466 42.2059L525.411 40.2066ZM527.459 42.1663C528.011 42.1595 528.453 41.7063 528.447 41.1541C528.44 40.6018 527.987 40.1597 527.434 40.1665L527.459 42.1663ZM532.49 40.1989C531.937 40.185 531.479 40.6214 531.465 41.1735C531.451 41.7256 531.887 42.1844 532.439 42.1983L532.49 40.1989ZM534.432 42.2632C534.984 42.2853 535.449 41.8558 535.471 41.304C535.493 40.7521 535.064 40.2869 534.512 40.2648L534.432 42.2632ZM539.557 40.5595C539.007 40.5173 538.526 40.9294 538.484 41.4801C538.441 42.0308 538.854 42.5114 539.404 42.5536L539.557 40.5595ZM541.389 42.7201C541.939 42.7702 542.426 42.3649 542.476 41.8149C542.526 41.2649 542.121 40.7785 541.571 40.7284L541.389 42.7201ZM546.595 41.2745C546.047 41.2054 545.547 41.5935 545.478 42.1415C545.409 42.6894 545.797 43.1896 546.345 43.2587L546.595 41.2745ZM548.322 43.5216C548.869 43.598 549.374 43.2166 549.451 42.6696C549.527 42.1226 549.146 41.6173 548.599 41.5408L548.322 43.5216ZM553.587 42.3202C553.043 42.2264 552.526 42.5915 552.432 43.1357C552.338 43.6799 552.703 44.1972 553.247 44.2911L553.587 42.3202ZM555.211 44.6423C555.754 44.7428 556.276 44.384 556.376 43.841C556.477 43.2979 556.118 42.7762 555.575 42.6757L555.211 44.6423ZM560.525 43.6671C559.985 43.5509 559.453 43.8944 559.337 44.4344C559.221 44.9743 559.565 45.5062 560.105 45.6223L560.525 43.6671ZM562.056 46.0534C562.595 46.1755 563.13 45.8378 563.252 45.2992C563.374 44.7606 563.037 44.225 562.498 44.1029L562.056 46.0534ZM567.402 45.2816C566.867 45.1457 566.323 45.4696 566.187 46.0049C566.051 46.5402 566.375 47.0843 566.91 47.2201L567.402 45.2816ZM568.84 47.7196C569.374 47.8606 569.921 47.542 570.062 47.008C570.203 46.474 569.884 45.9268 569.35 45.7859L568.84 47.7196ZM574.209 47.1278C573.678 46.9749 573.124 47.2812 572.971 47.8119C572.818 48.3426 573.124 48.8968 573.655 49.0497L574.209 47.1278ZM575.588 49.6154C576.117 49.7728 576.674 49.4712 576.831 48.9418C576.989 48.4124 576.687 47.8556 576.158 47.6983L575.588 49.6154ZM580.971 49.1806C580.445 49.013 579.882 49.3038 579.715 49.8301C579.547 50.3563 579.838 50.9188 580.364 51.0863L580.971 49.1806ZM582.257 51.6967C582.782 51.868 583.347 51.5813 583.518 51.0562C583.689 50.5312 583.403 49.9667 582.878 49.7954L582.257 51.6967ZM587.654 51.3988C587.132 51.2188 586.563 51.4961 586.383 52.0182C586.203 52.5403 586.48 53.1095 587.002 53.2896L587.654 51.3988ZM588.887 53.946C589.408 54.1292 589.979 53.8554 590.162 53.3344C590.345 52.8134 590.072 52.2425 589.551 52.0593L588.887 53.946ZM594.286 53.7628C593.767 53.5723 593.192 53.838 593.002 54.3564C592.811 54.8747 593.077 55.4494 593.595 55.64L594.286 53.7628ZM595.482 56.3391C595.999 56.5324 596.575 56.2696 596.768 55.7523C596.962 55.2349 596.699 54.6588 596.182 54.4656L595.482 56.3391ZM600.877 56.2524C600.362 56.053 599.783 56.3088 599.584 56.8238C599.384 57.3389 599.64 57.918 600.155 58.1175L600.877 56.2524ZM602.04 58.8521C602.554 59.0538 603.134 58.8006 603.336 58.2864C603.537 57.7723 603.284 57.192 602.77 56.9903L602.04 58.8521ZM607.432 58.847C606.919 58.6401 606.337 58.8875 606.13 59.3996C605.923 59.9116 606.17 60.4945 606.682 60.7014L607.432 58.847ZM452 60.1562L452.392 61.0764C452.704 60.9435 453.015 60.8113 453.326 60.6798L452.937 59.7588L452.547 58.8378C452.235 58.9698 451.922 59.1026 451.608 59.2361L452 60.1562ZM457.559 57.8354L457.938 58.761C458.566 58.5043 459.19 58.2506 459.812 57.9999L459.439 57.0724L459.065 56.1449C458.439 56.3969 457.812 56.6519 457.181 56.9099L457.559 57.8354ZM464.101 55.2302L464.462 56.1628C465.09 55.9197 465.715 55.6798 466.338 55.4431L465.983 54.5084L465.627 53.5736C465.001 53.8117 464.372 54.0531 463.74 54.2976L464.101 55.2302ZM470.688 52.7627L471.028 53.703C471.656 53.4758 472.282 53.252 472.904 53.0316L472.571 52.0889L472.237 51.1461C471.61 51.3681 470.98 51.5935 470.348 51.8223L470.688 52.7627ZM477.32 50.4575L477.636 51.4063C478.27 51.1954 478.901 50.9881 479.529 50.7845L479.221 49.8331L478.913 48.8818C478.279 49.0871 477.643 49.2961 477.004 49.5086L477.32 50.4575ZM484.011 48.3379L484.298 49.2957C484.943 49.1021 485.586 48.9125 486.226 48.7269L485.947 47.7664L485.669 46.806C485.022 46.9934 484.374 47.1848 483.723 47.3801L484.011 48.3379ZM490.783 46.4275L491.038 47.3945C491.682 47.2248 492.324 47.0594 492.964 46.8981L492.719 45.9284L492.475 44.9588C491.828 45.1218 491.179 45.289 490.529 45.4604L490.783 46.4275ZM497.601 44.7686L497.818 45.7447C498.473 45.599 499.125 45.4578 499.776 45.321L499.57 44.3424L499.364 43.3638C498.706 43.5022 498.046 43.6451 497.384 43.7925L497.601 44.7686ZM504.497 43.3853L504.672 44.3698C505.327 44.2531 505.981 44.141 506.634 44.0336L506.471 43.0469L506.309 42.0602C505.648 42.169 504.985 42.2825 504.321 42.4008L504.497 43.3853ZM511.434 42.315L511.563 43.3066C512.226 43.2205 512.886 43.1392 513.546 43.0628L513.431 42.0695L513.316 41.0761C512.647 41.1536 511.977 41.236 511.305 41.3233L511.434 42.315ZM518.426 41.5814L518.505 42.5782C519.167 42.5256 519.829 42.4779 520.49 42.4351L520.425 41.4372L520.361 40.4393C519.69 40.4827 519.018 40.5311 518.346 40.5845L518.426 41.5814ZM525.439 41.2063L525.466 42.2059C526.131 42.1877 526.795 42.1745 527.459 42.1663L527.447 41.1664L527.434 40.1665C526.76 40.1748 526.086 40.1882 525.411 40.2066L525.439 41.2063ZM532.464 41.1986L532.439 42.1983C533.103 42.215 533.767 42.2366 534.432 42.2632L534.472 41.264L534.512 40.2648C533.837 40.2378 533.163 40.2158 532.49 40.1989L532.464 41.1986ZM539.481 41.5566L539.404 42.5536C540.065 42.6043 540.727 42.6598 541.389 42.7201L541.48 41.7243L541.571 40.7284C540.899 40.6672 540.228 40.6109 539.557 40.5595L539.481 41.5566ZM546.47 42.2666L546.345 43.2587C547.003 43.3417 547.662 43.4293 548.322 43.5216L548.461 42.5312L548.599 41.5408C547.93 41.4473 547.262 41.3585 546.595 41.2745L546.47 42.2666ZM553.417 43.3057L553.247 44.2911C553.9 44.4037 554.555 44.5208 555.211 44.6423L555.393 43.659L555.575 42.6757C554.911 42.5527 554.248 42.4342 553.587 42.3202L553.417 43.3057ZM560.315 44.6447L560.105 45.6223C560.753 45.7619 561.403 45.9056 562.056 46.0534L562.277 45.0782L562.498 44.1029C561.838 43.9534 561.181 43.8082 560.525 43.6671L560.315 44.6447ZM567.156 46.2508L566.91 47.2201C567.551 47.3827 568.194 47.5492 568.84 47.7196L569.095 46.7528L569.35 45.7859C568.698 45.6139 568.049 45.4458 567.402 45.2816L567.156 46.2508ZM573.932 48.0887L573.655 49.0497C574.297 49.2346 574.941 49.4231 575.588 49.6154L575.873 48.6569L576.158 47.6983C575.506 47.5045 574.856 47.3143 574.209 47.1278L573.932 48.0887ZM580.667 50.1335L580.364 51.0863C580.992 51.2864 581.623 51.4899 582.257 51.6967L582.567 50.746L582.878 49.7954C582.239 49.5871 581.604 49.3822 580.971 49.1806L580.667 50.1335ZM587.328 52.3442L587.002 53.2896C587.628 53.5053 588.256 53.7241 588.887 53.946L589.219 53.0027L589.551 52.0593C588.916 51.836 588.284 51.6159 587.654 51.3988L587.328 52.3442ZM593.94 54.7014L593.595 55.64C594.221 55.8701 594.85 56.1032 595.482 56.3391L595.832 55.4023L596.182 54.4656C595.547 54.2284 594.915 53.9942 594.286 53.7628L593.94 54.7014ZM600.516 57.185L600.155 58.1175C600.78 58.3596 601.409 58.6045 602.04 58.8521L602.405 57.9212L602.77 56.9903C602.136 56.7416 601.505 56.4957 600.877 56.2524L600.516 57.185Z" fill="#E8EFFF"/>
<path d="M451.608 109.076C451.1 108.86 450.864 108.273 451.08 107.765C451.296 107.256 451.883 107.02 452.392 107.236L451.608 109.076ZM608 108.156L600.9 117.262L596.564 106.56L608 108.156ZM453.326 107.633C453.835 107.848 454.073 108.435 453.858 108.943C453.643 109.452 453.056 109.69 452.547 109.475L453.326 107.633ZM457.181 111.403C456.67 111.194 456.425 110.61 456.634 110.098C456.843 109.587 457.427 109.342 457.938 109.552L457.181 111.403ZM459.812 110.313C460.325 110.519 460.573 111.102 460.366 111.614C460.16 112.126 459.577 112.374 459.065 112.168L459.812 110.313ZM463.74 114.015C463.225 113.816 462.969 113.236 463.168 112.721C463.367 112.206 463.947 111.95 464.462 112.15L463.74 114.015ZM466.338 112.869C466.854 113.066 467.114 113.643 466.917 114.159C466.721 114.676 466.144 114.935 465.627 114.739L466.338 112.869ZM470.348 116.49C469.828 116.302 469.559 115.729 469.747 115.21C469.935 114.69 470.508 114.422 471.028 114.609L470.348 116.49ZM472.904 115.281C473.425 115.465 473.698 116.037 473.514 116.557C473.329 117.078 472.758 117.351 472.237 117.166L472.904 115.281ZM477.004 118.804C476.48 118.629 476.197 118.063 476.371 117.539C476.546 117.015 477.112 116.732 477.636 116.906L477.004 118.804ZM479.529 117.528C480.055 117.698 480.343 118.262 480.173 118.788C480.002 119.313 479.439 119.601 478.913 119.431L479.529 117.528ZM483.723 120.932C483.194 120.774 482.894 120.216 483.053 119.687C483.212 119.158 483.769 118.858 484.298 119.017L483.723 120.932ZM486.226 119.586C486.756 119.739 487.061 120.294 486.907 120.825C486.754 121.355 486.199 121.66 485.669 121.506L486.226 119.586ZM490.529 122.852C489.995 122.711 489.676 122.164 489.816 121.63C489.957 121.096 490.504 120.777 491.038 120.918L490.529 122.852ZM492.964 121.414C493.499 121.549 493.824 122.093 493.689 122.629C493.554 123.164 493.01 123.489 492.475 123.354L492.964 121.414ZM497.384 124.52C496.845 124.4 496.505 123.866 496.625 123.327C496.745 122.787 497.279 122.448 497.818 122.568L497.384 124.52ZM499.776 122.992C500.316 123.105 500.662 123.635 500.549 124.176C500.435 124.716 499.905 125.062 499.364 124.949L499.776 122.992ZM504.321 125.912C503.778 125.815 503.415 125.296 503.512 124.752C503.609 124.208 504.128 123.846 504.672 123.943L504.321 125.912ZM506.634 124.279C507.179 124.369 507.548 124.883 507.458 125.428C507.368 125.973 506.854 126.342 506.309 126.252L506.634 124.279ZM511.305 126.989C510.758 126.918 510.372 126.416 510.443 125.869C510.514 125.321 511.016 124.935 511.563 125.006L511.305 126.989ZM513.546 125.25C514.095 125.313 514.488 125.809 514.425 126.358C514.361 126.907 513.865 127.3 513.316 127.236L513.546 125.25ZM518.346 127.728C517.796 127.684 517.385 127.202 517.429 126.652C517.472 126.101 517.954 125.69 518.505 125.734L518.346 127.728ZM520.49 125.877C521.041 125.913 521.459 126.389 521.423 126.94C521.387 127.491 520.912 127.909 520.361 127.873L520.49 125.877ZM525.411 128.106C524.859 128.091 524.424 127.631 524.439 127.079C524.454 126.527 524.914 126.091 525.466 126.107L525.411 128.106ZM527.459 126.146C528.011 126.153 528.453 126.606 528.447 127.158C528.44 127.711 527.987 128.153 527.434 128.146L527.459 126.146ZM532.49 128.114C531.937 128.127 531.479 127.691 531.465 127.139C531.451 126.587 531.887 126.128 532.439 126.114L532.49 128.114ZM534.432 126.049C534.984 126.027 535.449 126.457 535.471 127.009C535.493 127.56 535.064 128.026 534.512 128.048L534.432 126.049ZM539.557 127.753C539.007 127.795 538.526 127.383 538.484 126.832C538.441 126.282 538.854 125.801 539.404 125.759L539.557 127.753ZM541.389 125.592C541.939 125.542 542.426 125.948 542.476 126.498C542.526 127.048 542.121 127.534 541.571 127.584L541.389 125.592ZM546.595 127.038C546.047 127.107 545.547 126.719 545.478 126.171C545.409 125.623 545.797 125.123 546.345 125.054L546.595 127.038ZM548.322 124.791C548.869 124.714 549.374 125.096 549.451 125.643C549.527 126.19 549.146 126.695 548.599 126.772L548.322 124.791ZM553.587 125.992C553.043 126.086 552.526 125.721 552.432 125.177C552.338 124.633 552.703 124.115 553.247 124.021L553.587 125.992ZM555.211 123.67C555.754 123.57 556.276 123.928 556.376 124.472C556.477 125.015 556.118 125.536 555.575 125.637L555.211 123.67ZM560.525 124.645C559.985 124.762 559.453 124.418 559.337 123.878C559.221 123.338 559.565 122.806 560.105 122.69L560.525 124.645ZM562.056 122.259C562.595 122.137 563.13 122.475 563.252 123.013C563.374 123.552 563.037 124.088 562.498 124.21L562.056 122.259ZM567.402 123.031C566.867 123.167 566.323 122.843 566.187 122.308C566.051 121.772 566.375 121.228 566.91 121.092L567.402 123.031ZM568.84 120.593C569.374 120.452 569.921 120.771 570.062 121.305C570.203 121.839 569.884 122.386 569.35 122.527L568.84 120.593ZM574.209 121.185C573.678 121.338 573.124 121.031 572.971 120.501C572.818 119.97 573.124 119.416 573.655 119.263L574.209 121.185ZM575.588 118.697C576.117 118.54 576.674 118.841 576.831 119.371C576.989 119.9 576.687 120.457 576.158 120.614L575.588 118.697ZM580.971 119.132C580.445 119.299 579.882 119.009 579.715 118.482C579.547 117.956 579.838 117.394 580.364 117.226L580.971 119.132ZM582.257 116.616C582.782 116.444 583.347 116.731 583.518 117.256C583.689 117.781 583.403 118.346 582.878 118.517L582.257 116.616ZM587.654 116.914C587.132 117.094 586.563 116.816 586.383 116.294C586.203 115.772 586.48 115.203 587.002 115.023L587.654 116.914ZM588.887 114.366C589.408 114.183 589.979 114.457 590.162 114.978C590.345 115.499 590.072 116.07 589.551 116.253L588.887 114.366ZM594.286 114.55C593.767 114.74 593.192 114.474 593.002 113.956C592.811 113.438 593.077 112.863 593.595 112.672L594.286 114.55ZM595.482 111.973C595.999 111.78 596.575 112.043 596.768 112.56C596.962 113.078 596.699 113.654 596.182 113.847L595.482 111.973ZM600.877 112.06C600.362 112.259 599.783 112.004 599.584 111.489C599.384 110.974 599.64 110.394 600.155 110.195L600.877 112.06ZM602.04 109.46C602.554 109.259 603.134 109.512 603.336 110.026C603.537 110.54 603.284 111.12 602.77 111.322L602.04 109.46ZM607.432 109.465C606.919 109.672 606.337 109.425 606.13 108.913C605.923 108.401 606.17 107.818 606.682 107.611L607.432 109.465ZM452 108.156L452.392 107.236C452.704 107.369 453.015 107.501 453.326 107.633L452.937 108.554L452.547 109.475C452.235 109.343 451.922 109.21 451.608 109.076L452 108.156ZM457.559 110.477L457.938 109.552C458.566 109.808 459.19 110.062 459.812 110.313L459.439 111.24L459.065 112.168C458.439 111.916 457.812 111.661 457.181 111.403L457.559 110.477ZM464.101 113.082L464.462 112.15C465.09 112.393 465.715 112.633 466.338 112.869L465.983 113.804L465.627 114.739C465.001 114.501 464.372 114.259 463.74 114.015L464.101 113.082ZM470.688 115.55L471.028 114.609C471.656 114.837 472.282 115.06 472.904 115.281L472.571 116.224L472.237 117.166C471.61 116.944 470.98 116.719 470.348 116.49L470.688 115.55ZM477.32 117.855L477.636 116.906C478.27 117.117 478.901 117.324 479.529 117.528L479.221 118.479L478.913 119.431C478.279 119.225 477.643 119.016 477.004 118.804L477.32 117.855ZM484.011 119.975L484.298 119.017C484.943 119.21 485.586 119.4 486.226 119.586L485.947 120.546L485.669 121.506C485.022 121.319 484.374 121.128 483.723 120.932L484.011 119.975ZM490.783 121.885L491.038 120.918C491.682 121.088 492.324 121.253 492.964 121.414L492.719 122.384L492.475 123.354C491.828 123.191 491.179 123.023 490.529 122.852L490.783 121.885ZM497.601 123.544L497.818 122.568C498.473 122.714 499.125 122.855 499.776 122.992L499.57 123.97L499.364 124.949C498.706 124.81 498.046 124.667 497.384 124.52L497.601 123.544ZM504.497 124.927L504.672 123.943C505.327 124.059 505.981 124.171 506.634 124.279L506.471 125.266L506.309 126.252C505.648 126.143 504.985 126.03 504.321 125.912L504.497 124.927ZM511.434 125.998L511.563 125.006C512.226 125.092 512.886 125.173 513.546 125.25L513.431 126.243L513.316 127.236C512.647 127.159 511.977 127.076 511.305 126.989L511.434 125.998ZM518.426 126.731L518.505 125.734C519.167 125.787 519.829 125.835 520.49 125.877L520.425 126.875L520.361 127.873C519.69 127.83 519.018 127.781 518.346 127.728L518.426 126.731ZM525.439 127.106L525.466 126.107C526.131 126.125 526.795 126.138 527.459 126.146L527.447 127.146L527.434 128.146C526.76 128.138 526.086 128.124 525.411 128.106L525.439 127.106ZM532.464 127.114L532.439 126.114C533.103 126.098 533.767 126.076 534.432 126.049L534.472 127.049L534.512 128.048C533.837 128.075 533.163 128.097 532.49 128.114L532.464 127.114ZM539.481 126.756L539.404 125.759C540.065 125.708 540.727 125.653 541.389 125.592L541.48 126.588L541.571 127.584C540.899 127.645 540.228 127.702 539.557 127.753L539.481 126.756ZM546.47 126.046L546.345 125.054C547.003 124.971 547.662 124.883 548.322 124.791L548.461 125.781L548.599 126.772C547.93 126.865 547.262 126.954 546.595 127.038L546.47 126.046ZM553.417 125.007L553.247 124.021C553.9 123.909 554.555 123.792 555.211 123.67L555.393 124.654L555.575 125.637C554.911 125.76 554.248 125.878 553.587 125.992L553.417 125.007ZM560.315 123.668L560.105 122.69C560.753 122.551 561.403 122.407 562.056 122.259L562.277 123.234L562.498 124.21C561.838 124.359 561.181 124.504 560.525 124.645L560.315 123.668ZM567.156 122.062L566.91 121.092C567.551 120.93 568.194 120.763 568.84 120.593L569.095 121.56L569.35 122.527C568.698 122.699 568.049 122.867 567.402 123.031L567.156 122.062ZM573.932 120.224L573.655 119.263C574.297 119.078 574.941 118.889 575.588 118.697L575.873 119.656L576.158 120.614C575.506 120.808 574.856 120.998 574.209 121.185L573.932 120.224ZM580.667 118.179L580.364 117.226C580.992 117.026 581.623 116.823 582.257 116.616L582.567 117.566L582.878 118.517C582.239 118.725 581.604 118.93 580.971 119.132L580.667 118.179ZM587.328 115.968L587.002 115.023C587.628 114.807 588.256 114.588 588.887 114.366L589.219 115.31L589.551 116.253C588.916 116.476 588.284 116.697 587.654 116.914L587.328 115.968ZM593.94 113.611L593.595 112.672C594.221 112.442 594.85 112.209 595.482 111.973L595.832 112.91L596.182 113.847C595.547 114.084 594.915 114.318 594.286 114.55L593.94 113.611ZM600.516 111.128L600.155 110.195C600.78 109.953 601.409 109.708 602.04 109.46L602.405 110.391L602.77 111.322C602.136 111.571 601.505 111.817 600.877 112.06L600.516 111.128Z" fill="#E8EFFF"/>
<g clip-path="url(#clip0_1991_3513)">
<path fill-rule="evenodd" clip-rule="evenodd" d="M436.564 76.4191C433.576 59.6152 420.434 46.3631 403.768 43.35C403.736 43.9346 403.72 44.5235 403.72 45.1168C403.72 62.4315 417.641 76.4683 434.813 76.4683C435.401 76.4683 435.985 76.4514 436.564 76.4191ZM389.321 43.35C372.656 46.3631 359.513 59.6152 356.525 76.4191C357.105 76.4514 357.689 76.4683 358.277 76.4683C375.449 76.4683 389.37 62.4315 389.37 45.1168C389.37 44.5235 389.353 43.9346 389.321 43.35ZM403.768 124.056C420.434 121.043 433.576 107.791 436.564 90.9869C435.985 90.9546 435.401 90.9382 434.813 90.9382C417.641 90.9382 403.72 104.975 403.72 122.29C403.72 122.883 403.736 123.471 403.768 124.056ZM389.321 124.056C389.353 123.471 389.37 122.883 389.37 122.29C389.37 104.975 375.449 90.9382 358.277 90.9382C357.689 90.9382 357.105 90.9546 356.525 90.9869C359.513 107.791 372.656 121.043 389.321 124.056Z" fill="#002868"/>
<path fill-rule="evenodd" clip-rule="evenodd" d="M380.412 84.3229C387.95 81.1467 393.984 75.0631 397.134 67.4625C400.283 75.0631 406.317 81.1467 413.855 84.3229C406.317 87.499 400.283 93.5827 397.134 101.183C393.984 93.5827 387.95 87.499 380.412 84.3229Z" fill="#002868"/>
</g>
<rect x="86" y="14" width="36" height="36" rx="18" fill="#F2F6FC"/>
<g filter="url(#filter3_d_1991_3513)">
<rect x="90" y="18" width="28" height="28" rx="14" fill="white" shape-rendering="crispEdges"/>
<path d="M103.259 26.2847C102.647 26.2847 102.061 26.5216 101.628 26.9432C101.196 27.3648 100.953 27.9367 100.953 28.5329C100.953 29.1292 101.196 29.701 101.628 30.1227C102.061 30.5443 102.647 30.7811 103.259 30.7811C103.87 30.7811 104.457 30.5443 104.889 30.1227C105.322 29.701 105.565 29.1292 105.565 28.5329C105.565 27.9367 105.322 27.3648 104.889 26.9432C104.457 26.5216 103.87 26.2847 103.259 26.2847ZM99.6353 28.5329C99.6353 27.5959 100.017 26.6973 100.697 26.0348C101.376 25.3722 102.298 25 103.259 25C104.22 25 105.142 25.3722 105.821 26.0348C106.501 26.6973 106.882 27.5959 106.882 28.5329C106.882 29.4699 106.501 30.3685 105.821 31.0311C105.142 31.6936 104.22 32.0658 103.259 32.0658C102.298 32.0658 101.376 31.6936 100.697 31.0311C100.017 30.3685 99.6353 29.4699 99.6353 28.5329ZM105.4 32.387H111V39L108.202 37.319L105.4 38.9981V32.387ZM106.718 33.6717V36.7004L108.203 35.8107L109.682 36.6991V33.6717H106.718ZM100.953 33.9929C100.254 33.9929 99.5837 34.2636 99.0895 34.7454C98.5953 35.2273 98.3176 35.8808 98.3176 36.5623H104.115V37.847H97V36.5623C97 35.5401 97.4165 34.5598 98.1578 33.837C98.8991 33.1142 99.9046 32.7082 100.953 32.7082H104.082V33.9929H100.953Z" fill="#5052B2"/>
</g>
<rect x="38" y="40" width="36" height="36" rx="18" fill="#F2F6FC"/>
<g filter="url(#filter4_d_1991_3513)">
<rect x="42" y="44" width="28" height="28" rx="14" fill="white" shape-rendering="crispEdges"/>
<path d="M57.6667 59.8767V61.6184C56.9124 61.3517 56.1052 61.2699 55.3128 61.3799C54.5205 61.4898 53.766 61.7883 53.1129 62.2502C52.4597 62.7121 51.927 63.3241 51.5593 64.0346C51.1917 64.745 50.9999 65.5334 51 66.3334H49.3333C49.333 65.3157 49.5656 64.3115 50.0133 63.3976C50.4611 62.4837 51.1121 61.6845 51.9165 61.0612C52.7209 60.4378 53.6574 60.0069 54.6541 59.8015C55.6508 59.596 56.6813 59.6223 57.6667 59.8767ZM56 58.8334C53.2375 58.8334 51 56.5959 51 53.8334C51 51.0709 53.2375 48.8334 56 48.8334C58.7625 48.8334 61 51.0709 61 53.8334C61 56.5959 58.7625 58.8334 56 58.8334ZM56 57.1667C57.8417 57.1667 59.3333 55.675 59.3333 53.8334C59.3333 51.9917 57.8417 50.5 56 50.5C54.1583 50.5 52.6667 51.9917 52.6667 53.8334C52.6667 55.675 54.1583 57.1667 56 57.1667ZM60.8275 64.595L63.7733 61.6492L64.9525 62.8275L60.8275 66.9525L57.8808 64.0059L59.06 62.8275L60.8275 64.595Z" fill="#E0B005"/>
</g>
<rect x="38" y="91" width="36" height="36" rx="18" fill="#F2F6FC"/>
<g filter="url(#filter5_d_1991_3513)">
<rect x="42" y="95" width="28" height="28" rx="14" fill="white" shape-rendering="crispEdges"/>
<path d="M54.6261 112.041C55.0643 112.041 55.4623 112.211 55.7511 112.487L55.8546 112.596C56.0822 112.86 56.2198 113.2 56.2198 113.57C56.2198 113.941 56.0821 114.281 55.8546 114.545L55.7511 114.653C55.4627 114.929 55.0644 115.1 54.6261 115.1C54.188 115.099 53.7904 114.929 53.5021 114.653C53.2136 114.377 53.0333 113.994 53.0333 113.57C53.0334 113.147 53.2137 112.763 53.5021 112.487L53.6144 112.39C53.8898 112.172 54.2426 112.041 54.6261 112.041ZM59.9835 112.041C60.4217 112.041 60.8202 112.211 61.1085 112.487L61.2111 112.596C61.4387 112.86 61.5762 113.2 61.5763 113.57C61.5763 113.941 61.4386 114.281 61.2111 114.545L61.1085 114.653C60.8202 114.929 60.4217 115.1 59.9835 115.1C59.5452 115.1 59.1469 114.929 58.8585 114.653C58.5701 114.377 58.3907 113.994 58.3907 113.57C58.3909 113.147 58.5701 112.763 58.8585 112.487L58.9718 112.39C59.2472 112.172 59.6 112.041 59.9835 112.041ZM54.6261 112.942C54.4881 112.942 54.3605 112.982 54.255 113.051L54.1573 113.128C54.0381 113.242 53.9659 113.399 53.9659 113.571C53.966 113.743 54.0381 113.899 54.1573 114.014L54.255 114.091C54.3604 114.159 54.488 114.199 54.6261 114.199C54.8098 114.199 54.9763 114.128 55.0958 114.014L55.1759 113.921C55.2465 113.821 55.2872 113.7 55.2872 113.571C55.2872 113.442 55.2465 113.322 55.1759 113.222L55.0958 113.128C54.9763 113.014 54.8098 112.942 54.6261 112.942ZM59.9835 112.942C59.8456 112.942 59.7179 112.983 59.6124 113.051L59.5148 113.128C59.3955 113.242 59.3224 113.399 59.3224 113.571C59.3224 113.743 59.3954 113.899 59.5148 114.014L59.6124 114.091C59.7178 114.159 59.8455 114.199 59.9835 114.199C60.1671 114.199 60.3328 114.128 60.4523 114.014L60.5323 113.921C60.603 113.821 60.6436 113.7 60.6437 113.571C60.6437 113.442 60.603 113.322 60.5323 113.222L60.4523 113.128C60.3327 113.014 60.1669 112.942 59.9835 112.942ZM51.8546 102.9C52.2917 102.9 52.6904 103.071 52.9786 103.347L53.0812 103.456C53.3092 103.72 53.4474 104.06 53.4474 104.43V104.813H61.6261C61.8632 104.813 62.0622 104.987 62.087 105.217L62.0929 105.222V109.374C62.0928 109.897 61.8974 110.377 61.5743 110.751L61.4288 110.904C61.0198 111.295 60.4557 111.539 59.8361 111.539H54.7726C54.2303 111.539 53.7311 111.353 53.3409 111.044L53.1798 110.904C52.7714 110.513 52.5158 109.971 52.5157 109.374V104.43C52.5157 104.302 52.4747 104.182 52.4034 104.081L52.3234 103.987C52.2032 103.872 52.0371 103.801 51.8546 103.801H49.3732C49.12 103.801 48.9075 103.603 48.9073 103.351C48.9073 103.098 49.12 102.9 49.3732 102.9H51.8546ZM53.4484 109.374C53.4485 109.719 53.5967 110.035 53.837 110.265L53.9308 110.347C54.1601 110.528 54.4543 110.638 54.7736 110.638H59.837C60.2018 110.638 60.5336 110.495 60.7736 110.265L60.8585 110.174C61.0474 109.955 61.1612 109.676 61.1613 109.374V105.716H53.4484V109.374ZM56.3741 106.559C56.6274 106.559 56.8409 106.756 56.8409 107.009V109.344C56.8409 109.597 56.6273 109.794 56.3741 109.794C56.1208 109.794 55.9083 109.596 55.9083 109.344V107.009C55.9083 106.756 56.1214 106.559 56.3741 106.559ZM58.4513 106.559C58.7046 106.559 58.9171 106.756 58.9171 107.009V109.344C58.9171 109.597 58.704 109.794 58.4513 109.794C58.198 109.794 57.9845 109.596 57.9845 109.344V107.009C57.9845 106.756 58.1981 106.559 58.4513 106.559Z" fill="#6EC125" stroke="#6EC125" stroke-width="0.2"/>
</g>
<rect x="86" y="120" width="36" height="36" rx="18" fill="#F2F6FC"/>
<g filter="url(#filter6_d_1991_3513)">
<rect x="90" y="124" width="28" height="28" rx="14" fill="white" shape-rendering="crispEdges"/>
<path d="M103.862 129.538C105.362 129.538 106.768 129.882 108.081 130.569C109.393 131.257 110.487 132.219 111.362 133.455V131.205H113.029V136.205H108.029V134.538H110.071C109.362 133.497 108.463 132.681 107.373 132.09C106.282 131.5 105.112 131.205 103.862 131.205C102.265 131.205 100.817 131.663 99.5185 132.58C98.2198 133.497 97.3066 134.712 96.7789 136.226L95.1539 135.851C95.7789 133.962 96.89 132.438 98.4872 131.278C100.084 130.118 101.876 129.538 103.862 129.538Z" fill="#0569E2"/>
<path d="M104 147.125C102.5 147.125 101.094 146.781 99.7812 146.094C98.4687 145.406 97.3749 144.445 96.4999 143.208L94.8333 140.458H99.8333V142.125H97.7916C98.4999 143.167 99.3993 143.983 100.49 144.573C101.58 145.163 102.75 145.458 104 145.458C105.597 145.458 107.045 145 108.344 144.083C109.642 143.167 110.556 141.952 111.083 140.438L112.708 140.813C112.083 142.702 110.972 144.226 109.375 145.386C107.778 146.545 105.986 147.125 104 147.125Z" fill="#0569E2"/>
<path d="M100.538 141.462V140.25C100.538 140.005 100.602 139.779 100.728 139.574C100.854 139.368 101.022 139.212 101.231 139.103C101.678 138.88 102.132 138.712 102.594 138.6C103.055 138.489 103.524 138.433 104 138.433C104.476 138.433 104.945 138.489 105.406 138.6C105.868 138.712 106.322 138.88 106.769 139.103C106.978 139.212 107.146 139.368 107.272 139.574C107.398 139.779 107.462 140.005 107.462 140.25V141.462H100.538ZM104 138C103.524 138 103.117 137.831 102.778 137.492C102.439 137.153 102.269 136.745 102.269 136.269C102.269 135.793 102.439 135.386 102.778 135.047C103.117 134.708 103.524 134.538 104 134.538C104.476 134.538 104.883 134.708 105.222 135.047C105.561 135.386 105.731 135.793 105.731 136.269C105.731 136.745 105.561 137.153 105.222 137.492C104.883 137.831 104.476 138 104 138ZM101.404 140.596H106.596V140.25C106.596 140.171 106.576 140.099 106.537 140.034C106.497 139.969 106.445 139.918 106.38 139.882C105.99 139.687 105.597 139.541 105.201 139.444C104.804 139.347 104.404 139.298 104 139.298C103.596 139.298 103.196 139.347 102.799 139.444C102.403 139.541 102.01 139.687 101.62 139.882C101.555 139.918 101.503 139.969 101.463 140.034C101.424 140.099 101.404 140.171 101.404 140.25V140.596ZM104 137.135C104.238 137.135 104.442 137.05 104.611 136.88C104.781 136.711 104.865 136.507 104.865 136.269C104.865 136.031 104.781 135.828 104.611 135.658C104.442 135.489 104.238 135.404 104 135.404C103.762 135.404 103.558 135.489 103.389 135.658C103.219 135.828 103.135 136.031 103.135 136.269C103.135 136.507 103.219 136.711 103.389 136.88C103.558 137.05 103.762 137.135 104 137.135Z" fill="#0569E2"/>
</g>
<line x1="219" y1="83.5" x2="340" y2="83.5" stroke="#E8EFFF"/>
<path d="M104 48C112.529 80.342 163 83.5 219 83.5" stroke="#E8EFFF"/>
<path d="M70.5 98.5C84 83.5002 148 83.5002 189 83.5002" stroke="#E8EFFF"/>
<path d="M68 69C81.5 83.9998 145.5 83.9998 186.5 83.9998" stroke="#E8EFFF"/>
<path d="M104 120C112.529 87.658 160.5 83.5 219 83.5" stroke="#E8EFFF"/>
<path d="M341 83.5L329.75 89.9952V77.0048L341 83.5Z" fill="#E8EFFF"/>
<g filter="url(#filter7_d_1991_3513)">
<rect x="189" y="62" width="84" height="42" rx="4" fill="white" shape-rendering="crispEdges"/>
<rect x="189.5" y="62.5" width="83" height="41" rx="3.5" stroke="#E8EFFF" shape-rendering="crispEdges"/>
<rect x="197" y="70" width="26" height="26" rx="4" fill="#FDDDDA"/>
<g clip-path="url(#clip1_1991_3513)">
<path d="M215.25 85.25H204.75C204.337 85.25 204 84.9125 204 84.5C204 84.0875 204.337 83.75 204.75 83.75H215.25C215.663 83.75 216 84.0875 216 84.5C216 84.9125 215.663 85.25 215.25 85.25ZM215.25 86.75H204.75C204.337 86.75 204 87.0875 204 87.5C204 87.9125 204.337 88.25 204.75 88.25H215.25C215.663 88.25 216 87.9125 216 87.5C216 87.0875 215.663 86.75 215.25 86.75ZM212.25 82.25L215.685 79.8125C215.88 79.67 216 79.445 216 79.205C216 78.5975 215.31 78.2375 214.815 78.59L212.25 80.4125L208.5 77.75L204.36 80.27C204.135 80.4125 204 80.6525 204 80.915C204 81.5 204.637 81.86 205.14 81.5525L208.44 79.5425L212.25 82.25Z" fill="#F45745"/>
</g>
<path d="M232.218 87.5V77.63H236.124C236.833 77.63 237.431 77.7467 237.916 77.98C238.411 78.204 238.784 78.54 239.036 78.988C239.288 79.4267 239.414 79.9633 239.414 80.598C239.414 81.214 239.288 81.746 239.036 82.194C238.784 82.642 238.411 82.9827 237.916 83.216C237.431 83.4493 236.833 83.566 236.124 83.566H233.366V87.5H232.218ZM233.366 82.6H235.984C236.74 82.6 237.309 82.432 237.692 82.096C238.084 81.7507 238.28 81.2513 238.28 80.598C238.28 79.9353 238.084 79.436 237.692 79.1C237.309 78.7547 236.74 78.582 235.984 78.582H233.366V82.6ZM240.503 79.002V77.728H241.903V79.002H240.503ZM240.643 87.5V80.696H241.777V87.5H240.643ZM242.749 87.5L245.801 83.692V84.28L242.917 80.696H244.261L246.431 83.454H246.039L248.223 80.696H249.553L246.683 84.252V83.734L249.721 87.5H248.377L246.025 84.546H246.431L244.093 87.5H242.749ZM253.608 87.626C252.89 87.626 252.269 87.486 251.746 87.206C251.233 86.9167 250.832 86.5107 250.542 85.988C250.262 85.4653 250.122 84.84 250.122 84.112C250.122 83.4027 250.262 82.7867 250.542 82.264C250.822 81.732 251.205 81.3167 251.69 81.018C252.185 80.7193 252.754 80.57 253.398 80.57C254.014 80.57 254.542 80.7053 254.98 80.976C255.419 81.2467 255.755 81.6293 255.988 82.124C256.231 82.6187 256.352 83.2113 256.352 83.902V84.336H250.99V83.594H255.596L255.372 83.776C255.372 83.0293 255.204 82.4507 254.868 82.04C254.542 81.62 254.061 81.41 253.426 81.41C252.95 81.41 252.544 81.522 252.208 81.746C251.882 81.9607 251.634 82.264 251.466 82.656C251.298 83.0387 251.214 83.4867 251.214 84V84.084C251.214 84.6533 251.303 85.134 251.48 85.526C251.667 85.918 251.942 86.2167 252.306 86.422C252.67 86.618 253.104 86.716 253.608 86.716C254.01 86.716 254.397 86.6553 254.77 86.534C255.153 86.4033 255.512 86.1933 255.848 85.904L256.24 86.702C255.932 86.982 255.54 87.206 255.064 87.374C254.588 87.542 254.103 87.626 253.608 87.626ZM259.8 87.626C259.109 87.626 258.586 87.4207 258.232 87.01C257.886 86.5993 257.714 86.0113 257.714 85.246V77.63H258.848V85.162C258.848 85.4887 258.89 85.764 258.974 85.988C259.067 86.212 259.202 86.38 259.38 86.492C259.557 86.604 259.776 86.66 260.038 86.66C260.15 86.66 260.257 86.6553 260.36 86.646C260.472 86.6273 260.574 86.604 260.668 86.576L260.64 87.528C260.49 87.556 260.346 87.5793 260.206 87.598C260.075 87.6167 259.94 87.626 259.8 87.626Z" fill="#525252"/>
</g>
<defs>
<filter id="filter0_d_1991_3513" x="606" y="8" width="156" height="156" filterUnits="userSpaceOnUse" color-interpolation-filters="sRGB">
<feFlood flood-opacity="0" result="BackgroundImageFix"/>
<feColorMatrix in="SourceAlpha" type="matrix" values="0 0 0 0 0 0 0 0 0 0 0 0 0 0 0 0 0 0 127 0" result="hardAlpha"/>
<feOffset dy="2"/>
<feGaussianBlur stdDeviation="5"/>
<feComposite in2="hardAlpha" operator="out"/>
<feColorMatrix type="matrix" values="0 0 0 0 0 0 0 0 0 0 0 0 0 0 0 0 0 0 0.08 0"/>
<feBlend mode="normal" in2="BackgroundImageFix" result="effect1_dropShadow_1991_3513"/>
<feBlend mode="normal" in="SourceGraphic" in2="effect1_dropShadow_1991_3513" result="shape"/>
</filter>
<filter id="filter1_d_1991_3513" x="622" y="24" width="124" height="124" filterUnits="userSpaceOnUse" color-interpolation-filters="sRGB">
<feFlood flood-opacity="0" result="BackgroundImageFix"/>
<feColorMatrix in="SourceAlpha" type="matrix" values="0 0 0 0 0 0 0 0 0 0 0 0 0 0 0 0 0 0 127 0" result="hardAlpha"/>
<feOffset dy="2"/>
<feGaussianBlur stdDeviation="5"/>
<feComposite in2="hardAlpha" operator="out"/>
<feColorMatrix type="matrix" values="0 0 0 0 0 0 0 0 0 0 0 0 0 0 0 0 0 0 0.08 0"/>
<feBlend mode="normal" in2="BackgroundImageFix" result="effect1_dropShadow_1991_3513"/>
<feBlend mode="normal" in="SourceGraphic" in2="effect1_dropShadow_1991_3513" result="shape"/>
</filter>
<filter id="filter2_d_1991_3513" x="638" y="40" width="92" height="92" filterUnits="userSpaceOnUse" color-interpolation-filters="sRGB">
<feFlood flood-opacity="0" result="BackgroundImageFix"/>
<feColorMatrix in="SourceAlpha" type="matrix" values="0 0 0 0 0 0 0 0 0 0 0 0 0 0 0 0 0 0 127 0" result="hardAlpha"/>
<feOffset dy="2"/>
<feGaussianBlur stdDeviation="5"/>
<feComposite in2="hardAlpha" operator="out"/>
<feColorMatrix type="matrix" values="0 0 0 0 0 0 0 0 0 0 0 0 0 0 0 0 0 0 0.1 0"/>
<feBlend mode="normal" in2="BackgroundImageFix" result="effect1_dropShadow_1991_3513"/>
<feBlend mode="normal" in="SourceGraphic" in2="effect1_dropShadow_1991_3513" result="shape"/>
</filter>
<filter id="filter3_d_1991_3513" x="80" y="10" width="48" height="48" filterUnits="userSpaceOnUse" color-interpolation-filters="sRGB">
<feFlood flood-opacity="0" result="BackgroundImageFix"/>
<feColorMatrix in="SourceAlpha" type="matrix" values="0 0 0 0 0 0 0 0 0 0 0 0 0 0 0 0 0 0 127 0" result="hardAlpha"/>
<feOffset dy="2"/>
<feGaussianBlur stdDeviation="5"/>
<feComposite in2="hardAlpha" operator="out"/>
<feColorMatrix type="matrix" values="0 0 0 0 0 0 0 0 0 0 0 0 0 0 0 0 0 0 0.08 0"/>
<feBlend mode="normal" in2="BackgroundImageFix" result="effect1_dropShadow_1991_3513"/>
<feBlend mode="normal" in="SourceGraphic" in2="effect1_dropShadow_1991_3513" result="shape"/>
</filter>
<filter id="filter4_d_1991_3513" x="32" y="36" width="48" height="48" filterUnits="userSpaceOnUse" color-interpolation-filters="sRGB">
<feFlood flood-opacity="0" result="BackgroundImageFix"/>
<feColorMatrix in="SourceAlpha" type="matrix" values="0 0 0 0 0 0 0 0 0 0 0 0 0 0 0 0 0 0 127 0" result="hardAlpha"/>
<feOffset dy="2"/>
<feGaussianBlur stdDeviation="5"/>
<feComposite in2="hardAlpha" operator="out"/>
<feColorMatrix type="matrix" values="0 0 0 0 0 0 0 0 0 0 0 0 0 0 0 0 0 0 0.08 0"/>
<feBlend mode="normal" in2="BackgroundImageFix" result="effect1_dropShadow_1991_3513"/>
<feBlend mode="normal" in="SourceGraphic" in2="effect1_dropShadow_1991_3513" result="shape"/>
</filter>
<filter id="filter5_d_1991_3513" x="32" y="87" width="48" height="48" filterUnits="userSpaceOnUse" color-interpolation-filters="sRGB">
<feFlood flood-opacity="0" result="BackgroundImageFix"/>
<feColorMatrix in="SourceAlpha" type="matrix" values="0 0 0 0 0 0 0 0 0 0 0 0 0 0 0 0 0 0 127 0" result="hardAlpha"/>
<feOffset dy="2"/>
<feGaussianBlur stdDeviation="5"/>
<feComposite in2="hardAlpha" operator="out"/>
<feColorMatrix type="matrix" values="0 0 0 0 0 0 0 0 0 0 0 0 0 0 0 0 0 0 0.08 0"/>
<feBlend mode="normal" in2="BackgroundImageFix" result="effect1_dropShadow_1991_3513"/>
<feBlend mode="normal" in="SourceGraphic" in2="effect1_dropShadow_1991_3513" result="shape"/>
</filter>
<filter id="filter6_d_1991_3513" x="80" y="116" width="48" height="48" filterUnits="userSpaceOnUse" color-interpolation-filters="sRGB">
<feFlood flood-opacity="0" result="BackgroundImageFix"/>
<feColorMatrix in="SourceAlpha" type="matrix" values="0 0 0 0 0 0 0 0 0 0 0 0 0 0 0 0 0 0 127 0" result="hardAlpha"/>
<feOffset dy="2"/>
<feGaussianBlur stdDeviation="5"/>
<feComposite in2="hardAlpha" operator="out"/>
<feColorMatrix type="matrix" values="0 0 0 0 0 0 0 0 0 0 0 0 0 0 0 0 0 0 0.08 0"/>
<feBlend mode="normal" in2="BackgroundImageFix" result="effect1_dropShadow_1991_3513"/>
<feBlend mode="normal" in="SourceGraphic" in2="effect1_dropShadow_1991_3513" result="shape"/>
</filter>
<filter id="filter7_d_1991_3513" x="179" y="54" width="104" height="62" filterUnits="userSpaceOnUse" color-interpolation-filters="sRGB">
<feFlood flood-opacity="0" result="BackgroundImageFix"/>
<feColorMatrix in="SourceAlpha" type="matrix" values="0 0 0 0 0 0 0 0 0 0 0 0 0 0 0 0 0 0 127 0" result="hardAlpha"/>
<feOffset dy="2"/>
<feGaussianBlur stdDeviation="5"/>
<feComposite in2="hardAlpha" operator="out"/>
<feColorMatrix type="matrix" values="0 0 0 0 0 0 0 0 0 0 0 0 0 0 0 0 0 0 0.08 0"/>
<feBlend mode="normal" in2="BackgroundImageFix" result="effect1_dropShadow_1991_3513"/>
<feBlend mode="normal" in="SourceGraphic" in2="effect1_dropShadow_1991_3513" result="shape"/>
</filter>
<clipPath id="clip0_1991_3513">
<rect width="80" height="80" fill="white" transform="translate(356 44)"/>
</clipPath>
<clipPath id="clip1_1991_3513">
<rect width="18" height="18" fill="white" transform="translate(201 74)"/>
</clipPath>
</defs>
</svg>
