<svg width="113" height="80" viewBox="0 0 113 80" fill="none" xmlns="http://www.w3.org/2000/svg">
<g clip-path="url(#clip0_589_106215)">
<path d="M85.331 56.1268C101.04 45.8395 101.04 29.1605 85.331 18.8732C69.622 8.58587 44.1527 8.58587 28.4437 18.8732C12.7347 29.1605 12.7347 45.8395 28.4437 56.1268C44.1527 66.4141 69.622 66.4141 85.331 56.1268Z" fill="#D3E4FF"/>
<path d="M99 68.5053C99 69.8779 97.9172 71 96.5939 71H14.4055C13.0825 71 12 69.8779 12 68.5053V11.4947C12 10.1224 13.0825 9 14.4055 9H96.5939C97.9172 9 99 10.1224 99 11.4947V68.5053Z" fill="#76A6F5"/>
<path d="M96.5939 9H14.4055C13.0825 9 12 10.2015 12 11.6705V16H99V11.6705C99 10.2018 97.9172 9 96.5939 9Z" fill="#3B495E"/>
<path d="M17 12.4999C17 13.3284 16.3287 14 15.4999 14C14.6716 14 14 13.3284 14 12.4999C14 11.6716 14.6716 11 15.4999 11C16.3284 11 17 11.6716 17 12.4999Z" fill="#F45F31"/>
<path d="M22 12.4999C22 13.3284 21.3289 14 20.5003 14C19.6717 14 19 13.3284 19 12.4999C19 11.6716 19.6717 11 20.5003 11C21.3286 11 22 11.6716 22 12.4999Z" fill="#F2B233"/>
<path d="M27 12.4999C27 13.3284 26.3286 14 25.5 14C24.6717 14 24 13.3284 24 12.4999C24 11.6716 24.6717 11 25.5 11C26.3286 11 27 11.6716 27 12.4999Z" fill="#15B56C"/>
<path d="M94 19H18V38H94V19Z" fill="white"/>
<path d="M42 41H18V49H42V41Z" fill="#D3E4FF"/>
<path d="M42 51H18V53H42V51Z" fill="white"/>
<path d="M42 55H18V57H42V55Z" fill="white"/>
<path d="M42 59H18V61H42V59Z" fill="white"/>
<path d="M42 63H18V65H42V63Z" fill="white"/>
<path d="M68 41H44V49H68V41Z" fill="#D3E4FF"/>
<path d="M68 51H44V53H68V51Z" fill="white"/>
<path d="M68 55H44V57H68V55Z" fill="white"/>
<path d="M68 59H44V61H68V59Z" fill="white"/>
<path d="M68 63H44V65H68V63Z" fill="white"/>
<path d="M93.9997 41H70V65H93.9997V41Z" fill="#D3E4FF"/>
<path d="M70 61.0799L77.5019 49.0188L82 58.0931L89.6198 44L94 52.4V65H70V61.0799Z" fill="#3B495E"/>
<path d="M86 45.9997C86 47.6564 84.657 49 83.0003 49C81.3433 49 80 47.6564 80 45.9997C80 44.343 81.3433 43 83.0003 43C84.6573 43 86 44.343 86 45.9997Z" fill="#BD99FF"/>
<path d="M53 35C53 35.5525 52.5522 36 51.9999 36C51.4475 36 51 35.5525 51 35C51 34.4475 51.4478 34 51.9999 34C52.552 34 53 34.4475 53 35Z" fill="#D3E4FF"/>
<path d="M58 35C58 35.5525 57.5525 36 57.0001 36C56.4478 36 56 35.5525 56 35C56 34.4475 56.4478 34 57.0001 34C57.5525 34 58 34.4475 58 35Z" fill="#D3E4FF"/>
<path d="M62 35C62 35.5525 61.5523 36 60.9997 36C60.448 36 60 35.5525 60 35C60 34.4475 60.448 34 60.9997 34C61.5523 34 62 34.4475 62 35Z" fill="#D3E4FF"/>
<path d="M23 28.5C23 29.3286 22.3284 30 21.4999 30C20.6713 30 20 29.3286 20 28.5C20 27.6714 20.6716 27 21.4999 27C22.3287 27 23 27.6714 23 28.5Z" fill="#D3E4FF"/>
<path d="M21.2273 28.9999C21.4748 28.7314 21.7222 28.463 21.9698 28.1945C22.0585 28.0985 21.932 27.9334 21.8442 28.0286C21.5728 28.3229 21.301 28.6177 21.0291 28.9122C21.0049 28.9388 20.9978 28.9701 21.0006 28.9999C20.9978 29.0299 21.0049 29.0612 21.0291 29.0875C21.3008 29.3821 21.5726 29.6766 21.8442 29.9714C21.932 30.0666 22.0583 29.9015 21.9698 29.8052C21.722 29.5365 21.4746 29.2683 21.2273 28.9999Z" fill="#3B495E"/>
<path d="M88 28.5C88 29.3286 88.672 30 89.5002 30C90.3282 30 91 29.3286 91 28.5C91 27.6714 90.328 27 89.5002 27C88.6718 27 88 27.6714 88 28.5Z" fill="#D3E4FF"/>
<path d="M89.773 28.9999C89.5254 28.7314 89.2778 28.463 89.0302 28.1945C88.9415 28.0985 89.0677 27.9334 89.156 28.0286C89.4273 28.3229 89.6991 28.6177 89.9705 28.9122C89.995 28.9388 90.0023 28.9701 89.9993 28.9999C90.0025 29.0299 89.995 29.0612 89.9705 29.0875C89.6991 29.3821 89.4273 29.6766 89.156 29.9714C89.0679 30.0666 88.9415 29.9015 89.0302 29.8052C89.278 29.5365 89.5256 29.2683 89.773 28.9999Z" fill="#3B495E"/>
</g>
<defs>
<clipPath id="clip0_589_106215">
<rect width="113" height="80" fill="white"/>
</clipPath>
</defs>
</svg>
