<svg width="74" height="68" viewBox="0 0 74 68" fill="none" xmlns="http://www.w3.org/2000/svg">
<g clip-path="url(#clip0_771_3046)">
<path d="M55.5 52.5C65.7173 42.2827 65.7173 25.7173 55.5 15.5C45.2827 5.28273 28.7173 5.28273 18.5 15.5C8.28273 25.7173 8.28273 42.2827 18.5 52.5C28.7173 62.7173 45.2827 62.7173 55.5 52.5Z" fill="#D3E4FF"/>
<path d="M65 52.5921C65 53.4593 64.2906 54.1682 63.4236 54.1682H9.57601C8.70925 54.1682 8 53.4593 8 52.5921V16.576C8 15.7091 8.70925 15 9.57601 15H63.4236C64.2906 15 65 15.7091 65 16.576V52.5921Z" fill="#76A6F5"/>
<path d="M63.4236 15H9.57601C8.70925 15 8 15.7091 8 16.576V19.1311H65V16.576C65 15.7093 64.2906 15 63.4236 15Z" fill="#3B495E"/>
<path d="M10.9291 17.2179C10.9291 17.7306 10.5137 18.1462 10.0008 18.1462C9.48832 18.1462 9.07275 17.7306 9.07275 17.2179C9.07275 16.7054 9.48832 16.2899 10.0008 16.2899C10.5135 16.2899 10.9291 16.7054 10.9291 17.2179Z" fill="#F45F31"/>
<path d="M14.4313 17.2179C14.4313 17.7306 14.0161 18.1462 13.5034 18.1462C12.9908 18.1462 12.5752 17.7306 12.5752 17.2179C12.5752 16.7054 12.9908 16.2899 13.5034 16.2899C14.0159 16.2899 14.4313 16.7054 14.4313 17.2179Z" fill="#F2B233"/>
<path d="M17.9338 17.2179C17.9338 17.7306 17.5184 18.1462 17.0057 18.1462C16.4932 18.1462 16.0776 17.7306 16.0776 17.2179C16.0776 16.7054 16.4932 16.2899 17.0057 16.2899C17.5184 16.2899 17.9338 16.7054 17.9338 17.2179Z" fill="#15B56C"/>
<path d="M61.3762 21.5443H11.6235V33.3582H61.3762V21.5443Z" fill="white"/>
<path d="M27.3459 35.7987H11.6235V40.7895H27.3459V35.7987Z" fill="#D3E4FF"/>
<path d="M27.3459 42.0284H11.6235V43.4295H27.3459V42.0284Z" fill="white"/>
<path d="M27.3459 44.4806H11.6235V45.8814H27.3459V44.4806Z" fill="white"/>
<path d="M27.3459 46.9321H11.6235V48.3329H27.3459V46.9321Z" fill="white"/>
<path d="M27.3459 49.3839H11.6235V50.7849H27.3459V49.3839Z" fill="white"/>
<path d="M44.3614 35.7985H28.6387V40.7893H44.3614V35.7985Z" fill="#D3E4FF"/>
<path d="M44.3614 42.0282H28.6387V43.4293H44.3614V42.0282Z" fill="white"/>
<path d="M44.3614 44.4805H28.6387V45.8813H44.3614V44.4805Z" fill="white"/>
<path d="M44.3614 46.932H28.6387V48.3327H44.3614V46.932Z" fill="white"/>
<path d="M44.3614 49.3838H28.6387V50.7847H44.3614V49.3838Z" fill="white"/>
<path d="M61.376 35.7985H45.6533V50.7849H61.376V35.7985Z" fill="#D3E4FF"/>
<path d="M45.6533 48.3327L50.568 40.7892L53.5148 46.4646L58.5066 37.6502L61.3762 42.9039V50.7845H45.6533V48.3327Z" fill="#3B495E"/>
<path d="M55.7049 38.7884C55.7049 39.8038 54.8817 40.6274 53.8663 40.6274C52.8507 40.6274 52.0273 39.8038 52.0273 38.7884C52.0273 37.773 52.8507 36.9498 53.8663 36.9498C54.8819 36.9498 55.7049 37.773 55.7049 38.7884Z" fill="#BD99FF"/>
<path d="M34.1672 31.6351C34.1672 31.9769 33.8901 32.2538 33.5483 32.2538C33.2066 32.2538 32.9297 31.9769 32.9297 31.6351C32.9297 31.2933 33.2067 31.0164 33.5483 31.0164C33.8899 31.0164 34.1672 31.2933 34.1672 31.6351Z" fill="#D3E4FF"/>
<path d="M37.1266 31.635C37.1266 31.9768 36.8498 32.2537 36.508 32.2537C36.1662 32.2537 35.8892 31.9768 35.8892 31.635C35.8892 31.2933 36.1662 31.0164 36.508 31.0164C36.8498 31.0164 37.1266 31.2933 37.1266 31.635Z" fill="#D3E4FF"/>
<path d="M40.0868 31.635C40.0868 31.9768 39.8097 32.2537 39.4678 32.2537C39.1263 32.2537 38.8491 31.9768 38.8491 31.635C38.8491 31.2933 39.1263 31.0164 39.4678 31.0164C39.8097 31.0164 40.0868 31.2933 40.0868 31.635Z" fill="#D3E4FF"/>
<path d="M15.4453 27.4313C15.4453 28.0375 14.954 28.5287 14.3478 28.5287C13.7416 28.5287 13.2505 28.0375 13.2505 27.4313C13.2505 26.8252 13.7418 26.334 14.3478 26.334C14.9542 26.334 15.4453 26.8252 15.4453 27.4313Z" fill="#D3E4FF"/>
<path d="M13.9897 27.4316C14.2169 27.2455 14.4438 27.0594 14.671 26.8733C14.7523 26.8068 14.6362 26.6923 14.5558 26.7583C14.3067 26.9623 14.0574 27.1666 13.808 27.3708C13.7857 27.3892 13.7792 27.4109 13.7818 27.4316C13.7792 27.4524 13.7857 27.4741 13.808 27.4923C14.0572 27.6965 14.3066 27.9007 14.5558 28.105C14.6362 28.171 14.7521 28.0565 14.671 27.9898C14.4436 27.8036 14.2167 27.6176 13.9897 27.4316Z" fill="#3B495E"/>
<path d="M57.5713 27.4315C57.5713 28.0376 58.063 28.5288 58.669 28.5288C59.2748 28.5288 59.7663 28.0376 59.7663 27.4315C59.7663 26.8253 59.2746 26.3341 58.669 26.3341C58.0628 26.3341 57.5713 26.8253 57.5713 27.4315Z" fill="#D3E4FF"/>
<path d="M59.027 27.4317C58.7999 27.2456 58.5727 27.0595 58.3456 26.8734C58.2642 26.8069 58.38 26.6924 58.461 26.7584C58.7098 26.9624 58.9592 27.1668 59.2082 27.3709C59.2306 27.3894 59.2373 27.4111 59.2346 27.4317C59.2375 27.4525 59.2306 27.4742 59.2082 27.4924C58.9592 27.6966 58.7098 27.9008 58.461 28.1051C58.3801 28.1711 58.2642 28.0567 58.3456 27.9899C58.5729 27.8037 58.8001 27.6178 59.027 27.4317Z" fill="#3B495E"/>
</g>
<defs>
<clipPath id="clip0_771_3046">
<rect width="74" height="68" fill="white"/>
</clipPath>
</defs>
</svg>
