<svg width="368" height="132" viewBox="0 0 368 132" fill="none" xmlns="http://www.w3.org/2000/svg">
<g filter="url(#filter0_d_1210_5645)">
<g clip-path="url(#clip0_1210_5645)">
<path d="M279.242 8.71973H88.7578V164.569H279.242V8.71973Z" fill="white"/>
<path d="M279.963 165.288H88.0361V8H279.963V165.288ZM89.4796 163.849H278.52V9.43926H89.4796V163.849Z" fill="white"/>
<path d="M279.242 8.71973H88.7578V22.4471H279.242V8.71973Z" fill="#C6CFD5"/>
<path d="M279.963 23.1655H88.0361V8H279.963V23.1655ZM89.4796 21.7274H278.52V9.43926H89.4796V21.7274Z" fill="#C6CFD5" fill-opacity="0.733333"/>
<path d="M251.301 85.626H237.309V88.3064H251.301V85.626Z" fill="#EBEBEB"/>
<path d="M118.272 56.9199H110.905V59.6003H118.272V56.9199Z" fill="#EBEBEB"/>
<path d="M178.915 56.9199H123.459V59.6003H178.915V56.9199Z" fill="#A6A6A6"/>
<path d="M233.984 85.626H201.514V88.3064H233.984V85.626Z" fill="#A6A6A6"/>
<path d="M169.246 78.4492H116.277V81.1297H169.246V78.4492Z" fill="#A6A6A6"/>
<path d="M160.618 64.1025H123.459V66.783H160.618V64.1025Z" fill="#C6CFD5"/>
<path d="M228.827 71.2783H214.654V73.9588H228.827V71.2783Z" fill="#A6A6A6"/>
<path d="M224.079 64.1025H164.738V66.783H224.079V64.1025Z" fill="#A6A6A6"/>
<path d="M187.111 85.626H116.277V88.3064H187.111V85.626Z" fill="#C6CFD5"/>
<path d="M259.163 56.9199H220.775V59.6003H259.163V56.9199Z" fill="#C6CFD5"/>
<path d="M217.736 56.9199H182.394V59.6003H217.736V56.9199Z" fill="#EBEBEB"/>
<path d="M250.712 64.1025H226.863V66.783H250.712V64.1025Z" fill="#EBEBEB"/>
<path d="M118.272 64.1025H110.905V66.783H118.272V64.1025Z" fill="#EBEBEB"/>
<path d="M110.905 71.2783H103.538V73.9588H110.905V71.2783Z" fill="#A6A6A6"/>
<path d="M159.815 71.2783H116.277V73.9588H159.815V71.2783Z" fill="#EBEBEB"/>
<path d="M166.997 92.7959H123.459V95.4763H166.997V92.7959Z" fill="#EBEBEB"/>
<path d="M237.735 99.9668H204.637V102.647H237.735V99.9668Z" fill="#C6CFD5"/>
<path d="M214.187 92.7969H170.527V95.4773H214.187V92.7969Z" fill="#C6CFD5"/>
<path d="M200.832 99.9668H162.828V102.647H200.832V99.9668Z" fill="#EBEBEB"/>
<path d="M136.065 99.9668H123.459V102.647H136.065V99.9668Z" fill="#A6A6A6"/>
<path d="M219.291 78.4492H172.235V81.1297H219.291V78.4492Z" fill="#EBEBEB"/>
<path d="M252.277 78.4492H222.337V81.1297H252.277V78.4492Z" fill="#C6CFD5"/>
<path d="M211.236 71.2783H164.237V73.9588H211.236V71.2783Z" fill="#C6CFD5"/>
<path d="M110.905 78.4492H103.538V81.1297H110.905V78.4492Z" fill="#EBEBEB"/>
<path d="M110.905 85.626H103.538V88.3064H110.905V85.626Z" fill="#EBEBEB"/>
<path d="M118.272 92.7969H110.905V95.4773H118.272V92.7969Z" fill="#A6A6A6"/>
<path d="M118.272 99.9668H110.905V102.647H118.272V99.9668Z" fill="#EBEBEB"/>
<path d="M110.905 105.982H103.538V108.663H110.905V105.982Z" fill="#EBEBEB"/>
<path d="M200.78 105.982H116.277V108.663H200.78V105.982Z" fill="#EBEBEB"/>
<path d="M109.838 43.6612C110.233 44.0689 110.233 44.6795 109.838 45.0711C109.634 45.258 109.4 45.3524 109.148 45.3524C108.88 45.3524 108.628 45.258 108.424 45.0711L104.007 40.6082C103.959 40.5922 103.943 40.5619 103.929 40.5139C103.913 40.4978 103.88 40.4818 103.88 40.4818C103.85 40.4355 103.85 40.4035 103.834 40.3572C103.802 40.3412 103.786 40.3109 103.786 40.2949C103.77 40.2629 103.77 40.2166 103.755 40.2005C103.755 40.1542 103.721 40.1382 103.721 40.1222C103.721 40.0759 103.721 40.0439 103.721 40.0136C103.721 39.9816 103.707 39.9673 103.707 39.9193C103.707 39.9032 103.721 39.8552 103.721 39.8409C103.721 39.8089 103.721 39.7626 103.721 39.7323C103.721 39.7003 103.755 39.6861 103.755 39.6683C103.77 39.622 103.77 39.5899 103.786 39.5419C103.786 39.5259 103.802 39.5259 103.802 39.5116C103.834 39.4653 103.85 39.4012 103.88 39.371C103.88 39.371 103.88 39.3389 103.913 39.3389C103.929 39.3069 103.959 39.2606 104.007 39.2303L108.424 34.7674C108.817 34.39 109.461 34.39 109.838 34.7674C110.233 35.1591 110.233 35.7857 109.838 36.1773L106.114 39.921L109.838 43.6612Z" fill="#A6A6A6"/>
<path d="M113.845 44.1526L117.697 35.0203C117.885 34.5824 118.387 34.3777 118.845 34.5664C119.27 34.7373 119.474 35.2553 119.286 35.6772L115.435 44.8238C115.292 45.1531 114.963 45.34 114.633 45.34C114.538 45.34 114.413 45.324 114.32 45.2777C113.859 45.1086 113.655 44.5923 113.845 44.1526Z" fill="#A6A6A6"/>
<path d="M126.89 40.4746C126.89 40.4746 126.89 40.4906 126.874 40.4906C126.842 40.5227 126.81 40.5689 126.761 40.601L122.344 45.0639C122.157 45.2508 121.889 45.3452 121.637 45.3452C121.369 45.3452 121.135 45.2508 120.931 45.0639C120.536 44.6723 120.536 44.0617 120.931 43.654L124.655 39.9103L120.931 36.1666C120.536 35.7749 120.536 35.1483 120.931 34.7567C121.308 34.3793 121.953 34.3793 122.344 34.7567L126.761 39.2196C126.81 39.2498 126.84 39.2979 126.874 39.3282C126.89 39.3282 126.89 39.3602 126.89 39.3602C126.921 39.4225 126.951 39.4546 126.969 39.5008C126.969 39.5169 126.983 39.5169 126.983 39.5311C126.999 39.5792 126.999 39.6094 127.03 39.6735C127.03 39.6878 127.044 39.6878 127.044 39.7198C127.044 39.7501 127.044 39.7964 127.044 39.8284C127.044 39.8426 127.062 39.8907 127.062 39.9067C127.062 39.9227 127.044 39.969 127.044 39.9851C127.044 40.0313 127.044 40.0634 127.044 40.1114C127.044 40.1275 127.03 40.1275 127.03 40.1435C126.999 40.2058 126.999 40.2521 126.983 40.2841C126.983 40.3001 126.969 40.3001 126.969 40.3304C126.951 40.366 126.921 40.4141 126.89 40.4746Z" fill="#A6A6A6"/>
<path d="M135.375 44.1455V36.7295H132.375V35.6855H139.611V36.7295H136.611V44.1455H135.375ZM139.649 44.1455V38.2895H140.825V39.6935H140.705C140.833 39.2135 141.061 38.8495 141.389 38.6015C141.725 38.3535 142.169 38.2095 142.721 38.1695L143.117 38.1455L143.201 39.1775L142.469 39.2495C141.949 39.2975 141.553 39.4615 141.281 39.7415C141.009 40.0215 140.873 40.4055 140.873 40.8935V44.1455H139.649ZM145.999 44.2535C145.591 44.2535 145.223 44.1735 144.895 44.0135C144.575 43.8535 144.323 43.6375 144.139 43.3655C143.955 43.0935 143.863 42.7855 143.863 42.4415C143.863 42.0095 143.971 41.6695 144.187 41.4215C144.411 41.1655 144.775 40.9855 145.279 40.8815C145.791 40.7695 146.479 40.7135 147.343 40.7135H147.907V41.4575H147.355C146.923 41.4575 146.559 41.4735 146.263 41.5055C145.967 41.5375 145.731 41.5895 145.555 41.6615C145.379 41.7255 145.251 41.8175 145.171 41.9375C145.099 42.0575 145.063 42.2015 145.063 42.3695C145.063 42.6735 145.167 42.9215 145.375 43.1135C145.583 43.2975 145.871 43.3895 146.239 43.3895C146.535 43.3895 146.795 43.3215 147.019 43.1855C147.243 43.0415 147.419 42.8495 147.547 42.6095C147.683 42.3695 147.751 42.0935 147.751 41.7815V40.4015C147.751 39.9455 147.655 39.6175 147.463 39.4175C147.271 39.2175 146.955 39.1175 146.515 39.1175C146.179 39.1175 145.843 39.1695 145.507 39.2735C145.171 39.3695 144.827 39.5255 144.475 39.7415L144.103 38.8895C144.311 38.7455 144.551 38.6215 144.823 38.5175C145.095 38.4135 145.379 38.3335 145.675 38.2775C145.979 38.2135 146.271 38.1815 146.551 38.1815C147.087 38.1815 147.527 38.2655 147.871 38.4335C148.223 38.6015 148.483 38.8575 148.651 39.2015C148.819 39.5455 148.903 39.9895 148.903 40.5335V44.1455H147.763V42.8375H147.871C147.807 43.1335 147.687 43.3895 147.511 43.6055C147.343 43.8135 147.131 43.9735 146.875 44.0855C146.619 44.1975 146.327 44.2535 145.999 44.2535ZM153.213 44.2535C152.613 44.2535 152.093 44.1295 151.653 43.8815C151.221 43.6255 150.885 43.2695 150.645 42.8135C150.405 42.3495 150.285 41.8055 150.285 41.1815C150.285 40.5655 150.405 40.0335 150.645 39.5855C150.885 39.1375 151.221 38.7935 151.653 38.5535C152.093 38.3055 152.613 38.1815 153.213 38.1815C153.581 38.1815 153.945 38.2455 154.305 38.3735C154.665 38.4935 154.961 38.6695 155.193 38.9015L154.809 39.7535C154.593 39.5455 154.349 39.3935 154.077 39.2975C153.805 39.1935 153.549 39.1415 153.309 39.1415C152.741 39.1415 152.301 39.3215 151.989 39.6815C151.685 40.0335 151.533 40.5375 151.533 41.1935C151.533 41.8495 151.685 42.3655 151.989 42.7415C152.301 43.1095 152.741 43.2935 153.309 43.2935C153.549 43.2935 153.805 43.2455 154.077 43.1495C154.349 43.0455 154.593 42.8895 154.809 42.6815L155.193 43.5455C154.961 43.7615 154.661 43.9335 154.293 44.0615C153.933 44.1895 153.573 44.2535 153.213 44.2535ZM156.294 44.1455V35.6855H157.506V40.8455H157.53L160.074 38.2895H161.574L158.49 41.3855V40.8215L161.79 44.1455H160.278L157.53 41.4695H157.506V44.1455H156.294ZM162.434 36.9335V35.6735H163.85V36.9335H162.434ZM162.542 44.1455V38.2895H163.754V44.1455H162.542ZM165.52 44.1455V38.2895H166.696V39.5375H166.564C166.74 39.0895 167.016 38.7535 167.392 38.5295C167.768 38.2975 168.2 38.1815 168.688 38.1815C169.152 38.1815 169.536 38.2695 169.84 38.4455C170.152 38.6135 170.384 38.8735 170.536 39.2255C170.688 39.5695 170.764 40.0055 170.764 40.5335V44.1455H169.552V40.6055C169.552 40.2695 169.508 39.9975 169.42 39.7895C169.332 39.5735 169.2 39.4135 169.024 39.3095C168.848 39.2055 168.62 39.1535 168.34 39.1535C168.02 39.1535 167.736 39.2215 167.488 39.3575C167.248 39.4935 167.06 39.6895 166.924 39.9455C166.796 40.2015 166.732 40.4975 166.732 40.8335V44.1455H165.52ZM175.146 46.4135C174.618 46.4135 174.126 46.3495 173.67 46.2215C173.214 46.0935 172.81 45.9015 172.458 45.6455L172.83 44.7815C173.062 44.9335 173.298 45.0615 173.538 45.1655C173.786 45.2775 174.034 45.3575 174.282 45.4055C174.538 45.4535 174.798 45.4775 175.062 45.4775C175.622 45.4775 176.042 45.3335 176.322 45.0455C176.602 44.7655 176.742 44.3495 176.742 43.7975V42.5735H176.85C176.73 43.0135 176.478 43.3615 176.094 43.6175C175.71 43.8735 175.266 44.0015 174.762 44.0015C174.234 44.0015 173.774 43.8815 173.382 43.6415C172.99 43.3935 172.686 43.0535 172.47 42.6215C172.254 42.1815 172.146 41.6695 172.146 41.0855C172.146 40.5015 172.254 39.9935 172.47 39.5615C172.686 39.1295 172.99 38.7935 173.382 38.5535C173.774 38.3055 174.234 38.1815 174.762 38.1815C175.274 38.1815 175.718 38.3095 176.094 38.5655C176.478 38.8215 176.726 39.1695 176.838 39.6095H176.742V38.2895H177.918V43.6535C177.918 44.2615 177.814 44.7695 177.606 45.1775C177.398 45.5935 177.086 45.9015 176.67 46.1015C176.262 46.3095 175.754 46.4135 175.146 46.4135ZM175.05 43.0535C175.57 43.0535 175.978 42.8775 176.274 42.5255C176.578 42.1735 176.73 41.6935 176.73 41.0855C176.73 40.4855 176.578 40.0095 176.274 39.6575C175.978 39.3055 175.57 39.1295 175.05 39.1295C174.538 39.1295 174.13 39.3055 173.826 39.6575C173.522 40.0095 173.37 40.4855 173.37 41.0855C173.37 41.6935 173.522 42.1735 173.826 42.5255C174.13 42.8775 174.538 43.0535 175.05 43.0535ZM183.023 44.1455V35.6855H186.527C187.143 35.6855 187.663 35.7895 188.087 35.9975C188.511 36.1975 188.831 36.4895 189.047 36.8735C189.271 37.2575 189.383 37.7215 189.383 38.2655C189.383 38.8095 189.271 39.2775 189.047 39.6695C188.831 40.0535 188.511 40.3495 188.087 40.5575C187.663 40.7575 187.143 40.8575 186.527 40.8575H184.271V44.1455H183.023ZM184.271 39.8615H186.347C186.947 39.8615 187.399 39.7295 187.703 39.4655C188.015 39.1935 188.171 38.7935 188.171 38.2655C188.171 37.7455 188.015 37.3535 187.703 37.0895C187.399 36.8175 186.947 36.6815 186.347 36.6815H184.271V39.8615ZM190.542 36.9335V35.6735H191.958V36.9335H190.542ZM190.65 44.1455V38.2895H191.862V44.1455H190.65ZM192.848 44.1455L195.524 40.8215V41.4215L193.004 38.2895H194.42L196.208 40.5695H195.776L197.564 38.2895H198.98L196.46 41.3975V40.8575L199.136 44.1455H197.696L195.776 41.7215H196.184L194.276 44.1455H192.848ZM202.706 44.2535C202.066 44.2535 201.514 44.1335 201.05 43.8935C200.594 43.6455 200.238 43.2975 199.982 42.8495C199.734 42.3935 199.61 41.8535 199.61 41.2295C199.61 40.6215 199.734 40.0895 199.982 39.6335C200.23 39.1775 200.57 38.8215 201.002 38.5655C201.434 38.3095 201.926 38.1815 202.478 38.1815C203.022 38.1815 203.486 38.3015 203.87 38.5415C204.262 38.7735 204.562 39.1055 204.77 39.5375C204.978 39.9695 205.082 40.4855 205.082 41.0855V41.4935H200.57V40.7495H204.266L204.062 40.9175C204.062 40.3175 203.93 39.8535 203.666 39.5255C203.402 39.1975 203.022 39.0335 202.526 39.0335C202.15 39.0335 201.83 39.1215 201.566 39.2975C201.31 39.4735 201.114 39.7175 200.978 40.0295C200.842 40.3415 200.774 40.7055 200.774 41.1215V41.1935C200.774 41.6575 200.846 42.0495 200.99 42.3695C201.142 42.6815 201.362 42.9175 201.65 43.0775C201.938 43.2375 202.294 43.3175 202.718 43.3175C203.054 43.3175 203.382 43.2655 203.702 43.1615C204.03 43.0495 204.338 42.8775 204.626 42.6455L204.986 43.4855C204.722 43.7255 204.382 43.9135 203.966 44.0495C203.55 44.1855 203.13 44.2535 202.706 44.2535ZM208.371 44.2535C207.731 44.2535 207.251 44.0735 206.931 43.7135C206.619 43.3455 206.463 42.8175 206.463 42.1295V35.6855H207.675V42.0575C207.675 42.3135 207.711 42.5335 207.783 42.7175C207.855 42.8935 207.963 43.0255 208.107 43.1135C208.251 43.2015 208.431 43.2455 208.647 43.2455C208.743 43.2455 208.835 43.2415 208.923 43.2335C209.011 43.2255 209.095 43.2095 209.175 43.1855L209.151 44.1575C209.015 44.1895 208.883 44.2135 208.755 44.2295C208.627 44.2455 208.499 44.2535 208.371 44.2535Z" fill="#A6A6A6"/>
<path d="M102.466 15.9756C102.466 17.9773 100.851 19.6006 98.8586 19.6006C96.8652 19.6006 95.251 17.9773 95.251 15.9756C95.251 13.9738 96.8664 12.3506 98.8586 12.3506C100.852 12.3506 102.466 13.9738 102.466 15.9756Z" fill="#A6A6A6"/>
<path d="M117.201 15.9756C117.201 17.9773 115.586 19.6006 113.594 19.6006C111.602 19.6006 109.986 17.9773 109.986 15.9756C109.986 13.9738 111.602 12.3506 113.594 12.3506C115.586 12.3506 117.201 13.9738 117.201 15.9756Z" fill="#EBEBEB"/>
<path d="M131.936 15.9756C131.936 17.9773 130.32 19.6006 128.328 19.6006C126.336 19.6006 124.721 17.9773 124.721 15.9756C124.721 13.9738 126.336 12.3506 128.328 12.3506C130.32 12.3506 131.936 13.9738 131.936 15.9756Z" fill="white"/>
</g>
</g>
<g filter="url(#filter1_d_1210_5645)">
<rect x="215" y="67" width="86" height="38" rx="4" fill="#76A6F5" shape-rendering="crispEdges"/>
<path d="M236.312 91V79.72H237.976V91H236.312ZM240.402 91V83.192H241.97V84.856H241.794C242.028 84.2587 242.396 83.8107 242.898 83.512C243.399 83.2027 243.975 83.048 244.626 83.048C245.244 83.048 245.756 83.1653 246.162 83.4C246.578 83.624 246.887 83.9707 247.09 84.44C247.292 84.8987 247.394 85.48 247.394 86.184V91H245.778V86.28C245.778 85.832 245.719 85.4693 245.602 85.192C245.484 84.904 245.308 84.6907 245.074 84.552C244.839 84.4133 244.535 84.344 244.162 84.344C243.735 84.344 243.356 84.4347 243.026 84.616C242.706 84.7973 242.455 85.0587 242.274 85.4C242.103 85.7413 242.018 86.136 242.018 86.584V91H240.402ZM252.356 91.144C251.94 91.144 251.535 91.1067 251.14 91.032C250.746 90.9573 250.383 90.8507 250.052 90.712C249.722 90.5733 249.428 90.4027 249.172 90.2L249.636 89.112C249.903 89.2933 250.186 89.4533 250.484 89.592C250.783 89.72 251.092 89.816 251.412 89.88C251.743 89.944 252.063 89.976 252.372 89.976C252.938 89.976 253.364 89.8747 253.652 89.672C253.94 89.4693 254.084 89.1973 254.084 88.856C254.084 88.5787 253.988 88.3653 253.796 88.216C253.604 88.056 253.316 87.9333 252.932 87.848L251.412 87.544C250.751 87.4053 250.25 87.16 249.908 86.808C249.567 86.456 249.396 86.008 249.396 85.464C249.396 84.9733 249.53 84.5467 249.796 84.184C250.063 83.8213 250.436 83.544 250.916 83.352C251.396 83.1493 251.951 83.048 252.58 83.048C252.943 83.048 253.295 83.0853 253.636 83.16C253.978 83.2347 254.298 83.3413 254.596 83.48C254.906 83.6187 255.167 83.7947 255.38 84.008L254.916 85.096C254.714 84.9147 254.479 84.76 254.212 84.632C253.956 84.504 253.69 84.408 253.412 84.344C253.135 84.2693 252.858 84.232 252.58 84.232C252.015 84.232 251.588 84.3387 251.3 84.552C251.023 84.7547 250.884 85.032 250.884 85.384C250.884 85.6507 250.97 85.8693 251.14 86.04C251.311 86.2107 251.578 86.3333 251.94 86.408L253.46 86.712C254.154 86.8507 254.676 87.0853 255.028 87.416C255.391 87.7467 255.572 88.1947 255.572 88.76C255.572 89.2507 255.439 89.6773 255.172 90.04C254.906 90.4027 254.527 90.68 254.036 90.872C253.556 91.0533 252.996 91.144 252.356 91.144ZM260.62 91.144C259.65 91.144 258.919 90.8933 258.428 90.392C257.948 89.8907 257.708 89.1653 257.708 88.216V84.44H256.188V83.192H257.708V80.84H259.324V83.192H261.74V84.44H259.324V88.088C259.324 88.6533 259.442 89.08 259.676 89.368C259.922 89.656 260.316 89.8 260.86 89.8C261.02 89.8 261.18 89.7787 261.34 89.736C261.511 89.6933 261.676 89.6507 261.836 89.608L262.092 90.824C261.932 90.92 261.708 90.9947 261.42 91.048C261.143 91.112 260.876 91.144 260.62 91.144ZM265.632 91.144C265.088 91.144 264.597 91.0373 264.16 90.824C263.733 90.6107 263.397 90.3227 263.152 89.96C262.907 89.5973 262.784 89.1867 262.784 88.728C262.784 88.152 262.928 87.6987 263.216 87.368C263.515 87.0267 264 86.7867 264.672 86.648C265.355 86.4987 266.272 86.424 267.424 86.424H268.176V87.416H267.44C266.864 87.416 266.379 87.4373 265.984 87.48C265.589 87.5227 265.275 87.592 265.04 87.688C264.805 87.7733 264.635 87.896 264.528 88.056C264.432 88.216 264.384 88.408 264.384 88.632C264.384 89.0373 264.523 89.368 264.8 89.624C265.077 89.8693 265.461 89.992 265.952 89.992C266.347 89.992 266.693 89.9013 266.992 89.72C267.291 89.528 267.525 89.272 267.696 88.952C267.877 88.632 267.968 88.264 267.968 87.848V86.008C267.968 85.4 267.84 84.9627 267.584 84.696C267.328 84.4293 266.907 84.296 266.32 84.296C265.872 84.296 265.424 84.3653 264.976 84.504C264.528 84.632 264.069 84.84 263.6 85.128L263.104 83.992C263.381 83.8 263.701 83.6347 264.064 83.496C264.427 83.3573 264.805 83.2507 265.2 83.176C265.605 83.0907 265.995 83.048 266.368 83.048C267.083 83.048 267.669 83.16 268.128 83.384C268.597 83.608 268.944 83.9493 269.168 84.408C269.392 84.8667 269.504 85.4587 269.504 86.184V91H267.984V89.256H268.128C268.043 89.6507 267.883 89.992 267.648 90.28C267.424 90.5573 267.141 90.7707 266.8 90.92C266.459 91.0693 266.069 91.144 265.632 91.144ZM274.274 91.144C273.42 91.144 272.78 90.904 272.354 90.424C271.938 89.9333 271.73 89.2293 271.73 88.312V79.72H273.346V88.216C273.346 88.5573 273.394 88.8507 273.49 89.096C273.586 89.3307 273.73 89.5067 273.922 89.624C274.114 89.7413 274.354 89.8 274.642 89.8C274.77 89.8 274.892 89.7947 275.01 89.784C275.127 89.7733 275.239 89.752 275.346 89.72L275.314 91.016C275.132 91.0587 274.956 91.0907 274.786 91.112C274.615 91.1333 274.444 91.144 274.274 91.144ZM279.164 91.144C278.311 91.144 277.671 90.904 277.244 90.424C276.828 89.9333 276.62 89.2293 276.62 88.312V79.72H278.236V88.216C278.236 88.5573 278.284 88.8507 278.38 89.096C278.476 89.3307 278.62 89.5067 278.812 89.624C279.004 89.7413 279.244 89.8 279.532 89.8C279.66 89.8 279.783 89.7947 279.9 89.784C280.018 89.7733 280.13 89.752 280.236 89.72L280.204 91.016C280.023 91.0587 279.847 91.0907 279.676 91.112C279.506 91.1333 279.335 91.144 279.164 91.144Z" fill="white"/>
</g>
<g filter="url(#filter2_d_1210_5645)">
<path d="M305.702 102.833L309.946 113.093L305.708 114.849L301.442 104.52L294.438 109.961V81.0576L314.645 101.498L305.702 102.833Z" fill="#263238"/>
<path d="M294.439 77.9067C294.237 77.4219 294.192 76.9381 294.183 76.4533C294.191 75.9685 294.236 75.4848 294.439 75C294.643 75.4848 294.688 75.9685 294.696 76.4533C294.687 76.9381 294.642 77.4229 294.439 77.9067Z" fill="#263238"/>
<path d="M291.941 78.9452C291.456 78.7454 291.082 78.4353 290.733 78.0991C290.396 77.7508 290.086 77.3764 289.888 76.8896C290.374 77.0884 290.748 77.3985 291.096 77.7357C291.431 78.085 291.741 78.4594 291.941 78.9452Z" fill="#263238"/>
<path d="M290.903 81.4474C290.42 81.6501 289.936 81.6953 289.452 81.7043C288.967 81.6973 288.484 81.6511 288 81.4474C288.483 81.2436 288.967 81.1985 289.452 81.1904C289.936 81.1995 290.419 81.2446 290.903 81.4474Z" fill="#263238"/>
<path d="M291.941 83.9512C291.741 84.437 291.431 84.8113 291.096 85.1606C290.748 85.4978 290.374 85.808 289.888 86.0067C290.086 85.5199 290.396 85.1456 290.733 84.7973C291.082 84.46 291.456 84.1499 291.941 83.9512Z" fill="#263238"/>
<path d="M297.974 81.4474C298.458 81.2446 298.941 81.1995 299.425 81.1904C299.909 81.1985 300.393 81.2436 300.877 81.4474C300.393 81.6511 299.909 81.6973 299.425 81.7043C298.942 81.6953 298.458 81.6501 297.974 81.4474Z" fill="#263238"/>
<path d="M296.936 78.9452C297.135 78.4594 297.445 78.085 297.781 77.7357C298.128 77.3985 298.502 77.0884 298.989 76.8896C298.79 77.3764 298.48 77.7508 298.144 78.0991C297.796 78.4363 297.421 78.7464 296.936 78.9452Z" fill="#263238"/>
</g>
<defs>
<filter id="filter0_d_1210_5645" x="81.0361" y="4" width="203.928" height="128" filterUnits="userSpaceOnUse" color-interpolation-filters="sRGB">
<feFlood flood-opacity="0" result="BackgroundImageFix"/>
<feColorMatrix in="SourceAlpha" type="matrix" values="0 0 0 0 0 0 0 0 0 0 0 0 0 0 0 0 0 0 127 0" result="hardAlpha"/>
<feOffset dx="-1" dy="2"/>
<feGaussianBlur stdDeviation="3"/>
<feComposite in2="hardAlpha" operator="out"/>
<feColorMatrix type="matrix" values="0 0 0 0 0 0 0 0 0 0 0 0 0 0 0 0 0 0 0.08 0"/>
<feBlend mode="normal" in2="BackgroundImageFix" result="effect1_dropShadow_1210_5645"/>
<feBlend mode="normal" in="SourceGraphic" in2="effect1_dropShadow_1210_5645" result="shape"/>
</filter>
<filter id="filter1_d_1210_5645" x="213" y="66" width="90" height="42" filterUnits="userSpaceOnUse" color-interpolation-filters="sRGB">
<feFlood flood-opacity="0" result="BackgroundImageFix"/>
<feColorMatrix in="SourceAlpha" type="matrix" values="0 0 0 0 0 0 0 0 0 0 0 0 0 0 0 0 0 0 127 0" result="hardAlpha"/>
<feOffset dy="1"/>
<feGaussianBlur stdDeviation="1"/>
<feComposite in2="hardAlpha" operator="out"/>
<feColorMatrix type="matrix" values="0 0 0 0 0 0 0 0 0 0 0 0 0 0 0 0 0 0 0.25 0"/>
<feBlend mode="normal" in2="BackgroundImageFix" result="effect1_dropShadow_1210_5645"/>
<feBlend mode="normal" in="SourceGraphic" in2="effect1_dropShadow_1210_5645" result="shape"/>
</filter>
<filter id="filter2_d_1210_5645" x="282" y="73" width="34.6445" height="47.8496" filterUnits="userSpaceOnUse" color-interpolation-filters="sRGB">
<feFlood flood-opacity="0" result="BackgroundImageFix"/>
<feColorMatrix in="SourceAlpha" type="matrix" values="0 0 0 0 0 0 0 0 0 0 0 0 0 0 0 0 0 0 127 0" result="hardAlpha"/>
<feOffset dx="-2" dy="2"/>
<feGaussianBlur stdDeviation="2"/>
<feComposite in2="hardAlpha" operator="out"/>
<feColorMatrix type="matrix" values="0 0 0 0 0 0 0 0 0 0 0 0 0 0 0 0 0 0 0.25 0"/>
<feBlend mode="normal" in2="BackgroundImageFix" result="effect1_dropShadow_1210_5645"/>
<feBlend mode="normal" in="SourceGraphic" in2="effect1_dropShadow_1210_5645" result="shape"/>
</filter>
<clipPath id="clip0_1210_5645">
<rect x="88.0361" y="8" width="191.927" height="116" rx="4" fill="white"/>
</clipPath>
</defs>
</svg>
