<svg width="468" height="202" viewBox="0 0 468 202" fill="none" xmlns="http://www.w3.org/2000/svg">
<path d="M377 193.779C377 198.249 373.453 201.903 369.118 201.903H99.8801C95.5463 201.903 92 198.249 92 193.779V8.12355C92 3.65463 95.5463 -0.000488281 99.8801 -0.000488281H369.118C373.453 -0.000488281 377 3.65463 377 8.12355V193.779Z" fill="#F2F2F2"/>
<path d="M369.118 -0.000488281H99.8801C95.5463 -0.000488281 92 3.65463 92 8.12355V21.2945H377V8.12355C377 3.65556 373.453 -0.000488281 369.118 -0.000488281Z" fill="#C6CFD5"/>
<path d="M109 11.4993C109 13.985 106.986 15.9998 104.5 15.9998C102.015 15.9998 100 13.985 100 11.4993C100 9.01457 102.015 6.99976 104.5 6.99976C106.985 6.99976 109 9.01457 109 11.4993Z" fill="#F45F31"/>
<path d="M127 11.4993C127 13.985 124.987 15.9998 122.501 15.9998C120.015 15.9998 118 13.985 118 11.4993C118 9.01457 120.015 6.99976 122.501 6.99976C124.986 6.99976 127 9.01457 127 11.4993Z" fill="#F2B233"/>
<path d="M144 11.4993C144 13.985 141.986 15.9998 139.5 15.9998C137.015 15.9998 135 13.985 135 11.4993C135 9.01457 137.015 6.99976 139.5 6.99976C141.986 6.99976 144 9.01457 144 11.4993Z" fill="#15B56C"/>
<path d="M358.885 33.7302H110.121V94.6283H358.885V33.7302Z" fill="white"/>
<path d="M188.733 107.222H110.121V132.949H188.733V107.222Z" fill="white"/>
<path d="M188.733 139.336H110.121V146.558H188.733V139.336Z" fill="white"/>
<path d="M188.733 151.992H110.121V159.213H188.733V151.992Z" fill="white"/>
<path d="M188.733 164.617H110.121V171.838H188.733V164.617Z" fill="white"/>
<path d="M188.733 177.261H110.121V184.483H188.733V177.261Z" fill="white"/>
<path d="M273.821 107.222H195.207V132.949H273.821V107.222Z" fill="white"/>
<path d="M273.821 139.336H195.207V146.558H273.821V139.336Z" fill="white"/>
<path d="M273.821 151.992H195.207V159.213H273.821V151.992Z" fill="white"/>
<path d="M273.821 164.617H195.207V171.838H273.821V164.617Z" fill="white"/>
<path d="M273.821 177.261H195.207V184.483H273.821V177.261Z" fill="white"/>
<path d="M358.887 107.222H280.273V184.474H358.887V107.222Z" fill="white"/>
<path d="M280.273 171.836L304.847 132.95L319.581 162.206L344.54 116.769L358.888 143.851V184.474H280.273V171.836Z" fill="#C6CFD5"/>
<path d="M330.532 122.634C330.532 127.868 326.416 132.113 321.339 132.113C316.261 132.113 312.145 127.868 312.145 122.634C312.145 117.399 316.261 113.156 321.339 113.156C326.417 113.156 330.532 117.399 330.532 122.634Z" fill="#C6CFD5"/>
<path d="M222.844 85.7435C222.844 87.5053 221.458 88.9325 219.75 88.9325C218.041 88.9325 216.656 87.5053 216.656 85.7435C216.656 83.9816 218.041 82.5544 219.75 82.5544C221.458 82.5544 222.844 83.9816 222.844 85.7435Z" fill="white"/>
<path d="M237.641 85.7435C237.641 87.5053 236.256 88.9325 234.547 88.9325C232.838 88.9325 231.453 87.5053 231.453 85.7435C231.453 83.9816 232.838 82.5544 234.547 82.5544C236.256 82.5544 237.641 83.9816 237.641 85.7435Z" fill="white"/>
<path d="M252.442 85.7435C252.442 87.5053 251.057 88.9325 249.347 88.9325C247.64 88.9325 246.254 87.5053 246.254 85.7435C246.254 83.9816 247.64 82.5544 249.347 82.5544C251.057 82.5544 252.442 83.9816 252.442 85.7435Z" fill="white"/>
<path d="M129.244 64.0782C129.244 67.2029 126.787 69.7347 123.756 69.7347C120.725 69.7347 118.27 67.2029 118.27 64.0782C118.27 60.9535 120.726 58.4216 123.756 58.4216C126.788 58.4216 129.244 60.9535 129.244 64.0782Z" fill="white"/>
<path d="M121.953 64.0881C123.088 63.1289 124.223 62.1697 125.359 61.2104C125.766 60.8674 125.185 60.2773 124.783 60.6176C123.538 61.6691 122.291 62.7224 121.044 63.7749C120.933 63.87 120.9 63.9818 120.913 64.0881C120.9 64.1953 120.933 64.3072 121.044 64.4013C122.29 65.4538 123.537 66.5062 124.783 67.5596C125.185 67.8998 125.765 67.3098 125.359 66.9658C124.222 66.0056 123.087 65.0473 121.953 64.0881Z" fill="#C6CFD5"/>
<path d="M339.871 64.0782C339.871 67.2029 342.33 69.7347 345.36 69.7347C348.389 69.7347 350.846 67.2029 350.846 64.0782C350.846 60.9535 348.388 58.4216 345.36 58.4216C342.329 58.4216 339.871 60.9535 339.871 64.0782Z" fill="white"/>
<path d="M347.147 64.0881C346.012 63.1289 344.876 62.1697 343.74 61.2104C343.333 60.8674 343.912 60.2773 344.317 60.6176C345.561 61.6691 346.808 62.7224 348.053 63.7749C348.165 63.87 348.199 63.9818 348.185 64.0881C348.2 64.1953 348.165 64.3072 348.053 64.4013C346.808 65.4538 345.561 66.5062 344.317 67.5596C343.913 67.8998 343.333 67.3098 343.74 66.9658C344.877 66.0056 346.012 65.0473 347.147 64.0881Z" fill="#C6CFD5"/>
<g filter="url(#filter0_d_1002_19400)">
<g clip-path="url(#clip0_1002_19400)">
<path d="M400.367 47.6281H234.628V183.741H400.367V47.6281Z" fill="white"/>
<path d="M400.995 184.37H234V47H400.995V184.37ZM235.256 183.113H399.739V48.257H235.256V183.113Z" fill="white"/>
<path d="M400.367 47.6281H234.628V59.6171H400.367V47.6281Z" fill="#C6CFD5"/>
<path d="M400.995 60.245H234V47H400.995V60.245ZM235.256 58.989H399.739V48.257H235.256V58.989Z" fill="#C6CFD5" fill-opacity="0.733333"/>
<path d="M253.899 83.467H247.489V85.808H253.899V83.467Z" fill="#EBEBEB"/>
<path d="M332.095 83.467H258.57V85.808H332.095V83.467Z" fill="#EBEBEB"/>
<path d="M348.209 83.467H336.034V85.808H348.209V83.467Z" fill="#C6CFD5"/>
<path d="M376.056 114.797H363.881V117.138H376.056V114.797Z" fill="#EBEBEB"/>
<path d="M371.903 83.467H350.856V85.808H371.903V83.467Z" fill="#A6A6A6"/>
<path d="M260.309 89.733H253.899V92.074H260.309V89.733Z" fill="#EBEBEB"/>
<path d="M313.071 89.733H264.819V92.074H313.071V89.733Z" fill="#A6A6A6"/>
<path d="M360.99 114.797H332.738V117.138H360.99V114.797Z" fill="#A6A6A6"/>
<path d="M304.658 108.531H258.57V110.872H304.658V108.531Z" fill="#A6A6A6"/>
<path d="M297.151 95.999H264.819V98.34H297.151V95.999Z" fill="#C6CFD5"/>
<path d="M356.508 102.265H344.176V104.606H356.508V102.265Z" fill="#A6A6A6"/>
<path d="M352.371 95.999H300.739V98.34H352.371V95.999Z" fill="#A6A6A6"/>
<path d="M320.202 114.797H258.57V117.138H320.202V114.797Z" fill="#C6CFD5"/>
<path d="M382.899 89.733H349.498V92.074H382.899V89.733Z" fill="#C6CFD5"/>
<path d="M346.851 89.733H316.1V92.074H346.851V89.733Z" fill="#EBEBEB"/>
<path d="M375.549 95.999H354.798V98.34H375.549V95.999Z" fill="#EBEBEB"/>
<path d="M260.309 95.999H253.899V98.34H260.309V95.999Z" fill="#EBEBEB"/>
<path d="M253.899 102.265H247.489V104.606H253.899V102.265Z" fill="#A6A6A6"/>
<path d="M296.452 102.265H258.57V104.606H296.452V102.265Z" fill="#EBEBEB"/>
<path d="M302.701 121.063H264.819V123.404H302.701V121.063Z" fill="#EBEBEB"/>
<path d="M364.254 127.329H335.455V129.67H364.254V127.329Z" fill="#C6CFD5"/>
<path d="M343.764 121.063H305.776V123.404H343.764V121.063Z" fill="#C6CFD5"/>
<path d="M332.143 127.329H299.076V129.67H332.143V127.329Z" fill="#EBEBEB"/>
<path d="M275.787 127.329H264.819V129.67H275.787V127.329Z" fill="#A6A6A6"/>
<path d="M348.209 108.531H307.266V110.872H348.209V108.531Z" fill="#EBEBEB"/>
<path d="M376.907 108.531H350.856V110.872H376.907V108.531Z" fill="#C6CFD5"/>
<path d="M341.196 102.265H300.303V104.606H341.196V102.265Z" fill="#C6CFD5"/>
<path d="M253.899 108.531H247.489V110.872H253.899V108.531Z" fill="#EBEBEB"/>
<path d="M253.899 114.797H247.489V117.138H253.899V114.797Z" fill="#EBEBEB"/>
<path d="M260.309 121.063H253.899V123.404H260.309V121.063Z" fill="#A6A6A6"/>
<path d="M260.309 127.329H253.899V129.67H260.309V127.329Z" fill="#EBEBEB"/>
<path d="M253.899 132.577H247.489V134.918H253.899V132.577Z" fill="#EBEBEB"/>
<path d="M332.095 132.577H258.57V134.918H332.095V132.577Z" fill="#EBEBEB"/>
<path d="M260.309 138.843H253.899V141.184H260.309V138.843Z" fill="#EBEBEB"/>
<path d="M313.071 138.843H264.819V141.184H313.071V138.843Z" fill="#A6A6A6"/>
<path d="M304.658 157.642H258.57V159.983H304.658V157.642Z" fill="#A6A6A6"/>
<path d="M297.151 145.109H264.819V147.45H297.151V145.109Z" fill="#C6CFD5"/>
<path d="M352.371 145.109H300.739V147.45H352.371V145.109Z" fill="#A6A6A6"/>
<path d="M320.202 163.908H258.57V166.249H320.202V163.908Z" fill="#C6CFD5"/>
<path d="M382.899 138.843H349.498V141.184H382.899V138.843Z" fill="#C6CFD5"/>
<path d="M346.851 138.843H316.1V141.184H346.851V138.843Z" fill="#EBEBEB"/>
<path d="M375.549 145.109H354.798V147.45H375.549V145.109Z" fill="#EBEBEB"/>
<path d="M260.309 145.109H253.899V147.45H260.309V145.109Z" fill="#EBEBEB"/>
<path d="M253.899 151.376H247.489V153.717H253.899V151.376Z" fill="#A6A6A6"/>
<path d="M296.452 151.376H258.57V153.717H296.452V151.376Z" fill="#EBEBEB"/>
<path d="M348.209 157.642H307.266V159.983H348.209V157.642Z" fill="#EBEBEB"/>
<path d="M341.196 151.376H300.303V153.717H341.196V151.376Z" fill="#C6CFD5"/>
<path d="M253.899 157.642H247.489V159.983H253.899V157.642Z" fill="#EBEBEB"/>
<path d="M251.448 77.301C251.669 77.53 251.669 77.873 251.448 78.093C251.334 78.198 251.203 78.251 251.062 78.251C250.912 78.251 250.771 78.198 250.657 78.093L248.185 75.586C248.158 75.577 248.149 75.56 248.141 75.533C248.132 75.524 248.114 75.515 248.114 75.515C248.097 75.489 248.097 75.471 248.088 75.445C248.07 75.436 248.061 75.419 248.061 75.41C248.052 75.392 248.052 75.366 248.044 75.357C248.044 75.331 248.025 75.322 248.025 75.313C248.025 75.287 248.025 75.269 248.025 75.252C248.025 75.234 248.017 75.226 248.017 75.199C248.017 75.19 248.025 75.163 248.025 75.155C248.025 75.137 248.025 75.111 248.025 75.094C248.025 75.076 248.044 75.068 248.044 75.058C248.052 75.032 248.052 75.014 248.061 74.987C248.061 74.978 248.07 74.978 248.07 74.97C248.088 74.944 248.097 74.908 248.114 74.891C248.114 74.891 248.114 74.873 248.132 74.873C248.141 74.855 248.158 74.829 248.185 74.812L250.657 72.305C250.877 72.093 251.237 72.093 251.448 72.305C251.669 72.525 251.669 72.877 251.448 73.097L249.364 75.2L251.448 77.301Z" fill="#A6A6A6"/>
<path d="M253.69 77.5821L255.846 72.4521C255.951 72.2061 256.232 72.0911 256.488 72.1971C256.726 72.2931 256.84 72.5841 256.735 72.8211L254.58 77.9591C254.5 78.1441 254.316 78.2491 254.131 78.2491C254.078 78.2491 254.008 78.2401 253.956 78.2141C253.698 78.1191 253.584 77.8291 253.69 77.5821Z" fill="#A6A6A6"/>
<path d="M260.99 75.5141C260.99 75.5141 260.99 75.5231 260.981 75.5231C260.963 75.5411 260.945 75.5671 260.918 75.5851L258.446 78.0921C258.341 78.1971 258.191 78.2501 258.05 78.2501C257.9 78.2501 257.769 78.1971 257.655 78.0921C257.434 77.8721 257.434 77.5291 257.655 77.3001L259.739 75.1971L257.655 73.0941C257.434 72.8741 257.434 72.5221 257.655 72.3021C257.866 72.0901 258.227 72.0901 258.446 72.3021L260.918 74.8091C260.945 74.8261 260.962 74.8531 260.981 74.8701C260.99 74.8701 260.99 74.8881 260.99 74.8881C261.007 74.9231 261.024 74.9411 261.034 74.9671C261.034 74.9761 261.042 74.9761 261.042 74.9841C261.051 75.0111 261.051 75.0281 261.068 75.0641C261.068 75.0721 261.076 75.0721 261.076 75.0901C261.076 75.1071 261.076 75.1331 261.076 75.1511C261.076 75.1591 261.086 75.1861 261.086 75.1951C261.086 75.2041 261.076 75.2301 261.076 75.2391C261.076 75.2651 261.076 75.2831 261.076 75.3101C261.076 75.3191 261.068 75.3191 261.068 75.3281C261.051 75.3631 261.051 75.3891 261.042 75.4071C261.042 75.4161 261.034 75.4161 261.034 75.4331C261.024 75.4531 261.007 75.4801 260.99 75.5141Z" fill="#A6A6A6"/>
<path d="M269.16 78V73.128H267.176V72.36H272.024V73.128H270.04V78H269.16ZM272.298 78V74.032H273.082V74.976H273.09C273.186 74.6773 273.349 74.4427 273.578 74.272C273.813 74.096 274.101 73.9973 274.442 73.976L274.842 73.944L274.922 74.744L274.282 74.8C273.93 74.8267 273.658 74.9413 273.466 75.144C273.274 75.3413 273.178 75.5893 273.178 75.888V78H272.298ZM277.104 78.072C276.816 78.072 276.557 78.0187 276.328 77.912C276.104 77.8053 275.925 77.6613 275.792 77.48C275.664 77.2933 275.6 77.0827 275.6 76.848C275.6 76.5547 275.685 76.32 275.856 76.144C276.027 75.9627 276.288 75.832 276.64 75.752C276.997 75.672 277.453 75.632 278.008 75.632H278.568V76.192H278.048C277.771 76.192 277.531 76.2027 277.328 76.224C277.131 76.24 276.968 76.272 276.84 76.32C276.712 76.3627 276.616 76.424 276.552 76.504C276.493 76.5787 276.464 76.6773 276.464 76.8C276.464 77.0027 276.539 77.1573 276.688 77.264C276.843 77.3707 277.043 77.424 277.288 77.424C277.501 77.424 277.693 77.376 277.864 77.28C278.04 77.1787 278.179 77.048 278.28 76.888C278.387 76.7227 278.44 76.5413 278.44 76.344V75.456C278.44 75.1627 278.355 74.9547 278.184 74.832C278.019 74.704 277.771 74.64 277.44 74.64C277.211 74.64 276.979 74.672 276.744 74.736C276.515 74.8 276.275 74.904 276.024 75.048L275.768 74.424C275.933 74.3227 276.112 74.2373 276.304 74.168C276.501 74.0987 276.707 74.0453 276.92 74.008C277.133 73.9707 277.344 73.952 277.552 73.952C277.909 73.952 278.219 74.008 278.48 74.12C278.741 74.232 278.941 74.4053 279.08 74.64C279.219 74.8693 279.288 75.1707 279.288 75.544V78H278.536V77.152H278.528C278.453 77.3227 278.349 77.48 278.216 77.624C278.088 77.7627 277.931 77.872 277.744 77.952C277.557 78.032 277.344 78.072 277.104 78.072ZM282.475 78.072C282.065 78.072 281.705 77.9893 281.395 77.824C281.091 77.6533 280.854 77.4133 280.683 77.104C280.513 76.7947 280.427 76.4293 280.427 76.008C280.427 75.5867 280.513 75.224 280.683 74.92C280.854 74.6107 281.091 74.3733 281.395 74.208C281.705 74.0373 282.067 73.952 282.483 73.952C282.761 73.952 283.025 73.9973 283.275 74.088C283.531 74.1787 283.739 74.2987 283.899 74.448L283.619 75.088C283.47 74.96 283.302 74.864 283.115 74.8C282.929 74.7307 282.747 74.696 282.571 74.696C282.177 74.696 281.867 74.8107 281.643 75.04C281.425 75.264 281.315 75.5893 281.315 76.016C281.315 76.4373 281.425 76.7627 281.643 76.992C281.867 77.2213 282.174 77.336 282.563 77.336C282.745 77.336 282.926 77.304 283.107 77.24C283.294 77.1707 283.459 77.0747 283.603 76.952L283.883 77.592C283.729 77.7413 283.526 77.8587 283.275 77.944C283.025 78.0293 282.758 78.072 282.475 78.072ZM284.793 78V72.36H285.665V75.776H285.705L287.353 74.032H288.409L286.385 76.128L286.401 75.784L288.585 78H287.513L285.705 76.208H285.665V78H284.793ZM289.175 73.152V72.232H290.207V73.152H289.175ZM289.263 78V74.032H290.135V78H289.263ZM291.521 78V74.032H292.329V74.864H292.337C292.465 74.576 292.655 74.352 292.905 74.192C293.161 74.032 293.449 73.952 293.769 73.952C294.095 73.952 294.367 74.0133 294.585 74.136C294.809 74.2533 294.975 74.4347 295.081 74.68C295.193 74.92 295.249 75.2267 295.249 75.6V78H294.369V75.64C294.369 75.4373 294.34 75.2667 294.281 75.128C294.228 74.984 294.14 74.8747 294.017 74.8C293.895 74.7253 293.732 74.688 293.529 74.688C293.311 74.688 293.116 74.7387 292.945 74.84C292.775 74.936 292.639 75.0693 292.537 75.24C292.441 75.4053 292.393 75.592 292.393 75.8V78H291.521ZM298.376 79.512C298.056 79.512 297.739 79.4667 297.424 79.376C297.109 79.2907 296.84 79.168 296.616 79.008L296.872 78.344C297.016 78.4347 297.171 78.5147 297.336 78.584C297.501 78.6533 297.669 78.704 297.84 78.736C298.016 78.7733 298.184 78.792 298.344 78.792C298.755 78.792 299.069 78.6933 299.288 78.496C299.512 78.304 299.624 78.024 299.624 77.656V77H299.608C299.507 77.256 299.333 77.4667 299.088 77.632C298.843 77.792 298.557 77.872 298.232 77.872C297.864 77.872 297.541 77.792 297.264 77.632C296.987 77.4667 296.771 77.2373 296.616 76.944C296.461 76.6507 296.384 76.3067 296.384 75.912C296.384 75.5227 296.461 75.1813 296.616 74.888C296.771 74.5893 296.987 74.36 297.264 74.2C297.541 74.0347 297.864 73.952 298.232 73.952C298.563 73.952 298.851 74.0347 299.096 74.2C299.341 74.3653 299.515 74.5867 299.616 74.864H299.624V74.032H300.448V77.584C300.448 77.984 300.365 78.328 300.2 78.616C300.035 78.904 299.797 79.1253 299.488 79.28C299.179 79.4347 298.808 79.512 298.376 79.512ZM298.424 77.176C298.781 77.176 299.064 77.0613 299.272 76.832C299.48 76.6027 299.584 76.296 299.584 75.912C299.584 75.5227 299.48 75.216 299.272 74.992C299.064 74.7627 298.781 74.648 298.424 74.648C298.067 74.648 297.781 74.7627 297.568 74.992C297.36 75.216 297.256 75.5227 297.256 75.912C297.256 76.296 297.36 76.6027 297.568 76.832C297.781 77.0613 298.067 77.176 298.424 77.176ZM304.277 78V72.36H306.701C307.106 72.36 307.453 72.4293 307.741 72.568C308.034 72.7013 308.256 72.8987 308.405 73.16C308.56 73.416 308.637 73.728 308.637 74.096C308.637 74.4533 308.56 74.7627 308.405 75.024C308.25 75.2853 308.029 75.488 307.741 75.632C307.453 75.776 307.106 75.848 306.701 75.848H305.157V78H304.277ZM305.157 75.112H306.565C306.954 75.112 307.25 75.0293 307.453 74.864C307.656 74.6933 307.757 74.4373 307.757 74.096C307.757 73.7547 307.656 73.504 307.453 73.344C307.256 73.1787 306.96 73.096 306.565 73.096H305.157V75.112ZM309.672 73.152V72.232H310.704V73.152H309.672ZM309.76 78V74.032H310.632V78H309.76ZM311.506 78L313.138 75.736L313.154 76.208L311.578 74.032H312.546L313.594 75.488H313.53L314.578 74.032H315.546L313.97 76.2L313.994 75.752L315.618 78H314.642L313.53 76.448H313.594L312.482 78H311.506ZM318.378 78.072C317.914 78.072 317.517 77.992 317.186 77.832C316.856 77.6667 316.602 77.4293 316.426 77.12C316.25 76.8107 316.162 76.4427 316.162 76.016C316.162 75.616 316.242 75.2613 316.402 74.952C316.568 74.6427 316.802 74.4 317.106 74.224C317.41 74.0427 317.768 73.952 318.178 73.952C318.568 73.952 318.901 74.0347 319.178 74.2C319.456 74.3653 319.669 74.6 319.818 74.904C319.968 75.208 320.042 75.5707 320.042 75.992V76.264H316.842V75.696H319.442L319.298 75.84C319.298 75.4347 319.202 75.128 319.01 74.92C318.818 74.7067 318.546 74.6 318.194 74.6C317.954 74.6 317.744 74.6533 317.562 74.76C317.386 74.8613 317.248 75.0107 317.146 75.208C317.045 75.4 316.994 75.6347 316.994 75.912V76C316.994 76.3093 317.048 76.5653 317.154 76.768C317.266 76.9707 317.426 77.1227 317.634 77.224C317.848 77.3253 318.104 77.376 318.402 77.376C318.621 77.376 318.84 77.3493 319.058 77.296C319.282 77.2373 319.49 77.1333 319.682 76.984L319.954 77.592C319.746 77.7573 319.501 77.88 319.218 77.96C318.936 78.0347 318.656 78.072 318.378 78.072ZM322.456 78.072C322.04 78.072 321.723 77.9573 321.504 77.728C321.286 77.4933 321.176 77.1627 321.176 76.736V72.36H322.048V76.656C322.048 76.8107 322.07 76.9413 322.112 77.048C322.16 77.1547 322.227 77.2347 322.312 77.288C322.398 77.3413 322.502 77.368 322.624 77.368C322.704 77.368 322.779 77.3653 322.848 77.36C322.918 77.3493 322.99 77.3333 323.064 77.312L323.096 77.976C322.995 78.0133 322.894 78.0373 322.792 78.048C322.696 78.064 322.584 78.072 322.456 78.072Z" fill="#A6A6A6"/>
</g>
</g>
<g filter="url(#filter1_d_1002_19400)">
<rect x="184" y="103" width="100" height="32" rx="6" fill="#31C048"/>
<g clip-path="url(#clip1_1002_19400)">
<path d="M202 112.333C198.32 112.333 195.333 115.32 195.333 119C195.333 122.68 198.32 125.667 202 125.667C205.68 125.667 208.667 122.68 208.667 119C208.667 115.32 205.68 112.333 202 112.333ZM202 124.333C199.06 124.333 196.667 121.94 196.667 119C196.667 116.06 199.06 113.667 202 113.667C204.94 113.667 207.333 116.06 207.333 119C207.333 121.94 204.94 124.333 202 124.333ZM204.587 116.527L200.667 120.447L199.413 119.193C199.153 118.933 198.733 118.933 198.473 119.193C198.213 119.453 198.213 119.873 198.473 120.133L200.2 121.86C200.46 122.12 200.88 122.12 201.14 121.86L205.533 117.467C205.793 117.207 205.793 116.787 205.533 116.527C205.273 116.267 204.847 116.267 204.587 116.527Z" fill="white"/>
</g>
<path d="M219.148 124V114.13H220.604V124H219.148ZM222.796 124V117.168H224.168V118.624H224.014C224.22 118.101 224.542 117.709 224.98 117.448C225.419 117.177 225.923 117.042 226.492 117.042C227.034 117.042 227.482 117.145 227.836 117.35C228.2 117.546 228.471 117.849 228.648 118.26C228.826 118.661 228.914 119.17 228.914 119.786V124H227.5V119.87C227.5 119.478 227.449 119.161 227.346 118.918C227.244 118.666 227.09 118.479 226.884 118.358C226.679 118.237 226.413 118.176 226.086 118.176C225.713 118.176 225.382 118.255 225.092 118.414C224.812 118.573 224.593 118.801 224.434 119.1C224.285 119.399 224.21 119.744 224.21 120.136V124H222.796ZM233.327 124.126C232.963 124.126 232.608 124.093 232.263 124.028C231.917 123.963 231.6 123.869 231.311 123.748C231.021 123.627 230.765 123.477 230.541 123.3L230.947 122.348C231.18 122.507 231.427 122.647 231.689 122.768C231.95 122.88 232.221 122.964 232.501 123.02C232.79 123.076 233.07 123.104 233.341 123.104C233.835 123.104 234.209 123.015 234.461 122.838C234.713 122.661 234.839 122.423 234.839 122.124C234.839 121.881 234.755 121.695 234.587 121.564C234.419 121.424 234.167 121.317 233.831 121.242L232.501 120.976C231.922 120.855 231.483 120.64 231.185 120.332C230.886 120.024 230.737 119.632 230.737 119.156C230.737 118.727 230.853 118.353 231.087 118.036C231.32 117.719 231.647 117.476 232.067 117.308C232.487 117.131 232.972 117.042 233.523 117.042C233.84 117.042 234.148 117.075 234.447 117.14C234.745 117.205 235.025 117.299 235.287 117.42C235.557 117.541 235.786 117.695 235.973 117.882L235.567 118.834C235.389 118.675 235.184 118.54 234.951 118.428C234.727 118.316 234.493 118.232 234.251 118.176C234.008 118.111 233.765 118.078 233.523 118.078C233.028 118.078 232.655 118.171 232.403 118.358C232.16 118.535 232.039 118.778 232.039 119.086C232.039 119.319 232.113 119.511 232.263 119.66C232.412 119.809 232.645 119.917 232.963 119.982L234.293 120.248C234.899 120.369 235.357 120.575 235.665 120.864C235.982 121.153 236.141 121.545 236.141 122.04C236.141 122.469 236.024 122.843 235.791 123.16C235.557 123.477 235.226 123.72 234.797 123.888C234.377 124.047 233.887 124.126 233.327 124.126ZM240.628 124.126C239.778 124.126 239.139 123.907 238.71 123.468C238.29 123.029 238.08 122.395 238.08 121.564V118.26H236.75V117.168H238.08V115.11H239.494V117.168H241.608V118.26H239.494V121.452C239.494 121.947 239.596 122.32 239.802 122.572C240.016 122.824 240.362 122.95 240.838 122.95C240.978 122.95 241.118 122.931 241.258 122.894C241.407 122.857 241.552 122.819 241.692 122.782L241.916 123.846C241.776 123.93 241.58 123.995 241.328 124.042C241.085 124.098 240.852 124.126 240.628 124.126ZM245.083 124.126C244.607 124.126 244.178 124.033 243.795 123.846C243.422 123.659 243.128 123.407 242.913 123.09C242.698 122.773 242.591 122.413 242.591 122.012C242.591 121.508 242.717 121.111 242.969 120.822C243.23 120.523 243.655 120.313 244.243 120.192C244.84 120.061 245.643 119.996 246.651 119.996H247.309V120.864H246.665C246.161 120.864 245.736 120.883 245.391 120.92C245.046 120.957 244.77 121.018 244.565 121.102C244.36 121.177 244.21 121.284 244.117 121.424C244.033 121.564 243.991 121.732 243.991 121.928C243.991 122.283 244.112 122.572 244.355 122.796C244.598 123.011 244.934 123.118 245.363 123.118C245.708 123.118 246.012 123.039 246.273 122.88C246.534 122.712 246.74 122.488 246.889 122.208C247.048 121.928 247.127 121.606 247.127 121.242V119.632C247.127 119.1 247.015 118.717 246.791 118.484C246.567 118.251 246.198 118.134 245.685 118.134C245.293 118.134 244.901 118.195 244.509 118.316C244.117 118.428 243.716 118.61 243.305 118.862L242.871 117.868C243.114 117.7 243.394 117.555 243.711 117.434C244.028 117.313 244.36 117.219 244.705 117.154C245.06 117.079 245.4 117.042 245.727 117.042C246.352 117.042 246.866 117.14 247.267 117.336C247.678 117.532 247.981 117.831 248.177 118.232C248.373 118.633 248.471 119.151 248.471 119.786V124H247.141V122.474H247.267C247.192 122.819 247.052 123.118 246.847 123.37C246.651 123.613 246.404 123.799 246.105 123.93C245.806 124.061 245.466 124.126 245.083 124.126ZM252.715 124.126C251.968 124.126 251.408 123.916 251.035 123.496C250.671 123.067 250.489 122.451 250.489 121.648V114.13H251.903V121.564C251.903 121.863 251.945 122.119 252.029 122.334C252.113 122.539 252.239 122.693 252.407 122.796C252.575 122.899 252.785 122.95 253.037 122.95C253.149 122.95 253.256 122.945 253.359 122.936C253.461 122.927 253.559 122.908 253.653 122.88L253.625 124.014C253.466 124.051 253.312 124.079 253.163 124.098C253.013 124.117 252.864 124.126 252.715 124.126ZM257.064 124.126C256.317 124.126 255.757 123.916 255.384 123.496C255.02 123.067 254.838 122.451 254.838 121.648V114.13H256.252V121.564C256.252 121.863 256.294 122.119 256.378 122.334C256.462 122.539 256.588 122.693 256.756 122.796C256.924 122.899 257.134 122.95 257.386 122.95C257.498 122.95 257.605 122.945 257.708 122.936C257.81 122.927 257.908 122.908 258.002 122.88L257.974 124.014C257.815 124.051 257.661 124.079 257.512 124.098C257.362 124.117 257.213 124.126 257.064 124.126ZM262.325 124.126C261.578 124.126 260.934 123.986 260.393 123.706C259.861 123.417 259.445 123.011 259.147 122.488C258.857 121.956 258.713 121.326 258.713 120.598C258.713 119.889 258.857 119.268 259.147 118.736C259.436 118.204 259.833 117.789 260.337 117.49C260.841 117.191 261.415 117.042 262.059 117.042C262.693 117.042 263.235 117.182 263.683 117.462C264.14 117.733 264.49 118.12 264.733 118.624C264.975 119.128 265.097 119.73 265.097 120.43V120.906H259.833V120.038H264.145L263.907 120.234C263.907 119.534 263.753 118.993 263.445 118.61C263.137 118.227 262.693 118.036 262.115 118.036C261.676 118.036 261.303 118.139 260.995 118.344C260.696 118.549 260.467 118.834 260.309 119.198C260.15 119.562 260.071 119.987 260.071 120.472V120.556C260.071 121.097 260.155 121.555 260.323 121.928C260.5 122.292 260.757 122.567 261.093 122.754C261.429 122.941 261.844 123.034 262.339 123.034C262.731 123.034 263.113 122.973 263.487 122.852C263.869 122.721 264.229 122.521 264.565 122.25L264.985 123.23C264.677 123.51 264.28 123.729 263.795 123.888C263.309 124.047 262.819 124.126 262.325 124.126ZM269.312 124.126C268.715 124.126 268.188 123.986 267.73 123.706C267.282 123.417 266.932 123.006 266.68 122.474C266.428 121.933 266.302 121.303 266.302 120.584C266.302 119.847 266.428 119.217 266.68 118.694C266.932 118.171 267.282 117.765 267.73 117.476C268.188 117.187 268.715 117.042 269.312 117.042C269.91 117.042 270.423 117.191 270.852 117.49C271.291 117.779 271.585 118.171 271.734 118.666H271.58V114.13H272.994V124H271.608V122.46H271.748C271.599 122.964 271.305 123.37 270.866 123.678C270.437 123.977 269.919 124.126 269.312 124.126ZM269.676 123.034C270.255 123.034 270.722 122.824 271.076 122.404C271.431 121.984 271.608 121.377 271.608 120.584C271.608 119.781 271.431 119.175 271.076 118.764C270.722 118.353 270.255 118.148 269.676 118.148C269.088 118.148 268.617 118.353 268.262 118.764C267.908 119.175 267.73 119.781 267.73 120.584C267.73 121.377 267.908 121.984 268.262 122.404C268.617 122.824 269.088 123.034 269.676 123.034Z" fill="white"/>
</g>
<defs>
<filter id="filter0_d_1002_19400" x="226" y="44" width="178.995" height="149.37" filterUnits="userSpaceOnUse" color-interpolation-filters="sRGB">
<feFlood flood-opacity="0" result="BackgroundImageFix"/>
<feColorMatrix in="SourceAlpha" type="matrix" values="0 0 0 0 0 0 0 0 0 0 0 0 0 0 0 0 0 0 127 0" result="hardAlpha"/>
<feOffset dx="-2" dy="3"/>
<feGaussianBlur stdDeviation="3"/>
<feComposite in2="hardAlpha" operator="out"/>
<feColorMatrix type="matrix" values="0 0 0 0 0 0 0 0 0 0 0 0 0 0 0 0 0 0 0.2 0"/>
<feBlend mode="normal" in2="BackgroundImageFix" result="effect1_dropShadow_1002_19400"/>
<feBlend mode="normal" in="SourceGraphic" in2="effect1_dropShadow_1002_19400" result="shape"/>
</filter>
<filter id="filter1_d_1002_19400" x="177" y="102" width="108" height="40" filterUnits="userSpaceOnUse" color-interpolation-filters="sRGB">
<feFlood flood-opacity="0" result="BackgroundImageFix"/>
<feColorMatrix in="SourceAlpha" type="matrix" values="0 0 0 0 0 0 0 0 0 0 0 0 0 0 0 0 0 0 127 0" result="hardAlpha"/>
<feOffset dx="-3" dy="3"/>
<feGaussianBlur stdDeviation="2"/>
<feComposite in2="hardAlpha" operator="out"/>
<feColorMatrix type="matrix" values="0 0 0 0 0 0 0 0 0 0 0 0 0 0 0 0 0 0 0.15 0"/>
<feBlend mode="normal" in2="BackgroundImageFix" result="effect1_dropShadow_1002_19400"/>
<feBlend mode="normal" in="SourceGraphic" in2="effect1_dropShadow_1002_19400" result="shape"/>
</filter>
<clipPath id="clip0_1002_19400">
<rect x="234" y="47" width="166.995" height="137.37" rx="7" fill="white"/>
</clipPath>
<clipPath id="clip1_1002_19400">
<rect width="16" height="16" fill="white" transform="translate(194 111)"/>
</clipPath>
</defs>
</svg>
