<svg width="468" height="201" viewBox="0 0 468 201" fill="none" xmlns="http://www.w3.org/2000/svg">
<rect width="468" height="201" rx="4" fill="#E8EFFF"/>
<path d="M262.764 176.23C262.764 176.23 283.151 166.178 286.657 160.935C290.163 155.692 285.009 155.395 285.009 155.395C285.009 155.395 294.107 146.547 292.827 142.822C291.547 139.097 286.834 142.514 286.834 142.514C286.834 142.514 292.684 129.492 289.925 128.183C284.788 125.745 277.581 139.755 277.581 139.755C277.581 139.755 279.13 133.669 275.592 133.866C270.257 134.165 270.477 147.933 270.477 147.933C270.477 147.933 269.874 142.654 266.659 144.369C260.889 147.445 262.764 176.23 262.764 176.23Z" fill="#355389"/>
<path d="M265.498 142.239C268.009 140.845 270.51 144.918 270.51 144.918C270.51 144.918 270.257 134.165 275.592 133.866C279.13 133.668 277.581 139.755 277.581 139.755C277.581 139.755 284.788 125.744 289.926 128.183L262.741 176.006C262.549 172.666 260.524 144.999 265.498 142.239Z" fill="#466EB6"/>
<path d="M263.291 176.354C263.291 176.354 279.964 178.425 284.281 176.58C288.598 174.734 285.505 172.455 285.505 172.455C285.505 172.455 294.774 170.633 295.49 167.789C296.205 164.946 291.929 165.172 291.929 165.172C291.929 165.172 300.817 159.416 299.629 157.479C297.415 153.871 287.227 159.681 287.227 159.681C287.227 159.681 290.666 156.514 288.379 155.2C284.93 153.218 279.473 161.895 279.473 161.895C279.473 161.895 279.812 159.757 277.109 159.52C272.26 159.094 263.291 176.354 263.291 176.354Z" fill="#355389"/>
<path d="M277.001 157.965C279.704 158.202 279.474 161.895 279.474 161.895C279.474 161.895 285.03 151.61 288.479 153.591C290.766 154.906 288.06 159.222 288.06 159.222C288.06 159.222 297.416 153.871 299.63 157.479L263.241 176.262C264.478 174.101 272.472 157.568 277.001 157.965Z" fill="#466EB6"/>
<path d="M219.707 175.704C219.707 175.704 199.32 165.652 195.814 160.41C192.308 155.167 197.462 154.87 197.462 154.87C197.462 154.87 188.364 146.022 189.644 142.297C190.924 138.572 195.7 142.131 195.7 142.131C195.7 142.131 189.787 128.966 192.545 127.657C197.683 125.219 204.89 139.23 204.89 139.23C204.89 139.23 203.341 133.143 206.879 133.341C212.214 133.639 211.994 147.407 211.994 147.407C211.994 147.407 212.596 142.128 215.812 143.843C221.582 146.92 219.707 175.704 219.707 175.704Z" fill="#355389"/>
<path d="M216.973 141.714C214.462 140.32 211.961 144.393 211.961 144.393C211.961 144.393 212.215 133.639 206.879 133.341C203.342 133.143 204.89 139.23 204.89 139.23C204.89 139.23 197.683 125.219 192.546 127.657L219.731 175.481C219.923 172.141 221.948 144.474 216.973 141.714Z" fill="#466EB6"/>
<path d="M219.18 175.829C219.18 175.829 202.507 177.9 198.19 176.054C193.872 174.209 196.966 171.929 196.966 171.929C196.966 171.929 187.696 170.107 186.981 167.264C186.266 164.42 190.691 164.7 190.691 164.7C190.691 164.7 181.654 158.891 182.842 156.954C185.056 153.345 195.244 159.156 195.244 159.156C195.244 159.156 191.805 155.989 194.092 154.675C197.541 152.693 202.998 161.37 202.998 161.37C202.998 161.37 202.659 159.231 205.362 158.994C210.211 158.569 219.18 175.829 219.18 175.829Z" fill="#355389"/>
<path d="M205.077 156.097C202.375 156.334 202.417 158.96 202.417 158.96C202.417 158.96 197.443 151.084 193.994 153.066C191.707 154.38 194.412 158.696 194.412 158.696C194.412 158.696 185.056 153.345 182.842 156.954L219.231 175.737C217.994 173.575 209.607 155.7 205.077 156.097Z" fill="#466EB6"/>
<path d="M272.066 58.4463C271.941 59.035 271.827 59.644 271.521 60.1371C270.994 60.7735 270.497 61.4303 270.024 62.1039C270.349 62.0806 270.676 62.0656 271.007 62.0656C274.256 62.0656 277.28 63.2098 279.521 65.2875C281.524 67.1446 282.626 69.5249 282.626 71.9898C282.626 74.4548 281.524 76.8351 279.521 78.6922C277.28 80.7698 274.256 81.9141 271.007 81.9141C267.766 81.9141 264.75 80.7755 262.511 78.7082C262.348 79.1907 262.185 79.6703 262.023 80.1522C260.927 80.7075 260.157 82.0152 260.157 83.5407C260.157 85.5694 261.519 87.2142 263.198 87.2142C264.519 87.2142 265.64 86.195 266.06 84.7736C267.606 85.2888 269.27 85.5727 271.007 85.5727C279.097 85.5727 285.655 79.4915 285.655 71.9899C285.655 64.8191 279.661 58.9504 272.066 58.4463Z" fill="#E0973F"/>
<path d="M206.373 58.4463C206.498 59.035 206.612 59.644 206.918 60.1371C207.445 60.7735 207.942 61.4303 208.415 62.1039C208.09 62.0806 207.763 62.0656 207.433 62.0656C204.183 62.0656 201.159 63.2098 198.919 65.2875C196.916 67.1446 195.813 69.5249 195.813 71.9898C195.813 74.4548 196.916 76.8351 198.919 78.6922C201.159 80.7698 204.183 81.9141 207.433 81.9141C210.674 81.9141 213.69 80.7755 215.929 78.7082C216.092 79.1907 216.254 79.6703 216.417 80.1522C217.512 80.7075 218.282 82.0152 218.282 83.5407C218.282 85.5694 216.921 87.2142 215.241 87.2142C213.92 87.2142 212.799 86.195 212.379 84.7736C210.834 85.2888 209.17 85.5727 207.433 85.5727C199.343 85.5727 192.784 79.4915 192.784 71.9899C192.784 64.8191 198.778 58.9504 206.373 58.4463Z" fill="#E0973F"/>
<path d="M274.174 56.8995V60.6495C274.174 77.5969 260.433 91.3385 243.485 91.3385C235.679 91.2349 230.324 92.0418 222.913 88.7606C212.234 84.0781 204.547 73.3481 204.547 60.6495V56.8995H274.174Z" fill="#F7CC7F"/>
<path d="M222.913 88.7607C222.92 88.7641 222.928 88.7676 222.936 88.771L233.967 56.8997H222.484L213.642 82.4502C216.312 85.0952 219.456 87.2448 222.913 88.7607Z" fill="#FAE0B2"/>
<path d="M230.09 90.9111L241.73 56.8995H235.961L224.797 89.5252C226.648 90.2068 228.385 90.639 230.09 90.9111Z" fill="#FAE0B2"/>
<path d="M212.522 81.2823L221.228 56.8995H218.485L210.609 78.9607C211.209 79.7666 211.848 80.5413 212.522 81.2823Z" fill="#FAE0B2"/>
<path d="M271.134 54.774H207.761C205.448 54.774 203.563 56.0611 203.43 57.6831H275.465C275.332 56.0611 273.447 54.774 271.134 54.774Z" fill="#F7CC7F"/>
<path d="M227.594 90.4407L231.18 108.848H246.859L251.302 90.4407H227.594Z" fill="#F7CC7F"/>
<path d="M251.302 90.442L250.3 94.5956H228.405L227.595 90.442H251.302Z" fill="#B75742"/>
<path d="M251.302 131.619H227.595L229.372 122.482L231.178 113.211H246.861L249.099 122.482L251.302 131.619Z" fill="#F7CC7F"/>
<path d="M251.302 131.619H227.595L229.372 122.482H249.099L251.302 131.619Z" fill="#B75742"/>
<path d="M249.609 108.848H228.429C227.494 108.848 226.737 109.605 226.737 110.54V111.519C226.737 112.454 227.494 113.211 228.429 113.211H249.609C250.544 113.211 251.301 112.454 251.301 111.519V110.54C251.301 109.605 250.544 108.848 249.609 108.848Z" fill="#FAE0B2"/>
<path d="M253.049 130.373H225.047V125.343C225.047 124.802 225.486 124.362 226.028 124.362H252.068C252.61 124.362 253.049 124.802 253.049 125.343V130.373Z" fill="#F7CC7F"/>
<path d="M262.304 133.966V135.795H215.792V133.966C215.792 131.859 217.078 130.149 218.663 130.149H259.433C261.018 130.149 262.304 131.859 262.304 133.966Z" fill="#F7CC7F"/>
<path d="M226.743 130.149L225.272 135.795H223.331L224.802 130.149H226.743Z" fill="#FAE0B2"/>
<path d="M223.964 130.149L222.492 135.795H220.549L222.023 130.149H223.964Z" fill="#FAE0B2"/>
<path d="M229.214 130.149L227.743 135.795H225.799L227.273 130.149H229.214Z" fill="#FAE0B2"/>
<path d="M279.621 177.568V179.397H201.683V177.568C201.683 175.461 203.838 173.751 206.493 173.751H274.811C277.466 173.751 279.621 175.461 279.621 177.568Z" fill="#F7CC7F"/>
<path d="M220.032 173.751L217.567 179.397H214.314L216.78 173.751H220.032Z" fill="#FAE0B2"/>
<path d="M215.375 173.751L212.91 179.397H209.653L212.123 173.751H215.375Z" fill="#FAE0B2"/>
<path d="M224.173 173.751L221.707 179.397H218.45L220.92 173.751H224.173Z" fill="#FAE0B2"/>
<path d="M259.301 86.9629V88.3429C259.301 90.7326 257.366 92.6676 254.98 92.6676H223.759C221.369 92.6676 219.434 90.7326 219.434 88.3429V86.9629H259.301Z" fill="#F7CC7F"/>
<path d="M268.807 173.751H210.156L210.871 135.796H268.021L268.807 173.751Z" fill="#5084D9"/>
<path d="M254.86 173.751H224.104L224.479 135.796H254.447L254.86 173.751Z" fill="#76A6F5"/>
<path d="M280.997 97.6174C280.997 97.6174 277.721 98.1229 275.301 100.536C272.881 102.949 271.436 106.825 271.436 106.825L276.391 108.27C276.391 108.27 274.411 103.649 280.997 97.6174Z" fill="#FAE0B2"/>
<path d="M281.904 99.9945L281.549 97.2033L279.049 95.9136C278.764 95.7666 278.771 95.3569 279.061 95.2203L281.606 94.0201L282.06 91.2432C282.112 90.927 282.503 90.8073 282.723 91.0407L284.651 93.09L287.432 92.6636C287.749 92.615 287.984 92.9508 287.83 93.2318L286.476 95.6985L287.741 98.2117C287.885 98.4979 287.638 98.8252 287.324 98.7654L284.559 98.2406L282.56 100.22C282.332 100.446 281.945 100.312 281.904 99.9945Z" fill="#F7CC7F"/>
<path d="M194.793 112.476C194.793 112.476 198.07 112.981 200.49 115.395C202.909 117.808 204.355 121.684 204.355 121.684L199.4 123.129C199.4 123.129 201.38 118.508 194.793 112.476Z" fill="#FAE0B2"/>
<path d="M193.886 114.853L194.241 112.062L196.742 110.772C197.027 110.625 197.02 110.216 196.73 110.079L194.185 108.879L193.731 106.102C193.679 105.786 193.287 105.666 193.068 105.9L191.14 107.949L188.359 107.522C188.042 107.474 187.807 107.81 187.961 108.091L189.315 110.558L188.05 113.071C187.906 113.357 188.152 113.684 188.467 113.624L191.231 113.1L193.231 115.079C193.458 115.305 193.846 115.171 193.886 114.853Z" fill="#F7CC7F"/>
<path d="M303.161 100.056L303.927 98.7614L303.295 97.3964C303.223 97.241 303.361 97.0703 303.528 97.1079L304.996 97.4367L306.099 96.4139C306.224 96.2975 306.429 96.3755 306.445 96.5462L306.586 98.0437L307.899 98.7766C308.049 98.8601 308.038 99.0788 307.88 99.1468L306.5 99.7435L306.209 101.219C306.176 101.387 305.964 101.445 305.851 101.316L304.857 100.187L303.363 100.366C303.193 100.387 303.073 100.203 303.161 100.056Z" fill="#466EB6"/>
<path d="M229.215 41.5002L230.182 39.867L229.385 38.1447C229.294 37.9485 229.468 37.7333 229.679 37.7805L231.531 38.1955L232.922 36.905C233.081 36.758 233.339 36.8567 233.359 37.0718L233.537 38.9614L235.194 39.8861C235.383 39.9915 235.369 40.2675 235.171 40.3533L233.429 41.1063L233.061 42.9684C233.019 43.1804 232.753 43.2525 232.61 43.0903L231.355 41.666L229.471 41.892C229.256 41.9178 229.105 41.6863 229.215 41.5002Z" fill="#F79C8D"/>
<path d="M300.18 45.5566L297.627 47.2604L299.055 49.739L296.614 51.5284L297.686 54.0654L296.079 55.7032L296.908 56.517L299.058 54.3266L298.042 51.9224L300.581 50.0608L299.177 47.623L301.49 46.0791L300.18 45.5566Z" fill="#F48C7F"/>
<path d="M304.101 86.6208L302.295 84.1391L299.877 85.6663L297.99 83.3L295.498 84.4744L293.797 82.9344L293.017 83.7959L295.293 85.8554L297.654 84.7425L299.617 87.2041L301.996 85.7021L303.632 87.951L304.101 86.6208Z" fill="#F48C7F"/>
<path d="M219.459 35.2191L220.072 32.2118L217.313 31.4571L217.786 28.4679L215.238 27.4216L215.227 25.1266L214.065 25.1325L214.08 28.2019L216.495 29.1935L216.003 32.3032L218.716 33.0454L218.161 35.7708L219.459 35.2191Z" fill="#F48C7F"/>
<path d="M195.593 39.2192L196.761 41.4012L199.281 41.2601L200.418 43.7987L203.056 42.8206L204.468 45.6347L207.008 45.0337L208.809 47.5192L207.868 48.2008L206.521 46.3425L203.841 46.9767L202.484 44.2717L199.802 45.2659L198.548 42.4647L196.087 42.6025L195.004 40.5802L193.407 41.0087L193.105 39.8864L195.593 39.2192Z" fill="#F7CC7F"/>
<path d="M184.723 56.4469L182.863 56.6357L182.228 53.6765L179.475 53.617L178.638 51.4801L177.556 51.9037L178.675 54.7618L181.285 54.818L181.945 57.8965L184.744 57.6125L184.723 56.4469Z" fill="#50BFA5"/>
<path d="M181.376 88.5308L180.68 90.2659L177.765 89.4543L176.434 91.8658L174.153 91.6151L174.026 92.7698L177.077 93.1053L178.338 90.8198L181.371 91.6641L182.418 89.0532L181.376 88.5308Z" fill="#50BFA5"/>
<path d="M186.318 69.1229C188.382 71.1025 188.451 74.3805 186.471 76.4444C184.491 78.5084 181.213 78.5767 179.15 76.5971C177.086 74.6175 177.017 71.3395 178.997 69.2756C180.976 67.2116 184.254 67.1433 186.318 69.1229Z" fill="#FFF3D9"/>
<path d="M186.206 73.452L184.002 74.1293L183.311 76.3283C183.255 76.506 183.02 76.5424 182.913 76.3901L181.588 74.5038L179.283 74.526C179.097 74.5278 178.989 74.3153 179.101 74.1664L180.486 72.3234L179.752 70.1381C179.693 69.9615 179.862 69.7937 180.038 69.8541L182.219 70.6012L184.07 69.2285C184.22 69.1175 184.432 69.2264 184.429 69.4126L184.392 71.7174L186.27 73.0544C186.422 73.1622 186.384 73.3973 186.206 73.452Z" fill="#FED333"/>
<path d="M321.595 77.7413C323.659 79.7209 323.727 82.9989 321.747 85.0627C319.768 87.1267 316.49 87.1951 314.426 85.2155C312.362 83.2359 312.293 79.9579 314.273 77.894C316.253 75.83 319.531 75.7617 321.595 77.7413Z" fill="#FFF3D9"/>
<path d="M321.482 82.0704L319.278 82.7477L318.587 84.9467C318.531 85.1243 318.296 85.1608 318.189 85.0085L316.864 83.1222L314.559 83.1444C314.373 83.1462 314.265 82.9337 314.377 82.7848L315.762 80.9418L315.028 78.7565C314.969 78.5799 315.138 78.412 315.314 78.4724L317.495 79.2196L319.346 77.8469C319.496 77.736 319.708 77.8447 319.705 78.031L319.668 80.3358L321.546 81.6727C321.698 81.7805 321.66 82.0156 321.482 82.0704Z" fill="#FED333"/>
<path d="M298.225 71.2451L299.13 72.7489C299.228 72.9118 299.471 72.8916 299.54 72.7146L300.183 71.0814L301.893 70.6852C302.078 70.6422 302.134 70.4056 301.987 70.2847L300.633 69.1686L300.784 67.42C300.8 67.2306 300.593 67.1045 300.432 67.2067L298.952 68.1501L297.336 67.4656C297.161 67.3914 296.977 67.5502 297.024 67.7343L297.464 69.4334L296.314 70.7591C296.189 70.9027 296.283 71.1268 296.473 71.1384L298.225 71.2451Z" fill="#F47458"/>
<path d="M295.049 105.69C295.049 106.269 294.579 106.739 294 106.739C293.42 106.739 292.951 106.269 292.951 105.69C292.951 105.11 293.42 104.641 294 104.641C294.579 104.641 295.049 105.11 295.049 105.69Z" fill="#50BFA5"/>
<path d="M172.273 73.8901C172.273 74.4695 171.764 74.9392 171.136 74.9392C170.509 74.9392 170 74.4695 170 73.8901C170 73.3108 170.509 72.8411 171.136 72.8411C171.764 72.8411 172.273 73.3108 172.273 73.8901Z" fill="#50BFA5"/>
<path d="M231.698 23.7085L233.075 23.9804C233.075 23.9804 235.088 23.0402 235.242 22.587C235.395 22.1338 235.324 21.0893 235.619 21.0239C235.914 20.9585 236.503 20.9839 236.729 21.6767C236.892 22.1796 236.323 23.7628 236.46 23.9067C236.546 23.9968 237.333 24.1758 237.91 24.2971C238.29 24.377 238.592 24.6646 238.696 25.044L238.697 25.0451C238.767 25.3015 238.65 25.5742 238.418 25.6991L238.055 25.8933L238.226 26.2713C238.352 26.5525 238.231 26.887 237.954 27.0197L237.672 27.155L237.796 27.3826C237.956 27.6759 237.828 28.0468 237.523 28.1783L237.275 28.285L237.294 28.3525C237.374 28.6331 237.229 28.9307 236.96 29.0379L236.713 29.1366L233.045 28.4117C232.702 28.3436 232.376 28.205 232.088 28.004L230.841 27.5318C230.707 27.4811 230.63 27.3381 230.661 27.1954L231.358 23.9368C231.391 23.7795 231.543 23.6778 231.698 23.7085Z" fill="#96D9C9"/>
</svg>
