<svg width="49" height="49" viewBox="0 0 49 49" fill="none" xmlns="http://www.w3.org/2000/svg">
<path fill-rule="evenodd" clip-rule="evenodd" d="M6.63052 42.1691C6.63451 40.562 7.54768 38.9909 9.03506 37.2324L0.433745 31.7932C-0.108573 31.558 -0.0966097 31.227 0.218413 30.8362L2.04076 29.281C2.37173 29.0777 2.72265 28.9899 3.10147 29.0936L13.7165 30.8881L22.5611 21.3098L1.91316 7.3411C1.39078 7.03405 1.34691 6.68713 1.88524 6.28438L4.864 3.90775L31.7805 11.4723L39.7318 2.97065C42.3996 0.661817 44.9915 -0.370979 46.9814 0.119499C48.078 0.390658 48.4648 0.717644 48.8037 1.74645C49.4617 3.76419 48.4408 6.47578 46.0283 9.26712L37.5267 17.2185L45.0912 44.135L42.7146 47.1137C42.3118 47.6481 41.9649 47.6042 41.6579 47.0858L27.6852 26.4418L18.1069 35.2824L19.9014 45.8975C20.005 46.2723 19.9213 46.6232 19.7139 46.9582L18.1588 48.7806C17.772 49.0956 17.437 49.1075 17.2017 48.5652L11.7626 39.9639C9.99608 41.4553 8.42496 42.3684 6.80997 42.3684C6.66242 42.3645 6.63052 42.3126 6.63052 42.1691Z" fill="#C1E4FF"/>
</svg>
