<svg width="20" height="13" viewBox="0 0 20 13" fill="none" xmlns="http://www.w3.org/2000/svg">
<path d="M11.6534 3.13268C10.2934 2.97795 3.0294 3.01867 1.97074 3.05939L0 12.0254C2.98868 10.5107 5.60275 9.22405 8.55072 7.82336C12.256 6.04807 14.8294 5.59203 15.3587 5.59203C15.7007 5.55131 15.5134 5.40473 15.318 5.36401C13.2332 4.90797 8.20869 7.25331 8.20869 7.25331L7.10931 3.89003L14.3001 3.93075C13.8847 3.31998 13.0867 3.31998 11.6534 3.13268ZM3.0294 0.445312C5.22001 0.933925 11.5801 2.33461 12.9075 2.63592C14.4548 2.97795 14.6828 3.50728 14.6828 3.50728C14.6828 3.50728 16.3848 3.31998 16.7268 3.9226C17.1421 4.67995 16.0835 6.15393 16.0835 6.15393L1.1401 12.0173H16.6535L19.2188 0.445312H3.0294ZM14.3408 3.93075C14.3408 3.93075 14.2675 4.34607 12.7528 4.46008C12.5981 4.50079 12.5655 4.57409 12.7528 4.57409C12.9401 4.57409 15.5134 4.50079 15.7822 4.53337C16.0835 4.53337 16.0509 4.72067 16.0102 4.8754C15.9695 5.0627 15.7822 5.55945 15.7415 5.67346C15.6682 5.78747 15.7822 5.78747 15.8555 5.71418C15.9288 5.64089 16.3848 4.72881 16.3848 4.50079C16.4255 4.27278 16.3441 4.04476 15.9695 3.97146C15.6274 3.89003 14.3408 3.93075 14.3408 3.93075Z" fill="#15569C"/>
</svg>
