<svg width="792" height="168" viewBox="0 0 792 168" fill="none" xmlns="http://www.w3.org/2000/svg">
<rect width="792" height="168" fill="white"/>
<g filter="url(#filter0_d_3911_46000)">
<rect x="489" y="16" width="136" height="136" rx="68" fill="#E8EFFF" fill-opacity="0.2" shape-rendering="crispEdges"/>
<rect x="489" y="16" width="136" height="136" rx="68" fill="white" fill-opacity="0.15" shape-rendering="crispEdges"/>
<g filter="url(#filter1_d_3911_46000)">
<rect x="505" y="32" width="104" height="104" rx="52" fill="white" fill-opacity="0.5" shape-rendering="crispEdges"/>
<g filter="url(#filter2_d_3911_46000)">
<rect x="521" y="48" width="72" height="72" rx="36" fill="white"/>
<path d="M537.92 92.0321L551.2 69.2969C552.887 70.29 561.393 74.9976 562.767 75.8927L549.487 98.6293C548.035 100.548 536.08 94.9438 537.92 92.0307V92.0321Z" fill="#FBBC04"/>
<path d="M576.076 92.0315L562.796 69.2977C560.939 66.2081 556.94 65.0853 553.656 66.9102C550.372 68.735 549.372 72.666 551.229 75.8936L564.509 98.6301C566.365 101.718 570.364 102.841 573.648 101.016C576.789 99.1915 577.932 95.1212 576.076 92.0343V92.0315Z" fill="#4285F4"/>
<path d="M543.666 101.895C547.348 101.895 550.332 98.9847 550.332 95.3944C550.332 91.8042 547.348 88.8937 543.666 88.8937C539.985 88.8937 537 91.8042 537 95.3944C537 98.9847 539.985 101.895 543.666 101.895Z" fill="#34A853"/>
</g>
</g>
</g>
<path d="M481 84.1562L471 78.3827L471 89.9297L481 84.1562ZM351.492 85.1562C352.045 85.1562 352.492 84.7085 352.492 84.1562C352.492 83.604 352.045 83.1562 351.492 83.1562L351.492 84.1562L351.492 85.1562ZM356.417 83.1562C355.864 83.1562 355.417 83.604 355.417 84.1562C355.417 84.7085 355.864 85.1562 356.417 85.1562L356.417 84.1562L356.417 83.1562ZM357.402 85.1562C357.954 85.1562 358.402 84.7085 358.402 84.1562C358.402 83.604 357.954 83.1562 357.402 83.1562L357.402 84.1562L357.402 85.1562ZM362.326 83.1562C361.773 83.1562 361.326 83.604 361.326 84.1562C361.326 84.7085 361.773 85.1562 362.326 85.1562L362.326 84.1562L362.326 83.1562ZM363.311 85.1562C363.863 85.1562 364.311 84.7085 364.311 84.1562C364.311 83.604 363.863 83.1562 363.311 83.1562L363.311 84.1562L363.311 85.1562ZM368.235 83.1562C367.683 83.1562 367.235 83.604 367.235 84.1562C367.235 84.7085 367.683 85.1562 368.235 85.1562L368.235 84.1562L368.235 83.1562ZM369.22 85.1562C369.772 85.1562 370.22 84.7085 370.22 84.1562C370.22 83.604 369.772 83.1562 369.22 83.1562L369.22 84.1562L369.22 85.1562ZM374.144 83.1562C373.592 83.1562 373.144 83.604 373.144 84.1562C373.144 84.7085 373.592 85.1562 374.144 85.1562L374.144 84.1562L374.144 83.1562ZM375.129 85.1562C375.681 85.1562 376.129 84.7085 376.129 84.1562C376.129 83.604 375.681 83.1562 375.129 83.1562L375.129 84.1562L375.129 85.1562ZM380.053 83.1562C379.501 83.1562 379.053 83.604 379.053 84.1562C379.053 84.7085 379.501 85.1562 380.053 85.1562L380.053 84.1562L380.053 83.1562ZM381.038 85.1562C381.59 85.1562 382.038 84.7085 382.038 84.1562C382.038 83.604 381.59 83.1562 381.038 83.1562L381.038 84.1562L381.038 85.1562ZM385.962 83.1562C385.41 83.1562 384.962 83.604 384.962 84.1562C384.962 84.7085 385.41 85.1562 385.962 85.1562L385.962 84.1562L385.962 83.1562ZM386.947 85.1562C387.499 85.1562 387.947 84.7085 387.947 84.1562C387.947 83.604 387.499 83.1562 386.947 83.1562L386.947 84.1562L386.947 85.1562ZM391.871 83.1562C391.319 83.1562 390.871 83.604 390.871 84.1562C390.871 84.7085 391.319 85.1562 391.871 85.1562L391.871 84.1562L391.871 83.1562ZM392.856 85.1562C393.408 85.1562 393.856 84.7085 393.856 84.1562C393.856 83.604 393.408 83.1562 392.856 83.1562L392.856 84.1562L392.856 85.1562ZM397.78 83.1562C397.228 83.1562 396.78 83.604 396.78 84.1562C396.78 84.7085 397.228 85.1562 397.78 85.1562L397.78 84.1562L397.78 83.1562ZM398.765 85.1562C399.317 85.1562 399.765 84.7085 399.765 84.1562C399.765 83.604 399.317 83.1562 398.765 83.1562L398.765 84.1562L398.765 85.1562ZM403.689 83.1562C403.137 83.1562 402.689 83.604 402.689 84.1562C402.689 84.7085 403.137 85.1562 403.689 85.1562L403.689 84.1562L403.689 83.1562ZM404.674 85.1562C405.227 85.1562 405.674 84.7085 405.674 84.1562C405.674 83.604 405.227 83.1562 404.674 83.1562L404.674 84.1562L404.674 85.1562ZM409.598 83.1562C409.046 83.1562 408.598 83.604 408.598 84.1562C408.598 84.7085 409.046 85.1562 409.598 85.1562L409.598 84.1562L409.598 83.1562ZM410.583 85.1562C411.136 85.1562 411.583 84.7085 411.583 84.1562C411.583 83.604 411.136 83.1562 410.583 83.1562L410.583 84.1562L410.583 85.1562ZM415.508 83.1562C414.955 83.1562 414.508 83.604 414.508 84.1562C414.508 84.7085 414.955 85.1562 415.508 85.1562L415.508 84.1562L415.508 83.1562ZM416.492 85.1562C417.045 85.1562 417.492 84.7085 417.492 84.1562C417.492 83.604 417.045 83.1562 416.492 83.1562L416.492 84.1562L416.492 85.1562ZM421.417 83.1562C420.864 83.1562 420.417 83.604 420.417 84.1562C420.417 84.7085 420.864 85.1562 421.417 85.1562L421.417 84.1562L421.417 83.1562ZM422.402 85.1562C422.954 85.1562 423.402 84.7085 423.402 84.1562C423.402 83.604 422.954 83.1562 422.402 83.1562L422.402 84.1562L422.402 85.1562ZM427.326 83.1562C426.773 83.1562 426.326 83.604 426.326 84.1562C426.326 84.7085 426.773 85.1562 427.326 85.1562L427.326 84.1562L427.326 83.1562ZM428.311 85.1562C428.863 85.1562 429.311 84.7085 429.311 84.1562C429.311 83.604 428.863 83.1562 428.311 83.1562L428.311 84.1562L428.311 85.1562ZM433.235 83.1562C432.683 83.1562 432.235 83.604 432.235 84.1562C432.235 84.7085 432.683 85.1562 433.235 85.1562L433.235 84.1562L433.235 83.1562ZM434.22 85.1562C434.772 85.1562 435.22 84.7085 435.22 84.1562C435.22 83.604 434.772 83.1562 434.22 83.1562L434.22 84.1562L434.22 85.1562ZM439.144 83.1562C438.592 83.1562 438.144 83.6039 438.144 84.1562C438.144 84.7085 438.592 85.1562 439.144 85.1562L439.144 84.1562L439.144 83.1562ZM440.129 85.1562C440.681 85.1562 441.129 84.7085 441.129 84.1562C441.129 83.6039 440.681 83.1562 440.129 83.1562L440.129 84.1562L440.129 85.1562ZM445.053 83.1562C444.501 83.1562 444.053 83.6039 444.053 84.1562C444.053 84.7085 444.501 85.1562 445.053 85.1562L445.053 84.1562L445.053 83.1562ZM446.038 85.1562C446.59 85.1562 447.038 84.7085 447.038 84.1562C447.038 83.6039 446.59 83.1562 446.038 83.1562L446.038 84.1562L446.038 85.1562ZM450.962 83.1562C450.41 83.1562 449.962 83.6039 449.962 84.1562C449.962 84.7085 450.41 85.1562 450.962 85.1562L450.962 84.1562L450.962 83.1562ZM451.947 85.1562C452.499 85.1562 452.947 84.7085 452.947 84.1562C452.947 83.6039 452.499 83.1562 451.947 83.1562L451.947 84.1562L451.947 85.1562ZM456.871 83.1562C456.319 83.1562 455.871 83.6039 455.871 84.1562C455.871 84.7085 456.319 85.1562 456.871 85.1562L456.871 84.1562L456.871 83.1562ZM457.856 85.1562C458.408 85.1562 458.856 84.7085 458.856 84.1562C458.856 83.6039 458.408 83.1562 457.856 83.1562L457.856 84.1562L457.856 85.1562ZM462.78 83.1562C462.228 83.1562 461.78 83.6039 461.78 84.1562C461.78 84.7085 462.228 85.1562 462.78 85.1562L462.78 84.1562L462.78 83.1562ZM463.765 85.1562C464.317 85.1562 464.765 84.7085 464.765 84.1562C464.765 83.6039 464.317 83.1562 463.765 83.1562L463.765 84.1562L463.765 85.1562ZM468.689 83.1562C468.137 83.1562 467.689 83.6039 467.689 84.1562C467.689 84.7085 468.137 85.1562 468.689 85.1562L468.689 84.1562L468.689 83.1562ZM469.674 85.1562C470.227 85.1562 470.674 84.7085 470.674 84.1562C470.674 83.6039 470.227 83.1562 469.674 83.1562L469.674 84.1562L469.674 85.1562ZM474.598 83.1562C474.046 83.1562 473.598 83.6039 473.598 84.1562C473.598 84.7085 474.046 85.1562 474.598 85.1562L474.598 84.1562L474.598 83.1562ZM475.583 85.1562C476.136 85.1562 476.583 84.7085 476.583 84.1562C476.583 83.6039 476.136 83.1562 475.583 83.1562L475.583 84.1562L475.583 85.1562ZM480.508 83.1562C479.955 83.1562 479.508 83.6039 479.508 84.1562C479.508 84.7085 479.955 85.1562 480.508 85.1562L480.508 84.1562L480.508 83.1562ZM351 84.1562L351 85.1562L351.492 85.1562L351.492 84.1562L351.492 83.1562L351 83.1562L351 84.1562ZM356.417 84.1562L356.417 85.1562L357.402 85.1562L357.402 84.1562L357.402 83.1562L356.417 83.1562L356.417 84.1562ZM362.326 84.1562L362.326 85.1562L363.311 85.1562L363.311 84.1562L363.311 83.1562L362.326 83.1562L362.326 84.1562ZM368.235 84.1562L368.235 85.1562L369.22 85.1562L369.22 84.1562L369.22 83.1562L368.235 83.1562L368.235 84.1562ZM374.144 84.1562L374.144 85.1562L375.129 85.1562L375.129 84.1562L375.129 83.1562L374.144 83.1562L374.144 84.1562ZM380.053 84.1562L380.053 85.1562L381.038 85.1562L381.038 84.1562L381.038 83.1562L380.053 83.1562L380.053 84.1562ZM385.962 84.1562L385.962 85.1562L386.947 85.1562L386.947 84.1562L386.947 83.1562L385.962 83.1562L385.962 84.1562ZM391.871 84.1562L391.871 85.1562L392.856 85.1562L392.856 84.1562L392.856 83.1562L391.871 83.1562L391.871 84.1562ZM397.78 84.1562L397.78 85.1562L398.765 85.1562L398.765 84.1562L398.765 83.1562L397.78 83.1562L397.78 84.1562ZM403.689 84.1562L403.689 85.1562L404.674 85.1562L404.674 84.1562L404.674 83.1562L403.689 83.1562L403.689 84.1562ZM409.598 84.1562L409.598 85.1562L410.583 85.1562L410.583 84.1562L410.583 83.1562L409.598 83.1562L409.598 84.1562ZM415.508 84.1562L415.508 85.1562L416.492 85.1562L416.492 84.1562L416.492 83.1562L415.508 83.1562L415.508 84.1562ZM421.417 84.1562L421.417 85.1562L422.402 85.1562L422.402 84.1562L422.402 83.1562L421.417 83.1562L421.417 84.1562ZM427.326 84.1562L427.326 85.1562L428.311 85.1562L428.311 84.1562L428.311 83.1562L427.326 83.1562L427.326 84.1562ZM433.235 84.1562L433.235 85.1562L434.22 85.1562L434.22 84.1562L434.22 83.1562L433.235 83.1562L433.235 84.1562ZM439.144 84.1562L439.144 85.1562L440.129 85.1562L440.129 84.1562L440.129 83.1562L439.144 83.1562L439.144 84.1562ZM445.053 84.1562L445.053 85.1562L446.038 85.1562L446.038 84.1562L446.038 83.1562L445.053 83.1562L445.053 84.1562ZM450.962 84.1562L450.962 85.1562L451.947 85.1562L451.947 84.1562L451.947 83.1562L450.962 83.1562L450.962 84.1562ZM456.871 84.1562L456.871 85.1562L457.856 85.1562L457.856 84.1562L457.856 83.1562L456.871 83.1562L456.871 84.1562ZM462.78 84.1562L462.78 85.1562L463.765 85.1562L463.765 84.1562L463.765 83.1562L462.78 83.1562L462.78 84.1562ZM468.689 84.1562L468.689 85.1562L469.674 85.1562L469.674 84.1562L469.674 83.1562L468.689 83.1562L468.689 84.1562ZM474.598 84.1562L474.598 85.1562L475.583 85.1562L475.583 84.1562L475.583 83.1562L474.598 83.1562L474.598 84.1562Z" fill="#E8EFFF"/>
<path d="M481 60.1562L474.53 50.5924L469.482 60.9779L481 60.1562ZM352.335 60.5991C352.827 60.3493 353.024 59.7475 352.774 59.2549C352.525 58.7623 351.923 58.5655 351.43 58.8153L351.882 59.7072L352.335 60.5991ZM355.81 56.6351C355.314 56.8773 355.108 57.4761 355.35 57.9724C355.593 58.4687 356.191 58.6747 356.688 58.4325L356.249 57.5338L355.81 56.6351ZM358.45 57.5797C358.948 57.3409 359.158 56.7435 358.919 56.2456C358.68 55.7476 358.083 55.5376 357.585 55.7765L358.017 56.6781L358.45 57.5797ZM362.021 53.6974C361.518 53.9271 361.297 54.5204 361.527 55.0227C361.757 55.525 362.35 55.7459 362.852 55.5163L362.437 54.6068L362.021 53.6974ZM364.612 54.7201C365.116 54.4944 365.342 53.9029 365.116 53.3988C364.891 52.8947 364.299 52.669 363.795 52.8946L364.204 53.8073L364.612 54.7201ZM368.29 50.9407C367.781 51.1551 367.542 51.7415 367.757 52.2505C367.971 52.7594 368.558 52.9982 369.067 52.7838L368.678 51.8622L368.29 50.9407ZM370.872 52.0334C371.383 51.8239 371.627 51.2399 371.418 50.7288C371.208 50.2178 370.624 49.9734 370.113 50.1828L370.492 51.1081L370.872 52.0334ZM374.678 48.3803C374.162 48.5762 373.902 49.1536 374.098 49.67C374.294 50.1864 374.871 50.4462 375.387 50.2503L375.033 49.3153L374.678 48.3803ZM377.197 49.5756C377.716 49.3856 377.982 48.8112 377.792 48.2926C377.602 47.774 377.028 47.5076 376.509 47.6976L376.853 48.6366L377.197 49.5756ZM381.143 46.0808C380.619 46.2544 380.334 46.8202 380.508 47.3445C380.681 47.8688 381.247 48.153 381.772 47.9794L381.457 47.0301L381.143 46.0808ZM383.628 47.3786C384.155 47.2121 384.447 46.6503 384.281 46.1237C384.114 45.5971 383.552 45.3051 383.026 45.4715L383.327 46.425L383.628 47.3786ZM387.739 44.0752C387.206 44.2222 386.894 44.7729 387.041 45.3053C387.188 45.8376 387.739 46.1501 388.271 46.0031L388.005 45.0392L387.739 44.0752ZM390.137 45.5036C390.672 45.365 390.993 44.8193 390.854 44.2847C390.716 43.7501 390.17 43.429 389.635 43.5676L389.886 44.5356L390.137 45.5036ZM394.429 42.4307C393.889 42.5466 393.545 43.0783 393.661 43.6183C393.777 44.1583 394.309 44.5021 394.849 44.3862L394.639 43.4085L394.429 42.4307ZM396.739 43.9979C397.281 43.8916 397.635 43.3661 397.528 42.8242C397.422 42.2822 396.897 41.929 396.355 42.0353L396.547 43.0166L396.739 43.9979ZM401.211 41.1999C400.665 41.2805 400.287 41.7888 400.368 42.3352C400.449 42.8816 400.957 43.2591 401.503 43.1785L401.357 42.1892L401.211 41.1999ZM403.42 42.9147C403.968 42.8448 404.356 42.344 404.286 41.7962C404.216 41.2483 403.715 40.8609 403.167 40.9308L403.294 41.9227L403.42 42.9147ZM408.069 40.4305C407.519 40.4726 407.106 40.9531 407.148 41.5037C407.19 42.0544 407.671 42.4668 408.222 42.4247L408.145 41.4276L408.069 40.4305ZM410.151 42.2976C410.703 42.267 411.125 41.7952 411.094 41.2438C411.064 40.6923 410.592 40.2701 410.04 40.3007L410.096 41.2991L410.151 42.2976ZM414.97 40.1567C414.418 40.1583 413.971 40.6073 413.973 41.1596C413.975 41.7119 414.424 42.1583 414.976 42.1566L414.973 41.1567L414.97 40.1567ZM416.907 42.1712C417.459 42.1812 417.914 41.7416 417.924 41.1894C417.934 40.6372 417.495 40.1815 416.943 40.1716L416.925 41.1714L416.907 42.1712ZM421.869 40.3888C421.318 40.3502 420.84 40.7656 420.802 41.3165C420.763 41.8674 421.179 42.3453 421.73 42.3839L421.799 41.3863L421.869 40.3888ZM423.656 42.5384C424.206 42.5881 424.693 42.1826 424.742 41.6325C424.792 41.0825 424.386 40.5963 423.836 40.5465L423.746 41.5425L423.656 42.5384ZM428.731 41.1112C428.184 41.0346 427.678 41.4159 427.601 41.9628C427.525 42.5098 427.906 43.0153 428.453 43.0919L428.592 42.1015L428.731 41.1112ZM430.371 43.3789C430.916 43.4658 431.429 43.0941 431.516 42.5487C431.603 42.0033 431.231 41.4907 430.686 41.4038L430.528 42.3914L430.371 43.3789ZM435.526 42.2871C434.985 42.1761 434.457 42.5246 434.346 43.0656C434.235 43.6066 434.583 44.1352 435.124 44.2463L435.325 43.2667L435.526 42.2871ZM437.016 44.6512C437.555 44.7712 438.089 44.4316 438.209 43.8925C438.329 43.3534 437.99 42.8191 437.451 42.699L437.233 43.6751L437.016 44.6512ZM442.237 43.8656C441.703 43.7245 441.155 44.043 441.014 44.5769C440.873 45.1109 441.192 45.6581 441.726 45.7993L441.981 44.8324L442.237 43.8656ZM443.587 46.3057C444.119 46.4545 444.67 46.144 444.819 45.6121C444.968 45.0803 444.657 44.5285 444.126 44.3797L443.856 45.3427L443.587 46.3057ZM448.834 45.7846C448.308 45.618 447.746 45.9098 447.579 46.4364C447.413 46.9629 447.704 47.5248 448.231 47.6914L448.533 46.738L448.834 45.7846ZM450.088 48.2918C450.612 48.4649 451.178 48.1801 451.351 47.6557C451.524 47.1312 451.239 46.5657 450.715 46.3926L450.401 47.3422L450.088 48.2918ZM455.348 47.9969C454.829 47.809 454.256 48.0777 454.068 48.597C453.88 49.1164 454.148 49.6897 454.668 49.8776L455.008 48.9372L455.348 47.9969ZM456.484 50.5456C457.002 50.7388 457.578 50.4761 457.771 49.9587C457.964 49.4413 457.701 48.8653 457.184 48.672L456.834 49.6088L456.484 50.5456ZM461.758 50.4438C461.246 50.2384 460.664 50.4875 460.458 51.0002C460.253 51.5128 460.502 52.0949 461.015 52.3004L461.387 51.3721L461.758 50.4438ZM462.825 53.0347C463.336 53.2446 463.92 53.0005 464.13 52.4896C464.339 51.9788 464.095 51.3945 463.584 51.1847L463.205 52.1097L462.825 53.0347ZM468.098 53.0911C467.591 52.8714 467.002 53.104 466.782 53.6107C466.563 54.1174 466.795 54.7062 467.302 54.926L467.7 54.0085L468.098 53.0911ZM469.073 55.7017C469.579 55.925 470.169 55.6965 470.392 55.1914C470.616 54.6863 470.387 54.0958 469.882 53.8725L469.478 54.7871L469.073 55.7017ZM474.344 55.8888C473.843 55.6575 473.249 55.8765 473.017 56.378C472.786 56.8794 473.005 57.4735 473.506 57.7049L473.925 56.7969L474.344 55.8888ZM475.283 58.5307C475.783 58.765 476.378 58.5495 476.613 58.0493C476.847 57.5492 476.631 56.9539 476.131 56.7196L475.707 57.6252L475.283 58.5307ZM480.546 58.8236C480.049 58.5828 479.451 58.7905 479.21 59.2876C478.969 59.7846 479.177 60.3827 479.674 60.6235L480.11 59.7236L480.546 58.8236ZM351 60.1562L351.455 61.0468C351.749 60.8967 352.042 60.7474 352.335 60.5991L351.882 59.7072L351.43 58.8153C351.136 58.9645 350.841 59.1146 350.545 59.2657L351 60.1562ZM356.249 57.5338L356.688 58.4325C357.278 58.1443 357.865 57.8601 358.45 57.5797L358.017 56.6781L357.585 55.7765C356.996 56.0588 356.405 56.345 355.81 56.6351L356.249 57.5338ZM362.437 54.6068L362.852 55.5163C363.442 55.2467 364.028 54.9813 364.612 54.7201L364.204 53.8073L363.795 52.8946C363.206 53.1581 362.615 53.4257 362.021 53.6974L362.437 54.6068ZM368.678 51.8622L369.067 52.7838C369.671 52.529 370.273 52.2789 370.872 52.0334L370.492 51.1081L370.113 50.1828C369.508 50.4308 368.901 50.6834 368.29 50.9407L368.678 51.8622ZM375.033 49.3153L375.387 50.2503C375.994 50.0204 376.597 49.7955 377.197 49.5756L376.853 48.6366L376.509 47.6976C375.902 47.9202 375.291 48.1478 374.678 48.3803L375.033 49.3153ZM381.457 47.0301L381.772 47.9794C382.393 47.7736 383.012 47.5733 383.628 47.3786L383.327 46.425L383.026 45.4715C382.401 45.6691 381.773 45.8722 381.143 46.0808L381.457 47.0301ZM388.005 45.0392L388.271 46.0031C388.895 45.8307 389.517 45.6643 390.137 45.5036L389.886 44.5356L389.635 43.5676C389.005 43.7309 388.373 43.9001 387.739 44.0752L388.005 45.0392ZM394.639 43.4085L394.849 44.3862C395.481 44.2505 396.111 44.1211 396.739 43.9979L396.547 43.0166L396.355 42.0353C395.714 42.1608 395.073 42.2926 394.429 42.4307L394.639 43.4085ZM401.357 42.1892L401.503 43.1785C402.144 43.084 402.782 42.996 403.42 42.9147L403.294 41.9227L403.167 40.9308C402.516 41.0138 401.864 41.1035 401.211 41.1999L401.357 42.1892ZM408.145 41.4276L408.222 42.4247C408.865 42.3756 409.508 42.3332 410.151 42.2976L410.096 41.2991L410.04 40.3007C409.384 40.3371 408.727 40.3803 408.069 40.4305L408.145 41.4276ZM414.973 41.1567L414.976 42.1566C415.619 42.1548 416.263 42.1596 416.907 42.1712L416.925 41.1714L416.943 40.1716C416.285 40.1597 415.628 40.1547 414.97 40.1567L414.973 41.1567ZM421.799 41.3863L421.73 42.3839C422.371 42.4288 423.013 42.4803 423.656 42.5384L423.746 41.5425L423.836 40.5465C423.18 40.4872 422.524 40.4346 421.869 40.3888L421.799 41.3863ZM428.592 42.1015L428.453 43.0919C429.091 43.1812 429.73 43.2769 430.371 43.3789L430.528 42.3914L430.686 41.4038C430.033 41.2998 429.381 41.2022 428.731 41.1112L428.592 42.1015ZM435.325 43.2667L435.124 44.2463C435.753 44.3753 436.383 44.5102 437.016 44.6512L437.233 43.6751L437.451 42.699C436.807 42.5557 436.166 42.4184 435.526 42.2871L435.325 43.2667ZM441.981 44.8324L441.726 45.7993C442.344 45.9626 442.964 46.1314 443.587 46.3057L443.856 45.3427L444.126 44.3797C443.494 44.2028 442.864 44.0315 442.237 43.8656L441.981 44.8324ZM448.533 46.738L448.231 47.6914C448.847 47.8864 449.466 48.0865 450.088 48.2918L450.401 47.3422L450.715 46.3926C450.085 46.1848 449.458 45.9821 448.834 45.7846L448.533 46.738ZM455.008 48.9372L454.668 49.8776C455.27 50.0957 455.876 50.3183 456.484 50.5456L456.834 49.6088L457.184 48.672C456.569 48.4424 455.957 48.2174 455.348 47.9969L455.008 48.9372ZM461.387 51.3721L461.015 52.3004C461.615 52.5409 462.218 52.7857 462.825 53.0347L463.205 52.1097L463.584 51.1847C462.973 50.9335 462.364 50.6866 461.758 50.4438L461.387 51.3721ZM467.7 54.0085L467.302 54.926C467.889 55.1808 468.48 55.4394 469.073 55.7017L469.478 54.7871L469.882 53.8725C469.284 53.6083 468.69 53.3478 468.098 53.0911L467.7 54.0085ZM473.925 56.7969L473.506 57.7049C474.096 57.9766 474.688 58.2519 475.283 58.5307L475.707 57.6252L476.131 56.7196C475.533 56.4392 474.937 56.1622 474.344 55.8888L473.925 56.7969Z" fill="#E8EFFF"/>
<path d="M481 108.156L474.53 117.72L469.482 107.335L481 108.156ZM352.335 107.713C352.827 107.963 353.024 108.565 352.774 109.058C352.525 109.55 351.923 109.747 351.43 109.497L351.882 108.605L352.335 107.713ZM355.81 111.677C355.314 111.435 355.108 110.836 355.35 110.34C355.593 109.844 356.191 109.638 356.688 109.88L356.249 110.779L355.81 111.677ZM358.45 110.733C358.948 110.972 359.158 111.569 358.919 112.067C358.68 112.565 358.083 112.775 357.585 112.536L358.017 111.634L358.45 110.733ZM362.021 114.615C361.518 114.385 361.297 113.792 361.527 113.29C361.757 112.788 362.35 112.567 362.852 112.796L362.437 113.706L362.021 114.615ZM364.612 113.592C365.116 113.818 365.342 114.41 365.116 114.914C364.891 115.418 364.299 115.644 363.795 115.418L364.204 114.505L364.612 113.592ZM368.29 117.372C367.781 117.157 367.542 116.571 367.757 116.062C367.971 115.553 368.558 115.314 369.067 115.529L368.678 116.45L368.29 117.372ZM370.872 116.279C371.383 116.489 371.627 117.073 371.418 117.584C371.208 118.095 370.624 118.339 370.113 118.13L370.492 117.204L370.872 116.279ZM374.678 119.932C374.162 119.736 373.902 119.159 374.098 118.643C374.294 118.126 374.871 117.866 375.387 118.062L375.033 118.997L374.678 119.932ZM377.197 118.737C377.716 118.927 377.982 119.501 377.792 120.02C377.602 120.538 377.028 120.805 376.509 120.615L376.853 119.676L377.197 118.737ZM381.143 122.232C380.619 122.058 380.334 121.492 380.508 120.968C380.681 120.444 381.247 120.159 381.772 120.333L381.457 121.282L381.143 122.232ZM383.628 120.934C384.155 121.1 384.447 121.662 384.281 122.189C384.114 122.715 383.552 123.007 383.026 122.841L383.327 121.887L383.628 120.934ZM387.739 124.237C387.206 124.09 386.894 123.54 387.041 123.007C387.188 122.475 387.739 122.162 388.271 122.309L388.005 123.273L387.739 124.237ZM390.137 122.809C390.672 122.947 390.993 123.493 390.854 124.028C390.716 124.562 390.17 124.883 389.635 124.745L389.886 123.777L390.137 122.809ZM394.429 125.882C393.889 125.766 393.545 125.234 393.661 124.694C393.777 124.154 394.309 123.81 394.849 123.926L394.639 124.904L394.429 125.882ZM396.739 124.315C397.281 124.421 397.635 124.946 397.528 125.488C397.422 126.03 396.897 126.384 396.355 126.277L396.547 125.296L396.739 124.315ZM401.211 127.113C400.665 127.032 400.287 126.524 400.368 125.977C400.449 125.431 400.957 125.053 401.503 125.134L401.357 126.123L401.211 127.113ZM403.42 125.398C403.968 125.468 404.356 125.968 404.286 126.516C404.216 127.064 403.715 127.452 403.167 127.382L403.294 126.39L403.42 125.398ZM408.069 127.882C407.519 127.84 407.106 127.359 407.148 126.809C407.19 126.258 407.671 125.846 408.222 125.888L408.145 126.885L408.069 127.882ZM410.151 126.015C410.703 126.045 411.125 126.517 411.094 127.069C411.064 127.62 410.592 128.042 410.04 128.012L410.096 127.013L410.151 126.015ZM414.97 128.156C414.418 128.154 413.971 127.705 413.973 127.153C413.975 126.601 414.424 126.154 414.976 126.156L414.973 127.156L414.97 128.156ZM416.907 126.141C417.459 126.131 417.914 126.571 417.924 127.123C417.934 127.675 417.495 128.131 416.943 128.141L416.925 127.141L416.907 126.141ZM421.869 127.924C421.318 127.962 420.84 127.547 420.802 126.996C420.763 126.445 421.179 125.967 421.73 125.929L421.799 126.926L421.869 127.924ZM423.656 125.774C424.206 125.724 424.693 126.13 424.742 126.68C424.792 127.23 424.386 127.716 423.836 127.766L423.746 126.77L423.656 125.774ZM428.731 127.201C428.184 127.278 427.678 126.897 427.601 126.35C427.525 125.803 427.906 125.297 428.453 125.221L428.592 126.211L428.731 127.201ZM430.371 124.934C430.916 124.847 431.429 125.218 431.516 125.764C431.603 126.309 431.231 126.822 430.686 126.909L430.528 125.921L430.371 124.934ZM435.526 126.025C434.985 126.136 434.457 125.788 434.346 125.247C434.235 124.706 434.583 124.177 435.124 124.066L435.325 125.046L435.526 126.025ZM437.016 123.661C437.555 123.541 438.089 123.881 438.209 124.42C438.329 124.959 437.99 125.493 437.451 125.613L437.233 124.637L437.016 123.661ZM442.237 124.447C441.703 124.588 441.155 124.27 441.014 123.736C440.873 123.202 441.192 122.654 441.726 122.513L441.981 123.48L442.237 124.447ZM443.587 122.007C444.119 121.858 444.67 122.169 444.819 122.7C444.968 123.232 444.657 123.784 444.126 123.933L443.856 122.97L443.587 122.007ZM448.834 122.528C448.308 122.694 447.746 122.403 447.579 121.876C447.413 121.35 447.704 120.788 448.231 120.621L448.533 121.574L448.834 122.528ZM450.088 120.021C450.612 119.848 451.178 120.132 451.351 120.657C451.524 121.181 451.239 121.747 450.715 121.92L450.401 120.97L450.088 120.021ZM455.348 120.316C454.829 120.503 454.256 120.235 454.068 119.715C453.88 119.196 454.148 118.623 454.668 118.435L455.008 119.375L455.348 120.316ZM456.484 117.767C457.002 117.574 457.578 117.836 457.771 118.354C457.964 118.871 457.701 119.447 457.184 119.64L456.834 118.704L456.484 117.767ZM461.758 117.869C461.246 118.074 460.664 117.825 460.458 117.312C460.253 116.8 460.502 116.218 461.015 116.012L461.387 116.94L461.758 117.869ZM462.825 115.278C463.336 115.068 463.92 115.312 464.13 115.823C464.339 116.334 464.095 116.918 463.584 117.128L463.205 116.203L462.825 115.278ZM468.098 115.221C467.591 115.441 467.002 115.209 466.782 114.702C466.563 114.195 466.795 113.606 467.302 113.387L467.7 114.304L468.098 115.221ZM469.073 112.611C469.579 112.387 470.169 112.616 470.392 113.121C470.616 113.626 470.387 114.217 469.882 114.44L469.478 113.525L469.073 112.611ZM474.344 112.424C473.843 112.655 473.249 112.436 473.017 111.935C472.786 111.433 473.005 110.839 473.506 110.608L473.925 111.516L474.344 112.424ZM475.283 109.782C475.783 109.548 476.378 109.763 476.613 110.263C476.847 110.763 476.631 111.359 476.131 111.593L475.707 110.687L475.283 109.782ZM480.546 109.489C480.049 109.73 479.451 109.522 479.21 109.025C478.969 108.528 479.177 107.93 479.674 107.689L480.11 108.589L480.546 109.489ZM351 108.156L351.455 107.266C351.749 107.416 352.042 107.565 352.335 107.713L351.882 108.605L351.43 109.497C351.136 109.348 350.841 109.198 350.545 109.047L351 108.156ZM356.249 110.779L356.688 109.88C357.278 110.168 357.865 110.452 358.45 110.733L358.017 111.634L357.585 112.536C356.996 112.254 356.405 111.967 355.81 111.677L356.249 110.779ZM362.437 113.706L362.852 112.796C363.442 113.066 364.028 113.331 364.612 113.592L364.204 114.505L363.795 115.418C363.206 115.154 362.615 114.887 362.021 114.615L362.437 113.706ZM368.678 116.45L369.067 115.529C369.671 115.784 370.273 116.034 370.872 116.279L370.492 117.204L370.113 118.13C369.508 117.882 368.901 117.629 368.29 117.372L368.678 116.45ZM375.033 118.997L375.387 118.062C375.994 118.292 376.597 118.517 377.197 118.737L376.853 119.676L376.509 120.615C375.902 120.392 375.291 120.165 374.678 119.932L375.033 118.997ZM381.457 121.282L381.772 120.333C382.393 120.539 383.012 120.739 383.628 120.934L383.327 121.887L383.026 122.841C382.401 122.643 381.773 122.44 381.143 122.232L381.457 121.282ZM388.005 123.273L388.271 122.309C388.895 122.482 389.517 122.648 390.137 122.809L389.886 123.777L389.635 124.745C389.005 124.582 388.373 124.412 387.739 124.237L388.005 123.273ZM394.639 124.904L394.849 123.926C395.481 124.062 396.111 124.191 396.739 124.315L396.547 125.296L396.355 126.277C395.714 126.152 395.073 126.02 394.429 125.882L394.639 124.904ZM401.357 126.123L401.503 125.134C402.144 125.229 402.782 125.316 403.42 125.398L403.294 126.39L403.167 127.382C402.516 127.299 401.864 127.209 401.211 127.113L401.357 126.123ZM408.145 126.885L408.222 125.888C408.865 125.937 409.508 125.979 410.151 126.015L410.096 127.013L410.04 128.012C409.384 127.975 408.727 127.932 408.069 127.882L408.145 126.885ZM414.973 127.156L414.976 126.156C415.619 126.158 416.263 126.153 416.907 126.141L416.925 127.141L416.943 128.141C416.285 128.153 415.628 128.158 414.97 128.156L414.973 127.156ZM421.799 126.926L421.73 125.929C422.371 125.884 423.013 125.832 423.656 125.774L423.746 126.77L423.836 127.766C423.18 127.825 422.524 127.878 421.869 127.924L421.799 126.926ZM428.592 126.211L428.453 125.221C429.091 125.131 429.73 125.036 430.371 124.934L430.528 125.921L430.686 126.909C430.033 127.013 429.381 127.11 428.731 127.201L428.592 126.211ZM435.325 125.046L435.124 124.066C435.753 123.937 436.383 123.802 437.016 123.661L437.233 124.637L437.451 125.613C436.807 125.757 436.166 125.894 435.526 126.025L435.325 125.046ZM441.981 123.48L441.726 122.513C442.344 122.35 442.964 122.181 443.587 122.007L443.856 122.97L444.126 123.933C443.494 124.11 442.864 124.281 442.237 124.447L441.981 123.48ZM448.533 121.574L448.231 120.621C448.847 120.426 449.466 120.226 450.088 120.021L450.401 120.97L450.715 121.92C450.085 122.128 449.458 122.33 448.834 122.528L448.533 121.574ZM455.008 119.375L454.668 118.435C455.27 118.217 455.876 117.994 456.484 117.767L456.834 118.704L457.184 119.64C456.569 119.87 455.957 120.095 455.348 120.316L455.008 119.375ZM461.387 116.94L461.015 116.012C461.615 115.772 462.218 115.527 462.825 115.278L463.205 116.203L463.584 117.128C462.973 117.379 462.364 117.626 461.758 117.869L461.387 116.94ZM467.7 114.304L467.302 113.387C467.889 113.132 468.48 112.873 469.073 112.611L469.478 113.525L469.882 114.44C469.284 114.704 468.69 114.965 468.098 115.221L467.7 114.304ZM473.925 111.516L473.506 110.608C474.096 110.336 474.688 110.061 475.283 109.782L475.707 110.687L476.131 111.593C475.533 111.873 474.937 112.15 474.344 112.424L473.925 111.516Z" fill="#E8EFFF"/>
<g filter="url(#filter3_d_3911_46000)">
<rect x="166" y="58" width="179" height="50" rx="4" fill="white" shape-rendering="crispEdges"/>
<rect x="166.5" y="58.5" width="178" height="49" rx="3.5" stroke="#EDEDED" shape-rendering="crispEdges"/>
<rect x="178" y="70" width="26" height="26" rx="4" fill="#FEEBB4"/>
<path d="M200 79.3602C200 78.6055 199.388 77.9935 198.633 77.9935C197.877 77.9935 197.265 78.6055 197.265 79.3602C197.265 79.7294 197.412 80.0639 197.649 80.3095C196.719 82.2354 194.942 82.9077 193.564 82.2991C192.337 81.7563 191.884 80.2051 191.731 79.0032C192.232 78.7401 192.573 78.216 192.573 77.6112C192.573 76.7428 191.869 76.0391 191 76.0391C190.132 76.0391 189.427 76.7428 189.427 77.6112C189.427 78.216 189.768 78.74 190.269 79.0032C190.116 80.2051 189.663 81.7564 188.436 82.2991C187.058 82.9078 185.281 82.2354 184.351 80.3095C184.588 80.0639 184.735 79.7294 184.735 79.3602C184.735 78.6055 184.123 77.9935 183.368 77.9935C182.612 77.9935 182 78.6055 182 79.3602C182 80.0557 182.52 80.6286 183.191 80.7154L184.767 86.4838H197.233L198.809 80.7154C199.481 80.6286 200 80.0557 200 79.3602Z" fill="#FBBC04"/>
<path d="M197.997 88.9437C197.997 89.5056 197.541 89.961 196.979 89.961H185.021C184.459 89.961 184.004 89.5056 184.004 88.9437V88.8591C184.004 88.2966 184.459 87.8412 185.021 87.8412H196.979C197.541 87.8412 197.997 88.2966 197.997 88.8591V88.9437Z" fill="#FBBC04"/>
<path d="M213.392 88V76.72H217.856C218.667 76.72 219.349 76.8533 219.904 77.12C220.469 77.376 220.896 77.76 221.184 78.272C221.472 78.7733 221.616 79.3867 221.616 80.112C221.616 80.816 221.472 81.424 221.184 81.936C220.896 82.448 220.469 82.8373 219.904 83.104C219.349 83.3707 218.667 83.504 217.856 83.504H214.704V88H213.392ZM214.704 82.4H217.696C218.56 82.4 219.211 82.208 219.648 81.824C220.096 81.4293 220.32 80.8587 220.32 80.112C220.32 79.3547 220.096 78.784 219.648 78.4C219.211 78.0053 218.56 77.808 217.696 77.808H214.704V82.4ZM222.865 88V80.224H224.129V82.064H223.969C224.15 81.4347 224.465 80.96 224.913 80.64C225.361 80.3093 225.953 80.1173 226.689 80.064L227.153 80.016L227.249 81.136L226.433 81.232C225.707 81.296 225.147 81.5307 224.753 81.936C224.369 82.3307 224.177 82.8747 224.177 83.568V88H222.865ZM231.689 88.144C230.868 88.144 230.159 87.984 229.561 87.664C228.975 87.3333 228.516 86.8693 228.185 86.272C227.865 85.6747 227.705 84.96 227.705 84.128C227.705 83.3173 227.865 82.6133 228.185 82.016C228.505 81.408 228.943 80.9333 229.497 80.592C230.063 80.2507 230.713 80.08 231.449 80.08C232.153 80.08 232.756 80.2347 233.257 80.544C233.759 80.8533 234.143 81.2907 234.409 81.856C234.687 82.4213 234.825 83.0987 234.825 83.888V84.384H228.697V83.536H233.961L233.705 83.744C233.705 82.8907 233.513 82.2293 233.129 81.76C232.756 81.28 232.207 81.04 231.481 81.04C230.937 81.04 230.473 81.168 230.089 81.424C229.716 81.6693 229.433 82.016 229.241 82.464C229.049 82.9013 228.953 83.4133 228.953 84V84.096C228.953 84.7467 229.055 85.296 229.257 85.744C229.471 86.192 229.785 86.5333 230.201 86.768C230.617 86.992 231.113 87.104 231.689 87.104C232.148 87.104 232.591 87.0347 233.017 86.896C233.455 86.7467 233.865 86.5067 234.249 86.176L234.697 87.088C234.345 87.408 233.897 87.664 233.353 87.856C232.809 88.048 232.255 88.144 231.689 88.144ZM236.413 88V80.224H237.677V81.952H237.501C237.629 81.5573 237.816 81.2213 238.061 80.944C238.317 80.656 238.616 80.4427 238.957 80.304C239.309 80.1547 239.693 80.08 240.109 80.08C240.77 80.08 241.304 80.24 241.709 80.56C242.125 80.8693 242.402 81.3547 242.541 82.016H242.301C242.493 81.4187 242.834 80.9493 243.325 80.608C243.826 80.256 244.408 80.08 245.069 80.08C245.656 80.08 246.136 80.192 246.509 80.416C246.893 80.64 247.181 80.9813 247.373 81.44C247.565 81.888 247.661 82.4587 247.661 83.152V88H246.365V83.216C246.365 82.5013 246.242 81.9787 245.997 81.648C245.752 81.3067 245.336 81.136 244.749 81.136C244.333 81.136 243.965 81.2373 243.645 81.44C243.336 81.6427 243.096 81.9307 242.925 82.304C242.765 82.6667 242.685 83.0987 242.685 83.6V88H241.389V83.216C241.389 82.5013 241.261 81.9787 241.005 81.648C240.76 81.3067 240.349 81.136 239.773 81.136C239.346 81.136 238.978 81.2373 238.669 81.44C238.36 81.6427 238.12 81.9307 237.949 82.304C237.789 82.6667 237.709 83.0987 237.709 83.6V88H236.413ZM249.604 78.288V76.832H251.204V78.288H249.604ZM249.764 88V80.224H251.06V88H249.764ZM255.915 88.144C255.286 88.144 254.763 88.032 254.347 87.808C253.942 87.5733 253.632 87.2267 253.419 86.768C253.216 86.3093 253.115 85.7387 253.115 85.056V80.224H254.411V85.04C254.411 85.4987 254.47 85.8827 254.587 86.192C254.715 86.4907 254.912 86.7147 255.179 86.864C255.446 87.0027 255.776 87.072 256.171 87.072C256.619 87.072 257.008 86.9707 257.339 86.768C257.67 86.5653 257.931 86.2827 258.123 85.92C258.315 85.5573 258.411 85.1307 258.411 84.64V80.224H259.707V88H258.443V86.208H258.651C258.438 86.8373 258.086 87.3173 257.595 87.648C257.115 87.9787 256.555 88.144 255.915 88.144ZM261.844 88V80.224H263.108V81.952H262.932C263.06 81.5573 263.246 81.2213 263.492 80.944C263.748 80.656 264.046 80.4427 264.388 80.304C264.74 80.1547 265.124 80.08 265.54 80.08C266.201 80.08 266.734 80.24 267.14 80.56C267.556 80.8693 267.833 81.3547 267.972 82.016H267.732C267.924 81.4187 268.265 80.9493 268.756 80.608C269.257 80.256 269.838 80.08 270.5 80.08C271.086 80.08 271.566 80.192 271.94 80.416C272.324 80.64 272.612 80.9813 272.804 81.44C272.996 81.888 273.092 82.4587 273.092 83.152V88H271.796V83.216C271.796 82.5013 271.673 81.9787 271.428 81.648C271.182 81.3067 270.766 81.136 270.18 81.136C269.764 81.136 269.396 81.2373 269.076 81.44C268.766 81.6427 268.526 81.9307 268.356 82.304C268.196 82.6667 268.116 83.0987 268.116 83.6V88H266.82V83.216C266.82 82.5013 266.692 81.9787 266.436 81.648C266.19 81.3067 265.78 81.136 265.204 81.136C264.777 81.136 264.409 81.2373 264.1 81.44C263.79 81.6427 263.55 81.9307 263.38 82.304C263.22 82.6667 263.14 83.0987 263.14 83.6V88H261.844ZM282.808 88.144C282.221 88.144 281.667 88.0907 281.144 87.984C280.632 87.8773 280.157 87.728 279.72 87.536C279.293 87.3333 278.904 87.088 278.552 86.8L279.016 85.744C279.379 86.0107 279.747 86.24 280.12 86.432C280.504 86.6133 280.915 86.752 281.352 86.848C281.8 86.9333 282.285 86.976 282.808 86.976C283.768 86.976 284.477 86.8 284.936 86.448C285.405 86.0853 285.64 85.6107 285.64 85.024C285.64 84.7147 285.565 84.448 285.416 84.224C285.277 84 285.043 83.808 284.712 83.648C284.392 83.488 283.971 83.3547 283.448 83.248L281.784 82.912C280.781 82.6987 280.029 82.352 279.528 81.872C279.037 81.3813 278.792 80.7307 278.792 79.92C278.792 79.248 278.963 78.6613 279.304 78.16C279.656 77.6587 280.141 77.2693 280.76 76.992C281.389 76.7147 282.104 76.576 282.904 76.576C283.416 76.576 283.901 76.6293 284.36 76.736C284.819 76.8427 285.24 77.0027 285.624 77.216C286.019 77.4187 286.365 77.6693 286.664 77.968L286.2 78.992C285.72 78.5547 285.213 78.24 284.68 78.048C284.147 77.8453 283.549 77.744 282.888 77.744C282.323 77.744 281.832 77.8293 281.416 78C281.011 78.1707 280.691 78.4213 280.456 78.752C280.232 79.072 280.12 79.4453 280.12 79.872C280.12 80.384 280.275 80.7893 280.584 81.088C280.904 81.3867 281.421 81.6053 282.136 81.744L283.8 82.096C284.877 82.32 285.672 82.6613 286.184 83.12C286.707 83.568 286.968 84.1813 286.968 84.96C286.968 85.5787 286.797 86.1333 286.456 86.624C286.125 87.104 285.645 87.4773 285.016 87.744C284.397 88.0107 283.661 88.144 282.808 88.144ZM291.74 88.144C290.983 88.144 290.327 87.9787 289.772 87.648C289.217 87.3173 288.785 86.8533 288.476 86.256C288.177 85.648 288.028 84.9333 288.028 84.112C288.028 83.2907 288.177 82.5813 288.476 81.984C288.785 81.376 289.217 80.9067 289.772 80.576C290.327 80.2453 290.983 80.08 291.74 80.08C292.497 80.08 293.153 80.2453 293.708 80.576C294.263 80.9067 294.689 81.376 294.988 81.984C295.297 82.5813 295.452 83.2907 295.452 84.112C295.452 84.9333 295.297 85.648 294.988 86.256C294.689 86.8533 294.263 87.3173 293.708 87.648C293.153 87.9787 292.497 88.144 291.74 88.144ZM291.74 87.104C292.476 87.104 293.057 86.848 293.484 86.336C293.921 85.8133 294.14 85.0667 294.14 84.096C294.14 83.136 293.921 82.4 293.484 81.888C293.057 81.376 292.476 81.12 291.74 81.12C291.015 81.12 290.433 81.376 289.996 81.888C289.559 82.4 289.34 83.136 289.34 84.096C289.34 85.0667 289.559 85.8133 289.996 86.336C290.433 86.848 291.015 87.104 291.74 87.104ZM299.831 88.144C299.201 88.144 298.679 88.032 298.263 87.808C297.857 87.5733 297.548 87.2267 297.335 86.768C297.132 86.3093 297.031 85.7387 297.031 85.056V80.224H298.327V85.04C298.327 85.4987 298.385 85.8827 298.503 86.192C298.631 86.4907 298.828 86.7147 299.095 86.864C299.361 87.0027 299.692 87.072 300.087 87.072C300.535 87.072 300.924 86.9707 301.255 86.768C301.585 86.5653 301.847 86.2827 302.039 85.92C302.231 85.5573 302.327 85.1307 302.327 84.64V80.224H303.623V88H302.359V86.208H302.567C302.353 86.8373 302.001 87.3173 301.511 87.648C301.031 87.9787 300.471 88.144 299.831 88.144ZM305.727 88V80.224H306.991V82.064H306.831C307.013 81.4347 307.327 80.96 307.775 80.64C308.223 80.3093 308.815 80.1173 309.551 80.064L310.015 80.016L310.111 81.136L309.295 81.232C308.57 81.296 308.01 81.5307 307.615 81.936C307.231 82.3307 307.039 82.8747 307.039 83.568V88H305.727ZM314.344 88.144C313.565 88.144 312.893 87.9733 312.328 87.632C311.763 87.2907 311.325 86.816 311.016 86.208C310.717 85.5893 310.568 84.8747 310.568 84.064C310.568 83.2427 310.717 82.5333 311.016 81.936C311.325 81.3387 311.763 80.88 312.328 80.56C312.893 80.24 313.565 80.08 314.344 80.08C314.824 80.08 315.299 80.1653 315.768 80.336C316.237 80.5067 316.627 80.7467 316.936 81.056L316.488 82C316.179 81.7013 315.837 81.4827 315.464 81.344C315.101 81.2053 314.755 81.136 314.424 81.136C313.613 81.136 312.989 81.392 312.552 81.904C312.115 82.4053 311.896 83.1307 311.896 84.08C311.896 85.008 312.115 85.744 312.552 86.288C312.989 86.8213 313.613 87.088 314.424 87.088C314.755 87.088 315.101 87.0187 315.464 86.88C315.837 86.7413 316.179 86.5173 316.488 86.208L316.936 87.152C316.627 87.4613 316.232 87.7067 315.752 87.888C315.283 88.0587 314.813 88.144 314.344 88.144ZM321.482 88.144C320.661 88.144 319.951 87.984 319.354 87.664C318.767 87.3333 318.309 86.8693 317.978 86.272C317.658 85.6747 317.498 84.96 317.498 84.128C317.498 83.3173 317.658 82.6133 317.978 82.016C318.298 81.408 318.735 80.9333 319.29 80.592C319.855 80.2507 320.506 80.08 321.242 80.08C321.946 80.08 322.549 80.2347 323.05 80.544C323.551 80.8533 323.935 81.2907 324.202 81.856C324.479 82.4213 324.618 83.0987 324.618 83.888V84.384H318.49V83.536H323.754L323.498 83.744C323.498 82.8907 323.306 82.2293 322.922 81.76C322.549 81.28 321.999 81.04 321.274 81.04C320.73 81.04 320.266 81.168 319.882 81.424C319.509 81.6693 319.226 82.016 319.034 82.464C318.842 82.9013 318.746 83.4133 318.746 84V84.096C318.746 84.7467 318.847 85.296 319.05 85.744C319.263 86.192 319.578 86.5333 319.994 86.768C320.41 86.992 320.906 87.104 321.482 87.104C321.941 87.104 322.383 87.0347 322.81 86.896C323.247 86.7467 323.658 86.5067 324.042 86.176L324.49 87.088C324.138 87.408 323.69 87.664 323.146 87.856C322.602 88.048 322.047 88.144 321.482 88.144ZM328.797 88.144C328.392 88.144 327.997 88.1013 327.613 88.016C327.24 87.9413 326.888 87.8347 326.557 87.696C326.237 87.5467 325.96 87.3707 325.725 87.168L326.141 86.256C326.397 86.4587 326.675 86.6293 326.973 86.768C327.272 86.896 327.576 86.992 327.885 87.056C328.195 87.12 328.509 87.152 328.829 87.152C329.437 87.152 329.896 87.04 330.205 86.816C330.515 86.592 330.669 86.288 330.669 85.904C330.669 85.6053 330.568 85.3707 330.365 85.2C330.163 85.0187 329.843 84.88 329.405 84.784L327.949 84.464C327.277 84.3253 326.776 84.0853 326.445 83.744C326.125 83.4027 325.965 82.96 325.965 82.416C325.965 81.936 326.088 81.5253 326.333 81.184C326.589 80.832 326.947 80.56 327.405 80.368C327.864 80.176 328.397 80.08 329.005 80.08C329.368 80.08 329.715 80.1173 330.045 80.192C330.376 80.2667 330.685 80.3787 330.973 80.528C331.272 80.6667 331.528 80.8427 331.741 81.056L331.309 81.968C331.107 81.776 330.877 81.616 330.621 81.488C330.365 81.3493 330.099 81.248 329.821 81.184C329.555 81.1093 329.283 81.072 329.005 81.072C328.408 81.072 327.955 81.1893 327.645 81.424C327.336 81.6587 327.181 81.968 327.181 82.352C327.181 82.6507 327.277 82.896 327.469 83.088C327.661 83.28 327.96 83.4187 328.365 83.504L329.821 83.808C330.515 83.9573 331.032 84.1973 331.373 84.528C331.725 84.848 331.901 85.2853 331.901 85.84C331.901 86.3093 331.773 86.72 331.517 87.072C331.261 87.4133 330.899 87.68 330.429 87.872C329.971 88.0533 329.427 88.144 328.797 88.144Z" fill="#3B3B3B"/>
</g>
<defs>
<filter id="filter0_d_3911_46000" x="479" y="8" width="156" height="156" filterUnits="userSpaceOnUse" color-interpolation-filters="sRGB">
<feFlood flood-opacity="0" result="BackgroundImageFix"/>
<feColorMatrix in="SourceAlpha" type="matrix" values="0 0 0 0 0 0 0 0 0 0 0 0 0 0 0 0 0 0 127 0" result="hardAlpha"/>
<feOffset dy="2"/>
<feGaussianBlur stdDeviation="5"/>
<feComposite in2="hardAlpha" operator="out"/>
<feColorMatrix type="matrix" values="0 0 0 0 0 0 0 0 0 0 0 0 0 0 0 0 0 0 0.08 0"/>
<feBlend mode="normal" in2="BackgroundImageFix" result="effect1_dropShadow_3911_46000"/>
<feBlend mode="normal" in="SourceGraphic" in2="effect1_dropShadow_3911_46000" result="shape"/>
</filter>
<filter id="filter1_d_3911_46000" x="495" y="24" width="124" height="124" filterUnits="userSpaceOnUse" color-interpolation-filters="sRGB">
<feFlood flood-opacity="0" result="BackgroundImageFix"/>
<feColorMatrix in="SourceAlpha" type="matrix" values="0 0 0 0 0 0 0 0 0 0 0 0 0 0 0 0 0 0 127 0" result="hardAlpha"/>
<feOffset dy="2"/>
<feGaussianBlur stdDeviation="5"/>
<feComposite in2="hardAlpha" operator="out"/>
<feColorMatrix type="matrix" values="0 0 0 0 0 0 0 0 0 0 0 0 0 0 0 0 0 0 0.08 0"/>
<feBlend mode="normal" in2="BackgroundImageFix" result="effect1_dropShadow_3911_46000"/>
<feBlend mode="normal" in="SourceGraphic" in2="effect1_dropShadow_3911_46000" result="shape"/>
</filter>
<filter id="filter2_d_3911_46000" x="511" y="40" width="92" height="92" filterUnits="userSpaceOnUse" color-interpolation-filters="sRGB">
<feFlood flood-opacity="0" result="BackgroundImageFix"/>
<feColorMatrix in="SourceAlpha" type="matrix" values="0 0 0 0 0 0 0 0 0 0 0 0 0 0 0 0 0 0 127 0" result="hardAlpha"/>
<feOffset dy="2"/>
<feGaussianBlur stdDeviation="5"/>
<feComposite in2="hardAlpha" operator="out"/>
<feColorMatrix type="matrix" values="0 0 0 0 0 0 0 0 0 0 0 0 0 0 0 0 0 0 0.1 0"/>
<feBlend mode="normal" in2="BackgroundImageFix" result="effect1_dropShadow_3911_46000"/>
<feBlend mode="normal" in="SourceGraphic" in2="effect1_dropShadow_3911_46000" result="shape"/>
</filter>
<filter id="filter3_d_3911_46000" x="156" y="50" width="199" height="70" filterUnits="userSpaceOnUse" color-interpolation-filters="sRGB">
<feFlood flood-opacity="0" result="BackgroundImageFix"/>
<feColorMatrix in="SourceAlpha" type="matrix" values="0 0 0 0 0 0 0 0 0 0 0 0 0 0 0 0 0 0 127 0" result="hardAlpha"/>
<feOffset dy="2"/>
<feGaussianBlur stdDeviation="5"/>
<feComposite in2="hardAlpha" operator="out"/>
<feColorMatrix type="matrix" values="0 0 0 0 0 0 0 0 0 0 0 0 0 0 0 0 0 0 0.08 0"/>
<feBlend mode="normal" in2="BackgroundImageFix" result="effect1_dropShadow_3911_46000"/>
<feBlend mode="normal" in="SourceGraphic" in2="effect1_dropShadow_3911_46000" result="shape"/>
</filter>
</defs>
</svg>
