<svg width="750" height="458" viewBox="0 0 750 458" fill="none" xmlns="http://www.w3.org/2000/svg">
<rect width="750" height="458" fill="white"/>
<path d="M430.713 333H320.287C320.287 333 324.866 403 303 403C309.996 403 441.004 403 448 403C426.134 403 430.713 333 430.713 333Z" fill="#C0D9FF"/>
<path opacity="0.55" d="M319 375L429.649 352.594C429.446 341.513 430 333 430 333H320.246C320.246 333 321.711 355.528 319 375Z" fill="#3898FC"/>
<path d="M577.557 354H172.443C162.257 354 154 345.744 154 335.56V82.4399C154 72.2556 162.257 64 172.443 64H577.557C587.743 64 596 72.2556 596 82.4399V335.56C596 345.743 587.743 354 577.557 354Z" fill="#C0D9FF"/>
<path d="M568.238 343H180.761C172.608 343 166 336.4 166 328.259V88.7413C166 80.6002 172.609 74 180.761 74H568.239C576.392 74 583 80.6002 583 88.7413V328.259C583 336.4 576.391 343 568.238 343Z" fill="white" stroke="#3898FC" stroke-width="2" stroke-miterlimit="10"/>
<path d="M166 108H583" stroke="#3898FC" stroke-width="2" stroke-miterlimit="10"/>
<path d="M533.862 97H246.138C242.196 97 239 93.8661 239 90C239 86.1339 242.196 83 246.138 83H533.862C537.804 83 541 86.1339 541 90C541 93.8661 537.804 97 533.862 97Z" fill="#E0EBFC"/>
<path d="M187 91C187 93.2095 185.209 95 183 95C180.791 95 179 93.2095 179 91C179 88.7905 180.791 87 183 87C185.209 87 187 88.7905 187 91Z" stroke="#3898FC" stroke-width="1.5" stroke-miterlimit="10"/>
<path d="M205 91C205 93.2095 203.209 95 201 95C198.791 95 197 93.2095 197 91C197 88.7905 198.792 87 201 87C203.209 86.9989 205 88.7905 205 91Z" stroke="#3898FC" stroke-width="1.5" stroke-miterlimit="10"/>
<path d="M222 91C222 93.2095 220.209 95 218 95C215.791 95 214 93.2095 214 91C214 88.7905 215.791 87 218 87C220.209 87 222 88.7905 222 91Z" stroke="#3898FC" stroke-width="1.5" stroke-miterlimit="10"/>
<path d="M467 401H283V411H467V401Z" fill="#C0D9FF"/>
<path d="M572.5 85C573.328 85 574 84.3284 574 83.5C574 82.6716 573.328 82 572.5 82C571.672 82 571 82.6716 571 83.5C571 84.3284 571.672 85 572.5 85Z" fill="#3898FC"/>
<path d="M572.5 92C573.328 92 574 91.3284 574 90.5C574 89.6716 573.328 89 572.5 89C571.672 89 571 89.6716 571 90.5C571 91.3284 571.672 92 572.5 92Z" fill="#3898FC"/>
<path d="M572.5 99C573.328 99 574 98.3284 574 97.5C574 96.6716 573.328 96 572.5 96C571.672 96 571 96.6716 571 97.5C571 98.3284 571.672 99 572.5 99Z" fill="#3898FC"/>
<path d="M442 401H348" stroke="#3898FC" stroke-width="1.5" stroke-miterlimit="10"/>
<path d="M338 401H307" stroke="#3898FC" stroke-width="1.5" stroke-miterlimit="10"/>
<rect x="252" y="137" width="266" height="55" rx="7" fill="#D6E6FF"/>
<rect x="287" y="205" width="185" height="38" rx="5" fill="#D6E6FF"/>
<rect x="287" y="253" width="185" height="38" rx="5" fill="#D6E6FF"/>
<rect x="287" y="302" width="185" height="38" rx="5" fill="#D6E6FF"/>
<path d="M248.681 134.75H501.319C505.148 134.75 508.25 137.865 508.25 141.728V178.272C508.25 182.135 505.148 185.25 501.319 185.25H248.681C244.852 185.25 241.75 182.135 241.75 178.272V141.728C241.75 137.865 244.852 134.75 248.681 134.75Z" fill="white" stroke="#3898FC" stroke-width="1.5"/>
<path d="M265 176C273.837 176 281 168.837 281 160C281 151.163 273.837 144 265 144C256.163 144 249 151.163 249 160C249 168.837 256.163 176 265 176Z" fill="#E0EBFC"/>
<path d="M433.29 153H293.71C292.22 153 291 151.875 291 150.5C291 149.125 292.22 148 293.71 148H433.29C434.78 148 436 149.125 436 150.5C436 151.875 434.78 153 433.29 153Z" fill="#E0EBFC"/>
<path d="M433.29 163H293.71C292.22 163 291 161.875 291 160.5C291 159.125 292.22 158 293.71 158H433.29C434.78 158 436 159.125 436 160.5C436 161.875 434.78 163 433.29 163Z" fill="#E0EBFC"/>
<path d="M433.29 174H293.71C292.22 174 291 172.875 291 171.5C291 170.125 292.22 169 293.71 169H433.29C434.78 169 436 170.125 436 171.5C436 172.875 434.78 174 433.29 174Z" fill="#E0EBFC"/>
<path d="M511 146.083C511 143.337 508.754 141.111 505.987 141.111C503.217 141.111 500.971 143.337 500.971 146.083C500.971 147.426 501.509 148.643 502.381 149.537C498.972 156.543 492.454 158.99 487.402 156.775C482.903 154.801 481.243 149.157 480.681 144.784C482.516 143.827 483.767 141.92 483.767 139.72C483.766 136.56 481.186 134 478 134C474.816 134 472.234 136.56 472.234 139.72C472.234 141.92 473.484 143.827 475.319 144.784C474.757 149.157 473.098 154.801 468.598 156.775C463.546 158.99 457.029 156.543 453.619 149.537C454.491 148.643 455.029 147.426 455.029 146.083C455.029 143.337 452.783 141.111 450.015 141.111C447.246 141.111 445 143.337 445 146.083C445 148.613 446.905 150.698 449.367 151.013L455.145 172H500.855L506.633 151.013C509.097 150.698 511 148.613 511 146.083Z" fill="#FFBE55"/>
<path d="M503 178.161C503 180.281 501.34 182 499.29 182H455.708C453.66 182 452 180.281 452 178.161V177.841C452 175.719 453.66 174 455.708 174H499.29C501.34 174 503 175.719 503 177.841V178.161Z" fill="#FFBE55"/>
<path d="M280.501 208.412C280.462 205.789 282.57 203.639 285.217 203.507L285.475 203.5H463.526C466.286 203.5 468.5 205.7 468.5 208.42V234.58C468.5 237.3 466.286 239.5 463.526 239.5H285.475C282.715 239.5 280.501 237.3 280.501 234.58V208.412Z" fill="white" stroke="#3898FC"/>
<path d="M297.5 233C303.851 233 309 227.851 309 221.5C309 215.149 303.851 210 297.5 210C291.149 210 286 215.149 286 221.5C286 227.851 291.149 233 297.5 233Z" fill="#E0EBFC"/>
<path d="M419.053 217H317.947C316.86 217 316 216.07 316 215C316 213.884 316.906 213 317.947 213H419.053C420.14 213 421 213.93 421 215C421 216.116 420.14 217 419.053 217Z" fill="#E8F0FD"/>
<path d="M419.053 225H317.947C316.86 225 316 224.07 316 223C316 221.884 316.906 221 317.947 221H419.053C420.14 221 421 221.93 421 223C421 224.07 420.14 225 419.053 225Z" fill="#E8F0FD"/>
<path d="M419.053 232H317.947C316.86 232 316 231.07 316 230C316 228.884 316.906 228 317.947 228H419.053C420.14 228 421 228.93 421 230C421 231.07 420.14 232 419.053 232Z" fill="#E8F0FD"/>
<path d="M280.501 256.412C280.462 253.789 282.57 251.639 285.217 251.507L285.475 251.5H463.526C466.286 251.5 468.5 253.7 468.5 256.42V282.58C468.5 285.3 466.286 287.5 463.526 287.5H285.475C282.715 287.5 280.501 285.3 280.501 282.58V256.412Z" fill="white" stroke="#3898FC"/>
<path d="M297.5 281C303.851 281 309 275.851 309 269.5C309 263.149 303.851 258 297.5 258C291.149 258 286 263.149 286 269.5C286 275.851 291.149 281 297.5 281Z" fill="#E0EBFC"/>
<path d="M419.053 265H317.947C316.86 265 316 264.07 316 263C316 261.884 316.906 261 317.947 261H419.053C420.14 261 421 261.93 421 263C421 264.116 420.14 265 419.053 265Z" fill="#E8F0FD"/>
<path d="M419.053 273H317.947C316.86 273 316 272.07 316 271C316 269.884 316.906 269 317.947 269H419.053C420.14 269 421 269.93 421 271C421 272.07 420.14 273 419.053 273Z" fill="#E8F0FD"/>
<path d="M419.053 280H317.947C316.86 280 316 279.07 316 278C316 276.884 316.906 276 317.947 276H419.053C420.14 276 421 276.93 421 278C421 279.07 420.14 280 419.053 280Z" fill="#E8F0FD"/>
<path d="M280.501 305.412C280.462 302.789 282.57 300.639 285.217 300.507L285.475 300.5H463.526C466.286 300.5 468.5 302.7 468.5 305.42V331.58C468.5 334.3 466.286 336.5 463.526 336.5H285.475C282.715 336.5 280.501 334.3 280.501 331.58V305.412Z" fill="white" stroke="#3898FC"/>
<path d="M297.5 330C303.851 330 309 324.851 309 318.5C309 312.149 303.851 307 297.5 307C291.149 307 286 312.149 286 318.5C286 324.851 291.149 330 297.5 330Z" fill="#E0EBFC"/>
<path d="M419.053 314H317.947C316.86 314 316 313.07 316 312C316 310.884 316.906 310 317.947 310H419.053C420.14 310 421 310.93 421 312C421 313.116 420.14 314 419.053 314Z" fill="#E8F0FD"/>
<path d="M419.053 322H317.947C316.86 322 316 321.07 316 320C316 318.884 316.906 318 317.947 318H419.053C420.14 318 421 318.93 421 320C421 321.07 420.14 322 419.053 322Z" fill="#E8F0FD"/>
<path d="M419.053 329H317.947C316.86 329 316 328.07 316 327C316 325.884 316.906 325 317.947 325H419.053C420.14 325 421 325.93 421 327C421 328.07 420.14 329 419.053 329Z" fill="#E8F0FD"/>
<mask id="mask0_3647_4703" style="mask-type:luminance" maskUnits="userSpaceOnUse" x="439" y="122" width="76" height="77">
<path d="M513.942 168.269C518.12 147.702 505.079 127.558 484.816 123.275C464.553 118.992 444.741 132.193 440.563 152.76C436.386 173.327 449.426 193.472 469.689 197.755C489.953 202.037 509.765 188.836 513.942 168.269Z" fill="white"/>
</mask>
<g mask="url(#mask0_3647_4703)">
<path d="M472.998 108.324C472.998 108.324 446.462 212.084 446.348 212.792L468.757 206.782L495.406 102.314L472.998 108.324Z" fill="url(#paint0_linear_3647_4703)"/>
<path d="M506.879 99.3556C506.879 99.3556 480.462 203.084 480.348 203.792L487.422 201.895L513.952 97.4587L506.879 99.3556Z" fill="url(#paint1_linear_3647_4703)"/>
</g>
<path d="M502.689 192.612L496 197L514 224.659L520.689 220.27L502.689 192.612Z" fill="#3898FC"/>
<path d="M454.14 124.602C434.958 137.134 429.567 162.846 442.101 182.027C454.634 201.21 480.345 206.6 499.526 194.066C518.709 181.534 524.099 155.823 511.565 136.641C499.033 117.459 473.322 112.069 454.14 124.602ZM496.296 189.124C479.844 199.873 457.793 195.25 447.044 178.797C436.296 162.345 440.918 140.294 457.37 129.545C473.822 118.796 495.873 123.419 506.621 139.871C517.37 156.324 512.748 178.375 496.296 189.124Z" fill="#19202D"/>
<path d="M535.471 250.274C532.674 252.121 528.912 251.306 527.07 248.456L501.993 209.703L512.121 203.017L537.198 241.77C539.041 244.621 538.267 248.429 535.471 250.274Z" fill="#19202D"/>
<path d="M446 210.5C447.157 210.5 448.121 211.473 448.121 212.709C448.121 213.567 447.654 214.302 446.979 214.669L446.681 214.832L446.723 215.17C446.854 216.233 447.115 217.474 447.62 218.582C448.125 219.689 448.894 220.708 450.065 221.243H450.066C452.682 222.438 455.905 221.062 457.535 217.571L457.679 217.265L457.447 217.018C457.136 216.685 456.941 216.23 456.941 215.724C456.941 214.684 457.754 213.868 458.722 213.868C459.688 213.868 460.5 214.684 460.5 215.724C460.5 216.68 459.812 217.448 458.949 217.563L458.617 217.607L458.531 217.932L456.004 227.5H435.996L433.469 217.932L433.383 217.607L433.051 217.563L432.892 217.534C432.106 217.351 431.5 216.62 431.5 215.724C431.5 214.684 432.312 213.868 433.279 213.868C434.246 213.868 435.059 214.683 435.059 215.724C435.059 216.23 434.864 216.685 434.553 217.018L434.321 217.265L434.465 217.571C436.095 221.062 439.318 222.438 441.935 221.243C443.106 220.708 443.875 219.689 444.38 218.582C444.885 217.474 445.146 216.233 445.277 215.17L445.319 214.832L445.021 214.669C444.346 214.302 443.879 213.567 443.879 212.709C443.879 211.473 444.844 210.5 446 210.5Z" stroke="#3898FC"/>
<path d="M435.672 228.5H455.327C455.913 228.5 456.5 229.069 456.5 229.921V230.08C456.5 230.931 455.913 231.5 455.327 231.5H435.672C435.087 231.5 434.5 230.931 434.5 230.08V229.921C434.5 229.069 435.087 228.5 435.672 228.5Z" stroke="#3898FC"/>
<path d="M446 258.5C447.157 258.5 448.121 259.473 448.121 260.709C448.121 261.567 447.654 262.302 446.979 262.669L446.681 262.832L446.723 263.17C446.854 264.233 447.115 265.474 447.62 266.582C448.125 267.689 448.894 268.708 450.065 269.243H450.066C452.682 270.438 455.905 269.062 457.535 265.571L457.679 265.265L457.447 265.018C457.136 264.685 456.941 264.23 456.941 263.724C456.941 262.684 457.754 261.868 458.722 261.868C459.688 261.868 460.5 262.684 460.5 263.724C460.5 264.68 459.812 265.448 458.949 265.563L458.617 265.607L458.531 265.932L456.004 275.5H435.996L433.469 265.932L433.383 265.607L433.051 265.563L432.892 265.534C432.106 265.351 431.5 264.62 431.5 263.724C431.5 262.684 432.312 261.868 433.279 261.868C434.246 261.868 435.059 262.683 435.059 263.724C435.059 264.23 434.864 264.685 434.553 265.018L434.321 265.265L434.465 265.571C436.095 269.062 439.318 270.438 441.935 269.243C443.106 268.708 443.875 267.689 444.38 266.582C444.885 265.474 445.146 264.233 445.277 263.17L445.319 262.832L445.021 262.669C444.346 262.302 443.879 261.567 443.879 260.709C443.879 259.473 444.844 258.5 446 258.5Z" stroke="#3898FC"/>
<path d="M435.672 276.5H455.327C455.913 276.5 456.5 277.069 456.5 277.921V278.08C456.5 278.931 455.913 279.5 455.327 279.5H435.672C435.087 279.5 434.5 278.931 434.5 278.08V277.921C434.5 277.069 435.087 276.5 435.672 276.5Z" stroke="#3898FC"/>
<path d="M446 307.5C447.157 307.5 448.121 308.473 448.121 309.709C448.121 310.567 447.654 311.302 446.979 311.669L446.681 311.832L446.723 312.17C446.854 313.233 447.115 314.474 447.62 315.582C448.125 316.689 448.894 317.708 450.065 318.243H450.066C452.682 319.438 455.905 318.062 457.535 314.571L457.679 314.265L457.447 314.018C457.136 313.685 456.941 313.23 456.941 312.724C456.941 311.684 457.754 310.868 458.722 310.868C459.688 310.868 460.5 311.684 460.5 312.724C460.5 313.68 459.812 314.448 458.949 314.563L458.617 314.607L458.531 314.932L456.004 324.5H435.996L433.469 314.932L433.383 314.607L433.051 314.563L432.892 314.534C432.106 314.351 431.5 313.62 431.5 312.724C431.5 311.684 432.312 310.868 433.279 310.868C434.246 310.868 435.059 311.683 435.059 312.724C435.059 313.23 434.864 313.685 434.553 314.018L434.321 314.265L434.465 314.571C436.095 318.062 439.318 319.438 441.935 318.243C443.106 317.708 443.875 316.689 444.38 315.582C444.885 314.474 445.146 313.233 445.277 312.17L445.319 311.832L445.021 311.669C444.346 311.302 443.879 310.567 443.879 309.709C443.879 308.473 444.844 307.5 446 307.5Z" stroke="#3898FC"/>
<path d="M435.672 325.5H455.327C455.913 325.5 456.5 326.069 456.5 326.921V327.08C456.5 327.931 455.913 328.5 455.327 328.5H435.672C435.087 328.5 434.5 327.931 434.5 327.08V326.921C434.5 326.069 435.087 325.5 435.672 325.5Z" stroke="#3898FC"/>
<defs>
<linearGradient id="paint0_linear_3647_4703" x1="483.051" y1="202.949" x2="458.703" y2="112.157" gradientUnits="userSpaceOnUse">
<stop stop-color="white" stop-opacity="0.2"/>
<stop offset="0.6741" stop-color="white" stop-opacity="0.6265"/>
<stop offset="0.7903" stop-color="white" stop-opacity="0.7"/>
</linearGradient>
<linearGradient id="paint1_linear_3647_4703" x1="509.324" y1="196.021" x2="484.976" y2="105.23" gradientUnits="userSpaceOnUse">
<stop stop-color="white" stop-opacity="0.2"/>
<stop offset="0.6741" stop-color="white" stop-opacity="0.6265"/>
<stop offset="0.7903" stop-color="white" stop-opacity="0.7"/>
</linearGradient>
</defs>
</svg>
