<svg width="792" height="168" viewBox="0 0 792 168" fill="none" xmlns="http://www.w3.org/2000/svg">
<rect width="792" height="168" fill="white"/>
<g filter="url(#filter0_d_3911_46000)">
<rect x="489" y="16" width="136" height="136" rx="68" fill="#E8EFFF" fill-opacity="0.2" shape-rendering="crispEdges"/>
<rect x="489" y="16" width="136" height="136" rx="68" fill="white" fill-opacity="0.15" shape-rendering="crispEdges"/>
<g filter="url(#filter1_d_3911_46000)">
<rect x="505" y="32" width="104" height="104" rx="52" fill="white" fill-opacity="0.5" shape-rendering="crispEdges"/>
<g filter="url(#filter2_d_3911_46000)">
<rect x="521" y="48" width="72" height="72" rx="36" fill="white"/>
<path d="M537.92 92.0321L551.2 69.2969C552.887 70.29 561.393 74.9976 562.767 75.8927L549.487 98.6293C548.035 100.548 536.08 94.9438 537.92 92.0307V92.0321Z" fill="#FBBC04"/>
<path d="M576.076 92.0315L562.796 69.2977C560.939 66.2081 556.94 65.0853 553.656 66.9102C550.372 68.735 549.372 72.666 551.229 75.8936L564.509 98.6301C566.365 101.718 570.364 102.841 573.648 101.016C576.789 99.1915 577.932 95.1212 576.076 92.0343V92.0315Z" fill="#4285F4"/>
<path d="M543.666 101.895C547.348 101.895 550.332 98.9847 550.332 95.3944C550.332 91.8042 547.348 88.8937 543.666 88.8937C539.985 88.8937 537 91.8042 537 95.3944C537 98.9847 539.985 101.895 543.666 101.895Z" fill="#34A853"/>
</g>
</g>
</g>
<path d="M481 84.1562L471 78.3827L471 89.9297L481 84.1562ZM351.492 85.1562C352.045 85.1562 352.492 84.7085 352.492 84.1562C352.492 83.604 352.045 83.1562 351.492 83.1562L351.492 84.1562L351.492 85.1562ZM356.417 83.1562C355.864 83.1562 355.417 83.604 355.417 84.1562C355.417 84.7085 355.864 85.1562 356.417 85.1562L356.417 84.1562L356.417 83.1562ZM357.402 85.1562C357.954 85.1562 358.402 84.7085 358.402 84.1562C358.402 83.604 357.954 83.1562 357.402 83.1562L357.402 84.1562L357.402 85.1562ZM362.326 83.1562C361.773 83.1562 361.326 83.604 361.326 84.1562C361.326 84.7085 361.773 85.1562 362.326 85.1562L362.326 84.1562L362.326 83.1562ZM363.311 85.1562C363.863 85.1562 364.311 84.7085 364.311 84.1562C364.311 83.604 363.863 83.1562 363.311 83.1562L363.311 84.1562L363.311 85.1562ZM368.235 83.1562C367.683 83.1562 367.235 83.604 367.235 84.1562C367.235 84.7085 367.683 85.1562 368.235 85.1562L368.235 84.1562L368.235 83.1562ZM369.22 85.1562C369.772 85.1562 370.22 84.7085 370.22 84.1562C370.22 83.604 369.772 83.1562 369.22 83.1562L369.22 84.1562L369.22 85.1562ZM374.144 83.1562C373.592 83.1562 373.144 83.604 373.144 84.1562C373.144 84.7085 373.592 85.1562 374.144 85.1562L374.144 84.1562L374.144 83.1562ZM375.129 85.1562C375.681 85.1562 376.129 84.7085 376.129 84.1562C376.129 83.604 375.681 83.1562 375.129 83.1562L375.129 84.1562L375.129 85.1562ZM380.053 83.1562C379.501 83.1562 379.053 83.604 379.053 84.1562C379.053 84.7085 379.501 85.1562 380.053 85.1562L380.053 84.1562L380.053 83.1562ZM381.038 85.1562C381.59 85.1562 382.038 84.7085 382.038 84.1562C382.038 83.604 381.59 83.1562 381.038 83.1562L381.038 84.1562L381.038 85.1562ZM385.962 83.1562C385.41 83.1562 384.962 83.604 384.962 84.1562C384.962 84.7085 385.41 85.1562 385.962 85.1562L385.962 84.1562L385.962 83.1562ZM386.947 85.1562C387.499 85.1562 387.947 84.7085 387.947 84.1562C387.947 83.604 387.499 83.1562 386.947 83.1562L386.947 84.1562L386.947 85.1562ZM391.871 83.1562C391.319 83.1562 390.871 83.604 390.871 84.1562C390.871 84.7085 391.319 85.1562 391.871 85.1562L391.871 84.1562L391.871 83.1562ZM392.856 85.1562C393.408 85.1562 393.856 84.7085 393.856 84.1562C393.856 83.604 393.408 83.1562 392.856 83.1562L392.856 84.1562L392.856 85.1562ZM397.78 83.1562C397.228 83.1562 396.78 83.604 396.78 84.1562C396.78 84.7085 397.228 85.1562 397.78 85.1562L397.78 84.1562L397.78 83.1562ZM398.765 85.1562C399.317 85.1562 399.765 84.7085 399.765 84.1562C399.765 83.604 399.317 83.1562 398.765 83.1562L398.765 84.1562L398.765 85.1562ZM403.689 83.1562C403.137 83.1562 402.689 83.604 402.689 84.1562C402.689 84.7085 403.137 85.1562 403.689 85.1562L403.689 84.1562L403.689 83.1562ZM404.674 85.1562C405.227 85.1562 405.674 84.7085 405.674 84.1562C405.674 83.604 405.227 83.1562 404.674 83.1562L404.674 84.1562L404.674 85.1562ZM409.598 83.1562C409.046 83.1562 408.598 83.604 408.598 84.1562C408.598 84.7085 409.046 85.1562 409.598 85.1562L409.598 84.1562L409.598 83.1562ZM410.583 85.1562C411.136 85.1562 411.583 84.7085 411.583 84.1562C411.583 83.604 411.136 83.1562 410.583 83.1562L410.583 84.1562L410.583 85.1562ZM415.508 83.1562C414.955 83.1562 414.508 83.604 414.508 84.1562C414.508 84.7085 414.955 85.1562 415.508 85.1562L415.508 84.1562L415.508 83.1562ZM416.492 85.1562C417.045 85.1562 417.492 84.7085 417.492 84.1562C417.492 83.604 417.045 83.1562 416.492 83.1562L416.492 84.1562L416.492 85.1562ZM421.417 83.1562C420.864 83.1562 420.417 83.604 420.417 84.1562C420.417 84.7085 420.864 85.1562 421.417 85.1562L421.417 84.1562L421.417 83.1562ZM422.402 85.1562C422.954 85.1562 423.402 84.7085 423.402 84.1562C423.402 83.604 422.954 83.1562 422.402 83.1562L422.402 84.1562L422.402 85.1562ZM427.326 83.1562C426.773 83.1562 426.326 83.604 426.326 84.1562C426.326 84.7085 426.773 85.1562 427.326 85.1562L427.326 84.1562L427.326 83.1562ZM428.311 85.1562C428.863 85.1562 429.311 84.7085 429.311 84.1562C429.311 83.604 428.863 83.1562 428.311 83.1562L428.311 84.1562L428.311 85.1562ZM433.235 83.1562C432.683 83.1562 432.235 83.604 432.235 84.1562C432.235 84.7085 432.683 85.1562 433.235 85.1562L433.235 84.1562L433.235 83.1562ZM434.22 85.1562C434.772 85.1562 435.22 84.7085 435.22 84.1562C435.22 83.604 434.772 83.1562 434.22 83.1562L434.22 84.1562L434.22 85.1562ZM439.144 83.1562C438.592 83.1562 438.144 83.6039 438.144 84.1562C438.144 84.7085 438.592 85.1562 439.144 85.1562L439.144 84.1562L439.144 83.1562ZM440.129 85.1562C440.681 85.1562 441.129 84.7085 441.129 84.1562C441.129 83.6039 440.681 83.1562 440.129 83.1562L440.129 84.1562L440.129 85.1562ZM445.053 83.1562C444.501 83.1562 444.053 83.6039 444.053 84.1562C444.053 84.7085 444.501 85.1562 445.053 85.1562L445.053 84.1562L445.053 83.1562ZM446.038 85.1562C446.59 85.1562 447.038 84.7085 447.038 84.1562C447.038 83.6039 446.59 83.1562 446.038 83.1562L446.038 84.1562L446.038 85.1562ZM450.962 83.1562C450.41 83.1562 449.962 83.6039 449.962 84.1562C449.962 84.7085 450.41 85.1562 450.962 85.1562L450.962 84.1562L450.962 83.1562ZM451.947 85.1562C452.499 85.1562 452.947 84.7085 452.947 84.1562C452.947 83.6039 452.499 83.1562 451.947 83.1562L451.947 84.1562L451.947 85.1562ZM456.871 83.1562C456.319 83.1562 455.871 83.6039 455.871 84.1562C455.871 84.7085 456.319 85.1562 456.871 85.1562L456.871 84.1562L456.871 83.1562ZM457.856 85.1562C458.408 85.1562 458.856 84.7085 458.856 84.1562C458.856 83.6039 458.408 83.1562 457.856 83.1562L457.856 84.1562L457.856 85.1562ZM462.78 83.1562C462.228 83.1562 461.78 83.6039 461.78 84.1562C461.78 84.7085 462.228 85.1562 462.78 85.1562L462.78 84.1562L462.78 83.1562ZM463.765 85.1562C464.317 85.1562 464.765 84.7085 464.765 84.1562C464.765 83.6039 464.317 83.1562 463.765 83.1562L463.765 84.1562L463.765 85.1562ZM468.689 83.1562C468.137 83.1562 467.689 83.6039 467.689 84.1562C467.689 84.7085 468.137 85.1562 468.689 85.1562L468.689 84.1562L468.689 83.1562ZM469.674 85.1562C470.227 85.1562 470.674 84.7085 470.674 84.1562C470.674 83.6039 470.227 83.1562 469.674 83.1562L469.674 84.1562L469.674 85.1562ZM474.598 83.1562C474.046 83.1562 473.598 83.6039 473.598 84.1562C473.598 84.7085 474.046 85.1562 474.598 85.1562L474.598 84.1562L474.598 83.1562ZM475.583 85.1562C476.136 85.1562 476.583 84.7085 476.583 84.1562C476.583 83.6039 476.136 83.1562 475.583 83.1562L475.583 84.1562L475.583 85.1562ZM480.508 83.1562C479.955 83.1562 479.508 83.6039 479.508 84.1562C479.508 84.7085 479.955 85.1562 480.508 85.1562L480.508 84.1562L480.508 83.1562ZM351 84.1562L351 85.1562L351.492 85.1562L351.492 84.1562L351.492 83.1562L351 83.1562L351 84.1562ZM356.417 84.1562L356.417 85.1562L357.402 85.1562L357.402 84.1562L357.402 83.1562L356.417 83.1562L356.417 84.1562ZM362.326 84.1562L362.326 85.1562L363.311 85.1562L363.311 84.1562L363.311 83.1562L362.326 83.1562L362.326 84.1562ZM368.235 84.1562L368.235 85.1562L369.22 85.1562L369.22 84.1562L369.22 83.1562L368.235 83.1562L368.235 84.1562ZM374.144 84.1562L374.144 85.1562L375.129 85.1562L375.129 84.1562L375.129 83.1562L374.144 83.1562L374.144 84.1562ZM380.053 84.1562L380.053 85.1562L381.038 85.1562L381.038 84.1562L381.038 83.1562L380.053 83.1562L380.053 84.1562ZM385.962 84.1562L385.962 85.1562L386.947 85.1562L386.947 84.1562L386.947 83.1562L385.962 83.1562L385.962 84.1562ZM391.871 84.1562L391.871 85.1562L392.856 85.1562L392.856 84.1562L392.856 83.1562L391.871 83.1562L391.871 84.1562ZM397.78 84.1562L397.78 85.1562L398.765 85.1562L398.765 84.1562L398.765 83.1562L397.78 83.1562L397.78 84.1562ZM403.689 84.1562L403.689 85.1562L404.674 85.1562L404.674 84.1562L404.674 83.1562L403.689 83.1562L403.689 84.1562ZM409.598 84.1562L409.598 85.1562L410.583 85.1562L410.583 84.1562L410.583 83.1562L409.598 83.1562L409.598 84.1562ZM415.508 84.1562L415.508 85.1562L416.492 85.1562L416.492 84.1562L416.492 83.1562L415.508 83.1562L415.508 84.1562ZM421.417 84.1562L421.417 85.1562L422.402 85.1562L422.402 84.1562L422.402 83.1562L421.417 83.1562L421.417 84.1562ZM427.326 84.1562L427.326 85.1562L428.311 85.1562L428.311 84.1562L428.311 83.1562L427.326 83.1562L427.326 84.1562ZM433.235 84.1562L433.235 85.1562L434.22 85.1562L434.22 84.1562L434.22 83.1562L433.235 83.1562L433.235 84.1562ZM439.144 84.1562L439.144 85.1562L440.129 85.1562L440.129 84.1562L440.129 83.1562L439.144 83.1562L439.144 84.1562ZM445.053 84.1562L445.053 85.1562L446.038 85.1562L446.038 84.1562L446.038 83.1562L445.053 83.1562L445.053 84.1562ZM450.962 84.1562L450.962 85.1562L451.947 85.1562L451.947 84.1562L451.947 83.1562L450.962 83.1562L450.962 84.1562ZM456.871 84.1562L456.871 85.1562L457.856 85.1562L457.856 84.1562L457.856 83.1562L456.871 83.1562L456.871 84.1562ZM462.78 84.1562L462.78 85.1562L463.765 85.1562L463.765 84.1562L463.765 83.1562L462.78 83.1562L462.78 84.1562ZM468.689 84.1562L468.689 85.1562L469.674 85.1562L469.674 84.1562L469.674 83.1562L468.689 83.1562L468.689 84.1562ZM474.598 84.1562L474.598 85.1562L475.583 85.1562L475.583 84.1562L475.583 83.1562L474.598 83.1562L474.598 84.1562Z" fill="#E8EFFF"/>
<path d="M481 60.1562L474.53 50.5924L469.482 60.9779L481 60.1562ZM352.335 60.5991C352.827 60.3493 353.024 59.7475 352.774 59.2549C352.525 58.7623 351.923 58.5655 351.43 58.8153L351.882 59.7072L352.335 60.5991ZM355.81 56.6351C355.314 56.8773 355.108 57.4761 355.35 57.9724C355.593 58.4687 356.191 58.6747 356.688 58.4325L356.249 57.5338L355.81 56.6351ZM358.45 57.5797C358.948 57.3409 359.158 56.7435 358.919 56.2456C358.68 55.7476 358.083 55.5376 357.585 55.7765L358.017 56.6781L358.45 57.5797ZM362.021 53.6974C361.518 53.9271 361.297 54.5204 361.527 55.0227C361.757 55.525 362.35 55.7459 362.852 55.5163L362.437 54.6068L362.021 53.6974ZM364.612 54.7201C365.116 54.4944 365.342 53.9029 365.116 53.3988C364.891 52.8947 364.299 52.669 363.795 52.8946L364.204 53.8073L364.612 54.7201ZM368.29 50.9407C367.781 51.1551 367.542 51.7415 367.757 52.2505C367.971 52.7594 368.558 52.9982 369.067 52.7838L368.678 51.8622L368.29 50.9407ZM370.872 52.0334C371.383 51.8239 371.627 51.2399 371.418 50.7288C371.208 50.2178 370.624 49.9734 370.113 50.1828L370.492 51.1081L370.872 52.0334ZM374.678 48.3803C374.162 48.5762 373.902 49.1536 374.098 49.67C374.294 50.1864 374.871 50.4462 375.387 50.2503L375.033 49.3153L374.678 48.3803ZM377.197 49.5756C377.716 49.3856 377.982 48.8112 377.792 48.2926C377.602 47.774 377.028 47.5076 376.509 47.6976L376.853 48.6366L377.197 49.5756ZM381.143 46.0808C380.619 46.2544 380.334 46.8202 380.508 47.3445C380.681 47.8688 381.247 48.153 381.772 47.9794L381.457 47.0301L381.143 46.0808ZM383.628 47.3786C384.155 47.2121 384.447 46.6503 384.281 46.1237C384.114 45.5971 383.552 45.3051 383.026 45.4715L383.327 46.425L383.628 47.3786ZM387.739 44.0752C387.206 44.2222 386.894 44.7729 387.041 45.3053C387.188 45.8376 387.739 46.1501 388.271 46.0031L388.005 45.0392L387.739 44.0752ZM390.137 45.5036C390.672 45.365 390.993 44.8193 390.854 44.2847C390.716 43.7501 390.17 43.429 389.635 43.5676L389.886 44.5356L390.137 45.5036ZM394.429 42.4307C393.889 42.5466 393.545 43.0783 393.661 43.6183C393.777 44.1583 394.309 44.5021 394.849 44.3862L394.639 43.4085L394.429 42.4307ZM396.739 43.9979C397.281 43.8916 397.635 43.3661 397.528 42.8242C397.422 42.2822 396.897 41.929 396.355 42.0353L396.547 43.0166L396.739 43.9979ZM401.211 41.1999C400.665 41.2805 400.287 41.7888 400.368 42.3352C400.449 42.8816 400.957 43.2591 401.503 43.1785L401.357 42.1892L401.211 41.1999ZM403.42 42.9147C403.968 42.8448 404.356 42.344 404.286 41.7962C404.216 41.2483 403.715 40.8609 403.167 40.9308L403.294 41.9227L403.42 42.9147ZM408.069 40.4305C407.519 40.4726 407.106 40.9531 407.148 41.5037C407.19 42.0544 407.671 42.4668 408.222 42.4247L408.145 41.4276L408.069 40.4305ZM410.151 42.2976C410.703 42.267 411.125 41.7952 411.094 41.2438C411.064 40.6923 410.592 40.2701 410.04 40.3007L410.096 41.2991L410.151 42.2976ZM414.97 40.1567C414.418 40.1583 413.971 40.6073 413.973 41.1596C413.975 41.7119 414.424 42.1583 414.976 42.1566L414.973 41.1567L414.97 40.1567ZM416.907 42.1712C417.459 42.1812 417.914 41.7416 417.924 41.1894C417.934 40.6372 417.495 40.1815 416.943 40.1716L416.925 41.1714L416.907 42.1712ZM421.869 40.3888C421.318 40.3502 420.84 40.7656 420.802 41.3165C420.763 41.8674 421.179 42.3453 421.73 42.3839L421.799 41.3863L421.869 40.3888ZM423.656 42.5384C424.206 42.5881 424.693 42.1826 424.742 41.6325C424.792 41.0825 424.386 40.5963 423.836 40.5465L423.746 41.5425L423.656 42.5384ZM428.731 41.1112C428.184 41.0346 427.678 41.4159 427.601 41.9628C427.525 42.5098 427.906 43.0153 428.453 43.0919L428.592 42.1015L428.731 41.1112ZM430.371 43.3789C430.916 43.4658 431.429 43.0941 431.516 42.5487C431.603 42.0033 431.231 41.4907 430.686 41.4038L430.528 42.3914L430.371 43.3789ZM435.526 42.2871C434.985 42.1761 434.457 42.5246 434.346 43.0656C434.235 43.6066 434.583 44.1352 435.124 44.2463L435.325 43.2667L435.526 42.2871ZM437.016 44.6512C437.555 44.7712 438.089 44.4316 438.209 43.8925C438.329 43.3534 437.99 42.8191 437.451 42.699L437.233 43.6751L437.016 44.6512ZM442.237 43.8656C441.703 43.7245 441.155 44.043 441.014 44.5769C440.873 45.1109 441.192 45.6581 441.726 45.7993L441.981 44.8324L442.237 43.8656ZM443.587 46.3057C444.119 46.4545 444.67 46.144 444.819 45.6121C444.968 45.0803 444.657 44.5285 444.126 44.3797L443.856 45.3427L443.587 46.3057ZM448.834 45.7846C448.308 45.618 447.746 45.9098 447.579 46.4364C447.413 46.9629 447.704 47.5248 448.231 47.6914L448.533 46.738L448.834 45.7846ZM450.088 48.2918C450.612 48.4649 451.178 48.1801 451.351 47.6557C451.524 47.1312 451.239 46.5657 450.715 46.3926L450.401 47.3422L450.088 48.2918ZM455.348 47.9969C454.829 47.809 454.256 48.0777 454.068 48.597C453.88 49.1164 454.148 49.6897 454.668 49.8776L455.008 48.9372L455.348 47.9969ZM456.484 50.5456C457.002 50.7388 457.578 50.4761 457.771 49.9587C457.964 49.4413 457.701 48.8653 457.184 48.672L456.834 49.6088L456.484 50.5456ZM461.758 50.4438C461.246 50.2384 460.664 50.4875 460.458 51.0002C460.253 51.5128 460.502 52.0949 461.015 52.3004L461.387 51.3721L461.758 50.4438ZM462.825 53.0347C463.336 53.2446 463.92 53.0005 464.13 52.4896C464.339 51.9788 464.095 51.3945 463.584 51.1847L463.205 52.1097L462.825 53.0347ZM468.098 53.0911C467.591 52.8714 467.002 53.104 466.782 53.6107C466.563 54.1174 466.795 54.7062 467.302 54.926L467.7 54.0085L468.098 53.0911ZM469.073 55.7017C469.579 55.925 470.169 55.6965 470.392 55.1914C470.616 54.6863 470.387 54.0958 469.882 53.8725L469.478 54.7871L469.073 55.7017ZM474.344 55.8888C473.843 55.6575 473.249 55.8765 473.017 56.378C472.786 56.8794 473.005 57.4735 473.506 57.7049L473.925 56.7969L474.344 55.8888ZM475.283 58.5307C475.783 58.765 476.378 58.5495 476.613 58.0493C476.847 57.5492 476.631 56.9539 476.131 56.7196L475.707 57.6252L475.283 58.5307ZM480.546 58.8236C480.049 58.5828 479.451 58.7905 479.21 59.2876C478.969 59.7846 479.177 60.3827 479.674 60.6235L480.11 59.7236L480.546 58.8236ZM351 60.1562L351.455 61.0468C351.749 60.8967 352.042 60.7474 352.335 60.5991L351.882 59.7072L351.43 58.8153C351.136 58.9645 350.841 59.1146 350.545 59.2657L351 60.1562ZM356.249 57.5338L356.688 58.4325C357.278 58.1443 357.865 57.8601 358.45 57.5797L358.017 56.6781L357.585 55.7765C356.996 56.0588 356.405 56.345 355.81 56.6351L356.249 57.5338ZM362.437 54.6068L362.852 55.5163C363.442 55.2467 364.028 54.9813 364.612 54.7201L364.204 53.8073L363.795 52.8946C363.206 53.1581 362.615 53.4257 362.021 53.6974L362.437 54.6068ZM368.678 51.8622L369.067 52.7838C369.671 52.529 370.273 52.2789 370.872 52.0334L370.492 51.1081L370.113 50.1828C369.508 50.4308 368.901 50.6834 368.29 50.9407L368.678 51.8622ZM375.033 49.3153L375.387 50.2503C375.994 50.0204 376.597 49.7955 377.197 49.5756L376.853 48.6366L376.509 47.6976C375.902 47.9202 375.291 48.1478 374.678 48.3803L375.033 49.3153ZM381.457 47.0301L381.772 47.9794C382.393 47.7736 383.012 47.5733 383.628 47.3786L383.327 46.425L383.026 45.4715C382.401 45.6691 381.773 45.8722 381.143 46.0808L381.457 47.0301ZM388.005 45.0392L388.271 46.0031C388.895 45.8307 389.517 45.6643 390.137 45.5036L389.886 44.5356L389.635 43.5676C389.005 43.7309 388.373 43.9001 387.739 44.0752L388.005 45.0392ZM394.639 43.4085L394.849 44.3862C395.481 44.2505 396.111 44.1211 396.739 43.9979L396.547 43.0166L396.355 42.0353C395.714 42.1608 395.073 42.2926 394.429 42.4307L394.639 43.4085ZM401.357 42.1892L401.503 43.1785C402.144 43.084 402.782 42.996 403.42 42.9147L403.294 41.9227L403.167 40.9308C402.516 41.0138 401.864 41.1035 401.211 41.1999L401.357 42.1892ZM408.145 41.4276L408.222 42.4247C408.865 42.3756 409.508 42.3332 410.151 42.2976L410.096 41.2991L410.04 40.3007C409.384 40.3371 408.727 40.3803 408.069 40.4305L408.145 41.4276ZM414.973 41.1567L414.976 42.1566C415.619 42.1548 416.263 42.1596 416.907 42.1712L416.925 41.1714L416.943 40.1716C416.285 40.1597 415.628 40.1547 414.97 40.1567L414.973 41.1567ZM421.799 41.3863L421.73 42.3839C422.371 42.4288 423.013 42.4803 423.656 42.5384L423.746 41.5425L423.836 40.5465C423.18 40.4872 422.524 40.4346 421.869 40.3888L421.799 41.3863ZM428.592 42.1015L428.453 43.0919C429.091 43.1812 429.73 43.2769 430.371 43.3789L430.528 42.3914L430.686 41.4038C430.033 41.2998 429.381 41.2022 428.731 41.1112L428.592 42.1015ZM435.325 43.2667L435.124 44.2463C435.753 44.3753 436.383 44.5102 437.016 44.6512L437.233 43.6751L437.451 42.699C436.807 42.5557 436.166 42.4184 435.526 42.2871L435.325 43.2667ZM441.981 44.8324L441.726 45.7993C442.344 45.9626 442.964 46.1314 443.587 46.3057L443.856 45.3427L444.126 44.3797C443.494 44.2028 442.864 44.0315 442.237 43.8656L441.981 44.8324ZM448.533 46.738L448.231 47.6914C448.847 47.8864 449.466 48.0865 450.088 48.2918L450.401 47.3422L450.715 46.3926C450.085 46.1848 449.458 45.9821 448.834 45.7846L448.533 46.738ZM455.008 48.9372L454.668 49.8776C455.27 50.0957 455.876 50.3183 456.484 50.5456L456.834 49.6088L457.184 48.672C456.569 48.4424 455.957 48.2174 455.348 47.9969L455.008 48.9372ZM461.387 51.3721L461.015 52.3004C461.615 52.5409 462.218 52.7857 462.825 53.0347L463.205 52.1097L463.584 51.1847C462.973 50.9335 462.364 50.6866 461.758 50.4438L461.387 51.3721ZM467.7 54.0085L467.302 54.926C467.889 55.1808 468.48 55.4394 469.073 55.7017L469.478 54.7871L469.882 53.8725C469.284 53.6083 468.69 53.3478 468.098 53.0911L467.7 54.0085ZM473.925 56.7969L473.506 57.7049C474.096 57.9766 474.688 58.2519 475.283 58.5307L475.707 57.6252L476.131 56.7196C475.533 56.4392 474.937 56.1622 474.344 55.8888L473.925 56.7969Z" fill="#E8EFFF"/>
<path d="M481 108.156L474.53 117.72L469.482 107.335L481 108.156ZM352.335 107.713C352.827 107.963 353.024 108.565 352.774 109.058C352.525 109.55 351.923 109.747 351.43 109.497L351.882 108.605L352.335 107.713ZM355.81 111.677C355.314 111.435 355.108 110.836 355.35 110.34C355.593 109.844 356.191 109.638 356.688 109.88L356.249 110.779L355.81 111.677ZM358.45 110.733C358.948 110.972 359.158 111.569 358.919 112.067C358.68 112.565 358.083 112.775 357.585 112.536L358.017 111.634L358.45 110.733ZM362.021 114.615C361.518 114.385 361.297 113.792 361.527 113.29C361.757 112.788 362.35 112.567 362.852 112.796L362.437 113.706L362.021 114.615ZM364.612 113.592C365.116 113.818 365.342 114.41 365.116 114.914C364.891 115.418 364.299 115.644 363.795 115.418L364.204 114.505L364.612 113.592ZM368.29 117.372C367.781 117.157 367.542 116.571 367.757 116.062C367.971 115.553 368.558 115.314 369.067 115.529L368.678 116.45L368.29 117.372ZM370.872 116.279C371.383 116.489 371.627 117.073 371.418 117.584C371.208 118.095 370.624 118.339 370.113 118.13L370.492 117.204L370.872 116.279ZM374.678 119.932C374.162 119.736 373.902 119.159 374.098 118.643C374.294 118.126 374.871 117.866 375.387 118.062L375.033 118.997L374.678 119.932ZM377.197 118.737C377.716 118.927 377.982 119.501 377.792 120.02C377.602 120.538 377.028 120.805 376.509 120.615L376.853 119.676L377.197 118.737ZM381.143 122.232C380.619 122.058 380.334 121.492 380.508 120.968C380.681 120.444 381.247 120.159 381.772 120.333L381.457 121.282L381.143 122.232ZM383.628 120.934C384.155 121.1 384.447 121.662 384.281 122.189C384.114 122.715 383.552 123.007 383.026 122.841L383.327 121.887L383.628 120.934ZM387.739 124.237C387.206 124.09 386.894 123.54 387.041 123.007C387.188 122.475 387.739 122.162 388.271 122.309L388.005 123.273L387.739 124.237ZM390.137 122.809C390.672 122.947 390.993 123.493 390.854 124.028C390.716 124.562 390.17 124.883 389.635 124.745L389.886 123.777L390.137 122.809ZM394.429 125.882C393.889 125.766 393.545 125.234 393.661 124.694C393.777 124.154 394.309 123.81 394.849 123.926L394.639 124.904L394.429 125.882ZM396.739 124.315C397.281 124.421 397.635 124.946 397.528 125.488C397.422 126.03 396.897 126.384 396.355 126.277L396.547 125.296L396.739 124.315ZM401.211 127.113C400.665 127.032 400.287 126.524 400.368 125.977C400.449 125.431 400.957 125.053 401.503 125.134L401.357 126.123L401.211 127.113ZM403.42 125.398C403.968 125.468 404.356 125.968 404.286 126.516C404.216 127.064 403.715 127.452 403.167 127.382L403.294 126.39L403.42 125.398ZM408.069 127.882C407.519 127.84 407.106 127.359 407.148 126.809C407.19 126.258 407.671 125.846 408.222 125.888L408.145 126.885L408.069 127.882ZM410.151 126.015C410.703 126.045 411.125 126.517 411.094 127.069C411.064 127.62 410.592 128.042 410.04 128.012L410.096 127.013L410.151 126.015ZM414.97 128.156C414.418 128.154 413.971 127.705 413.973 127.153C413.975 126.601 414.424 126.154 414.976 126.156L414.973 127.156L414.97 128.156ZM416.907 126.141C417.459 126.131 417.914 126.571 417.924 127.123C417.934 127.675 417.495 128.131 416.943 128.141L416.925 127.141L416.907 126.141ZM421.869 127.924C421.318 127.962 420.84 127.547 420.802 126.996C420.763 126.445 421.179 125.967 421.73 125.929L421.799 126.926L421.869 127.924ZM423.656 125.774C424.206 125.724 424.693 126.13 424.742 126.68C424.792 127.23 424.386 127.716 423.836 127.766L423.746 126.77L423.656 125.774ZM428.731 127.201C428.184 127.278 427.678 126.897 427.601 126.35C427.525 125.803 427.906 125.297 428.453 125.221L428.592 126.211L428.731 127.201ZM430.371 124.934C430.916 124.847 431.429 125.218 431.516 125.764C431.603 126.309 431.231 126.822 430.686 126.909L430.528 125.921L430.371 124.934ZM435.526 126.025C434.985 126.136 434.457 125.788 434.346 125.247C434.235 124.706 434.583 124.177 435.124 124.066L435.325 125.046L435.526 126.025ZM437.016 123.661C437.555 123.541 438.089 123.881 438.209 124.42C438.329 124.959 437.99 125.493 437.451 125.613L437.233 124.637L437.016 123.661ZM442.237 124.447C441.703 124.588 441.155 124.27 441.014 123.736C440.873 123.202 441.192 122.654 441.726 122.513L441.981 123.48L442.237 124.447ZM443.587 122.007C444.119 121.858 444.67 122.169 444.819 122.7C444.968 123.232 444.657 123.784 444.126 123.933L443.856 122.97L443.587 122.007ZM448.834 122.528C448.308 122.694 447.746 122.403 447.579 121.876C447.413 121.35 447.704 120.788 448.231 120.621L448.533 121.574L448.834 122.528ZM450.088 120.021C450.612 119.848 451.178 120.132 451.351 120.657C451.524 121.181 451.239 121.747 450.715 121.92L450.401 120.97L450.088 120.021ZM455.348 120.316C454.829 120.503 454.256 120.235 454.068 119.715C453.88 119.196 454.148 118.623 454.668 118.435L455.008 119.375L455.348 120.316ZM456.484 117.767C457.002 117.574 457.578 117.836 457.771 118.354C457.964 118.871 457.701 119.447 457.184 119.64L456.834 118.704L456.484 117.767ZM461.758 117.869C461.246 118.074 460.664 117.825 460.458 117.312C460.253 116.8 460.502 116.218 461.015 116.012L461.387 116.94L461.758 117.869ZM462.825 115.278C463.336 115.068 463.92 115.312 464.13 115.823C464.339 116.334 464.095 116.918 463.584 117.128L463.205 116.203L462.825 115.278ZM468.098 115.221C467.591 115.441 467.002 115.209 466.782 114.702C466.563 114.195 466.795 113.606 467.302 113.387L467.7 114.304L468.098 115.221ZM469.073 112.611C469.579 112.387 470.169 112.616 470.392 113.121C470.616 113.626 470.387 114.217 469.882 114.44L469.478 113.525L469.073 112.611ZM474.344 112.424C473.843 112.655 473.249 112.436 473.017 111.935C472.786 111.433 473.005 110.839 473.506 110.608L473.925 111.516L474.344 112.424ZM475.283 109.782C475.783 109.548 476.378 109.763 476.613 110.263C476.847 110.763 476.631 111.359 476.131 111.593L475.707 110.687L475.283 109.782ZM480.546 109.489C480.049 109.73 479.451 109.522 479.21 109.025C478.969 108.528 479.177 107.93 479.674 107.689L480.11 108.589L480.546 109.489ZM351 108.156L351.455 107.266C351.749 107.416 352.042 107.565 352.335 107.713L351.882 108.605L351.43 109.497C351.136 109.348 350.841 109.198 350.545 109.047L351 108.156ZM356.249 110.779L356.688 109.88C357.278 110.168 357.865 110.452 358.45 110.733L358.017 111.634L357.585 112.536C356.996 112.254 356.405 111.967 355.81 111.677L356.249 110.779ZM362.437 113.706L362.852 112.796C363.442 113.066 364.028 113.331 364.612 113.592L364.204 114.505L363.795 115.418C363.206 115.154 362.615 114.887 362.021 114.615L362.437 113.706ZM368.678 116.45L369.067 115.529C369.671 115.784 370.273 116.034 370.872 116.279L370.492 117.204L370.113 118.13C369.508 117.882 368.901 117.629 368.29 117.372L368.678 116.45ZM375.033 118.997L375.387 118.062C375.994 118.292 376.597 118.517 377.197 118.737L376.853 119.676L376.509 120.615C375.902 120.392 375.291 120.165 374.678 119.932L375.033 118.997ZM381.457 121.282L381.772 120.333C382.393 120.539 383.012 120.739 383.628 120.934L383.327 121.887L383.026 122.841C382.401 122.643 381.773 122.44 381.143 122.232L381.457 121.282ZM388.005 123.273L388.271 122.309C388.895 122.482 389.517 122.648 390.137 122.809L389.886 123.777L389.635 124.745C389.005 124.582 388.373 124.412 387.739 124.237L388.005 123.273ZM394.639 124.904L394.849 123.926C395.481 124.062 396.111 124.191 396.739 124.315L396.547 125.296L396.355 126.277C395.714 126.152 395.073 126.02 394.429 125.882L394.639 124.904ZM401.357 126.123L401.503 125.134C402.144 125.229 402.782 125.316 403.42 125.398L403.294 126.39L403.167 127.382C402.516 127.299 401.864 127.209 401.211 127.113L401.357 126.123ZM408.145 126.885L408.222 125.888C408.865 125.937 409.508 125.979 410.151 126.015L410.096 127.013L410.04 128.012C409.384 127.975 408.727 127.932 408.069 127.882L408.145 126.885ZM414.973 127.156L414.976 126.156C415.619 126.158 416.263 126.153 416.907 126.141L416.925 127.141L416.943 128.141C416.285 128.153 415.628 128.158 414.97 128.156L414.973 127.156ZM421.799 126.926L421.73 125.929C422.371 125.884 423.013 125.832 423.656 125.774L423.746 126.77L423.836 127.766C423.18 127.825 422.524 127.878 421.869 127.924L421.799 126.926ZM428.592 126.211L428.453 125.221C429.091 125.131 429.73 125.036 430.371 124.934L430.528 125.921L430.686 126.909C430.033 127.013 429.381 127.11 428.731 127.201L428.592 126.211ZM435.325 125.046L435.124 124.066C435.753 123.937 436.383 123.802 437.016 123.661L437.233 124.637L437.451 125.613C436.807 125.757 436.166 125.894 435.526 126.025L435.325 125.046ZM441.981 123.48L441.726 122.513C442.344 122.35 442.964 122.181 443.587 122.007L443.856 122.97L444.126 123.933C443.494 124.11 442.864 124.281 442.237 124.447L441.981 123.48ZM448.533 121.574L448.231 120.621C448.847 120.426 449.466 120.226 450.088 120.021L450.401 120.97L450.715 121.92C450.085 122.128 449.458 122.33 448.834 122.528L448.533 121.574ZM455.008 119.375L454.668 118.435C455.27 118.217 455.876 117.994 456.484 117.767L456.834 118.704L457.184 119.64C456.569 119.87 455.957 120.095 455.348 120.316L455.008 119.375ZM461.387 116.94L461.015 116.012C461.615 115.772 462.218 115.527 462.825 115.278L463.205 116.203L463.584 117.128C462.973 117.379 462.364 117.626 461.758 117.869L461.387 116.94ZM467.7 114.304L467.302 113.387C467.889 113.132 468.48 112.873 469.073 112.611L469.478 113.525L469.882 114.44C469.284 114.704 468.69 114.965 468.098 115.221L467.7 114.304ZM473.925 111.516L473.506 110.608C474.096 110.336 474.688 110.061 475.283 109.782L475.707 110.687L476.131 111.593C475.533 111.873 474.937 112.15 474.344 112.424L473.925 111.516Z" fill="#E8EFFF"/>
<g filter="url(#filter3_d_3911_46000)">
<rect x="176.5" y="58" width="158" height="50" rx="4" fill="white" shape-rendering="crispEdges"/>
<rect x="177" y="58.5" width="157" height="49" rx="3.5" stroke="#EDEDED" shape-rendering="crispEdges"/>
<rect x="188.5" y="70" width="26" height="26" rx="4" fill="#FEEBB4"/>
<g clip-path="url(#clip0_3911_46000)">
<path d="M210.5 79.3602C210.5 78.6055 209.888 77.9935 209.133 77.9935C208.377 77.9935 207.765 78.6055 207.765 79.3602C207.765 79.7294 207.912 80.0639 208.149 80.3095C207.219 82.2354 205.442 82.9077 204.064 82.2991C202.837 81.7563 202.384 80.2051 202.231 79.0032C202.732 78.7401 203.073 78.216 203.073 77.6112C203.073 76.7428 202.369 76.0391 201.5 76.0391C200.632 76.0391 199.927 76.7428 199.927 77.6112C199.927 78.216 200.268 78.74 200.769 79.0032C200.616 80.2051 200.163 81.7564 198.936 82.2991C197.558 82.9078 195.781 82.2354 194.851 80.3095C195.088 80.0639 195.235 79.7294 195.235 79.3602C195.235 78.6055 194.623 77.9935 193.868 77.9935C193.112 77.9935 192.5 78.6055 192.5 79.3602C192.5 80.0557 193.02 80.6286 193.691 80.7154L195.267 86.4838H207.733L209.309 80.7154C209.981 80.6286 210.5 80.0557 210.5 79.3602Z" fill="#FBBC04"/>
<path d="M208.497 88.9437C208.497 89.5056 208.041 89.961 207.479 89.961H195.521C194.959 89.961 194.504 89.5056 194.504 88.9437V88.8591C194.504 88.2966 194.959 87.8412 195.521 87.8412H207.479C208.041 87.8412 208.497 88.2966 208.497 88.8591V88.9437Z" fill="#FBBC04"/>
</g>
<path d="M223.892 88V76.72H228.356C229.167 76.72 229.849 76.8533 230.404 77.12C230.969 77.376 231.396 77.76 231.684 78.272C231.972 78.7733 232.116 79.3867 232.116 80.112C232.116 80.816 231.972 81.424 231.684 81.936C231.396 82.448 230.969 82.8373 230.404 83.104C229.849 83.3707 229.167 83.504 228.356 83.504H225.204V88H223.892ZM225.204 82.4H228.196C229.06 82.4 229.711 82.208 230.148 81.824C230.596 81.4293 230.82 80.8587 230.82 80.112C230.82 79.3547 230.596 78.784 230.148 78.4C229.711 78.0053 229.06 77.808 228.196 77.808H225.204V82.4ZM233.365 88V80.224H234.629V82.064H234.469C234.65 81.4347 234.965 80.96 235.413 80.64C235.861 80.3093 236.453 80.1173 237.189 80.064L237.653 80.016L237.749 81.136L236.933 81.232C236.207 81.296 235.647 81.5307 235.253 81.936C234.869 82.3307 234.677 82.8747 234.677 83.568V88H233.365ZM242.189 88.144C241.368 88.144 240.659 87.984 240.061 87.664C239.475 87.3333 239.016 86.8693 238.685 86.272C238.365 85.6747 238.205 84.96 238.205 84.128C238.205 83.3173 238.365 82.6133 238.685 82.016C239.005 81.408 239.443 80.9333 239.997 80.592C240.563 80.2507 241.213 80.08 241.949 80.08C242.653 80.08 243.256 80.2347 243.757 80.544C244.259 80.8533 244.643 81.2907 244.909 81.856C245.187 82.4213 245.325 83.0987 245.325 83.888V84.384H239.197V83.536H244.461L244.205 83.744C244.205 82.8907 244.013 82.2293 243.629 81.76C243.256 81.28 242.707 81.04 241.981 81.04C241.437 81.04 240.973 81.168 240.589 81.424C240.216 81.6693 239.933 82.016 239.741 82.464C239.549 82.9013 239.453 83.4133 239.453 84V84.096C239.453 84.7467 239.555 85.296 239.757 85.744C239.971 86.192 240.285 86.5333 240.701 86.768C241.117 86.992 241.613 87.104 242.189 87.104C242.648 87.104 243.091 87.0347 243.517 86.896C243.955 86.7467 244.365 86.5067 244.749 86.176L245.197 87.088C244.845 87.408 244.397 87.664 243.853 87.856C243.309 88.048 242.755 88.144 242.189 88.144ZM246.913 88V80.224H248.177V81.952H248.001C248.129 81.5573 248.316 81.2213 248.561 80.944C248.817 80.656 249.116 80.4427 249.457 80.304C249.809 80.1547 250.193 80.08 250.609 80.08C251.27 80.08 251.804 80.24 252.209 80.56C252.625 80.8693 252.902 81.3547 253.041 82.016H252.801C252.993 81.4187 253.334 80.9493 253.825 80.608C254.326 80.256 254.908 80.08 255.569 80.08C256.156 80.08 256.636 80.192 257.009 80.416C257.393 80.64 257.681 80.9813 257.873 81.44C258.065 81.888 258.161 82.4587 258.161 83.152V88H256.865V83.216C256.865 82.5013 256.742 81.9787 256.497 81.648C256.252 81.3067 255.836 81.136 255.249 81.136C254.833 81.136 254.465 81.2373 254.145 81.44C253.836 81.6427 253.596 81.9307 253.425 82.304C253.265 82.6667 253.185 83.0987 253.185 83.6V88H251.889V83.216C251.889 82.5013 251.761 81.9787 251.505 81.648C251.26 81.3067 250.849 81.136 250.273 81.136C249.846 81.136 249.478 81.2373 249.169 81.44C248.86 81.6427 248.62 81.9307 248.449 82.304C248.289 82.6667 248.209 83.0987 248.209 83.6V88H246.913ZM260.104 78.288V76.832H261.704V78.288H260.104ZM260.264 88V80.224H261.56V88H260.264ZM266.415 88.144C265.786 88.144 265.263 88.032 264.847 87.808C264.442 87.5733 264.132 87.2267 263.919 86.768C263.716 86.3093 263.615 85.7387 263.615 85.056V80.224H264.911V85.04C264.911 85.4987 264.97 85.8827 265.087 86.192C265.215 86.4907 265.412 86.7147 265.679 86.864C265.946 87.0027 266.276 87.072 266.671 87.072C267.119 87.072 267.508 86.9707 267.839 86.768C268.17 86.5653 268.431 86.2827 268.623 85.92C268.815 85.5573 268.911 85.1307 268.911 84.64V80.224H270.207V88H268.943V86.208H269.151C268.938 86.8373 268.586 87.3173 268.095 87.648C267.615 87.9787 267.055 88.144 266.415 88.144ZM272.344 88V80.224H273.608V81.952H273.432C273.56 81.5573 273.746 81.2213 273.992 80.944C274.248 80.656 274.546 80.4427 274.888 80.304C275.24 80.1547 275.624 80.08 276.04 80.08C276.701 80.08 277.234 80.24 277.64 80.56C278.056 80.8693 278.333 81.3547 278.472 82.016H278.232C278.424 81.4187 278.765 80.9493 279.256 80.608C279.757 80.256 280.338 80.08 281 80.08C281.586 80.08 282.066 80.192 282.44 80.416C282.824 80.64 283.112 80.9813 283.304 81.44C283.496 81.888 283.592 82.4587 283.592 83.152V88H282.296V83.216C282.296 82.5013 282.173 81.9787 281.928 81.648C281.682 81.3067 281.266 81.136 280.68 81.136C280.264 81.136 279.896 81.2373 279.576 81.44C279.266 81.6427 279.026 81.9307 278.856 82.304C278.696 82.6667 278.616 83.0987 278.616 83.6V88H277.32V83.216C277.32 82.5013 277.192 81.9787 276.936 81.648C276.69 81.3067 276.28 81.136 275.704 81.136C275.277 81.136 274.909 81.2373 274.6 81.44C274.29 81.6427 274.05 81.9307 273.88 82.304C273.72 82.6667 273.64 83.0987 273.64 83.6V88H272.344ZM289.66 88V76.72H293.468C294.695 76.72 295.729 76.9387 296.572 77.376C297.425 77.8027 298.071 78.4373 298.508 79.28C298.956 80.112 299.18 81.136 299.18 82.352C299.18 83.568 298.956 84.5973 298.508 85.44C298.071 86.2827 297.425 86.9227 296.572 87.36C295.729 87.7867 294.695 88 293.468 88H289.66ZM290.972 86.88H293.372C294.855 86.88 295.959 86.5013 296.684 85.744C297.42 84.9867 297.788 83.856 297.788 82.352C297.788 80.848 297.42 79.7227 296.684 78.976C295.948 78.2187 294.844 77.84 293.372 77.84H290.972V86.88ZM303.487 88.144C302.954 88.144 302.474 88.0427 302.047 87.84C301.631 87.6267 301.3 87.3387 301.055 86.976C300.81 86.6133 300.687 86.208 300.687 85.76C300.687 85.184 300.831 84.7307 301.119 84.4C301.418 84.0693 301.903 83.8347 302.575 83.696C303.258 83.5573 304.186 83.488 305.359 83.488H306.079V84.336H305.375C304.724 84.336 304.18 84.3573 303.743 84.4C303.306 84.4427 302.959 84.5173 302.703 84.624C302.447 84.7307 302.266 84.8693 302.159 85.04C302.052 85.2107 301.999 85.424 301.999 85.68C301.999 86.1173 302.148 86.4747 302.447 86.752C302.756 87.0293 303.172 87.168 303.695 87.168C304.122 87.168 304.495 87.0667 304.815 86.864C305.146 86.6613 305.402 86.384 305.583 86.032C305.775 85.68 305.871 85.2747 305.871 84.816V82.992C305.871 82.3307 305.738 81.856 305.471 81.568C305.204 81.2693 304.767 81.12 304.159 81.12C303.69 81.12 303.236 81.1893 302.799 81.328C302.362 81.456 301.914 81.6693 301.455 81.968L301.007 81.024C301.284 80.832 301.599 80.6667 301.951 80.528C302.303 80.3787 302.671 80.2667 303.055 80.192C303.439 80.1173 303.807 80.08 304.159 80.08C304.831 80.08 305.386 80.192 305.823 80.416C306.26 80.6293 306.586 80.96 306.799 81.408C307.012 81.8453 307.119 82.4107 307.119 83.104V88H305.903V86.192H306.047C305.962 86.5973 305.796 86.944 305.551 87.232C305.316 87.52 305.023 87.744 304.671 87.904C304.319 88.064 303.924 88.144 303.487 88.144ZM312.324 88.144C311.406 88.144 310.718 87.8987 310.26 87.408C309.801 86.9173 309.572 86.2187 309.572 85.312V81.232H308.052V80.224H309.572V77.84H310.868V80.224H313.332V81.232H310.868V85.184C310.868 85.792 310.996 86.256 311.252 86.576C311.508 86.8853 311.924 87.04 312.5 87.04C312.67 87.04 312.841 87.0187 313.012 86.976C313.182 86.9333 313.337 86.8907 313.476 86.848L313.7 87.84C313.561 87.9147 313.358 87.984 313.092 88.048C312.825 88.112 312.569 88.144 312.324 88.144ZM316.925 88.144C316.392 88.144 315.912 88.0427 315.485 87.84C315.069 87.6267 314.739 87.3387 314.493 86.976C314.248 86.6133 314.125 86.208 314.125 85.76C314.125 85.184 314.269 84.7307 314.557 84.4C314.856 84.0693 315.341 83.8347 316.013 83.696C316.696 83.5573 317.624 83.488 318.797 83.488H319.517V84.336H318.813C318.163 84.336 317.619 84.3573 317.181 84.4C316.744 84.4427 316.397 84.5173 316.141 84.624C315.885 84.7307 315.704 84.8693 315.597 85.04C315.491 85.2107 315.437 85.424 315.437 85.68C315.437 86.1173 315.587 86.4747 315.885 86.752C316.195 87.0293 316.611 87.168 317.133 87.168C317.56 87.168 317.933 87.0667 318.253 86.864C318.584 86.6613 318.84 86.384 319.021 86.032C319.213 85.68 319.309 85.2747 319.309 84.816V82.992C319.309 82.3307 319.176 81.856 318.909 81.568C318.643 81.2693 318.205 81.12 317.597 81.12C317.128 81.12 316.675 81.1893 316.237 81.328C315.8 81.456 315.352 81.6693 314.893 81.968L314.445 81.024C314.723 80.832 315.037 80.6667 315.389 80.528C315.741 80.3787 316.109 80.2667 316.493 80.192C316.877 80.1173 317.245 80.08 317.597 80.08C318.269 80.08 318.824 80.192 319.261 80.416C319.699 80.6293 320.024 80.96 320.237 81.408C320.451 81.8453 320.557 82.4107 320.557 83.104V88H319.341V86.192H319.485C319.4 86.5973 319.235 86.944 318.989 87.232C318.755 87.52 318.461 87.744 318.109 87.904C317.757 88.064 317.363 88.144 316.925 88.144Z" fill="#3B3B3B"/>
</g>
<defs>
<filter id="filter0_d_3911_46000" x="479" y="8" width="156" height="156" filterUnits="userSpaceOnUse" color-interpolation-filters="sRGB">
<feFlood flood-opacity="0" result="BackgroundImageFix"/>
<feColorMatrix in="SourceAlpha" type="matrix" values="0 0 0 0 0 0 0 0 0 0 0 0 0 0 0 0 0 0 127 0" result="hardAlpha"/>
<feOffset dy="2"/>
<feGaussianBlur stdDeviation="5"/>
<feComposite in2="hardAlpha" operator="out"/>
<feColorMatrix type="matrix" values="0 0 0 0 0 0 0 0 0 0 0 0 0 0 0 0 0 0 0.08 0"/>
<feBlend mode="normal" in2="BackgroundImageFix" result="effect1_dropShadow_3911_46000"/>
<feBlend mode="normal" in="SourceGraphic" in2="effect1_dropShadow_3911_46000" result="shape"/>
</filter>
<filter id="filter1_d_3911_46000" x="495" y="24" width="124" height="124" filterUnits="userSpaceOnUse" color-interpolation-filters="sRGB">
<feFlood flood-opacity="0" result="BackgroundImageFix"/>
<feColorMatrix in="SourceAlpha" type="matrix" values="0 0 0 0 0 0 0 0 0 0 0 0 0 0 0 0 0 0 127 0" result="hardAlpha"/>
<feOffset dy="2"/>
<feGaussianBlur stdDeviation="5"/>
<feComposite in2="hardAlpha" operator="out"/>
<feColorMatrix type="matrix" values="0 0 0 0 0 0 0 0 0 0 0 0 0 0 0 0 0 0 0.08 0"/>
<feBlend mode="normal" in2="BackgroundImageFix" result="effect1_dropShadow_3911_46000"/>
<feBlend mode="normal" in="SourceGraphic" in2="effect1_dropShadow_3911_46000" result="shape"/>
</filter>
<filter id="filter2_d_3911_46000" x="511" y="40" width="92" height="92" filterUnits="userSpaceOnUse" color-interpolation-filters="sRGB">
<feFlood flood-opacity="0" result="BackgroundImageFix"/>
<feColorMatrix in="SourceAlpha" type="matrix" values="0 0 0 0 0 0 0 0 0 0 0 0 0 0 0 0 0 0 127 0" result="hardAlpha"/>
<feOffset dy="2"/>
<feGaussianBlur stdDeviation="5"/>
<feComposite in2="hardAlpha" operator="out"/>
<feColorMatrix type="matrix" values="0 0 0 0 0 0 0 0 0 0 0 0 0 0 0 0 0 0 0.1 0"/>
<feBlend mode="normal" in2="BackgroundImageFix" result="effect1_dropShadow_3911_46000"/>
<feBlend mode="normal" in="SourceGraphic" in2="effect1_dropShadow_3911_46000" result="shape"/>
</filter>
<filter id="filter3_d_3911_46000" x="166.5" y="50" width="178" height="70" filterUnits="userSpaceOnUse" color-interpolation-filters="sRGB">
<feFlood flood-opacity="0" result="BackgroundImageFix"/>
<feColorMatrix in="SourceAlpha" type="matrix" values="0 0 0 0 0 0 0 0 0 0 0 0 0 0 0 0 0 0 127 0" result="hardAlpha"/>
<feOffset dy="2"/>
<feGaussianBlur stdDeviation="5"/>
<feComposite in2="hardAlpha" operator="out"/>
<feColorMatrix type="matrix" values="0 0 0 0 0 0 0 0 0 0 0 0 0 0 0 0 0 0 0.08 0"/>
<feBlend mode="normal" in2="BackgroundImageFix" result="effect1_dropShadow_3911_46000"/>
<feBlend mode="normal" in="SourceGraphic" in2="effect1_dropShadow_3911_46000" result="shape"/>
</filter>
<clipPath id="clip0_3911_46000">
<rect width="18" height="18" fill="white" transform="translate(192.5 74)"/>
</clipPath>
</defs>
</svg>
