<svg width="85" height="99" viewBox="0 0 85 99" fill="none" xmlns="http://www.w3.org/2000/svg">
<path d="M39.4359 54.3345C41.3449 51.1205 44.1288 47.5737 47.7856 43.6945C50.4674 40.8571 52.4367 38.4697 53.697 36.5303C54.9557 34.5929 55.5865 32.394 55.5865 29.9336C55.5865 26.4357 54.3868 23.6693 51.9911 21.6345C49.5933 19.602 46.4033 18.5846 42.4225 18.5846C38.6021 18.5846 35.2105 19.5066 32.2451 21.351C29.2776 23.1953 26.779 25.7732 24.7487 29.0826L10 19.0101C13.4127 12.9587 18.0238 8.27701 23.8342 4.96528C29.6431 1.65587 36.5295 0 44.4943 0C53.8383 0 61.3343 2.31876 66.9827 6.95162C72.6299 11.5868 75.4545 18.0171 75.4545 26.2456C75.4545 30.1248 74.9056 33.5293 73.8085 36.4601C72.7113 39.3929 71.3708 41.8753 69.7866 43.9082C68.2019 45.9431 66.1485 48.2839 63.6311 50.9308C60.6237 54.0517 58.4295 56.6765 57.0494 58.8044C55.6663 60.9324 54.9765 63.5102 54.9765 66.5361H36.5714C36.5714 61.6185 37.5257 57.5512 39.4359 54.3345ZM37.4858 94.8402C35.2496 92.6142 34.1341 89.9033 34.1341 86.7079C34.1341 83.5148 35.2313 80.8454 37.4251 78.7016C39.6194 76.5586 42.4221 75.4865 45.8356 75.4865C49.2478 75.4865 52.0517 76.5582 54.246 78.7016C56.4402 80.8451 57.537 83.5148 57.537 86.7079C57.537 89.9033 56.4191 92.6142 54.1845 94.8402C51.9492 97.0682 49.1665 98.1818 45.8356 98.1818C42.5023 98.1818 39.7195 97.0686 37.4858 94.8402Z" fill="#EBF9F3"/>
<g clip-path="url(#clip0_0_884)">
<path d="M39.4359 54.7437C41.3449 51.5297 44.1288 47.9829 47.7856 44.1037C50.4674 41.2663 52.4367 38.8789 53.697 36.9395C54.9557 35.002 55.5865 32.8031 55.5865 30.3428C55.5865 26.8449 54.3868 24.0785 51.9911 22.0437C49.5933 20.0112 46.4033 18.9938 42.4225 18.9938C38.6021 18.9938 35.2105 19.9158 32.2451 21.7601C29.2776 23.6045 26.779 26.1824 24.7487 29.4918L10 19.4193C13.4127 13.3679 18.0238 8.68619 23.8342 5.37446C29.6431 2.06505 36.5295 0.40918 44.4943 0.40918C53.8383 0.40918 61.3343 2.72794 66.9827 7.3608C72.6299 11.996 75.4545 18.4263 75.4545 26.6548C75.4545 30.534 74.9056 33.9385 73.8085 36.8693C72.7113 39.8021 71.3708 42.2845 69.7866 44.3174C68.2019 46.3522 66.1485 48.6931 63.6311 51.34C60.6237 54.4609 58.4295 57.0857 57.0494 59.2136C55.6663 61.3415 54.9765 63.9194 54.9765 66.9453H36.5714C36.5714 62.0277 37.5257 57.9604 39.4359 54.7437ZM37.4858 95.2494C35.2496 93.0234 34.1341 90.3124 34.1341 87.1171C34.1341 83.924 35.2313 81.2546 37.4251 79.1108C39.6194 76.9678 42.4221 75.8956 45.8356 75.8956C49.2478 75.8956 52.0517 76.9674 54.246 79.1108C56.4402 81.2542 57.537 83.924 57.537 87.1171C57.537 90.3124 56.4191 93.0234 54.1845 95.2494C51.9492 97.4774 49.1665 98.591 45.8356 98.591C42.5023 98.591 39.7195 97.4778 37.4858 95.2494Z" fill="#9BDFC4"/>
</g>
<defs>
<clipPath id="clip0_0_884">
<rect width="65.4545" height="10.6364" fill="white" transform="translate(10 88.3633)"/>
</clipPath>
</defs>
</svg>
