<svg width="403" height="403" viewBox="0 0 403 403" fill="none" xmlns="http://www.w3.org/2000/svg">
<path d="M159.496 223.889C126.714 216.275 98.8843 219.869 75.5017 187.746C53.3895 157.384 59.597 130.576 82.2559 107.555C141.46 47.4421 200.359 123.894 274.19 136.148C338.516 146.826 357.267 253.021 301.842 290.001C283.984 301.925 248.894 312.901 227.995 296.836C198.743 274.313 204.557 234.343 159.496 223.889Z" fill="rgba(56, 152, 252, 1)"/>
<path opacity="0.9" d="M159.496 223.889C126.714 216.275 98.8843 219.869 75.5017 187.746C53.3895 157.384 59.597 130.576 82.2559 107.555C141.46 47.4421 200.359 123.894 274.19 136.148C338.516 146.826 357.267 253.021 301.842 290.001C283.984 301.925 248.894 312.901 227.995 296.836C198.743 274.313 204.557 234.343 159.496 223.889Z" fill="white"/>
<path d="M201.025 343.79C287.128 343.79 356.928 339.715 356.928 334.688C356.928 329.661 287.128 325.586 201.025 325.586C114.922 325.586 45.1221 329.661 45.1221 334.688C45.1221 339.715 114.922 343.79 201.025 343.79Z" fill="#F5F5F5"/>
<path d="M285.83 326.705C285.831 328.312 285.262 329.867 284.224 331.093C283.186 332.32 281.746 333.138 280.161 333.403C260.653 336.694 240.731 336.694 221.222 333.403C219.644 333.131 218.213 332.309 217.183 331.083C216.152 329.857 215.59 328.306 215.594 326.705V261.574H285.862L285.83 326.705Z" fill="rgba(56, 152, 252, 1)"/>
<path opacity="0.3" d="M215.553 262.748V271.89C219.783 273.458 233.669 274.608 250.692 274.608C267.714 274.608 281.625 273.458 285.83 271.89V262.748H215.553Z" fill="black"/>
<path d="M287.148 269.719C287.148 271.785 271.195 273.458 250.691 273.458C230.187 273.458 214.234 271.785 214.234 269.719L213.567 261.598H287.856L287.148 269.719Z" fill="rgba(56, 152, 252, 1)"/>
<path d="M250.691 265.329C271.195 265.329 287.816 263.659 287.816 261.598C287.816 259.538 271.195 257.867 250.691 257.867C230.188 257.867 213.567 259.538 213.567 261.598C213.567 263.659 230.188 265.329 250.691 265.329Z" fill="rgba(56, 152, 252, 1)"/>
<path opacity="0.3" d="M250.691 265.329C271.195 265.329 287.816 263.659 287.816 261.598C287.816 259.538 271.195 257.867 250.691 257.867C230.188 257.867 213.567 259.538 213.567 261.598C213.567 263.659 230.188 265.329 250.691 265.329Z" fill="black"/>
<path opacity="0.2" d="M224.98 322.123C224.257 322.121 223.565 321.833 223.055 321.322C222.544 320.812 222.256 320.12 222.254 319.397V282.056C222.256 281.334 222.544 280.642 223.055 280.131C223.565 279.62 224.257 279.332 224.98 279.33C225.701 279.334 226.392 279.623 226.903 280.133C227.413 280.643 227.701 281.334 227.706 282.056V319.397C227.701 320.119 227.413 320.81 226.903 321.32C226.392 321.83 225.701 322.119 224.98 322.123Z" fill="black"/>
<path opacity="0.2" d="M276.411 322.123C275.689 322.121 274.997 321.833 274.486 321.322C273.976 320.812 273.688 320.12 273.686 319.397V282.056C273.688 281.334 273.976 280.642 274.486 280.131C274.997 279.62 275.689 279.332 276.411 279.33C277.133 279.334 277.824 279.623 278.334 280.133C278.844 280.643 279.133 281.334 279.137 282.056V319.397C279.133 320.119 278.844 320.81 278.334 321.32C277.824 321.83 277.133 322.119 276.411 322.123Z" fill="black"/>
<path opacity="0.2" d="M259.263 322.123C258.541 322.119 257.85 321.83 257.34 321.32C256.83 320.81 256.541 320.119 256.537 319.397V282.056C256.541 281.334 256.83 280.643 257.34 280.133C257.85 279.623 258.541 279.334 259.263 279.33C259.985 279.332 260.677 279.62 261.188 280.131C261.699 280.642 261.987 281.334 261.989 282.056V319.397C261.987 320.12 261.699 320.812 261.188 321.322C260.677 321.833 259.985 322.121 259.263 322.123Z" fill="black"/>
<path opacity="0.2" d="M242.122 322.123C241.4 322.119 240.709 321.83 240.199 321.32C239.689 320.81 239.4 320.119 239.396 319.397V282.056C239.4 281.334 239.689 280.643 240.199 280.133C240.709 279.623 241.4 279.334 242.122 279.33C242.844 279.332 243.536 279.62 244.047 280.131C244.558 280.642 244.846 281.334 244.848 282.056V319.397C244.846 320.12 244.558 320.812 244.047 321.322C243.536 321.833 242.844 322.121 242.122 322.123Z" fill="black"/>
<path d="M155.09 111.897C155.09 112.634 154.871 113.356 154.461 113.969C154.051 114.583 153.468 115.061 152.787 115.343C152.105 115.626 151.355 115.699 150.631 115.555C149.908 115.412 149.243 115.056 148.721 114.534C148.199 114.013 147.844 113.348 147.7 112.624C147.556 111.901 147.63 111.151 147.912 110.469C148.195 109.787 148.673 109.205 149.286 108.795C149.9 108.385 150.621 108.166 151.359 108.166C152.348 108.166 153.297 108.559 153.997 109.259C154.696 109.958 155.09 110.907 155.09 111.897Z" fill="#263238"/>
<path d="M148.361 112.436C148.324 112.437 148.289 112.428 148.257 112.409C148.226 112.391 148.201 112.364 148.184 112.332C147.937 111.879 147.782 111.382 147.728 110.869C147.674 110.356 147.721 109.837 147.867 109.343C148.013 108.848 148.255 108.387 148.579 107.986C148.903 107.585 149.303 107.252 149.756 107.005C150.209 106.759 150.706 106.604 151.219 106.549C151.731 106.495 152.25 106.542 152.744 106.688C153.239 106.834 153.7 107.076 154.101 107.4C154.502 107.724 154.836 108.124 155.082 108.577C155.106 108.624 155.111 108.679 155.096 108.729C155.081 108.78 155.047 108.823 155.002 108.85C154.979 108.863 154.953 108.871 154.927 108.874C154.9 108.877 154.874 108.874 154.848 108.867C154.823 108.859 154.799 108.847 154.779 108.83C154.758 108.814 154.741 108.793 154.728 108.77C154.282 107.949 153.527 107.339 152.631 107.075C151.734 106.81 150.77 106.912 149.949 107.359C149.128 107.806 148.518 108.56 148.253 109.457C147.989 110.353 148.091 111.318 148.538 112.139C148.55 112.162 148.558 112.187 148.561 112.214C148.564 112.24 148.562 112.267 148.554 112.292C148.547 112.317 148.534 112.341 148.518 112.362C148.501 112.382 148.481 112.399 148.457 112.412C148.427 112.427 148.394 112.436 148.361 112.436Z" fill="#263238"/>
<path d="M144.732 128.943C144.005 128.94 143.293 128.735 142.675 128.352C142.058 127.969 141.558 127.423 141.233 126.773C140.907 126.123 140.768 125.396 140.831 124.672C140.893 123.948 141.155 123.255 141.588 122.671C141.896 122.258 142.283 121.91 142.726 121.647C143.168 121.383 143.659 121.21 144.169 121.136C144.195 121.131 144.221 121.132 144.247 121.138C144.273 121.144 144.297 121.156 144.318 121.171C144.339 121.187 144.357 121.207 144.37 121.23C144.383 121.253 144.391 121.278 144.394 121.305C144.401 121.357 144.387 121.409 144.355 121.452C144.324 121.494 144.277 121.522 144.225 121.53C143.301 121.665 142.468 122.162 141.91 122.912C141.352 123.661 141.115 124.601 141.25 125.526C141.386 126.45 141.883 127.283 142.632 127.841C143.381 128.398 144.322 128.636 145.246 128.5C145.299 128.492 145.354 128.505 145.398 128.536C145.441 128.568 145.471 128.616 145.479 128.669C145.488 128.723 145.475 128.777 145.443 128.821C145.411 128.864 145.364 128.894 145.31 128.902C145.118 128.928 144.925 128.941 144.732 128.943Z" fill="#263238"/>
<path d="M165.006 135.019C164.252 135.018 163.515 134.798 162.884 134.384C162.839 134.355 162.807 134.309 162.795 134.256C162.783 134.204 162.792 134.149 162.82 134.103C162.85 134.059 162.897 134.029 162.949 134.019C163.001 134.008 163.056 134.018 163.101 134.046C163.885 134.555 164.838 134.731 165.752 134.537C166.666 134.342 167.465 133.793 167.973 133.009C168.482 132.226 168.658 131.272 168.464 130.358C168.269 129.445 167.72 128.646 166.936 128.137C166.891 128.107 166.859 128.062 166.847 128.009C166.835 127.957 166.844 127.902 166.872 127.856C166.903 127.812 166.949 127.782 167.001 127.772C167.053 127.761 167.108 127.771 167.153 127.799C168.025 128.367 168.636 129.257 168.853 130.274C169.07 131.291 168.875 132.353 168.311 133.226C168.032 133.661 167.67 134.036 167.245 134.329C166.819 134.621 166.34 134.826 165.835 134.931C165.562 134.988 165.285 135.018 165.006 135.019Z" fill="#263238"/>
<path d="M149.272 123.534C152.185 123.534 154.547 121.172 154.547 118.259C154.547 115.346 152.185 112.984 149.272 112.984C146.359 112.984 143.997 115.346 143.997 118.259C143.997 121.172 146.359 123.534 149.272 123.534Z" fill="#263238"/>
<path d="M154.218 130.306C156.95 127.574 156.95 123.145 154.218 120.413C151.486 117.681 147.057 117.681 144.325 120.413C141.593 123.145 141.593 127.574 144.325 130.306C147.057 133.038 151.486 133.038 154.218 130.306Z" fill="#263238"/>
<path d="M150.009 141.986C154.281 141.986 157.745 138.523 157.745 134.251C157.745 129.979 154.281 126.516 150.009 126.516C145.738 126.516 142.274 129.979 142.274 134.251C142.274 138.523 145.738 141.986 150.009 141.986Z" fill="#263238"/>
<path d="M165.275 136.553C166.256 132.395 163.681 128.229 159.523 127.248C155.366 126.266 151.2 128.841 150.218 132.999C149.237 137.157 151.812 141.323 155.97 142.304C160.127 143.285 164.293 140.71 165.275 136.553Z" fill="#263238"/>
<path d="M183.404 150.734C183.404 151.361 183.404 152.157 183.461 152.881C183.517 153.605 183.517 154.376 183.565 155.124C183.67 156.62 183.774 158.132 183.935 159.635C184.225 162.653 184.629 165.658 185.149 168.649C185.286 169.389 185.407 170.144 185.559 170.884L185.913 172.709C186.002 172.999 185.913 172.943 185.801 172.935C185.688 172.927 185.801 173.079 186.275 173.079C187.489 172.958 188.672 172.617 189.765 172.074C190.408 171.785 191.067 171.471 191.727 171.134C192.386 170.796 193.053 170.41 193.656 170.072L196.004 172.782C195.444 173.423 194.848 174.033 194.219 174.607C193.6 175.197 192.945 175.747 192.257 176.255C191.537 176.798 190.776 177.284 189.982 177.711C189.078 178.204 188.109 178.567 187.103 178.788C186.483 178.924 185.848 178.978 185.214 178.949C184.44 178.904 183.681 178.713 182.978 178.386C182.231 178.035 181.565 177.531 181.024 176.907C180.56 176.364 180.18 175.754 179.899 175.098C179.68 174.595 179.503 174.076 179.368 173.546L179.054 172.372C178.829 171.568 178.644 170.804 178.451 170.016C177.699 166.855 177.119 163.655 176.714 160.431C176.513 158.823 176.353 157.215 176.256 155.567C176.208 154.762 176.168 153.958 176.144 153.106C176.119 152.254 176.144 151.498 176.144 150.541L183.404 150.734Z" fill="#FFB573"/>
<path d="M179.501 142.066C186.36 147.316 186.086 157.214 186.086 157.214L173.817 160.149C173.817 160.149 170.054 150.195 171.581 146.553C173.173 142.757 175.642 139.107 179.501 142.066Z" fill="rgba(56, 152, 252, 1)"/>
<path opacity="0.7" d="M179.501 142.066C186.36 147.316 186.086 157.214 186.086 157.214L173.817 160.149C173.817 160.149 170.054 150.195 171.581 146.553C173.173 142.757 175.642 139.107 179.501 142.066Z" fill="white"/>
<path d="M193.196 170.997L195.222 167.588L200.304 173.023C200.304 173.023 196.662 175.355 192.883 173.69L193.196 170.997Z" fill="#FFB573"/>
<path d="M197.721 165.955L204.241 169.798L200.302 173.022L195.22 167.587L197.721 165.955Z" fill="#FFB573"/>
<path d="M141.111 328.757L148.122 329.432L152.48 313.005L145.461 312.33L141.111 328.757Z" fill="#FFB573"/>
<path d="M105.164 314.952L111.459 318.249L118.945 303.406L112.649 300.109L105.164 314.952Z" fill="#FFB573"/>
<path d="M113.143 315.362L107.514 309.645C107.421 309.545 107.293 309.483 107.157 309.471C107.02 309.459 106.884 309.498 106.774 309.581L101.604 313.384C101.479 313.485 101.376 313.611 101.303 313.754C101.229 313.897 101.186 314.054 101.177 314.215C101.168 314.375 101.193 314.536 101.25 314.687C101.307 314.837 101.395 314.974 101.508 315.088C103.502 317.05 104.563 317.895 107.04 320.411C108.567 321.955 111.703 325.598 113.81 327.736C115.917 329.875 118.136 327.905 117.452 326.828C114.381 322.003 113.866 318.972 113.673 316.52C113.638 316.083 113.45 315.673 113.143 315.362Z" fill="#263238"/>
<path d="M149.214 327.302H140.715C140.563 327.303 140.416 327.354 140.295 327.447C140.175 327.54 140.088 327.669 140.048 327.816L138.231 334.498C138.185 334.657 138.178 334.824 138.209 334.986C138.24 335.148 138.309 335.301 138.41 335.432C138.511 335.562 138.641 335.668 138.79 335.739C138.939 335.81 139.103 335.845 139.268 335.841C142.251 335.841 143.666 335.841 147.389 335.841H158.783C161.879 335.841 162.53 332.713 161.243 332.424C155.502 331.153 152.189 329.4 150.42 327.728C150.085 327.441 149.655 327.289 149.214 327.302Z" fill="#263238"/>
<path opacity="0.2" d="M152.468 313.017L150.225 321.483H143.029L145.449 312.342L152.468 313.017Z" fill="black"/>
<path opacity="0.2" d="M112.642 300.109L118.946 303.414L115.087 311.061L108.783 307.756L112.642 300.109Z" fill="black"/>
<path d="M177.429 141.054C177.429 141.054 180.533 142.412 170.128 183.581L141.229 181.081C142.733 169.365 143.368 162.112 139.838 137.483C143.958 137.001 148.107 136.816 152.253 136.929C156.649 136.995 161.034 137.374 165.376 138.062C169.442 138.855 173.465 139.853 177.429 141.054Z" fill="rgba(56, 152, 252, 1)"/>
<path opacity="0.7" d="M177.429 141.054C177.429 141.054 180.533 142.412 170.128 183.581L141.229 181.081C142.733 169.365 143.368 162.112 139.838 137.483C143.958 137.001 148.107 136.816 152.253 136.929C156.649 136.995 161.034 137.374 165.376 138.062C169.442 138.855 173.465 139.853 177.429 141.054Z" fill="white"/>
<path d="M152.253 136.695C152.253 136.695 150.645 136.695 148.675 136.695C147.509 138.488 152.43 143.723 158.686 148.869C160.198 144.181 162.578 144.197 162.578 144.197L152.253 136.695Z" fill="white"/>
<path d="M165.367 137.957C165.367 137.957 166.099 138.062 167.852 138.464C169.01 140.257 169.661 144.743 166.244 148.651C164.901 143.827 162.585 144.261 162.585 144.261L165.367 137.957Z" fill="white"/>
<path d="M154.823 122.264C155.289 126.557 155.442 134.325 152.25 136.93C152.25 136.93 155.659 140.42 162.574 144.263C167.591 140.79 165.372 138.064 165.372 138.064C160.757 136.536 161.183 133.054 162.284 129.838L154.823 122.264Z" fill="#FFB573"/>
<path opacity="0.2" d="M157.874 125.359L162.288 129.838C162.017 130.582 161.812 131.349 161.676 132.129C159.908 131.719 157.335 129.87 157.303 127.972C157.334 127.074 157.527 126.189 157.874 125.359Z" fill="black"/>
<path d="M171.403 108.254C174.362 110.875 175.23 117.259 172.416 121.593C171.571 117.2 171.231 112.724 171.403 108.254Z" fill="#263238"/>
<path d="M153.925 113.246C153.411 120.314 153.049 123.297 156.104 127.373C160.704 133.509 169.5 132.584 172.114 125.814C174.47 119.711 174.912 109.177 168.423 105.462C166.997 104.63 165.381 104.177 163.731 104.148C162.08 104.119 160.449 104.513 158.994 105.294C157.54 106.075 156.31 107.216 155.422 108.609C154.535 110.001 154.019 111.597 153.925 113.246Z" fill="#FFB573"/>
<path d="M152.983 118.941C158.209 118.74 161.104 111.906 159.793 109.019C165.72 112.107 174.693 114.535 173.696 110.563C172.353 105.2 165.864 101.268 157.88 104.13C153.256 106.14 149.3 110.563 152.983 118.941Z" fill="#263238"/>
<path d="M151.39 118.932C151.613 120.284 152.358 121.493 153.464 122.301C154.943 123.354 156.294 122.18 156.399 120.468C156.495 118.916 155.844 116.504 154.107 116.134C153.727 116.059 153.334 116.08 152.964 116.195C152.593 116.31 152.258 116.516 151.988 116.795C151.718 117.073 151.521 117.414 151.417 117.787C151.313 118.161 151.303 118.554 151.39 118.932Z" fill="#FFB573"/>
<path d="M170.127 183.584C170.127 183.584 176.664 226.241 173.022 253.644C170.264 274.349 152.47 319.024 152.47 319.024L140.915 318.71C140.915 318.71 152.848 275.41 155.316 258.404C159.538 229.28 148.964 181.783 148.964 181.783L170.127 183.584Z" fill="#263238"/>
<path opacity="0.2" d="M158.854 192.322L152.687 202.044C154.544 213.57 155.723 225.196 156.217 236.86C164.885 221.342 160.816 200.532 158.854 192.322Z" fill="black"/>
<path d="M154.272 319.663L139.751 319.269L140.635 314.598L155.639 314.686L154.272 319.663Z" fill="rgba(56, 152, 252, 1)"/>
<path d="M163.808 183.122C163.808 183.122 158.984 230.353 147.96 256.052C139.042 276.797 117.783 309.981 117.783 309.981L109.292 305.012C109.292 305.012 122.961 268.113 129.707 254.283C146.167 220.375 130.857 193.173 141.23 181.111L163.808 183.122Z" fill="#263238"/>
<path d="M118.707 310.708L107.876 304.766L109.637 300.135L121.175 306.648L118.707 310.708Z" fill="rgba(56, 152, 252, 1)"/>
<path d="M140.936 179.351L139.408 181.828C139.296 182.013 139.513 182.246 139.851 182.27L170.156 184.891C170.414 184.891 170.647 184.803 170.671 184.642L171.161 182.077C171.161 181.9 170.977 181.731 170.695 181.707L141.427 179.174C141.337 179.16 141.245 179.17 141.159 179.2C141.073 179.231 140.997 179.283 140.936 179.351Z" fill="rgba(56, 152, 252, 1)"/>
<path d="M144.589 182.964L143.785 182.9C143.633 182.9 143.52 182.795 143.536 182.699L144.195 179.37C144.195 179.266 144.364 179.201 144.517 179.217L145.321 179.282C145.482 179.282 145.594 179.386 145.57 179.483L144.919 182.811C144.887 182.908 144.734 182.98 144.589 182.964Z" fill="#263238"/>
<path d="M167.934 184.981L167.13 184.917C166.969 184.917 166.857 184.812 166.881 184.716L167.54 181.387C167.54 181.291 167.701 181.219 167.854 181.235L168.658 181.299C168.81 181.299 168.923 181.404 168.907 181.5L168.248 184.829C168.231 184.941 168.055 184.997 167.934 184.981Z" fill="#263238"/>
<path d="M156.256 183.974L155.452 183.901C155.299 183.901 155.187 183.797 155.203 183.7L155.862 180.372C155.862 180.275 156.023 180.203 156.184 180.219L156.988 180.291C157.14 180.291 157.253 180.396 157.237 180.492L156.578 183.821C156.561 183.917 156.417 183.982 156.256 183.974Z" fill="#263238"/>
<path d="M164.996 116.761C164.916 117.332 165.157 117.838 165.527 117.886C165.897 117.935 166.267 117.517 166.331 116.946C166.395 116.375 166.162 115.868 165.792 115.82C165.423 115.772 165.069 116.19 164.996 116.761Z" fill="#263238"/>
<path d="M171.443 117.628C171.371 118.199 171.612 118.705 171.982 118.754C172.352 118.802 172.722 118.384 172.786 117.813C172.85 117.242 172.625 116.736 172.256 116.687C171.886 116.639 171.524 117.057 171.443 117.628Z" fill="#263238"/>
<path d="M172.073 116.697L173.504 116.488C173.504 116.488 172.668 117.461 172.073 116.697Z" fill="#263238"/>
<path d="M168.915 118.258C169.25 119.627 169.77 120.944 170.459 122.173C170.141 122.342 169.79 122.44 169.43 122.459C169.07 122.479 168.711 122.42 168.376 122.286L168.915 118.258Z" fill="#ED893E"/>
<path d="M165.03 123.992C163.899 123.624 162.951 122.839 162.377 121.797C162.362 121.764 162.361 121.727 162.373 121.692C162.385 121.658 162.409 121.63 162.441 121.613C162.475 121.596 162.515 121.593 162.551 121.605C162.587 121.617 162.617 121.643 162.634 121.677C162.991 122.303 163.491 122.836 164.093 123.233C164.695 123.63 165.383 123.879 166.099 123.96C166.135 123.96 166.17 123.975 166.196 124C166.221 124.026 166.236 124.061 166.236 124.097C166.236 124.133 166.221 124.168 166.196 124.194C166.17 124.219 166.135 124.234 166.099 124.234C165.735 124.193 165.376 124.112 165.03 123.992Z" fill="#263238"/>
<path d="M162.06 113.456C162.013 113.437 161.972 113.406 161.939 113.368C161.913 113.342 161.892 113.311 161.877 113.278C161.863 113.244 161.855 113.207 161.855 113.171C161.855 113.134 161.863 113.097 161.877 113.064C161.892 113.03 161.913 112.999 161.939 112.974C162.333 112.621 162.807 112.37 163.319 112.241C163.832 112.112 164.368 112.11 164.882 112.234C164.917 112.244 164.95 112.261 164.978 112.284C165.007 112.307 165.03 112.335 165.047 112.368C165.065 112.4 165.075 112.435 165.079 112.472C165.082 112.508 165.078 112.545 165.067 112.58C165.046 112.651 164.998 112.711 164.934 112.747C164.869 112.783 164.793 112.792 164.721 112.773C164.298 112.678 163.859 112.686 163.44 112.795C163.02 112.904 162.633 113.111 162.309 113.4C162.274 113.427 162.234 113.445 162.191 113.455C162.148 113.465 162.103 113.465 162.06 113.456Z" fill="#263238"/>
<path d="M174.154 115.168C174.112 115.151 174.074 115.127 174.041 115.095C173.759 114.765 173.404 114.505 173.003 114.337C172.602 114.17 172.167 114.099 171.734 114.131C171.697 114.139 171.659 114.139 171.622 114.131C171.586 114.124 171.551 114.108 171.52 114.086C171.49 114.064 171.465 114.036 171.446 114.004C171.427 113.971 171.416 113.935 171.412 113.897C171.401 113.824 171.419 113.749 171.462 113.688C171.506 113.628 171.572 113.588 171.645 113.576C172.17 113.529 172.699 113.608 173.187 113.806C173.675 114.005 174.108 114.317 174.451 114.717C174.49 114.764 174.513 114.822 174.517 114.882C174.52 114.943 174.504 115.003 174.471 115.054C174.437 115.104 174.388 115.143 174.331 115.163C174.274 115.184 174.212 115.185 174.154 115.168Z" fill="#263238"/>
<path d="M180.517 175.835C181.037 174.213 181.872 172.71 182.974 171.411C184.075 170.111 185.422 169.042 186.937 168.263C188.452 167.484 190.105 167.012 191.803 166.872C193.501 166.732 195.209 166.928 196.831 167.449C198.453 167.969 199.957 168.804 201.256 169.906C202.555 171.007 203.625 172.354 204.403 173.869C205.182 175.384 205.655 177.038 205.795 178.735C205.934 180.433 205.738 182.142 205.218 183.763L200.216 199.411L175.515 191.475L180.517 175.835Z" fill="rgba(56, 152, 252, 1)"/>
<path opacity="0.3" d="M180.517 175.835C181.037 174.213 181.872 172.71 182.974 171.411C184.075 170.111 185.422 169.042 186.937 168.263C188.452 167.484 190.105 167.012 191.803 166.872C193.501 166.732 195.209 166.928 196.831 167.449C198.453 167.969 199.957 168.804 201.256 169.906C202.555 171.007 203.625 172.354 204.403 173.869C205.182 175.384 205.655 177.038 205.795 178.735C205.934 180.433 205.738 182.142 205.218 183.763L200.216 199.411L175.515 191.475L180.517 175.835Z" fill="black"/>
<path d="M156.144 168.005L151.625 182.077C151.559 182.279 151.534 182.492 151.55 182.704C151.567 182.916 151.626 183.123 151.723 183.312C151.82 183.501 151.954 183.669 152.117 183.807C152.279 183.944 152.468 184.047 152.671 184.111L175.506 191.444L180.524 175.829C181.577 172.557 183.886 169.836 186.943 168.265C190.001 166.694 193.557 166.401 196.831 167.451L172.459 159.619C169.183 158.571 165.626 158.866 162.567 160.439C159.509 162.011 157.199 164.732 156.144 168.005Z" fill="rgba(56, 152, 252, 1)"/>
<path d="M168.401 178.674L174.697 159.079C174.718 159.009 174.725 158.934 174.715 158.861C174.706 158.788 174.681 158.718 174.642 158.656C174.603 158.593 174.551 158.54 174.49 158.499C174.428 158.458 174.359 158.431 174.287 158.42L167.854 157.471L167.05 160.012L171.738 161.515L166.431 178.031L168.401 178.674Z" fill="#263238"/>
<path d="M165.055 177.599C164.91 178.053 164.902 178.54 165.034 178.998C165.165 179.456 165.429 179.865 165.793 180.174C166.156 180.482 166.603 180.676 167.077 180.73C167.55 180.785 168.03 180.697 168.454 180.48C168.878 180.262 169.228 179.924 169.46 179.507C169.692 179.09 169.795 178.615 169.757 178.139C169.718 177.664 169.54 177.211 169.244 176.837C168.948 176.463 168.548 176.185 168.094 176.039C167.792 175.941 167.474 175.904 167.158 175.93C166.842 175.955 166.533 176.043 166.251 176.188C165.969 176.333 165.718 176.532 165.513 176.774C165.307 177.016 165.152 177.296 165.055 177.599Z" fill="#263238"/>
<path d="M176.697 193.785L208.377 203.956C208.492 203.994 208.614 204.008 208.734 203.998C208.855 203.989 208.973 203.955 209.08 203.9C209.188 203.845 209.284 203.768 209.362 203.676C209.44 203.584 209.499 203.476 209.535 203.361C209.574 203.246 209.589 203.124 209.58 203.003C209.571 202.882 209.537 202.765 209.482 202.657C209.427 202.549 209.35 202.453 209.257 202.375C209.164 202.297 209.056 202.239 208.94 202.203L175.507 191.469C175.357 191.934 175.399 192.439 175.622 192.873C175.845 193.307 176.232 193.635 176.697 193.785Z" fill="rgba(56, 152, 252, 1)"/>
<path opacity="0.2" d="M176.697 193.784L189.642 197.941C189.758 197.979 189.879 197.993 190.001 197.984C190.122 197.974 190.24 197.941 190.348 197.886C190.457 197.83 190.553 197.754 190.632 197.662C190.711 197.569 190.77 197.462 190.808 197.346C190.881 197.114 190.86 196.862 190.749 196.645C190.637 196.428 190.445 196.264 190.213 196.189L175.507 191.469C175.357 191.934 175.399 192.439 175.622 192.873C175.845 193.307 176.232 193.635 176.697 193.784Z" fill="black"/>
<path d="M143.238 148.838L142.796 149.328L142.298 149.899C141.96 150.285 141.622 150.703 141.3 151.097C140.641 151.901 140.014 152.761 139.427 153.63C136.997 157.069 135.085 160.845 133.75 164.839C133.429 165.836 133.131 166.833 132.898 167.854C132.817 168.152 132.809 168.272 132.769 168.409C132.763 168.527 132.763 168.645 132.769 168.763C132.756 168.888 132.756 169.015 132.769 169.141C132.769 169.285 133.043 169.623 133.702 169.945C134.495 170.301 135.33 170.555 136.187 170.7C138.255 171.029 140.349 171.167 142.442 171.111C144.629 171.111 146.849 170.918 149.068 170.684C151.287 170.451 153.539 170.162 155.718 169.832L156.594 173.314C152.106 174.774 147.488 175.8 142.804 176.377C140.338 176.698 137.844 176.752 135.366 176.538C133.95 176.405 132.559 176.075 131.233 175.557C130.438 175.238 129.692 174.811 129.014 174.287C128.216 173.661 127.559 172.875 127.084 171.979C126.268 170.298 126.049 168.389 126.465 166.567C126.658 165.337 126.94 164.155 127.269 162.917C127.9 160.54 128.74 158.223 129.778 155.994C130.819 153.759 132.031 151.609 133.404 149.561C134.096 148.54 134.836 147.551 135.608 146.578C136.002 146.096 136.412 145.621 136.814 145.147L137.465 144.447C137.698 144.198 137.883 143.997 138.205 143.691L143.238 148.838Z" fill="#FFB573"/>
<path d="M153.964 170.571L159.592 167.588L159.841 173.634C159.841 173.634 155.821 175.298 153.522 173.465L153.964 170.571Z" fill="#FFB573"/>
<path d="M164.237 167.129L163.392 172.701L159.855 173.633L159.605 167.587L164.237 167.129Z" fill="#FFB573"/>
<path d="M139.838 137.501C136.292 138.128 131.331 148.291 131.331 148.291L140.264 156.332C140.264 156.332 147.364 148.58 146.986 143.965C146.664 140.065 144.348 136.696 139.838 137.501Z" fill="rgba(56, 152, 252, 1)"/>
<path opacity="0.7" d="M139.838 137.501C136.292 138.128 131.331 148.291 131.331 148.291L140.264 156.332C140.264 156.332 147.364 148.58 146.986 143.965C146.664 140.065 144.348 136.696 139.838 137.501Z" fill="white"/>
<path d="M115.907 318.464C115.813 318.477 115.719 318.477 115.625 318.464C114.733 318.416 113.784 317.049 113.294 316.245C113.279 316.223 113.271 316.196 113.271 316.169C113.271 316.142 113.279 316.115 113.294 316.092C113.309 316.069 113.331 316.05 113.357 316.04C113.383 316.03 113.412 316.028 113.439 316.036C113.728 316.092 116.228 316.655 116.542 317.499C116.575 317.591 116.583 317.69 116.566 317.786C116.549 317.881 116.508 317.971 116.446 318.046C116.317 318.241 116.128 318.388 115.907 318.464ZM113.712 316.422C114.427 317.524 115.135 318.183 115.642 318.215C115.757 318.217 115.871 318.19 115.972 318.135C116.074 318.08 116.159 317.999 116.22 317.901C116.255 317.866 116.279 317.822 116.289 317.773C116.299 317.725 116.295 317.674 116.277 317.628C116.084 317.114 114.58 316.631 113.712 316.422Z" fill="rgba(56, 152, 252, 1)"/>
<path d="M115.65 316.244C114.909 316.448 114.131 316.481 113.375 316.341C113.351 316.333 113.33 316.319 113.313 316.301C113.296 316.283 113.284 316.26 113.278 316.236C113.267 316.215 113.261 316.192 113.261 316.168C113.261 316.144 113.267 316.12 113.278 316.099C113.343 316.043 114.806 314.612 115.827 314.684C115.953 314.686 116.077 314.718 116.189 314.776C116.301 314.835 116.397 314.919 116.47 315.022C116.558 315.116 116.612 315.237 116.624 315.365C116.635 315.493 116.604 315.621 116.535 315.73C116.304 315.993 115.993 316.173 115.65 316.244ZM113.713 316.115C114.517 316.228 116.02 316.027 116.334 315.569C116.382 315.496 116.422 315.384 116.277 315.199C116.229 315.128 116.164 315.07 116.088 315.03C116.013 314.989 115.929 314.967 115.843 314.966C115.144 314.917 114.131 315.738 113.713 316.115Z" fill="rgba(56, 152, 252, 1)"/>
<path d="M152.214 328.38C151.437 328.361 150.664 328.262 149.907 328.082C149.88 328.073 149.857 328.055 149.841 328.032C149.825 328.009 149.816 327.982 149.816 327.954C149.816 327.926 149.825 327.898 149.841 327.875C149.857 327.852 149.88 327.835 149.907 327.825C150.253 327.656 153.332 326.217 154.104 326.764C154.173 326.811 154.229 326.877 154.264 326.953C154.3 327.03 154.314 327.114 154.305 327.198C154.301 327.355 154.261 327.509 154.189 327.649C154.117 327.788 154.013 327.909 153.887 328.002C153.382 328.299 152.798 328.432 152.214 328.38ZM150.389 327.898C151.298 328.066 152.986 328.291 153.686 327.769C153.775 327.698 153.849 327.61 153.902 327.508C153.954 327.407 153.985 327.296 153.991 327.182C153.998 327.147 153.994 327.11 153.98 327.077C153.966 327.044 153.941 327.016 153.911 326.997C153.477 326.7 151.66 327.335 150.365 327.898H150.389Z" fill="rgba(56, 152, 252, 1)"/>
<path d="M149.928 328.066C149.899 328.073 149.868 328.073 149.839 328.066C149.82 328.047 149.805 328.025 149.797 327.999C149.788 327.974 149.786 327.947 149.791 327.921C149.791 327.792 150.523 324.761 152.203 324.954C152.621 325.01 152.734 325.211 152.758 325.38C152.862 326.184 150.925 327.704 150 328.09L149.928 328.066ZM152.034 325.195C150.973 325.195 150.354 326.964 150.145 327.672C151.15 327.141 152.557 325.879 152.468 325.388C152.468 325.348 152.468 325.236 152.155 325.203L152.034 325.195Z" fill="rgba(56, 152, 252, 1)"/>
<path d="M165.639 115.83L167.062 115.621C167.062 115.621 166.218 116.594 165.639 115.83Z" fill="#263238"/>
<g filter="url(#filter0_d_808_1971)">
<circle cx="200.117" cy="184.986" r="12.1169" fill="rgba(56, 152, 252, 1)"/>
<path d="M200.393 186.313C200.378 186.313 200.355 186.313 200.34 186.313C200.318 186.313 200.288 186.313 200.266 186.313C198.573 186.261 197.306 184.941 197.306 183.316C197.306 181.66 198.655 180.311 200.311 180.311C201.966 180.311 203.316 181.66 203.316 183.316C203.308 184.949 202.033 186.261 200.415 186.313C200.4 186.313 200.4 186.313 200.393 186.313ZM200.303 181.422C199.259 181.422 198.417 182.272 198.417 183.308C198.417 184.33 199.215 185.157 200.229 185.195C200.251 185.187 200.326 185.187 200.4 185.195C201.399 185.142 202.182 184.322 202.19 183.308C202.19 182.272 201.347 181.422 200.303 181.422Z" fill="#7375C1"/>
<path d="M200.304 193.188C198.298 193.188 196.382 192.442 194.898 191.085C194.764 190.966 194.704 190.787 194.719 190.615C194.816 189.728 195.368 188.9 196.285 188.289C198.507 186.813 202.109 186.813 204.323 188.289C205.24 188.908 205.792 189.728 205.889 190.615C205.911 190.794 205.844 190.966 205.71 191.085C204.226 192.442 202.31 193.188 200.304 193.188ZM195.89 190.466C197.128 191.503 198.686 192.069 200.304 192.069C201.922 192.069 203.481 191.503 204.718 190.466C204.584 190.011 204.226 189.571 203.697 189.214C201.862 187.991 198.753 187.991 196.904 189.214C196.374 189.571 196.024 190.011 195.89 190.466Z" fill="#7375C1"/>
<path d="M200.304 193.188C195.882 193.188 192.288 189.594 192.288 185.172C192.288 180.75 195.882 177.156 200.304 177.156C204.726 177.156 208.32 180.75 208.32 185.172C208.32 189.594 204.726 193.188 200.304 193.188ZM200.304 178.275C196.501 178.275 193.407 181.369 193.407 185.172C193.407 188.975 196.501 192.069 200.304 192.069C204.107 192.069 207.201 188.975 207.201 185.172C207.201 181.369 204.107 178.275 200.304 178.275Z" fill="#CACBE8"/>
</g>
<g filter="url(#filter1_d_808_1971)">
<circle cx="227.597" cy="214.664" r="12.1169" transform="rotate(109.307 227.597 214.664)" fill="rgba(56, 152, 252, 1)"/>
<path d="M226.253 214.485C226.258 214.471 226.266 214.45 226.271 214.436C226.278 214.415 226.288 214.387 226.295 214.366C226.904 212.786 228.569 212.026 230.103 212.563C231.665 213.11 232.493 214.83 231.945 216.393C231.398 217.955 229.678 218.782 228.116 218.235C226.577 217.688 225.76 216.051 226.246 214.507C226.251 214.492 226.251 214.492 226.253 214.485ZM230.899 216.018C231.244 215.033 230.721 213.957 229.743 213.614C228.779 213.276 227.734 213.756 227.363 214.7C227.363 214.724 227.338 214.794 227.306 214.862C227.025 215.823 227.541 216.833 228.495 217.175C229.473 217.518 230.554 217.003 230.899 216.018Z" fill="#7375C1"/>
<path d="M219.794 212.127C220.457 210.234 221.795 208.672 223.566 207.72C223.723 207.633 223.912 207.636 224.069 207.707C224.874 208.092 225.473 208.886 225.747 209.954C226.405 212.539 225.215 215.938 223.089 217.54C222.202 218.201 221.245 218.45 220.376 218.248C220.199 218.21 220.06 218.09 219.991 217.924C219.201 216.075 219.131 214.02 219.794 212.127ZM223.822 208.861C222.435 209.686 221.385 210.97 220.85 212.497C220.315 214.024 220.334 215.682 220.903 217.193C221.377 217.217 221.911 217.024 222.423 216.643C224.184 215.316 225.212 212.382 224.669 210.232C224.507 209.614 224.207 209.138 223.822 208.861Z" fill="#7375C1"/>
<path d="M219.794 212.128C221.256 207.955 225.837 205.751 230.01 207.213C234.183 208.675 236.386 213.255 234.924 217.428C233.463 221.601 228.882 223.805 224.709 222.343C220.536 220.881 218.332 216.301 219.794 212.128ZM233.869 217.059C235.126 213.47 233.229 209.526 229.64 208.269C226.051 207.011 222.107 208.909 220.85 212.498C219.593 216.087 221.49 220.03 225.079 221.287C228.668 222.545 232.612 220.647 233.869 217.059Z" fill="#CACBE8"/>
</g>
<g filter="url(#filter2_d_808_1971)">
<circle cx="251.806" cy="248.767" r="12.1169" transform="rotate(-169.074 251.806 248.767)" fill="rgba(56, 152, 252, 1)"/>
<path d="M251.788 247.41C251.802 247.413 251.824 247.417 251.839 247.42C251.861 247.424 251.89 247.43 251.912 247.434C253.564 247.806 254.559 249.342 254.251 250.938C253.937 252.563 252.356 253.633 250.731 253.319C249.105 253.005 248.036 251.424 248.35 249.799C248.666 248.197 250.167 247.15 251.766 247.406C251.78 247.408 251.78 247.408 251.788 247.41ZM250.949 252.23C251.974 252.428 252.962 251.753 253.158 250.735C253.352 249.732 252.725 248.768 251.737 248.539C251.713 248.542 251.64 248.528 251.568 248.507C250.577 248.369 249.653 249.025 249.454 250.02C249.257 251.037 249.924 252.032 250.949 252.23Z" fill="#7375C1"/>
<path d="M253.178 240.676C255.148 241.057 256.888 242.152 258.088 243.766C258.197 243.908 258.222 244.095 258.174 244.261C257.911 245.114 257.212 245.822 256.196 246.248C253.734 247.277 250.198 246.594 248.304 244.725C247.52 243.943 247.134 243.033 247.207 242.144C247.219 241.964 247.317 241.808 247.472 241.716C249.186 240.665 251.209 240.296 253.178 240.676ZM256.997 244.185C255.978 242.933 254.555 242.081 252.966 241.775C251.378 241.468 249.74 241.729 248.328 242.512C248.374 242.984 248.642 243.484 249.094 243.936C250.663 245.484 253.716 246.073 255.764 245.223C256.351 244.972 256.779 244.607 256.997 244.185Z" fill="#7375C1"/>
<path d="M253.178 240.677C257.52 241.515 260.368 245.725 259.53 250.067C258.691 254.409 254.481 257.256 250.14 256.418C245.798 255.58 242.95 251.37 243.788 247.028C244.627 242.687 248.837 239.839 253.178 240.677ZM250.352 255.32C254.086 256.041 257.711 253.589 258.431 249.855C259.152 246.121 256.7 242.496 252.966 241.775C249.232 241.055 245.607 243.507 244.887 247.24C244.166 250.974 246.618 254.599 250.352 255.32Z" fill="#CACBE8"/>
</g>
<defs>
<filter id="filter0_d_808_1971" x="184.701" y="172.869" width="30.8311" height="30.8316" filterUnits="userSpaceOnUse" color-interpolation-filters="sRGB">
<feFlood flood-opacity="0" result="BackgroundImageFix"/>
<feColorMatrix in="SourceAlpha" type="matrix" values="0 0 0 0 0 0 0 0 0 0 0 0 0 0 0 0 0 0 127 0" result="hardAlpha"/>
<feOffset dy="3.29862"/>
<feGaussianBlur stdDeviation="1.64931"/>
<feComposite in2="hardAlpha" operator="out"/>
<feColorMatrix type="matrix" values="0 0 0 0 0.313726 0 0 0 0 0.321569 0 0 0 0 0.698039 0 0 0 0.5 0"/>
<feBlend mode="normal" in2="BackgroundImageFix" result="effect1_dropShadow_808_1971"/>
<feBlend mode="normal" in="SourceGraphic" in2="effect1_dropShadow_808_1971" result="shape"/>
</filter>
<filter id="filter1_d_808_1971" x="212.178" y="202.543" width="30.838" height="30.8375" filterUnits="userSpaceOnUse" color-interpolation-filters="sRGB">
<feFlood flood-opacity="0" result="BackgroundImageFix"/>
<feColorMatrix in="SourceAlpha" type="matrix" values="0 0 0 0 0 0 0 0 0 0 0 0 0 0 0 0 0 0 127 0" result="hardAlpha"/>
<feOffset dy="3.29862"/>
<feGaussianBlur stdDeviation="1.64931"/>
<feComposite in2="hardAlpha" operator="out"/>
<feColorMatrix type="matrix" values="0 0 0 0 0.313726 0 0 0 0 0.321569 0 0 0 0 0.698039 0 0 0 0.5 0"/>
<feBlend mode="normal" in2="BackgroundImageFix" result="effect1_dropShadow_808_1971"/>
<feBlend mode="normal" in="SourceGraphic" in2="effect1_dropShadow_808_1971" result="shape"/>
</filter>
<filter id="filter2_d_808_1971" x="236.388" y="236.648" width="30.8355" height="30.8355" filterUnits="userSpaceOnUse" color-interpolation-filters="sRGB">
<feFlood flood-opacity="0" result="BackgroundImageFix"/>
<feColorMatrix in="SourceAlpha" type="matrix" values="0 0 0 0 0 0 0 0 0 0 0 0 0 0 0 0 0 0 127 0" result="hardAlpha"/>
<feOffset dy="3.29862"/>
<feGaussianBlur stdDeviation="1.64931"/>
<feComposite in2="hardAlpha" operator="out"/>
<feColorMatrix type="matrix" values="0 0 0 0 0.313726 0 0 0 0 0.321569 0 0 0 0 0.698039 0 0 0 0.5 0"/>
<feBlend mode="normal" in2="BackgroundImageFix" result="effect1_dropShadow_808_1971"/>
<feBlend mode="normal" in="SourceGraphic" in2="effect1_dropShadow_808_1971" result="shape"/>
</filter>
</defs>
</svg>
