<svg width="18" height="18" viewBox="0 0 18 18" fill="none" xmlns="http://www.w3.org/2000/svg">
<path d="M2.9325 12.8849C2.79 12.8849 2.6475 12.8325 2.535 12.72C1.5075 11.685 0.9375 10.32 0.9375 8.87246C0.9375 5.86496 3.375 3.41994 6.375 3.41994L10.9275 3.43496L10.11 2.65493C9.88501 2.43743 9.87749 2.08493 10.095 1.85993C10.3125 1.63493 10.665 1.62746 10.89 1.84496L12.72 3.59994C12.885 3.75744 12.9375 4.00494 12.855 4.21494C12.7725 4.42494 12.5625 4.56746 12.33 4.56746L6.36749 4.55245C3.98999 4.55245 2.05499 6.49497 2.05499 8.87996C2.05499 10.0275 2.50499 11.1149 3.32249 11.9324C3.53999 12.1499 3.53999 12.5099 3.32249 12.7274C3.21749 12.8324 3.075 12.8849 2.9325 12.8849Z" fill="#737373"/>
<path d="M7.49993 16.3125C7.35743 16.3125 7.22244 16.26 7.10994 16.155L5.27994 14.4C5.11494 14.2425 5.06242 13.995 5.14492 13.785C5.22742 13.575 5.43743 13.4325 5.66993 13.4325L11.6324 13.4475C14.0099 13.4475 15.9449 11.505 15.9449 9.11996C15.9449 7.97246 15.4949 6.885 14.6774 6.0675C14.4599 5.85 14.4599 5.49 14.6774 5.2725C14.8949 5.055 15.2549 5.055 15.4724 5.2725C16.4999 6.3075 17.0699 7.67246 17.0699 9.11996C17.0699 12.1275 14.6324 14.5725 11.6324 14.5725L7.07993 14.5575L7.89743 15.3375C8.12243 15.555 8.12992 15.9075 7.91242 16.1325C7.79242 16.2525 7.64993 16.3125 7.49993 16.3125Z" fill="#737373"/>
<path d="M9.18738 11.565C8.87988 11.565 8.62488 11.31 8.62488 11.0025V8.46008L8.48237 8.61755C8.27237 8.85005 7.91988 8.86504 7.68738 8.66254C7.45488 8.46004 7.43988 8.10005 7.64238 7.86755L8.76738 6.61506C8.92488 6.44256 9.17237 6.38255 9.38987 6.46505C9.60737 6.54755 9.74988 6.75756 9.74988 6.99006V11.0025C9.74988 11.3175 9.49488 11.565 9.18738 11.565Z" fill="#737373"/>
</svg>
