<svg width="52" height="52" viewBox="0 0 52 52" fill="none" xmlns="http://www.w3.org/2000/svg">
<rect width="52" height="52" rx="4" fill="#FCE182" fill-opacity="0.2"/>
<g clip-path="url(#clip0_101_31835)">
<path d="M15.3333 38C15.3333 32.8453 19.512 28.6667 24.6667 28.6667M34.6667 36.9815C33.9589 37.6148 33.0245 38 32 38C29.7908 38 28 36.2092 28 34C28 31.7908 29.7908 30 32 30C33.7416 30 35.2233 31.1131 35.7724 32.6667M36.6667 29.3333V33.3333H32.6667M30 19.3333C30 22.2789 27.6121 24.6667 24.6667 24.6667C21.7211 24.6667 19.3333 22.2789 19.3333 19.3333C19.3333 16.3878 21.7211 14 24.6667 14C27.6121 14 30 16.3878 30 19.3333Z" stroke="#E0B005" stroke-width="2.4" stroke-linecap="round" stroke-linejoin="round"/>
</g>
<defs>
<clipPath id="clip0_101_31835">
<rect width="32" height="32" fill="white" transform="translate(10 10)"/>
</clipPath>
</defs>
</svg>
