<svg width="18" height="18" viewBox="0 0 18 18" fill="none" xmlns="http://www.w3.org/2000/svg">
<path fill-rule="evenodd" clip-rule="evenodd" d="M6.40258 1.37554C7.86431 0.878009 9.43828 0.811369 10.9368 1.18356C12.4354 1.55575 13.7953 2.35107 14.8544 3.47468L15.1999 3.84128L15.1999 2.625L15.1999 2.62274C15.199 2.54301 15.2154 2.46405 15.2481 2.39131C15.2807 2.31857 15.3288 2.2538 15.3889 2.20148C15.4491 2.14916 15.5199 2.11055 15.5965 2.08832C15.6718 2.06647 15.7508 2.06096 15.8284 2.07214C15.9625 2.09912 16.083 2.17206 16.1692 2.27846C16.2561 2.38592 16.3024 2.52061 16.2999 2.65885V5.25C16.2999 5.39587 16.2419 5.53577 16.1388 5.63891C16.0357 5.74206 15.8958 5.8 15.7499 5.8L13.1249 5.79999L13.1226 5.80002C13.0429 5.80092 12.9639 5.78448 12.8912 5.75183C12.8185 5.71918 12.7537 5.67111 12.7014 5.61095C12.6491 5.55079 12.6104 5.47997 12.5882 5.4034C12.5664 5.32813 12.5609 5.24908 12.572 5.17154C12.599 5.03742 12.672 4.91687 12.7783 4.83074C12.8858 4.74375 13.0205 4.69748 13.1587 4.7H14.4733L14.1737 4.36638C13.2743 3.36472 12.1033 2.64584 10.803 2.2971C9.50271 1.94835 8.12914 1.98475 6.84916 2.40187C5.56919 2.81899 4.4379 3.59887 3.59276 4.64676C2.74762 5.69464 2.22498 6.96573 2.0884 8.30501C2.07472 8.44114 2.01078 8.5673 1.90908 8.65883C1.80738 8.75036 1.67522 8.80069 1.5384 8.80001H1.53639C1.45929 8.80039 1.38298 8.78457 1.31239 8.75355C1.24181 8.72254 1.17853 8.67703 1.12667 8.61998C1.07481 8.56294 1.03552 8.49562 1.01135 8.42241C0.987185 8.34919 0.978691 8.27162 0.986402 8.19491C1.1401 6.6585 1.73242 5.19871 2.69274 3.9896C3.65306 2.78048 4.94086 1.87306 6.40258 1.37554Z" fill="#5F6368"/>
<path fill-rule="evenodd" clip-rule="evenodd" d="M16.0906 9.3412C16.1923 9.24967 16.3245 9.19933 16.4613 9.20002H16.4633C16.5404 9.19963 16.6167 9.21546 16.6873 9.24647C16.7579 9.27749 16.8212 9.32299 16.873 9.38004C16.9249 9.43709 16.9642 9.50441 16.9883 9.57762C17.0125 9.65083 17.021 9.7284 17.0133 9.80511C16.8596 11.3415 16.2673 12.8013 15.307 14.0104C14.3466 15.2195 13.0588 16.127 11.5971 16.6245C10.1354 17.122 8.56142 17.1887 7.06287 16.8165C5.56432 16.4443 4.20443 15.649 3.14534 14.5253L2.79981 14.1587L2.79979 15.375L2.79982 15.3773C2.80072 15.457 2.78428 15.536 2.75163 15.6087C2.71899 15.6815 2.67092 15.7462 2.61075 15.7985C2.55059 15.8509 2.47977 15.8895 2.4032 15.9117C2.32793 15.9336 2.24888 15.9391 2.17134 15.9279C2.03722 15.9009 1.91667 15.828 1.83054 15.7216C1.74355 15.6141 1.69728 15.4794 1.69981 15.3412V12.75C1.69981 12.6042 1.75775 12.4643 1.8609 12.3611C1.96404 12.258 2.10394 12.2 2.24981 12.2L4.87481 12.2L4.87707 12.2C4.95679 12.1991 5.03576 12.2155 5.1085 12.2482C5.18124 12.2808 5.24601 12.3289 5.29833 12.3891C5.35065 12.4492 5.38926 12.5201 5.41149 12.5966C5.43334 12.6719 5.43885 12.7509 5.42767 12.8285C5.40069 12.9626 5.32775 13.0832 5.22135 13.1693C5.11389 13.2563 4.9792 13.3025 4.84096 13.3H3.52641L3.826 13.6336C4.72544 14.6353 5.89644 15.3542 7.19671 15.7029C8.49699 16.0517 9.87056 16.0153 11.1505 15.5982C12.4305 15.181 13.5618 14.4012 14.4069 13.3533C15.2521 12.3054 15.7747 11.0343 15.9113 9.69502C15.925 9.55888 15.9889 9.43273 16.0906 9.3412Z" fill="#5F6368"/>
<path fill-rule="evenodd" clip-rule="evenodd" d="M8.61108 4.4861C8.71422 4.38296 8.85412 4.32501 8.99998 4.32501C9.14585 4.32501 9.28575 4.38296 9.38889 4.4861C9.49204 4.58925 9.54998 4.72914 9.54998 4.87501V5.90345L9.71307 5.93408C10.0995 6.00665 10.4693 6.14956 10.8041 6.35566C10.8627 6.39542 10.9125 6.44689 10.9502 6.50685C10.9885 6.56777 11.0136 6.63608 11.0238 6.70733C11.034 6.77857 11.029 6.85117 11.0093 6.92038C10.9895 6.9896 10.9554 7.05387 10.9092 7.10903L10.8978 7.12267L10.8889 7.13811C10.8547 7.19795 10.8078 7.2496 10.7515 7.28949C10.6953 7.32938 10.631 7.35655 10.5632 7.3691C10.4954 7.38166 10.4257 7.3793 10.3589 7.3622C10.2921 7.34509 10.2299 7.31365 10.1764 7.27006L10.1653 7.26098L10.153 7.25359C9.74973 7.01121 9.28754 6.88456 8.81711 6.88747C8.54801 6.87361 8.2802 6.93372 8.04278 7.06135L8.01687 7.07529L7.99606 7.09609C7.97942 7.11273 7.96786 7.12363 7.95523 7.13554L7.95522 7.13554C7.94545 7.14475 7.93504 7.15456 7.92115 7.16809C7.89557 7.19302 7.86498 7.22448 7.8377 7.26344C7.77614 7.35139 7.74999 7.45037 7.74999 7.57501L7.74998 7.58107C7.7499 7.62645 7.74975 7.70883 7.78465 7.79658C7.82312 7.89331 7.89437 7.97626 8.00094 8.04933C8.20169 8.18699 8.56592 8.31462 9.22261 8.446C9.76075 8.55737 10.3179 8.71982 10.7379 9.00988C11.1468 9.29235 11.425 9.69397 11.425 10.3125L11.425 10.3146C11.4277 10.5744 11.3684 10.8312 11.2522 11.0636C11.136 11.2961 10.966 11.4974 10.7565 11.6512L10.7506 11.6559C10.4526 11.8927 10.0973 12.0466 9.72081 12.1022L9.54998 12.1273V13.125C9.54998 13.2709 9.49204 13.4108 9.38889 13.5139C9.28575 13.6171 9.14585 13.675 8.99998 13.675C8.85412 13.675 8.71422 13.6171 8.61108 13.5139C8.50793 13.4108 8.44998 13.2709 8.44998 13.125V12.1333L8.28598 12.1033C7.73552 12.0026 7.21331 11.7842 6.75502 11.4632C6.70421 11.4247 6.66165 11.3764 6.62988 11.3212C6.59764 11.2651 6.57719 11.2031 6.56978 11.1388C6.56237 11.0746 6.56815 11.0095 6.58677 10.9476C6.60539 10.8857 6.63646 10.8282 6.67807 10.7787L6.68692 10.7682L6.69424 10.7566C6.73334 10.6944 6.78446 10.6408 6.84461 10.5988C6.90476 10.5567 6.97271 10.5271 7.04447 10.5118C7.11622 10.4964 7.19033 10.4955 7.26242 10.5092C7.33312 10.5227 7.40048 10.5498 7.46069 10.5892C7.93979 10.9399 8.52077 11.1238 9.11448 11.1125C9.41809 11.1121 9.68864 11.0148 9.88579 10.8889C9.98451 10.8258 10.0699 10.7523 10.1329 10.6743C10.1915 10.6018 10.25 10.5013 10.25 10.3875C10.25 10.3345 10.248 10.2507 10.2105 10.1589C10.172 10.0647 10.1037 9.97943 9.99971 9.90294C9.80179 9.75741 9.45406 9.62932 8.84934 9.51594C8.2775 9.40872 7.69871 9.15827 7.2673 8.81931C6.83309 8.47815 6.57498 8.07054 6.57498 7.65001C6.57498 6.75823 7.22976 6.07281 8.28286 5.89729L8.44998 5.86944V4.87501C8.44998 4.72914 8.50793 4.58925 8.61108 4.4861Z" fill="#5F6368"/>
</svg>
