<svg width="403" height="403" viewBox="0 0 403 403" fill="none" xmlns="http://www.w3.org/2000/svg">
<path d="M159.496 223.889C126.713 216.275 98.8841 219.869 75.5014 187.746C53.3892 157.384 59.5967 130.576 82.2557 107.555C141.46 47.4421 200.359 123.894 274.19 136.148C338.516 146.826 357.267 253.021 301.842 290.001C283.983 301.925 248.893 312.901 227.995 296.836C198.743 274.313 204.556 234.343 159.496 223.889Z" fill="#5052B2"/>
<path opacity="0.9" d="M159.496 223.889C126.713 216.275 98.8841 219.869 75.5014 187.746C53.3892 157.384 59.5967 130.576 82.2557 107.555C141.46 47.4421 200.359 123.894 274.19 136.148C338.516 146.826 357.267 253.021 301.842 290.001C283.983 301.925 248.893 312.901 227.995 296.836C198.743 274.313 204.556 234.343 159.496 223.889Z" fill="white"/>
<path d="M201.025 343.79C287.128 343.79 356.928 339.715 356.928 334.688C356.928 329.661 287.128 325.586 201.025 325.586C114.922 325.586 45.1221 329.661 45.1221 334.688C45.1221 339.715 114.922 343.79 201.025 343.79Z" fill="#F5F5F5"/>
<path d="M285.83 326.705C285.831 328.312 285.262 329.867 284.224 331.093C283.186 332.32 281.746 333.138 280.161 333.403C260.653 336.694 240.731 336.694 221.222 333.403C219.644 333.131 218.213 332.309 217.183 331.083C216.152 329.857 215.59 328.306 215.594 326.705V261.574H285.862L285.83 326.705Z" fill="#5052B2"/>
<path opacity="0.3" d="M215.553 262.748V271.89C219.783 273.458 233.669 274.608 250.692 274.608C267.714 274.608 281.625 273.458 285.83 271.89V262.748H215.553Z" fill="black"/>
<path d="M287.148 269.719C287.148 271.785 271.195 273.458 250.691 273.458C230.187 273.458 214.234 271.785 214.234 269.719L213.567 261.598H287.856L287.148 269.719Z" fill="#5052B2"/>
<path d="M250.691 265.329C271.195 265.329 287.816 263.659 287.816 261.598C287.816 259.538 271.195 257.867 250.691 257.867C230.188 257.867 213.567 259.538 213.567 261.598C213.567 263.659 230.188 265.329 250.691 265.329Z" fill="#5052B2"/>
<path opacity="0.3" d="M250.691 265.329C271.195 265.329 287.816 263.659 287.816 261.598C287.816 259.538 271.195 257.867 250.691 257.867C230.188 257.867 213.567 259.538 213.567 261.598C213.567 263.659 230.188 265.329 250.691 265.329Z" fill="black"/>
<path opacity="0.2" d="M224.98 322.123C224.257 322.121 223.565 321.833 223.055 321.322C222.544 320.812 222.256 320.12 222.254 319.397V282.056C222.256 281.334 222.544 280.642 223.055 280.131C223.565 279.62 224.257 279.332 224.98 279.33C225.701 279.334 226.392 279.623 226.903 280.133C227.413 280.643 227.701 281.334 227.706 282.056V319.397C227.701 320.119 227.413 320.81 226.903 321.32C226.392 321.83 225.701 322.119 224.98 322.123Z" fill="black"/>
<path opacity="0.2" d="M276.411 322.123C275.689 322.121 274.997 321.833 274.486 321.322C273.976 320.812 273.688 320.12 273.686 319.397V282.056C273.688 281.334 273.976 280.642 274.486 280.131C274.997 279.62 275.689 279.332 276.411 279.33C277.133 279.334 277.824 279.623 278.334 280.133C278.844 280.643 279.133 281.334 279.137 282.056V319.397C279.133 320.119 278.844 320.81 278.334 321.32C277.824 321.83 277.133 322.119 276.411 322.123Z" fill="black"/>
<path opacity="0.2" d="M259.263 322.123C258.541 322.119 257.85 321.83 257.34 321.32C256.83 320.81 256.541 320.119 256.537 319.397V282.056C256.541 281.334 256.83 280.643 257.34 280.133C257.85 279.623 258.541 279.334 259.263 279.33C259.985 279.332 260.677 279.62 261.188 280.131C261.699 280.642 261.987 281.334 261.989 282.056V319.397C261.987 320.12 261.699 320.812 261.188 321.322C260.677 321.833 259.985 322.121 259.263 322.123Z" fill="black"/>
<path opacity="0.2" d="M242.122 322.123C241.4 322.119 240.709 321.83 240.199 321.32C239.689 320.81 239.4 320.119 239.396 319.397V282.056C239.4 281.334 239.689 280.643 240.199 280.133C240.709 279.623 241.4 279.334 242.122 279.33C242.844 279.332 243.536 279.62 244.047 280.131C244.558 280.642 244.846 281.334 244.848 282.056V319.397C244.846 320.12 244.558 320.812 244.047 321.322C243.536 321.833 242.844 322.121 242.122 322.123Z" fill="black"/>
<path d="M155.09 111.895C155.09 112.632 154.871 113.354 154.461 113.967C154.051 114.581 153.468 115.059 152.787 115.341C152.105 115.624 151.355 115.697 150.631 115.553C149.908 115.41 149.243 115.054 148.721 114.533C148.199 114.011 147.844 113.346 147.7 112.622C147.556 111.899 147.63 111.149 147.912 110.467C148.195 109.785 148.673 109.203 149.286 108.793C149.9 108.383 150.621 108.164 151.359 108.164C152.348 108.164 153.297 108.557 153.997 109.257C154.696 109.956 155.09 110.905 155.09 111.895Z" fill="#263238"/>
<path d="M148.361 112.434C148.324 112.435 148.289 112.426 148.257 112.407C148.226 112.389 148.201 112.362 148.184 112.33C147.937 111.877 147.782 111.38 147.728 110.867C147.674 110.354 147.721 109.836 147.867 109.341C148.013 108.846 148.255 108.385 148.579 107.984C148.903 107.583 149.303 107.25 149.756 107.003C150.209 106.757 150.706 106.602 151.219 106.547C151.731 106.493 152.25 106.54 152.744 106.686C153.239 106.832 153.7 107.074 154.101 107.398C154.502 107.722 154.836 108.122 155.082 108.575C155.106 108.622 155.111 108.677 155.096 108.728C155.081 108.778 155.047 108.821 155.002 108.848C154.979 108.861 154.953 108.869 154.927 108.872C154.9 108.875 154.874 108.872 154.848 108.865C154.823 108.858 154.799 108.845 154.779 108.828C154.758 108.812 154.741 108.791 154.728 108.768C154.282 107.947 153.527 107.337 152.631 107.073C151.734 106.808 150.77 106.91 149.949 107.357C149.128 107.804 148.518 108.558 148.253 109.455C147.989 110.351 148.091 111.316 148.538 112.137C148.55 112.16 148.558 112.185 148.561 112.212C148.564 112.238 148.562 112.265 148.554 112.29C148.547 112.316 148.534 112.339 148.518 112.36C148.501 112.38 148.481 112.397 148.457 112.41C148.427 112.426 148.394 112.434 148.361 112.434Z" fill="#263238"/>
<path d="M144.732 128.941C144.005 128.938 143.293 128.733 142.675 128.35C142.058 127.967 141.558 127.421 141.233 126.771C140.907 126.121 140.768 125.394 140.831 124.67C140.893 123.946 141.155 123.253 141.588 122.669C141.896 122.257 142.283 121.908 142.726 121.645C143.168 121.381 143.659 121.208 144.169 121.134C144.195 121.129 144.221 121.13 144.247 121.136C144.273 121.142 144.297 121.154 144.318 121.169C144.339 121.185 144.357 121.205 144.37 121.228C144.383 121.251 144.391 121.276 144.394 121.303C144.401 121.355 144.387 121.408 144.355 121.45C144.324 121.492 144.277 121.52 144.225 121.528C143.301 121.663 142.468 122.16 141.91 122.91C141.352 123.659 141.115 124.599 141.25 125.524C141.386 126.448 141.883 127.281 142.632 127.839C143.381 128.396 144.322 128.634 145.246 128.498C145.299 128.49 145.354 128.503 145.398 128.535C145.441 128.566 145.471 128.614 145.479 128.667C145.488 128.721 145.475 128.775 145.443 128.819C145.411 128.863 145.364 128.892 145.31 128.9C145.118 128.926 144.925 128.939 144.732 128.941Z" fill="#263238"/>
<path d="M165.006 135.017C164.252 135.016 163.515 134.796 162.884 134.382C162.839 134.353 162.807 134.307 162.795 134.254C162.783 134.202 162.792 134.147 162.82 134.101C162.85 134.057 162.897 134.027 162.949 134.017C163.001 134.006 163.056 134.016 163.101 134.045C163.885 134.553 164.838 134.73 165.752 134.535C166.666 134.341 167.465 133.791 167.973 133.007C168.482 132.224 168.658 131.27 168.464 130.356C168.269 129.443 167.72 128.644 166.936 128.135C166.891 128.106 166.859 128.06 166.847 128.007C166.835 127.955 166.844 127.9 166.872 127.854C166.903 127.81 166.949 127.78 167.001 127.77C167.053 127.759 167.108 127.769 167.153 127.797C168.025 128.365 168.636 129.255 168.853 130.272C169.07 131.289 168.875 132.351 168.311 133.224C168.032 133.659 167.67 134.034 167.245 134.327C166.819 134.619 166.34 134.824 165.835 134.929C165.562 134.986 165.285 135.016 165.006 135.017Z" fill="#263238"/>
<path d="M149.272 123.532C152.185 123.532 154.547 121.17 154.547 118.257C154.547 115.344 152.185 112.982 149.272 112.982C146.359 112.982 143.997 115.344 143.997 118.257C143.997 121.17 146.359 123.532 149.272 123.532Z" fill="#263238"/>
<path d="M154.218 130.304C156.95 127.572 156.95 123.143 154.218 120.411C151.486 117.679 147.057 117.679 144.325 120.411C141.593 123.143 141.593 127.572 144.325 130.304C147.057 133.036 151.486 133.036 154.218 130.304Z" fill="#263238"/>
<path d="M150.009 141.984C154.281 141.984 157.745 138.521 157.745 134.249C157.745 129.977 154.281 126.514 150.009 126.514C145.738 126.514 142.274 129.977 142.274 134.249C142.274 138.521 145.738 141.984 150.009 141.984Z" fill="#263238"/>
<path d="M165.275 136.551C166.256 132.393 163.681 128.227 159.523 127.246C155.366 126.264 151.2 128.839 150.218 132.997C149.237 137.155 151.812 141.321 155.97 142.302C160.127 143.284 164.293 140.709 165.275 136.551Z" fill="#263238"/>
<path d="M183.404 150.732C183.404 151.359 183.404 152.155 183.461 152.879C183.517 153.603 183.517 154.375 183.565 155.122C183.67 156.618 183.774 158.13 183.935 159.633C184.225 162.651 184.629 165.656 185.149 168.647C185.286 169.387 185.407 170.143 185.559 170.882L185.913 172.708C186.002 172.997 185.913 172.941 185.801 172.933C185.688 172.925 185.801 173.077 186.275 173.077C187.489 172.956 188.672 172.615 189.765 172.072C190.408 171.783 191.067 171.469 191.727 171.132C192.386 170.794 193.053 170.408 193.656 170.07L196.004 172.78C195.444 173.421 194.848 174.031 194.219 174.605C193.6 175.195 192.945 175.745 192.257 176.254C191.537 176.796 190.776 177.282 189.982 177.709C189.078 178.202 188.109 178.565 187.103 178.786C186.483 178.922 185.848 178.976 185.214 178.947C184.44 178.902 183.681 178.711 182.978 178.384C182.231 178.033 181.565 177.529 181.024 176.905C180.56 176.362 180.18 175.752 179.899 175.096C179.68 174.593 179.503 174.075 179.368 173.544L179.054 172.37C178.829 171.566 178.644 170.802 178.451 170.014C177.699 166.853 177.119 163.653 176.714 160.429C176.513 158.821 176.353 157.213 176.256 155.565C176.208 154.76 176.168 153.956 176.144 153.104C176.119 152.252 176.144 151.496 176.144 150.539L183.404 150.732Z" fill="#FFB573"/>
<path d="M179.501 142.064C186.36 147.314 186.086 157.212 186.086 157.212L173.817 160.147C173.817 160.147 170.054 150.193 171.581 146.551C173.173 142.755 175.642 139.105 179.501 142.064Z" fill="#5052B2"/>
<path opacity="0.7" d="M179.501 142.064C186.36 147.314 186.086 157.212 186.086 157.212L173.817 160.147C173.817 160.147 170.054 150.193 171.581 146.551C173.173 142.755 175.642 139.105 179.501 142.064Z" fill="white"/>
<path d="M193.196 170.995L195.222 167.586L200.304 173.021C200.304 173.021 196.662 175.353 192.883 173.688L193.196 170.995Z" fill="#FFB573"/>
<path d="M197.721 165.953L204.241 169.796L200.302 173.02L195.22 167.585L197.721 165.953Z" fill="#FFB573"/>
<path d="M141.111 328.755L148.122 329.431L152.48 313.004L145.461 312.328L141.111 328.755Z" fill="#FFB573"/>
<path d="M105.164 314.95L111.459 318.247L118.945 303.404L112.649 300.107L105.164 314.95Z" fill="#FFB573"/>
<path d="M113.143 315.36L107.514 309.643C107.421 309.543 107.293 309.481 107.157 309.469C107.02 309.457 106.884 309.496 106.774 309.579L101.604 313.382C101.479 313.483 101.376 313.609 101.303 313.752C101.229 313.895 101.186 314.052 101.177 314.213C101.168 314.373 101.193 314.534 101.25 314.685C101.307 314.835 101.395 314.972 101.508 315.087C103.502 317.048 104.563 317.893 107.04 320.409C108.567 321.953 111.703 325.596 113.81 327.734C115.917 329.873 118.136 327.903 117.452 326.826C114.381 322.001 113.866 318.97 113.673 316.518C113.638 316.081 113.45 315.671 113.143 315.36Z" fill="#263238"/>
<path d="M149.214 327.3H140.715C140.563 327.301 140.416 327.352 140.295 327.445C140.175 327.538 140.088 327.668 140.048 327.814L138.231 334.496C138.185 334.655 138.178 334.822 138.209 334.984C138.24 335.146 138.309 335.299 138.41 335.43C138.511 335.56 138.641 335.666 138.79 335.737C138.939 335.808 139.103 335.843 139.268 335.839C142.251 335.839 143.666 335.839 147.389 335.839H158.783C161.879 335.839 162.53 332.711 161.243 332.422C155.502 331.151 152.189 329.398 150.42 327.726C150.085 327.439 149.655 327.287 149.214 327.3Z" fill="#263238"/>
<path opacity="0.2" d="M152.468 313.015L150.225 321.481H143.029L145.449 312.34L152.468 313.015Z" fill="black"/>
<path opacity="0.2" d="M112.642 300.107L118.946 303.412L115.087 311.059L108.783 307.754L112.642 300.107Z" fill="black"/>
<path d="M177.429 141.052C177.429 141.052 180.533 142.41 170.128 183.579L141.229 181.079C142.733 169.363 143.368 162.11 139.838 137.481C143.958 136.999 148.107 136.814 152.253 136.927C156.649 136.993 161.034 137.372 165.376 138.06C169.442 138.853 173.465 139.852 177.429 141.052Z" fill="#5052B2"/>
<path opacity="0.7" d="M177.429 141.052C177.429 141.052 180.533 142.41 170.128 183.579L141.229 181.079C142.733 169.363 143.368 162.11 139.838 137.481C143.958 136.999 148.107 136.814 152.253 136.927C156.649 136.993 161.034 137.372 165.376 138.06C169.442 138.853 173.465 139.852 177.429 141.052Z" fill="white"/>
<path d="M152.253 136.693C152.253 136.693 150.645 136.693 148.675 136.693C147.509 138.486 152.43 143.721 158.686 148.867C160.198 144.179 162.578 144.195 162.578 144.195L152.253 136.693Z" fill="white"/>
<path d="M165.367 137.955C165.367 137.955 166.099 138.06 167.852 138.462C169.01 140.255 169.661 144.742 166.244 148.649C164.901 143.825 162.585 144.259 162.585 144.259L165.367 137.955Z" fill="white"/>
<path d="M154.823 122.262C155.289 126.556 155.442 134.323 152.25 136.928C152.25 136.928 155.659 140.418 162.574 144.261C167.591 140.788 165.372 138.062 165.372 138.062C160.757 136.534 161.183 133.052 162.284 129.836L154.823 122.262Z" fill="#FFB573"/>
<path opacity="0.2" d="M157.874 125.357L162.288 129.836C162.017 130.58 161.812 131.347 161.676 132.127C159.908 131.717 157.335 129.868 157.303 127.97C157.334 127.072 157.527 126.187 157.874 125.357Z" fill="black"/>
<path d="M171.403 108.252C174.362 110.873 175.23 117.257 172.416 121.591C171.571 117.198 171.231 112.722 171.403 108.252Z" fill="#263238"/>
<path d="M153.925 113.244C153.411 120.312 153.049 123.295 156.104 127.372C160.704 133.507 169.5 132.582 172.114 125.812C174.47 119.709 174.912 109.175 168.423 105.46C166.997 104.628 165.381 104.175 163.731 104.146C162.08 104.117 160.449 104.511 158.994 105.292C157.54 106.073 156.31 107.214 155.422 108.607C154.535 109.999 154.019 111.595 153.925 113.244Z" fill="#FFB573"/>
<path d="M152.983 118.939C158.209 118.738 161.104 111.904 159.793 109.017C165.72 112.105 174.693 114.533 173.696 110.561C172.353 105.198 165.864 101.266 157.88 104.128C153.256 106.138 149.3 110.561 152.983 118.939Z" fill="#263238"/>
<path d="M151.39 118.93C151.613 120.282 152.358 121.491 153.464 122.299C154.943 123.352 156.294 122.178 156.399 120.466C156.495 118.914 155.844 116.502 154.107 116.132C153.727 116.057 153.334 116.078 152.964 116.193C152.593 116.308 152.258 116.514 151.988 116.793C151.718 117.071 151.521 117.412 151.417 117.785C151.313 118.159 151.303 118.552 151.39 118.93Z" fill="#FFB573"/>
<path d="M170.127 183.582C170.127 183.582 176.664 226.239 173.022 253.642C170.264 274.347 152.47 319.022 152.47 319.022L140.915 318.708C140.915 318.708 152.848 275.408 155.316 258.402C159.538 229.278 148.964 181.781 148.964 181.781L170.127 183.582Z" fill="#263238"/>
<path opacity="0.2" d="M158.854 192.32L152.687 202.042C154.544 213.568 155.723 225.194 156.217 236.858C164.885 221.34 160.816 200.53 158.854 192.32Z" fill="black"/>
<path d="M154.272 319.661L139.751 319.267L140.635 314.596L155.639 314.684L154.272 319.661Z" fill="#5052B2"/>
<path d="M163.808 183.12C163.808 183.12 158.984 230.351 147.96 256.05C139.042 276.795 117.783 309.979 117.783 309.979L109.292 305.01C109.292 305.01 122.961 268.111 129.707 254.281C146.167 220.373 130.857 193.171 141.23 181.109L163.808 183.12Z" fill="#263238"/>
<path d="M118.707 310.706L107.876 304.764L109.637 300.133L121.175 306.646L118.707 310.706Z" fill="#5052B2"/>
<path d="M140.936 179.349L139.408 181.826C139.296 182.011 139.513 182.244 139.851 182.268L170.156 184.889C170.414 184.889 170.647 184.801 170.671 184.64L171.161 182.075C171.161 181.898 170.977 181.729 170.695 181.705L141.427 179.172C141.337 179.159 141.245 179.168 141.159 179.198C141.073 179.229 140.997 179.281 140.936 179.349Z" fill="#5052B2"/>
<path d="M144.589 182.962L143.785 182.898C143.633 182.898 143.52 182.793 143.536 182.697L144.195 179.368C144.195 179.264 144.364 179.199 144.517 179.215L145.321 179.28C145.482 179.28 145.594 179.384 145.57 179.481L144.919 182.809C144.887 182.906 144.734 182.978 144.589 182.962Z" fill="#263238"/>
<path d="M167.934 184.979L167.13 184.915C166.969 184.915 166.857 184.811 166.881 184.714L167.54 181.385C167.54 181.289 167.701 181.217 167.854 181.233L168.658 181.297C168.81 181.297 168.923 181.402 168.907 181.498L168.248 184.827C168.231 184.939 168.055 184.995 167.934 184.979Z" fill="#263238"/>
<path d="M156.256 183.972L155.452 183.899C155.299 183.899 155.187 183.795 155.203 183.698L155.862 180.37C155.862 180.273 156.023 180.201 156.184 180.217L156.988 180.289C157.14 180.289 157.253 180.394 157.237 180.49L156.578 183.819C156.561 183.915 156.417 183.98 156.256 183.972Z" fill="#263238"/>
<path d="M164.996 116.759C164.916 117.33 165.157 117.836 165.527 117.885C165.897 117.933 166.267 117.515 166.331 116.944C166.395 116.373 166.162 115.866 165.792 115.818C165.423 115.77 165.069 116.188 164.996 116.759Z" fill="#263238"/>
<path d="M171.443 117.626C171.371 118.197 171.612 118.703 171.982 118.752C172.352 118.8 172.722 118.382 172.786 117.811C172.85 117.24 172.625 116.734 172.256 116.685C171.886 116.637 171.524 117.055 171.443 117.626Z" fill="#263238"/>
<path d="M172.073 116.695L173.504 116.486C173.504 116.486 172.668 117.459 172.073 116.695Z" fill="#263238"/>
<path d="M168.915 118.256C169.25 119.625 169.77 120.942 170.459 122.171C170.141 122.34 169.79 122.438 169.43 122.458C169.07 122.477 168.711 122.418 168.376 122.284L168.915 118.256Z" fill="#ED893E"/>
<path d="M165.03 123.99C163.899 123.622 162.951 122.837 162.377 121.796C162.362 121.762 162.361 121.725 162.373 121.691C162.385 121.656 162.409 121.628 162.441 121.611C162.475 121.594 162.515 121.591 162.551 121.603C162.587 121.615 162.617 121.641 162.634 121.675C162.991 122.301 163.491 122.835 164.093 123.231C164.695 123.628 165.383 123.877 166.099 123.958C166.135 123.958 166.17 123.973 166.196 123.998C166.221 124.024 166.236 124.059 166.236 124.095C166.236 124.131 166.221 124.166 166.196 124.192C166.17 124.217 166.135 124.232 166.099 124.232C165.735 124.191 165.376 124.111 165.03 123.99Z" fill="#263238"/>
<path d="M162.06 113.454C162.013 113.435 161.972 113.404 161.939 113.366C161.913 113.34 161.892 113.309 161.877 113.276C161.863 113.242 161.855 113.205 161.855 113.169C161.855 113.132 161.863 113.095 161.877 113.062C161.892 113.028 161.913 112.997 161.939 112.972C162.333 112.619 162.807 112.368 163.319 112.239C163.832 112.11 164.368 112.108 164.882 112.232C164.917 112.242 164.95 112.259 164.978 112.282C165.007 112.305 165.03 112.334 165.047 112.366C165.065 112.398 165.075 112.433 165.079 112.47C165.082 112.506 165.078 112.543 165.067 112.578C165.046 112.649 164.998 112.709 164.934 112.745C164.869 112.781 164.793 112.79 164.721 112.771C164.298 112.677 163.859 112.684 163.44 112.793C163.02 112.902 162.633 113.11 162.309 113.398C162.274 113.425 162.234 113.443 162.191 113.453C162.148 113.463 162.103 113.463 162.06 113.454Z" fill="#263238"/>
<path d="M174.154 115.166C174.112 115.149 174.074 115.125 174.041 115.093C173.759 114.763 173.404 114.503 173.003 114.335C172.602 114.168 172.167 114.097 171.734 114.129C171.697 114.137 171.659 114.137 171.622 114.129C171.586 114.122 171.551 114.106 171.52 114.084C171.49 114.062 171.465 114.034 171.446 114.002C171.427 113.969 171.416 113.933 171.412 113.895C171.401 113.822 171.419 113.747 171.462 113.686C171.506 113.626 171.572 113.586 171.645 113.574C172.17 113.527 172.699 113.606 173.187 113.804C173.675 114.003 174.108 114.315 174.451 114.716C174.49 114.762 174.513 114.82 174.517 114.88C174.52 114.941 174.504 115.001 174.471 115.052C174.437 115.102 174.388 115.141 174.331 115.161C174.274 115.182 174.212 115.183 174.154 115.166Z" fill="#263238"/>
<path d="M180.517 175.833C181.037 174.211 181.872 172.708 182.974 171.409C184.075 170.109 185.422 169.04 186.937 168.261C188.452 167.482 190.105 167.01 191.803 166.87C193.501 166.73 195.209 166.926 196.831 167.447C198.453 167.967 199.957 168.802 201.256 169.904C202.555 171.006 203.625 172.352 204.403 173.867C205.182 175.382 205.655 177.036 205.795 178.733C205.934 180.431 205.738 182.14 205.218 183.762L200.216 199.409L175.515 191.473L180.517 175.833Z" fill="#5052B2"/>
<path opacity="0.3" d="M180.517 175.833C181.037 174.211 181.872 172.708 182.974 171.409C184.075 170.109 185.422 169.04 186.937 168.261C188.452 167.482 190.105 167.01 191.803 166.87C193.501 166.73 195.209 166.926 196.831 167.447C198.453 167.967 199.957 168.802 201.256 169.904C202.555 171.006 203.625 172.352 204.403 173.867C205.182 175.382 205.655 177.036 205.795 178.733C205.934 180.431 205.738 182.14 205.218 183.762L200.216 199.409L175.515 191.473L180.517 175.833Z" fill="black"/>
<path d="M156.144 168.003L151.625 182.075C151.559 182.277 151.534 182.49 151.55 182.702C151.567 182.914 151.626 183.121 151.723 183.31C151.82 183.499 151.954 183.667 152.117 183.805C152.279 183.942 152.468 184.045 152.671 184.109L175.506 191.442L180.524 175.827C181.577 172.555 183.886 169.834 186.943 168.263C190.001 166.692 193.557 166.399 196.831 167.449L172.459 159.617C169.183 158.57 165.626 158.864 162.567 160.437C159.509 162.009 157.199 164.73 156.144 168.003Z" fill="#5052B2"/>
<path d="M168.401 178.672L174.697 159.077C174.718 159.007 174.725 158.932 174.715 158.859C174.706 158.786 174.681 158.716 174.642 158.654C174.603 158.591 174.551 158.538 174.49 158.497C174.428 158.456 174.359 158.429 174.287 158.418L167.854 157.469L167.05 160.01L171.738 161.513L166.431 178.029L168.401 178.672Z" fill="#263238"/>
<path d="M165.055 177.597C164.91 178.051 164.902 178.538 165.034 178.996C165.165 179.454 165.429 179.863 165.793 180.172C166.156 180.48 166.603 180.674 167.077 180.728C167.55 180.783 168.03 180.695 168.454 180.478C168.878 180.26 169.228 179.922 169.46 179.505C169.692 179.088 169.795 178.613 169.757 178.137C169.718 177.662 169.54 177.209 169.244 176.835C168.948 176.461 168.548 176.184 168.094 176.037C167.792 175.939 167.474 175.902 167.158 175.928C166.842 175.953 166.533 176.041 166.251 176.186C165.969 176.331 165.718 176.53 165.513 176.772C165.307 177.014 165.152 177.294 165.055 177.597Z" fill="#263238"/>
<path d="M176.697 193.783L208.377 203.954C208.492 203.992 208.614 204.006 208.734 203.996C208.855 203.987 208.973 203.953 209.08 203.898C209.188 203.843 209.284 203.766 209.362 203.674C209.44 203.582 209.499 203.475 209.535 203.359C209.574 203.244 209.589 203.123 209.58 203.002C209.571 202.881 209.537 202.763 209.482 202.655C209.427 202.547 209.35 202.451 209.257 202.373C209.164 202.295 209.056 202.237 208.94 202.201L175.507 191.467C175.357 191.932 175.399 192.437 175.622 192.871C175.845 193.305 176.232 193.633 176.697 193.783Z" fill="#5052B2"/>
<path opacity="0.2" d="M176.697 193.782L189.642 197.939C189.758 197.977 189.879 197.992 190.001 197.982C190.122 197.972 190.24 197.939 190.348 197.884C190.457 197.829 190.553 197.752 190.632 197.66C190.711 197.567 190.77 197.46 190.808 197.344C190.881 197.112 190.86 196.86 190.749 196.643C190.637 196.426 190.445 196.262 190.213 196.187L175.507 191.467C175.357 191.932 175.399 192.437 175.622 192.871C175.845 193.305 176.232 193.633 176.697 193.782Z" fill="black"/>
<path d="M143.238 148.836L142.796 149.326L142.298 149.897C141.96 150.283 141.622 150.701 141.3 151.095C140.641 151.899 140.014 152.759 139.427 153.628C136.997 157.067 135.085 160.843 133.75 164.837C133.429 165.834 133.131 166.831 132.898 167.852C132.817 168.15 132.809 168.27 132.769 168.407C132.763 168.525 132.763 168.643 132.769 168.761C132.756 168.886 132.756 169.013 132.769 169.139C132.769 169.283 133.043 169.621 133.702 169.943C134.495 170.299 135.33 170.553 136.187 170.698C138.255 171.027 140.349 171.165 142.442 171.109C144.629 171.109 146.849 170.916 149.068 170.682C151.287 170.449 153.539 170.16 155.718 169.83L156.594 173.312C152.106 174.772 147.488 175.798 142.804 176.375C140.338 176.696 137.844 176.75 135.366 176.536C133.95 176.403 132.559 176.073 131.233 175.555C130.438 175.236 129.692 174.809 129.014 174.285C128.216 173.659 127.559 172.873 127.084 171.977C126.268 170.296 126.049 168.387 126.465 166.566C126.658 165.335 126.94 164.153 127.269 162.915C127.9 160.538 128.74 158.221 129.778 155.992C130.819 153.757 132.031 151.607 133.404 149.559C134.096 148.538 134.836 147.549 135.608 146.576C136.002 146.094 136.412 145.619 136.814 145.145L137.465 144.445C137.698 144.196 137.883 143.995 138.205 143.689L143.238 148.836Z" fill="#FFB573"/>
<path d="M153.964 170.569L159.592 167.586L159.841 173.632C159.841 173.632 155.821 175.296 153.522 173.463L153.964 170.569Z" fill="#FFB573"/>
<path d="M164.237 167.127L163.392 172.699L159.855 173.631L159.605 167.585L164.237 167.127Z" fill="#FFB573"/>
<path d="M139.838 137.499C136.292 138.126 131.331 148.289 131.331 148.289L140.264 156.33C140.264 156.33 147.364 148.579 146.986 143.963C146.664 140.064 144.348 136.695 139.838 137.499Z" fill="#5052B2"/>
<path opacity="0.7" d="M139.838 137.499C136.292 138.126 131.331 148.289 131.331 148.289L140.264 156.33C140.264 156.33 147.364 148.579 146.986 143.963C146.664 140.064 144.348 136.695 139.838 137.499Z" fill="white"/>
<path d="M115.907 318.462C115.813 318.475 115.719 318.475 115.625 318.462C114.733 318.414 113.784 317.047 113.294 316.243C113.279 316.221 113.271 316.194 113.271 316.167C113.271 316.14 113.279 316.113 113.294 316.09C113.309 316.067 113.331 316.048 113.357 316.038C113.383 316.028 113.412 316.027 113.439 316.034C113.728 316.09 116.228 316.653 116.542 317.497C116.575 317.589 116.583 317.688 116.566 317.784C116.549 317.879 116.508 317.969 116.446 318.044C116.317 318.239 116.128 318.386 115.907 318.462ZM113.712 316.42C114.427 317.522 115.135 318.181 115.642 318.213C115.757 318.215 115.871 318.188 115.972 318.133C116.074 318.078 116.159 317.997 116.22 317.899C116.255 317.864 116.279 317.82 116.289 317.771C116.299 317.723 116.295 317.672 116.277 317.626C116.084 317.112 114.58 316.629 113.712 316.42Z" fill="#5052B2"/>
<path d="M115.65 316.242C114.909 316.446 114.131 316.479 113.375 316.339C113.351 316.331 113.33 316.317 113.313 316.299C113.296 316.281 113.284 316.258 113.278 316.234C113.267 316.213 113.261 316.19 113.261 316.166C113.261 316.142 113.267 316.118 113.278 316.097C113.343 316.041 114.806 314.61 115.827 314.682C115.953 314.684 116.077 314.716 116.189 314.774C116.301 314.833 116.397 314.917 116.47 315.02C116.558 315.114 116.612 315.235 116.624 315.363C116.635 315.491 116.604 315.619 116.535 315.728C116.304 315.991 115.993 316.171 115.65 316.242ZM113.713 316.113C114.517 316.226 116.02 316.025 116.334 315.567C116.382 315.494 116.422 315.382 116.277 315.197C116.229 315.126 116.164 315.068 116.088 315.028C116.013 314.987 115.929 314.965 115.843 314.964C115.144 314.916 114.131 315.736 113.713 316.113Z" fill="#5052B2"/>
<path d="M152.214 328.376C151.437 328.357 150.664 328.258 149.907 328.079C149.88 328.069 149.857 328.052 149.841 328.029C149.825 328.006 149.816 327.978 149.816 327.95C149.816 327.922 149.825 327.894 149.841 327.871C149.857 327.848 149.88 327.831 149.907 327.821C150.253 327.652 153.332 326.213 154.104 326.76C154.173 326.807 154.229 326.873 154.264 326.949C154.3 327.026 154.314 327.11 154.305 327.194C154.301 327.351 154.261 327.505 154.189 327.645C154.117 327.784 154.013 327.905 153.887 327.998C153.382 328.295 152.798 328.428 152.214 328.376ZM150.389 327.894C151.298 328.062 152.986 328.288 153.686 327.765C153.775 327.694 153.849 327.606 153.902 327.504C153.954 327.403 153.985 327.292 153.991 327.178C153.998 327.143 153.994 327.106 153.98 327.073C153.966 327.04 153.941 327.012 153.911 326.993C153.477 326.696 151.66 327.331 150.365 327.894H150.389Z" fill="#5052B2"/>
<path d="M149.928 328.064C149.899 328.072 149.868 328.072 149.839 328.064C149.82 328.045 149.805 328.023 149.797 327.997C149.788 327.972 149.786 327.945 149.791 327.919C149.791 327.79 150.523 324.759 152.203 324.952C152.621 325.008 152.734 325.209 152.758 325.378C152.862 326.182 150.925 327.702 150 328.088L149.928 328.064ZM152.034 325.193C150.973 325.193 150.354 326.962 150.145 327.67C151.15 327.139 152.557 325.877 152.468 325.386C152.468 325.346 152.468 325.234 152.155 325.201L152.034 325.193Z" fill="#5052B2"/>
<path d="M165.639 115.828L167.062 115.619C167.062 115.619 166.218 116.592 165.639 115.828Z" fill="#263238"/>
<path d="M215.114 183.098L183.98 189.531C183.447 189.631 182.897 189.518 182.446 189.218C181.995 188.917 181.68 188.452 181.567 187.922L180.112 181.168L179.589 178.675L180.506 175.829C180.634 175.42 180.787 175.02 180.964 174.631C180.984 174.569 181.011 174.51 181.045 174.454C181.558 173.283 182.25 172.198 183.095 171.238L184.703 170.9L211.399 165.36C211.931 165.26 212.482 165.372 212.932 165.673C213.383 165.973 213.699 166.438 213.811 166.968L216.649 180.637C216.766 181.167 216.67 181.721 216.383 182.181C216.096 182.64 215.64 182.97 215.114 183.098Z" fill="#5052B2"/>
<path opacity="0.3" d="M213.569 166.244L198.549 181.521L195.333 180.219L182.821 175.145L181.061 174.429C181.574 173.258 182.266 172.173 183.111 171.213L184.719 170.875L211.415 165.335C211.823 165.254 212.247 165.297 212.632 165.459C213.016 165.621 213.343 165.894 213.569 166.244Z" fill="black"/>
<path d="M213.572 166.244L195.335 180.243L194.145 181.16L182.687 175.475L180.982 174.671C181.002 174.609 181.029 174.55 181.063 174.494C181.576 173.323 182.268 172.238 183.113 171.278L184.721 170.94L211.417 165.4C211.819 165.312 212.239 165.345 212.622 165.495C213.006 165.645 213.336 165.906 213.572 166.244Z" fill="#5052B2"/>
<path opacity="0.2" d="M213.572 166.244L195.335 180.243L194.145 181.16L182.687 175.475L180.982 174.671C181.002 174.609 181.029 174.55 181.063 174.494C181.576 173.323 182.268 172.238 183.113 171.278L184.721 170.94L211.417 165.4C211.819 165.312 212.239 165.345 212.622 165.495C213.006 165.645 213.336 165.906 213.572 166.244Z" fill="white"/>
<path d="M253.118 211.298L243.63 221.526C243.256 221.924 242.739 222.159 242.192 222.178C241.646 222.198 241.113 222.001 240.711 221.63L217.441 199.96C217.041 199.587 216.805 199.07 216.785 198.522C216.765 197.975 216.964 197.442 217.337 197.041L226.857 186.813C227.041 186.613 227.264 186.451 227.511 186.337C227.759 186.223 228.026 186.159 228.299 186.15C228.571 186.14 228.842 186.184 229.097 186.28C229.352 186.376 229.586 186.522 229.784 186.709L253.046 208.379C253.347 208.659 253.558 209.023 253.651 209.425C253.745 209.826 253.716 210.246 253.569 210.63C253.468 210.882 253.314 211.11 253.118 211.298Z" fill="#5052B2"/>
<path opacity="0.3" d="M253.537 210.668L232.374 207.219L227.461 186.313C227.836 186.14 228.254 186.082 228.662 186.147C229.069 186.211 229.449 186.395 229.753 186.675L253.015 208.345C253.331 208.631 253.551 209.008 253.644 209.424C253.738 209.84 253.701 210.274 253.537 210.668Z" fill="black"/>
<path d="M253.537 210.67L232.929 204.527L227.461 186.387C227.836 186.214 228.254 186.157 228.662 186.221C229.069 186.285 229.449 186.469 229.753 186.749L253.015 208.419C253.316 208.699 253.527 209.063 253.62 209.465C253.713 209.866 253.684 210.286 253.537 210.67Z" fill="#5052B2"/>
<path opacity="0.2" d="M253.537 210.67L232.929 204.527L227.461 186.387C227.836 186.214 228.254 186.157 228.662 186.221C229.069 186.285 229.449 186.469 229.753 186.749L253.015 208.419C253.316 208.699 253.527 209.063 253.62 209.465C253.713 209.866 253.684 210.286 253.537 210.67Z" fill="white"/>
<path d="M261.398 228.141L271.851 240.347C272.05 240.581 272.2 240.853 272.292 241.146C272.383 241.439 272.413 241.748 272.381 242.054C272.348 242.359 272.254 242.655 272.103 242.923C271.953 243.191 271.749 243.425 271.505 243.612L248.798 261.302C248.416 261.531 247.963 261.611 247.526 261.525C247.089 261.438 246.699 261.193 246.434 260.835L238.256 251.508C238.102 251.329 237.975 251.128 237.878 250.913C237.726 250.617 237.663 250.284 237.696 249.953C237.729 249.622 237.856 249.308 238.063 249.047L258.165 228.053C258.479 227.713 258.894 227.483 259.348 227.396C259.803 227.309 260.273 227.37 260.69 227.57C260.96 227.714 261.2 227.908 261.398 228.141Z" fill="#5052B2"/>
<path opacity="0.3" d="M260.689 227.597L255.696 249.806L237.91 250.939C237.758 250.644 237.694 250.31 237.727 249.979C237.76 249.649 237.888 249.334 238.094 249.074L258.196 228.079C258.508 227.746 258.917 227.521 259.365 227.434C259.812 227.347 260.276 227.404 260.689 227.597Z" fill="black"/>
<path d="M260.686 227.592L252.316 251.16L237.89 250.935C237.739 250.639 237.675 250.306 237.708 249.975C237.741 249.644 237.868 249.33 238.075 249.069L258.177 228.075C258.49 227.738 258.902 227.51 259.353 227.424C259.804 227.337 260.271 227.396 260.686 227.592Z" fill="#5052B2"/>
<path opacity="0.2" d="M260.686 227.592L252.316 251.16L237.89 250.935C237.739 250.639 237.675 250.306 237.708 249.975C237.741 249.644 237.868 249.33 238.075 249.069L258.177 228.075C258.49 227.738 258.902 227.51 259.353 227.424C259.804 227.337 260.271 227.396 260.686 227.592Z" fill="white"/>
</svg>
