<svg width="7" height="12" viewBox="0 0 7 12" fill="none" xmlns="http://www.w3.org/2000/svg">
<path d="M0.710413 0.711948C0.617709 0.804462 0.544162 0.914351 0.49398 1.03532C0.443799 1.1563 0.417969 1.28598 0.417969 1.41695C0.417969 1.54792 0.443799 1.6776 0.49398 1.79857C0.544162 1.91955 0.617709 2.02943 0.710413 2.12195L4.59041 6.00195L0.710413 9.88195C0.617831 9.97453 0.544392 10.0844 0.494287 10.2054C0.444182 10.3264 0.418392 10.456 0.418392 10.5869C0.418392 10.7179 0.444182 10.8475 0.494287 10.9685C0.544392 11.0895 0.617831 11.1994 0.710413 11.2919C0.802995 11.3845 0.912906 11.458 1.03387 11.5081C1.15483 11.5582 1.28448 11.584 1.41541 11.584C1.54634 11.584 1.67599 11.5582 1.79696 11.5081C1.91792 11.458 2.02783 11.3845 2.12041 11.2919L6.71041 6.70195C6.80312 6.60943 6.87666 6.49955 6.92685 6.37857C6.97703 6.2576 7.00286 6.12792 7.00286 5.99695C7.00286 5.86598 6.97703 5.7363 6.92685 5.61532C6.87666 5.49435 6.80312 5.38446 6.71041 5.29195L2.12041 0.701948C1.74041 0.321948 1.10041 0.321948 0.710413 0.711948Z" fill="#202124"/>
</svg>
