<svg width="40" height="40" viewBox="0 0 40 40" fill="none" xmlns="http://www.w3.org/2000/svg">
<g clip-path="url(#clip0_2998_112951)">
<path d="M20.3125 27.1875L9.60938 29.7656V10.2344L20.3125 12.7344V27.1875Z" fill="#E05243"/>
<path d="M20 27.2656L30.3906 29.7656V10.2344L20 12.7344V27.2656Z" fill="#8C3123"/>
<path d="M20 5V12.5781L24.5312 13.6719V7.26562L20 5ZM30.3906 10.2344V29.7656L32.4219 28.75V11.1719L30.3906 10.2344ZM20 16.25V23.8281L24.5312 23.2031V16.7969L20 16.25ZM24.5312 26.3281L20 27.4219V35L24.5312 32.7344V26.3281Z" fill="#E05243"/>
<path d="M20 35V27.4219L15.4688 26.3281V32.7344L20 35ZM9.60938 29.7656L9.60937 10.2344L7.57812 11.25L7.57812 28.8281L9.60938 29.7656ZM20 23.75L20 16.1719L15.4687 16.7969L15.4687 23.2031L20 23.75ZM15.4687 13.6719L20 12.5781V5L15.4687 7.26562V13.6719Z" fill="#8C3123"/>
<path d="M24.5312 13.6719L20 14.5312L15.4688 13.6719L20 12.5L24.5312 13.6719Z" fill="#5E1F18"/>
<path d="M24.5312 26.3281L20 25.4688L15.4688 26.3281L20 27.5781L24.5312 26.3281Z" fill="#F2B0A9"/>
</g>
<defs>
<clipPath id="clip0_2998_112951">
<rect width="40" height="40" fill="white"/>
</clipPath>
</defs>
</svg>
