<?xml version="1.0" standalone="no"?>
<!DOCTYPE svg PUBLIC "-//W3C//DTD SVG 20010904//EN"
 "http://www.w3.org/TR/2001/REC-SVG-20010904/DTD/svg10.dtd">
<svg version="1.0" xmlns="http://www.w3.org/2000/svg"
 width="1536.000000pt" height="864.000000pt" viewBox="0 0 1536.000000 864.000000"
 preserveAspectRatio="xMidYMid meet">

<g transform="translate(0.000000,864.000000) scale(0.100000,-0.100000)"
fill="#000000" stroke="none">
<path d="M7545 8384 c-659 -38 -1216 -185 -1738 -458 -257 -135 -485 -286
-697 -460 -199 -165 -405 -370 -560 -557 -244 -295 -417 -576 -593 -959 -59
-128 -161 -424 -210 -610 -81 -304 -131 -692 -130 -1020 0 -332 49 -716 130
-1020 188 -710 542 -1330 1048 -1835 138 -139 170 -169 290 -271 56 -48 219
-171 317 -239 152 -106 424 -256 648 -358 203 -93 559 -206 806 -256 520 -106
1034 -111 1574 -15 528 94 1115 339 1555 648 230 162 364 274 565 476 265 264
441 491 635 815 113 190 270 531 340 740 145 431 218 872 218 1315 0 442 -75
895 -218 1315 -19 57 -103 274 -122 315 -180 399 -411 759 -688 1070 -52 59
-278 285 -335 335 -271 240 -539 423 -855 584 -550 281 -1131 427 -1770 444
-82 3 -177 3 -210 1z m-1255 -1964 c316 -31 598 -171 821 -408 l84 -89 45 39
c232 205 465 302 755 315 399 17 788 -184 1016 -525 28 -43 52 -78 54 -80 1
-2 31 8 65 22 162 66 384 102 575 92 371 -18 673 -153 940 -421 131 -130 206
-234 285 -394 202 -407 198 -907 -11 -1318 -74 -147 -152 -255 -269 -372 -217
-219 -511 -368 -810 -412 -80 -11 -378 -7 -445 6 -29 6 -33 2 -84 -72 -73
-105 -209 -236 -316 -302 -265 -166 -607 -204 -889 -99 -126 46 -117 47 -151
-24 -53 -110 -127 -211 -230 -313 -110 -110 -155 -144 -290 -216 -179 -95
-344 -134 -560 -133 -142 1 -220 13 -354 54 -303 94 -580 342 -723 647 l-39
84 -52 -8 c-29 -5 -117 -7 -197 -7 -120 2 -162 6 -243 27 -436 114 -765 485
-831 938 -19 130 -20 207 -2 324 19 123 39 197 83 301 74 177 228 367 389 480
l70 49 -24 60 c-13 33 -36 110 -50 170 -22 95 -26 133 -26 280 0 182 12 268
61 415 142 431 511 768 946 865 145 32 262 39 407 25z"/>
<path d="M8244 4768 c-92 -16 -161 -100 -180 -217 l-7 -41 -48 0 c-45 0 -49
-2 -54 -27 -14 -67 -17 -63 36 -63 55 0 56 -2 39 -73 -5 -23 -26 -135 -45
-250 -58 -331 -66 -349 -165 -357 -61 -5 -63 -6 -77 -43 -9 -21 -12 -41 -9
-45 4 -3 38 -8 75 -10 116 -7 188 41 226 149 9 24 36 157 61 294 24 138 47
268 51 290 l8 40 68 3 c42 2 69 8 72 15 2 7 6 27 9 45 l6 32 -65 0 c-35 0 -66
3 -68 8 -10 16 22 106 47 130 22 23 35 27 83 27 l56 0 14 39 c7 22 10 43 6 47
-14 12 -87 16 -139 7z"/>
<path d="M6550 4340 l0 -420 55 0 55 0 0 420 0 420 -55 0 -55 0 0 -420z"/>
<path d="M5545 4515 c-143 -38 -181 -221 -63 -298 24 -15 79 -39 124 -52 44
-14 90 -34 102 -45 30 -28 28 -71 -3 -100 -46 -43 -156 -28 -276 37 -8 4 -29
-52 -29 -76 0 -23 73 -57 151 -71 152 -28 269 29 289 140 20 110 -28 165 -193
220 -75 24 -127 62 -127 91 0 11 11 31 25 44 31 32 96 33 186 5 35 -10 67 -16
71 -12 5 5 12 23 18 40 8 31 7 33 -28 51 -37 19 -137 42 -176 40 -12 0 -43 -6
-71 -14z"/>
<path d="M6120 4520 c-62 -8 -128 -26 -149 -39 -13 -8 -13 -15 -1 -50 7 -23
16 -41 20 -41 4 0 27 7 51 16 56 20 164 23 206 5 34 -14 58 -61 51 -101 -3
-19 -11 -21 -113 -23 -93 -2 -117 -6 -156 -26 -86 -44 -125 -139 -95 -229 31
-91 90 -123 230 -124 79 0 165 10 229 28 15 5 17 24 17 212 0 114 -5 224 -10
244 -28 99 -133 147 -280 128z m178 -417 c3 -103 6 -100 -83 -104 -99 -3 -115
0 -146 30 -32 33 -38 78 -15 120 23 41 53 51 151 48 l90 -2 3 -92z"/>
<path d="M7561 4520 c-96 -20 -151 -84 -151 -177 0 -91 48 -133 207 -183 112
-35 140 -77 89 -136 -21 -25 -29 -28 -88 -27 -51 0 -79 7 -124 29 -33 15 -63
28 -68 28 -5 1 -15 -17 -23 -39 -13 -37 -12 -40 9 -57 40 -29 129 -52 208 -52
138 -1 219 65 220 177 0 92 -30 123 -170 177 -56 21 -112 46 -126 55 -34 22
-32 67 4 95 23 19 35 22 92 17 36 -3 82 -13 102 -21 21 -9 41 -16 46 -16 11 0
32 45 32 70 0 40 -168 78 -259 60z"/>
<path d="M9599 4520 c-87 -14 -164 -71 -205 -150 -23 -45 -31 -193 -15 -264
16 -68 56 -124 114 -160 41 -25 61 -30 132 -34 86 -5 160 2 183 17 11 7 11 16
1 50 l-13 42 -40 -8 c-120 -24 -204 3 -245 77 -36 64 -36 176 0 245 32 64 73
88 148 89 31 0 72 -3 92 -7 37 -7 37 -7 52 38 l16 45 -37 9 c-58 14 -133 19
-183 11z"/>
<path d="M6955 4508 c-116 -40 -188 -183 -171 -339 12 -118 65 -198 159 -239
74 -33 269 -28 326 9 11 7 11 15 0 47 -7 22 -14 40 -15 42 -1 2 -28 -4 -60
-14 -106 -30 -224 -5 -262 56 -7 12 -17 41 -21 65 l-8 45 193 0 c133 0 195 4
200 11 11 18 6 124 -7 169 -17 58 -88 133 -137 148 -48 14 -156 14 -197 0z
m161 -94 c35 -17 74 -81 74 -122 0 -22 -3 -22 -141 -22 l-142 0 6 36 c7 41 49
101 81 114 34 14 85 11 122 -6z"/>
<path d="M8485 4501 c-51 -23 -99 -72 -128 -130 -29 -61 -32 -232 -4 -300 45
-111 125 -163 250 -162 95 0 146 21 196 77 48 54 73 133 74 228 1 138 -48 232
-145 280 -43 21 -65 26 -127 25 -50 0 -90 -7 -116 -18z m201 -97 c47 -32 59
-69 59 -189 0 -125 -13 -162 -68 -195 -39 -24 -106 -26 -147 -5 -116 60 -98
382 23 409 37 8 106 -3 133 -20z"/>
<path d="M9187 4506 c-21 -8 -46 -21 -56 -30 -24 -22 -31 -20 -31 9 0 24 -3
25 -55 25 l-55 0 0 -295 0 -295 55 0 55 0 0 160 c0 183 10 244 48 290 25 29
35 33 92 39 l65 6 15 42 c8 23 12 45 8 48 -13 14 -105 14 -141 1z"/>
<path d="M10025 4499 c-54 -27 -100 -73 -127 -128 -19 -40 -23 -62 -23 -161 0
-101 3 -120 23 -159 46 -86 107 -126 214 -141 63 -9 180 2 226 22 30 13 30 13
17 51 -7 21 -15 40 -17 42 -2 3 -28 -2 -58 -10 -154 -41 -263 8 -285 128 l-7
37 178 0 c99 0 189 3 202 6 19 6 22 13 22 55 0 122 -45 212 -129 256 -59 31
-176 32 -236 2z m204 -104 c30 -27 56 -104 42 -118 -4 -4 -68 -6 -142 -5
l-134 3 3 25 c6 42 43 98 76 115 47 24 120 15 155 -20z"/>
</g>
</svg>
