<svg width="12" height="18" viewBox="0 0 12 18" fill="none" xmlns="http://www.w3.org/2000/svg">
  <path d="M1.74748 12.2464L1.74707 12.2468C0.78168 13.1171 0.418728 14.3947 0.813286 15.4137C1.19124 16.3835 2.17956 16.9625 3.57011 16.9625H8.43011C9.82027 16.9625 10.8091 16.3838 11.1945 15.4135C11.5888 14.3949 11.2188 13.1172 10.2604 12.2465L10.2603 12.2465L6.77282 9.07397L6.69159 9.00008L6.77274 8.9261L10.2527 5.7536L10.2532 5.75323C11.2185 4.88291 11.5815 3.60528 11.1869 2.58631L1.74748 12.2464ZM1.74748 12.2464L5.22748 9.0739L5.30854 9M1.74748 12.2464L5.30854 9M5.30854 9L5.22748 8.9261M5.30854 9L5.22748 8.9261M5.22748 8.9261L1.74748 5.7536L1.74707 5.75323M5.22748 8.9261L1.74707 5.75323M1.74707 5.75323C0.781617 4.88286 0.418679 3.60512 0.813361 2.58612L0.813376 2.58608M1.74707 5.75323L0.813376 2.58608M0.813376 2.58608C1.19127 1.60925 2.17915 1.0375 3.57011 1.0375M0.813376 2.58608L3.57011 1.0375M6.00011 9.62233L6.06739 9.68352L9.62975 12.9234L6.00011 9.62233ZM6.00011 9.62233L5.93283 9.68352M6.00011 9.62233L5.93283 9.68352M5.93283 9.68352L2.37033 12.9235L2.37004 12.9238M5.93283 9.68352L2.37004 12.9238M2.37004 12.9238C1.72067 13.519 1.41731 14.4004 1.67681 15.0735L1.67693 15.0738M2.37004 12.9238L1.67693 15.0738M1.67693 15.0738C1.924 15.7079 2.61523 16.0375 3.57011 16.0375M1.67693 15.0738L3.57011 16.0375M3.57011 1.0375H8.43011M3.57011 1.0375H8.43011M8.43011 1.0375C9.82057 1.0375 10.8089 1.6164 11.1869 2.58612L8.43011 1.0375ZM3.57011 16.0375H8.43011M3.57011 16.0375H8.43011M8.43011 16.0375C9.38419 16.0375 10.0763 15.7159 10.3234 15.0735M8.43011 16.0375L10.3234 15.0735M10.3234 15.0735C10.5827 14.4009 10.2876 13.5194 9.62989 12.9235L10.3234 15.0735ZM5.93283 8.31648L6.00011 8.37767L6.06739 8.31648L9.62989 5.07648L9.63018 5.07622C10.2796 4.48096 10.5829 3.5996 10.3234 2.92653L10.3233 2.9262C10.0762 2.29207 9.38499 1.9625 8.43011 1.9625H3.57011C2.61603 1.9625 1.92393 2.28411 1.67681 2.92653C1.41749 3.59913 1.71265 4.4807 2.37047 5.07661L5.93283 8.31648Z" fill="none" stroke="#737373" stroke-width="1"/>
</svg>