<svg version="1.1" id="Layer_1" xmlns:x="ns_extend;" xmlns:i="ns_ai;" xmlns:graph="ns_graphs;" xmlns="http://www.w3.org/2000/svg" xmlns:xlink="http://www.w3.org/1999/xlink" x="0px" y="0px" viewBox="0 0 60.1 42" style="enable-background:new 0 0 60.1 42;" xml:space="preserve">
 <style type="text/css">
  .st0{fill-rule:evenodd;clip-rule:evenodd;fill:#FF3C78;}
 </style>
 <metadata>
  <sfw xmlns="ns_sfw;">
   <slices>
   </slices>
   <sliceSourceBounds bottomLeftOrigin="true" height="42" width="60.1" x="-65.3" y="-9">
   </sliceSourceBounds>
  </sfw>
 </metadata>
 <g id="Page-1">
  <g id="Group-32">
   <g id="Branding_x2F_Icon" transform="translate(0.157355, -0.000040)">
    <path id="Fill-31" class="st0" d="M56.4,6c0,9.1-11.8,16.5-26.5,16.5c-8.7,0-16.3-2.6-21.2-6.6c-0.5-0.4-1.2,0.1-0.9,0.7
				c4.3,9.7,12.4,17.4,22.3,21.2c0.3,0.1,0.2,0.6-0.1,0.6H5.8c-1.3,0-2.4-1.1-2.4-2.4V6V5.9c0-0.3,0.5-0.4,0.6-0.1
				c2.5,6.7,13,11.9,25.9,11.9c12.9,0,23.3-5.1,25.9-11.9C55.9,5.5,56.4,5.6,56.4,6L56.4,6z M54,0H5.9c-3.3,0-6,2.7-6,6v30
				c0,3.3,2.7,6,6,6H54c3.3,0,6-2.7,6-6V6C60,2.7,57.3,0,54,0L54,0z">
    </path>
   </g>
  </g>
 </g>
</svg>