<svg width="16" height="17" viewBox="0 0 16 17" fill="none" xmlns="http://www.w3.org/2000/svg">
<path d="M10.367 9.04158C10.867 9.04158 11.307 8.76825 11.5337 8.35492L13.9203 4.02825C13.9765 3.9272 14.0053 3.81323 14.0039 3.69762C14.0026 3.58201 13.971 3.46877 13.9124 3.36909C13.8538 3.26942 13.7702 3.18677 13.6699 3.12933C13.5695 3.07189 13.4559 3.04164 13.3403 3.04159H3.47366L2.84699 1.70825H0.666992V3.04159H2.00033L4.40033 8.10158L3.50033 9.72825C3.01366 10.6216 3.65366 11.7083 4.66699 11.7083H12.667V10.3749H4.66699L5.40033 9.04158H10.367ZM4.10699 4.37492H12.207L10.367 7.70825H5.68699L4.10699 4.37492ZM4.66699 12.3749C3.93366 12.3749 3.34033 12.9749 3.34033 13.7083C3.34033 14.4416 3.93366 15.0416 4.66699 15.0416C5.40033 15.0416 6.00033 14.4416 6.00033 13.7083C6.00033 12.9749 5.40033 12.3749 4.66699 12.3749ZM11.3337 12.3749C10.6003 12.3749 10.007 12.9749 10.007 13.7083C10.007 14.4416 10.6003 15.0416 11.3337 15.0416C12.067 15.0416 12.667 14.4416 12.667 13.7083C12.667 12.9749 12.067 12.3749 11.3337 12.3749Z" fill="#5052B2"/>
</svg>
