<svg width="20" height="21" viewBox="0 0 20 21" fill="none" xmlns="http://www.w3.org/2000/svg">
<rect y="0.875" width="20" height="20" rx="2" fill="#DCDCEF"/>
<path d="M13.9997 10.2084V11.5417H16.6663V10.2084H13.9997ZM12.6663 14.6151C13.3063 15.0884 14.1397 15.7151 14.7997 16.2084C15.0663 15.8551 15.333 15.4951 15.5997 15.1417C14.9397 14.6484 14.1063 14.0217 13.4663 13.5417C13.1997 13.9017 12.933 14.2617 12.6663 14.6151ZM15.5997 6.60841C15.333 6.25508 15.0663 5.89508 14.7997 5.54175C14.1397 6.03508 13.3063 6.66175 12.6663 7.14175C12.933 7.49508 13.1997 7.85508 13.4663 8.20841C14.1063 7.72841 14.9397 7.10841 15.5997 6.60841ZM4.66634 8.87508C3.93301 8.87508 3.33301 9.47508 3.33301 10.2084V11.5417C3.33301 12.2751 3.93301 12.8751 4.66634 12.8751H5.33301V15.5417H6.66634V12.8751H7.33301L10.6663 14.8751V6.87508L7.33301 8.87508H4.66634ZM8.01967 10.0151L9.33301 9.22841V12.5217L8.01967 11.7351L7.69967 11.5417H4.66634V10.2084H7.69967L8.01967 10.0151ZM12.333 10.8751C12.333 9.98841 11.9463 9.18841 11.333 8.64175V13.1017C11.9463 12.5617 12.333 11.7617 12.333 10.8751Z" fill="#5052B2"/>
</svg>
