<svg width="20" height="21" viewBox="0 0 20 21" fill="none" xmlns="http://www.w3.org/2000/svg">
<rect y="0.375" width="20" height="20" rx="2" fill="#DCDCEF"/>
<path d="M12.367 11.0416C12.867 11.0416 13.307 10.7683 13.5337 10.3549L15.9203 6.02825C15.9765 5.9272 16.0053 5.81323 16.0039 5.69762C16.0026 5.58201 15.971 5.46877 15.9124 5.36909C15.8538 5.26942 15.7702 5.18677 15.6699 5.12933C15.5695 5.07189 15.4559 5.04164 15.3403 5.04159H5.47366L4.84699 3.70825H2.66699V5.04159H4.00033L6.40033 10.1016L5.50033 11.7283C5.01366 12.6216 5.65366 13.7083 6.66699 13.7083H14.667V12.3749H6.66699L7.40033 11.0416H12.367ZM6.10699 6.37492H14.207L12.367 9.70825H7.68699L6.10699 6.37492ZM6.66699 14.3749C5.93366 14.3749 5.34033 14.9749 5.34033 15.7083C5.34033 16.4416 5.93366 17.0416 6.66699 17.0416C7.40033 17.0416 8.00033 16.4416 8.00033 15.7083C8.00033 14.9749 7.40033 14.3749 6.66699 14.3749ZM13.3337 14.3749C12.6003 14.3749 12.007 14.9749 12.007 15.7083C12.007 16.4416 12.6003 17.0416 13.3337 17.0416C14.067 17.0416 14.667 16.4416 14.667 15.7083C14.667 14.9749 14.067 14.3749 13.3337 14.3749Z" fill="rgba(56, 152, 252, 1)"/>
</svg>
