<svg width="20" height="21" viewBox="0 0 20 21" fill="none" xmlns="http://www.w3.org/2000/svg">
<rect y="0.625" width="20" height="20" rx="2" fill="#DCDCEF"/>
<path d="M4.66699 7.95841H7.33366V5.29175H4.66699V7.95841ZM8.66699 15.9584H11.3337V13.2917H8.66699V15.9584ZM4.66699 15.9584H7.33366V13.2917H4.66699V15.9584ZM4.66699 11.9584H7.33366V9.29175H4.66699V11.9584ZM8.66699 11.9584H11.3337V9.29175H8.66699V11.9584ZM12.667 5.29175V7.95841H15.3337V5.29175H12.667ZM8.66699 7.95841H11.3337V5.29175H8.66699V7.95841ZM12.667 11.9584H15.3337V9.29175H12.667V11.9584ZM12.667 15.9584H15.3337V13.2917H12.667V15.9584Z" fill="#5052B2"/>
</svg>
