<svg width="12" height="12" viewBox="0 0 12 12" fill="none" xmlns="http://www.w3.org/2000/svg">
<path d="M7.93353 1.39982C7.93353 1.39982 7.8002 1.43982 7.57353 1.51316C7.53353 1.39316 7.4802 1.23982 7.4002 1.09316C7.14686 0.606491 6.77353 0.353157 6.3202 0.346491C6.28686 0.346491 6.2602 0.346491 6.22686 0.353157C6.21353 0.339824 6.2002 0.319824 6.18686 0.306491C5.99353 0.0931574 5.7402 -0.00684265 5.4402 -0.000175984C4.8602 0.019824 4.2802 0.439824 3.80686 1.18649C3.47353 1.71316 3.22686 2.37316 3.15353 2.87982C2.48686 3.08649 2.0202 3.23316 2.00686 3.23316C1.66686 3.33982 1.6602 3.35316 1.61353 3.66649C1.5802 3.90649 0.700195 10.7332 0.700195 10.7332L8.0202 11.9998V1.38649C7.98686 1.38649 7.95353 1.39316 7.93353 1.39982ZM6.2402 1.92649C5.85353 2.04649 5.42686 2.17982 5.00686 2.30649C5.12686 1.84649 5.35353 1.39316 5.63353 1.09316C5.7402 0.979824 5.8802 0.859824 6.05353 0.786491C6.21353 1.12649 6.24686 1.59982 6.2402 1.92649ZM5.44686 0.386491C5.5802 0.386491 5.7002 0.413157 5.8002 0.479824C5.6402 0.559824 5.49353 0.679824 5.34686 0.833157C4.9802 1.22649 4.69353 1.84649 4.5802 2.43982C4.22686 2.54649 3.88686 2.65316 3.56686 2.75316C3.76686 1.81316 4.55353 0.413157 5.44686 0.386491ZM4.31353 5.71316C4.35353 6.33316 5.99353 6.47316 6.08686 7.93316C6.1602 9.07982 5.4802 9.86649 4.49353 9.92649C3.3202 9.99982 2.66686 9.30649 2.66686 9.30649L2.91353 8.24649C2.91353 8.24649 3.56686 8.73982 4.08686 8.70649C4.42686 8.68649 4.54686 8.40649 4.5402 8.21316C4.48686 7.39982 3.15353 7.44649 3.07353 6.11316C3.0002 4.98649 3.7402 3.85316 5.36686 3.74649C6.0002 3.70649 6.3202 3.86649 6.3202 3.86649L5.94686 5.25982C5.94686 5.25982 5.53353 5.07316 5.0402 5.09982C4.3202 5.14649 4.30686 5.59982 4.31353 5.71316ZM6.62686 1.80649C6.62019 1.51316 6.58686 1.09982 6.44686 0.746491C6.88686 0.833157 7.10686 1.32649 7.2002 1.62649C7.03353 1.67982 6.8402 1.73982 6.62686 1.80649ZM8.2602 11.9732L11.3002 11.2198C11.3002 11.2198 9.99353 2.37982 9.98686 2.31982C9.9802 2.25982 9.92686 2.22649 9.8802 2.21982C9.83353 2.21316 8.9802 2.19982 8.9802 2.19982C8.9802 2.19982 8.4602 1.69316 8.2602 1.49982V11.9732Z" fill="#92E84F"/>
</svg>
