<svg width="24" height="24" viewBox="0 0 24 24" fill="none" xmlns="http://www.w3.org/2000/svg">
<g id="shopify">
<path id="Vector" d="M20.9787 4.71281C20.9598 4.59281 20.8399 4.5264 20.7408 4.51909C20.0101 4.47095 19.2794 4.4232 18.5487 4.37583C18.5487 4.37583 17.0949 3.11049 16.9353 2.97043C16.7757 2.83046 16.4639 2.87303 16.3428 2.90427C16.325 2.90887 16.0252 2.98999 15.5293 3.12454C15.0436 1.89939 14.1866 0.773526 12.6788 0.773526C12.6372 0.773526 12.5943 0.775006 12.5515 0.777143C12.1227 0.279965 11.5915 0.0639648 11.1327 0.0639648C7.62032 0.0639648 5.94229 3.91342 5.41617 5.86958C4.05136 6.24035 3.08179 6.50394 2.95795 6.53805C2.19614 6.74755 2.17204 6.7686 2.07201 7.39794C1.99673 7.8744 0.00341797 21.3891 0.00341797 21.3891L15.5357 23.9405L23.9517 22.3444C23.9517 22.3444 20.9972 4.83281 20.9787 4.71281ZM14.6708 3.35731L13.3565 3.71394C13.357 3.63273 13.3575 3.55284 13.3575 3.46547C13.3575 2.70405 13.2369 2.09098 13.0435 1.60498C13.8204 1.69046 14.3378 2.46544 14.6708 3.35731ZM12.0797 1.75596C12.2957 2.23046 12.4362 2.91142 12.4362 3.83032C12.4362 3.87734 12.4357 3.92032 12.4352 3.9638C11.5805 4.19591 10.6517 4.44791 9.72089 4.70073C10.2435 2.93229 11.2232 2.07816 12.0797 1.75596ZM11.0362 0.88991C11.1878 0.88991 11.3405 0.935033 11.4867 1.02323C10.361 1.48761 9.15445 2.6572 8.64492 4.99284L6.49936 5.57542C7.09617 3.79391 8.51339 0.88991 11.0362 0.88991Z" fill="#95BF46"/>
<path id="Vector_2" d="M20.741 4.51936C20.0103 4.47122 19.2796 4.42347 18.5488 4.3761C18.5488 4.3761 17.095 3.11075 16.9355 2.9707C16.8757 2.91859 16.7952 2.89188 16.711 2.88037L15.5366 23.9406L23.9518 22.3446C23.9518 22.3446 20.9974 4.83308 20.9788 4.71308C20.96 4.59308 20.8401 4.52667 20.741 4.51936Z" fill="#5E8E3E"/>
<path id="Vector_3" d="M12.6787 8.59581L11.641 11.3021C11.641 11.3021 10.7318 10.8766 9.61732 10.8766C7.98345 10.8766 7.90123 11.7756 7.90123 12.0021C7.90123 13.2381 11.5762 13.7117 11.5762 16.6068C11.5762 18.8846 9.92838 20.3513 7.70651 20.3513C5.04026 20.3513 3.67676 18.8965 3.67676 18.8965L4.39066 16.8285C4.39066 16.8285 5.79223 17.8835 6.97488 17.8835C7.74766 17.8835 8.06201 17.3501 8.06201 16.9603C8.06201 15.348 5.04701 15.2761 5.04701 12.6268C5.04701 10.397 6.87251 8.23926 10.5574 8.23926C11.9773 8.23926 12.6787 8.59581 12.6787 8.59581Z" fill="white"/>
</g>
</svg>
