<svg width="45" height="32" viewBox="0 0 45 32" fill="none" xmlns="http://www.w3.org/2000/svg">
<path d="M19.4375 0.0625C20.3023 2.42732 29.6762 5.68219 34.3764 6.1875C30.8262 6.9426 29.3001 7.1943 28.8692 9.25C27.6178 15.2203 47.1941 15.0379 39.9449 23.8182C46.5589 22.3073 45.4882 12.6978 41.4653 11.3921C38.8587 10.5461 35.3643 10.2753 36.8955 7.71875C38.7659 5.43183 46.1932 2.7173 40.875 0.0625H19.4375ZM0.688904 24.9453V31.0703H9.01508V24.9453H0.688904ZM10.7377 24.9453V31.0703H36.9604V24.9453H10.7377ZM38.683 24.9453V31.0703H40.2143V24.9453H38.683ZM41.937 24.9453V31.0703H43.5639V24.9453H41.937Z" fill="#C1E4FF"/>
</svg>
