<svg width="15" height="16" viewBox="0 0 15 16" fill="none" xmlns="http://www.w3.org/2000/svg">
<g clip-path="url(#clip0_313_20686)">
<path d="M7.90316 8.91451H9.79504C10.3332 8.91451 10.6738 8.61826 10.6738 8.14263C10.6738 7.69451 10.3332 7.37138 9.79504 7.37138H7.90316C7.84066 7.37138 7.78629 7.42513 7.78629 7.47888V8.80701C7.79566 8.86951 7.84004 8.91451 7.90316 8.91451ZM7.90316 11.9745H9.85816C10.4588 11.9745 10.8175 11.6695 10.8175 11.1308C10.8175 10.6645 10.4769 10.287 9.85816 10.287H7.90316C7.84066 10.287 7.78629 10.3414 7.78629 10.3951V11.8576C7.79566 11.9295 7.84004 11.9745 7.90316 11.9745ZM14.825 0.408249L9.22941 5.9895H10.1444C11.57 5.9895 12.4132 6.88638 12.4132 7.86451C12.4132 8.63638 11.8932 9.20201 11.3369 9.45263C11.2475 9.48888 11.2475 9.61451 11.3457 9.65013C11.9913 9.90138 12.4488 10.5751 12.4488 11.3639C12.4488 12.4764 11.705 13.3651 10.2613 13.3651H6.29754C6.23504 13.3651 6.18066 13.3114 6.18066 13.2576V9.03138L0.0387796 15.1501C-0.0424705 15.2314 0.0119045 15.3745 0.128155 15.3745H14.8975C14.9236 15.3742 14.9486 15.3637 14.967 15.3452C14.9855 15.3268 14.996 15.3019 14.9963 15.2758V0.488874C15.0232 0.390124 14.8975 0.336374 14.8257 0.407624L14.825 0.408249Z" fill="#222222"/>
</g>
<defs>
<clipPath id="clip0_313_20686">
<rect width="15" height="14.9995" fill="white" transform="translate(0 0.375)"/>
</clipPath>
</defs>
</svg>
