<?xml version="1.0" encoding="UTF-8"?>
<svg version="1.1" xmlns="http://www.w3.org/2000/svg" width="2048" height="2048">
<path d="M0 0 C2.32481902 -0.00302616 4.64963704 -0.00691796 6.97445333 -0.01159257 C13.31795528 -0.02182149 19.66140039 -0.01970382 26.00490689 -0.01541197 C32.15808152 -0.01220872 38.31124712 -0.02036953 44.46441712 -0.02717223 C58.59132321 -0.04236268 72.71821129 -0.04412238 86.84512384 -0.0416492 C97.75982287 -0.03981201 108.67451603 -0.04158507 119.58921432 -0.04587364 C121.16086642 -0.04647606 122.73251851 -0.04707726 124.3041706 -0.04767724 C126.67291294 -0.04858456 129.04165528 -0.04949324 131.41039761 -0.0504096 C153.41679034 -0.05883182 175.42318086 -0.06317992 197.42957497 -0.05900288 C198.25811462 -0.0588465 199.08665428 -0.05869012 199.9403012 -0.05852901 C204.13904902 -0.0577233 208.33779683 -0.05687753 212.53654464 -0.05601571 C213.37033175 -0.05584462 214.20411887 -0.05567353 215.06317227 -0.05549726 C216.74929032 -0.0551506 218.43540838 -0.05480207 220.12152643 -0.05445167 C246.34660507 -0.04909671 272.57165005 -0.05702148 298.79672241 -0.07548523 C328.30603668 -0.09623724 357.81533011 -0.10692179 387.32465208 -0.10290974 C390.4759295 -0.10251444 393.62720692 -0.10215289 396.77848434 -0.10181236 C397.55432606 -0.10172163 398.33016777 -0.1016309 399.12951984 -0.10153742 C410.80217187 -0.10037521 422.47480274 -0.10699097 434.14744949 -0.11762428 C447.43573599 -0.12971753 460.72397613 -0.13118805 474.01226337 -0.11883412 C480.78383632 -0.1128191 487.55531354 -0.11179187 494.32688141 -0.12383652 C500.54119683 -0.13476092 506.75534706 -0.13151466 512.96965496 -0.11757483 C515.20236893 -0.11494583 517.43509613 -0.11723699 519.66779704 -0.1253107 C539.03585942 -0.19041492 558.43381295 1.17836869 577.27279663 5.94819641 C578.80903687 6.32838928 578.80903687 6.32838928 580.37631226 6.71626282 C590.77948927 9.39747742 600.71544863 13.04231165 610.58529663 17.26069641 C611.33214722 17.57764465 612.0789978 17.8945929 612.84848022 18.22114563 C636.50386264 28.41351389 657.16066871 43.38110168 675.58529663 61.26069641 C676.47861694 62.11405579 677.37193726 62.96741516 678.29232788 63.84663391 C709.32165345 94.06566988 730.33539074 136.54202782 736.58529663 179.26069641 C736.7597229 180.42286682 736.93414917 181.58503723 737.11386108 182.78242493 C738.54114161 192.81474073 738.94836518 202.69812873 738.89779663 212.82319641 C738.89564148 213.6065033 738.89348633 214.38981018 738.89126587 215.19685364 C738.73589164 250.58086431 730.44230043 284.07939136 713.58529663 315.26069641 C713.2659314 315.85930481 712.94656616 316.45791321 712.61752319 317.07466125 C692.74439043 354.08711004 661.50165358 383.638344 624.58529663 403.26069641 C623.90886108 403.6235675 623.23242554 403.9864386 622.53549194 404.36030579 C598.76984568 416.89577284 571.54703787 424.32057231 544.81643009 426.37372971 C543.73549424 426.45771345 542.6545584 426.5416972 541.54086692 426.62822591 C530.36020559 427.43754813 519.21691528 427.5402013 508.01216125 427.5146637 C505.75554748 427.51697572 503.49893446 427.52015716 501.24232298 427.52411819 C495.11986118 427.53237301 488.9974627 427.52838392 482.87500083 427.52214575 C476.92545281 427.51805394 470.97591478 427.52343513 465.02636908 427.52844048 C452.12588821 427.53891169 439.2254273 427.53808344 426.32494458 427.53228265 C415.03546572 427.5272318 403.74599412 427.52594729 392.45651436 427.52832794 C391.7047705 427.52848071 390.95302664 427.52863348 390.17850267 427.52879088 C387.12618208 427.52941366 384.07386149 427.53005047 381.02154091 427.53071041 C352.44734169 427.5368146 323.8731551 427.53130335 295.29895784 427.52051662 C269.96560502 427.51102597 244.63227232 427.51187708 219.29891968 427.5214386 C190.77216187 427.53216966 162.24541519 427.53638249 133.71865565 427.53021407 C130.67252481 427.52957273 127.62639398 427.52894704 124.58026314 427.52832794 C123.45538389 427.52809071 123.45538389 427.52809071 122.3077798 427.52784869 C111.03040357 427.52558282 99.75303543 427.52821725 88.47566032 427.53328705 C75.6413629 427.53902835 62.80708836 427.53752759 49.97279375 427.52672556 C43.43410083 427.52140237 36.8954401 427.51936499 30.35674667 427.52602386 C24.35553852 427.53204262 18.35440817 427.52861192 12.35320694 427.51806876 C10.19809136 427.5158596 8.04296903 427.51691405 5.88785791 427.52182034 C-12.96673529 427.56140589 -32.21643734 427.10927702 -50.72720337 423.19819641 C-51.73879517 422.98832092 -52.75038696 422.77844543 -53.79263306 422.56221008 C-90.30878633 414.54599175 -123.67407797 397.69296165 -151.15689087 372.33100891 C-153.17945591 370.47640775 -155.24954321 368.71034481 -157.35220337 366.94819641 C-191.05113912 337.36876984 -211.89281458 291.81243252 -219.41470337 248.26069641 C-219.59259399 247.25329407 -219.59259399 247.25329407 -219.77407837 246.22554016 C-226.37909705 206.67405928 -219.96265202 164.88442214 -204.41470337 128.26069641 C-204.09775513 127.51239563 -203.78080688 126.76409485 -203.45425415 125.99311829 C-193.55764893 103.02930027 -179.15681906 82.61334198 -161.79507446 64.6879425 C-160.49607979 63.34483623 -159.21452946 61.98492099 -157.93423462 60.62397766 C-116.66202923 17.73589474 -58.09396806 -0.10813313 0 0 Z " fill="#35C5F0" transform="translate(232.41470336914063,542.7393035888672)"/>
<path d="M0 0 C13.7802247 12.79767748 25.86320369 28.60870052 35 45 C35.44698242 45.79051758 35.89396484 46.58103516 36.35449219 47.39550781 C56.70693987 83.71329019 64.51767715 121.74534752 64.38095093 163.0982666 C64.38441783 165.42414013 64.38918925 167.75001201 64.39513266 170.07588053 C64.40753056 176.39445324 64.40152395 182.71288812 64.39217401 189.031461 C64.38604188 195.16899464 64.39410479 201.30649674 64.4016161 207.4440261 C64.41733208 220.75433405 64.41607678 234.06459853 64.40737936 247.37491052 C64.39980591 259.02361136 64.39787501 270.67229635 64.4014473 282.32099915 C64.40179103 283.48406988 64.40179103 283.48406988 64.40214171 284.670637 C64.40307586 287.81886702 64.40403107 290.96709703 64.405021 294.11532702 C64.41417955 323.59421102 64.40590696 353.07306748 64.38973031 382.55194721 C64.37549555 408.69073346 64.37676952 434.82947585 64.39111328 460.96826172 C64.40720842 490.39631812 64.4135298 519.82435022 64.40427649 549.25241041 C64.40331447 552.39460722 64.40237594 555.53680404 64.4014473 558.67900085 C64.40109145 559.83937019 64.40109145 559.83937019 64.40072841 561.02318134 C64.39732886 572.65904105 64.40128269 584.2948831 64.40888596 595.93074036 C64.41749632 609.17313764 64.4152502 622.41548501 64.39904372 635.65787613 C64.39105652 642.40518551 64.3880068 649.15239525 64.39799118 655.8997097 C64.4070146 662.09158469 64.40188091 668.28328994 64.38605852 674.47514981 C64.38274279 676.6996075 64.38433114 678.92407992 64.39168589 681.14852792 C64.46011041 703.58752408 62.09686785 725.36581965 56 747 C55.7632959 747.84062988 55.5265918 748.68125977 55.28271484 749.54736328 C46.45441979 779.983129 30.46273264 807.54718651 9.01953125 830.79296875 C7.26095093 832.71482152 5.59180225 834.67647489 3.9375 836.6875 C0.63918788 840.55046881 -3.12713937 843.72887309 -7 847 C-7.91394531 847.81339844 -8.82789063 848.62679687 -9.76953125 849.46484375 C-50.82311272 885.7142827 -106.31352872 903.61955386 -160.76171875 900.73828125 C-218.67247951 896.88112631 -270.77793496 871.82743592 -310 829 C-313.88934987 824.49876326 -317.47525779 819.78943376 -321 815 C-321.63164063 814.15179687 -322.26328125 813.30359375 -322.9140625 812.4296875 C-340.56906118 788.00290851 -352.72217228 759.96195284 -358.875 730.5 C-359.06626465 729.60168457 -359.2575293 728.70336914 -359.45458984 727.77783203 C-363.05563884 708.9614516 -363.29733314 689.60060121 -363.25396729 670.50915527 C-363.25627885 668.24927976 -363.25945999 665.98940499 -363.26342177 663.72953176 C-363.27168289 657.5934091 -363.26768454 651.45734956 -363.26144934 645.32122684 C-363.25735977 639.35989402 -363.26273741 633.39857122 -363.26774407 627.43724073 C-363.27821903 614.50979151 -363.27738547 601.58236218 -363.27158624 588.65491112 C-363.26653646 577.34124295 -363.26525038 566.02758203 -363.26763153 554.71391296 C-363.2677843 553.96071402 -363.26793707 553.20751508 -363.26809447 552.43149192 C-363.26871724 549.37329307 -363.26935405 546.31509422 -363.270014 543.25689537 C-363.27611914 514.62341457 -363.27060553 485.98994636 -363.2598202 457.35646751 C-363.25033043 431.96957185 -363.25117975 406.58269626 -363.26074219 381.19580078 C-363.27147323 352.6115515 -363.275686 324.02731333 -363.26951766 295.44306231 C-363.26887632 292.39073722 -363.26825063 289.33841213 -363.26763153 286.28608704 C-363.26747338 285.53463788 -363.26731522 284.78318873 -363.26715227 284.00896839 C-363.2648863 272.70801749 -363.26752106 261.40707466 -363.27259064 250.10612488 C-363.27833196 237.24435488 -363.27683119 224.38260771 -363.26602915 211.52084053 C-363.26070583 204.96797771 -363.25866878 198.41514703 -363.26532745 191.86228371 C-363.27134601 185.84808275 -363.26791583 179.83395943 -363.25737235 173.81976539 C-363.25516309 171.65990932 -363.25621786 169.50004651 -363.26112393 167.34019488 C-363.30080999 148.39532536 -362.83106294 129.09566488 -358.875 110.5 C-358.66399658 109.48284912 -358.45299316 108.46569824 -358.2355957 107.41772461 C-351.41938024 76.20536824 -337.79348354 47.05359104 -318 22 C-317.5781543 21.46246094 -317.15630859 20.92492187 -316.72167969 20.37109375 C-304.98488279 5.57054739 -291.38756139 -8.02128305 -276 -19 C-275.41573242 -19.41797852 -274.83146484 -19.83595703 -274.22949219 -20.26660156 C-198.55346392 -73.76951249 -94.47273659 -73.47700997 0 0 Z " fill="#2DB67C" transform="translate(1441,69)"/>
<path d="M0 0 C0.96533235 -0.00205263 1.9306647 -0.00410527 2.92524955 -0.0062201 C6.1490793 -0.01185938 9.37286592 -0.01043666 12.59669971 -0.00901413 C14.93595024 -0.01159954 17.27520032 -0.01461319 19.6144498 -0.01801753 C25.36240739 -0.02522681 31.11035387 -0.02778916 36.85831565 -0.02834659 C43.74709625 -0.02926302 50.63586834 -0.03593892 57.52464526 -0.04269341 C74.17330301 -0.05872842 90.82195981 -0.06465421 107.4706239 -0.06944216 C115.35361614 -0.07178099 123.23660766 -0.075384 131.11959934 -0.07913754 C158.12715889 -0.09197192 185.13471804 -0.10269033 212.14228058 -0.10614014 C213.83665802 -0.10636177 215.53103546 -0.10658355 217.22541289 -0.10680549 C218.92378546 -0.10702613 220.62215803 -0.10724661 222.32053059 -0.10746694 C225.72751312 -0.10790948 229.13449564 -0.1083566 232.54147816 -0.10880661 C233.38620733 -0.108916 234.2309365 -0.10902539 235.10126352 -0.1091381 C262.47120989 -0.11276605 289.84112973 -0.12867678 317.21106595 -0.15199697 C346.17751226 -0.17663211 375.14394341 -0.19031472 404.1104005 -0.19150805 C407.29464392 -0.1916795 410.47888734 -0.19189492 413.66313076 -0.19214249 C414.44712765 -0.19219826 415.23112454 -0.19225402 416.03887891 -0.19231148 C428.61816076 -0.19345883 441.19741523 -0.20445398 453.77668785 -0.21902954 C466.43870002 -0.23344641 479.10067738 -0.23660241 491.76269551 -0.22858956 C498.61307647 -0.22454512 505.46336061 -0.22555082 512.31373119 -0.23964691 C518.59924195 -0.25246173 524.88459323 -0.25112225 531.170104 -0.2390562 C533.42995863 -0.23711224 535.68982485 -0.24011652 537.94966324 -0.24890056 C556.85537805 -0.31766583 575.7198751 0.96273331 594.07248402 5.81892776 C595.05418568 6.07238968 596.03588734 6.32585159 597.04733753 6.58699417 C607.3142729 9.33882008 617.16735581 12.98977168 626.94748402 17.13142776 C627.69046741 17.44305862 628.43345081 17.75468948 629.19894886 18.0757637 C679.86652939 39.65830308 718.70023925 83.00560269 739.94748402 133.13142776 C760.94115014 186.09527545 760.0373164 245.64456491 737.94748402 298.13142776 C735.5252006 303.59856599 732.80596111 308.88188858 729.94748402 314.13142776 C729.33389027 315.2851387 728.72029652 316.43884964 728.08810902 317.62752151 C713.76622204 343.69690669 693.78144975 366.41402571 669.94748402 384.13142776 C669.38980335 384.55520706 668.83212269 384.97898636 668.25754261 385.41560745 C658.69772985 392.67403547 648.58158268 398.58553107 637.94748402 404.13142776 C636.78217152 404.74759964 635.61685902 405.36377151 634.41623402 405.99861526 C616.5778127 414.87691211 596.63460895 421.07220214 576.94748402 424.13142776 C575.91183345 424.29707409 574.87618288 424.46272041 573.80914897 424.63338631 C561.66790116 426.37410979 549.65913003 426.41446855 537.4114275 426.39212418 C535.04907333 426.39514907 532.68672013 426.39904024 530.32436866 426.40371674 C524.54260887 426.41289136 518.76090166 426.41286113 512.97913723 426.40880512 C506.04517272 426.40445777 499.11123218 426.41175621 492.17727215 426.4192964 C477.80402437 426.43449792 463.43079429 426.43624542 449.05754016 426.43377338 C437.95398034 426.43193721 426.85042628 426.4337071 415.74686718 426.43799782 C414.1488359 426.43860023 412.55080461 426.43920143 410.95277333 426.43980142 C408.54436951 426.44070872 406.1359657 426.44161739 403.72756189 426.44253377 C381.34893069 426.45095762 358.97030165 426.45530296 336.59166908 426.45112705 C335.748876 426.45097068 334.90608291 426.4508143 334.03775064 426.45065319 C329.76662834 426.44984746 325.49550604 426.44900169 321.22438375 426.44813988 C320.3762019 426.4479688 319.52802005 426.44779771 318.65413573 426.44762144 C316.93890773 426.44727478 315.22367973 426.44692625 313.50845174 426.44657585 C286.82722742 426.44122021 260.14603616 426.44914693 233.464818 426.46760941 C203.45270782 426.48835267 173.44061811 426.49904765 143.42850035 426.49503392 C140.2247268 426.49463861 137.02095324 426.49427705 133.81717968 426.49393654 C132.63400168 426.49380044 132.63400168 426.49380044 131.42692108 426.49366159 C119.54995034 426.49249849 107.67300037 426.49912204 95.79603481 426.50974846 C82.27851207 426.52183074 68.76103488 426.52332469 55.24351142 426.51095829 C48.35283788 426.50493553 41.46224534 426.50354001 34.57157803 426.51596069 C28.25186654 426.5268597 21.93231777 426.52366845 15.61261376 426.50969901 C13.33817092 426.50706311 11.06371516 426.50938337 8.78928504 426.51743487 C-8.95937112 426.57585601 -26.34122334 425.19057694 -43.61501598 420.88142776 C-44.89795544 420.56564774 -44.89795544 420.56564774 -46.20681286 420.24348831 C-75.35790353 412.81402381 -102.84843591 399.32894612 -126.05251598 380.13142776 C-126.62453747 379.66091995 -127.19655895 379.19041214 -127.78591442 378.70564651 C-139.6958713 368.85540395 -150.58337107 358.40446499 -160.05251598 346.13142776 C-160.4803236 345.58003128 -160.90813122 345.0286348 -161.3489027 344.46052933 C-189.00429528 308.58918469 -204.52138077 265.39561245 -206.05251598 220.13142776 C-206.09376598 219.05634964 -206.13501598 217.98127151 -206.17751598 216.87361526 C-207.03556455 172.36234596 -193.76910729 127.50667518 -168.05251598 91.13142776 C-167.30357067 90.06924026 -166.55462536 89.00705276 -165.78298473 87.91267776 C-154.34144095 72.24497818 -141.35523734 58.08998595 -126.05251598 46.13142776 C-125.1514613 45.41341995 -124.25040661 44.69541214 -123.32204723 43.95564651 C-88.61892418 17.00687647 -44.14758371 -0.0887675 0 0 Z " fill="#ECB22D" transform="translate(1284.0525159835815,1076.8685722351074)"/>
<path d="M0 0 C1.2981665 0.25740967 1.2981665 0.25740967 2.62255859 0.52001953 C31.41787833 6.41176625 59.06659404 17.83441164 83 35 C83.58668457 35.41991211 84.17336914 35.83982422 84.77783203 36.27246094 C93.04072232 42.26101112 100.63310755 48.9484398 108 56 C108.55300781 56.52045898 109.10601563 57.04091797 109.67578125 57.57714844 C146.6257305 92.46273822 170.82755775 143.66549353 173.11677445 194.59810618 C173.30067341 201.54869093 173.27352116 208.5005933 173.26069641 215.45303345 C173.26372195 217.7942013 173.26761344 220.13536816 173.27228898 222.47653329 C173.28252599 228.86983135 173.28039814 235.26307306 173.27610838 241.65637565 C173.27290726 247.85619306 173.28106405 254.05600148 173.28786864 260.25581431 C173.3030647 274.49129099 173.3048182 288.72674981 173.30234561 302.9622329 C173.3005089 313.96039312 173.30228048 324.95854751 173.30657005 335.956707 C173.30717247 337.54000117 173.30777367 339.12329534 173.30837366 340.70658951 C173.30928097 343.09283754 173.31018964 345.47908557 173.31110601 347.8653336 C173.31952909 370.03641095 173.32387574 392.20748611 173.31969929 414.37856483 C173.31954291 415.21342717 173.31938654 416.0482895 173.31922542 416.90845069 C173.31841971 421.13930349 173.31757394 425.37015629 173.31671212 429.60100909 C173.31645549 430.86126771 173.31645549 430.86126771 173.31619367 432.1469861 C173.31584701 433.84601711 173.31549848 435.54504813 173.31514808 437.24407914 C173.30979305 463.67038237 173.31771777 490.09665222 173.33618164 516.52294922 C173.35693062 546.25418442 173.36761877 575.98539894 173.36360615 605.71664178 C173.36321085 608.89122732 173.36284929 612.06581286 173.36250877 615.24039841 C173.36241804 616.02198664 173.36232731 616.80357488 173.36223383 617.60884761 C173.3610713 629.37141847 173.36768991 641.13396835 173.37832069 652.89653397 C173.39041017 666.2862491 173.39188876 679.67591823 173.37953053 693.06563409 C173.3735128 699.88973286 173.37249557 706.71373661 173.38453293 713.53783035 C173.39544844 719.79901033 173.39222141 726.06002626 173.37827124 732.32119875 C173.37563983 734.57209428 173.3779412 736.8230029 173.38600711 739.07388552 C173.44890172 757.95338881 172.1622722 776.79835908 167.3125 795.125 C167.05903809 796.10597656 166.80557617 797.08695313 166.54443359 798.09765625 C162.23361261 814.17207931 155.90460659 829.37842476 148 844 C147.68063477 844.5986084 147.36126953 845.1972168 147.03222656 845.81396484 C135.21159434 867.82914231 118.57911695 889.36513347 99 905 C97.51693359 906.22203125 97.51693359 906.22203125 96.00390625 907.46875 C52.62587902 942.78319631 -3.55698792 960.51481217 -59.44628906 955.27734375 C-101.12248129 950.75113396 -141.49266162 935.89441785 -174 909 C-174.57202148 908.52949219 -175.14404297 908.05898437 -175.73339844 907.57421875 C-219.28789574 871.5520595 -246.60877797 820.7686952 -252.7810882 764.52484396 C-253.14258318 760.35550074 -253.13976177 756.2006551 -253.13142776 752.01809311 C-253.1334804 751.04825029 -253.13553303 750.07840747 -253.13764787 749.07917547 C-253.14329586 745.8340004 -253.14186334 742.58886807 -253.14044189 739.34368896 C-253.1430268 736.99150171 -253.14604031 734.6393149 -253.1494453 732.28712869 C-253.15665948 726.50335683 -253.15921722 720.71959602 -253.15977435 714.93581998 C-253.16069023 708.00507579 -253.16736447 701.07434008 -253.17412117 694.14359955 C-253.19016179 677.39300182 -253.19608258 660.64240502 -253.20086992 643.89180099 C-253.20320815 635.96186861 -253.20681109 628.03193696 -253.2105653 620.10200514 C-253.22340006 592.93808968 -253.23411854 565.77417462 -253.2375679 538.6102562 C-253.23778953 536.90583726 -253.23801132 535.20141833 -253.23823325 533.4969994 C-253.23845389 531.78854212 -253.23867437 530.08008485 -253.2388947 528.37162757 C-253.23933724 524.9443663 -253.23978436 521.51710502 -253.24023438 518.08984375 C-253.24034377 517.24008565 -253.24045316 516.39032754 -253.24056586 515.51481919 C-253.24419423 487.97870486 -253.26010637 460.4426169 -253.28342474 432.90651266 C-253.30805318 403.7698989 -253.32174217 374.6333002 -253.32293582 345.49667573 C-253.32310726 342.29447825 -253.32332269 339.09228078 -253.32357025 335.89008331 C-253.32362602 335.10165562 -253.32368179 334.31322794 -253.32373925 333.5009085 C-253.32488717 320.84400065 -253.3358872 308.18711997 -253.35045731 295.53022127 C-253.36486554 282.79306781 -253.36803499 270.05594896 -253.36001733 257.31878957 C-253.35596964 250.42613699 -253.35659369 243.53356727 -253.37107468 236.64092636 C-253.38387084 230.31908897 -253.38256607 223.99741026 -253.37048396 217.6755729 C-253.36853682 215.40024629 -253.37155939 213.12490821 -253.38032833 210.84959766 C-253.44631393 192.55559407 -251.92372133 174.76078531 -247.3125 157 C-247.05903809 156.01 -246.80557617 155.02 -246.54443359 154 C-242.26042294 137.88163478 -235.92120588 122.65227984 -228 108 C-227.68063477 107.4013916 -227.36126953 106.8027832 -227.03222656 106.18603516 C-219.32291212 91.82792618 -209.71872445 79.22142407 -199 67 C-198.20335937 66.07960938 -197.40671875 65.15921875 -196.5859375 64.2109375 C-192.02798445 59.02646169 -187.28582337 54.42619119 -182 50 C-181.08992187 49.19046875 -180.17984375 48.3809375 -179.2421875 47.546875 C-151.26752045 22.81355978 -116.46996621 7.13903739 -80 0 C-78.77603516 -0.24556641 -78.77603516 -0.24556641 -77.52734375 -0.49609375 C-52.65986359 -5.26465968 -24.79789995 -4.99270231 0 0 Z " fill="#E01D59" transform="translate(798,1080)"/>
<path d="M0 0 C0.74685059 0.31694824 1.49370117 0.63389648 2.26318359 0.96044922 C18.85709439 8.11024907 34.03667529 17.55931156 48 29 C48.52368164 29.42216797 49.04736328 29.84433594 49.58691406 30.27929688 C62.77271466 40.92721114 74.62629851 52.65310569 84.72509766 66.28515625 C85.95870539 67.94445551 87.21730975 69.58189604 88.48046875 71.21875 C109.73650846 99.26608596 122.58432624 134.23770961 127 169 C127.0942627 169.71518799 127.18852539 170.43037598 127.28564453 171.16723633 C128.21818505 179.15055058 128.24348106 187.16025743 128.25 195.1875 C128.25067474 195.93744232 128.25134949 196.68738464 128.25204468 197.46005249 C128.20322873 231.79226289 120.56392296 265.76130095 104 296 C103.28234024 297.34754345 102.56489643 298.69520193 101.84765625 300.04296875 C89.99842427 321.99065037 73.55461675 343.38469806 54 359 C52.51693359 360.22203125 52.51693359 360.22203125 51.00390625 361.46875 C6.76378459 397.48503523 -44.87138311 410.21699662 -101.01171875 410.11352539 C-103.18153889 410.11324271 -105.35135912 410.11340282 -107.5211792 410.1139679 C-113.36302914 410.11425273 -119.20485821 410.10840709 -125.04670334 410.10139394 C-131.16988771 410.0951078 -137.29307266 410.09455246 -143.41625977 410.09336853 C-154.98966961 410.09027064 -166.56306991 410.08207819 -178.13647556 410.07201904 C-191.32160051 410.06080981 -204.50672594 410.05533537 -217.69185448 410.05032361 C-244.79457492 410.03989417 -271.89728692 410.02232482 -299 410 C-299.02342843 382.46055215 -299.04102782 354.9211058 -299.05181217 327.38164997 C-299.05695408 314.59272744 -299.06395639 301.80381112 -299.07543945 289.01489258 C-299.0854509 277.85956527 -299.09186872 266.70424247 -299.09408849 255.5489108 C-299.09538469 249.65002108 -299.0984007 243.75114424 -299.10573006 237.85225868 C-299.11259254 232.28322447 -299.11459648 226.71420826 -299.11310768 221.14517021 C-299.11337947 219.11733019 -299.11532323 217.08948946 -299.11920547 215.06165314 C-299.18418731 179.32126107 -299.18418731 179.32126107 -296.3125 162.5625 C-296.13879883 161.52520752 -295.96509766 160.48791504 -295.78613281 159.41918945 C-288.33995549 117.0230819 -268.67181703 79.01302592 -239 48 C-238.48099121 47.44844238 -237.96198242 46.89688477 -237.42724609 46.32861328 C-224.05007515 32.16008296 -208.86081244 20.72587733 -192 11 C-191.28682617 10.5865332 -190.57365234 10.17306641 -189.83886719 9.74707031 C-132.38465478 -23.1091628 -60.57174145 -25.88843424 0 0 Z " fill="#2EB67C" transform="translate(1909,560)"/>
<path d="M0 0 C28.76470523 -0.06868713 57.52940065 -0.12165687 86.29417199 -0.15319599 C89.70311349 -0.15694735 93.11205483 -0.16083039 96.52099609 -0.16479492 C97.53882909 -0.16597532 97.53882909 -0.16597532 98.57722437 -0.16717956 C109.51209887 -0.18017368 120.44692523 -0.2037938 131.38177133 -0.23145839 C142.63228619 -0.25968064 153.88277735 -0.27598744 165.13332939 -0.28226548 C171.43980489 -0.28615166 177.74617185 -0.29518368 184.0526123 -0.31719017 C190.00827633 -0.33780101 195.96378879 -0.34378498 201.91948509 -0.33932304 C204.08636491 -0.34013739 206.25325067 -0.34595458 208.42009926 -0.35761642 C227.67316251 -0.45600872 246.96248619 0.94652822 265.6875 5.6875 C267.22374023 6.06769287 267.22374023 6.06769287 268.79101562 6.45556641 C279.19616545 9.13728947 289.12514807 12.78991746 299 17 C299.7415332 17.31163086 300.48306641 17.62326172 301.24707031 17.94433594 C350.99467837 39.1302258 391.5687363 82.44938961 411.91650391 132.21484375 C417.94241718 147.70461812 422.420497 163.58466141 425 180 C425.11569336 180.6997998 425.23138672 181.39959961 425.35058594 182.12060547 C433.92719779 235.88349136 419.49215469 293.00846411 388.09375 337.11328125 C380.51677862 347.55124636 372.11807902 356.88192098 363 366 C362.31421875 366.7321875 361.6284375 367.464375 360.921875 368.21875 C324.34508734 406.63753417 268.95142113 425.43411494 217 427 C156.64444386 427.81020279 103.79662251 403.64256084 60.55859375 362.6875 C31.63338285 334.51685982 12.31579434 295.72047027 4.125 256.5 C3.93373535 255.60168457 3.7424707 254.70336914 3.54541016 253.77783203 C-0.01965728 235.1494642 -0.29777001 215.98224943 -0.22705078 197.08007812 C-0.22648453 194.90907802 -0.22680738 192.73807753 -0.22793579 190.56707764 C-0.22850196 184.75873191 -0.21686893 178.95047135 -0.20278788 173.14214516 C-0.1901558 167.04036534 -0.1891003 160.93858287 -0.18673706 154.83679199 C-0.18055853 143.32030018 -0.1641976 131.80384702 -0.14403808 120.28737211 C-0.12156516 107.1601058 -0.1106572 94.03283749 -0.10064721 80.90555668 C-0.07982752 53.93701648 -0.04472326 26.96851042 0 0 Z " fill="#ECB22D" transform="translate(1078,1609)"/>
<path d="M0 0 C0.59071289 0.42104004 1.18142578 0.84208008 1.79003906 1.27587891 C48.01134155 34.50329468 76.90950475 85.36985716 86.2734375 141.0546875 C87.54075176 149.37134807 88.14842377 157.56176698 88.12025452 165.97219849 C88.12153615 167.39996575 88.12153615 167.39996575 88.12284368 168.8565768 C88.12447919 172.01784824 88.11900896 175.17906556 88.11352539 178.34033203 C88.11324308 180.61764016 88.11340212 182.89494839 88.1139679 185.17225647 C88.11425414 191.33469892 88.10838532 197.49712181 88.10139394 203.65955973 C88.09513165 210.10709438 88.09455433 216.55462952 88.09336853 223.00216675 C88.09061618 233.81752907 88.0843751 244.63288339 88.07543945 255.44824219 C88.06624872 266.58398401 88.05917602 277.71972389 88.05493164 288.85546875 C88.05453756 289.88652187 88.05453756 289.88652187 88.05413551 290.93840434 C88.05283039 294.38701844 88.0515667 297.83563256 88.05032361 301.28424668 C88.03997097 329.85616928 88.02229537 358.42808436 88 387 C59.6344989 387.06870583 31.26900843 387.12166638 2.90344015 387.15319599 C-0.45914876 387.1569473 -3.82173751 387.16083034 -7.18432617 387.16479492 C-7.85364735 387.16558185 -8.52296853 387.16636878 -9.21257216 387.16717956 C-19.99480811 387.18016923 -30.77699518 387.20378678 -41.55920231 387.23145839 C-52.65491232 387.25969323 -63.75059568 387.27599009 -74.84633976 387.28226548 C-81.06509843 387.28614954 -87.28374693 387.2951676 -93.50247002 387.31719017 C-99.37688089 387.33782138 -105.25113807 387.34378105 -111.12558174 387.33932304 C-113.26140305 387.34013651 -115.39723047 387.34594126 -117.53302002 387.35761642 C-155.582343 387.55509576 -192.37686824 380.29379211 -226 362 C-226.98742187 361.48824219 -227.97484375 360.97648437 -228.9921875 360.44921875 C-246.1024773 351.45783417 -261.07818503 339.29590231 -275 326 C-276.38832031 324.69095703 -276.38832031 324.69095703 -277.8046875 323.35546875 C-307.55434442 294.57499329 -326.73378118 255.23886098 -335 215 C-335.24339111 213.89229248 -335.24339111 213.89229248 -335.49169922 212.76220703 C-342.8303106 178.21999186 -339.1416934 139.21401481 -328 106 C-327.71672852 105.15163574 -327.43345703 104.30327148 -327.14160156 103.42919922 C-319.91151612 82.24624724 -309.59466555 62.76948486 -296 45 C-295.29230469 44.0615625 -294.58460938 43.123125 -293.85546875 42.15625 C-258.88749302 -2.85344585 -207.36651567 -31.51312468 -150.95703125 -38.75488281 C-149.98830078 -38.87621582 -149.98830078 -38.87621582 -149 -39 C-148.01 -39.13148437 -147.02 -39.26296875 -146 -39.3984375 C-94.48825739 -44.9389447 -41.8192079 -30.11024601 0 0 Z " fill="#35C5F0" transform="translate(883,49)"/>
<path d="M0 0 C0.95184484 -0.00085442 1.90368969 -0.00170885 2.88437831 -0.00258917 C6.04564975 -0.00422467 9.20686707 0.00124556 12.36813354 0.00672913 C14.64544168 0.00701144 16.9227499 0.0068524 19.20005798 0.00628662 C25.36250044 0.00600038 31.52492332 0.0118692 37.68736124 0.01886058 C44.1348959 0.02512287 50.58243103 0.02570019 57.02996826 0.02688599 C67.84533059 0.02963834 78.66068491 0.03587942 89.4760437 0.04481506 C100.61178553 0.0540058 111.74752541 0.06107849 122.88327026 0.06532288 C123.57063901 0.0655856 124.25800775 0.06584832 124.96620585 0.06611901 C128.41481995 0.06742412 131.86343407 0.06868781 135.3120482 0.06993091 C163.8839708 0.08028355 192.45588587 0.09795915 221.02780151 0.12025452 C221.09647463 28.90198154 221.14945125 57.68369878 221.1809975 86.46549184 C221.18474891 89.87572211 221.18863195 93.28595222 221.19259644 96.69618225 C221.19338337 97.37499989 221.1941703 98.05381754 221.19498108 98.75320541 C221.20797853 109.69522196 221.23160057 120.63719045 221.2592599 131.57917864 C221.28747272 142.83533875 221.30378698 154.09147517 221.310067 165.3476724 C221.31395476 171.65802836 221.32299724 177.9682759 221.34499168 184.27859688 C221.36558728 190.2367201 221.37158945 196.19469185 221.36712456 202.15284729 C221.36793957 204.3217597 221.37376606 206.49067799 221.38541794 208.65955925 C221.67120256 264.67616754 202.84384491 318.96417047 163.50241089 359.59437561 C162.48145362 360.65082974 161.46757007 361.71414869 160.45944214 362.78285217 C151.43409178 372.34465555 141.74499237 380.50911752 131.02780151 388.12025452 C130.45126831 388.53082092 129.87473511 388.94138733 129.2807312 389.36439514 C105.14353908 406.28204502 77.75403119 417.13117079 49.02780151 423.12025452 C48.17798706 423.29959534 47.32817261 423.47893616 46.4526062 423.66371155 C21.34351704 428.6745821 -7.94903147 428.44678661 -32.97219849 423.12025452 C-33.80702759 422.95396545 -34.64185669 422.78767639 -35.50198364 422.61634827 C-83.7927481 412.87703443 -129.94720209 385.49579431 -159.97219849 346.12025452 C-160.46478149 345.47701233 -160.9573645 344.83377014 -161.46487427 344.17103577 C-196.15597189 298.4931926 -211.33182737 241.67913162 -204.21829224 184.66712952 C-198.26698139 142.05730658 -180.2882809 102.06947622 -151.04251099 70.37806702 C-149.18790982 68.35550198 -147.42184688 66.28541468 -145.65969849 64.18275452 C-110.82261206 24.49392774 -52.40360462 -0.1755166 0 0 Z " fill="#E01D59" transform="translate(217.97219848632813,1076.8797454833984)"/>
</svg>
