<svg width="284" height="113" viewBox="0 0 284 113" fill="none" xmlns="http://www.w3.org/2000/svg">
<path d="M121.452 49.0196L121.396 49.4537L167.078 55.2998L167.134 54.8657L121.452 49.0196Z" fill="#9BC1F9"/>
<path d="M121.778 54.0732L121.986 53.6885L58.6512 19.5768L83.9687 13.2772L83.8627 12.8533L57.4473 19.4246L121.778 54.0732Z" fill="#9BC1F9"/>
<path d="M18.1609 65.6585L18.0215 66.0739L100.897 93.8993L101.036 93.4839L18.1609 65.6585Z" fill="#9BC1F9"/>
<path d="M260.797 95.7637L261.11 95.4576L219.879 53.2974L219.84 53.2804L149.34 22.8455L125.013 19.2847L124.949 19.7172L149.248 23.2739L219.627 53.665L260.797 95.7637Z" fill="#9BC1F9"/>
<path d="M129.4 105.78L132.544 83.1674L132.384 83.1049L96.5247 69.0264L64.5038 55.3677L64.332 55.7694L96.3589 69.4307L132.063 83.4493L128.966 105.72L129.4 105.78Z" fill="#9BC1F9"/>
<path d="M126.979 105.946L127.181 105.558L98.4669 90.5442V67.284L69.0745 92.098L17.1326 66.5892L70.4682 52.0039L70.5099 51.908L86.6441 15.3841L124.233 19.6936L120.651 49.2183L121.085 49.2713L124.72 19.3091L124.502 19.2845L86.3742 14.9124L86.3092 15.0603L70.152 51.6364L15.9014 66.473L69.1385 92.6178L69.2475 92.5254L98.0294 68.226V90.8092L126.979 105.946Z" fill="#9BC1F9"/>
<path d="M217.611 56.1975L217.62 55.7598L168.773 54.764L182.653 13.6048L182.238 13.4646L168.168 55.1897L217.611 56.1975Z" fill="#9BC1F9"/>
<path d="M279.695 82.6991L279.905 82.3145L224.529 51.9651L188.565 19.5602L188.271 19.885L224.277 52.3198L279.695 82.6991Z" fill="#9BC1F9"/>
<path d="M233.481 89.886L233.332 90.2979L260.904 100.306L261.054 99.8941L233.481 89.886Z" fill="#9BC1F9"/>
<path d="M233.342 89.3106L206.904 96.2761L207.016 96.6999L233.454 89.7343L233.342 89.3106Z" fill="#9BC1F9"/>
<path d="M205.477 96.1896L174.779 98.3412L174.81 98.777L205.508 96.6255L205.477 96.1896Z" fill="#9BC1F9"/>
<path d="M146.528 65.2511L146.598 65.2451L213.524 59.8209L213.489 59.385L146.632 64.8032L126.118 52.6188L125.895 52.9949L146.528 65.2511Z" fill="#9BC1F9"/>
<path d="M161.632 94.1107L162.016 93.9023L146.609 65.4351L133.209 83.6324L133.561 83.8923L146.553 66.2504L161.632 94.1107Z" fill="#9BC1F9"/>
<path d="M121.578 51.2659L148.136 24.215L184.854 13.7444L184.734 13.3239L147.905 23.8252L147.865 23.8673L121.266 50.96L121.578 51.2659Z" fill="#9BC1F9"/>
<path d="M33.2968 46.401L33.2109 46.83L59.8597 52.1694L59.9456 51.7405L33.2968 46.401Z" fill="#9BC1F9"/>
<path d="M39.361 100.38L39.5131 99.9699L15.7842 91.1815V64.3056L35.0675 49.3263L35.0253 49.1837L26.9797 21.9105L26.5602 22.0336L34.5635 49.164L15.3467 64.092V91.4856L39.361 100.38Z" fill="#9BC1F9"/>
<path d="M62.8921 60.6352L16.4014 89.8837L16.6347 90.2547L63.1254 61.0062L62.8921 60.6352Z" fill="#9BC1F9"/>
<path d="M184.854 16.0781L184.729 16.4968L213.438 25.1208L213.564 24.7021L184.854 16.0781Z" fill="#9BC1F9"/>
<path d="M169.709 56.1595L168.25 96.4579L168.687 96.4737L170.147 56.1754L169.709 56.1595Z" fill="#9BC1F9"/>
<path d="M99.821 95.947L117.261 46.1487L116.848 46.0035L99.4082 95.8017L99.821 95.947Z" fill="#9BC1F9"/>
<path d="M29.5554 19.9424L29.2598 20.2655L66.139 54.025L66.4347 53.7018L29.5554 19.9424Z" fill="#9BC1F9"/>
<path d="M14.9978 66.4186V91.7289L39.566 100.829L39.9604 99.765L16.132 90.9397V90.1152L16.5241 90.7388L37.5653 77.5016L69.1897 93.0324L69.4726 92.7926L77.1522 86.309L99.7072 93.897L98.9647 96.017L100.035 96.3937L100.782 94.2586L101.113 94.37L101.474 93.2939L101.158 93.1873L101.261 92.8932L127.126 106.417L127.651 105.411L101.64 91.811L107.776 74.2899L131.681 83.6759L128.574 106.021L129.698 106.176L132.813 83.7742L133.636 84.3819L146.509 66.9013L161.493 94.5855L162.49 94.0446L147.072 65.5578L169.085 63.7737L167.89 96.7864L169.024 96.8264L170.223 63.6814L213.901 60.1414L213.81 59.0108L170.265 62.5399L170.508 55.8296L169.374 55.7899L169.126 62.6321L146.717 64.4482L125.998 52.1426L125.419 53.1181L146.172 65.4448L132.845 83.5434L132.928 82.9446L132.511 82.7824L108.151 73.2186L115.838 51.271L121.92 54.5468L122.459 53.549L116.217 50.1871L117.705 45.9374L116.635 45.5607L115.206 49.6426L80.2167 30.7975L86.8592 15.7607L123.845 20.0011L120.263 49.523L121.023 49.6157L121.004 49.7642L121.848 49.8718L120.773 50.9665L121.582 51.7606L123.26 50.0518L167.381 55.6757L167.525 54.5502L124.258 49.0352L148.32 24.527L150.096 24.0208L174.724 34.6556L167.685 55.53L217.952 56.5546L217.974 55.4201L169.254 54.4269L175.769 35.1065L219.427 53.9591L223.098 57.7129L207.319 92.6096L193.456 67.7448L170.405 99.4129L171.357 100.029L193.31 70.0534L207.352 95.2897L223.949 58.5837L260.792 96.2578L261.603 95.4644L224.45 57.4745L225.084 56.0734L224.05 55.6081L223.599 56.604L220.081 53.0068L176.131 34.0332L182.636 14.7414L185.283 13.9864L184.973 12.8956L183.076 13.4366L183.092 13.3882L182.018 13.0248L181.752 13.8142L150.161 22.8222L149.436 22.5092L124.719 18.8912L124.709 18.9585L124.541 18.9394L86.1583 14.5382L85.99 14.9215L79.215 30.2585L59.6101 19.6994L84.3914 13.5331L84.1165 12.4331L56.4888 19.3059L78.7554 31.2986L69.9 51.345L65.6445 52.5089L29.535 19.4548L28.7687 20.292L64.3505 52.8627L18.5365 65.392L17.9532 65.1957L17.8219 65.5874L16.1317 66.0496V64.4769L35.4686 49.4562L35.3584 49.0851L34.8988 47.5272L60.1379 52.5807L60.3604 51.4685L34.5363 46.2977L27.2149 21.4791L26.1267 21.7982L33.2798 46.0461L33.0272 45.9955L32.8044 47.1079L33.6425 47.2757L34.1616 49.0352L14.9978 63.9222V66.36L14.9209 66.381L14.9978 66.4186ZM151.807 23.5327L181.312 15.1192L175.086 33.5822L151.807 23.5327ZM124.978 20.0752L147.985 23.4427L147.72 23.5181L147.615 23.6269L122.846 48.8554L121.507 48.6848L124.978 20.0752ZM18.5005 66.5775L40.8478 74.0954L37.4972 76.2034L18.1127 66.6837L18.5005 66.5775ZM107.094 72.8041L98.8151 69.5536V66.5352L96.3822 68.5893L64.3209 54.9132L63.8753 55.9556L95.4123 69.4079L76.9085 85.0292L43.4769 73.7824L63.6047 61.1199L63.0005 60.159L42.0881 73.315L20.464 66.0404L65.3402 53.7684L66.1634 54.5221L66.9295 53.6849L66.6341 53.4145L70.7206 52.2972L70.8291 52.0488L79.757 31.8381L114.826 50.7264L107.094 72.8041ZM97.6809 68.9773V69.1083L97.5749 69.0666L97.6809 68.9773ZM100.624 91.2798L98.8151 90.3342V70.7715L106.719 73.8749L100.624 91.2798ZM78.1663 85.4526L96.5902 69.8978L97.6807 70.3262V91.0213L100.245 92.3618L100.082 92.8254L78.1663 85.4526ZM38.6942 76.7913L42.2365 74.5626L75.8941 85.8856L69.0234 91.686L38.6942 76.7913ZM16.132 66.9755L36.3682 76.9135L16.132 89.6442V66.9755Z" fill="#9BC1F9"/>
<path d="M278.533 82.4594L227.266 54.3558L222.385 54.4411L222.365 53.3066L225.26 53.256L224.074 52.6059L222.756 51.4183L221.812 53.9653L220.749 53.5709L221.849 50.6014L187.779 19.9105L188.54 19.0683L222.271 49.4617L235.102 14.8146L236.165 15.2091L223.178 50.2787L224.732 51.679L227.537 53.2163L271.078 55.5008L271.098 56.6351L229.543 54.3159L278.248 81.0087L269.813 56.1766L270.926 55.9592L279.543 81.7186L280.378 82.1762L279.833 83.1723L279.828 83.1694L280.43 86.2369L264.751 96.3377L264.137 95.3843L279.169 85.7001L278.533 82.4594Z" fill="#9BC1F9"/>
<path d="M233.779 89.6044L261.495 99.6702L261.107 100.737L232.881 90.486L232.97 90.2413L206.77 97.1428L206.482 96.0448L233.595 88.9028L233.779 89.6044Z" fill="#9BC1F9"/>
<path d="M205.801 95.8166L174.408 98.0168L174.487 99.1478L205.88 96.9475L205.801 95.8166Z" fill="#9BC1F9"/>
<path d="M184.615 15.6295L184.289 16.7156L213.672 25.5278L213.997 24.4417L184.615 15.6295Z" fill="#9BC1F9"/>
<path d="M235.309 15.2693L221.197 53.371L221.607 53.523L235.719 15.4213L235.309 15.2693Z" fill="#9BC1F9"/>
<path d="M94.7537 21.9669C98.0259 16.6709 96.3865 9.72438 91.0921 6.45131C85.7976 3.17824 78.8531 4.8181 75.581 10.114C72.3088 15.41 73.9482 22.3565 79.2426 25.6296C84.537 28.9027 91.4816 27.2628 94.7537 21.9669Z" fill="white"/>
<path d="M51.9985 100.376C53.0079 94.1544 48.784 88.2922 42.5641 87.2825C36.3442 86.2727 30.4837 90.4978 29.4742 96.7194C28.4648 102.941 32.6887 108.803 38.9086 109.813C45.1285 110.823 50.989 106.598 51.9985 100.376Z" fill="white"/>
<path d="M176.826 54.9778C176.826 59.5941 173.084 63.3364 168.469 63.3364C163.855 63.3364 160.113 59.5941 160.113 54.9778C160.113 50.3615 163.855 46.6191 168.469 46.6191C173.084 46.6191 176.826 50.3615 176.826 54.9778Z" fill="white"/>
<path d="M225.793 69.2087C234.26 67.515 239.751 59.2761 238.058 50.8065C236.365 42.337 228.128 36.8442 219.661 38.5379C211.194 40.2316 205.703 48.4706 207.396 56.9401C209.089 65.4096 217.326 70.9025 225.793 69.2087Z" fill="white"/>
<path d="M151.727 29.9759C155.545 28.6362 157.554 24.4545 156.215 20.6356C154.876 16.8167 150.695 14.8068 146.878 16.1465C143.06 17.4861 141.05 21.6678 142.39 25.4867C143.729 29.3056 147.91 31.3155 151.727 29.9759Z" fill="white"/>
<path d="M244.668 19.771C245.247 13.9197 240.974 8.70674 235.124 8.12754C229.274 7.54835 224.063 11.8222 223.484 17.6735C222.905 23.5248 227.178 28.7377 233.027 29.3169C238.877 29.8961 244.089 25.6223 244.668 19.771Z" fill="white"/>
<path d="M30.6124 33.0882C35.8333 33.0882 40.0657 28.8546 40.0657 23.6322C40.0657 18.4098 35.8333 14.1763 30.6124 14.1763C25.3915 14.1763 21.1592 18.4098 21.1592 23.6322C21.1592 28.8546 25.3915 33.0882 30.6124 33.0882Z" fill="white"/>
<path d="M136.363 52.2509C137.357 44.6572 132.009 37.6947 124.418 36.6999C116.826 35.705 109.866 41.0544 108.871 48.6481C107.877 56.2419 113.224 63.2043 120.816 64.1992C128.408 65.1941 135.368 59.8447 136.363 52.2509Z" fill="white"/>
<path d="M28.1529 68.0095C29.7948 61.0542 25.489 54.0845 18.5358 52.4421C11.5825 50.7998 4.61473 55.1068 2.97286 62.0621C1.331 69.0174 5.63675 75.9871 12.59 77.6295C19.5433 79.2718 26.5111 74.9648 28.1529 68.0095Z" fill="white"/>
<path d="M279.448 56.7292C279.448 61.7945 275.343 65.9009 270.278 65.9009C265.214 65.9009 261.109 61.7945 261.109 56.7292C261.109 51.6638 265.214 47.5574 270.278 47.5574C275.343 47.5574 279.448 51.6638 279.448 56.7292Z" fill="white"/>
<path d="M139.526 85.2305C140.327 81.8401 138.228 78.4425 134.838 77.642C131.449 76.8414 128.052 78.9409 127.252 82.3314C126.452 85.7218 128.55 89.1193 131.94 89.9199C135.329 90.7205 138.726 88.621 139.526 85.2305Z" fill="white"/>
<path d="M215.317 93.9478C215.317 98.3555 211.745 101.929 207.338 101.929C202.931 101.929 199.359 98.3555 199.359 93.9478C199.359 89.5399 202.931 85.9667 207.338 85.9667C211.745 85.9667 215.317 89.5399 215.317 93.9478Z" fill="white"/>
<path d="M197.272 18.12C198.829 11.227 194.505 4.37641 187.614 2.81885C180.723 1.2613 173.874 5.58655 172.317 12.4796C170.76 19.3726 175.084 26.2232 181.976 27.7807C188.867 29.3383 195.715 25.013 197.272 18.12Z" fill="white"/>
<mask id="mask0_803_5099" style="mask-type:luminance" maskUnits="userSpaceOnUse" x="172" y="2" width="26" height="26">
<path d="M197.097 15.1242C197.275 8.32978 191.914 2.67691 185.122 2.49816C178.329 2.31942 172.678 7.68248 172.499 14.4769C172.321 21.2713 177.682 26.9242 184.474 27.1029C191.267 27.2817 196.918 21.9186 197.097 15.1242Z" fill="white"/>
</mask>
<g mask="url(#mask0_803_5099)">
<path d="M190.679 13.0553C190.75 11.3381 190.497 9.64225 189.729 8.04348C189.068 6.66795 187.433 5.8875 185.942 5.8855C181.207 5.87936 180.605 12.1372 177.591 14.5512C176.67 15.2886 175.64 15.8894 174.769 16.6849C171.551 19.622 173 25.0588 175.955 27.6338C178.006 29.4205 181.228 30.4359 183.756 29.0391C185.075 28.3098 186.076 27.0979 186.79 25.77C187.802 23.8851 188.455 21.7105 189.175 19.7017C189.942 17.5636 190.584 15.3378 190.679 13.0553Z" fill="#13375B"/>
<path d="M188.908 28.864C188.908 28.864 185.372 25.237 184.462 23.6611C183.552 22.0853 185.082 23.1111 186.644 22.6966C187.236 22.5395 187.086 19.0713 188.205 20.1986C190.04 22.048 192.347 25.2824 192.347 25.2824L188.908 28.864Z" fill="#96D9C9"/>
<path d="M183.88 18.6041C183.88 18.6041 180.706 17.9775 179.258 19.1878C177.81 20.3981 179.568 31.1586 179.567 32.9423C179.565 34.726 178.572 39.3848 178.572 39.3848C178.572 39.3848 188.191 41.4499 189.719 38.7721C189.719 38.7721 190.154 28.5699 190.089 27.287C190.024 26.004 188.598 20.7573 188.204 20.1952C187.81 19.6334 183.88 18.6041 183.88 18.6041Z" fill="#50BFA5"/>
<path d="M183.86 13.6959C183.86 13.6959 183.843 13.7908 183.813 13.9523C183.669 14.727 183.115 17.2973 182.741 18.0039C182.288 18.8579 184.29 21.5812 186.216 21.249C186.79 21.1501 185.732 18.7466 185.782 18.492C185.88 18.0046 186.012 17.3397 186.147 16.6582C186.223 16.2736 186.3 15.8836 186.373 15.5173C186.579 14.4759 186.747 13.6241 186.747 13.6241L183.86 13.6959Z" fill="#F7A491"/>
<path d="M183.814 13.9524C183.844 13.7909 183.861 13.696 183.861 13.696L186.749 13.6241C186.749 13.6241 186.581 14.4759 186.375 15.5173C186.302 15.8818 186.226 16.2693 186.15 16.6518C185.704 16.5863 185.238 16.3699 184.771 15.9619C184.262 15.517 183.928 14.9824 183.727 14.4117C183.762 14.2295 183.792 14.0726 183.814 13.9524Z" fill="#F47458"/>
<path d="M185.802 7.14543C185.802 7.14543 184.441 6.98837 183.588 8.0898C182.735 9.19108 181.816 12.5967 183.935 14.4484C186.053 16.3 188.147 14.2042 188.457 11.9819C188.768 9.75959 188.888 7.06526 185.802 7.14543Z" fill="#F7A491"/>
<path d="M187.924 6.58649C187.924 6.58649 185.272 10.3885 182.746 9.87891L182.676 8.25685L182.909 7.64261L184.189 6.82072L186.268 6.34668L187.924 6.58649Z" fill="#13375B"/>
<path d="M189.087 11.9488C188.834 12.4397 188.41 12.7114 188.139 12.5557C187.868 12.4003 187.854 11.8762 188.106 11.3854C188.359 10.8947 188.784 10.6228 189.055 10.7785C189.326 10.934 189.34 11.458 189.087 11.9488Z" fill="#F7A491"/>
<path d="M183.179 10.9821C183.285 11.5573 183.072 12.0847 182.704 12.1601C182.336 12.2357 181.951 11.8306 181.845 11.2555C181.74 10.6804 181.952 10.1531 182.321 10.0775C182.689 10.002 183.073 10.407 183.179 10.9821Z" fill="#F7A491"/>
<path d="M186.622 13.2235L184.625 13.1201C184.625 13.1201 184.632 13.8809 185.509 13.9518C186.578 14.0383 186.622 13.2235 186.622 13.2235Z" fill="white"/>
<path d="M186.622 13.2235L184.625 13.1201C184.625 13.1201 184.632 13.8809 185.509 13.9518C186.578 14.0383 186.622 13.2235 186.622 13.2235Z" fill="white"/>
<path d="M180.454 28.7361C180.454 28.7361 178.371 24.118 178.055 22.3259C177.739 20.5339 179.276 18.284 180.886 18.4291C182.496 18.5742 184.91 26.5474 184.91 26.5474L180.454 28.7361Z" fill="#96D9C9"/>
</g>
<path d="M80.485 57.2316C82.3362 49.3897 77.4815 41.5314 69.6418 39.6797C61.8022 37.828 53.9462 42.6841 52.095 50.526C50.2438 58.368 55.0985 66.2262 62.9382 68.0779C70.7778 69.9296 78.6338 65.0736 80.485 57.2316Z" fill="white"/>
<path d="M107.303 91.6581C107.303 96.0188 103.769 99.5538 99.4091 99.5538C95.0497 99.5538 91.5156 96.0187 91.5156 91.6581C91.5156 87.2973 95.0497 83.7622 99.4091 83.7622C103.769 83.7623 107.303 87.2974 107.303 91.6581Z" fill="white"/>
<path d="M169.243 110.573C177.74 110.149 184.284 102.916 183.86 94.417C183.437 85.9179 176.205 79.3716 167.709 79.7953C159.212 80.2191 152.668 87.4525 153.091 95.9516C153.515 104.451 160.746 110.997 169.243 110.573Z" fill="white"/>
<path d="M271.133 94.3887C271.133 99.9357 266.638 104.433 261.092 104.433C255.546 104.433 251.051 99.9358 251.051 94.3887C251.051 88.8414 255.546 84.3445 261.092 84.3445C266.638 84.3445 271.133 88.8414 271.133 94.3887Z" fill="white"/>
<path d="M189.182 69.5063C189.182 71.8279 191.063 73.7099 193.384 73.7099C195.705 73.7099 197.586 71.8279 197.586 69.5063C197.586 67.1846 195.705 65.3025 193.384 65.3025C191.063 65.3025 189.182 67.1846 189.182 69.5063Z" fill="white"/>
<path d="M211.008 24.8988C211.008 26.2804 212.128 27.4003 213.509 27.4003C214.89 27.4003 216.01 26.2804 216.01 24.8988C216.01 23.5172 214.89 22.3972 213.509 22.3972C212.128 22.3972 211.008 23.5172 211.008 24.8988Z" fill="white"/>
<path d="M236.738 91.4496C237.5 89.6091 236.626 87.4992 234.787 86.7369C232.947 85.9745 230.837 86.8485 230.075 88.6889C229.313 90.5293 230.187 92.6392 232.027 93.4016C233.867 94.1639 235.976 93.29 236.738 91.4496Z" fill="white"/>
<path d="M121.422 19.5032C121.422 21.4698 123.016 23.064 124.982 23.064C126.948 23.064 128.542 21.4696 128.542 19.5032C128.542 17.5364 126.948 15.9422 124.982 15.9422C123.016 15.9422 121.422 17.5364 121.422 19.5032Z" fill="white"/>
<path d="M60.4849 21.9395C61.8308 20.5932 61.8308 18.4104 60.4849 17.0641C59.1389 15.7178 56.9568 15.7178 55.6108 17.0641C54.2649 18.4104 54.2649 20.5932 55.6108 21.9395C56.9568 23.2859 59.1389 23.2859 60.4849 21.9395Z" fill="white"/>
<path d="M94.3887 69.2306C94.3887 71.5522 96.2702 73.4341 98.591 73.4341C100.912 73.4341 102.793 71.5521 102.793 69.2306C102.793 66.909 100.912 65.027 98.591 65.027C96.2702 65.027 94.3887 66.909 94.3887 69.2306Z" fill="white"/>
<path d="M124.98 105.751C124.98 108.073 126.862 109.955 129.183 109.955C131.504 109.955 133.385 108.073 133.385 105.751C133.385 103.429 131.504 101.547 129.183 101.547C126.862 101.548 124.98 103.43 124.98 105.751Z" fill="white"/>
<path d="M143.854 65.0272C143.854 66.5336 145.074 67.7548 146.58 67.7548C148.086 67.7548 149.307 66.5336 149.307 65.0272C149.307 63.5206 148.086 62.2996 146.58 62.2996C145.074 62.2996 143.854 63.5208 143.854 65.0272Z" fill="white"/>
<path d="M66.2891 92.3578C66.2891 93.914 67.5502 95.1757 69.1061 95.1757C70.6618 95.1757 71.9229 93.914 71.9229 92.3578C71.9229 90.8015 70.6618 89.54 69.1061 89.54C67.5503 89.54 66.2891 90.8015 66.2891 92.3578Z" fill="white"/>
<path d="M15.8659 95.528C18.1811 95.3634 19.9245 93.3527 19.7599 91.0369C19.5954 88.7211 17.5852 86.9772 15.27 87.1418C12.9549 87.3064 11.2115 89.3171 11.3761 91.6329C11.5406 93.9487 13.5508 95.6926 15.8659 95.528Z" fill="white"/>
<path d="M30.6123 46.6185C30.6123 48.9401 32.4938 50.822 34.8147 50.822C37.1357 50.822 39.0172 48.9401 39.0172 46.6185C39.0172 44.2969 37.1357 42.4149 34.8147 42.4149C32.4939 42.4149 30.6123 44.2969 30.6123 46.6185Z" fill="white"/>
<path d="M275.596 83.764C275.596 86.0857 277.477 87.9677 279.798 87.9677C282.119 87.9677 284 86.0857 284 83.764C284 81.4426 282.119 79.5605 279.798 79.5605C277.477 79.5605 275.596 81.4426 275.596 83.764Z" fill="white"/>
<mask id="mask1_803_5099" style="mask-type:luminance" maskUnits="userSpaceOnUse" x="110" y="36" width="27" height="27">
<path d="M136.327 51.4891C137.463 44.484 132.708 37.8835 125.704 36.7466C118.701 35.6098 112.103 40.3669 110.966 47.3721C109.83 54.3772 114.585 60.9777 121.589 62.1146C128.592 63.2514 135.19 58.4943 136.327 51.4891Z" fill="white"/>
</mask>
<g mask="url(#mask1_803_5099)">
<path d="M119.194 41.489C122.712 39.6195 126.813 41.2942 127.12 46.2048C127.427 51.1154 123.963 52.8463 120.636 52.5213C117.31 52.1963 114.039 43.5498 119.194 41.489Z" fill="#13375B"/>
<path d="M121.316 54.5352C121.316 56.4689 122.884 58.0367 124.817 58.0367C126.75 58.0367 128.317 56.4689 128.317 54.5352C128.317 52.6014 126.75 51.0338 124.817 51.0338C122.883 51.0337 121.316 52.6013 121.316 54.5352Z" fill="#13375B"/>
<path d="M117.303 56.5443L105.35 56.133C105.35 56.133 96.0348 53.2208 95.7465 53.1403C95.4582 53.0597 94.0308 49.3295 93.6527 49.6484C93.2747 49.9671 94.4783 51.5159 93.9924 51.795C93.5064 52.0742 88.9597 50.5829 88.9676 50.9522C88.9824 51.6429 91.7157 51.9753 91.6643 52.2997C91.6127 52.6242 88.8444 51.68 88.5705 52.1898C88.2968 52.6994 91.2738 52.8302 91.3545 53.0887C91.4352 53.3474 88.5358 53.3525 88.7502 53.8989C88.8668 54.1954 91.3291 53.8297 91.2619 54.1993C91.1948 54.5688 89.3512 55.1498 89.5175 55.4779C89.6836 55.806 91.0009 54.7772 91.9994 54.9154C92.9978 55.0536 93.7923 54.621 95.3143 55.3204C96.8362 56.02 101.914 59.1332 105.332 59.487C108.75 59.8409 116.3 60.6438 116.3 60.6438L117.303 56.5443Z" fill="#F29383"/>
<path d="M119.582 55.9976C126.127 56.3027 120.372 61.7855 120.372 61.7855L110.701 60.4124C110.409 58.483 110.906 56.1809 110.93 55.6673C112.938 55.5433 117.97 55.9225 119.582 55.9976Z" fill="#C24C32"/>
<path d="M124.641 54.953C124.641 54.953 127.454 54.9029 128.949 56.5368C130.445 58.1709 126.599 70.9053 126.327 72.9849C126.055 75.0645 127.713 80.594 127.713 80.594C127.713 80.594 118.834 82.3853 116.297 80.7017C116.297 80.7017 116.025 65.7475 116.297 64.2621C116.569 62.7765 118.834 56.7355 119.378 56.1414C119.922 55.5471 124.641 54.953 124.641 54.953Z" fill="#F47458"/>
<path d="M123.382 49.8894C123.382 49.8894 123.401 50.001 123.437 50.1908C123.605 51.1019 124.254 54.1242 124.692 54.9549C125.222 55.9589 122.879 59.1613 120.623 58.7704C119.952 58.6541 121.191 55.8281 121.131 55.5287C121.017 54.9558 120.863 54.1739 120.704 53.3723C120.615 52.9203 120.525 52.4618 120.44 52.0308C120.199 50.8063 120.002 49.8049 120.002 49.8049L123.382 49.8894Z" fill="#F7A491"/>
<path d="M123.437 50.1909C123.402 50.001 123.382 49.8894 123.382 49.8894L120.002 49.8049C120.002 49.8049 120.199 50.8063 120.44 52.0308C120.524 52.4593 120.614 52.9151 120.703 53.3647C121.225 53.2879 121.77 53.0336 122.317 52.5537C122.913 52.0305 123.304 51.4021 123.539 50.7309C123.498 50.5168 123.463 50.3321 123.437 50.1909Z" fill="#F47458"/>
<path d="M121.11 42.1847C121.11 42.1847 122.703 42.0002 123.702 43.2952C124.7 44.5901 125.777 48.5945 123.296 50.7718C120.815 52.9488 118.364 50.4844 118.001 47.8714C117.637 45.2585 117.496 42.0904 121.11 42.1847Z" fill="#F7A491"/>
<path d="M117.266 47.835C117.562 48.4121 118.06 48.7316 118.377 48.5488C118.694 48.3659 118.711 47.7498 118.415 47.1727C118.119 46.5956 117.621 46.2759 117.304 46.4589C116.987 46.6418 116.97 47.2579 117.266 47.835Z" fill="#F7A491"/>
<path d="M120.928 41.7589C120.928 41.7589 123.056 45.5669 124.579 45.743C126.102 45.9189 126.301 47.9424 126.301 47.9424C126.301 47.9424 125.757 43.2799 124.25 42.3807C122.742 41.4815 120.928 41.7589 120.928 41.7589Z" fill="#13375B"/>
<path d="M124.182 46.6985C124.058 47.3747 124.308 47.995 124.739 48.0836C125.17 48.1725 125.62 47.6961 125.744 47.0199C125.868 46.3436 125.619 45.7233 125.187 45.6346C124.756 45.5459 124.306 46.0222 124.182 46.6985Z" fill="#F7A491"/>
<path d="M120.865 67.8579C120.865 67.8579 127.738 64.336 129.252 62.4592C130.767 60.5825 130.435 56.9874 128.483 56.1242C126.53 55.2611 118.59 63.2154 118.59 63.2154L120.865 67.8579Z" fill="#C24C32"/>
</g>
<mask id="mask2_803_5099" style="mask-type:luminance" maskUnits="userSpaceOnUse" x="142" y="15" width="15" height="15">
<path d="M142.379 22.7719C142.379 26.6009 145.482 29.705 149.31 29.705C153.138 29.705 156.241 26.6009 156.241 22.7719C156.241 18.9428 153.138 15.8389 149.31 15.8389C145.482 15.8389 142.379 18.9428 142.379 22.7719Z" fill="white"/>
</mask>
<g mask="url(#mask2_803_5099)">
<path d="M151.711 18.4824C149.812 17.4737 147.6 18.3772 147.434 21.0268C147.268 23.6764 149.138 24.6102 150.932 24.4349C152.728 24.2595 154.492 19.5943 151.711 18.4824Z" fill="#13375B"/>
<path d="M148.577 22.818C148.577 23.3165 148.172 23.7205 147.674 23.7205C147.176 23.7205 146.771 23.3165 146.771 22.818C146.771 22.3196 147.176 21.9154 147.674 21.9154C148.172 21.9154 148.577 22.3196 148.577 22.818Z" fill="#13375B"/>
<path d="M149.479 23.6699C149.479 24.1685 149.075 24.5725 148.576 24.5725C148.078 24.5725 147.674 24.1685 147.674 23.6699C147.674 23.1714 148.078 22.7672 148.576 22.7672C149.075 22.7672 149.479 23.1714 149.479 23.6699Z" fill="#13375B"/>
<path d="M150.663 24.3203C150.663 24.8188 150.258 25.2229 149.76 25.2229C149.262 25.2229 148.857 24.8188 148.857 24.3203C148.857 23.8218 149.262 23.4178 149.76 23.4178C150.258 23.4176 150.663 23.8218 150.663 24.3203Z" fill="#13375B"/>
<path d="M148.182 21.3292C148.182 21.8276 147.778 22.2318 147.28 22.2318C146.781 22.2318 146.377 21.8276 146.377 21.3292C146.377 20.8307 146.781 20.4265 147.28 20.4265C147.778 20.4265 148.182 20.8307 148.182 21.3292Z" fill="#13375B"/>
<path d="M148.491 19.78C148.491 20.2785 148.087 20.6825 147.588 20.6825C147.09 20.6825 146.686 20.2785 146.686 19.78C146.686 19.2815 147.09 18.8774 147.588 18.8774C148.087 18.8774 148.491 19.2815 148.491 19.78Z" fill="#13375B"/>
<path d="M149.536 18.7913C149.536 19.2898 149.131 19.6939 148.633 19.6939C148.135 19.6939 147.73 19.2898 147.73 18.7913C147.73 18.2928 148.135 17.8888 148.633 17.8888C149.131 17.8887 149.536 18.2928 149.536 18.7913Z" fill="#13375B"/>
<path d="M150.917 18.3809C150.917 18.8795 150.512 19.2835 150.014 19.2835C149.515 19.2835 149.111 18.8794 149.111 18.3809C149.111 17.8825 149.515 17.4785 150.014 17.4785C150.512 17.4785 150.917 17.8824 150.917 18.3809Z" fill="#13375B"/>
<path d="M152.352 18.4963C152.352 18.9949 151.948 19.399 151.449 19.399C150.951 19.399 150.547 18.9949 150.547 18.4963C150.547 17.9978 150.951 17.5938 151.449 17.5938C151.948 17.5938 152.352 17.9978 152.352 18.4963Z" fill="#13375B"/>
<path d="M153.422 19.6218C153.422 20.1202 153.018 20.5243 152.52 20.5243C152.021 20.5243 151.617 20.1202 151.617 19.6218C151.617 19.1233 152.021 18.7191 152.52 18.7191C153.018 18.7191 153.422 19.1233 153.422 19.6218Z" fill="#13375B"/>
<path d="M153.395 22.4996C153.395 22.9981 152.991 23.4021 152.493 23.4021C151.994 23.4021 151.59 22.9981 151.59 22.4996C151.59 22.0009 151.994 21.5969 152.493 21.5969C152.991 21.5969 153.395 22.0011 153.395 22.4996Z" fill="#13375B"/>
<path d="M152.493 23.8514C152.493 24.3499 152.089 24.7541 151.59 24.7541C151.092 24.7541 150.688 24.3499 150.688 23.8514C150.688 23.3529 151.092 22.9489 151.59 22.9489C152.089 22.9489 152.493 23.3529 152.493 23.8514Z" fill="#13375B"/>
<path d="M153.76 20.9755C153.76 21.4741 153.356 21.8781 152.858 21.8781C152.359 21.8781 151.955 21.4741 151.955 20.9755C151.955 20.477 152.359 20.073 152.858 20.073C153.356 20.0729 153.76 20.477 153.76 20.9755Z" fill="#13375B"/>
<path d="M151.254 24.1895C151.254 24.688 150.85 25.0922 150.352 25.0922C149.853 25.0922 149.449 24.688 149.449 24.1895C149.449 23.691 149.853 23.2869 150.352 23.2869C150.85 23.2869 151.254 23.691 151.254 24.1895Z" fill="#13375B"/>
<path d="M152.729 26.6077L159.178 26.3858C159.178 26.3858 164.204 24.8146 164.36 24.7712C164.515 24.7276 165.285 22.7151 165.489 22.887C165.693 23.0591 165.044 23.8947 165.306 24.0455C165.569 24.1959 168.022 23.3913 168.017 23.5906C168.009 23.9633 166.535 24.1425 166.562 24.3176C166.59 24.4926 168.084 23.9831 168.232 24.2583C168.379 24.5332 166.773 24.6037 166.73 24.7432C166.686 24.8828 168.251 24.8856 168.135 25.1805C168.072 25.3404 166.743 25.143 166.779 25.3424C166.816 25.5419 167.81 25.8553 167.721 26.0324C167.631 26.2094 166.92 25.6542 166.381 25.7288C165.843 25.8034 165.414 25.5701 164.593 25.9475C163.772 26.3249 161.032 28.0047 159.188 28.1955C157.344 28.3864 153.27 28.8196 153.27 28.8196L152.729 26.6077Z" fill="#F29383"/>
<path d="M151.501 26.3132C147.969 26.4778 151.074 29.4352 151.074 29.4352L156.293 28.6946C156.45 27.6539 156.182 26.4121 156.169 26.135C155.085 26.0682 152.371 26.2726 151.501 26.3132Z" fill="#C24C32"/>
<path d="M148.772 25.7486C148.772 25.7486 147.254 25.7216 146.447 26.6031C145.641 27.4846 147.716 34.3556 147.862 35.4777C148.009 36.5999 147.114 39.5833 147.114 39.5833C147.114 39.5833 151.905 40.5497 153.274 39.6413C153.274 39.6413 153.421 31.5728 153.274 30.7713C153.127 29.9698 151.905 26.7103 151.611 26.3897C151.318 26.069 148.772 25.7486 148.772 25.7486Z" fill="#F47458"/>
<path d="M149.449 23.0139C149.449 23.0139 149.439 23.0742 149.42 23.1767C149.329 23.6681 148.979 25.2988 148.742 25.7471C148.456 26.2887 149.721 28.0167 150.938 27.8058C151.3 27.743 150.631 26.2183 150.664 26.0566C150.725 25.7475 150.809 25.3258 150.894 24.8933C150.942 24.6494 150.991 24.402 151.036 24.1695C151.167 23.5087 151.273 22.9684 151.273 22.9684L149.449 23.0139Z" fill="#BF7154"/>
<path d="M149.421 23.1767C149.44 23.0742 149.45 23.0139 149.45 23.0139L151.274 22.9684C151.274 22.9684 151.168 23.5087 151.038 24.1695C150.992 24.4006 150.944 24.6465 150.896 24.8892C150.614 24.8478 150.32 24.7106 150.025 24.4515C149.703 24.1694 149.492 23.8301 149.365 23.4681C149.388 23.3525 149.406 23.2528 149.421 23.1767Z" fill="#A85D42"/>
<path d="M150.677 18.8588C150.677 18.8588 149.817 18.7592 149.279 19.4579C148.74 20.1566 148.159 22.3172 149.497 23.4919C150.836 24.6667 152.159 23.337 152.355 21.927C152.551 20.5173 152.627 18.808 150.677 18.8588Z" fill="#BF7154"/>
<path d="M152.749 21.9082C152.59 22.2196 152.321 22.3921 152.15 22.2932C151.979 22.1946 151.97 21.8621 152.13 21.5507C152.289 21.2393 152.558 21.067 152.729 21.1656C152.9 21.2643 152.909 21.5969 152.749 21.9082Z" fill="#BF7154"/>
<path d="M150.774 18.6276C150.774 18.6276 149.626 20.6817 148.804 20.7767C147.983 20.8715 147.875 21.9629 147.875 21.9629C147.875 21.9629 148.169 19.4481 148.982 18.9629C149.795 18.478 150.774 18.6276 150.774 18.6276Z" fill="#13375B"/>
<path d="M149.018 21.2954C149.085 21.6602 148.95 21.9949 148.718 22.0428C148.485 22.0905 148.242 21.8337 148.175 21.4687C148.109 21.1039 148.243 20.7692 148.476 20.7213C148.708 20.6735 148.951 20.9305 149.018 21.2954Z" fill="#BF7154"/>
<path d="M150.806 32.7125C150.806 32.7125 147.098 30.8123 146.281 29.7998C145.464 28.7872 145.643 26.8473 146.696 26.3817C147.749 25.916 152.034 30.2078 152.034 30.2078L150.806 32.7125Z" fill="#C24C32"/>
</g>
<mask id="mask3_803_5099" style="mask-type:luminance" maskUnits="userSpaceOnUse" x="208" y="40" width="29" height="28">
<path d="M227.363 66.962C234.588 64.4269 238.39 56.5133 235.856 49.2864C233.321 42.0595 225.41 38.2561 218.185 40.7911C210.96 43.3262 207.158 51.2398 209.692 58.4667C212.227 65.6936 220.138 69.497 227.363 66.962Z" fill="white"/>
</mask>
<g mask="url(#mask3_803_5099)">
<path d="M227.582 45.3046C224.623 43.7396 220.181 44.5572 219.028 50.3941C218.34 53.8711 216.631 57.5246 216.631 57.5246C221.111 59.5253 225.931 59.6099 229.795 58.9352C229.795 58.9352 233.145 47.5287 227.582 45.3046Z" fill="#F47458"/>
<path d="M229.621 61.5567L242.521 61.1125C242.521 61.1125 252.574 57.9699 252.885 57.8827C253.197 57.7958 254.737 53.7702 255.145 54.1142C255.553 54.4582 254.254 56.1299 254.779 56.4311C255.303 56.7322 260.21 55.1231 260.201 55.5215C260.185 56.2669 257.236 56.6256 257.291 56.9758C257.347 57.3259 260.335 56.3068 260.63 56.857C260.925 57.4071 257.713 57.5481 257.625 57.8274C257.538 58.1064 260.667 58.1121 260.436 58.7016C260.31 59.0217 257.653 58.6271 257.725 59.0257C257.798 59.4246 259.787 60.0517 259.608 60.4058C259.429 60.76 258.007 59.6495 256.929 59.7987C255.852 59.9478 254.994 59.481 253.352 60.2358C251.709 60.9908 246.229 64.3506 242.541 64.7325C238.852 65.1144 230.704 65.9809 230.704 65.9809L229.621 61.5567Z" fill="#F29383"/>
<path d="M227.164 60.9667C220.1 61.296 226.311 67.2132 226.311 67.2132L236.749 65.7313C237.063 63.6491 236.527 61.1647 236.501 60.6103C234.334 60.4764 228.904 60.8857 227.164 60.9667Z" fill="#C5DBFC"/>
<path d="M221.704 59.8355C221.704 59.8355 218.669 59.7815 217.055 61.5447C215.441 63.3081 219.591 77.0514 219.885 79.2957C220.178 81.54 218.389 87.5074 218.389 87.5074C218.389 87.5074 227.971 89.4405 230.71 87.6236C230.71 87.6236 231.003 71.4849 230.71 69.8819C230.416 68.2787 227.971 61.7591 227.384 61.1179C226.798 60.4766 221.704 59.8355 221.704 59.8355Z" fill="#9BC1F9"/>
<path d="M223.062 54.3719C223.062 54.3719 223.041 54.4924 223.003 54.6973C222.822 55.6806 222.121 58.9421 221.648 59.8389C221.076 60.9223 223.606 64.3782 226.04 63.9565C226.764 63.831 225.427 60.7813 225.492 60.4581C225.615 59.8398 225.781 58.996 225.952 58.131C226.048 57.6431 226.146 57.1483 226.238 56.6832C226.498 55.3616 226.71 54.2809 226.71 54.2809L223.062 54.3719Z" fill="#F7A491"/>
<path d="M223.003 54.6975C223.041 54.4925 223.062 54.3721 223.062 54.3721L226.71 54.2809C226.71 54.2809 226.498 55.3616 226.237 56.6833C226.146 57.1457 226.049 57.6376 225.953 58.123C225.39 58.0398 224.802 57.7654 224.212 57.2475C223.569 56.683 223.147 56.0046 222.893 55.2803C222.937 55.049 222.975 54.8498 223.003 54.6975Z" fill="#F5866E"/>
<path d="M225.516 46.0579C225.516 46.0579 223.797 45.8587 222.719 47.2562C221.642 48.6536 220.48 52.9755 223.157 55.3249C225.834 57.6744 228.48 55.0148 228.872 52.195C229.264 49.3752 229.417 45.9561 225.516 46.0579Z" fill="#F7A491"/>
<path d="M229.665 52.1527C229.345 52.7755 228.809 53.1203 228.466 52.923C228.124 52.7255 228.106 52.0606 228.426 51.4378C228.745 50.8151 229.282 50.4702 229.624 50.6675C229.966 50.8649 229.984 51.5297 229.665 52.1527Z" fill="#F7A491"/>
<path d="M225.712 45.5974C225.712 45.5974 223.414 49.7071 221.771 49.8969C220.128 50.087 219.912 52.2705 219.912 52.2705C219.912 52.2705 220.5 47.2386 222.126 46.2682C223.753 45.298 225.712 45.5974 225.712 45.5974Z" fill="#F47458"/>
<path d="M222.2 50.9275C222.334 51.6572 222.065 52.3265 221.599 52.4224C221.134 52.5181 220.649 52.0041 220.515 51.2743C220.381 50.5446 220.65 49.8752 221.115 49.7795C221.581 49.6836 222.066 50.1976 222.2 50.9275Z" fill="#F7A491"/>
<path d="M225.777 73.7668C225.777 73.7668 218.361 69.9661 216.726 67.9406C215.092 65.9152 215.45 62.0351 217.557 61.1036C219.663 60.1723 228.233 68.7564 228.233 68.7564L225.777 73.7668Z" fill="#C5DBFC"/>
</g>
<mask id="mask4_803_5099" style="mask-type:luminance" maskUnits="userSpaceOnUse" x="251" y="84" width="20" height="20">
<path d="M261.048 103.726C266.357 103.726 270.66 99.4214 270.66 94.1111C270.66 88.8009 266.357 84.4961 261.048 84.4961C255.739 84.4961 251.436 88.8009 251.436 94.1111C251.436 99.4214 255.739 103.726 261.048 103.726Z" fill="white"/>
</mask>
<g mask="url(#mask4_803_5099)">
<path d="M257.717 88.1667C260.35 86.7681 263.418 88.0211 263.648 91.6955C263.878 95.3701 261.286 96.6652 258.796 96.4221C256.307 96.1789 253.86 89.7089 257.717 88.1667Z" fill="#F7CC7F"/>
<path d="M259.307 97.9307C259.307 99.3777 260.479 100.551 261.926 100.551C263.373 100.551 264.545 99.3777 264.545 97.9307C264.545 96.4837 263.373 95.3107 261.926 95.3107C260.479 95.3107 259.307 96.4836 259.307 97.9307Z" fill="#F7CC7F"/>
<path d="M256.305 99.434L247.36 99.1262C247.36 99.1262 240.39 96.9472 240.174 96.8869C239.958 96.8264 238.89 94.0353 238.607 94.274C238.324 94.5124 239.225 95.6714 238.861 95.8803C238.498 96.0891 235.096 94.9734 235.101 95.2495C235.113 95.7664 237.158 96.0151 237.119 96.2579C237.081 96.5006 235.009 95.794 234.804 96.1756C234.599 96.5569 236.827 96.6548 236.888 96.8483C236.948 97.0418 234.778 97.0458 234.939 97.4545C235.026 97.6763 236.869 97.4026 236.818 97.6793C236.768 97.9559 235.388 98.3906 235.513 98.6361C235.637 98.8816 236.623 98.1118 237.37 98.2151C238.117 98.3186 238.712 97.9949 239.85 98.5182C240.989 99.0416 244.789 101.371 247.346 101.636C249.904 101.901 255.553 102.502 255.553 102.502L256.305 99.434Z" fill="#F29383"/>
<path d="M258.007 99.0265C262.904 99.2548 258.598 103.358 258.598 103.358L251.361 102.33C251.143 100.886 251.515 99.1637 251.533 98.7793C253.035 98.6867 256.8 98.9704 258.007 99.0265Z" fill="#96D9C9"/>
<path d="M261.793 98.2433C261.793 98.2433 263.898 98.2058 265.017 99.4285C266.136 100.651 263.258 110.18 263.055 111.736C262.851 113.292 264.092 117.43 264.092 117.43C264.092 117.43 257.448 118.77 255.549 117.51C255.549 117.51 255.346 106.321 255.549 105.209C255.753 104.097 257.448 99.5771 257.855 99.1325C258.262 98.6879 261.793 98.2433 261.793 98.2433Z" fill="#50BFA5"/>
<path d="M260.854 94.4516C260.854 94.4516 260.868 94.5353 260.894 94.6772C261.021 95.3589 261.506 97.6204 261.834 98.2422C262.231 98.9935 260.477 101.39 258.789 101.097C258.287 101.01 259.214 98.8956 259.169 98.6715C259.084 98.2428 258.968 97.6578 258.85 97.0579C258.783 96.7196 258.716 96.3766 258.652 96.0541C258.472 95.1378 258.324 94.3885 258.324 94.3885L260.854 94.4516Z" fill="#F7A491"/>
<path d="M260.895 94.6774C260.869 94.5353 260.854 94.4516 260.854 94.4516L258.324 94.3885C258.324 94.3885 258.472 95.1379 258.652 96.0541C258.715 96.3748 258.783 96.7158 258.849 97.0523C259.239 96.9947 259.648 96.8045 260.057 96.4454C260.503 96.0539 260.795 95.5836 260.972 95.0814C260.941 94.9212 260.915 94.783 260.895 94.6774Z" fill="#F47458"/>
<path d="M259.15 88.6905C259.15 88.6905 260.342 88.5526 261.089 89.5214C261.837 90.4903 262.642 93.4868 260.786 95.116C258.929 96.7451 257.095 94.9009 256.823 92.9457C256.551 90.9907 256.446 88.62 259.15 88.6905Z" fill="#F7A491"/>
<path d="M256.274 92.9152C256.495 93.3469 256.867 93.5861 257.105 93.4492C257.342 93.3123 257.354 92.8513 257.133 92.4195C256.911 91.9876 256.539 91.7485 256.302 91.8853C256.065 92.0222 256.052 92.4833 256.274 92.9152Z" fill="#F7A491"/>
<path d="M259.016 88.3681C259.016 88.3681 260.608 91.2175 261.748 91.3493C262.887 91.4809 263.036 92.995 263.036 92.995C263.036 92.995 262.629 89.5062 261.501 88.8334C260.373 88.1606 259.016 88.3681 259.016 88.3681Z" fill="#F7CC7F"/>
<path d="M261.45 92.0665C261.357 92.5726 261.543 93.0366 261.866 93.1031C262.189 93.1696 262.525 92.8131 262.618 92.3071C262.711 91.801 262.524 91.337 262.202 91.2705C261.879 91.2042 261.542 91.5606 261.45 92.0665Z" fill="#F7A491"/>
<path d="M258.97 107.9C258.97 107.9 264.113 105.265 265.246 103.861C266.379 102.456 266.131 99.7664 264.67 99.1206C263.209 98.4746 257.268 104.426 257.268 104.426L258.97 107.9Z" fill="#96D9C9"/>
</g>
<mask id="mask5_803_5099" style="mask-type:luminance" maskUnits="userSpaceOnUse" x="160" y="46" width="17" height="17">
<path d="M176.385 56.0304C177.142 51.6593 174.213 47.5019 169.843 46.7446C165.474 45.9873 161.317 48.9169 160.56 53.288C159.803 57.6591 162.732 61.8165 167.102 62.5738C171.472 63.3311 175.628 60.4015 176.385 56.0304Z" fill="white"/>
</mask>
<g mask="url(#mask5_803_5099)">
<path d="M154.375 59.8688C154.375 59.8688 157.21 59.111 157.243 59.3396C157.974 64.3437 158.291 66.1523 158.394 66.2019C158.744 66.3707 163.218 62.0584 164.028 61.7529C164.415 61.6068 164.841 61.6182 165.249 61.6195C166.222 61.6228 166.414 61.6212 166.414 61.6212C166.441 61.6222 166.449 61.6228 166.449 61.6228L166.468 62.5374C165.399 63.5518 164.348 83.1415 164.137 83.1372C163.901 83.1323 159.456 83.1085 159.668 82.7376C159.668 82.7376 160.742 76.7048 161.587 72.7278C161.871 71.3928 162.663 68.6018 162.663 68.6018C161.577 69.1829 157.332 71.4126 156.643 71.1508C154.5 70.3362 154.375 59.8688 154.375 59.8688Z" fill="#F47458"/>
<path d="M162.773 71.7793C163.261 69.3796 164.508 65.4419 164.873 64.5491C165.712 62.4987 166.418 61.6294 166.418 61.6294L169.737 61.7276C169.737 61.7276 169.814 61.7489 169.837 61.7526C170.108 61.7956 170.116 71.4645 169.97 75.0798C169.824 78.6949 169.022 83.3997 169.022 83.3997L168.075 83.3098C168.059 83.7976 168.048 84.1187 168.048 84.1187C163.246 84.9658 160.564 82.5976 160.564 82.5976C160.564 82.5976 162.141 74.8907 162.773 71.7793Z" fill="#466EB6"/>
<path d="M169.737 61.73C169.737 61.73 173.02 61.4907 173.857 61.0847C174.365 60.8386 178.499 57.3242 178.499 57.3242L178.212 48.2125L181.176 47.9086C181.176 47.9086 182.98 57.9409 182.476 59.0575C181.955 60.2105 175.897 65.0603 174.714 67.1266C174.032 68.3171 174.679 84.4798 174.458 84.6293C172.88 85.5038 166.25 86.2781 166.353 85.7699C169.202 71.728 169.737 61.73 169.737 61.73Z" fill="#F47458"/>
<path d="M169.566 58.8029L169.737 61.7279C169.737 61.7279 167.688 65.4827 166.573 64.9961C165.637 64.5879 166.384 61.7531 166.384 61.7531C166.384 61.7531 166.527 61.104 166.73 60.357C166.871 59.8352 166.985 59.2707 166.965 58.8594C166.916 57.8596 169.566 58.8029 169.566 58.8029Z" fill="#F7A491"/>
<path d="M166.964 58.8595C166.915 57.8595 169.566 58.8029 169.566 58.8029L169.582 59.0887C169.497 59.2242 169.403 59.3395 169.298 59.4296C168.608 60.0208 167.594 60.3055 166.762 60.2323C166.887 59.7467 166.983 59.2384 166.964 58.8595Z" fill="#F47458"/>
<path d="M166.826 52.1924C166.826 52.1924 165.776 53.8699 165.731 55.2596C165.686 56.6494 166.004 57.5885 166.004 57.5885L169.403 53.301L166.826 52.1924Z" fill="#184655"/>
<path d="M165.36 54.9863C165.323 55.4735 165.523 55.8856 165.806 55.9071C166.089 55.9285 166.348 55.5509 166.385 55.0637C166.422 54.5765 166.222 54.1642 165.939 54.1429C165.656 54.1217 165.397 54.4992 165.36 54.9863Z" fill="#F48C7F"/>
<path d="M170.556 53.9449C170.636 53.9257 170.734 57.965 169.588 58.9461C168.443 59.9274 166.408 60.0643 165.788 59.1225C165.102 58.0808 165.617 53.8083 167.334 52.8587C169.051 51.9091 170.556 53.9449 170.556 53.9449Z" fill="#F7A491"/>
<path d="M170.788 51.432C171.702 52.1922 172.15 52.7533 172.791 54.1307C173.58 55.824 172.151 57.6376 170.933 58.3753C169.715 59.1132 169.634 59.9685 169.634 59.9685L169.57 59.4442C169.54 59.2525 169.543 59.0963 169.573 58.9603C169.608 58.8002 169.677 58.6674 169.737 58.529C169.837 58.3011 170.155 57.521 170.281 57.314C170.615 56.7681 170.681 56.6501 170.496 56.1445C170.353 55.755 170.483 54.8852 170.262 54.2434L168.588 53.9279C168.588 53.9279 167.54 53.7048 166.998 53.1114C165.442 51.4082 168.377 49.3862 170.788 51.432Z" fill="#184655"/>
<path d="M170.11 56.5968C169.916 57.0454 169.971 57.5003 170.232 57.6129C170.493 57.7253 170.861 57.4529 171.054 57.0042C171.248 56.5556 171.193 56.1008 170.932 55.9883C170.672 55.8757 170.303 56.1482 170.11 56.5968Z" fill="#F7A491"/>
</g>
<mask id="mask6_803_5099" style="mask-type:luminance" maskUnits="userSpaceOnUse" x="3" y="52" width="25" height="25">
<path d="M18.4356 76.3303C24.8982 74.6139 28.7454 67.9821 27.0285 61.5179C25.3116 55.0537 18.6808 51.2048 12.2182 52.9213C5.75558 54.6377 1.90842 61.2695 3.62531 67.7337C5.3422 74.1979 11.973 78.0467 18.4356 76.3303Z" fill="white"/>
</mask>
<g mask="url(#mask6_803_5099)">
<path d="M-5.92773 72.4956C-5.92773 72.4956 -1.65373 71.353 -1.60344 71.6976C-0.50147 79.2422 -0.0237074 81.9687 0.131308 82.0433C0.659647 82.2977 7.40376 75.7965 8.62445 75.3357C9.20837 75.1153 9.85058 75.1328 10.4656 75.1348C11.9322 75.1396 12.2217 75.1375 12.2217 75.1375C12.2637 75.1389 12.2754 75.1396 12.2754 75.1396L12.3037 76.5186C10.6914 78.0481 9.10793 107.582 8.78919 107.575C8.43301 107.568 1.73261 107.532 2.05107 106.973C2.05107 106.973 3.67081 97.8776 4.94494 91.8817C5.37269 89.8689 6.56767 85.6612 6.56767 85.6612C4.92965 86.5374 -1.47028 89.8992 -2.50882 89.5044C-5.73943 88.2765 -5.92773 72.4956 -5.92773 72.4956Z" fill="#F7CC7F"/>
<path d="M6.73351 90.4539C7.46845 86.8361 9.34893 80.8993 9.89927 79.5534C11.1633 76.4622 12.2275 75.1514 12.2275 75.1514L17.2319 75.2996C17.2319 75.2996 17.3476 75.3316 17.3826 75.337C17.7916 75.4019 17.8039 89.9793 17.5835 95.4296C17.363 100.88 16.1538 107.973 16.1538 107.973L14.7259 107.838C14.7023 108.573 14.686 109.057 14.686 109.057C7.44559 110.334 3.40332 106.764 3.40332 106.764C3.40332 106.764 5.78056 95.1446 6.73351 90.4539Z" fill="#F7CC7F"/>
<path d="M17.2304 75.3012C17.2304 75.3012 22.1791 74.9403 23.4421 74.3284C24.208 73.9572 30.4396 68.6589 30.4396 68.6589L30.0079 54.9218L34.4762 54.4636C34.4762 54.4636 37.1959 69.5887 36.4354 71.2722C35.65 73.0106 26.5167 80.322 24.7333 83.4373C23.7059 85.2323 24.6808 109.6 24.3474 109.825C21.9692 111.144 11.9723 112.311 12.1278 111.545C16.4231 90.3745 17.2304 75.3012 17.2304 75.3012Z" fill="#F7CC7F"/>
<path d="M16.9737 70.8903L17.2315 75.3002C17.2315 75.3002 14.1427 80.9608 12.4614 80.2274C11.0507 79.6119 12.1765 75.3382 12.1765 75.3382C12.1765 75.3382 12.3923 74.3592 12.6977 73.2334C12.9112 72.4466 13.0833 71.5957 13.0528 70.9758C12.9782 69.4682 16.9737 70.8903 16.9737 70.8903Z" fill="#BF7154"/>
<path d="M13.0521 70.9756C12.9777 69.4684 16.9731 70.8901 16.9731 70.8901L16.9984 71.3209C16.8702 71.5252 16.7279 71.6992 16.5699 71.8345C15.5291 72.7259 14.0013 73.1549 12.7471 73.0443C12.9365 72.3126 13.0802 71.5462 13.0521 70.9756Z" fill="#A3573C"/>
<path d="M12.8447 60.9261C12.8447 60.9261 11.2614 63.4553 11.1931 65.5504C11.125 67.6456 11.6053 69.0615 11.6053 69.0615L16.7296 62.5975L12.8447 60.9261Z" fill="#184655"/>
<path d="M10.6364 65.1334C10.5811 65.868 10.8822 66.4895 11.3091 66.5217C11.736 66.554 12.127 65.9846 12.1823 65.2502C12.2377 64.5156 11.9365 63.8942 11.5096 63.8619C11.0826 63.8296 10.6917 64.399 10.6364 65.1334Z" fill="#A3573C"/>
<path d="M18.4697 63.5635C18.5903 63.5344 18.7382 69.6242 17.0113 71.1035C15.2842 72.5828 12.2165 72.7892 11.2818 71.3694C10.248 69.7989 11.0234 63.3575 13.6119 61.926C16.2006 60.4943 18.4697 63.5635 18.4697 63.5635Z" fill="#BF7154"/>
<path d="M18.8164 59.7769C20.1944 60.9229 20.8692 61.7688 21.8357 63.8452C23.0241 66.3983 20.8709 69.1325 19.0343 70.2447C17.1978 71.357 17.0764 72.6466 17.0764 72.6466L16.9787 71.8562C16.9344 71.567 16.9387 71.3318 16.9835 71.1266C17.0362 70.8853 17.1408 70.6851 17.2318 70.4765C17.3816 70.133 17.8609 68.9569 18.0518 68.6448C18.5551 67.8217 18.654 67.6438 18.3748 66.8815C18.1599 66.2946 18.3565 64.9832 18.0226 64.0154L15.4987 63.5398C15.4987 63.5398 13.9184 63.2032 13.1013 62.309C10.7555 59.7407 15.1806 56.6924 18.8164 59.7769Z" fill="#184655"/>
<path d="M17.7957 67.5652C17.504 68.2416 17.5863 68.9274 17.9793 69.097C18.3723 69.2667 18.9276 68.8558 19.2192 68.1795C19.5108 67.5033 19.4286 66.8174 19.0356 66.6478C18.6424 66.478 18.0874 66.8887 17.7957 67.5652Z" fill="#BF7154"/>
</g>
<mask id="mask7_803_5099" style="mask-type:luminance" maskUnits="userSpaceOnUse" x="75" y="6" width="21" height="21">
<path d="M75.1816 16.0976C75.1816 21.6183 79.6558 26.0938 85.1749 26.0938C90.6941 26.0938 95.1682 21.6183 95.1682 16.0976C95.1682 10.577 90.6941 6.10156 85.1749 6.10156C79.6558 6.10156 75.1816 10.5769 75.1816 16.0976Z" fill="white"/>
</mask>
<g mask="url(#mask7_803_5099)">
<path d="M102.713 22.5901C102.713 22.5901 99.1848 21.647 99.1432 21.9313C98.2337 28.1587 97.8394 30.4093 97.7114 30.4709C97.2752 30.681 91.7085 25.3146 90.7009 24.9343C90.219 24.7524 89.689 24.7668 89.1812 24.7684C87.9705 24.7724 87.7318 24.7705 87.7318 24.7705C87.6971 24.7718 87.6874 24.7724 87.6874 24.7724L87.6641 25.9107C88.9949 27.173 90.3019 51.551 90.5649 51.5457C90.859 51.5395 96.3895 51.5099 96.1268 51.0485C96.1268 51.0485 94.7898 43.5411 93.7381 38.5919C93.3849 36.9304 92.3985 33.4572 92.3985 33.4572C93.7505 34.1803 99.0334 36.9553 99.8906 36.6296C102.557 35.616 102.713 22.5901 102.713 22.5901Z" fill="#13375B"/>
<path d="M92.2648 37.4141C91.6582 34.4278 90.106 29.5274 89.6517 28.4166C88.6085 25.8649 87.7299 24.783 87.7299 24.783L83.5992 24.9052C83.5992 24.9052 83.5037 24.9318 83.4748 24.9364C83.1372 24.9898 83.127 37.0222 83.3091 41.5213C83.4909 46.0203 84.4892 51.8749 84.4892 51.8749L85.6677 51.763C85.6872 52.3699 85.7007 52.7695 85.7007 52.7695C91.6772 53.8236 95.0137 50.8763 95.0137 50.8763C95.0137 50.8763 93.0515 41.286 92.2648 37.4141Z" fill="#466EB6"/>
<path d="M83.5979 24.9052C83.5979 24.9052 79.5132 24.6074 78.4706 24.1024C77.8384 23.796 72.6946 19.4227 72.6946 19.4227L73.051 8.08384L69.3627 7.70569C69.3627 7.70569 67.1178 20.1903 67.7456 21.5798C68.3938 23.0147 75.9328 29.0497 77.4047 31.6212C78.2526 33.1026 77.4481 53.2161 77.7231 53.4021C79.6863 54.4903 87.9379 55.454 87.8097 54.8216C84.2641 37.3471 83.5979 24.9052 83.5979 24.9052Z" fill="#13375B"/>
<path d="M83.8122 21.2656L83.5996 24.9056C83.5996 24.9056 86.1492 29.578 87.537 28.9726C88.7014 28.4646 87.7722 24.9369 87.7722 24.9369C87.7722 24.9369 87.594 24.129 87.342 23.1997C87.1658 22.5501 87.0235 21.848 87.0488 21.3361C87.1103 20.0919 83.8122 21.2656 83.8122 21.2656Z" fill="#F7A491"/>
<path d="M87.0482 21.336C87.1098 20.092 83.8117 21.2654 83.8117 21.2654L83.791 21.621C83.8967 21.7898 84.0143 21.9334 84.1448 22.0451C85.0038 22.7809 86.2648 23.1349 87.3002 23.0437C87.1436 22.4397 87.0249 21.8071 87.0482 21.336Z" fill="#F47458"/>
<path d="M87.2201 13.0406C87.2201 13.0406 88.5271 15.1282 88.5834 16.8577C88.6396 18.5872 88.2432 19.7558 88.2432 19.7558L84.0137 14.4203L87.2201 13.0406Z" fill="#F47458"/>
<path d="M89.0453 16.514C89.091 17.1202 88.8424 17.6333 88.4899 17.6599C88.1376 17.6864 87.8148 17.2165 87.7691 16.6103C87.7235 16.0041 87.972 15.491 88.3244 15.4643C88.677 15.4377 88.9997 15.9076 89.0453 16.514Z" fill="#F48C7F"/>
<path d="M82.5781 15.2182C82.4786 15.1943 82.3565 20.2207 83.7819 21.4419C85.2073 22.663 87.7396 22.8333 88.5111 21.6613C89.3645 20.3649 88.7245 15.0481 86.5878 13.8665C84.451 12.6848 82.5781 15.2182 82.5781 15.2182Z" fill="#F7A491"/>
<path d="M82.2916 12.0905C81.154 13.0364 80.5971 13.7347 79.7993 15.4488C78.8184 17.5562 80.5957 19.813 82.1117 20.7311C83.6276 21.6492 83.7279 22.7137 83.7279 22.7137L83.8084 22.0612C83.845 21.8227 83.8414 21.6283 83.8044 21.4591C83.761 21.26 83.6746 21.0947 83.5996 20.9225C83.476 20.6389 83.0804 19.6681 82.9228 19.4104C82.5073 18.731 82.4257 18.5843 82.6562 17.955C82.8336 17.4707 82.6713 16.3881 82.9468 15.5892L85.0301 15.1967C85.0301 15.1967 86.3347 14.9191 87.009 14.1808C88.9454 12.0607 85.2926 9.54446 82.2916 12.0905Z" fill="#F47458"/>
<path d="M83.1336 18.5164C83.3743 19.0746 83.3065 19.6407 82.982 19.7808C82.6574 19.9207 82.1992 19.5817 81.9586 19.0235C81.7177 18.4652 81.7858 17.899 82.1102 17.7591C82.4348 17.619 82.8929 17.9582 83.1336 18.5164Z" fill="#F7A491"/>
</g>
<mask id="mask8_803_5099" style="mask-type:luminance" maskUnits="userSpaceOnUse" x="127" y="77" width="13" height="13">
<path d="M135.636 89.1859C138.629 87.9457 140.051 84.5132 138.811 81.5191C137.571 78.5251 134.139 77.1033 131.146 78.3435C128.153 79.5837 126.732 83.0163 127.971 86.0103C129.211 89.0043 132.643 90.4261 135.636 89.1859Z" fill="white"/>
</mask>
<g mask="url(#mask8_803_5099)">
<path d="M123.092 87.5763C123.092 87.5763 125.163 87.0227 125.187 87.1895C125.721 90.845 125.952 92.166 126.028 92.2022C126.284 92.3255 129.551 89.1756 130.143 88.9524C130.425 88.8456 130.737 88.854 131.035 88.8549C131.745 88.8573 131.886 88.8562 131.886 88.8562C131.906 88.857 131.912 88.8573 131.912 88.8573L131.925 89.5254C131.144 90.2664 130.377 104.576 130.223 104.573C130.05 104.569 126.803 104.552 126.958 104.281C126.958 104.281 127.742 99.8742 128.36 96.9691C128.567 95.9938 129.146 93.955 129.146 93.955C128.352 94.3796 125.251 96.0085 124.748 95.8172C123.183 95.2225 123.092 87.5763 123.092 87.5763Z" fill="#F7CC7F"/>
<path d="M129.225 96.2781C129.581 94.5251 130.492 91.6487 130.759 90.9966C131.371 89.4989 131.887 88.8638 131.887 88.8638L134.311 88.9355C134.311 88.9355 134.368 88.9511 134.385 88.9537C134.583 88.9851 134.589 96.0481 134.482 98.6889C134.375 101.33 133.789 104.766 133.789 104.766L133.097 104.701C133.086 105.057 133.078 105.292 133.078 105.292C129.57 105.91 127.611 104.18 127.611 104.18C127.611 104.18 128.763 98.5508 129.225 96.2781Z" fill="#466EB6"/>
<path d="M134.311 88.9358C134.311 88.9358 136.709 88.761 137.321 88.4645C137.692 88.2847 140.711 85.7176 140.711 85.7176L140.502 79.0617L142.667 78.8396C142.667 78.8396 143.985 86.168 143.616 86.9836C143.236 87.8258 138.81 91.3685 137.947 92.8779C137.449 93.7474 137.921 105.554 137.759 105.663C136.607 106.302 131.763 106.868 131.839 106.496C133.92 96.2391 134.311 88.9358 134.311 88.9358Z" fill="#F7CC7F"/>
<path d="M134.185 86.8L134.31 88.9367C134.31 88.9367 132.813 91.6794 131.998 91.3241C131.315 91.0258 131.86 88.9552 131.86 88.9552C131.86 88.9552 131.965 88.4808 132.113 87.9353C132.217 87.5542 132.3 87.1419 132.285 86.8415C132.249 86.1111 134.185 86.8 134.185 86.8Z" fill="#F7A491"/>
<path d="M132.287 86.8414C132.251 86.1111 134.187 86.8 134.187 86.8L134.199 87.0088C134.137 87.1078 134.068 87.1921 133.992 87.2577C133.487 87.6896 132.747 87.8977 132.139 87.8442C132.231 87.4895 132.3 87.1181 132.287 86.8414Z" fill="#F47458"/>
<path d="M132.184 81.9696C132.184 81.9696 131.417 83.1949 131.384 84.2102C131.351 85.2253 131.584 85.9114 131.584 85.9114L134.066 82.7795L132.184 81.9696Z" fill="#13375B"/>
<path d="M131.115 84.0105C131.088 84.3664 131.234 84.6677 131.441 84.6831C131.647 84.6988 131.837 84.423 131.864 84.0671C131.89 83.7113 131.744 83.4101 131.538 83.3944C131.331 83.3788 131.141 83.6547 131.115 84.0105Z" fill="#F48C7F"/>
<path d="M134.91 83.2482C134.969 83.234 135.04 86.1846 134.204 86.9014C133.367 87.6182 131.88 87.7182 131.428 87.0302C130.927 86.2693 131.302 83.1483 132.556 82.4547C133.811 81.7612 134.91 83.2482 134.91 83.2482Z" fill="#F7A491"/>
<path d="M135.079 81.4149C135.747 81.9702 136.074 82.38 136.542 83.3861C137.118 84.6231 136.075 85.9478 135.185 86.4869C134.295 87.0257 134.236 87.6506 134.236 87.6506L134.189 87.2676C134.167 87.1275 134.169 87.0136 134.191 86.914C134.217 86.7973 134.267 86.7002 134.311 86.5992C134.384 86.4327 134.616 85.8629 134.709 85.7116C134.952 85.3128 135 85.2265 134.865 84.8574C134.761 84.5728 134.856 83.9376 134.695 83.4686L133.472 83.2382C133.472 83.2382 132.706 83.0751 132.31 82.6418C131.173 81.3973 133.317 79.9204 135.079 81.4149Z" fill="#13375B"/>
<path d="M134.585 85.1873C134.443 85.515 134.483 85.8473 134.674 85.9294C134.864 86.0116 135.133 85.8127 135.274 85.485C135.416 85.1574 135.376 84.825 135.185 84.7428C134.995 84.6605 134.726 84.8596 134.585 85.1873Z" fill="#F7A491"/>
</g>
<mask id="mask9_803_5099" style="mask-type:luminance" maskUnits="userSpaceOnUse" x="200" y="86" width="15" height="15">
<path d="M200.115 93.8427C200.115 97.7524 203.284 100.922 207.192 100.922C211.101 100.922 214.269 97.7524 214.269 93.8427C214.269 89.933 211.101 86.7638 207.192 86.7638C203.284 86.7638 200.115 89.933 200.115 93.8427Z" fill="white"/>
</mask>
<g mask="url(#mask9_803_5099)">
<path d="M219.61 98.44C219.61 98.44 217.112 97.772 217.083 97.9736C216.438 102.384 216.159 103.977 216.068 104.021C215.76 104.17 211.817 100.37 211.104 100.1C210.762 99.9715 210.387 99.9816 210.028 99.9828C209.17 99.9856 209.001 99.9842 209.001 99.9842C208.977 99.9852 208.97 99.9856 208.97 99.9856L208.953 100.792C209.896 101.686 210.821 118.949 211.007 118.946C211.216 118.941 215.132 118.92 214.946 118.593C214.946 118.593 213.999 113.277 213.254 109.772C213.004 108.595 212.306 106.136 212.306 106.136C213.263 106.648 217.005 108.613 217.611 108.382C219.5 107.664 219.61 98.44 219.61 98.44Z" fill="#F47458"/>
<path d="M212.213 108.938C211.783 106.823 210.684 103.353 210.362 102.566C209.623 100.759 209.001 99.9929 209.001 99.9929L206.076 100.079C206.076 100.079 206.008 100.098 205.988 100.102C205.749 100.139 205.742 108.66 205.87 111.846C205.999 115.032 206.706 119.179 206.706 119.179L207.541 119.099C207.555 119.529 207.564 119.812 207.564 119.812C211.797 120.559 214.159 118.472 214.159 118.472C214.159 118.472 212.77 111.68 212.213 108.938Z" fill="#466EB6"/>
<path d="M206.072 100.08C206.072 100.08 203.18 99.8689 202.441 99.5113C201.993 99.2944 198.351 96.1972 198.351 96.1972L198.603 88.1673L195.991 87.8995C195.991 87.8995 194.401 96.7408 194.846 97.7248C195.305 98.7409 200.644 103.015 201.686 104.836C202.287 105.885 201.717 120.129 201.912 120.26C203.302 121.031 209.146 121.713 209.055 121.266C206.544 108.891 206.072 100.08 206.072 100.08Z" fill="#F47458"/>
<path d="M206.225 97.5014L206.074 100.079C206.074 100.079 207.88 103.388 208.863 102.96C209.687 102.6 209.029 100.101 209.029 100.101C209.029 100.101 208.903 99.5293 208.724 98.8712C208.6 98.4113 208.499 97.914 208.517 97.5514C208.56 96.6702 206.225 97.5014 206.225 97.5014Z" fill="#F7A491"/>
<path d="M208.518 97.5514C208.562 96.6702 206.226 97.5014 206.226 97.5014L206.211 97.7535C206.286 97.873 206.369 97.9746 206.461 98.0539C207.07 98.575 207.963 98.8258 208.697 98.7612C208.586 98.3333 208.502 97.8853 208.518 97.5514Z" fill="#F47458"/>
<path d="M208.64 91.6772C208.64 91.6772 209.566 93.1557 209.605 94.3803C209.645 95.6051 209.364 96.4327 209.364 96.4327L206.369 92.6542L208.64 91.6772Z" fill="#184655"/>
<path d="M209.931 94.1385C209.963 94.5678 209.787 94.9311 209.538 94.9499C209.288 94.9688 209.06 94.6359 209.027 94.2066C208.995 93.7773 209.171 93.414 209.421 93.3952C209.67 93.3763 209.899 93.709 209.931 94.1385Z" fill="#F48C7F"/>
<path d="M205.351 93.2205C205.281 93.2035 205.194 96.7632 206.204 97.628C207.213 98.4927 209.007 98.6133 209.553 97.7833C210.157 96.8652 209.704 93.1 208.191 92.2633C206.678 91.4265 205.351 93.2205 205.351 93.2205Z" fill="#F7A491"/>
<path d="M205.148 91.0044C204.342 91.6743 203.948 92.1688 203.383 93.3826C202.688 94.875 203.947 96.4732 205.021 97.1235C206.094 97.7736 206.165 98.5274 206.165 98.5274L206.222 98.0654C206.248 97.8963 206.246 97.7588 206.219 97.6389C206.189 97.498 206.127 97.3808 206.074 97.2589C205.987 97.0581 205.706 96.3707 205.595 96.1882C205.301 95.7072 205.243 95.6031 205.406 95.1575C205.532 94.8144 205.417 94.0478 205.612 93.4822L207.087 93.2041C207.087 93.2041 208.011 93.0074 208.489 92.4848C209.86 90.9833 207.273 89.2014 205.148 91.0044Z" fill="#184655"/>
<path d="M205.745 95.5552C205.915 95.9506 205.867 96.3515 205.637 96.4507C205.408 96.5498 205.083 96.3096 204.913 95.9143C204.742 95.5189 204.79 95.1181 205.02 95.0189C205.25 94.9198 205.574 95.1599 205.745 95.5552Z" fill="#F7A491"/>
</g>
<mask id="mask10_803_5099" style="mask-type:luminance" maskUnits="userSpaceOnUse" x="154" y="79" width="29" height="30">
<path d="M181.783 99.6902C184.827 92.339 181.338 83.9113 173.989 80.8663C166.64 77.8213 158.214 81.3121 155.17 88.6632C152.126 96.0144 155.616 104.442 162.965 107.487C170.314 110.532 178.739 107.041 181.783 99.6902Z" fill="white"/>
</mask>
<g mask="url(#mask10_803_5099)">
<path d="M164.91 111.295C164.91 111.295 168.155 106.958 169.34 104.906C170.525 102.854 168.533 104.19 166.499 103.65C165.728 103.446 166.367 99.2379 164.91 100.706C162.521 103.114 160.125 108.332 160.125 108.332L164.91 111.295Z" fill="#13375B"/>
<path d="M165.258 100.419C167.357 99.7824 171.289 99.4494 171.289 99.4494C171.289 99.4494 173.754 99.0486 174.555 99.2222C175.734 99.4774 177.947 99.5943 178.153 104.712C178.3 108.375 178.717 117.437 179.135 123.556L164.127 124.467C164.806 115.053 163.271 101.021 165.258 100.419Z" fill="#47637F"/>
<path d="M169.238 95.0739L171.595 99.4098C171.595 99.4098 169.82 102.575 168.14 102.66C166.731 102.731 166.952 100.647 166.952 100.647C166.952 100.647 166.73 97.9523 166.054 96.7452C165.378 95.5382 169.238 95.0739 169.238 95.0739Z" fill="#F7A491"/>
<path d="M169.023 96.8102C168.494 97.3746 167.61 98.1188 166.652 98.5921C166.513 97.9155 166.319 97.217 166.054 96.7454C165.742 96.1883 166.396 95.7897 167.191 95.5216C168.256 95.2385 169.238 95.0739 169.238 95.0739L169.691 95.9072C169.576 96.1996 169.199 96.6223 169.023 96.8102Z" fill="#F47458"/>
<path d="M168.03 87.7709C168.127 87.7016 170.452 93.1219 169.444 95.0721C168.435 97.0223 165.772 98.3099 164.426 97.3695C162.938 96.3294 161.31 90.2613 163.105 88.0445C164.9 85.8276 168.03 87.7709 168.03 87.7709Z" fill="#F7A491"/>
<path d="M163.118 84.794C164.946 84.6655 166.36 85.4111 166.897 85.7472C167.709 85.6215 168.897 85.7585 170.507 87.2776C172.487 89.1454 172.178 91.9112 170.94 93.5709C169.701 95.2305 170.115 96.6341 170.115 96.6341L169.663 95.9744C169.325 95.4732 169.087 94.9085 168.987 94.3119C168.928 93.9539 168.898 93.5574 168.956 93.2083C169.108 92.2876 167.763 92.0786 167.239 91.4939C166.836 91.0436 166.491 89.8526 165.845 89.1025L165.176 88.5789C165.176 88.5789 163.814 88.0188 162.787 88.5698C161.76 89.1207 160.772 84.9592 163.118 84.794Z" fill="#F7CC7F"/>
<path d="M167.592 92.4751C167.771 93.1654 168.24 93.641 168.639 93.5374C169.037 93.4337 169.215 92.7902 169.035 92.0999C168.855 91.4095 168.386 90.9339 167.988 91.0376C167.589 91.1413 167.412 91.7848 167.592 92.4751Z" fill="#F7A491"/>
<path d="M165.694 94.7124L163.492 95.204C163.492 95.204 163.73 96.0289 164.704 95.8407C165.892 95.6112 165.694 94.7124 165.694 94.7124Z" fill="white"/>
<path d="M172.843 112.055C172.843 112.055 176.784 107.046 177.746 105.079C178.709 103.112 177.68 99.9976 175.77 99.6292C173.86 99.2605 168.328 108.247 168.328 108.247L172.843 112.055Z" fill="#13375B"/>
</g>
<mask id="mask11_803_5099" style="mask-type:luminance" maskUnits="userSpaceOnUse" x="22" y="15" width="18" height="18">
<path d="M22.1309 23.8462C22.1309 28.534 25.9301 32.3344 30.6166 32.3344C35.3032 32.3344 39.1023 28.5342 39.1023 23.8462C39.1023 19.1583 35.3032 15.3579 30.6166 15.3579C25.93 15.3579 22.1309 19.1583 22.1309 23.8462Z" fill="white"/>
</mask>
<g mask="url(#mask11_803_5099)">
<path d="M32.7111 33.9302C32.7111 33.9302 30.7992 31.3754 30.1009 30.1663C29.4027 28.9574 30.5764 29.7445 31.7751 29.4263C32.229 29.306 31.8527 26.8266 32.7109 27.6917C34.1188 29.1106 35.5302 32.1848 35.5302 32.1848L32.7111 33.9302Z" fill="#96D9C9"/>
<path d="M32.5041 27.5226C31.2675 27.1477 28.9507 26.9515 28.9507 26.9515C28.9507 26.9515 27.4984 26.7153 27.0267 26.8174C26.3322 26.9679 25.0282 27.0367 24.9068 30.0523C24.82 32.2103 24.5743 37.5492 24.3281 41.1546L33.1706 41.6915C32.7706 36.1445 33.6749 27.8776 32.5041 27.5226Z" fill="#50BFA5"/>
<path d="M30.1602 24.3732L28.7715 26.9277C28.7715 26.9277 29.8176 28.7929 30.8071 28.8426C31.6375 28.8845 31.5069 27.6566 31.5069 27.6566C31.5069 27.6566 31.6375 26.069 32.0361 25.358C32.4347 24.6468 30.1602 24.3732 30.1602 24.3732Z" fill="#F7A491"/>
<path d="M30.2883 25.3961C30.6001 25.7288 31.121 26.1672 31.6857 26.446C31.7679 26.0474 31.8822 25.6358 32.038 25.358C32.2219 25.0297 31.8363 24.7949 31.3677 24.637C30.74 24.4701 30.1615 24.3732 30.1615 24.3732L29.8945 24.8641C29.9624 25.0364 30.1845 25.2854 30.2883 25.3961Z" fill="#F47458"/>
<path d="M30.8735 20.0681C30.8164 20.0272 29.4464 23.2209 30.0408 24.3697C30.635 25.5186 32.2043 26.2775 32.997 25.7233C33.8738 25.1106 34.8328 21.5352 33.7754 20.2293C32.718 18.923 30.8735 20.0681 30.8735 20.0681Z" fill="#F7A491"/>
<path d="M33.7668 18.3151C32.6897 18.2393 31.8562 18.6786 31.5399 18.8767C31.062 18.8027 30.3616 18.8833 29.4129 19.7785C28.2464 20.8789 28.4285 22.5086 29.1582 23.4864C29.888 24.4642 29.6439 25.2911 29.6439 25.2911L29.9104 24.9024C30.1094 24.6072 30.2497 24.2743 30.3084 23.923C30.3436 23.712 30.3614 23.4785 30.3272 23.2727C30.2371 22.7302 31.0298 22.6072 31.3384 22.2626C31.576 21.9972 31.7792 21.2955 32.1599 20.8538L32.5538 20.5452C32.5538 20.5452 33.3565 20.2152 33.9617 20.5398C34.5667 20.8642 35.1486 18.4123 33.7668 18.3151Z" fill="#184655"/>
<path d="M31.132 22.8425C31.0261 23.2491 30.7498 23.5292 30.515 23.4683C30.2802 23.4071 30.1756 23.028 30.2817 22.6214C30.3876 22.2146 30.6638 21.9344 30.8986 21.9956C31.1334 22.0564 31.2379 22.4356 31.132 22.8425Z" fill="#F7A491"/>
<path d="M32.2485 24.1622L33.5458 24.4517C33.5458 24.4517 33.4059 24.9378 32.8318 24.8269C32.1316 24.6915 32.2485 24.1622 32.2485 24.1622Z" fill="white"/>
<path d="M28.0375 34.3775C28.0375 34.3775 25.7154 31.4259 25.1485 30.2669C24.5814 29.108 25.1875 27.2733 26.3129 27.0562C27.4383 26.8391 30.6975 32.1337 30.6975 32.1337L28.0375 34.3775Z" fill="#96D9C9"/>
</g>
<mask id="mask12_803_5099" style="mask-type:luminance" maskUnits="userSpaceOnUse" x="52" y="40" width="28" height="28">
<path d="M67.2555 67.4245C74.7408 66.8923 80.3776 60.3911 79.8456 52.9036C79.3135 45.4161 72.8141 39.7777 65.3288 40.3099C57.8435 40.8421 52.2067 47.3433 52.7387 54.8308C53.2708 62.3183 59.7701 67.9567 67.2555 67.4245Z" fill="white"/>
</mask>
<g mask="url(#mask12_803_5099)">
<path d="M74.3961 59.3815C74.6446 59.3918 75.3253 59.6197 76.3212 61.5019C77.5927 63.9054 79.451 71.1664 79.451 71.1664L73.9039 73.2327L73.1913 71.7171L72.0176 60.0495C72.0176 60.0495 74.3272 59.3785 74.3961 59.3815Z" fill="#8CA5D2"/>
<path d="M67.0647 58.3344C68.6509 58.3364 72.5755 58.7993 74.3973 59.3815C74.3973 59.3815 75.7356 70.8865 73.1925 79.629C72.6233 81.5859 73.6632 87.7414 73.6632 87.7414L57.2266 87.5245C57.2266 87.5245 59.1738 72.6432 58.4403 70.2397C57.7068 67.8361 57.6892 59.4589 57.6892 59.4589C57.6892 59.4589 57.8018 59.4414 61.3821 58.8224C63.0522 58.5336 65.3711 58.3321 67.0647 58.3344Z" fill="#466EB6"/>
<path d="M57.5094 60.7372C59.0461 60.1605 59.798 74.0115 60.0052 79.7126C62.7266 79.9744 67.4702 79.7146 68.6513 79.6258C69.2068 79.5841 70.4877 79.1148 71.0402 79.0425C71.6064 78.9685 72.1195 78.9297 72.3979 78.9782C72.5 78.9959 75.3367 80.1563 75.5795 80.4109C75.8804 80.7264 76.694 81.5223 76.5567 81.8667C76.4194 82.2109 74.992 80.9075 74.992 80.9075L74.2943 80.5161C75.1629 81.3647 76.8192 82.4822 76.5806 82.8893C76.3478 83.2861 74.8537 82.152 73.7887 81.379C74.7022 82.2041 75.8369 83.681 75.5755 83.9111C75.3404 84.118 74.0497 82.4082 72.6702 81.9159C72.159 81.7335 71.6495 82.2387 71.2473 82.2999C70.9517 82.3446 70.4955 82.4401 70.2055 82.3579L68.7119 81.9343C68.2031 81.9805 68.1904 82.2815 67.6765 82.3908C67.08 82.5178 66.1014 82.6516 65.3417 82.8372C60.9674 83.9062 59.5084 84.4027 58.1691 84.4018C54.1126 84.3993 53.8774 62.1002 57.5094 60.7372Z" fill="#F7A491"/>
<path d="M54.5926 73.7417C54.3048 67.9019 54.3469 60.7042 57.6195 59.4763C58.9108 58.9918 61.1872 61.9053 60.7778 73.8603C59.0307 74.0047 56.4658 74.1207 54.5926 73.7417Z" fill="#8CA5D2"/>
<path d="M70.7512 44.284C70.2836 44.1265 69.8229 43.9486 69.3783 43.7342C68.8757 43.4917 68.2243 43.2077 67.813 43.1443C66.9469 43.0107 65.4591 43.0997 64.6374 43.9912C63.6137 45.1019 61.7948 44.1918 62.1613 50.0093C62.5761 56.594 66.2363 55.8713 66.3252 55.7598C66.414 55.6485 69.5896 51.5471 69.5896 51.5471C69.5896 51.5471 70.7 53.9767 70.7 53.8875C70.6999 53.8014 76.3695 46.1766 70.7512 44.284Z" fill="#0E2E35"/>
<path d="M67.9721 56.2464L68.2882 58.5992C68.2882 58.5992 68.9959 61.9889 68.0853 62.6424C67.1746 63.296 64.2129 58.5026 64.2129 58.5026L64.5258 52.5406L67.9721 56.2464Z" fill="#F7A491"/>
<path d="M64.4258 54.4728C65.178 56.5063 66.9696 57.7563 68.2413 58.2412L67.9734 56.2464L64.5269 52.5406L64.4258 54.4728Z" fill="#F47458"/>
<path d="M67.7856 46.0513C69.7152 45.7398 71.446 47.292 71.3977 49.2241C71.3768 50.064 71.308 51.1126 71.1334 52.242C70.7138 54.9579 68.8614 57.3497 67.6363 57.1362C66.4113 56.9226 63.3293 54.5796 63.8721 50.7144C64.2072 48.3284 65.7607 46.3783 67.7856 46.0513Z" fill="#F7A491"/>
<path d="M64.722 51.1763C64.6186 51.7736 64.1402 52.189 63.6535 52.1043C63.1667 52.0195 62.8559 51.4665 62.9593 50.8692C63.0627 50.272 63.5411 49.8565 64.0279 49.9414C64.5145 50.0262 64.8254 50.5791 64.722 51.1763Z" fill="#F7A491"/>
<path d="M64.0283 49.9433C64.0283 49.9433 65.5093 50.3114 66.0589 49.3585C66.6086 48.4057 68.5739 46.3494 71.0722 47.2021C73.5704 48.0547 68.8737 45.1293 68.6738 45.1293C68.4739 45.1293 66.0755 45.1127 66.0755 45.1127C66.0755 45.1127 64.2268 46.6338 64.1602 46.801C64.0936 46.9683 63.5605 48.7903 63.5605 48.7903L64.0283 49.9433Z" fill="#0E2E35"/>
<path d="M66.7387 53.917L69.4344 54.4325C69.4344 54.4325 69.1772 55.4479 67.9852 55.2555C66.5317 55.0211 66.7387 53.917 66.7387 53.917Z" fill="white"/>
</g>
<mask id="mask13_803_5099" style="mask-type:luminance" maskUnits="userSpaceOnUse" x="92" y="84" width="15" height="15">
<path d="M104.09 96.4731C106.848 93.7144 106.848 89.2417 104.09 86.483C101.332 83.7243 96.8608 83.7243 94.103 86.483C91.3451 89.2417 91.3451 93.7144 94.103 96.4731C96.8608 99.2317 101.332 99.2317 104.09 96.4731Z" fill="white"/>
</mask>
<g mask="url(#mask13_803_5099)">
<path d="M103.313 94.3414C103.442 94.3469 103.796 94.4652 104.313 95.4436C104.974 96.6929 105.94 100.467 105.94 100.467L103.057 101.541L102.686 100.753L102.076 94.6887C102.076 94.6887 103.277 94.34 103.313 94.3414Z" fill="#FADFAE"/>
<path d="M99.5001 93.7982C100.324 93.7994 102.364 94.0399 103.311 94.3424C103.311 94.3424 104.007 100.322 102.685 104.866C102.389 105.883 102.93 109.083 102.93 109.083L94.3867 108.97C94.3867 108.97 95.3988 101.235 95.0175 99.9859C94.6363 98.7366 94.6272 94.3827 94.6272 94.3827C94.6272 94.3827 94.6856 94.3736 96.5465 94.0518C97.4146 93.9018 98.6199 93.7971 99.5001 93.7982Z" fill="#F7CC7F"/>
<path d="M94.5334 95.046C95.3322 94.7461 95.723 101.945 95.8306 104.908C97.245 105.045 99.7105 104.909 100.324 104.863C100.613 104.842 101.279 104.598 101.566 104.56C101.86 104.522 102.127 104.501 102.272 104.527C102.325 104.536 103.799 105.139 103.925 105.271C104.082 105.435 104.505 105.849 104.433 106.028C104.362 106.207 103.62 105.529 103.62 105.529L103.257 105.326C103.709 105.767 104.57 106.348 104.446 106.559C104.325 106.766 103.548 106.176 102.995 105.774C103.469 106.203 104.059 106.971 103.923 107.091C103.801 107.198 103.13 106.309 102.413 106.054C102.147 105.959 101.883 106.221 101.674 106.253C101.52 106.276 101.283 106.326 101.132 106.283L100.356 106.063C100.091 106.087 100.085 106.243 99.8177 106.3C99.5076 106.366 98.999 106.436 98.6041 106.532C96.3306 107.088 95.5722 107.346 94.8762 107.345C92.7678 107.344 92.6457 95.7542 94.5334 95.046Z" fill="#F7A491"/>
<path d="M93.0168 101.803C92.8672 98.7682 92.889 95.0271 94.5901 94.3889C95.2611 94.1369 96.4444 95.6512 96.2315 101.865C95.3236 101.94 93.9904 102 93.0168 101.803Z" fill="#FADFAE"/>
<path d="M101.417 86.4944C101.174 86.4125 100.935 86.3202 100.704 86.2085C100.443 86.0825 100.104 85.935 99.8903 85.902C99.4401 85.8325 98.6667 85.8788 98.2397 86.3422C97.7076 86.9197 96.7622 86.4465 96.9527 89.4702C97.1683 92.8926 99.0706 92.517 99.1168 92.4591C99.1629 92.4011 100.814 90.2695 100.814 90.2695C100.814 90.2695 101.391 91.5323 101.391 91.4862C101.391 91.441 104.337 87.478 101.417 86.4944Z" fill="#0E2E35"/>
<path d="M99.9754 92.7118L100.14 93.9346C100.14 93.9346 100.507 95.6966 100.034 96.0363C99.5609 96.376 98.0215 93.8844 98.0215 93.8844L98.1841 90.7856L99.9754 92.7118Z" fill="#BF7154"/>
<path d="M98.1309 91.7899C98.5219 92.8469 99.4534 93.4966 100.115 93.7485L99.9752 92.7118L98.1833 90.7856L98.1309 91.7899Z" fill="#96482A"/>
<path d="M99.8774 87.4148C100.88 87.253 101.78 88.0596 101.755 89.064C101.744 89.5006 101.708 90.0457 101.618 90.6325C101.4 92.0442 100.437 93.2872 99.8 93.1763C99.1634 93.0653 97.5615 91.8477 97.8435 89.8387C98.0177 88.5982 98.8251 87.5849 99.8774 87.4148Z" fill="#BF7154"/>
<path d="M98.2858 90.0774C98.232 90.3876 97.9834 90.6037 97.7304 90.5597C97.4774 90.5155 97.316 90.2281 97.3697 89.9177C97.4234 89.6073 97.6721 89.3914 97.9251 89.4355C98.178 89.4796 98.3395 89.767 98.2858 90.0774Z" fill="#BF7154"/>
<path d="M97.9227 89.4349C97.9227 89.4349 98.6925 89.626 98.9781 89.1311C99.2638 88.6359 100.285 87.5677 101.584 88.0106C102.882 88.4536 100.441 86.9335 100.337 86.9335C100.233 86.9335 98.9868 86.9249 98.9868 86.9249C98.9868 86.9249 98.026 87.7154 97.9913 87.8023C97.9566 87.889 97.6797 88.8358 97.6797 88.8358L97.9227 89.4349Z" fill="#0E2E35"/>
<path d="M99.3315 91.5007L100.732 91.7687C100.732 91.7687 100.599 92.2965 99.9793 92.1966C99.2239 92.0745 99.3315 91.5007 99.3315 91.5007Z" fill="white"/>
</g>
<mask id="mask14_803_5099" style="mask-type:luminance" maskUnits="userSpaceOnUse" x="224" y="9" width="20" height="20">
<path d="M243.278 21.4969C244.814 16.4228 241.947 11.0639 236.874 9.52754C231.801 7.99115 226.444 10.8591 224.908 15.9332C223.372 21.0073 226.239 26.3662 231.312 27.9025C236.384 29.4389 241.742 26.571 243.278 21.4969Z" fill="white"/>
</mask>
<g mask="url(#mask14_803_5099)">
<path d="M226.34 32.587L230.813 33.0437C230.813 33.0437 231.018 29.3754 231.018 27.6258C231.018 25.5029 230.838 22.7687 230.581 22.8275C229.862 22.9927 228.893 23.3898 228.316 24.1826C226.321 26.9254 226.34 32.587 226.34 32.587Z" fill="#B75742"/>
<path d="M228.536 27.2516C228.442 27.899 226.723 45.4949 226.723 45.4949C234.867 49.4297 239.362 46.1959 239.362 46.1959C239.362 46.1959 239.095 33.8398 239.415 32.158C239.626 31.0452 239.889 23.6515 239.168 23.4444C238.243 23.1787 237.183 22.8965 236.027 22.7764C235.04 22.674 231.206 22.6145 230.521 22.845C230.521 22.845 228.93 24.5298 228.536 27.2516Z" fill="#F47458"/>
<path d="M234.94 19.3783L235.465 22.8395C235.465 22.8395 233.547 26.9605 232.403 26.6032C231.443 26.3033 232.033 22.6567 232.033 22.6567C232.033 22.6567 232.557 20.6985 232.4 19.7185C232.243 18.7386 234.94 19.3783 234.94 19.3783Z" fill="#F7A491"/>
<path d="M232.399 19.7186C232.242 18.7385 234.94 19.3783 234.94 19.3783L234.983 19.6653C234.904 19.8574 234.808 20.0219 234.691 20.1478C234.088 20.7963 233.146 21.1859 232.332 21.2152C232.414 20.6867 232.464 20.1203 232.399 19.7186Z" fill="#F47458"/>
<path d="M235.38 14.4805C235.457 14.453 235.991 18.4227 234.977 19.5149C233.962 20.6074 231.985 20.9648 231.276 20.1045C230.491 19.1529 230.531 14.8863 232.108 13.7627C233.686 12.6391 235.38 14.4805 235.38 14.4805Z" fill="#F7A491"/>
<path d="M232.708 11.6383C233.927 11.887 234.717 12.6325 235.008 12.9502C235.561 13.0156 236.314 13.3217 237.091 14.6087C238.047 16.1914 237.341 17.9448 236.229 18.8051C235.116 19.6654 235.132 20.6592 235.132 20.6592L234.956 20.145C234.826 19.7558 234.773 19.3427 234.817 18.9344C234.843 18.6895 234.895 18.4244 234.997 18.2066C235.264 17.6319 234.422 17.2502 234.186 16.7723C234.004 16.4043 233.995 15.5623 233.708 14.9537L233.366 14.4893C233.366 14.4893 232.577 13.8749 231.804 14.0482C231.032 14.2219 231.143 11.3192 232.708 11.6383Z" fill="#0E2E35"/>
<path d="M234.237 17.4778C234.228 17.9621 234.449 18.3585 234.728 18.3634C235.008 18.3681 235.241 17.9794 235.249 17.4951C235.257 17.0107 235.037 16.6143 234.757 16.6094C234.478 16.6046 234.245 16.9934 234.237 17.4778Z" fill="#F7A491"/>
<path d="M232.591 18.5978L231.061 18.5186C231.061 18.5186 231.066 19.1016 231.738 19.1557C232.557 19.222 232.591 18.5978 232.591 18.5978Z" fill="white"/>
<path d="M247.428 45.6823C247.433 45.6447 247.434 45.6068 247.43 45.569C247.31 44.3505 246.299 34.1181 246.129 33.6829C245.975 33.2903 241.438 26.8004 241.438 26.8004L239.209 29.8388L243.572 35.6597C243.67 36.0297 245.243 42.9371 245.243 42.9371C245.243 42.9371 245.566 44.1961 245.711 44.9503C245.645 45.1321 245.58 45.3037 245.523 45.4446C245.378 45.7455 245.208 45.9924 245.053 46.2002C244.858 46.4617 244.535 47.033 244.496 47.1857C244.45 47.3634 244.366 47.7328 244.319 47.9556C244.272 48.1785 244.207 48.4381 244.197 48.5591C244.19 48.6327 244.114 48.7795 244.056 48.8832C243.969 49.0377 244.117 49.2202 244.285 49.1642C244.444 49.1116 244.567 48.9064 244.643 48.7785C244.858 48.4176 244.973 47.7584 245.026 47.7933C245.079 47.8281 245.267 48.9464 245.297 49.0728C245.327 49.1994 245.552 50.4977 245.68 50.735C245.807 50.9723 245.976 50.9326 246.021 50.784C246.059 50.6559 245.88 48.8392 245.88 48.8392C245.88 48.8392 245.858 48.6074 245.959 48.6799C246.061 48.7523 246.226 50.4014 246.297 50.6428C246.368 50.884 246.528 51.0121 246.665 50.8181C246.831 50.5823 246.545 48.8329 246.545 48.8329C246.545 48.8329 246.513 48.613 246.607 48.6334C246.701 48.6539 246.819 50.0596 246.892 50.1812C246.965 50.3027 247.15 50.3464 247.238 50.1436C247.341 49.9049 247.073 48.3455 247.073 48.3455C247.073 48.3455 247.086 48.2213 247.145 48.2624C247.203 48.3037 247.389 49.4946 247.51 49.605C247.612 49.6976 247.697 49.6078 247.697 49.6078C247.919 49.4559 247.578 48.323 247.582 47.7598C247.585 47.1964 247.324 46.5633 247.402 45.8927C247.406 45.8506 247.42 45.7473 247.428 45.6823Z" fill="#F8A492"/>
<path d="M244.983 30.9119L241.108 33.5142C241.108 33.5142 238.924 30.2634 237.752 29.1059C236.283 27.6561 238.287 23.2148 239.233 23.4659C241.35 24.0281 244.983 30.9119 244.983 30.9119Z" fill="#F47458"/>
</g>
<mask id="mask15_803_5099" style="mask-type:luminance" maskUnits="userSpaceOnUse" x="262" y="48" width="17" height="17">
<path d="M278.602 56.5394C278.602 61.0882 274.916 64.7755 270.369 64.7755C265.821 64.7755 262.135 61.0881 262.135 56.5394C262.135 51.9908 265.821 48.3032 270.369 48.3032C274.916 48.3032 278.602 51.9908 278.602 56.5394Z" fill="white"/>
</mask>
<g mask="url(#mask15_803_5099)">
<path d="M265.901 63.3822C267.051 59.8919 268.338 60.0407 268.338 60.0407L267.343 67.3786C266.632 67.1842 265.708 66.7518 264.998 66.5512C265.233 65.448 265.618 64.2418 265.901 63.3822Z" fill="#47637F"/>
<path d="M266.259 54.3056C266.611 52.0102 268.688 50.3597 270.859 51.4734C271.347 51.724 272.008 52.2323 272.345 52.6653C273.257 53.8359 273.491 55.2819 274.432 56.4185C274.086 56.6811 273.668 56.9562 273.17 57.2208L272.583 56.4385L272.785 57.4146C271.327 58.1123 269.269 58.6881 266.453 58.6717C266.099 57.0771 266.072 55.53 266.259 54.3056Z" fill="#F7CC7F"/>
<path d="M271.282 59.4147C271.282 59.4147 273.149 59.1708 273.987 60.0868C274.826 61.003 272.379 68.3595 272.227 69.5255C272.075 70.6914 273.298 73.6147 273.298 73.6147C273.298 73.6147 267.958 74.6186 266.535 73.6747C266.535 73.6747 266.45 65.4674 266.603 64.6343C266.755 63.8014 268.026 60.4142 268.331 60.0811C268.636 59.7478 271.282 59.4147 271.282 59.4147Z" fill="#13375B"/>
<path d="M270.579 56.5723C270.579 56.5723 270.59 56.6349 270.61 56.7414C270.704 57.2523 271.068 58.9468 271.314 59.4127C271.611 59.9757 270.297 61.7712 269.032 61.552C268.655 61.4868 269.35 59.9022 269.317 59.7344C269.253 59.4132 269.166 58.9748 269.077 58.5254C269.027 58.272 268.977 58.0147 268.929 57.7732C268.794 57.0865 268.684 56.525 268.684 56.525L270.579 56.5723Z" fill="#F7A491"/>
<path opacity="0.5" d="M270.61 56.7415C270.59 56.6351 270.579 56.5725 270.579 56.5725L268.684 56.525C268.684 56.525 268.794 57.0865 268.929 57.7732C268.977 58.0135 269.027 58.2692 269.077 58.5211C269.369 58.4779 269.675 58.3353 269.982 58.0664C270.316 57.7731 270.535 57.4205 270.668 57.0442C270.644 56.9242 270.625 56.8207 270.61 56.7415Z" fill="#F47458"/>
<path d="M269.303 52.2556C269.303 52.2556 270.196 52.1521 270.757 52.8781C271.316 53.6042 271.92 55.8496 270.529 57.0703C269.138 58.2911 267.764 56.9093 267.56 55.4443C267.356 53.979 267.277 52.2027 269.303 52.2556Z" fill="#F7A491"/>
<path d="M267.148 55.4227C267.314 55.7462 267.593 55.9256 267.77 55.8228C267.948 55.7202 267.958 55.3748 267.792 55.0514C267.626 54.7278 267.347 54.5485 267.169 54.6511C266.991 54.7537 266.982 55.0993 267.148 55.4227Z" fill="#F7A491"/>
<path d="M269.203 52.0151C269.203 52.0151 270.397 54.1502 271.25 54.249C272.104 54.3476 272.216 55.482 272.216 55.482C272.216 55.482 271.911 52.8679 271.066 52.3637C270.221 51.8595 269.203 52.0151 269.203 52.0151Z" fill="#F7CC7F"/>
<path d="M271.026 54.7851C270.956 55.1642 271.096 55.512 271.338 55.5618C271.579 55.6116 271.832 55.3445 271.901 54.9653C271.971 54.5862 271.831 54.2385 271.589 54.1886C271.347 54.1388 271.095 54.4059 271.026 54.7851Z" fill="#F7A491"/>
<path d="M269.975 56.1616L268.684 56.4159C268.684 56.4159 268.81 56.9006 269.381 56.8053C270.078 56.6891 269.975 56.1616 269.975 56.1616Z" fill="white"/>
<path d="M273.652 59.8318C273.652 59.8318 274.356 60.1661 274.976 61.6101C275.565 62.9822 275.738 69.8303 275.738 69.8303L273.169 69.406L272.215 66.2478C271.919 64.9974 271.587 62.1117 272.82 60.4244C273.149 59.974 273.452 59.7022 273.652 59.8318Z" fill="#47637F"/>
</g>
<mask id="mask16_803_5099" style="mask-type:luminance" maskUnits="userSpaceOnUse" x="31" y="88" width="20" height="21">
<path d="M50.4104 98.5429C50.4104 103.888 46.0784 108.222 40.7346 108.222C35.3908 108.222 31.0586 103.888 31.0586 98.5429C31.0586 93.1975 35.3906 88.8643 40.7346 88.8643C46.0783 88.8643 50.4104 93.1975 50.4104 98.5429Z" fill="white"/>
</mask>
<g mask="url(#mask16_803_5099)">
<path d="M45.3611 97.1671C45.4171 95.8166 45.2184 94.4829 44.6143 93.2253C44.0945 92.1435 42.8084 91.5297 41.6357 91.5281C37.9118 91.5232 37.4381 96.4451 35.0676 98.3436C34.3433 98.9237 33.5337 99.3961 32.8482 100.022C30.3174 102.332 31.4574 106.608 33.7813 108.633C35.3939 110.038 37.9286 110.837 39.9161 109.738C40.9536 109.165 41.7413 108.211 42.3024 107.167C43.0987 105.685 43.612 103.974 44.1785 102.394C44.7815 100.713 45.2867 98.9623 45.3611 97.1671Z" fill="#F7CC7F"/>
<path d="M43.9684 109.596C43.9684 109.596 41.1873 106.743 40.4715 105.504C39.7557 104.264 40.9588 105.071 42.1876 104.745C42.653 104.622 42.5352 101.894 43.4149 102.78C44.8582 104.235 46.6727 106.779 46.6727 106.779L43.9684 109.596Z" fill="#F47458"/>
<path d="M40.0149 101.528C40.0149 101.528 37.519 101.035 36.38 101.987C35.241 102.939 36.6239 111.402 36.6229 112.805C36.6218 114.208 35.8408 117.872 35.8408 117.872C35.8408 117.872 43.4059 119.496 44.6076 117.39C44.6076 117.39 44.9495 109.366 44.8986 108.357C44.8477 107.348 43.726 103.221 43.416 102.779C43.1058 102.337 40.0149 101.528 40.0149 101.528Z" fill="#B75742"/>
<path d="M39.9987 97.6684C39.9987 97.6684 39.9855 97.743 39.9619 97.8701C39.8488 98.4796 39.4129 100.501 39.1183 101.057C38.7624 101.728 40.3367 103.87 41.852 103.609C42.303 103.531 41.4707 101.641 41.5107 101.44C41.5872 101.057 41.6911 100.534 41.7974 99.998C41.8573 99.6956 41.918 99.3889 41.975 99.1008C42.137 98.2818 42.2693 97.6118 42.2693 97.6118L39.9987 97.6684Z" fill="#F7A491"/>
<path d="M39.9615 97.8701C39.9851 97.7432 39.9982 97.6684 39.9982 97.6684L42.2695 97.6118C42.2695 97.6118 42.1374 98.2818 41.9751 99.1008C41.9184 99.3874 41.8581 99.6922 41.7985 99.993C41.4478 99.9416 41.0814 99.7715 40.7141 99.4505C40.3136 99.1005 40.0511 98.6801 39.8926 98.2312C39.9206 98.0881 39.944 97.9647 39.9615 97.8701Z" fill="#F47458"/>
<path d="M41.5272 92.515C41.5272 92.515 40.4571 92.3915 39.7861 93.2577C39.1154 94.1238 38.3923 96.8024 40.0587 98.2588C41.7252 99.7151 43.3716 98.0666 43.6158 96.3188C43.86 94.5709 43.9548 92.4518 41.5272 92.515Z" fill="#F7A491"/>
<path d="M43.1954 92.0763C43.1954 92.0763 41.109 95.0656 39.1227 94.665L39.0674 93.3897L39.2506 92.9067L40.2571 92.2603L41.8925 91.8876L43.1954 92.0763Z" fill="#F7CC7F"/>
<path d="M44.1078 96.2927C43.9089 96.6787 43.5749 96.8925 43.3618 96.7702C43.1489 96.6479 43.1374 96.2358 43.3364 95.8497C43.5353 95.4637 43.8693 95.2499 44.0824 95.3722C44.2955 95.4947 44.3068 95.9067 44.1078 96.2927Z" fill="#F7A491"/>
<path d="M39.4629 95.5329C39.5461 95.9852 39.3787 96.3999 39.0891 96.4594C38.7995 96.5188 38.4971 96.2001 38.4139 95.7478C38.3308 95.2954 38.498 94.8806 38.7877 94.8213C39.0773 94.762 39.3796 95.0806 39.4629 95.5329Z" fill="#F7A491"/>
<path d="M42.1711 97.2965L40.6006 97.2152C40.6006 97.2152 40.6059 97.8136 41.2954 97.8693C42.1364 97.9372 42.1711 97.2965 42.1711 97.2965Z" fill="white"/>
<path d="M42.1711 97.2965L40.6006 97.2152C40.6006 97.2152 40.6059 97.8136 41.2954 97.8693C42.1364 97.9372 42.1711 97.2965 42.1711 97.2965Z" fill="white"/>
<path d="M37.3198 109.496C37.3198 109.496 35.6818 105.864 35.4332 104.455C35.1844 103.045 36.3933 101.276 37.6595 101.39C38.9258 101.504 40.8241 107.775 40.8241 107.775L37.3198 109.496Z" fill="#F47458"/>
</g>
</svg>
