<svg width="103" height="70" viewBox="0 0 103 70" fill="none" xmlns="http://www.w3.org/2000/svg">
<path d="M71.1321 68.3655H32.1211V12.2341H75.4181V64.7094C75.4181 66.7286 73.4992 68.3655 71.1321 68.3655Z" fill="#F7F7F7"/>
<path d="M75.333 12.2341H32.1084V14.8401H75.333V12.2341Z" fill="#8CABEF"/>
<path d="M64.5015 43.1036C65.0845 43.1036 65.0845 42.4445 64.5015 42.4445C57.2694 42.4445 50.0373 42.4445 42.8052 42.4445C42.2222 42.4445 42.2222 43.1036 42.8052 43.1036H64.5015Z" fill="#BD99FF"/>
<path d="M52.7764 16.6481C49.2999 16.6481 46.1884 18.1877 44.0791 20.6204L52.7764 28.1566L61.4737 20.6204C59.3643 18.1877 56.2528 16.6481 52.7764 16.6481Z" fill="#D3E4FF"/>
<path d="M64.996 26.4699L53.6052 28.1076V39.6161C59.9663 39.6161 65.1137 34.4688 65.1137 28.1076C65.1137 27.5513 65.072 27.005 64.996 26.4699Z" fill="#5D66D3"/>
<path d="M44.0928 20.6585C39.9929 25.5222 40.6109 32.7754 45.4746 36.8752C45.9 37.2338 46.3445 37.5541 46.8028 37.8407L52.8921 28.0759L44.0928 20.6585Z" fill="#ECF3FF"/>
<path d="M52.8757 39.5997C50.7193 39.6002 48.5554 38.9982 46.6543 37.7721L52.8769 28.0916L52.8757 39.5997Z" fill="#8CABEF"/>
<path d="M65.5834 25.836C65.2649 23.5964 64.3026 21.5669 62.8899 19.9376L54.1926 27.4737L65.5834 25.836Z" fill="#3B3387"/>
<path d="M41.4367 55.6602H37.209V65.8434H41.4367V55.6602Z" fill="#BD99FF"/>
<path d="M41.4367 51.7171H37.209V56.5025H41.4367V51.7171Z" fill="#D3E4FF"/>
<path d="M69.2658 56.1199H65.0381V66.3032H69.2658V56.1199Z" fill="#BD99FF"/>
<path d="M69.2934 47.5254H65.0381V56.9621H69.2934V47.5254Z" fill="#D3E4FF"/>
<path d="M59.9897 55.3157H55.762V66.0732H59.9897V55.3157Z" fill="#BD99FF"/>
<path d="M59.9897 54.3585H55.762V61.4983H59.9897V54.3585Z" fill="#D3E4FF"/>
<path d="M50.7128 51.5688H46.4851V66.0159H50.7128V51.5688Z" fill="#BD99FF"/>
<path d="M50.7128 45.9749H46.4851V57.5301H50.7128V45.9749Z" fill="#D3E4FF"/>
<path d="M33.7644 14.2735C33.4578 14.2735 33.2085 14.024 33.2085 13.7175C33.2085 13.411 33.4579 13.1616 33.7644 13.1616C34.071 13.1616 34.3204 13.411 34.3204 13.7175C34.3204 14.024 34.071 14.2735 33.7644 14.2735ZM33.7644 13.2542C33.509 13.2542 33.3011 13.462 33.3011 13.7175C33.3011 13.973 33.5089 14.1809 33.7644 14.1809C34.0199 14.1809 34.2278 13.973 34.2278 13.7175C34.2278 13.462 34.0199 13.2542 33.7644 13.2542Z" fill="white"/>
<path d="M35.4756 14.2735C35.169 14.2735 34.9197 14.024 34.9197 13.7175C34.9197 13.411 35.1691 13.1616 35.4756 13.1616C35.7821 13.1616 36.0316 13.411 36.0316 13.7175C36.0316 14.024 35.7822 14.2735 35.4756 14.2735ZM35.4756 13.2542C35.2202 13.2542 35.0123 13.462 35.0123 13.7175C35.0123 13.973 35.2201 14.1809 35.4756 14.1809C35.7311 14.1809 35.939 13.973 35.939 13.7175C35.939 13.462 35.7311 13.2542 35.4756 13.2542Z" fill="white"/>
<path d="M37.1875 14.2735C36.8809 14.2735 36.6316 14.024 36.6316 13.7175C36.6316 13.411 36.881 13.1616 37.1875 13.1616C37.4941 13.1616 37.7435 13.411 37.7435 13.7175C37.7435 14.024 37.4941 14.2735 37.1875 14.2735ZM37.1875 13.2542C36.9321 13.2542 36.7242 13.462 36.7242 13.7175C36.7242 13.973 36.932 14.1809 37.1875 14.1809C37.443 14.1809 37.6509 13.973 37.6509 13.7175C37.6508 13.462 37.443 13.2542 37.1875 13.2542Z" fill="white"/>
<path opacity="0.07" d="M33.285 70H5.68652V27.3767H35.8478V67.4372C35.8478 68.8526 34.7004 70 33.285 70Z" fill="#2E4661"/>
<path d="M31.022 68.8083H2.25708V24.1523H34.7562V65.0741C34.7562 67.1365 33.0844 68.8083 31.022 68.8083Z" fill="white"/>
<path d="M32.0154 27.7178H5.70654V44.3543H32.0154V27.7178Z" fill="white"/>
<path d="M22.3736 33.4876C22.4827 33.7077 22.6716 33.8958 23.0291 34.0293C23.6953 34.278 24.5909 34.0986 24.9749 33.5408C25.6169 32.6083 25.4364 31.2739 26.1272 30.305C26.4074 29.9119 26.8351 29.593 27.339 29.4493C27.8429 29.3056 28.4212 29.3477 28.8696 29.5947C29.6001 29.9971 29.8529 30.8286 29.86 31.5831C29.8736 33.0324 29.671 34.5305 29.41 35.9606C29.2837 36.6526 29.0892 37.3636 28.5876 37.9104C27.9074 38.652 26.7873 38.9608 25.7161 39.1259C23.0059 39.5436 20.2261 39.2882 17.4898 39.0317C15.2888 38.8254 13.0878 38.6191 10.8868 38.4129C10.2664 38.3547 8.43945 38.4486 8.06799 38.0187C7.70528 37.5989 7.99032 36.1763 8.20246 35.7372C8.67488 34.7594 9.96694 34.2076 11.1797 34.2696C13.9152 34.4096 12.8338 31.553 13.7094 30.1965C14.1745 29.4759 15.1988 28.9581 16.081 29.2583C16.9224 29.5447 17.2738 30.3893 17.6884 31.0902C17.9037 31.454 18.2096 31.8312 18.6697 31.91C19.4521 32.0438 20.1047 31.2485 20.9012 31.2791C21.3727 31.2971 21.774 31.6155 21.9777 31.9876C22.2546 32.4935 22.1579 33.0526 22.3736 33.4876Z" fill="#ECF3FF"/>
<path d="M30.2958 43.4517C30.2947 43.4517 30.3001 42.2543 30.3004 42.1885C30.3068 40.4016 30.3065 38.6147 30.3087 36.8278C30.3108 35.1204 30.4516 33.4136 30.4239 31.7106C30.4116 30.9227 30.0713 30.511 29.2415 30.7223C28.4246 30.9303 27.6773 31.4151 27.1632 32.0841C26.8149 32.5373 26.5255 33.1047 25.9839 33.2872C25.0159 33.6134 24.2239 32.5232 23.3547 31.9868C22.4188 31.4092 21.1159 31.5065 20.2761 32.2166C19.2612 33.0748 19.0284 34.5586 18.1696 35.5729C17.2242 36.6893 15.5071 37.0673 14.1803 36.451C13.6353 36.1978 13.1669 35.8032 12.6297 35.5339C10.4991 34.4658 7.53692 36.0027 7.18335 38.3596V43.2367C7.18335 43.2367 30.3388 43.4947 30.2958 43.4517Z" fill="#BD99FF"/>
<path d="M8.11371 46.8908H6.13623V48.8683H8.11371V46.8908Z" fill="#8CABEF"/>
<path d="M8.11371 49.8139H6.13623V51.7914H8.11371V49.8139Z" fill="#5D66D3"/>
<path d="M15.5063 47.4925H9.74585V48.0943H15.5063V47.4925Z" fill="#ECF3FF"/>
<path d="M15.4211 50.6737H9.66064V51.2755H15.4211V50.6737Z" fill="#ECF3FF"/>
<path d="M31.497 55.1632H6.39185V55.8133H31.497V55.1632Z" fill="#ECF3FF"/>
<path d="M17.5688 57.052H6.39185V65.9613H17.5688V57.052Z" fill="#D3E4FF"/>
<path d="M31.4975 57.1379H19.2888V61.0176H31.4975V57.1379Z" fill="#ECF3FF"/>
<path d="M31.3698 62.0387H19.1611V65.9184H31.3698V62.0387Z" fill="#ECF3FF"/>
<path d="M20.6835 5.69753H0.143302C0.0641499 5.69753 0 5.76746 0 5.85364V16.7349C0 19.4176 1.99584 21.5923 4.45799 21.5923H12.9745L16.4567 26.4778C16.5497 26.6084 16.7556 26.5443 16.7579 26.3839L16.8294 21.5923H20.6834C20.7625 21.5923 20.8267 21.5223 20.8267 21.4361V5.85364C20.8268 5.76738 20.7626 5.69753 20.6835 5.69753Z" fill="#8CABEF"/>
<path d="M15.4832 8.29779H2.68872V8.83091H15.4832V8.29779Z" fill="#DDDAE8"/>
<path d="M17.9488 12.3627H2.68872V12.8958H17.9488V12.3627Z" fill="#DDDAE8"/>
<path d="M17.9488 16.4276H2.68872V16.9607H17.9488V16.4276Z" fill="#DDDAE8"/>
<path d="M34.0503 10.7993H18.8154V0H33.0815L36.1368 3.22687V8.56929C36.1367 9.80095 35.2026 10.7993 34.0503 10.7993Z" fill="#BD99FF"/>
<path d="M36.1462 3.25266L33.0789 3.32978V0L36.1462 3.25266Z" fill="#F7F7F7"/>
<path d="M32.7086 2.80246H22.9895V3.26526H32.7086V2.80246Z" fill="#F7F7F7"/>
<path d="M32.7117 5.03949H21.4529V5.50229H32.7117V5.03949Z" fill="#F7F7F7"/>
<path d="M32.7117 7.27652H21.4529V7.73932H32.7117V7.27652Z" fill="#F7F7F7"/>
<path d="M64.7342 32.4146C64.6765 32.4146 64.6263 32.3721 64.6182 32.3134C64.5964 32.1552 64.5821 31.9943 64.5758 31.8351C64.5732 31.7704 64.6236 31.7159 64.6882 31.7134C64.7531 31.7109 64.8075 31.7612 64.81 31.8258C64.816 31.9774 64.8296 32.1306 64.8504 32.2813C64.8592 32.3455 64.8144 32.4046 64.7503 32.4135C64.7449 32.4142 64.7396 32.4146 64.7342 32.4146Z" fill="#5D66D3"/>
<path d="M64.7443 31.0161C64.7385 31.0161 64.7325 31.0157 64.7266 31.0148C64.6626 31.0051 64.6186 30.9453 64.6283 30.8813C64.675 30.5736 64.751 30.262 64.8543 29.9554C64.8749 29.8941 64.9414 29.861 65.0027 29.8818C65.0641 29.9024 65.097 29.9689 65.0764 30.0302C64.9775 30.324 64.9047 30.6223 64.86 30.9166C64.8512 30.9746 64.8012 31.0161 64.7443 31.0161ZM65.3305 29.2514C65.3125 29.2514 65.2941 29.2472 65.2769 29.2384C65.2194 29.2087 65.1968 29.1381 65.2264 29.0805C65.3673 28.8073 65.5321 28.5339 65.7162 28.268C65.753 28.2148 65.826 28.2015 65.8793 28.2384C65.9325 28.2752 65.9457 28.3482 65.9089 28.4015C65.7306 28.6592 65.571 28.9237 65.4348 29.188C65.414 29.2282 65.373 29.2514 65.3305 29.2514ZM66.3871 27.7156C66.3597 27.7156 66.3323 27.706 66.3101 27.6867C66.2613 27.6442 66.2563 27.5702 66.2988 27.5214C66.5015 27.289 66.7223 27.0599 66.9551 26.8407C67.0022 26.7963 67.0764 26.7985 67.1208 26.8457C67.1651 26.8928 67.1629 26.967 67.1158 27.0113C66.8885 27.2254 66.673 27.4488 66.4754 27.6755C66.4522 27.702 66.4197 27.7156 66.3871 27.7156ZM67.744 26.4342C67.7093 26.4342 67.6748 26.4188 67.6517 26.3894C67.6117 26.3385 67.6206 26.2647 67.6715 26.2248C67.9171 26.0319 68.1752 25.8466 68.4385 25.674C68.4927 25.6385 68.5653 25.6536 68.6008 25.7077C68.6363 25.7619 68.6211 25.8344 68.5671 25.87C68.3093 26.0389 68.0566 26.2204 67.8163 26.4091C67.7948 26.426 67.7694 26.4342 67.744 26.4342ZM69.3052 25.4096C69.2638 25.4096 69.2237 25.3877 69.2024 25.3488C69.1712 25.2921 69.1919 25.2208 69.2486 25.1897C69.521 25.04 69.803 24.8959 70.0869 24.7613C70.1453 24.7336 70.2153 24.7585 70.243 24.817C70.2708 24.8755 70.2458 24.9453 70.1874 24.9731C69.9077 25.1057 69.6299 25.2477 69.3616 25.3951C69.3437 25.4049 69.3243 25.4096 69.3052 25.4096ZM70.9924 24.6086C70.9461 24.6086 70.9022 24.5809 70.8838 24.5354C70.8594 24.4754 70.8883 24.4071 70.9483 24.3828C71.2349 24.2664 71.5312 24.1555 71.8292 24.053C71.8904 24.0319 71.9571 24.0645 71.9781 24.1258C71.9992 24.1869 71.9666 24.2537 71.9054 24.2747C71.6114 24.3758 71.319 24.4853 71.0365 24.6C71.022 24.6058 71.0071 24.6086 70.9924 24.6086ZM72.7581 24.0003C72.7072 24.0003 72.6603 23.9668 72.6455 23.9154C72.6277 23.8532 72.6636 23.7883 72.7258 23.7704C73.022 23.6852 73.3279 23.6053 73.6349 23.5329C73.698 23.518 73.761 23.557 73.7759 23.62C73.7908 23.683 73.7518 23.7461 73.6888 23.761C73.3854 23.8327 73.0832 23.9116 72.7906 23.9957C72.7797 23.9988 72.7688 24.0003 72.7581 24.0003ZM87.702 23.6682L87.6069 23.6679C87.5422 23.6674 87.4901 23.6145 87.4906 23.5498C87.4911 23.4851 87.5415 23.4322 87.6087 23.4335L87.702 23.4338C87.9918 23.4338 88.2712 23.4235 88.5323 23.4033C88.5965 23.3985 88.6532 23.4465 88.6582 23.5111C88.6632 23.5757 88.6149 23.6321 88.5503 23.6371C88.2833 23.6577 87.9979 23.6682 87.702 23.6682ZM86.6742 23.6322C86.6716 23.6322 86.6691 23.6321 86.6665 23.6319C86.3875 23.6138 86.0817 23.5881 85.7315 23.5536C85.6671 23.5472 85.62 23.4898 85.6264 23.4254C85.6327 23.361 85.6901 23.3137 85.7546 23.3203C86.1022 23.3547 86.4054 23.3801 86.6817 23.3981C86.7463 23.4023 86.7953 23.4581 86.791 23.5226C86.787 23.5846 86.7355 23.6322 86.6742 23.6322ZM74.5754 23.5701C74.5202 23.5701 74.471 23.531 74.4604 23.4747C74.4484 23.4111 74.4902 23.3498 74.5538 23.3378C74.8557 23.2806 75.1672 23.2283 75.4797 23.1824C75.5439 23.1731 75.6033 23.2174 75.6127 23.2813C75.6221 23.3454 75.5778 23.405 75.5138 23.4143C75.2045 23.4597 74.8962 23.5115 74.5974 23.568C74.59 23.5694 74.5826 23.5701 74.5754 23.5701ZM89.467 23.5148C89.412 23.5148 89.3629 23.4759 89.352 23.4198C89.3398 23.3563 89.3813 23.2948 89.4449 23.2825C89.7535 23.2228 90.0516 23.1436 90.3309 23.047C90.3923 23.0258 90.4588 23.0583 90.48 23.1194C90.5012 23.1806 90.4687 23.2474 90.4076 23.2685C90.1178 23.3687 89.8089 23.4508 89.4894 23.5126C89.4819 23.514 89.4744 23.5148 89.467 23.5148ZM84.814 23.4555C84.8097 23.4555 84.8054 23.4553 84.8011 23.4548L84.523 23.4245C84.307 23.4011 84.0904 23.3789 83.8733 23.3577C83.8089 23.3514 83.7618 23.2941 83.768 23.2297C83.7743 23.1653 83.8313 23.118 83.896 23.1244C84.1139 23.1455 84.3314 23.168 84.5482 23.1914L84.8267 23.2218C84.8911 23.2288 84.9375 23.2867 84.9304 23.351C84.9238 23.411 84.873 23.4555 84.814 23.4555ZM76.4232 23.2977C76.3641 23.2977 76.3133 23.2531 76.3069 23.193C76.2999 23.1287 76.3464 23.0708 76.4108 23.0639C76.7156 23.0309 77.0299 23.0026 77.3452 22.9795C77.41 22.9748 77.4659 23.0233 77.4706 23.0879C77.4753 23.1524 77.4268 23.2086 77.3622 23.2133C77.0497 23.2361 76.7381 23.2642 76.436 23.2969C76.4317 23.2974 76.4274 23.2977 76.4232 23.2977ZM82.9541 23.2756C82.9509 23.2756 82.9478 23.2755 82.9446 23.2752C82.6308 23.2502 82.318 23.2281 82.0149 23.2098C81.9503 23.2059 81.901 23.1503 81.9049 23.0857C81.9088 23.0211 81.9646 22.9723 82.029 22.9758C82.3337 22.9942 82.6481 23.0163 82.9634 23.0415C83.0279 23.0467 83.076 23.1032 83.0708 23.1677C83.0659 23.2291 83.0146 23.2756 82.9541 23.2756ZM81.0887 23.1635C81.0872 23.1635 81.0857 23.1635 81.0841 23.1634C80.7698 23.1512 80.4564 23.1428 80.1529 23.1383C80.0882 23.1373 80.0365 23.084 80.0374 23.0194C80.0383 22.9547 80.0911 22.9009 80.1563 22.9039C80.4618 22.9084 80.777 22.9169 81.0931 22.9292C81.1578 22.9317 81.2082 22.9861 81.2057 23.0508C81.2034 23.114 81.1514 23.1635 81.0887 23.1635ZM78.2863 23.1609C78.2238 23.1609 78.1718 23.1116 78.1693 23.0485C78.1667 22.9838 78.217 22.9293 78.2817 22.9266C78.5877 22.9141 78.9031 22.9059 79.219 22.9022C79.2828 22.9032 79.3368 22.9533 79.3375 23.018C79.3383 23.0827 79.2864 23.1359 79.2217 23.1366C78.9081 23.1403 78.595 23.1484 78.2912 23.1609C78.2896 23.1609 78.2879 23.1609 78.2863 23.1609ZM91.2244 22.9008C91.1827 22.9008 91.1423 22.8785 91.1211 22.8392C91.0904 22.7822 91.1117 22.7111 91.1688 22.6804C91.4323 22.5385 91.6912 22.3717 91.938 22.1846C91.9897 22.1455 92.0631 22.1557 92.1022 22.2073C92.1413 22.2589 92.1312 22.3324 92.0795 22.3714C91.823 22.5658 91.554 22.7392 91.2798 22.8868C91.2622 22.8963 91.2432 22.9008 91.2244 22.9008ZM92.7118 21.7812C92.6818 21.7812 92.6517 21.7697 92.6288 21.7468C92.5831 21.701 92.5832 21.6268 92.629 21.5811C92.8394 21.3711 93.0451 21.1398 93.2402 20.8934C93.2804 20.8427 93.3542 20.8342 93.4048 20.8744C93.4555 20.9146 93.4641 20.9883 93.4239 21.039C93.2231 21.2924 93.0113 21.5306 92.7945 21.747C92.7717 21.7698 92.7417 21.7812 92.7118 21.7812ZM93.8742 20.323C93.8524 20.323 93.8305 20.317 93.8109 20.3043C93.7564 20.2693 93.7407 20.1968 93.7757 20.1424C93.9374 19.8911 94.0943 19.6226 94.242 19.3442C94.2724 19.287 94.3434 19.2653 94.4005 19.2956C94.4577 19.3259 94.4794 19.397 94.4491 19.4541C94.2983 19.7382 94.138 20.0124 93.9729 20.2691C93.9505 20.304 93.9128 20.323 93.8742 20.323Z" fill="#5D66D3"/>
<path d="M94.7568 18.6704C94.7411 18.6704 94.725 18.6672 94.7096 18.6604C94.6503 18.6342 94.6235 18.5651 94.6496 18.5059C94.7111 18.3666 94.7719 18.2225 94.8304 18.0774C94.8546 18.0174 94.9229 17.9884 94.9829 18.0125C95.0429 18.0367 95.072 18.105 95.0478 18.165C94.9884 18.3124 94.9266 18.4589 94.8641 18.6005C94.8448 18.6443 94.8019 18.6704 94.7568 18.6704Z" fill="#5D66D3"/>
<path d="M100.548 9.32788L100.059 20.4441L96.3881 16.5907C96.3881 16.5907 100.564 9.0162 100.593 9.14145L100.433 9.00776C100.556 8.97244 95.9666 16.3034 95.9666 16.3034L90.8149 14.9686L100.292 9.13731L100.548 9.32788Z" fill="#8CABEF"/>
<path opacity="0.07" d="M94.0543 45.327H72.3931V60.9865H94.0543V45.327Z" fill="#2E4661"/>
<path d="M94.9468 44.4182H73.1384V60.1244H94.9468V44.4182Z" fill="#8CABEF"/>
<path d="M94.9171 44.4182H73.1384V45.6685H94.9171V44.4182Z" fill="#5D66D3"/>
<path opacity="0.03" d="M94.8999 48.3681V48.3196H92.223V45.6928H92.1746V48.3196H88.9654V45.6928H88.9169V48.3196H85.7077V45.6928H85.6592V48.3196H82.45V45.6928H82.4016V48.3196H79.1924V45.6928H79.1439V48.3196H75.9347V45.6928H75.8863V48.3196H73.2134V48.3681H75.8863V51.3361H73.2134V51.3845H75.8863V54.3525H73.2134V54.401H75.8863V57.3691H73.2134V57.4175H75.8863V60.1793H75.9347V57.4175H79.1439V60.1793H79.1924V57.4175H82.4016V60.1793H82.45V57.4175H85.6592V60.1793H85.7077V57.4175H88.9169V60.1793H88.9654V57.4175H92.1746V60.1793H92.223V57.4175H94.8999V57.3691H92.223V54.401H94.8999V54.3525H92.223V51.3845H94.8999V51.3361H92.223V48.3681H94.8999ZM88.9168 48.3681V51.3361H85.7076V48.3681H88.9168ZM82.45 51.3845H85.6592V54.3525H82.45V51.3845ZM82.4015 54.3526H79.1923V51.3846H82.4015V54.3526ZM85.7076 51.3845H88.9168V54.3525H85.7076V51.3845ZM85.6592 48.3681V51.3361H82.45V48.3681H85.6592ZM82.4015 48.3681V51.3361H79.1923V48.3681H82.4015ZM75.9346 48.3681H79.1439V51.3361H75.9346V48.3681ZM75.9346 51.3845H79.1439V54.3525H75.9346V51.3845ZM75.9346 57.3692V54.4011H79.1439V57.3692H75.9346ZM79.1923 57.3692V54.4011H82.4015V57.3692H79.1923ZM82.45 57.3692V54.4011H85.6592V57.3692H82.45ZM85.7076 57.3692V54.4011H88.9168V57.3692H85.7076ZM92.1745 57.3692H88.9653V54.4011H92.1745V57.3692ZM92.1745 54.3526H88.9653V51.3846H92.1745V54.3526ZM92.1745 51.3361H88.9653V48.3681H92.1745V51.3361Z" fill="#272525"/>
<path d="M92.5958 47.6821C92.2284 47.6821 91.9304 47.9801 91.9304 48.3475C91.9304 48.533 92.0064 48.7006 92.1288 48.8213C91.3572 49.4857 90.5855 50.1501 89.8139 50.8146C89.7553 50.8652 89.6966 50.9156 89.6379 50.9662C89.5238 50.8743 89.379 50.8191 89.2212 50.8191C88.8537 50.8191 88.5558 51.1171 88.5558 51.4846C88.5558 51.7185 88.6767 51.9238 88.8592 52.0424C88.6902 52.4494 88.5212 52.8563 88.3521 53.2632C88.28 53.4368 88.2079 53.6103 88.1359 53.7837C88.0874 53.7725 88.0372 53.766 87.9854 53.766C87.7398 53.766 87.5258 53.8994 87.4105 54.0974C86.6651 53.6262 85.9197 53.155 85.1743 52.6839C84.6219 52.3348 84.0696 51.9856 83.5173 51.6365C83.548 51.5601 83.5652 51.4769 83.5652 51.3895C83.5652 51.0221 83.2673 50.7241 82.8998 50.7241C82.5323 50.7241 82.2344 51.0221 82.2344 51.3895C82.2344 51.4361 82.2393 51.4815 82.2484 51.5254C81.2031 51.9521 80.1577 52.3787 79.1124 52.8054C79.0099 52.8473 78.9074 52.8891 78.8048 52.931C78.7025 52.6953 78.4678 52.5303 78.1944 52.5303C77.827 52.5303 77.529 52.8283 77.529 53.1957C77.529 53.3865 77.6097 53.5581 77.7384 53.6794C77.5832 53.8556 77.4279 54.0318 77.2727 54.2081C76.5317 55.0493 75.7907 55.8904 75.0496 56.7316C74.9433 56.6598 74.8153 56.6178 74.6774 56.6178C74.3099 56.6178 74.012 56.9157 74.012 57.2832C74.012 57.6507 74.3099 57.9486 74.6774 57.9486C75.0448 57.9486 75.3428 57.6507 75.3428 57.2832C75.3428 57.1412 75.2979 57.0098 75.2221 56.9017C75.8549 56.1835 76.4876 55.4653 77.1204 54.747C77.395 54.4353 77.6696 54.1236 77.9442 53.8119C78.0215 53.8434 78.106 53.8611 78.1946 53.8611C78.5621 53.8611 78.86 53.5631 78.86 53.1957C78.86 53.1867 78.859 53.178 78.8587 53.1691C78.8738 53.1629 78.8889 53.1567 78.904 53.1506C80.0493 52.6831 81.1946 52.2156 82.34 51.7481C82.4583 51.9324 82.6647 52.0549 82.9 52.0549C83.0929 52.0549 83.2661 51.9724 83.3877 51.8411C83.8886 52.1577 84.3896 52.4744 84.8905 52.791C85.7031 53.3047 86.5158 53.8183 87.3284 54.3319C87.3235 54.3645 87.3202 54.3975 87.3202 54.4314C87.3202 54.7989 87.6181 55.0968 87.9856 55.0968C88.3531 55.0968 88.651 54.7989 88.651 54.4314C88.651 54.2014 88.5343 53.9987 88.3569 53.8792C88.5985 53.2978 88.84 52.7164 89.0815 52.135C89.1266 52.1446 89.1734 52.15 89.2214 52.15C89.5889 52.15 89.8868 51.852 89.8868 51.4846C89.8868 51.3623 89.8532 51.248 89.7957 51.1496C89.9322 51.032 90.0687 50.9145 90.2052 50.797C90.7899 50.2935 91.3745 49.7902 91.9591 49.2867C92.0852 49.1781 92.2113 49.0695 92.3374 48.961C92.417 48.9946 92.5043 49.0132 92.5961 49.0132C92.9635 49.0132 93.2615 48.7152 93.2615 48.3478C93.2612 47.9801 92.9633 47.6821 92.5958 47.6821Z" fill="#DDDAE8"/>
<path d="M96.7788 37.4901L94.1692 41.6703L79.3608 32.3413L81.9706 28.1612L96.7788 37.4901Z" fill="white"/>
<path d="M101.879 43.5459L101.849 43.5941C101.026 44.9127 99.5569 45.4811 98.568 44.8637L87.2012 37.8867L90.1882 32.863L101.579 40.0403C102.568 40.6578 102.702 42.2272 101.879 43.5459Z" fill="#3B495E"/>
<path opacity="0.2" d="M80.396 32.9641L81.1128 33.4862L87.6017 31.8019L82.1952 28.3521L80.396 32.9641Z" fill="#BBBCBF"/>
<path d="M77.3807 10.4805C70.4316 6.14221 61.2814 8.25861 56.9431 15.2077C52.6048 22.1567 54.7212 31.3069 61.6703 35.6452C68.6193 39.9835 77.7696 37.8671 82.1079 30.9181C86.4462 23.969 84.3298 14.8189 77.3807 10.4805ZM80.3496 29.8204C76.6175 35.7985 68.746 37.6191 62.768 33.887C56.79 30.1549 54.9692 22.2834 58.7013 16.3054C62.4334 10.3273 70.305 8.50669 76.283 12.2388C82.261 15.9708 84.0817 23.8424 80.3496 29.8204Z" fill="#3B495E"/>
<path opacity="0.5" d="M78.5498 32.086C83.533 27.1028 83.533 19.0235 78.5498 14.0403C73.5666 9.0571 65.4872 9.0571 60.5041 14.0403C55.5209 19.0235 55.5209 27.1028 60.5041 32.086C65.4872 37.0692 73.5666 37.0692 78.5498 32.086Z" fill="#D1E7F5"/>
<g opacity="0.22">
<path d="M60.337 22.5494C60.2742 18.4807 62.9182 14.799 66.8434 13.6698C70.7588 12.5434 75.0261 14.271 77.0859 17.7852C77.6666 18.7757 79.2457 17.948 78.6643 16.956C76.2929 12.9104 71.5915 10.8161 67.0075 11.7917C62.4899 12.7532 59.1568 16.6359 58.6136 21.1741C58.5611 21.613 58.5481 22.0559 58.5549 22.4975C58.5725 23.6423 60.3548 23.7025 60.337 22.5494Z" fill="white"/>
</g>
<path opacity="0.31" d="M79.7488 19.5288C80.2988 19.8722 80.4663 20.5964 80.123 21.1464C79.7796 21.6964 79.0553 21.864 78.5053 21.5206C77.9553 21.1772 77.7878 20.453 78.1311 19.903C78.4745 19.3529 79.1988 19.1854 79.7488 19.5288Z" fill="white"/>
<path d="M87.3564 37.7202L90.1983 32.9405C90.2959 32.7764 90.2534 32.5649 90.1 32.4512L90.0502 32.4143C89.872 32.2823 89.6184 32.3346 89.5069 32.5263L86.7082 37.3393C86.6034 37.5195 86.6671 37.7505 86.8493 37.8517L86.8558 37.8554C87.0317 37.953 87.2535 37.8932 87.3564 37.7202Z" fill="#3B495E"/>
<path d="M81.9802 23.1545C81.9691 26.2215 80.8552 29.1943 78.8298 31.5005C76.8304 33.7771 74.047 35.2467 71.0531 35.6712C67.9922 36.1051 64.8324 35.3287 62.2746 33.6135C59.7836 31.9431 57.9659 29.366 57.1689 26.482C56.3425 23.4914 56.6846 20.2299 58.0777 17.4628C59.4197 14.7973 61.7275 12.6521 64.4793 11.4995C67.3523 10.2962 70.6131 10.2239 73.5503 11.241C76.3787 12.2204 78.781 14.2567 80.2862 16.833C81.4042 18.7464 81.9722 20.9426 81.9802 23.1545C81.9817 23.5922 82.6606 23.5924 82.659 23.1545C82.6479 20.0818 81.5848 17.1231 79.6551 14.7354C77.771 12.4042 75.0713 10.7741 72.1468 10.1429C69.1136 9.48832 65.9062 9.94424 63.1592 11.3754C60.5188 12.7511 58.3893 15.0536 57.1838 17.7705C55.9237 20.6102 55.7157 23.8529 56.5637 26.8385C57.383 29.7234 59.2151 32.247 61.6393 33.9961C64.1316 35.7943 67.2456 36.6367 70.3037 36.4263C73.3356 36.2176 76.2187 34.9351 78.4423 32.8723C81.1283 30.3804 82.6459 26.8083 82.6591 23.1547C82.6607 22.7166 81.9818 22.7168 81.9802 23.1545Z" fill="#F7F7F7"/>
</svg>
