<svg width="16" height="16" viewBox="0 0 16 16" fill="none" xmlns="http://www.w3.org/2000/svg">
<path d="M9.37211 10.1123L7.67336 15.561L6.03273 10.1123L0.583984 8.41353L6.03273 6.77291L7.67336 1.26416L9.37211 6.77291L14.8209 8.41353L9.37211 10.1123Z" fill="white"/>
<path opacity="0.6" d="M2.99207 5.00049L3.20677 4.24642L4 4.00049L3.20677 3.77081L2.99207 3.00049L2.76044 3.77081L2 4.00049L2.76044 4.24642L2.99207 5.00049Z" fill="white"/>
<path opacity="0.2" d="M2.90216 15.439L3.22422 14.3079L4.41406 13.939L3.22422 13.5944L2.90216 12.439L2.55473 13.5944L1.41406 13.939L2.55473 14.3079L2.90216 15.439Z" fill="white"/>
<path opacity="0.5" d="M13.4466 4.43896L13.9059 2.89833L15.4141 2.40645L13.9059 1.94709L13.4466 0.438965L12.9222 1.94709L11.4141 2.40645L12.9222 2.89833L13.4466 4.43896Z" fill="white"/>
</svg>
