<svg width="18" height="18" viewBox="0 0 18 18" fill="none" xmlns="http://www.w3.org/2000/svg">
<path d="M7.49235 16.9125C7.45485 16.9125 7.41735 16.9125 7.37985 16.8975C4.50735 16.3125 2.17485 14.1975 1.30485 11.3925C1.21485 11.0925 1.37985 10.7775 1.67235 10.6875C1.97235 10.5975 2.28735 10.7625 2.37735 11.055C3.12735 13.47 5.12985 15.285 7.60485 15.7875C7.91235 15.8475 8.10735 16.1475 8.03985 16.455C7.98735 16.725 7.74735 16.9125 7.49235 16.9125Z" fill="#737373"/>
<path d="M16.4627 8.7975C16.1777 8.7975 15.9302 8.58 15.9002 8.295C15.5402 4.74 12.5702 2.0625 9.00016 2.0625C5.42267 2.0625 2.46017 4.74 2.10017 8.2875C2.07017 8.595 1.80017 8.8275 1.48517 8.79C1.17767 8.76 0.952664 8.4825 0.982664 8.175C1.40266 4.05 4.85266 0.9375 9.00016 0.9375C13.1552 0.9375 16.6052 4.05 17.0177 8.175C17.0477 8.4825 16.8227 8.76 16.5152 8.79C16.5002 8.7975 16.4777 8.7975 16.4627 8.7975Z" fill="#737373"/>
<path d="M10.5076 16.9125C10.2451 16.9125 10.0126 16.7325 9.96006 16.4625C9.90006 16.155 10.0951 15.8625 10.3951 15.8025C12.8551 15.3 14.8576 13.5 15.6151 11.1C15.7051 10.8 16.0276 10.635 16.3201 10.7325C16.6201 10.8225 16.7776 11.145 16.6876 11.4375C15.8026 14.2275 13.4776 16.32 10.6201 16.905C10.5826 16.905 10.5451 16.9125 10.5076 16.9125Z" fill="#737373"/>
</svg>
