<svg width="54" height="58" viewBox="0 0 54 58" fill="none" xmlns="http://www.w3.org/2000/svg">
<path d="M14.8443 29.0802C16.2857 26.1436 18.9667 24.0732 22.0808 23.7035L22.2938 9.56349C22.2956 9.44273 22.2021 9.34324 22.0869 9.34456C13.3036 9.44433 5.55343 15.1779 1.93643 23.6705C1.88382 23.794 1.94202 23.9389 2.06261 23.987L14.8443 29.0802Z" fill="#C4DAFF"/>
<path d="M32.2332 35.8824C32.0527 35.8775 31.8912 35.9926 31.8373 36.1652C31.6863 36.6484 31.4104 37.5756 31.3652 37.6929C31.1454 38.2632 30.888 38.8196 30.5865 39.3513C30.0273 40.3375 29.3121 41.2413 28.4298 41.957C26.1937 43.7708 22.9791 44.1078 20.2978 43.2101C20.2214 43.1845 20.1456 43.157 20.0702 43.1287C19.9305 43.0764 19.7737 43.1345 19.702 43.2654L12.9412 55.6154C16.2241 57.2644 19.3135 57.6956 23.1895 57.4468C34.4508 56.7239 43.2936 47.5652 44.2751 36.2075L32.2332 35.8824Z" fill="#005FBF"/>
<path d="M10.3566 53.9813L17.3232 41.4912C17.4117 41.3325 17.3813 41.1302 17.2496 41.0088C15.2512 39.1653 13.9797 36.3941 13.9797 33.2675C13.9797 32.4837 14.0605 31.7194 14.2123 30.9839L1.34694 25.9399C1.24448 25.8998 1.13028 25.9586 1.09901 26.0685C0.434747 28.4037 0.0769043 30.8827 0.0769043 33.4488C0.0769043 42.1923 4.19594 49.7212 10.3566 53.9813Z" fill="#8FB3FF"/>
<path d="M24.5452 23.7703C28.5329 24.4698 31.6252 27.9915 32.149 32.3925C32.177 32.6278 32.3623 32.8078 32.5884 32.8157L51.8754 33.4936C51.9353 33.4327 51.9669 33.4006 52.0269 33.3396C51.9679 16.4171 40.3985 1.919 24.9013 0L24.5452 23.7703Z" fill="url(#paint0_linear_643_48171)"/>
<path d="M39.1432 14.2236C40.966 12.3118 40.966 9.21215 39.1432 7.30037C37.3204 5.38859 34.3651 5.38859 32.5424 7.30037C30.7196 9.21215 30.7196 12.3118 32.5424 14.2236C34.3651 16.1353 37.3204 16.1353 39.1432 14.2236Z" fill="#C4DAFF"/>
<path d="M38.8004 13.9262C40.4582 12.1874 40.4582 9.36827 38.8004 7.62948C37.1426 5.89069 34.4547 5.8907 32.7969 7.62948C31.139 9.36827 31.139 12.1874 32.7969 13.9262C34.4547 15.665 37.1426 15.665 38.8004 13.9262Z" fill="white"/>
<mask id="mask0_643_48171" style="mask-type:luminance" maskUnits="userSpaceOnUse" x="31" y="6" width="10" height="10">
<path d="M38.8241 13.9642C40.482 12.2255 40.482 9.40632 38.8241 7.66754C37.1663 5.92875 34.4784 5.92875 32.8206 7.66754C31.1628 9.40632 31.1628 12.2255 32.8206 13.9642C34.4784 15.703 37.1663 15.703 38.8241 13.9642Z" fill="white"/>
</mask>
<g mask="url(#mask0_643_48171)">
<path d="M33.4848 15.1518C33.5516 14.8262 33.6045 14.6131 33.6045 14.6131L32.4245 12.5171C32.4245 12.5171 32.0425 12.9226 31.8136 14.6892C31.7819 14.9339 31.9632 15.1518 32.1987 15.1518L33.4848 15.1518Z" fill="#7D97F4"/>
<path d="M39.867 14.6825C39.5393 13.1507 38.956 12.4377 38.956 12.4377L38.2175 15.0037C38.2175 15.0037 38.2399 15.0544 38.2739 15.1521H39.5086C39.7439 15.1521 39.9185 14.9232 39.867 14.6825Z" fill="#7D97F4"/>
<path d="M33.4757 15.1522C34.6888 15.6202 36.3371 15.5547 38.2605 15.1522C38.3056 14.9568 38.3669 14.7466 38.4485 14.5047L38.9561 12.4372C38.2447 11.7682 37.2448 11.5473 36.8601 11.4846C35.9662 11.2521 34.9213 11.4581 34.9213 11.4581C33.5047 11.5618 32.4246 12.5153 32.4246 12.5153L33.3023 14.6104C33.3716 14.7867 33.4295 14.9677 33.4757 15.1522Z" fill="#7D97F4"/>
<path d="M35.1027 10.4478L35.0725 11.492C35.0695 11.5953 35.1306 11.6883 35.2235 11.7227C35.478 11.8169 36.0051 11.9601 36.5045 11.7725C36.6052 11.7347 36.6659 11.6265 36.6503 11.5154L36.5006 10.4478H35.1027Z" fill="url(#paint1_linear_643_48171)"/>
<path d="M34.7338 8.69549C34.7338 8.69549 34.7923 10.1062 35.0263 10.6583C35.2602 11.2103 35.845 11.2103 35.9035 11.2103C35.9619 11.2103 36.4883 11.0876 36.7807 10.597C37.0731 10.1062 37.1901 8.51148 37.1901 8.51148C37.1901 8.51148 36.6637 7.89812 35.9619 7.83677C35.2602 7.77544 34.7338 8.38881 34.7338 8.69549Z" fill="url(#paint2_linear_643_48171)"/>
<path d="M36.935 9.20467C36.935 9.20467 37.2034 8.78246 37.3376 8.92319C37.4718 9.06393 37.2034 9.97877 36.935 9.97877C36.6666 9.97877 36.935 9.20467 36.935 9.20467Z" fill="url(#paint3_linear_643_48171)"/>
<path d="M34.922 9.27515C34.922 9.27515 34.5866 8.78257 34.4524 8.92329C34.3182 9.06404 34.6537 9.97887 34.922 9.97887V9.27515Z" fill="url(#paint4_linear_643_48171)"/>
<path d="M37.3559 8.34929C37.3575 8.25386 37.3524 8.15524 37.3478 8.04274C37.3432 7.93036 37.3531 7.81793 37.3646 7.70607C37.3975 7.38357 37.0766 7.12824 36.7861 7.20915C36.7637 7.21539 36.7397 7.22332 36.7181 7.21447C36.6911 7.20342 36.6792 7.17126 36.6685 7.14308C36.6014 6.96751 36.4228 6.74063 36.2538 6.66638C36.1085 6.60256 35.9479 6.57587 35.7911 6.59469C35.4753 6.63261 35.1852 6.85364 35.0532 7.15687C35.0458 7.17395 35.038 7.19229 35.0229 7.20231C35.0091 7.2114 34.992 7.21191 34.9758 7.21213C34.8176 7.21436 34.6351 7.17796 34.5013 7.28012C34.388 7.36678 34.3052 7.50153 34.2971 7.65067C34.2883 7.81347 34.3551 7.96929 34.4239 8.11556C34.4655 8.20414 34.5094 8.30545 34.476 8.39781C34.4658 8.42617 34.4488 8.45123 34.4358 8.47832C34.2917 8.77829 34.6703 9.0735 34.7401 9.34263C34.7931 9.54686 34.8462 9.75107 34.8992 9.9553C34.9228 9.82487 34.9295 9.69108 34.919 9.55876C34.9045 9.37658 34.8576 9.19676 34.8638 9.01407C34.8683 8.88257 34.8973 8.7529 34.955 8.63577C35.0104 8.52325 35.1115 8.47362 35.1871 8.37507C35.257 8.44348 35.3332 8.51516 35.4278 8.52962C35.4874 8.53871 35.5478 8.52378 35.6052 8.50494C35.6921 8.47642 35.8154 8.37353 35.8998 8.36653C35.9838 8.35956 36.0132 8.45221 36.0688 8.50122C36.2235 8.63739 36.4868 8.67513 36.6722 8.5938C36.6292 8.61264 36.8802 9.10373 36.8883 9.1482C36.936 9.40955 36.9649 9.67471 36.9746 9.94062C36.9946 9.95599 37.0171 9.92467 37.0236 9.89955C37.0692 9.7224 37.0833 9.53826 37.1128 9.3574C37.146 9.15301 37.225 8.96047 37.2884 8.76504C37.3379 8.61258 37.3536 8.48409 37.3559 8.34929Z" fill="url(#paint5_linear_643_48171)"/>
</g>
<path d="M48.1205 11.4621C49.7908 9.71027 49.7908 6.87 48.1205 5.11817C46.4502 3.36634 43.7422 3.36634 42.0719 5.11817C40.4017 6.86999 40.4017 9.71027 42.0719 11.4621C43.7422 13.2139 46.4502 13.2139 48.1205 11.4621Z" fill="#C4DAFF"/>
<path d="M45.0561 12.3837C47.2045 12.3837 48.9461 10.557 48.9461 8.30374C48.9461 6.05046 47.2045 4.22382 45.0561 4.22382C42.9077 4.22382 41.1661 6.05046 41.1661 8.30374C41.1661 10.557 42.9077 12.3837 45.0561 12.3837Z" fill="white"/>
<mask id="mask1_643_48171" style="mask-type:luminance" maskUnits="userSpaceOnUse" x="41" y="4" width="8" height="9">
<path d="M45.0783 12.413C47.2267 12.413 48.9683 10.5864 48.9683 8.3331C48.9683 6.07982 47.2267 4.25317 45.0783 4.25317C42.93 4.25317 41.1884 6.07982 41.1884 8.3331C41.1884 10.5864 42.93 12.413 45.0783 12.413Z" fill="white"/>
</mask>
<g mask="url(#mask1_643_48171)">
<path d="M44.222 7.41393C43.9757 7.41393 43.7203 7.44686 43.6239 7.13572C43.4423 6.54973 43.7473 5.6737 44.2473 5.3547C44.4145 5.248 44.6095 5.2013 44.8014 5.16089C45.0272 5.11338 45.2222 5.10153 45.4257 5.21636C45.6135 5.32229 45.7958 5.152 45.9904 5.288C46.1559 5.40357 46.2827 5.5856 46.3711 5.76951C46.4866 6.00968 46.5466 6.27448 46.5969 6.53822C46.6083 6.59794 46.6192 6.65982 46.6065 6.71926C46.5959 6.76907 46.5693 6.81331 46.5429 6.85622C46.341 7.18417 46.0723 7.41396 45.6837 7.41398C45.6837 7.41393 44.2285 7.41393 44.222 7.41393Z" fill="url(#paint6_linear_643_48171)"/>
<path d="M44.1725 6.38266C44.1725 6.38266 44.217 6.48048 43.927 6.63334C43.7653 6.71857 43.4507 6.84454 43.4092 7.21251C43.3878 7.40249 43.317 7.87152 43.1447 7.90053C42.7155 7.97275 42.1362 8.2537 42.0822 8.7999C42.0201 9.42681 42.1921 9.7559 42.4964 9.83786C42.7199 9.89807 42.7765 9.96107 42.7313 10.2089C42.6879 10.4465 42.8598 11.2992 43.2348 11.5165C44.075 12.0033 44.8068 9.78515 44.8068 9.78515L44.9788 6.92131L44.1725 6.38266Z" fill="url(#paint7_linear_643_48171)"/>
<path d="M46.0953 6.13217C46.0953 6.13217 46.0499 6.2358 46.3452 6.39775C46.5098 6.48804 46.8301 6.62152 46.8723 7.01136C46.8942 7.21263 46.9452 7.49544 47.1207 7.52618C47.5576 7.6027 48.064 8.04923 48.1717 8.91613C48.254 9.57784 48.0745 10.2875 47.7647 10.3743C47.5371 10.4381 47.5542 10.3117 47.6003 10.5742C47.6444 10.826 47.5408 10.7288 47.1591 10.9589C46.3037 11.4747 45.4495 9.737 45.4495 9.737L45.2744 6.70285L46.0953 6.13217Z" fill="url(#paint8_linear_643_48171)"/>
<path d="M44.9519 9.3111C44.9519 9.3111 45.6012 9.13561 45.7391 9.35258C45.808 9.71335 45.8435 10.0718 45.8435 10.0718L45.0953 10.2191L44.6006 10.0997L44.4828 10.028L44.434 9.51685C44.434 9.51685 44.6871 9.36289 44.9519 9.3111Z" fill="url(#paint9_linear_643_48171)"/>
<path d="M44.173 7.49198C44.173 7.49198 44.0686 7.16346 43.912 7.27295C43.7554 7.38246 44.147 8.08131 44.147 8.08131L44.173 7.49198Z" fill="url(#paint10_linear_643_48171)"/>
<path d="M45.739 7.49247C45.739 7.49247 45.739 6.99968 46 7.27344C46.261 7.5472 45.739 7.93047 45.739 7.93047V7.49247Z" fill="url(#paint11_linear_643_48171)"/>
<path d="M48.1977 11.9674C47.9792 10.861 47.6654 9.99628 47.5662 9.9462L46.9736 11.484C46.9736 11.484 46.8539 11.9423 46.8636 12.5112H47.775C48.0483 12.5112 48.2531 12.2481 48.1977 11.9674Z" fill="url(#paint12_linear_643_48171)"/>
<path d="M43.6355 12.5109C43.6628 12.0166 43.6509 11.7054 43.6509 11.7054L42.8156 10.2831C42.8156 10.2831 42.7112 10.7191 42.6068 11.8689C42.602 11.9224 42.5974 11.9767 42.5929 12.0319C42.5723 12.2897 42.7666 12.5109 43.0133 12.5109H43.6355Z" fill="url(#paint13_linear_643_48171)"/>
<path d="M44.7918 12.5143H45.7013L45.9479 9.79528C45.9479 9.79528 45.7391 9.73888 45.6347 9.35563C45.5303 8.97236 45.4781 8.20502 45.4781 8.20502L44.5384 8.4236C44.5384 8.4236 44.6428 9.46697 44.434 9.95973L44.7918 12.5143Z" fill="url(#paint14_linear_643_48171)"/>
<path d="M46.1921 12.5146L46.3229 10.7982C45.3703 11.396 44.3907 11.367 43.3971 11.05L43.6791 12.5146H46.1921Z" fill="url(#paint15_linear_643_48171)"/>
<path d="M45.015 12.5105C44.7327 11.0824 44.434 9.51929 44.434 9.51929L44.2774 9.84695L42.8157 10.2863C42.8873 10.6366 43.1058 11.6007 43.3255 12.5105L45.015 12.5105Z" fill="url(#paint16_linear_643_48171)"/>
<path d="M47.1037 12.5106C47.1816 12.0731 47.2502 11.7317 47.2502 11.7317L47.5662 9.94553C47.4668 9.84123 45.9062 9.61675 45.9062 9.61675L45.7391 9.35522C45.7391 9.35522 45.5307 10.9441 45.3526 12.5106H47.1037V12.5106Z" fill="url(#paint17_linear_643_48171)"/>
<path d="M44.0685 6.72608C44.0685 6.72608 44.0163 8.04014 44.1729 8.25914C44.3296 8.47814 44.5384 8.97092 44.9038 9.02568C45.2692 9.08044 45.8434 7.98538 45.8434 7.93065C45.8434 7.87589 45.7912 6.45235 45.7912 6.45235C45.7912 6.45235 44.695 5.52154 44.0685 6.72608Z" fill="url(#paint18_linear_643_48171)"/>
<path d="M43.8598 6.50603C43.8598 6.50603 43.651 7.16306 44.2775 6.94406C44.9039 6.72506 44.9039 6.72506 44.9039 6.72506C44.9039 6.72506 45.5303 6.34179 45.6347 6.50605C45.7391 6.6703 45.8435 7.07482 45.8435 7.07482C45.8435 7.07482 46.0524 6.50605 45.8435 6.17754C45.6347 5.849 44.3297 5.57527 43.8598 6.50603Z" fill="url(#paint19_linear_643_48171)"/>
</g>
<path d="M37.7772 26.7337C40.4463 26.7337 42.6101 24.4643 42.6101 21.6648C42.6101 18.8654 40.4463 16.596 37.7772 16.596C35.1081 16.596 32.9444 18.8654 32.9444 21.6648C32.9444 24.4643 35.1081 26.7337 37.7772 26.7337Z" fill="#C4DAFF"/>
<path d="M37.7314 26.2891C40.1589 26.2891 42.1269 24.225 42.1269 21.6789C42.1269 19.1328 40.1589 17.0688 37.7314 17.0688C35.3038 17.0688 33.3359 19.1328 33.3359 21.6789C33.3359 24.225 35.3038 26.2891 37.7314 26.2891Z" fill="white"/>
<mask id="mask2_643_48171" style="mask-type:luminance" maskUnits="userSpaceOnUse" x="33" y="17" width="10" height="10">
<path d="M37.7568 26.3251C40.1844 26.3251 42.1523 24.261 42.1523 21.7149C42.1523 19.1688 40.1844 17.1048 37.7568 17.1048C35.3293 17.1048 33.3613 19.1688 33.3613 21.7149C33.3613 24.261 35.3293 26.3251 37.7568 26.3251Z" fill="white"/>
</mask>
<g mask="url(#mask2_643_48171)">
<path d="M37.8526 21.1977C38.6444 21.1977 39.2863 20.5245 39.2863 19.6941C39.2863 18.8637 38.6444 18.1905 37.8526 18.1905C37.0609 18.1905 36.419 18.8637 36.419 19.6941C36.419 20.5245 37.0609 21.1977 37.8526 21.1977Z" fill="url(#paint20_linear_643_48171)"/>
<path d="M36.4758 19.2736C35.8453 21.5606 35.4166 23.6396 35.4862 24.2243L37.3245 24.0207L37.5376 19.7905L36.4758 19.2736Z" fill="url(#paint21_linear_643_48171)"/>
<path d="M38.5107 19.0372L38.2584 24.2081L40.3385 25.3699C40.2949 23.6027 39.4341 19.0619 39.0818 18.9402L38.5107 19.0372Z" fill="url(#paint22_linear_643_48171)"/>
<path d="M38.5112 21.8387L38.5718 23.2469L37.2695 23.4526L37.1874 21.9742L38.5112 21.8387Z" fill="url(#paint23_linear_643_48171)"/>
<path d="M39.1289 20.9909C39.1289 20.9909 38.8168 22.4529 37.9723 22.6286C37.1278 22.8043 36.8776 21.4267 36.8331 21.3277C36.8331 21.3277 36.6442 21.4211 36.6018 21.2242C36.5594 21.0272 36.3367 20.532 36.7568 20.5421C36.7568 20.5421 36.6741 20.0503 36.8195 19.8089C36.9648 19.5674 37.2577 18.9866 37.8613 19.1481C38.465 19.3095 39.4299 19.8423 39.1289 20.9909Z" fill="url(#paint24_linear_643_48171)"/>
<path d="M38.5515 22.7754L39.3774 23.2347L38.2958 24.4795L36.2962 23.1604C36.6008 23.0411 36.9003 22.8808 37.1739 22.8331L38.5515 22.7754Z" fill="url(#paint25_linear_643_48171)"/>
<path d="M36.8042 19.2329C36.522 19.6469 36.7438 20.0142 36.6681 20.3114C36.9414 20.2072 37.8646 20.0514 38.1424 20.08C38.1999 19.882 38.0871 19.5525 38.0293 19.2927C38.1195 19.5393 38.3255 19.9169 38.3036 20.1118C38.6768 20.1298 38.6003 20.1352 39.0197 20.3114L38.6932 19.1173C37.9662 18.761 37.3382 18.8064 36.8042 19.2329Z" fill="url(#paint26_linear_643_48171)"/>
<path d="M38.1938 17.83C38.1938 18.1171 37.9362 18.4394 37.7505 18.4394C37.5976 18.4394 37.3073 18.1171 37.3073 17.83C37.3073 17.5429 37.5057 17.3102 37.7505 17.3102C37.9954 17.3102 38.1938 17.5429 38.1938 17.83Z" fill="url(#paint27_linear_643_48171)"/>
<path d="M39.9702 26.3521L40.4248 23.6993C39.8063 23.258 39.2329 23.048 38.5517 22.7772C38.3404 23.2377 37.3758 23.1921 37.174 22.8344C36.5325 23.0052 35.9218 23.3212 35.3314 23.7302L35.9536 26.3521H39.9702Z" fill="url(#paint28_linear_643_48171)"/>
<path d="M41.2173 25.8817C40.849 24.23 40.4247 23.698 40.4247 23.698L39.7444 25.8694C39.7444 25.8694 39.8264 26.0426 39.9341 26.3508H40.862C41.0967 26.3508 41.2707 26.1214 41.2173 25.8817Z" fill="url(#paint29_linear_643_48171)"/>
<path d="M35.9986 26.351C36.0738 26.0674 36.1743 25.7697 36.3047 25.4648L35.3313 23.7298C35.3313 23.7298 34.8511 24.6046 34.6922 25.9221C34.6647 26.1498 34.8349 26.351 35.0537 26.351H35.9986Z" fill="url(#paint30_linear_643_48171)"/>
<path d="M38.6503 19.1448C39.1327 20.424 39.3736 24.0318 39.0789 25.94C39.5401 24.2744 40.1146 22.1616 39.2368 19.3207L38.6503 19.1448Z" fill="url(#paint31_linear_643_48171)"/>
</g>
<path d="M47.8969 22.4488C50.2981 22.4488 52.2446 20.4073 52.2446 17.8889C52.2446 15.3705 50.2981 13.329 47.8969 13.329C45.4958 13.329 43.5493 15.3705 43.5493 17.8889C43.5493 20.4073 45.4958 22.4488 47.8969 22.4488Z" fill="#C4DAFF"/>
<path d="M50.651 20.8359C52.1952 19.2163 52.1952 16.5904 50.651 14.9708C49.1068 13.3512 46.6032 13.3512 45.059 14.9708C43.5148 16.5904 43.5148 19.2163 45.059 20.8359C46.6032 22.4555 49.1068 22.4555 50.651 20.8359Z" fill="white"/>
<mask id="mask3_643_48171" style="mask-type:luminance" maskUnits="userSpaceOnUse" x="43" y="13" width="9" height="10">
<path d="M50.6735 20.8682C52.2177 19.2486 52.2177 16.6227 50.6735 15.0031C49.1293 13.3835 46.6257 13.3835 45.0815 15.0031C43.5373 16.6227 43.5373 19.2486 45.0815 20.8682C46.6257 22.4878 49.1293 22.4878 50.6735 20.8682Z" fill="white"/>
</mask>
<g mask="url(#mask3_643_48171)">
<path d="M50.5107 22.507C50.7311 22.507 50.9094 22.3187 50.908 22.0875C50.9037 21.4253 50.8909 20.8435 50.8615 20.5223C50.7863 19.7026 50.3716 19.4426 50.3716 19.4426L50.1603 22.507H50.5107Z" fill="url(#paint32_linear_643_48171)"/>
<path d="M49.4905 22.5075C49.4596 20.7908 49.4293 19.3711 49.4293 19.3711C48.6882 18.8927 45.9517 18.9528 45.9517 18.9528C45.9517 18.9528 45.7617 20.6089 45.545 22.5075H49.4905Z" fill="url(#paint33_linear_643_48171)"/>
<path d="M44.9711 22.5067H47.5178C47.436 21.6768 46.7783 18.6064 46.7783 18.6064L44.7357 19.262C44.7357 19.262 44.897 21.1764 44.897 21.7743C44.897 21.9113 44.9336 22.177 44.9711 22.5067Z" fill="url(#paint34_linear_643_48171)"/>
<path d="M45.0478 22.5068C45.0568 21.4949 45.0396 19.6287 44.7357 19.2644C44.7357 19.2644 44.3422 19.4768 43.9431 20.8521C43.828 21.249 43.7233 21.6258 43.6259 21.9847C43.5548 22.2465 43.7424 22.5068 44.0019 22.5068L45.0478 22.5068Z" fill="url(#paint35_linear_643_48171)"/>
<path d="M50.295 22.5065C50.3685 21.0513 50.4327 19.5007 50.3717 19.4367C50.2577 19.3171 48.8878 18.8481 48.8878 18.8481C48.8878 18.8481 47.9952 21.7107 47.7879 22.5065H50.295Z" fill="url(#paint36_linear_643_48171)"/>
<path d="M46.8639 19.1141L47.206 17.8584H48.4602L48.6312 19.2935C48.6312 19.2935 47.548 19.5925 46.8639 19.1141Z" fill="url(#paint37_linear_643_48171)"/>
<path d="M46.8639 16.2288C46.8639 16.2288 46.9818 17.43 47.1805 17.899C47.3793 18.3681 47.8762 18.3681 47.9259 18.3681C47.9756 18.3681 48.4228 18.2639 48.6713 17.8469C48.9197 17.43 49.0191 16.0749 49.0191 16.0749C49.0191 16.0749 48.5719 15.5537 47.9756 15.5016C47.3793 15.4495 46.8639 15.9682 46.8639 16.2288Z" fill="url(#paint38_linear_643_48171)"/>
<path d="M48.8024 16.663C48.8024 16.663 49.0305 16.3042 49.1445 16.4238C49.2585 16.5434 49.0305 17.3207 48.8024 17.3207C48.5744 17.3207 48.8024 16.663 48.8024 16.663Z" fill="url(#paint39_linear_643_48171)"/>
<path d="M47.092 16.7234C47.092 16.7234 46.8069 16.3048 46.6929 16.4244C46.5789 16.544 46.8639 17.3213 47.092 17.3213V16.7234Z" fill="url(#paint40_linear_643_48171)"/>
<path d="M49.3874 15.9514C49.4476 15.787 49.4634 15.6037 49.4439 15.4277C49.4144 15.1622 49.2783 14.6698 49.0899 14.4723C49.1435 14.5284 48.6324 14.7552 48.5536 14.7471C48.7072 14.6158 48.8984 14.4657 48.9053 14.2367C48.7275 14.3622 48.5106 14.4078 48.2995 14.4468C47.7727 14.5442 47.2066 14.5239 46.8013 14.9419C46.632 15.1165 46.5173 15.3862 46.5607 15.6381C46.5924 15.822 46.8534 16.0159 46.6928 16.185C46.5792 16.3046 46.9233 16.5223 46.9791 16.8617C46.9831 16.8861 46.9872 16.9114 46.994 16.9346C46.989 16.761 46.9255 16.5745 46.9295 16.4058C46.9378 16.0595 47.4354 16.0351 47.6788 16.0122C48.0028 15.9817 48.3559 15.9847 48.6362 15.7862C48.7502 15.7054 48.8225 16.3578 48.8274 16.3898C48.8556 16.5754 48.8892 16.7745 48.8594 16.9622L48.9379 16.9621C48.9606 16.7421 48.9397 16.5315 49.094 16.3714C49.1684 16.294 49.2435 16.216 49.302 16.1248C49.3368 16.0705 49.3652 16.0122 49.3874 15.9514Z" fill="url(#paint41_linear_643_48171)"/>
<path d="M47.1451 18.0812C47.1016 18.3562 47.0882 18.4889 47.0048 18.7535C46.9296 18.9923 46.9849 19.3252 46.9895 19.5762C46.9958 19.9268 47.2555 20.3103 47.1986 20.655C47.0532 20.2263 46.6092 19.8928 46.3819 19.4925C46.1599 19.1016 46.0014 18.786 46.2551 18.4169C46.4125 18.188 47.1484 18.0598 47.1451 18.0812Z" fill="url(#paint42_linear_643_48171)"/>
<path d="M48.4878 19.2319C48.5192 19.9618 48.3827 20.1101 48.2721 20.8477C48.4207 20.3492 48.7556 20.0875 49.0191 19.6431C49.2789 19.2051 49.3631 18.6592 48.9378 18.3672C48.9087 18.3472 48.4973 18.1474 48.4992 18.1862C48.5044 18.2928 48.4742 18.9156 48.4878 19.2319Z" fill="url(#paint43_linear_643_48171)"/>
</g>
<path d="M8.63788 24.1492C10.2297 24.1492 11.5201 22.7958 11.5201 21.1263C11.5201 19.4567 10.2297 18.1033 8.63788 18.1033C7.04608 18.1033 5.75568 19.4567 5.75568 21.1263C5.75568 22.7958 7.04608 24.1492 8.63788 24.1492Z" fill="url(#paint44_linear_643_48171)"/>
<path d="M10.4252 23.0015C11.3778 22.0023 11.3778 20.3823 10.4252 19.3832C9.47252 18.384 7.92798 18.384 6.97534 19.3832C6.0227 20.3823 6.0227 22.0023 6.97534 23.0015C7.92798 24.0006 9.47252 24.0006 10.4252 23.0015Z" fill="white"/>
<path d="M9.44753 20.2252C9.44753 20.6585 9.11269 21.1262 8.69963 21.1262C8.28656 21.1262 7.95172 20.6585 7.95172 20.2252C7.95172 19.792 8.28656 19.4846 8.69963 19.4846C9.11269 19.4847 9.44753 19.792 9.44753 20.2252Z" fill="url(#paint45_linear_643_48171)"/>
<path d="M7.77162 22.7936H9.59739C9.78959 22.7936 9.95974 22.6634 10.0183 22.4714L10.1166 22.1493C10.1885 21.9135 10.0715 21.6582 9.84984 21.5732C9.10682 21.2882 8.33853 21.3248 7.55147 21.5995C7.33099 21.6764 7.20863 21.9238 7.26948 22.159L7.34513 22.4515C7.39734 22.6534 7.57212 22.7936 7.77162 22.7936Z" fill="url(#paint46_linear_643_48171)"/>
<path d="M14.0169 19.2918C15.6087 19.2918 16.8991 17.9384 16.8991 16.2689C16.8991 14.5994 15.6087 13.2459 14.0169 13.2459C12.4251 13.2459 11.1347 14.5994 11.1347 16.2689C11.1347 17.9384 12.4251 19.2918 14.0169 19.2918Z" fill="url(#paint47_linear_643_48171)"/>
<path d="M15.8042 18.144C16.7568 17.1449 16.7568 15.5249 15.8042 14.5258C14.8516 13.5266 13.307 13.5266 12.3544 14.5258C11.4017 15.5249 11.4017 17.1449 12.3544 18.144C13.307 19.1432 14.8516 19.1432 15.8042 18.144Z" fill="white"/>
<path d="M14.8266 15.3678C14.8266 15.8011 14.4917 16.2688 14.0787 16.2688C13.6656 16.2688 13.3307 15.8011 13.3307 15.3678C13.3307 14.9346 13.6656 14.6272 14.0787 14.6272C14.4917 14.6272 14.8266 14.9346 14.8266 15.3678Z" fill="url(#paint48_linear_643_48171)"/>
<path d="M13.1504 17.9362H14.9762C15.1684 17.9362 15.3385 17.8059 15.3971 17.6139L15.4954 17.2919C15.5673 17.0561 15.4503 16.8008 15.2286 16.7157C14.4856 16.4308 13.7173 16.4674 12.9303 16.742C12.7098 16.819 12.5874 17.0663 12.6483 17.3016L12.7239 17.594C12.7761 17.796 12.9509 17.9362 13.1504 17.9362Z" fill="url(#paint49_linear_643_48171)"/>
<path d="M15.1168 26.5232C16.7086 26.5232 17.999 25.1698 17.999 23.5002C17.999 21.8307 16.7086 20.4773 15.1168 20.4773C13.525 20.4773 12.2346 21.8307 12.2346 23.5002C12.2346 25.1698 13.525 26.5232 15.1168 26.5232Z" fill="url(#paint50_linear_643_48171)"/>
<path d="M15.1797 26.1254C16.5269 26.1254 17.6191 24.9799 17.6191 23.5668C17.6191 22.1538 16.5269 21.0083 15.1797 21.0083C13.8324 21.0083 12.7402 22.1538 12.7402 23.5668C12.7402 24.9799 13.8324 26.1254 15.1797 26.1254Z" fill="white"/>
<path d="M15.9264 22.5992C15.9264 23.0324 15.5916 23.5001 15.1785 23.5001C14.7654 23.5001 14.4306 23.0324 14.4306 22.5992C14.4306 22.166 14.7654 21.8586 15.1785 21.8586C15.5916 21.8586 15.9264 22.166 15.9264 22.5992Z" fill="url(#paint51_linear_643_48171)"/>
<path d="M14.2503 25.1676H16.0761C16.2683 25.1676 16.4385 25.0373 16.497 24.8453L16.5953 24.5232C16.6672 24.2874 16.5502 24.0321 16.3285 23.9471C15.5855 23.6622 14.8172 23.6987 14.0302 23.9734C13.8097 24.0503 13.6873 24.2977 13.7482 24.5329L13.8238 24.8254C13.8761 25.0274 14.0508 25.1676 14.2503 25.1676Z" fill="url(#paint52_linear_643_48171)"/>
<defs>
<linearGradient id="paint0_linear_643_48171" x1="7.08014" y1="47.0913" x2="139.717" y2="-69.7708" gradientUnits="userSpaceOnUse">
<stop stop-color="#BD99FF"/>
<stop offset="1" stop-color="#B99DED"/>
</linearGradient>
<linearGradient id="paint1_linear_643_48171" x1="35.7237" y1="9.27245" x2="36.0105" y2="13.5012" gradientUnits="userSpaceOnUse">
<stop stop-color="#C4421B"/>
<stop offset="1" stop-color="#5C0E16"/>
</linearGradient>
<linearGradient id="paint2_linear_643_48171" x1="35.7445" y1="11.4835" x2="36.1133" y2="7.0353" gradientUnits="userSpaceOnUse">
<stop stop-color="#C4421B"/>
<stop offset="1" stop-color="#5C0E16"/>
</linearGradient>
<linearGradient id="paint3_linear_643_48171" x1="36.9317" y1="11.5819" x2="37.3006" y2="7.13365" gradientUnits="userSpaceOnUse">
<stop stop-color="#C4421B"/>
<stop offset="1" stop-color="#5C0E16"/>
</linearGradient>
<linearGradient id="paint4_linear_643_48171" x1="34.5301" y1="11.3829" x2="34.899" y2="6.93464" gradientUnits="userSpaceOnUse">
<stop stop-color="#C4421B"/>
<stop offset="1" stop-color="#5C0E16"/>
</linearGradient>
<linearGradient id="paint5_linear_643_48171" x1="35.7707" y1="7.20912" x2="36.369" y2="11.6215" gradientUnits="userSpaceOnUse">
<stop stop-color="#090056"/>
<stop offset="1" stop-color="#020039"/>
</linearGradient>
<linearGradient id="paint6_linear_643_48171" x1="45.2026" y1="4.81097" x2="44.7351" y2="12.0106" gradientUnits="userSpaceOnUse">
<stop stop-color="#09005D"/>
<stop offset="1" stop-color="#1A0F91"/>
</linearGradient>
<linearGradient id="paint7_linear_643_48171" x1="43.7151" y1="4.71455" x2="43.2476" y2="11.9142" gradientUnits="userSpaceOnUse">
<stop stop-color="#09005D"/>
<stop offset="1" stop-color="#1A0F91"/>
</linearGradient>
<linearGradient id="paint8_linear_643_48171" x1="46.9154" y1="4.92229" x2="46.4479" y2="12.1219" gradientUnits="userSpaceOnUse">
<stop stop-color="#09005D"/>
<stop offset="1" stop-color="#1A0F91"/>
</linearGradient>
<linearGradient id="paint9_linear_643_48171" x1="43.9609" y1="1.75748" x2="44.4334" y2="4.71083" gradientUnits="userSpaceOnUse">
<stop stop-color="#005FBF"/>
<stop offset="1" stop-color="#005FBF"/>
</linearGradient>
<linearGradient id="paint10_linear_643_48171" x1="44.1" y1="7.41267" x2="45.3193" y2="3.70087" gradientUnits="userSpaceOnUse">
<stop stop-color="#FEBBBA"/>
<stop offset="1" stop-color="#FF928E"/>
</linearGradient>
<linearGradient id="paint11_linear_643_48171" x1="45.7514" y1="7.95562" x2="46.9707" y2="4.24382" gradientUnits="userSpaceOnUse">
<stop stop-color="#FEBBBA"/>
<stop offset="1" stop-color="#FF928E"/>
</linearGradient>
<linearGradient id="paint12_linear_643_48171" x1="45.9601" y1="1.4391" x2="46.4327" y2="4.39245" gradientUnits="userSpaceOnUse">
<stop stop-color="#005FBF"/>
<stop offset="1" stop-color="#005FBF"/>
</linearGradient>
<linearGradient id="paint13_linear_643_48171" x1="41.6982" y1="2.12059" x2="42.1708" y2="5.07395" gradientUnits="userSpaceOnUse">
<stop stop-color="#005FBF"/>
<stop offset="1" stop-color="#005FBF"/>
</linearGradient>
<linearGradient id="paint14_linear_643_48171" x1="45.0019" y1="11.2969" x2="45.5678" y2="7.68602" gradientUnits="userSpaceOnUse">
<stop stop-color="#FEBBBA"/>
<stop offset="1" stop-color="#FF928E"/>
</linearGradient>
<linearGradient id="paint15_linear_643_48171" x1="44.7522" y1="12.0796" x2="45.0252" y2="10.3377" gradientUnits="userSpaceOnUse">
<stop stop-color="#09005D"/>
<stop offset="1" stop-color="#1A0F91"/>
</linearGradient>
<linearGradient id="paint16_linear_643_48171" x1="42.5462" y1="1.98454" x2="43.0187" y2="4.9379" gradientUnits="userSpaceOnUse">
<stop stop-color="#005FBF"/>
<stop offset="1" stop-color="#005FBF"/>
</linearGradient>
<linearGradient id="paint17_linear_643_48171" x1="45.0567" y1="1.58298" x2="45.5292" y2="4.53634" gradientUnits="userSpaceOnUse">
<stop stop-color="#005FBF"/>
<stop offset="1" stop-color="#005FBF"/>
</linearGradient>
<linearGradient id="paint18_linear_643_48171" x1="44.8568" y1="7.66187" x2="46.076" y2="3.95007" gradientUnits="userSpaceOnUse">
<stop stop-color="#FEBBBA"/>
<stop offset="1" stop-color="#FF928E"/>
</linearGradient>
<linearGradient id="paint19_linear_643_48171" x1="43.7143" y1="4.62971" x2="48.5566" y2="11.9887" gradientUnits="userSpaceOnUse">
<stop stop-color="#09005D"/>
<stop offset="1" stop-color="#1A0F91"/>
</linearGradient>
<linearGradient id="paint20_linear_643_48171" x1="38.2973" y1="17.9143" x2="36.2215" y2="25.4673" gradientUnits="userSpaceOnUse">
<stop stop-color="#09005D"/>
<stop offset="1" stop-color="#1A0F91"/>
</linearGradient>
<linearGradient id="paint21_linear_643_48171" x1="37.8544" y1="17.792" x2="35.7787" y2="25.3449" gradientUnits="userSpaceOnUse">
<stop stop-color="#09005D"/>
<stop offset="1" stop-color="#1A0F91"/>
</linearGradient>
<linearGradient id="paint22_linear_643_48171" x1="40.3551" y1="18.479" x2="38.2794" y2="26.032" gradientUnits="userSpaceOnUse">
<stop stop-color="#09005D"/>
<stop offset="1" stop-color="#1A0F91"/>
</linearGradient>
<linearGradient id="paint23_linear_643_48171" x1="36.8971" y1="20.0154" x2="38.8469" y2="24.7089" gradientUnits="userSpaceOnUse">
<stop stop-color="#FEBBBA"/>
<stop offset="1" stop-color="#FF928E"/>
</linearGradient>
<linearGradient id="paint24_linear_643_48171" x1="37.4371" y1="23.1028" x2="38.7973" y2="15.8887" gradientUnits="userSpaceOnUse">
<stop stop-color="#FEBBBA"/>
<stop offset="1" stop-color="#FF928E"/>
</linearGradient>
<linearGradient id="paint25_linear_643_48171" x1="37.3945" y1="19.8609" x2="38.1321" y2="24.9192" gradientUnits="userSpaceOnUse">
<stop stop-color="#FEBBBA"/>
<stop offset="1" stop-color="#FF928E"/>
</linearGradient>
<linearGradient id="paint26_linear_643_48171" x1="36.1794" y1="16.9793" x2="41.9662" y2="26.5634" gradientUnits="userSpaceOnUse">
<stop stop-color="#09005D"/>
<stop offset="1" stop-color="#1A0F91"/>
</linearGradient>
<linearGradient id="paint27_linear_643_48171" x1="37.2886" y1="16.9803" x2="39.6993" y2="20.976" gradientUnits="userSpaceOnUse">
<stop stop-color="#09005D"/>
<stop offset="1" stop-color="#1A0F91"/>
</linearGradient>
<linearGradient id="paint28_linear_643_48171" x1="37.8781" y1="14.7384" x2="37.8781" y2="19.605" gradientUnits="userSpaceOnUse">
<stop stop-color="#005FBF"/>
<stop offset="1" stop-color="#005FBF"/>
</linearGradient>
<linearGradient id="paint29_linear_643_48171" x1="40.4857" y1="14.7371" x2="40.4857" y2="19.6037" gradientUnits="userSpaceOnUse">
<stop stop-color="#005FBF"/>
<stop offset="1" stop-color="#005FBF"/>
</linearGradient>
<linearGradient id="paint30_linear_643_48171" x1="35.497" y1="14.7373" x2="35.497" y2="19.6038" gradientUnits="userSpaceOnUse">
<stop stop-color="#005FBF"/>
<stop offset="1" stop-color="#005FBF"/>
</linearGradient>
<linearGradient id="paint31_linear_643_48171" x1="35.6866" y1="17.4583" x2="42.31" y2="26.4291" gradientUnits="userSpaceOnUse">
<stop stop-color="#09005D"/>
<stop offset="1" stop-color="#1A0F91"/>
</linearGradient>
<linearGradient id="paint32_linear_643_48171" x1="50.1603" y1="20.9748" x2="50.908" y2="20.9748" gradientUnits="userSpaceOnUse">
<stop stop-color="#4F52FF"/>
<stop offset="1" stop-color="#4042E2"/>
</linearGradient>
<linearGradient id="paint33_linear_643_48171" x1="60.2133" y1="-5.12947" x2="55.8045" y2="3.16688" gradientUnits="userSpaceOnUse">
<stop stop-color="#7D97F4"/>
<stop offset="1" stop-color="#7D97F4"/>
</linearGradient>
<linearGradient id="paint34_linear_643_48171" x1="44.7357" y1="20.5566" x2="47.5178" y2="20.5566" gradientUnits="userSpaceOnUse">
<stop stop-color="#4F52FF"/>
<stop offset="1" stop-color="#4042E2"/>
</linearGradient>
<linearGradient id="paint35_linear_643_48171" x1="43.6107" y1="20.8856" x2="45.0495" y2="20.8856" gradientUnits="userSpaceOnUse">
<stop stop-color="#4F52FF"/>
<stop offset="1" stop-color="#4042E2"/>
</linearGradient>
<linearGradient id="paint36_linear_643_48171" x1="47.7879" y1="20.6773" x2="50.396" y2="20.6773" gradientUnits="userSpaceOnUse">
<stop stop-color="#4F52FF"/>
<stop offset="1" stop-color="#4042E2"/>
</linearGradient>
<linearGradient id="paint37_linear_643_48171" x1="48.6575" y1="14.7992" x2="47.1063" y2="21.625" gradientUnits="userSpaceOnUse">
<stop stop-color="#FEBBBA"/>
<stop offset="1" stop-color="#FF928E"/>
</linearGradient>
<linearGradient id="paint38_linear_643_48171" x1="47.8064" y1="17.0129" x2="48.8008" y2="12.4807" gradientUnits="userSpaceOnUse">
<stop stop-color="#FEBBBA"/>
<stop offset="1" stop-color="#FF928E"/>
</linearGradient>
<linearGradient id="paint39_linear_643_48171" x1="48.8586" y1="17.2428" x2="49.853" y2="12.7106" gradientUnits="userSpaceOnUse">
<stop stop-color="#FEBBBA"/>
<stop offset="1" stop-color="#FF928E"/>
</linearGradient>
<linearGradient id="paint40_linear_643_48171" x1="46.8983" y1="16.8133" x2="47.8928" y2="12.2811" gradientUnits="userSpaceOnUse">
<stop stop-color="#FEBBBA"/>
<stop offset="1" stop-color="#FF928E"/>
</linearGradient>
<linearGradient id="paint41_linear_643_48171" x1="47.9173" y1="14.8461" x2="48.3823" y2="18.2757" gradientUnits="userSpaceOnUse">
<stop stop-color="#090056"/>
<stop offset="1" stop-color="#020039"/>
</linearGradient>
<linearGradient id="paint42_linear_643_48171" x1="46.7344" y1="18.5366" x2="46.4701" y2="22.544" gradientUnits="userSpaceOnUse">
<stop stop-color="#4F52FF"/>
<stop offset="1" stop-color="#4042E2"/>
</linearGradient>
<linearGradient id="paint43_linear_643_48171" x1="48.8243" y1="18.7346" x2="48.5684" y2="22.6151" gradientUnits="userSpaceOnUse">
<stop stop-color="#4F52FF"/>
<stop offset="1" stop-color="#4042E2"/>
</linearGradient>
<linearGradient id="paint44_linear_643_48171" x1="29.2661" y1="-21.5755" x2="24.8574" y2="-13.2792" gradientUnits="userSpaceOnUse">
<stop stop-color="#005FBF"/>
<stop offset="1" stop-color="#005FBF"/>
</linearGradient>
<linearGradient id="paint45_linear_643_48171" x1="28.9758" y1="-21.7298" x2="24.5671" y2="-13.4335" gradientUnits="userSpaceOnUse">
<stop stop-color="#005FBF"/>
<stop offset="1" stop-color="#005FBF"/>
</linearGradient>
<linearGradient id="paint46_linear_643_48171" x1="29.6796" y1="-21.3564" x2="25.2708" y2="-13.0601" gradientUnits="userSpaceOnUse">
<stop stop-color="#005FBF"/>
<stop offset="1" stop-color="#005FBF"/>
</linearGradient>
<linearGradient id="paint47_linear_643_48171" x1="31.6788" y1="-20.2924" x2="27.2701" y2="-11.9961" gradientUnits="userSpaceOnUse">
<stop stop-color="#005FBF"/>
<stop offset="1" stop-color="#005FBF"/>
</linearGradient>
<linearGradient id="paint48_linear_643_48171" x1="31.3886" y1="-20.4469" x2="26.9798" y2="-12.1505" gradientUnits="userSpaceOnUse">
<stop stop-color="#005FBF"/>
<stop offset="1" stop-color="#005FBF"/>
</linearGradient>
<linearGradient id="paint49_linear_643_48171" x1="32.0921" y1="-20.0733" x2="27.6833" y2="-11.777" gradientUnits="userSpaceOnUse">
<stop stop-color="#005FBF"/>
<stop offset="1" stop-color="#005FBF"/>
</linearGradient>
<linearGradient id="paint50_linear_643_48171" x1="35.3337" y1="-18.3502" x2="30.925" y2="-10.0539" gradientUnits="userSpaceOnUse">
<stop stop-color="#005FBF"/>
<stop offset="1" stop-color="#005FBF"/>
</linearGradient>
<linearGradient id="paint51_linear_643_48171" x1="35.0435" y1="-18.5047" x2="30.6347" y2="-10.2083" gradientUnits="userSpaceOnUse">
<stop stop-color="#005FBF"/>
<stop offset="1" stop-color="#005FBF"/>
</linearGradient>
<linearGradient id="paint52_linear_643_48171" x1="35.7471" y1="-18.1313" x2="31.3383" y2="-9.83493" gradientUnits="userSpaceOnUse">
<stop stop-color="#005FBF"/>
<stop offset="1" stop-color="#005FBF"/>
</linearGradient>
</defs>
</svg>
