<svg width="16" height="16" viewBox="0 0 16 16" fill="none" xmlns="http://www.w3.org/2000/svg">
<path d="M8.66655 7.83335C8.53988 7.83335 8.41321 7.78668 8.31321 7.68668C8.11988 7.49335 8.11988 7.17335 8.31321 6.98001L13.7799 1.51335C13.9732 1.32001 14.2932 1.32001 14.4865 1.51335C14.6799 1.70668 14.6799 2.02668 14.4865 2.22001L9.01988 7.68668C8.91988 7.78668 8.79321 7.83335 8.66655 7.83335Z" fill="#292D32"/>
<path d="M14.6666 5.03331C14.3932 5.03331 14.1666 4.80665 14.1666 4.53331V1.83331H11.4666C11.1932 1.83331 10.9666 1.60665 10.9666 1.33331C10.9666 1.05998 11.1932 0.833313 11.4666 0.833313H14.6666C14.9399 0.833313 15.1666 1.05998 15.1666 1.33331V4.53331C15.1666 4.80665 14.9399 5.03331 14.6666 5.03331Z" fill="#292D32"/>
<path d="M9.99992 15.1666H5.99992C2.37992 15.1666 0.833252 13.62 0.833252 9.99998V5.99998C0.833252 2.37998 2.37992 0.833313 5.99992 0.833313H7.33325C7.60659 0.833313 7.83325 1.05998 7.83325 1.33331C7.83325 1.60665 7.60659 1.83331 7.33325 1.83331H5.99992C2.92658 1.83331 1.83325 2.92665 1.83325 5.99998V9.99998C1.83325 13.0733 2.92658 14.1666 5.99992 14.1666H9.99992C13.0733 14.1666 14.1666 13.0733 14.1666 9.99998V8.66665C14.1666 8.39331 14.3933 8.16665 14.6666 8.16665C14.9399 8.16665 15.1666 8.39331 15.1666 8.66665V9.99998C15.1666 13.62 13.6199 15.1666 9.99992 15.1666Z" fill="#292D32"/>
</svg>
