<svg width="16" height="16" viewBox="0 0 16 16" fill="none" xmlns="http://www.w3.org/2000/svg">
<g id="vuesax/bulk/tick-circle">
<g id="tick-circle">
<path id="Vector" d="M8.00016 14.6666C11.6821 14.6666 14.6668 11.6818 14.6668 7.99992C14.6668 4.31802 11.6821 1.33325 8.00016 1.33325C4.31826 1.33325 1.3335 4.31802 1.3335 7.99992C1.3335 11.6818 4.31826 14.6666 8.00016 14.6666Z" fill="#2B5B00"/>
<path id="Vector_2" d="M7.05346 10.3867C6.92012 10.3867 6.79346 10.3334 6.70012 10.2401L4.81346 8.3534C4.62012 8.16006 4.62012 7.84007 4.81346 7.64673C5.00679 7.4534 5.32679 7.4534 5.52012 7.64673L7.05346 9.18007L10.4801 5.7534C10.6735 5.56007 10.9935 5.56007 11.1868 5.7534C11.3801 5.94673 11.3801 6.26673 11.1868 6.46006L7.40679 10.2401C7.31346 10.3334 7.18679 10.3867 7.05346 10.3867Z" fill="white"/>
</g>
</g>
</svg>
