<svg width="16" height="16" viewBox="0 0 16 16" fill="none" xmlns="http://www.w3.org/2000/svg">
<path d="M7.99992 15.1666C4.04659 15.1666 0.833252 11.9533 0.833252 7.99998C0.833252 4.04665 4.04659 0.833313 7.99992 0.833313C11.9533 0.833313 15.1666 4.04665 15.1666 7.99998C15.1666 11.9533 11.9533 15.1666 7.99992 15.1666ZM7.99992 1.83331C4.59992 1.83331 1.83325 4.59998 1.83325 7.99998C1.83325 11.4 4.59992 14.1666 7.99992 14.1666C11.3999 14.1666 14.1666 11.4 14.1666 7.99998C14.1666 4.59998 11.3999 1.83331 7.99992 1.83331Z" fill="#111113" fill-opacity="0.6"/>
<path d="M7.05321 10.3867C6.91988 10.3867 6.79321 10.3333 6.69988 10.24L4.81321 8.35334C4.61988 8.16 4.61988 7.84 4.81321 7.64667C5.00655 7.45334 5.32655 7.45334 5.51988 7.64667L7.05321 9.18L10.4799 5.75334C10.6732 5.56 10.9932 5.56 11.1865 5.75334C11.3799 5.94667 11.3799 6.26667 11.1865 6.46L7.40655 10.24C7.31321 10.3333 7.18655 10.3867 7.05321 10.3867Z" fill="#111113" fill-opacity="0.6"/>
</svg>
