<svg width="18" height="18" viewBox="0 0 18 18" fill="none" xmlns="http://www.w3.org/2000/svg">
<path d="M1.775 9.9375C1.775 13.9227 5.01477 17.1625 9 17.1625C12.9852 17.1625 16.225 13.9227 16.225 9.9375C16.225 5.95227 12.9852 2.7125 9 2.7125C5.01477 2.7125 1.775 5.95227 1.775 9.9375ZM3.1 9.9375C3.1 6.68523 5.74773 4.0375 9 4.0375C12.2523 4.0375 14.9 6.68523 14.9 9.9375C14.9 13.1898 12.2523 15.8375 9 15.8375C5.74773 15.8375 3.1 13.1898 3.1 9.9375Z" fill="#737373" stroke="#737373" stroke-width="0.2"/>
<path d="M8.3375 9.75C8.3375 10.1127 8.63727 10.4125 9 10.4125C9.36273 10.4125 9.6625 10.1127 9.6625 9.75V6C9.6625 5.63727 9.36273 5.3375 9 5.3375C8.63727 5.3375 8.3375 5.63727 8.3375 6V9.75Z" fill="#737373" stroke="#737373" stroke-width="0.2"/>
<path d="M6.75 2.1625H11.25C11.6127 2.1625 11.9125 1.86273 11.9125 1.5C11.9125 1.13727 11.6127 0.8375 11.25 0.8375H6.75C6.38727 0.8375 6.0875 1.13727 6.0875 1.5C6.0875 1.86273 6.38727 2.1625 6.75 2.1625Z" fill="#737373" stroke="#737373" stroke-width="0.2"/>
</svg>
