<svg width="535" height="357" viewBox="0 0 535 357" fill="none" xmlns="http://www.w3.org/2000/svg">
<path d="M270.125 172.305L270.146 172.312L270.139 172.292L270.125 172.298V172.305Z" fill="#F5F5F5"/>
<path d="M270.217 172.477L270.225 172.492L270.217 172.477Z" fill="#F5F5F5"/>
<path d="M270.26 172.384L270.268 172.405L270.282 172.377L270.26 172.384Z" fill="#F5F5F5"/>
<path d="M303.723 103.148L303.873 103.226L358.293 12.6973L328.782 12.8399C328.782 12.8399 310.835 12.7044 305.599 12.8399L283.065 96.5353L283.379 96.5853L270.439 171.485L303.723 103.148Z" fill="#F5F5F5"/>
<path d="M506.659 10.8926H447.167L321.856 115.482L321.998 115.603L270.403 172.127L508.328 12.84C507.869 12.1136 507.306 11.4577 506.659 10.8926Z" fill="#F5F5F5"/>
<path d="M524.057 111.808L271.502 174.053L270.353 172.676L270.988 174.16L270.696 174.232L270.446 174.153L270.589 174.067L270.367 174.125L270.56 173.754L270.332 174.003V174.103L270.203 172.898L270.075 173.989L269.997 173.889L270.039 174.003L269.804 173.925L269.369 173.518L269.811 172.805L269.248 173.425L268.884 173.076L269.79 172.527L268.627 172.841L102.078 15.9072H32.0998L206.867 131.132L268.27 172.926L265.916 173.561L10.9424 129.391V170.051L170.487 175.48L169.524 177.62L262.093 174.595L196.167 192.315C196.167 192.222 196.124 192.136 196.095 192.043L10.9424 265.995V314.794L217.224 204.52L266.615 174.431L268.349 174.381L112.357 345.253H165.272L268.848 174.339L270.018 174.303L249.338 345.253H288.286L270.353 174.41L270.524 174.567L270.346 174.346L271.395 175.059L300.213 242.954L300.064 243.018L365.077 345.253H417.064L318.753 231.655C318.731 231.668 318.711 231.685 318.696 231.705L273.506 176.5L333.555 217.367C333.52 217.409 333.489 217.454 333.462 217.502L514.121 347.251H524.057V303.445L343.163 197.665L343.12 197.786L272.236 174.959L271.609 174.189L524.057 153.695V111.808ZM268.67 174.053L267.585 173.868L268.655 173.211L269.133 173.54L268.67 174.053ZM270.032 174.26H269.954L269.012 174.096L269.29 173.632L269.69 173.911L269.419 173.818L270.025 174.232L270.032 174.26ZM270.346 174.36V174.274H270.703L270.389 174.36H271.102L270.788 174.26H271.059L271.223 174.645L270.346 174.36Z" fill="#F5F5F5"/>
<path d="M240.215 101.614L270.068 171.977L261.266 96.0075L250.844 12.6973C250.844 12.6973 195.454 12.8399 198.699 12.8399L240.215 101.614Z" fill="#F5F5F5"/>
<path d="M270.01 172.555L269.918 173.126L270.16 172.627L270.139 172.42L270.01 172.555Z" fill="#F5F5F5"/>
<path d="M270.232 172.384L270.247 172.399V172.384H270.232Z" fill="#F5F5F5"/>
<path d="M412.82 111.95C414.717 110.032 517.801 45.2109 517.801 45.2109L519.549 58.9711L412.82 111.95Z" fill="#EBEBEB"/>
<path d="M207.124 74.2721L167.733 17.2197H154.009L207.124 74.2721Z" fill="#EBEBEB"/>
<path d="M19.7517 54.5986V70.9126L90.4074 102.563L19.7517 54.5986Z" fill="#EBEBEB"/>
<path d="M35.7666 334.924C37.9066 333.862 91.3495 303.581 91.3495 303.581L53.3003 340.767L35.7666 334.924Z" fill="#EBEBEB"/>
<path d="M139.535 80.7565L133.607 77.5536L127.601 80.6209L128.821 73.9869L124.049 69.229L130.725 68.3373L133.778 62.3311L136.696 68.4087L143.351 69.4501L138.472 74.1011L139.535 80.7565Z" fill="#E0E0E0"/>
<path d="M311.056 46.0102L305.128 42.8073L299.122 45.8746L300.342 39.2406L295.57 34.4827L302.246 33.591L305.3 27.5776L308.217 33.6552L314.873 34.7038L309.993 39.3548L311.056 46.0102Z" fill="#E0E0E0"/>
<path d="M147.545 311.655L141.618 308.445L135.611 311.52L136.831 304.886L132.059 300.128L138.736 299.236L141.789 293.223L144.706 299.3L151.362 300.349L146.482 305L147.545 311.655Z" fill="#E0E0E0"/>
<path d="M401.25 309.208L395.315 305.998L389.316 309.066L390.528 302.439L385.756 297.681L392.44 296.789L395.493 290.776L398.403 296.853L405.066 297.902L400.18 302.546L401.25 309.208Z" fill="#E0E0E0"/>
<path d="M95.9076 85.5359L92.8331 83.8738L89.723 85.4646L90.3578 82.0263L87.8826 79.5582L91.3422 79.0945L92.9258 75.9844L94.4381 79.1302L97.8835 79.6723L95.3583 82.0834L95.9076 85.5359Z" fill="#E0E0E0"/>
<path d="M180.109 326.057L177.035 324.395L173.924 325.986L174.552 322.548L172.077 320.08L175.544 319.616L177.127 316.506L178.632 319.659L182.085 320.194L179.553 322.605L180.109 326.057Z" fill="#E0E0E0"/>
<path d="M365.098 272.622L362.023 270.96L358.913 272.543L359.548 269.112L357.073 266.644L360.532 266.18L362.116 263.07L363.628 266.216L367.081 266.758L364.548 269.169L365.098 272.622Z" fill="#E0E0E0"/>
<path d="M438.678 84.1092L435.604 82.4471L432.494 84.0378L433.129 80.6067L430.653 78.1386L434.113 77.6749L435.697 74.5576L437.209 77.7106L440.662 78.2527L438.129 80.6638L438.678 84.1092Z" fill="#E0E0E0"/>
<path d="M512.188 104.496H389.758V274.669H512.188V104.496Z" fill="white"/>
<path d="M512.188 104.496H389.758V166.092H512.188V104.496Z" fill="#455A64"/>
<path d="M490.987 181.186C490.987 181.293 474.152 181.379 453.394 181.379C432.636 181.379 415.802 181.293 415.802 181.186C415.802 181.079 432.629 181.001 453.394 181.001C474.159 181.001 490.987 181.065 490.987 181.186Z" fill="#263238"/>
<path d="M490.987 197.757C490.987 197.857 474.152 197.943 453.394 197.943C432.636 197.943 415.802 197.857 415.802 197.757C415.802 197.657 432.629 197.572 453.394 197.572C474.159 197.572 490.987 197.657 490.987 197.757Z" fill="#263238"/>
<path d="M490.987 214.349C490.987 214.449 474.152 214.535 453.394 214.535C432.636 214.535 415.802 214.449 415.802 214.349C415.802 214.249 432.629 214.157 453.394 214.157C474.159 214.157 490.987 214.242 490.987 214.349Z" fill="#263238"/>
<path d="M490.673 233.474H417.136C409.902 233.474 404.039 239.338 404.039 246.571V247.933C404.039 255.167 409.902 261.03 417.136 261.03H490.673C497.906 261.03 503.77 255.167 503.77 247.933V246.571C503.77 239.338 497.906 233.474 490.673 233.474Z" fill="#455A64"/>
<path d="M426.466 146.597C426.989 146.808 427.433 147.176 427.737 147.65C428.041 148.124 428.19 148.681 428.164 149.244C428.179 149.805 428.028 150.359 427.729 150.834C427.417 151.296 426.979 151.657 426.466 151.876C425.86 152.133 425.206 152.26 424.548 152.247H423.121V154.387H420.817V146.233H424.541C425.201 146.214 425.858 146.338 426.466 146.597ZM425.482 150.121C425.71 149.885 425.837 149.569 425.837 149.24C425.837 148.912 425.71 148.596 425.482 148.359C425.176 148.127 424.795 148.015 424.412 148.045H423.128V150.428H424.433C424.808 150.451 425.179 150.342 425.482 150.121Z" fill="white"/>
<path d="M432.843 152.211H431.566V154.351H429.284V146.233H432.993C433.652 146.217 434.307 146.343 434.912 146.604C435.284 146.781 435.615 147.033 435.885 147.345C436.154 147.657 436.356 148.021 436.477 148.414C436.599 148.808 436.637 149.223 436.59 149.632C436.543 150.041 436.411 150.436 436.203 150.792C435.912 151.238 435.502 151.594 435.019 151.819L436.774 154.38H434.306L432.843 152.211ZM433.942 148.359C433.636 148.127 433.255 148.015 432.872 148.045H431.566V150.428H432.85C433.232 150.456 433.611 150.347 433.92 150.121C434.148 149.884 434.276 149.569 434.276 149.24C434.276 148.911 434.148 148.596 433.92 148.359H433.942Z" fill="white"/>
<path d="M444.406 152.596V154.373H437.865V146.233H444.285V148.017H440.176V149.386H443.793V151.113H440.176V152.603L444.406 152.596Z" fill="white"/>
<path d="M453.067 154.373V150.093L450.97 153.609H449.95L447.867 150.207V154.408H445.727V146.233H447.624L450.477 150.934L453.267 146.233H455.164V154.38L453.067 154.373Z" fill="white"/>
<path d="M456.819 146.233H459.123V154.38H456.819V146.233Z" fill="white"/>
<path d="M461.698 153.545C461.347 153.171 461.077 152.73 460.904 152.248C460.731 151.765 460.659 151.253 460.692 150.742V146.233H462.996V150.677C462.996 151.983 463.51 152.632 464.544 152.632C465.578 152.632 466.078 151.983 466.078 150.677V146.233H468.346V150.749C468.379 151.26 468.307 151.773 468.134 152.255C467.961 152.737 467.691 153.179 467.34 153.552C466.54 154.194 465.545 154.544 464.519 154.544C463.493 154.544 462.498 154.194 461.698 153.552V153.545Z" fill="white"/>
<path d="M477.263 154.373V150.093L475.173 153.609H474.146L472.063 150.207V154.408H469.923V146.233H471.82L474.673 150.934L477.463 146.233H479.36V154.38L477.263 154.373Z" fill="white"/>
<path d="M435.226 250.037C434.611 249.71 434.102 249.215 433.756 248.611C433.401 247.997 433.214 247.301 433.214 246.592C433.214 245.883 433.401 245.187 433.756 244.573C434.109 243.983 434.617 243.502 435.226 243.182C435.884 242.834 436.621 242.66 437.366 242.676C437.976 242.664 438.582 242.784 439.142 243.025C439.662 243.243 440.122 243.583 440.483 244.017L439.356 245.058C439.126 244.776 438.835 244.55 438.505 244.395C438.176 244.241 437.815 244.163 437.451 244.167C437.013 244.161 436.58 244.269 436.196 244.481C435.834 244.68 435.535 244.976 435.333 245.337C435.127 245.723 435.022 246.154 435.026 246.592C435.02 247.03 435.126 247.462 435.333 247.848C435.533 248.211 435.832 248.511 436.196 248.711C436.581 248.92 437.013 249.026 437.451 249.017C437.816 249.021 438.177 248.943 438.507 248.787C438.837 248.631 439.127 248.403 439.356 248.119L440.483 249.16C440.122 249.597 439.663 249.942 439.142 250.166C438.575 250.4 437.965 250.517 437.352 250.508C436.614 250.535 435.883 250.373 435.226 250.037Z" fill="white"/>
<path d="M446.789 245.151C447.026 245.409 447.209 245.713 447.324 246.044C447.439 246.376 447.485 246.727 447.459 247.077V250.38H445.769V247.305C445.797 246.938 445.691 246.573 445.469 246.278C445.356 246.161 445.219 246.07 445.068 246.011C444.916 245.952 444.754 245.926 444.592 245.936C444.404 245.926 444.216 245.956 444.04 246.024C443.864 246.091 443.705 246.195 443.572 246.328C443.298 246.657 443.163 247.079 443.194 247.505V250.358H441.503V242.383H443.194V245.194C443.425 244.966 443.702 244.791 444.007 244.68C444.338 244.557 444.688 244.497 445.041 244.502C445.361 244.487 445.681 244.536 445.981 244.648C446.282 244.759 446.556 244.931 446.789 245.151Z" fill="white"/>
<path d="M450.171 250.116C449.698 249.873 449.303 249.502 449.029 249.046C448.758 248.575 448.616 248.041 448.616 247.498C448.616 246.955 448.758 246.421 449.029 245.95C449.304 245.497 449.699 245.129 450.171 244.887C450.683 244.634 451.247 244.502 451.818 244.502C452.39 244.502 452.954 244.634 453.466 244.887C453.935 245.13 454.328 245.498 454.6 245.95C454.871 246.421 455.014 246.955 455.014 247.498C455.014 248.041 454.871 248.575 454.6 249.046C454.329 249.501 453.936 249.872 453.466 250.116C452.953 250.365 452.389 250.494 451.818 250.494C451.248 250.494 450.684 250.365 450.171 250.116ZM452.888 248.689C453.177 248.367 453.325 247.944 453.302 247.512C453.314 247.3 453.284 247.087 453.213 246.886C453.142 246.685 453.032 246.5 452.888 246.342C452.748 246.202 452.581 246.09 452.398 246.014C452.214 245.938 452.017 245.899 451.818 245.899C451.62 245.899 451.423 245.938 451.239 246.014C451.056 246.09 450.889 246.202 450.748 246.342C450.603 246.499 450.491 246.683 450.418 246.884C450.346 247.085 450.315 247.299 450.328 247.512C450.316 247.727 450.347 247.941 450.419 248.143C450.492 248.345 450.603 248.531 450.748 248.689C451.035 248.968 451.419 249.124 451.818 249.124C452.218 249.124 452.602 248.968 452.888 248.689Z" fill="white"/>
<path d="M457.246 250.116C456.775 249.871 456.38 249.501 456.105 249.046C455.839 248.574 455.699 248.04 455.699 247.498C455.699 246.956 455.839 246.423 456.105 245.95C456.38 245.497 456.775 245.129 457.246 244.887C457.758 244.625 458.327 244.493 458.901 244.502C459.472 244.491 460.036 244.624 460.542 244.887C461.014 245.129 461.409 245.497 461.683 245.95C461.95 246.423 462.09 246.956 462.09 247.498C462.09 248.04 461.95 248.574 461.683 249.046C461.408 249.501 461.013 249.871 460.542 250.116C460.034 250.374 459.471 250.503 458.901 250.494C458.327 250.503 457.76 250.373 457.246 250.116ZM459.964 248.689C460.254 248.368 460.406 247.945 460.385 247.512C460.396 247.299 460.364 247.086 460.292 246.885C460.22 246.684 460.108 246.5 459.964 246.342C459.828 246.199 459.662 246.086 459.479 246.009C459.296 245.933 459.1 245.896 458.901 245.9C458.702 245.895 458.504 245.932 458.32 246.008C458.135 246.084 457.969 246.198 457.831 246.342C457.685 246.498 457.571 246.682 457.498 246.884C457.424 247.085 457.392 247.299 457.403 247.512C457.393 247.727 457.425 247.942 457.498 248.144C457.572 248.346 457.685 248.532 457.831 248.689C457.97 248.832 458.136 248.945 458.32 249.02C458.505 249.095 458.703 249.131 458.901 249.124C459.101 249.129 459.3 249.091 459.484 249.013C459.668 248.936 459.834 248.821 459.971 248.675L459.964 248.689Z" fill="white"/>
<path d="M463.767 250.316C463.375 250.231 463.001 250.079 462.661 249.866L463.225 248.654C463.515 248.838 463.833 248.975 464.166 249.06C464.518 249.164 464.883 249.216 465.25 249.217C465.964 249.217 466.32 249.046 466.32 248.689C466.318 248.606 466.288 248.526 466.235 248.461C466.182 248.397 466.109 248.351 466.028 248.333C465.736 248.239 465.434 248.177 465.129 248.147C464.731 248.092 464.338 248.009 463.952 247.897C463.643 247.807 463.364 247.635 463.146 247.398C462.905 247.118 462.782 246.754 462.804 246.385C462.798 246.033 462.911 245.689 463.125 245.408C463.364 245.101 463.686 244.869 464.052 244.737C464.509 244.574 464.993 244.494 465.479 244.502C465.891 244.501 466.303 244.547 466.706 244.638C467.06 244.71 467.401 244.835 467.719 245.008L467.155 246.214C466.645 245.923 466.066 245.773 465.479 245.779C465.199 245.762 464.92 245.813 464.665 245.929C464.589 245.963 464.522 246.017 464.475 246.087C464.427 246.156 464.399 246.237 464.394 246.321C464.395 246.407 464.424 246.491 464.476 246.56C464.529 246.628 464.603 246.677 464.687 246.699C464.989 246.796 465.299 246.866 465.614 246.906C466.008 246.967 466.399 247.051 466.784 247.156C467.087 247.246 467.36 247.416 467.576 247.648C467.811 247.926 467.931 248.283 467.911 248.647C467.917 248.995 467.803 249.334 467.59 249.61C467.34 249.911 467.012 250.138 466.641 250.266C466.167 250.43 465.667 250.507 465.165 250.494C464.693 250.494 464.223 250.434 463.767 250.316Z" fill="white"/>
<path d="M474.638 247.976H470.236C470.306 248.324 470.508 248.631 470.8 248.832C471.127 249.05 471.513 249.16 471.906 249.146C472.18 249.148 472.453 249.102 472.712 249.01C472.954 248.912 473.175 248.767 473.361 248.582L474.26 249.552C473.955 249.877 473.582 250.13 473.167 250.293C472.753 250.456 472.307 250.525 471.863 250.494C471.259 250.505 470.661 250.375 470.115 250.116C469.632 249.877 469.226 249.506 468.945 249.046C468.679 248.575 468.539 248.043 468.539 247.502C468.539 246.96 468.679 246.428 468.945 245.957C469.211 245.505 469.596 245.135 470.058 244.887C470.543 244.641 471.08 244.513 471.624 244.513C472.168 244.513 472.704 244.641 473.19 244.887C473.646 245.129 474.025 245.495 474.281 245.943C474.551 246.432 474.686 246.983 474.673 247.541C474.673 247.541 474.666 247.691 474.638 247.976ZM470.693 246.1C470.426 246.326 470.255 246.645 470.215 246.992H473.068C473.026 246.647 472.856 246.331 472.59 246.107C472.324 245.886 471.987 245.77 471.642 245.779C471.297 245.768 470.96 245.882 470.693 246.1Z" fill="white"/>
<path d="M408.155 184.261C407.893 184.264 407.639 184.17 407.442 183.997L405.345 182.15C405.132 181.961 405.003 181.695 404.986 181.41C404.97 181.126 405.066 180.847 405.256 180.634C405.445 180.421 405.711 180.292 405.995 180.275C406.279 180.259 406.559 180.356 406.771 180.545L408.077 181.693L411.03 178.426C411.224 178.233 411.484 178.121 411.757 178.114C412.031 178.106 412.297 178.204 412.501 178.387C412.704 178.569 412.83 178.823 412.853 179.096C412.875 179.369 412.792 179.639 412.621 179.853L408.954 183.897C408.854 184.011 408.731 184.102 408.594 184.165C408.456 184.228 408.307 184.261 408.155 184.261Z" fill="#455A64"/>
<path d="M408.155 200.846C407.893 200.849 407.639 200.755 407.441 200.582L405.344 198.742C405.238 198.648 405.152 198.534 405.09 198.407C405.028 198.28 404.992 198.142 404.983 198.001C404.966 197.716 405.062 197.436 405.251 197.222C405.441 197.008 405.707 196.879 405.992 196.861C406.277 196.844 406.557 196.94 406.771 197.13L408.076 198.278L411.03 195.018C411.121 194.905 411.234 194.811 411.362 194.743C411.491 194.674 411.632 194.633 411.777 194.621C411.922 194.609 412.067 194.627 412.205 194.674C412.343 194.72 412.47 194.794 412.578 194.891C412.687 194.988 412.774 195.106 412.835 195.238C412.896 195.37 412.93 195.514 412.934 195.659C412.938 195.804 412.912 195.949 412.858 196.084C412.804 196.219 412.723 196.342 412.62 196.445L408.954 200.489C408.854 200.603 408.731 200.693 408.593 200.755C408.455 200.817 408.306 200.848 408.155 200.846Z" fill="#455A64"/>
<path d="M408.155 217.438C407.893 217.441 407.639 217.347 407.442 217.174L405.345 215.327C405.132 215.137 405.003 214.871 404.986 214.587C404.97 214.303 405.066 214.024 405.256 213.811C405.445 213.598 405.711 213.469 405.995 213.452C406.279 213.436 406.559 213.532 406.771 213.722L408.077 214.87L411.03 211.603C411.224 211.41 411.484 211.298 411.757 211.29C412.031 211.283 412.297 211.381 412.501 211.563C412.704 211.746 412.83 212 412.853 212.273C412.875 212.545 412.792 212.816 412.621 213.03L408.954 217.074C408.854 217.188 408.731 217.279 408.594 217.342C408.456 217.405 408.307 217.437 408.155 217.438Z" fill="#455A64"/>
<path d="M458.267 120.953L460.028 124.526L463.98 125.104L461.12 127.886L461.798 131.817L458.267 129.962L454.736 131.817L455.406 127.886L452.553 125.104L456.497 124.526L458.267 120.953Z" fill="white"/>
<path d="M444.392 120.953L446.161 124.526L450.106 125.104L447.253 127.886L447.923 131.817L444.392 129.962L440.861 131.817L441.539 127.886L438.678 125.104L442.63 124.526L444.392 120.953Z" fill="white"/>
<path d="M455.613 135.69L450.969 133.186L446.283 135.583L447.232 130.404L443.501 126.681L448.722 125.982L451.105 121.281L453.388 126.032L458.595 126.852L454.779 130.49L455.613 135.69Z" fill="white"/>
<path d="M442.58 126.367L448.444 125.589L451.119 120.318L453.673 125.646L459.515 126.567L455.235 130.64L456.169 136.482L450.969 133.671L445.705 136.361L446.768 130.547L442.58 126.367ZM457.675 127.137L453.102 126.424L451.098 122.244L449 126.374L444.407 126.973L447.681 130.24L446.853 134.82L450.976 132.68L455.049 134.884L454.336 130.312L457.675 127.137Z" fill="#455A64"/>
<path d="M512.174 274.669C512.174 273.171 512.102 205.083 512.002 104.496L512.174 104.667H389.758L389.944 104.482C389.944 168.154 389.944 227.068 389.944 274.655L389.794 274.505L512.223 274.655L389.794 274.804H389.637V274.655C389.637 227.068 389.637 168.154 389.637 104.482V104.296H389.837H512.252H512.416V104.46C512.252 205.083 512.174 273.207 512.174 274.669Z" fill="#263238"/>
<path d="M413.241 82.8465C413.616 82.1552 413.849 81.396 413.927 80.6134C414.004 79.8308 413.925 79.0405 413.693 78.2891C413.461 77.5376 413.081 76.84 412.576 76.2372C412.071 75.6344 411.451 75.1385 410.751 74.7787C410.975 72.8466 410.446 70.9025 409.275 69.3498C408.103 67.7971 406.379 66.7551 404.46 66.4398C402.619 66.2187 400.758 66.7038 398.91 66.5611C397.062 66.4184 395.465 65.7051 393.71 65.3841C391.955 65.0631 389.936 65.2486 388.716 66.5611C387.383 67.9878 387.582 70.406 388.645 72.0823C389.708 73.7586 391.42 74.8714 393.082 75.9414C392.584 75.9405 392.102 76.121 391.726 76.4491C391.351 76.7772 391.108 77.2306 391.042 77.7248C390.938 78.7383 391.212 79.7546 391.812 80.5781C392.719 81.9672 393.991 83.0793 395.488 83.7916C396.986 84.504 398.652 84.7892 400.301 84.6156L404.959 84.48C405.607 84.9248 406.338 85.2357 407.108 85.3944C407.878 85.5531 408.672 85.5565 409.443 85.4044C410.215 85.2522 410.948 84.9476 411.6 84.5084C412.252 84.0691 412.81 83.5041 413.241 82.8465Z" fill="#263238"/>
<path d="M398.525 87.4472C398.046 87.4897 397.569 87.3537 397.184 87.0653C396.8 86.7769 396.536 86.3565 396.442 85.885C396.369 85.4084 396.428 84.9209 396.613 84.4755C396.798 84.0302 397.102 83.6443 397.491 83.3598C398.287 82.8139 399.247 82.5617 400.209 82.6464C401.167 82.7276 402.109 82.9462 403.005 83.2956C404.415 83.7593 405.763 84.3916 407.021 85.1788C407.475 85.4445 407.865 85.8075 408.162 86.2416C408.31 86.4606 408.396 86.7153 408.411 86.9789C408.426 87.2425 408.37 87.5053 408.248 87.7396C407.863 88.3674 407 88.453 406.265 88.453C403.507 88.4656 400.754 88.2268 398.04 87.7396" fill="rgba(56, 152, 252, 1)"/>
<path d="M396.991 85.8778C396.442 80.6562 389.073 75.9696 385.892 76.8042C385.082 75.2978 383.723 74.161 382.097 73.6298C380.471 73.0985 378.704 73.2135 377.16 73.9508L368.486 70.106C367.003 69.4497 365.447 68.772 363.835 68.9147C362.223 69.0574 360.583 70.3414 360.64 71.9464C357.508 70.698 353.592 73.8581 354.163 77.1894C353.696 77.2957 353.255 77.4964 352.869 77.7792C352.482 78.0621 352.158 78.421 351.915 78.834C351.673 79.2469 351.517 79.7052 351.458 80.1805C351.399 80.6558 351.439 81.1381 351.573 81.5978C347.684 82.5607 343.988 84.182 340.645 86.3914C339.218 87.3116 337.841 88.4458 337.385 90.0508C336.928 91.6558 337.948 93.753 339.618 93.7672C338.87 94.0166 338.21 94.4763 337.716 95.0911C337.223 95.7059 336.917 96.4499 336.836 97.234C335.545 96.3352 333.733 98.0116 333.932 99.5738C334.132 101.136 335.466 102.263 336.75 103.14C338.034 104.018 339.454 104.974 339.967 106.457C339.843 106.606 339.689 106.727 339.516 106.814C339.343 106.901 339.155 106.952 338.961 106.964C335.495 107.135 332.648 109.725 332.606 113.191C332.606 113.512 332.606 113.812 332.606 114.076C332.606 115.659 333.69 117.942 334.389 119.355C336.151 122.921 338.063 123.913 340.916 126.716C338.533 128.143 340.374 136.503 349.597 136.375C359.099 148.244 366.753 155.72 378.987 164.744C380.734 166.035 383.01 167.34 384.936 166.342C386.077 167.768 388.089 168.225 389.893 167.968C391.679 167.601 393.389 166.932 394.951 165.992C396.785 166.661 398.781 166.746 400.665 166.235C402.549 165.724 404.228 164.643 405.473 163.139C407.091 163.083 408.681 162.69 410.14 161.986C411.599 161.283 412.895 160.283 413.947 159.052C417.549 160.314 421.972 157.682 422.585 153.916C424.606 149.833 425.937 145.443 426.523 140.926C428.849 141.96 431.588 139.813 432.144 137.323C432.701 134.834 431.759 132.33 430.832 129.926C432.044 131.424 434.734 130.497 435.483 128.728C436.232 126.959 435.639 124.919 434.89 123.142C433.802 120.538 432.401 118.075 430.717 115.809C431.937 112.649 430.767 107.164 429.155 104.182C422.65 92.148 416.536 85.8278 397.005 85.8136" fill="#263238"/>
<path d="M375.969 94.8088C376.634 93.7417 377.677 92.9646 378.889 92.6327C380.102 92.3008 381.395 92.4385 382.511 93.0184L408.455 102.006C416.073 105.93 415.053 117.807 410.809 125.254C406.093 133.529 400.016 143.444 395.187 148.751C385.471 159.451 373.872 153.787 373.872 153.787L368.165 162.39L361.567 172.455C358.557 169.659 340.31 150.028 340.31 150.028L375.969 94.8088Z" fill="#FFBF9D"/>
<path d="M386.976 134.734C387.026 134.634 388.167 135.126 389.965 136.004C390.414 136.239 390.864 136.418 391.121 136.175C391.441 135.765 391.63 135.268 391.663 134.748C391.934 133.474 392.219 132.135 392.519 130.732C393.781 125.026 394.987 120.482 395.215 120.532C395.443 120.582 394.609 125.24 393.346 130.925C393.025 132.352 392.719 133.65 392.419 134.927C392.351 135.607 392.046 136.241 391.556 136.717C391.398 136.825 391.217 136.895 391.028 136.922C390.839 136.949 390.646 136.933 390.464 136.874C390.191 136.786 389.93 136.664 389.687 136.51C387.961 135.533 386.919 134.82 386.976 134.734Z" fill="#263238"/>
<path d="M373.872 153.78C373.872 153.78 366.981 150.214 362.166 140.227C362.166 140.227 358.264 150.364 371.14 157.896L373.872 153.78Z" fill="#FF9A6C"/>
<path d="M393.047 112.064C392.59 112.407 391.085 111.116 389.002 110.081C386.919 109.047 385.015 108.548 385.022 107.984C385.022 107.713 385.578 107.471 386.491 107.449C387.679 107.471 388.847 107.762 389.906 108.301C390.965 108.84 391.887 109.612 392.604 110.559C393.09 111.315 393.218 111.9 393.047 112.064Z" fill="#263238"/>
<path d="M408.518 122.879C407.983 123.064 407.092 121.93 405.751 121.017C404.409 120.104 403.076 119.59 403.061 119.055C403.061 118.791 403.496 118.535 404.238 118.513C405.194 118.518 406.125 118.822 406.899 119.383C407.692 119.924 408.297 120.696 408.632 121.595C408.861 122.294 408.739 122.779 408.518 122.879Z" fill="#263238"/>
<path d="M411.993 134.549C413.266 132.684 413.858 130.437 413.669 128.186C413.512 126.973 413.048 125.804 413.02 124.577C412.956 121.93 414.846 119.69 415.795 117.222C416.392 115.618 416.598 113.895 416.396 112.195C416.193 110.496 415.589 108.869 414.632 107.449C413.02 105.11 410.488 103.441 409.239 100.894C408.312 99.0107 408.162 96.7994 407.099 94.9804C405.081 91.4137 400.472 90.4436 396.399 90.0869C394.202 91.9416 394.259 94.9304 394.259 97.8052C394.277 99.2424 394.605 100.659 395.221 101.958C395.836 103.256 396.725 104.407 397.826 105.331C399.552 106.758 401.949 107.856 402.291 110.06C402.648 112.379 400.408 114.39 400.38 116.73C400.344 120.083 404.524 121.816 405.879 124.883C406.921 127.244 406.122 129.962 405.665 132.509C405.209 135.055 405.366 138.173 407.534 139.585C409.207 138.082 410.703 136.392 411.993 134.549Z" fill="#263238"/>
<path d="M397.962 97.4555C392.728 93.5572 386.788 90.7108 380.471 89.0739C378.595 88.5888 376.562 88.2179 374.764 88.9526C373.187 89.5946 372.046 90.9785 371.062 92.3766C367.994 96.7351 365.911 103.291 364.642 108.484L367.709 115.617C372.581 117.636 375.855 109.076 378.259 105.331C380.184 105.714 382.178 105.55 384.014 104.856C385.85 104.163 387.455 102.968 388.645 101.407C390.396 101.494 392.143 101.184 393.757 100.5C395.37 99.8152 396.808 98.7745 397.962 97.4555Z" fill="#263238"/>
<path d="M368.793 114.012C370.42 111.416 367.723 108.741 364.677 108.484C363.008 108.341 361.111 109.09 359.377 111.829C354.726 119.12 363.008 122.294 363.158 122.087C363.308 121.88 366.889 117.044 368.793 114.012Z" fill="#FFBF9D"/>
<path d="M362.687 117.907C362.687 117.857 362.502 117.907 362.224 117.907C361.839 117.845 361.493 117.635 361.261 117.322C360.669 116.544 360.804 114.911 361.603 113.57C361.985 112.933 362.504 112.39 363.123 111.979C363.336 111.795 363.591 111.666 363.866 111.603C364.141 111.539 364.426 111.544 364.699 111.615C364.87 111.669 365.017 111.782 365.114 111.933C365.21 112.084 365.25 112.265 365.227 112.443C365.227 112.707 365.056 112.821 365.091 112.864C365.127 112.906 365.32 112.864 365.455 112.5C365.527 112.292 365.527 112.066 365.455 111.858C365.35 111.578 365.14 111.35 364.87 111.223C364.533 111.094 364.168 111.052 363.81 111.102C363.452 111.152 363.112 111.292 362.823 111.508C362.107 111.94 361.509 112.543 361.082 113.263C360.191 114.761 360.062 116.616 360.925 117.593C361.085 117.775 361.283 117.918 361.505 118.013C361.727 118.108 361.968 118.152 362.209 118.142C362.559 118.071 362.702 117.935 362.687 117.907Z" fill="#FF9A6C"/>
<path d="M359.776 120.289C359.776 120.289 359.776 120.289 359.691 120.368C359.605 120.445 359.509 120.51 359.405 120.56C358.989 120.766 358.514 120.816 358.064 120.703C357.347 120.55 356.669 120.248 356.074 119.818C355.69 119.555 355.332 119.257 355.004 118.927C354.618 118.562 354.293 118.138 354.041 117.671H354.155C353.632 118.197 352.982 118.578 352.267 118.776C351.553 118.974 350.799 118.984 350.08 118.803C349.361 118.623 348.701 118.259 348.165 117.746C347.629 117.234 347.235 116.591 347.022 115.881L347.157 115.945C346.714 116.107 346.225 116.089 345.795 115.895C345.36 115.699 344.991 115.382 344.732 114.982C344.453 114.561 344.32 114.06 344.354 113.555C344.389 113.047 344.553 112.556 344.832 112.129C345.412 111.263 346.278 110.629 347.279 110.338C348.305 110.058 349.361 109.902 350.425 109.875L350.325 110.046C350.166 109.653 350.091 109.23 350.106 108.806C350.12 108.382 350.224 107.966 350.41 107.585C350.773 106.791 351.361 106.121 352.101 105.659C352.868 105.214 353.713 104.921 354.59 104.796C355.474 104.669 356.365 104.6 357.258 104.589L357.137 104.739C357.08 104.287 357.12 103.829 357.253 103.394C357.385 102.959 357.608 102.556 357.907 102.213C358.505 101.492 359.305 100.965 360.204 100.701C361.931 100.202 363.7 100.509 365.34 100.78L365.198 100.865C365.537 99.9986 366.083 99.2282 366.788 98.6209C367.493 98.0137 368.336 97.5881 369.244 97.3813C370.151 97.1746 371.095 97.1928 371.994 97.4345C372.893 97.6762 373.718 98.134 374.4 98.768L374.207 98.8108C374.528 98.1265 375.001 97.5249 375.591 97.0524C376.181 96.58 376.872 96.2493 377.61 96.0859C378.29 95.9086 379 95.8805 379.692 96.0037C380.384 96.1268 381.041 96.3982 381.619 96.7992H381.469C381.916 96.2143 382.489 95.7383 383.147 95.4071C383.804 95.076 384.528 94.8983 385.264 94.8875C385.908 94.8571 386.551 94.957 387.155 95.1813C387.76 95.4057 388.312 95.7497 388.78 96.1929H388.645C389.144 95.5826 389.786 95.1048 390.514 94.8019C391.143 94.5183 391.816 94.3446 392.504 94.2883C393.603 94.1665 394.711 94.4178 395.65 95.0016L395.921 95.1728C396.007 95.237 396.085 95.3084 396.156 95.3726C396.298 95.4892 396.434 95.613 396.563 95.7435C396.758 95.9533 396.937 96.1774 397.098 96.414C397.212 96.6066 397.298 96.7564 397.369 96.8634L397.455 97.0204C397.414 96.9767 397.378 96.9289 397.348 96.8777L397.055 96.4426C396.89 96.2135 396.709 95.9966 396.513 95.7934C396.385 95.6658 396.25 95.5467 396.106 95.4368L395.871 95.2442L395.6 95.0801C394.671 94.534 393.588 94.3085 392.518 94.4381C391.847 94.5059 391.191 94.6842 390.578 94.966C389.877 95.2578 389.262 95.7214 388.788 96.3142L388.723 96.3926L388.659 96.3213C388.207 95.8976 387.674 95.5703 387.091 95.3594C386.509 95.1484 385.889 95.0583 385.271 95.0944C384.558 95.1133 383.859 95.2963 383.228 95.6291C382.597 95.9618 382.051 96.4355 381.633 97.0132L381.569 97.106L381.483 97.0418C380.928 96.6658 380.299 96.4143 379.637 96.3048C378.976 96.1952 378.299 96.23 377.652 96.4069C376.95 96.5634 376.293 96.8789 375.732 97.329C375.17 97.7791 374.719 98.3519 374.414 99.0034L374.343 99.1604L374.221 99.0462C373.567 98.4476 372.777 98.0166 371.919 97.7903C371.061 97.564 370.161 97.5491 369.296 97.7469C368.432 97.9446 367.628 98.3492 366.954 98.9259C366.279 99.5026 365.755 100.234 365.426 101.058V101.158H365.319C363.678 100.887 361.952 100.594 360.326 101.072C359.487 101.326 358.742 101.822 358.186 102.499C357.909 102.814 357.702 103.184 357.579 103.585C357.456 103.986 357.42 104.408 357.472 104.824V104.967H357.322C355.553 105.017 353.756 105.11 352.293 105.994C351.594 106.424 351.038 107.052 350.696 107.799C350.523 108.148 350.426 108.53 350.41 108.92C350.394 109.309 350.459 109.698 350.603 110.06L350.674 110.224H350.496C349.452 110.248 348.415 110.399 347.407 110.674C346.457 110.941 345.633 111.538 345.082 112.357C344.811 112.726 344.655 113.167 344.635 113.624C344.614 114.081 344.73 114.534 344.968 114.925C345.176 115.298 345.505 115.588 345.9 115.75C346.295 115.912 346.733 115.936 347.143 115.817L347.243 115.781L347.279 115.888C347.513 116.619 347.944 117.272 348.524 117.775C349.104 118.278 349.81 118.612 350.567 118.741C351.209 118.838 351.864 118.786 352.483 118.589C353.101 118.393 353.666 118.057 354.134 117.607L354.205 117.536L354.248 117.621C354.491 118.077 354.801 118.493 355.168 118.855C355.489 119.183 355.84 119.479 356.217 119.74C356.796 120.169 357.456 120.477 358.157 120.646C358.593 120.76 359.056 120.725 359.47 120.546C359.655 120.389 359.769 120.275 359.776 120.289Z" fill="#455A64"/>
<path d="M338.512 93.5106C338.502 93.3051 338.517 93.0992 338.555 92.8971C338.65 92.3087 338.864 91.7458 339.182 91.2422C339.68 90.4282 340.432 89.8013 341.322 89.4588C341.921 89.2364 342.559 89.1411 343.197 89.1792C343.834 89.2173 344.457 89.3878 345.025 89.68H344.91C345.538 88.321 346.657 87.2504 348.042 86.684C348.805 86.3559 349.63 86.1953 350.46 86.2132C351.329 86.294 352.189 86.4564 353.028 86.6982C353.458 86.8005 353.9 86.8389 354.341 86.8124C354.787 86.7801 355.22 86.6432 355.603 86.4129C356.402 85.9706 357.073 85.2502 357.986 84.8079C358.944 84.3748 360.011 84.2391 361.047 84.4184C362.083 84.5977 363.042 85.0837 363.799 85.8137H363.593C364.085 84.8749 364.787 84.062 365.644 83.4379C366.501 82.8138 367.491 82.3953 368.535 82.2146C369.58 82.0339 370.652 82.096 371.669 82.396C372.686 82.696 373.62 83.226 374.4 83.9448H374.2C374.778 82.9363 375.634 82.115 376.665 81.5781C377.696 81.0412 378.86 80.8113 380.017 80.9157C381.175 81.02 382.279 81.4543 383.197 82.1669C384.116 82.8796 384.811 83.8407 385.199 84.9363L385.078 84.865C386.261 84.6999 387.466 84.7924 388.609 85.136C389.633 85.4236 390.616 85.8407 391.534 86.3772C393.037 87.2256 394.375 88.337 395.486 89.6586C396.21 90.4926 396.793 91.4396 397.212 92.462C397.324 92.7304 397.414 93.007 397.483 93.2894C397.513 93.3828 397.537 93.4781 397.554 93.5748C397.554 93.5748 397.44 93.1896 397.155 92.4905C396.711 91.4884 396.117 90.5599 395.393 89.737C394.278 88.4446 392.942 87.3602 391.448 86.5342C390.54 86.0078 389.566 85.6025 388.552 85.3286C387.437 85.0037 386.265 84.9186 385.114 85.079H385.028V84.9934C384.644 83.9489 383.969 83.036 383.084 82.362C382.198 81.6879 381.138 81.2809 380.029 81.1887C378.92 81.0966 377.808 81.3231 376.823 81.8417C375.839 82.3602 375.022 83.1493 374.471 84.116L374.392 84.2586L374.271 84.1516C373.519 83.4483 372.614 82.9289 371.628 82.6342C370.641 82.3394 369.599 82.2774 368.585 82.453C367.57 82.6285 366.61 83.0369 365.78 83.646C364.949 84.2551 364.272 85.0484 363.799 85.9635L363.714 86.1204L363.593 85.992C362.872 85.3064 361.962 84.8518 360.981 84.6865C360 84.5213 358.992 84.653 358.086 85.0647C357.223 85.4713 356.552 86.1846 355.71 86.6626C355.294 86.9046 354.828 87.0485 354.348 87.0834C353.887 87.1062 353.426 87.063 352.978 86.955C352.151 86.7163 351.303 86.554 350.446 86.47C349.646 86.4445 348.85 86.5929 348.113 86.9051C346.773 87.439 345.683 88.4576 345.06 89.7584L345.017 89.844L344.939 89.8012C344.394 89.5157 343.795 89.3466 343.181 89.3049C342.567 89.2631 341.951 89.3496 341.372 89.5587C340.492 89.8775 339.74 90.4764 339.232 91.2636C338.913 91.7543 338.69 92.3015 338.576 92.8757C338.526 93.2966 338.526 93.5106 338.512 93.5106Z" fill="#455A64"/>
<path d="M404.117 143.829C404.136 143.707 404.181 143.591 404.249 143.487C404.316 143.384 404.405 143.296 404.509 143.23C404.757 143.067 405.041 142.969 405.337 142.945C405.738 142.93 406.138 142.996 406.514 143.137C406.972 143.315 407.452 143.427 407.941 143.473C408.519 143.465 409.08 143.27 409.538 142.916C410.076 142.517 410.53 142.015 410.872 141.44C411.265 140.847 411.586 140.17 412.092 139.514C413.041 138.173 414.575 137.231 415.973 136.018C416.704 135.4 417.303 134.64 417.735 133.785C417.967 133.344 418.102 132.857 418.129 132.358C418.156 131.86 418.075 131.361 417.892 130.896C417.381 129.955 416.758 129.078 416.037 128.286C415.678 127.839 415.396 127.335 415.202 126.795C415.029 126.228 415 125.628 415.117 125.047C415.418 123.91 415.839 122.808 416.372 121.759C416.614 121.227 416.775 120.662 416.85 120.082C416.909 119.504 416.776 118.923 416.472 118.427C415.959 117.805 415.372 117.246 414.724 116.765C414.405 116.493 414.133 116.17 413.918 115.81C413.711 115.44 413.608 115.021 413.619 114.597C413.692 113.801 413.88 113.021 414.175 112.278C414.421 111.567 414.511 110.81 414.439 110.06C414.379 109.346 414.171 108.651 413.828 108.021C413.485 107.391 413.016 106.84 412.449 106.401C411.378 105.582 410.038 105.197 408.697 105.323H408.54V105.167C408.762 104.019 408.737 102.838 408.466 101.702C408.195 100.565 407.686 99.4993 406.97 98.5754C406.37 97.8071 405.626 97.1627 404.78 96.6779C404.067 96.2583 403.284 95.9685 402.469 95.8219C401.318 95.627 400.135 95.7656 399.06 96.2214C398.775 96.337 398.501 96.4754 398.239 96.6351L398.032 96.7421H397.954L398.018 96.6922L398.218 96.5638C398.477 96.3938 398.752 96.2481 399.038 96.1286C400.117 95.6336 401.319 95.4697 402.491 95.6578C403.325 95.7932 404.128 96.081 404.859 96.5067C405.729 96.9944 406.497 97.646 407.12 98.4256C407.859 99.3695 408.388 100.461 408.671 101.626C408.954 102.791 408.985 104.003 408.761 105.181L408.632 105.045C410.033 104.902 411.436 105.297 412.556 106.151C413.159 106.606 413.66 107.182 414.029 107.841C414.397 108.501 414.624 109.23 414.696 109.982C414.77 110.762 414.677 111.55 414.425 112.293C414.14 113.013 413.955 113.769 413.875 114.54C413.887 114.925 413.984 115.302 414.161 115.644C414.337 115.986 414.588 116.284 414.896 116.516C415.567 117.005 416.172 117.58 416.693 118.228C417.025 118.773 417.17 119.412 417.107 120.047C417.036 120.654 416.87 121.246 416.615 121.801C416.089 122.835 415.673 123.92 415.373 125.04C415.257 125.577 415.282 126.135 415.445 126.659C415.629 127.175 415.896 127.657 416.237 128.086C416.971 128.893 417.601 129.79 418.113 130.754C418.326 131.253 418.412 131.797 418.362 132.337C418.315 132.858 418.172 133.366 417.941 133.835C417.498 134.717 416.879 135.498 416.122 136.132C414.696 137.359 413.169 138.272 412.242 139.571C411.778 140.213 411.414 140.883 411.015 141.482C410.64 142.071 410.156 142.582 409.588 142.987C409.101 143.354 408.507 143.549 407.898 143.544C407.407 143.498 406.926 143.377 406.471 143.187C406.108 143.041 405.721 142.969 405.33 142.973C405.044 142.988 404.767 143.073 404.524 143.223C404.319 143.369 404.175 143.585 404.117 143.829Z" fill="#455A64"/>
<path d="M425.553 142.809C425.544 142.748 425.544 142.685 425.553 142.624L425.646 142.089C425.732 141.611 425.86 140.926 426.024 140.048C426.188 139.171 426.416 138.087 426.559 136.817C426.783 135.392 426.6 133.934 426.031 132.608C425.689 131.895 425.182 131.182 424.733 130.468C424.496 130.078 424.311 129.659 424.184 129.22C424.048 128.756 424.028 128.266 424.127 127.793C424.319 126.83 424.904 125.996 425.182 125.054C425.325 124.589 425.325 124.092 425.182 123.627C425.008 123.143 424.755 122.69 424.433 122.286C424.092 121.858 423.791 121.4 423.535 120.917C423.283 120.396 423.199 119.811 423.292 119.24C423.604 118.133 424.065 117.072 424.662 116.088C424.927 115.586 425.084 115.034 425.125 114.468C425.134 114.187 425.086 113.906 424.986 113.643C424.885 113.38 424.734 113.139 424.54 112.935C423.756 112.072 422.536 111.679 421.63 110.795C421.183 110.332 420.891 109.741 420.795 109.104C420.724 108.495 420.724 107.88 420.795 107.271C420.845 106.672 420.91 106.079 420.902 105.502C420.909 104.938 420.774 104.381 420.51 103.882C419.954 102.891 418.855 102.413 417.842 101.992C416.778 101.642 415.804 101.062 414.989 100.294C414.31 99.4891 413.785 98.5653 413.441 97.5694C413.149 96.6367 412.769 95.7339 412.307 94.873C411.29 93.4494 409.875 92.3576 408.241 91.7344C406.899 91.2058 405.455 90.9887 404.018 91.0995C402.933 91.1944 401.869 91.4567 400.865 91.877C400.234 92.1521 399.627 92.4814 399.053 92.8614L398.596 93.1468L398.432 93.2395L398.582 93.1254L399.024 92.8115C399.593 92.4138 400.197 92.0699 400.829 91.7843C401.839 91.3405 402.913 91.0588 404.011 90.9497C405.465 90.8246 406.93 91.0345 408.291 91.5632C409.966 92.1903 411.418 93.2999 412.464 94.7518C412.973 95.5973 413.399 96.4909 413.733 97.4196C414.073 98.3861 414.585 99.2828 415.246 100.066C416.033 100.8 416.97 101.355 417.992 101.692C418.521 101.903 419.034 102.153 419.526 102.441C420.054 102.737 420.49 103.172 420.787 103.7C421.084 104.227 421.23 104.826 421.209 105.43C421.208 106.031 421.175 106.631 421.109 107.228C421.038 107.816 421.038 108.41 421.109 108.997C421.19 109.58 421.455 110.123 421.865 110.545C422.707 111.394 423.927 111.786 424.783 112.685C425.218 113.15 425.451 113.768 425.432 114.404C425.391 115.005 425.223 115.591 424.94 116.123C424.448 117.179 423.77 118.135 423.592 119.205C423.502 119.729 423.58 120.268 423.813 120.746C424.06 121.215 424.349 121.662 424.676 122.08C425.019 122.506 425.284 122.989 425.461 123.506C425.621 124.019 425.621 124.569 425.461 125.083C425.161 126.074 424.583 126.895 424.398 127.8C424.257 128.689 424.461 129.597 424.968 130.34C425.396 131.096 425.91 131.767 426.26 132.523C426.825 133.874 427 135.357 426.766 136.803C426.609 138.08 426.352 139.157 426.181 140.041C426.01 140.926 425.853 141.589 425.753 142.074C425.703 142.295 425.667 142.467 425.639 142.602C425.619 142.674 425.591 142.744 425.553 142.809Z" fill="#455A64"/>
<path d="M423.399 130.09L423.542 130.162C423.674 130.25 423.781 130.371 423.856 130.511C423.967 130.797 424.007 131.105 423.972 131.41C423.938 131.714 423.829 132.006 423.656 132.259C423.397 132.61 423.093 132.924 422.75 133.193C422.347 133.504 421.989 133.869 421.687 134.278C421.401 134.779 421.251 135.348 421.252 135.925C421.252 136.546 421.252 137.209 421.181 137.916C421.154 138.295 421.042 138.663 420.851 138.992C420.661 139.321 420.398 139.602 420.082 139.813C419.426 140.248 418.655 140.434 417.978 140.883C417.328 141.394 416.899 142.134 416.779 142.952C416.587 143.786 416.53 144.692 416.28 145.598C416.165 146.064 415.964 146.504 415.688 146.896C415.39 147.291 415.014 147.619 414.582 147.859C413.692 148.29 412.763 148.637 411.807 148.894C410.845 149.143 410.01 149.744 409.468 150.577C409.062 151.531 408.772 152.529 408.605 153.552C408.472 154.08 408.244 154.581 407.934 155.028C407.604 155.461 407.179 155.812 406.693 156.056C405.748 156.461 404.759 156.755 403.747 156.933C402.795 157.116 401.89 157.489 401.086 158.032C400.358 158.637 399.588 159.19 398.782 159.687C398.368 159.915 397.906 160.042 397.434 160.057C396.979 160.057 396.527 159.977 396.1 159.822C395.7 159.68 395.293 159.561 394.88 159.465C394.479 159.4 394.071 159.388 393.667 159.43C392.9 159.557 392.152 159.782 391.442 160.1C390.728 160.393 390.072 160.685 389.402 160.906C388.188 161.309 386.877 161.309 385.664 160.906C384.751 160.621 383.915 160.134 383.217 159.48C382.778 159.065 382.407 158.584 382.118 158.053C382.017 157.87 381.931 157.679 381.862 157.482C382.217 158.201 382.7 158.849 383.288 159.394C383.983 160.024 384.809 160.492 385.707 160.764C386.896 161.128 388.17 161.103 389.345 160.692C390.001 160.471 390.657 160.179 391.363 159.879C392.089 159.542 392.857 159.302 393.646 159.166C394.067 159.105 394.495 159.105 394.916 159.166C395.339 159.259 395.756 159.378 396.164 159.522C396.569 159.669 396.996 159.744 397.427 159.744C397.864 159.724 398.291 159.605 398.675 159.394C399.467 158.896 400.225 158.346 400.943 157.746C401.77 157.185 402.702 156.797 403.683 156.605C404.664 156.426 405.622 156.134 406.536 155.735C406.988 155.513 407.381 155.188 407.684 154.786C407.979 154.368 408.192 153.899 408.312 153.402C408.486 152.357 408.785 151.336 409.204 150.363C409.467 149.9 409.839 149.508 410.288 149.222C410.735 148.946 411.214 148.725 411.715 148.566C412.649 148.34 413.563 148.037 414.447 147.66C414.845 147.431 415.195 147.126 415.474 146.761C415.733 146.391 415.924 145.978 416.037 145.541C416.28 144.671 416.337 143.772 416.537 142.916C416.674 142.043 417.142 141.257 417.842 140.719C418.556 140.241 419.34 140.063 419.982 139.656C420.276 139.463 420.521 139.205 420.699 138.902C420.877 138.599 420.983 138.259 421.009 137.908C421.095 137.238 421.052 136.567 421.095 135.94C421.102 135.334 421.269 134.741 421.58 134.221C421.891 133.803 422.261 133.433 422.679 133.122C423.022 132.867 423.327 132.564 423.585 132.223C423.756 131.985 423.866 131.708 423.907 131.418C423.948 131.127 423.918 130.831 423.82 130.554C423.727 130.362 423.581 130.201 423.399 130.09Z" fill="#455A64"/>
<path d="M380.249 133.443C380.509 133.288 380.818 133.238 381.112 133.305C381.407 133.371 381.665 133.548 381.833 133.8C382.903 135.39 383.973 136.981 385.05 138.579L385.414 139.107C384.549 139.853 383.59 140.481 382.561 140.976C382.114 141.183 381.627 141.291 381.134 141.291C380.641 141.291 380.154 141.183 379.707 140.976C379.025 140.553 378.495 139.923 378.195 139.178C377.703 137.973 377.303 136.739 377.853 135.562C378.252 134.698 379.493 133.928 380.249 133.443Z" fill="#FF9A6C"/>
<path d="M356.467 116.145C355.984 116.014 355.483 115.963 354.983 115.995C353.595 116.057 352.274 116.614 351.26 117.564C350.551 118.21 350.002 119.011 349.655 119.904C349.274 120.936 349.142 122.043 349.269 123.136C349.401 124.346 349.841 125.503 350.546 126.495C351.312 127.564 352.384 128.375 353.621 128.821C354.849 129.28 356.181 129.383 357.466 129.12C358.664 128.873 359.764 128.284 360.633 127.423C361.366 126.701 361.923 125.821 362.262 124.85C362.601 123.88 362.712 122.844 362.587 121.823C362.453 121.046 362.165 120.304 361.738 119.64C361.43 119.136 361.053 118.678 360.619 118.278C360.341 118.027 360.029 117.818 359.691 117.657C359.577 117.593 359.451 117.555 359.32 117.543C359.767 117.75 360.175 118.032 360.526 118.378C361.485 119.316 362.126 120.531 362.359 121.852C362.462 122.833 362.341 123.825 362.005 124.753C361.669 125.681 361.127 126.521 360.419 127.209C359.588 128.02 358.54 128.575 357.401 128.807C356.175 129.048 354.906 128.944 353.735 128.507C352.562 128.084 351.543 127.319 350.81 126.31C350.131 125.362 349.704 124.258 349.569 123.1C349.44 122.053 349.557 120.99 349.911 119.997C350.234 119.138 350.749 118.365 351.417 117.736C352.388 116.809 353.646 116.24 354.983 116.124C355.953 116.059 356.46 116.188 356.467 116.145Z" fill="#E0E0E0"/>
<path d="M385.349 121.759C385.085 122.171 384.67 122.464 384.192 122.573C383.715 122.683 383.213 122.6 382.796 122.343C382.584 122.23 382.397 122.076 382.246 121.889C382.095 121.702 381.983 121.487 381.917 121.256C381.85 121.026 381.831 120.784 381.859 120.546C381.887 120.307 381.963 120.077 382.082 119.868C382.348 119.457 382.763 119.165 383.24 119.056C383.717 118.947 384.218 119.028 384.636 119.283C384.849 119.395 385.037 119.549 385.19 119.735C385.342 119.922 385.454 120.137 385.521 120.369C385.588 120.6 385.607 120.842 385.577 121.081C385.548 121.32 385.47 121.55 385.349 121.759Z" fill="#263238"/>
<path d="M400.259 132.166C399.992 132.576 399.577 132.867 399.1 132.976C398.624 133.085 398.123 133.004 397.705 132.751C397.493 132.637 397.306 132.482 397.155 132.295C397.004 132.107 396.892 131.892 396.825 131.66C396.759 131.429 396.739 131.187 396.768 130.948C396.796 130.709 396.872 130.478 396.992 130.269C397.258 129.859 397.673 129.569 398.15 129.46C398.627 129.35 399.127 129.431 399.545 129.684C399.757 129.798 399.944 129.953 400.095 130.141C400.246 130.328 400.358 130.544 400.425 130.775C400.491 131.006 400.511 131.249 400.482 131.487C400.454 131.726 400.378 131.957 400.259 132.166Z" fill="#263238"/>
<path d="M404.524 128.057C404.217 128.186 403.625 126.552 402.013 125.639C400.401 124.726 398.696 125.004 398.653 124.669C398.653 124.519 399.038 124.212 399.794 124.07C400.77 123.891 401.778 124.065 402.637 124.56C403.497 125.055 404.153 125.84 404.488 126.773C404.738 127.501 404.674 128.007 404.524 128.057Z" fill="#263238"/>
<path d="M389.38 118.977C389.002 119.062 388.446 117.144 386.634 115.86C384.822 114.576 382.825 114.611 382.796 114.233C382.796 114.055 383.281 113.784 384.18 113.741C385.355 113.711 386.507 114.067 387.461 114.754C388.408 115.433 389.101 116.41 389.43 117.529C389.665 118.413 389.551 118.941 389.38 118.977Z" fill="#263238"/>
<path d="M381.105 141.119C381.105 141.119 380.848 141.219 380.392 141.119C379.722 140.956 379.119 140.59 378.665 140.07C377.973 139.322 377.514 138.387 377.346 137.381C377.237 136.766 377.306 136.132 377.546 135.555C377.82 134.955 378.227 134.426 378.737 134.007C379.225 133.601 379.758 133.254 380.327 132.972C380.486 132.874 380.663 132.811 380.848 132.788C381.032 132.764 381.22 132.781 381.397 132.837C381.706 132.991 381.956 133.242 382.111 133.55L383.652 136.004C384.159 136.749 384.582 137.548 384.914 138.387C384.289 137.737 383.738 137.019 383.274 136.247C382.76 135.533 382.211 134.713 381.626 133.864C381.312 133.35 381.084 133.229 380.57 133.507C380.044 133.779 379.549 134.106 379.093 134.485C378.653 134.808 378.306 135.243 378.088 135.744C377.87 136.245 377.789 136.795 377.852 137.338C377.993 138.25 378.372 139.109 378.951 139.828C379.339 140.319 379.851 140.698 380.435 140.926C380.848 141.062 381.112 141.069 381.105 141.119Z" fill="#263238"/>
<path d="M445.726 113.37C445.456 112.499 445.083 111.663 444.614 110.88C444.03 109.993 443.285 109.223 442.417 108.612C441.275 107.807 439.936 107.326 438.543 107.221H438.322V106.993C438.459 105.141 437.867 103.308 436.674 101.885C436.021 101.046 435.191 100.361 434.243 99.8802C433.295 99.3992 432.252 99.1339 431.189 99.1033H430.91V98.8251C430.851 95.8392 429.649 92.9899 427.551 90.8643C425.908 89.2195 423.794 88.1275 421.502 87.7399C419.407 87.376 417.254 87.5931 415.274 88.3676L415.146 88.4176L415.025 88.3391C413.015 86.991 410.745 86.0775 408.362 85.657C406.508 85.3138 404.611 85.2632 402.741 85.5072C401.095 85.7575 399.479 86.1758 397.919 86.7555C397.919 86.7555 398.012 86.6842 398.211 86.5843C398.411 86.4844 398.711 86.3275 399.11 86.1706C400.26 85.715 401.456 85.3873 402.677 85.1933C404.579 84.8861 406.517 84.8861 408.419 85.1933C410.877 85.5933 413.222 86.5073 415.303 87.8754H415.053C417.118 87.0371 419.376 86.7901 421.573 87.1621C423.987 87.5531 426.217 88.6965 427.943 90.4292C430.152 92.659 431.41 95.6584 431.453 98.7966L431.174 98.5184C432.318 98.5572 433.438 98.8485 434.456 99.3714C435.473 99.8943 436.362 100.636 437.059 101.543C438.322 103.068 438.936 105.027 438.771 107L438.572 106.764C440.038 106.891 441.44 107.427 442.616 108.312C443.504 108.962 444.251 109.785 444.813 110.731C445.169 111.324 445.438 111.966 445.612 112.635C445.678 112.875 445.716 113.121 445.726 113.37Z" fill="#263238"/>
<path d="M400.03 76.6118C399.292 76.4866 398.59 76.1992 397.976 75.7701C397.103 75.2074 396.352 74.4757 395.766 73.6181C395.181 72.7605 394.773 71.7945 394.566 70.7768C394.284 69.3348 394.451 67.841 395.044 66.4968C395.718 64.9448 396.864 63.6444 398.318 62.7803C399.968 61.8503 401.912 61.5923 403.747 62.0598C405.753 62.527 407.496 63.7645 408.597 65.5052L408.276 65.3697C409.528 65.0738 410.842 65.2173 412 65.7763C412.991 66.2227 413.839 66.9366 414.447 67.8378C415.008 68.7256 415.287 69.7629 415.246 70.8124C415.219 71.7996 414.94 72.7635 414.434 73.6117C413.928 74.4598 413.213 75.1638 412.357 75.656L412.25 75.1424C413.02 75.2324 413.757 75.5104 414.395 75.952C415.033 76.3936 415.553 76.9851 415.909 77.6747C416.248 78.2871 416.451 78.9651 416.506 79.6629C416.56 80.3607 416.463 81.062 416.223 81.7193C415.826 82.7835 415.148 83.7202 414.261 84.4299C413.375 85.1395 412.312 85.5956 411.187 85.7496C409.729 85.9464 408.245 85.7263 406.907 85.1148C406.554 84.9634 406.215 84.782 405.894 84.5726C405.68 84.4228 405.573 84.3444 405.58 84.3301C405.587 84.3158 406.051 84.6012 406.971 84.9507C408.282 85.4713 409.708 85.6314 411.101 85.4144C412.15 85.2493 413.135 84.8054 413.953 84.1289C414.772 83.4525 415.393 82.5685 415.752 81.5695C415.962 80.9739 416.042 80.3402 415.985 79.7112C415.928 79.0822 415.737 78.4728 415.424 77.9244C415.105 77.3142 414.643 76.7911 414.076 76.4007C413.509 76.0104 412.855 75.7645 412.171 75.6845L411.251 75.6132L412.057 75.1709C412.825 74.7225 413.465 74.0854 413.917 73.3201C414.368 72.5548 414.617 71.6867 414.639 70.7982C414.671 69.8646 414.423 68.9429 413.926 68.1517C413.394 67.3527 412.654 66.714 411.786 66.3042C410.751 65.8038 409.575 65.6729 408.455 65.9332L408.248 65.9903L408.134 65.8048C407.116 64.1931 405.508 63.0436 403.654 62.602C401.948 62.161 400.138 62.3988 398.604 63.2654C397.23 64.0631 396.14 65.2702 395.486 66.7179C394.915 67.9694 394.736 69.3645 394.973 70.7197C395.346 72.6918 396.475 74.44 398.119 75.5918C398.72 75.9946 399.361 76.3364 400.03 76.6118Z" fill="#263238"/>
<path d="M353.571 70.7411C353.572 70.6177 353.592 70.4953 353.628 70.3773C353.707 70.0337 353.814 69.6973 353.949 69.3715C354.451 68.1281 355.221 67.0104 356.203 66.0973C357.702 64.6689 359.646 63.7978 361.71 63.6292C363.016 63.5301 364.329 63.6985 365.567 64.1241C366.806 64.5497 367.945 65.2235 368.914 66.1044L368.593 66.0616C371.025 64.7767 373.837 64.4072 376.519 65.0202C378.538 65.4981 380.384 66.5309 381.847 68.0019C383.182 69.3432 384.163 70.9954 384.701 72.8098L384.479 72.6243C386.599 72.9212 388.609 73.7507 390.322 75.0354C391.649 76.0213 392.779 77.2482 393.653 78.652C394.217 79.5577 394.654 80.5371 394.951 81.5624C395.065 81.9216 395.139 82.2925 395.172 82.668C394.734 81.3183 394.133 80.0271 393.382 78.8232C392.497 77.4851 391.372 76.3219 390.065 75.392C388.397 74.1857 386.456 73.4135 384.415 73.145H384.244L384.194 72.981C383.663 71.2614 382.717 69.6986 381.441 68.4299C380.056 67.0262 378.307 66.0378 376.39 65.5766C373.845 64.9938 371.175 65.3351 368.857 66.5396L368.679 66.6323L368.536 66.4968C367.624 65.6603 366.553 65.0163 365.386 64.6032C364.219 64.1902 362.981 64.0166 361.745 64.0928C359.775 64.2278 357.907 65.0189 356.438 66.3398C355.464 67.2015 354.675 68.2524 354.12 69.4286C353.735 70.2703 353.613 70.7554 353.571 70.7411Z" fill="#263238"/>
<path d="M309.836 124.32C309.836 124.32 310.607 122.95 316.549 123.728C322.491 124.505 346.031 140.805 346.031 140.805C346.031 140.805 341.751 157.647 354.698 160.857C364.128 163.196 369.128 160.564 369.128 160.564C369.128 160.564 384.914 180.195 386.206 188.199C386.206 188.199 310.129 241.428 322.476 235.643L309.836 235.785V124.32Z" fill="rgba(56, 152, 252, 1)"/>
<path d="M384.971 184.596C385.178 185.16 388.124 188.669 385.207 204.306C382.553 218.508 370.94 232.839 370.94 232.839L347.785 212.002L384.971 184.596Z" fill="rgba(56, 152, 252, 1)"/>
<path d="M372.894 195.731C372.788 195.86 372.669 195.977 372.538 196.081L371.475 197.008C370.533 197.8 369.164 198.934 367.445 200.304C364.013 203.043 359.22 206.76 353.891 210.811C348.563 214.863 343.691 218.494 340.16 221.133L335.965 224.201L334.81 225.021C334.683 225.125 334.544 225.214 334.396 225.285C334.51 225.167 334.634 225.059 334.767 224.964L335.88 224.086L340.003 220.926L353.663 210.547C358.999 206.496 363.814 202.815 367.281 200.126L371.382 196.923L372.488 196.052C372.614 195.934 372.75 195.826 372.894 195.731Z" fill="#263238"/>
<path d="M334.396 61.2324H165.9V295.427H334.396V61.2324Z" fill="white"/>
<path d="M334.396 61.2324H165.9V145.998H334.396V61.2324Z" fill="rgba(56, 152, 252, 1)"/>
<path d="M316.841 68.0234H286.895C282.451 68.0234 278.849 71.6259 278.849 76.0698V76.9044C278.849 81.3483 282.451 84.9508 286.895 84.9508H316.841C321.285 84.9508 324.888 81.3483 324.888 76.9044V76.0698C324.888 71.6259 321.285 68.0234 316.841 68.0234Z" fill="#263238"/>
<path d="M305.221 166.756C305.221 166.856 282.052 166.941 253.49 166.941C224.928 166.941 201.745 166.856 201.745 166.756C201.745 166.656 224.907 166.57 253.49 166.57C282.073 166.57 305.221 166.649 305.221 166.756Z" fill="#263238"/>
<path d="M305.221 189.582C305.221 189.682 282.052 189.768 253.49 189.768C224.928 189.768 201.745 189.682 201.745 189.582C201.745 189.483 224.907 189.397 253.49 189.397C282.073 189.397 305.221 189.483 305.221 189.582Z" fill="#263238"/>
<path d="M305.221 212.416C305.221 212.516 282.052 212.602 253.49 212.602C224.928 212.602 201.745 212.516 201.745 212.416C201.745 212.317 224.907 212.231 253.49 212.231C282.073 212.231 305.221 212.309 305.221 212.416Z" fill="#263238"/>
<path d="M304.793 238.731H203.578C193.627 238.731 185.56 246.798 185.56 256.75V258.64C185.56 268.592 193.627 276.659 203.578 276.659H304.793C314.745 276.659 322.812 268.592 322.812 258.64V256.75C322.812 246.798 314.745 238.731 304.793 238.731Z" fill="rgba(56, 152, 252, 1)"/>
<path d="M209.955 132.887C209.213 132.715 208.507 132.41 207.873 131.988L208.914 129.655C209.455 130.004 210.044 130.273 210.662 130.454C211.295 130.652 211.953 130.755 212.616 130.761C213.829 130.761 214.442 130.454 214.442 129.848C214.441 129.689 214.39 129.535 214.297 129.407C214.204 129.279 214.072 129.184 213.922 129.134C213.379 128.919 212.818 128.754 212.245 128.642C211.518 128.502 210.803 128.306 210.105 128.057C209.542 127.853 209.039 127.509 208.643 127.059C208.219 126.536 208.003 125.876 208.037 125.204C208.028 124.542 208.225 123.894 208.6 123.349C209.019 122.762 209.598 122.309 210.269 122.044C211.138 121.701 212.068 121.538 213.001 121.566C213.734 121.567 214.464 121.651 215.177 121.816C215.84 121.954 216.478 122.195 217.067 122.529L216.09 124.883C215.145 124.339 214.078 124.043 212.987 124.02C212.511 123.984 212.035 124.081 211.61 124.298C211.481 124.368 211.373 124.47 211.296 124.596C211.22 124.721 211.178 124.865 211.175 125.011C211.178 125.163 211.23 125.31 211.322 125.431C211.415 125.551 211.543 125.639 211.689 125.682C212.223 125.888 212.774 126.046 213.337 126.153C214.063 126.294 214.778 126.487 215.477 126.731C216.024 126.947 216.513 127.289 216.903 127.729C217.337 128.244 217.557 128.905 217.517 129.577C217.524 130.228 217.329 130.866 216.96 131.403C216.532 131.987 215.949 132.439 215.277 132.708C214.411 133.052 213.484 133.217 212.552 133.193C211.677 133.203 210.804 133.1 209.955 132.887Z" fill="white"/>
<path d="M221.247 124.305H217.802V121.787H227.846V124.305H224.414V133.001H221.247V124.305Z" fill="white"/>
<path d="M235.978 130.825H231.241L230.357 132.965H227.125L232.069 121.751H235.193L240.187 132.965H236.891L235.978 130.825ZM235.051 128.485L233.624 124.919L232.197 128.485H235.051Z" fill="white"/>
<path d="M251.721 121.787V133.001H249.11L244.16 127.03V133.001H241.057V121.787H243.668L248.611 127.765V121.787H251.721Z" fill="white"/>
<path d="M253.947 121.787H259.247C260.376 121.774 261.493 122.018 262.514 122.5C263.425 122.924 264.193 123.603 264.725 124.455C265.239 125.357 265.51 126.377 265.51 127.415C265.51 128.453 265.239 129.474 264.725 130.376C264.195 131.229 263.426 131.909 262.514 132.33C261.494 132.816 260.376 133.06 259.247 133.043H253.947V121.787ZM259.118 130.468C259.967 130.508 260.799 130.217 261.437 129.655C261.996 129.036 262.306 128.232 262.306 127.397C262.306 126.563 261.996 125.759 261.437 125.14C260.802 124.573 259.969 124.278 259.118 124.319H257.121V130.468H259.118Z" fill="white"/>
<path d="M274.541 130.825H269.804L268.92 132.965H265.688L270.632 121.751H273.756L278.749 132.965H275.418L274.541 130.825ZM273.613 128.485L272.187 124.919L270.76 128.485H273.613Z" fill="white"/>
<path d="M284.52 130.019H282.786V133.001H279.626V121.787H284.748C285.654 121.768 286.553 121.94 287.387 122.294C288.103 122.589 288.711 123.097 289.13 123.749C289.548 124.4 289.756 125.165 289.727 125.939C289.761 126.684 289.571 127.423 289.181 128.059C288.79 128.695 288.217 129.199 287.537 129.505L289.955 133.029H286.56L284.52 130.019ZM286.025 124.719C285.599 124.405 285.076 124.254 284.548 124.291H282.786V127.572H284.548C285.076 127.609 285.599 127.458 286.025 127.144C286.192 126.993 286.324 126.806 286.409 126.598C286.494 126.389 286.531 126.164 286.517 125.939C286.532 125.713 286.498 125.487 286.417 125.277C286.335 125.066 286.209 124.876 286.046 124.719H286.025Z" fill="white"/>
<path d="M291.468 121.787H296.747C297.876 121.774 298.993 122.018 300.014 122.5C300.923 122.926 301.691 123.604 302.225 124.455C302.739 125.357 303.009 126.377 303.009 127.415C303.009 128.453 302.739 129.474 302.225 130.376C301.693 131.228 300.925 131.907 300.014 132.33C298.994 132.816 297.876 133.06 296.747 133.043H291.468V121.787ZM296.64 130.468C297.487 130.51 298.317 130.218 298.951 129.655C299.515 129.038 299.827 128.233 299.827 127.397C299.827 126.562 299.515 125.756 298.951 125.14C298.319 124.572 297.488 124.277 296.64 124.319H294.607V130.468H296.64Z" fill="white"/>
<path d="M293.18 74.4863C293.386 74.5836 293.57 74.7229 293.72 74.8954C293.869 75.0679 293.981 75.2697 294.048 75.4879C294.115 75.7061 294.136 75.9359 294.109 76.1626C294.083 76.3894 294.009 76.608 293.893 76.8046C293.717 77.0602 293.469 77.2567 293.18 77.3681C292.851 77.5094 292.496 77.5775 292.138 77.5679H291.225V78.8162H290.176V74.2865H292.138C292.495 74.2803 292.85 74.3483 293.18 74.4863ZM292.794 76.5121C292.877 76.4413 292.943 76.3524 292.986 76.2522C293.03 76.1521 293.049 76.0433 293.044 75.9343C293.052 75.823 293.033 75.7114 292.99 75.6086C292.946 75.5058 292.879 75.4145 292.794 75.3423C292.587 75.1951 292.335 75.1245 292.081 75.1425H291.232V76.7119H292.081C292.328 76.7249 292.571 76.6546 292.773 76.5121H292.794Z" fill="white"/>
<path d="M295.42 78.638C295.126 78.4996 294.878 78.2791 294.707 78.0031C294.543 77.7214 294.457 77.4015 294.457 77.0758C294.457 76.7501 294.543 76.4301 294.707 76.1484C294.88 75.8742 295.127 75.6542 295.42 75.5136C295.726 75.3636 296.063 75.2856 296.404 75.2856C296.745 75.2856 297.082 75.3636 297.389 75.5136C297.602 75.6268 297.791 75.782 297.943 75.9698C298.095 76.1576 298.208 76.3742 298.275 76.6066C298.341 76.839 298.36 77.0825 298.331 77.3225C298.301 77.5624 298.223 77.7939 298.102 78.0031C297.929 78.2781 297.682 78.4983 297.389 78.638C297.082 78.7879 296.745 78.8659 296.404 78.8659C296.063 78.8659 295.726 78.7879 295.42 78.638ZM297.039 77.7748C297.208 77.5753 297.3 77.3226 297.3 77.0615C297.3 76.8004 297.208 76.5477 297.039 76.3482C296.958 76.2612 296.86 76.1927 296.75 76.1471C296.641 76.1016 296.523 76.0801 296.404 76.0842C296.285 76.0805 296.166 76.1021 296.055 76.1476C295.944 76.1931 295.845 76.2614 295.762 76.3482C295.594 76.5477 295.501 76.8004 295.501 77.0615C295.501 77.3226 295.594 77.5753 295.762 77.7748C295.845 77.8616 295.944 77.9299 296.055 77.9754C296.166 78.0209 296.285 78.0425 296.404 78.0388C296.524 78.0402 296.643 78.0154 296.753 77.9661C296.863 77.9168 296.96 77.8442 297.039 77.7534V77.7748Z" fill="white"/>
<path d="M301.926 75.5064C302.191 75.6506 302.409 75.8686 302.553 76.1342C302.703 76.4253 302.782 76.7482 302.782 77.0758C302.782 77.4034 302.703 77.7262 302.553 78.0174C302.409 78.2829 302.191 78.501 301.926 78.6451C301.658 78.7949 301.355 78.8712 301.048 78.8662C300.853 78.8786 300.658 78.8472 300.476 78.7744C300.295 78.7016 300.132 78.5892 299.999 78.4454V80.0718H298.987V75.3352H299.95V75.7347C300.086 75.5809 300.256 75.4605 300.447 75.3826C300.637 75.3047 300.843 75.2714 301.048 75.2853C301.355 75.2804 301.658 75.3567 301.926 75.5064ZM301.505 77.7748C301.673 77.5753 301.766 77.3226 301.766 77.0615C301.766 76.8004 301.673 76.5477 301.505 76.3482C301.336 76.18 301.108 76.0856 300.87 76.0856C300.632 76.0856 300.403 76.18 300.235 76.3482C300.066 76.5477 299.974 76.8004 299.974 77.0615C299.974 77.3226 300.066 77.5753 300.235 77.7748C300.403 77.943 300.632 78.0374 300.87 78.0374C301.108 78.0374 301.336 77.943 301.505 77.7748Z" fill="white"/>
<path d="M306.961 75.3348V78.8158H306.02V78.4021C305.888 78.5517 305.724 78.671 305.542 78.7516C305.352 78.8298 305.148 78.8686 304.943 78.8658C304.744 78.8762 304.545 78.8469 304.357 78.7795C304.17 78.7121 303.998 78.6081 303.851 78.4734C303.71 78.315 303.602 78.1298 303.533 77.9289C303.465 77.728 303.437 77.5154 303.452 77.3036V75.3348H304.465V77.1538C304.465 77.7173 304.7 77.9955 305.178 77.9955C305.286 77.9996 305.393 77.9808 305.492 77.9402C305.592 77.8996 305.682 77.8382 305.756 77.7601C305.92 77.5606 306 77.3044 305.977 77.0468V75.3276L306.961 75.3348Z" fill="white"/>
<path d="M307.896 74.0156H308.909V78.8164H307.896V74.0156Z" fill="white"/>
<path d="M312.49 75.6704C312.645 75.8189 312.765 76.0006 312.84 76.2019C312.916 76.4033 312.944 76.6191 312.925 76.8331V78.8162H311.983V78.3811C311.867 78.5513 311.707 78.6865 311.519 78.7721C311.332 78.8576 311.125 78.8901 310.92 78.8661C310.675 78.875 310.431 78.8287 310.207 78.7306C310.025 78.6516 309.87 78.523 309.757 78.3597C309.654 78.1951 309.6 78.0046 309.601 77.8104C309.597 77.6627 309.628 77.5163 309.693 77.3834C309.757 77.2506 309.853 77.1352 309.971 77.0471C310.308 76.8366 310.703 76.7392 311.099 76.7689H311.897C311.903 76.6751 311.888 76.5812 311.853 76.4937C311.819 76.4063 311.766 76.3274 311.698 76.2625C311.526 76.1332 311.313 76.07 311.099 76.0841C310.911 76.0831 310.726 76.1144 310.549 76.1769C310.384 76.2271 310.229 76.3068 310.093 76.4123L309.736 75.6989C309.942 75.5565 310.172 75.4504 310.414 75.3851C310.681 75.3136 310.957 75.2776 311.234 75.2781C311.687 75.2455 312.136 75.3857 312.49 75.6704ZM311.634 78.0672C311.766 77.9893 311.866 77.8647 311.912 77.7177V77.361H311.198C310.785 77.361 310.578 77.4965 310.578 77.7676C310.575 77.8279 310.588 77.8879 310.616 77.9416C310.643 77.9954 310.684 78.0411 310.735 78.0743C310.856 78.1582 311.002 78.1984 311.148 78.1885C311.319 78.1976 311.488 78.1554 311.634 78.0672Z" fill="white"/>
<path d="M315.293 75.4134C315.52 75.3239 315.762 75.2803 316.006 75.285V76.2123H315.778C315.654 76.2052 315.531 76.2229 315.414 76.2646C315.298 76.3063 315.191 76.371 315.1 76.4549C315.013 76.5508 314.945 76.6634 314.902 76.786C314.86 76.9086 314.842 77.0386 314.85 77.1682V78.8089H313.866V75.3278H314.829V75.7843C314.949 75.6227 315.109 75.4948 315.293 75.4134Z" fill="white"/>
<path d="M228.474 261.536C227.636 261.093 226.938 260.426 226.455 259.61C225.969 258.765 225.713 257.807 225.713 256.832C225.713 255.857 225.969 254.899 226.455 254.054C226.94 253.242 227.638 252.578 228.474 252.135C229.298 251.719 230.203 251.484 231.125 251.448C232.048 251.411 232.968 251.572 233.824 251.921C234.537 252.224 235.168 252.694 235.664 253.29L234.116 254.717C233.798 254.33 233.397 254.02 232.942 253.808C232.488 253.597 231.992 253.491 231.491 253.497C230.888 253.487 230.293 253.634 229.765 253.925C229.266 254.2 228.855 254.61 228.581 255.109C228.304 255.643 228.16 256.235 228.16 256.836C228.16 257.436 228.304 258.028 228.581 258.562C228.857 259.059 229.267 259.47 229.765 259.746C230.294 260.034 230.889 260.179 231.491 260.167C231.993 260.175 232.49 260.068 232.945 259.856C233.4 259.643 233.8 259.33 234.116 258.94L235.664 260.367C235.168 260.969 234.534 261.444 233.817 261.75C233.037 262.075 232.2 262.238 231.356 262.228C230.352 262.24 229.362 262.002 228.474 261.536Z" fill="white"/>
<path d="M244.395 254.81C244.722 255.165 244.972 255.584 245.131 256.041C245.289 256.497 245.352 256.981 245.315 257.463V262.05H242.99V257.82C243.026 257.31 242.88 256.804 242.576 256.393C242.42 256.231 242.231 256.105 242.022 256.023C241.812 255.942 241.587 255.908 241.363 255.922C241.1 255.907 240.836 255.948 240.59 256.042C240.344 256.137 240.121 256.284 239.937 256.472C239.559 256.92 239.372 257.499 239.416 258.084V262.05H237.09V250.993H239.416V254.867C239.732 254.55 240.115 254.306 240.536 254.153C240.993 253.987 241.476 253.905 241.962 253.911C242.408 253.887 242.853 253.954 243.271 254.109C243.69 254.264 244.072 254.502 244.395 254.81Z" fill="white"/>
<path d="M249.046 261.636C248.393 261.303 247.847 260.794 247.469 260.167C247.085 259.52 246.889 258.779 246.906 258.027C246.892 257.275 247.087 256.534 247.469 255.887C247.849 255.263 248.395 254.757 249.046 254.424C249.746 254.063 250.526 253.881 251.314 253.896C252.1 253.881 252.878 254.062 253.575 254.424C254.224 254.757 254.767 255.263 255.145 255.887C255.527 256.534 255.722 257.275 255.708 258.027C255.725 258.779 255.529 259.52 255.145 260.167C254.77 260.794 254.226 261.303 253.575 261.636C252.878 261.998 252.1 262.18 251.314 262.164C250.526 262.179 249.746 261.998 249.046 261.636ZM252.784 259.66C253.153 259.201 253.354 258.63 253.354 258.041C253.354 257.452 253.153 256.881 252.784 256.422C252.594 256.224 252.366 256.069 252.113 255.966C251.859 255.862 251.587 255.814 251.314 255.822C251.04 255.815 250.767 255.864 250.513 255.967C250.259 256.07 250.029 256.225 249.838 256.422C249.464 256.879 249.261 257.451 249.261 258.041C249.261 258.631 249.464 259.203 249.838 259.66C250.029 259.857 250.259 260.012 250.513 260.115C250.767 260.218 251.04 260.267 251.314 260.259C251.588 260.267 251.86 260.217 252.114 260.113C252.367 260.009 252.595 259.852 252.784 259.653V259.66Z" fill="white"/>
<path d="M258.797 261.636C258.146 261.303 257.603 260.794 257.228 260.167C256.843 259.52 256.648 258.779 256.664 258.027C256.65 257.275 256.845 256.534 257.228 255.887C257.605 255.263 258.148 254.757 258.797 254.424C259.506 254.078 260.291 253.914 261.08 253.946C261.866 253.931 262.643 254.112 263.341 254.474C263.986 254.809 264.526 255.315 264.903 255.937C265.285 256.584 265.481 257.325 265.467 258.077C265.483 258.829 265.288 259.57 264.903 260.217C264.529 260.842 263.988 261.351 263.341 261.686C262.643 262.048 261.866 262.23 261.08 262.214C260.282 262.216 259.497 262.017 258.797 261.636ZM262.506 259.653C262.879 259.196 263.083 258.624 263.083 258.034C263.083 257.444 262.879 256.872 262.506 256.415C262.318 256.217 262.091 256.062 261.839 255.959C261.587 255.855 261.316 255.807 261.044 255.815C260.77 255.806 260.496 255.855 260.242 255.958C259.988 256.061 259.758 256.217 259.567 256.415C259.189 256.869 258.982 257.442 258.982 258.034C258.982 258.625 259.189 259.198 259.567 259.653C259.758 259.851 259.988 260.006 260.242 260.109C260.496 260.213 260.77 260.261 261.044 260.252C261.316 260.261 261.587 260.212 261.839 260.109C262.091 260.006 262.318 259.85 262.506 259.653Z" fill="white"/>
<path d="M267.756 261.922C267.219 261.799 266.706 261.589 266.237 261.301L267.014 259.632C267.415 259.882 267.85 260.072 268.305 260.195C268.79 260.335 269.292 260.407 269.796 260.409C270.781 260.409 271.273 260.172 271.273 259.696C271.269 259.581 271.228 259.469 271.154 259.38C271.08 259.291 270.979 259.229 270.866 259.204C270.468 259.073 270.057 258.984 269.639 258.94C269.09 258.863 268.547 258.749 268.013 258.598C267.588 258.461 267.207 258.215 266.907 257.884C266.738 257.69 266.609 257.463 266.528 257.218C266.447 256.973 266.416 256.715 266.437 256.458C266.431 255.972 266.586 255.497 266.879 255.109C267.209 254.689 267.652 254.372 268.156 254.196C268.793 253.964 269.468 253.852 270.146 253.868C270.715 253.866 271.282 253.929 271.836 254.054C272.325 254.147 272.795 254.32 273.227 254.567L272.457 256.222C271.753 255.823 270.955 255.617 270.146 255.623C269.761 255.601 269.377 255.672 269.026 255.83C268.921 255.877 268.831 255.951 268.766 256.045C268.7 256.14 268.662 256.25 268.655 256.365C268.653 256.485 268.693 256.602 268.767 256.697C268.841 256.791 268.945 256.858 269.062 256.886C269.477 257.023 269.904 257.118 270.338 257.171C270.882 257.256 271.421 257.372 271.951 257.52C272.366 257.647 272.74 257.88 273.035 258.198C273.361 258.577 273.528 259.068 273.499 259.568C273.502 260.048 273.344 260.515 273.049 260.894C272.708 261.311 272.255 261.623 271.744 261.793C271.093 262.02 270.407 262.129 269.718 262.114C269.058 262.134 268.399 262.069 267.756 261.922Z" fill="white"/>
<path d="M282.723 258.697H276.667C276.763 259.174 277.039 259.595 277.437 259.874C277.886 260.172 278.418 260.322 278.956 260.302C279.336 260.311 279.713 260.248 280.069 260.117C280.405 259.984 280.71 259.785 280.968 259.532L282.202 260.873C281.781 261.319 281.267 261.666 280.695 261.889C280.124 262.112 279.511 262.206 278.899 262.164C278.067 262.183 277.243 262.002 276.495 261.636C275.831 261.311 275.273 260.801 274.89 260.167C274.506 259.52 274.311 258.779 274.327 258.027C274.314 257.276 274.507 256.536 274.883 255.887C275.248 255.264 275.779 254.756 276.417 254.417C277.087 254.058 277.839 253.876 278.6 253.89C279.344 253.874 280.081 254.049 280.74 254.396C281.366 254.718 281.886 255.213 282.238 255.823C282.61 256.494 282.797 257.252 282.78 258.02C282.78 258.02 282.751 258.312 282.723 258.697ZM277.287 256.122C276.921 256.43 276.686 256.867 276.631 257.342H280.583C280.523 256.868 280.287 256.434 279.923 256.125C279.558 255.816 279.091 255.655 278.614 255.673C278.132 255.657 277.66 255.817 277.287 256.122Z" fill="white"/>
<path d="M191.223 170.608C190.96 170.609 190.705 170.513 190.51 170.337L187.656 167.804C187.55 167.712 187.462 167.6 187.399 167.474C187.336 167.347 187.299 167.21 187.29 167.069C187.28 166.928 187.299 166.787 187.345 166.654C187.391 166.52 187.463 166.397 187.557 166.292C187.745 166.092 188.003 165.972 188.278 165.956C188.552 165.94 188.823 166.03 189.033 166.206L191.123 168.047L195.453 163.268C195.647 163.074 195.907 162.962 196.181 162.955C196.454 162.948 196.72 163.045 196.924 163.228C197.127 163.411 197.253 163.664 197.276 163.937C197.298 164.21 197.215 164.481 197.044 164.694L192.001 170.258C191.902 170.367 191.782 170.454 191.649 170.514C191.515 170.574 191.37 170.606 191.223 170.608Z" fill="rgba(56, 152, 252, 1)"/>
<path d="M191.223 193.435C190.961 193.439 190.706 193.345 190.51 193.171L187.657 190.631C187.551 190.537 187.465 190.424 187.404 190.297C187.342 190.17 187.307 190.032 187.298 189.892C187.29 189.751 187.309 189.61 187.356 189.477C187.402 189.343 187.474 189.221 187.568 189.115C187.661 189.01 187.775 188.924 187.902 188.862C188.029 188.801 188.166 188.765 188.307 188.757C188.591 188.74 188.871 188.837 189.083 189.026L191.173 190.867L195.503 186.08C195.697 185.887 195.957 185.775 196.231 185.767C196.504 185.76 196.77 185.858 196.974 186.041C197.178 186.223 197.304 186.477 197.326 186.75C197.348 187.022 197.265 187.293 197.094 187.507L192.051 193.071C191.949 193.189 191.821 193.283 191.678 193.346C191.535 193.409 191.38 193.439 191.223 193.435Z" fill="rgba(56, 152, 252, 1)"/>
<path d="M191.223 216.268C190.96 216.27 190.706 216.174 190.51 215.997L187.657 213.465C187.551 213.371 187.465 213.258 187.404 213.131C187.342 213.004 187.307 212.866 187.298 212.726C187.29 212.585 187.309 212.444 187.356 212.311C187.402 212.177 187.474 212.055 187.568 211.949C187.661 211.844 187.775 211.758 187.902 211.696C188.029 211.635 188.166 211.599 188.307 211.591C188.591 211.574 188.871 211.671 189.083 211.86L191.173 213.693L195.503 208.914C195.697 208.721 195.957 208.609 196.231 208.601C196.504 208.594 196.77 208.692 196.974 208.875C197.178 209.057 197.304 209.311 197.326 209.584C197.348 209.856 197.265 210.127 197.094 210.341L192.051 215.905C191.948 216.022 191.821 216.116 191.678 216.179C191.535 216.242 191.38 216.272 191.223 216.268Z" fill="rgba(56, 152, 252, 1)"/>
<path d="M261.494 86.6914L264.354 92.4837L270.746 93.411L266.123 97.9193L267.215 104.282L261.494 101.279L255.78 104.282L256.871 97.9193L252.249 93.411L258.64 92.4837L261.494 86.6914Z" fill="white"/>
<path d="M250.387 86.6914L254.168 94.3455L262.614 95.5724L256.501 101.529L257.942 109.939L250.387 105.966L242.84 109.939L244.281 101.529L238.168 95.5724L246.614 94.3455L250.387 86.6914Z" fill="white"/>
<path d="M258.861 111.201L250.38 106.75L241.906 111.201L243.525 101.771L236.67 95.0871L246.143 93.7104L250.38 85.1504L254.61 93.7104L264.083 95.0871L257.228 101.764L258.861 111.201ZM239.68 96.0501L245.044 101.286L243.774 108.676L250.416 105.181L257.05 108.676L255.758 101.293L261.123 96.0573L253.704 94.9801L250.38 88.2534L247.056 94.973L239.68 96.0501Z" fill="rgba(56, 152, 252, 1)"/>
<path d="M334.396 295.434C334.396 293.936 334.325 199.698 334.225 61.2324L334.396 61.4037H165.921L166.107 61.2182C166.107 148.851 166.107 229.929 166.071 295.42L165.921 295.27L334.418 295.42L165.921 295.57H165.771V295.42C165.771 229.929 165.771 148.851 165.736 61.2182V61.0327H165.942H334.418H334.553V61.1968C334.46 199.733 334.396 293.936 334.396 295.434Z" fill="#263238"/>
<path d="M251.942 202.123C251.942 202.123 249.445 198.371 254.446 198.164C259.446 197.957 284.028 202.123 292.36 206.289L299.65 210.868L291.753 226.49H273.606C271.523 226.49 265.695 222.923 271.109 220.455C271.109 220.455 265.695 216.703 270.696 213.579C270.696 213.579 266.737 210.661 270.903 206.702L251.942 202.123Z" fill="#FFBF9D"/>
<path d="M293.822 207.837L335.195 229.508L350.717 214.656L369.214 231.32C369.214 231.32 350.881 252.848 340.26 254.724C329.638 256.6 288.272 223.338 288.272 223.338L293.822 207.837Z" fill="#FFBF9D"/>
<path d="M337.228 141.24L336.843 141.461C336.242 141.77 335.601 141.993 334.939 142.125C334.623 142.16 334.311 142.217 334.004 142.296C333.821 142.395 333.647 142.509 333.483 142.638C332.349 143.302 330.908 143.352 329.638 143.516C328.212 143.665 326.678 143.887 325.565 144.807C324.453 145.727 323.953 147.56 324.93 148.623C324.47 148.631 324.029 148.806 323.689 149.116C323.349 149.426 323.133 149.849 323.083 150.307C323.05 150.767 323.135 151.228 323.329 151.646C323.524 152.064 323.822 152.425 324.196 152.696C324.952 153.232 325.84 153.553 326.764 153.624C326.23 153.713 325.753 154.007 325.432 154.442C325.111 154.877 324.972 155.42 325.045 155.956C325.141 156.489 325.372 156.989 325.715 157.409C326.058 157.828 326.503 158.153 327.006 158.353C328.016 158.746 329.1 158.912 330.181 158.838C331.574 158.788 332.97 158.816 334.361 158.924C334.361 158.924 334.361 160.3 334.361 160.921C334.361 161.763 334.361 161.106 334.361 161.106C335.113 161.546 335.925 161.875 336.772 162.084C338.648 162.697 339.861 163.196 341.551 163.632C342.814 163.96 344.055 164.117 344.733 163.268C346.366 161.228 342.072 158.274 342.072 158.274C343.334 157.561 342.992 153.517 341.116 152.967C342.043 152.511 342.628 152.561 343.178 151.676C343.461 151.242 343.639 150.747 343.696 150.232C343.753 149.716 343.688 149.194 343.506 148.709C343.304 148.231 342.951 147.833 342.502 147.575C342.052 147.318 341.53 147.215 341.016 147.282C341.623 146.76 342.058 146.066 342.263 145.291C342.468 144.517 342.433 143.699 342.165 142.945C341.812 142.044 341.138 141.305 340.274 140.869C339.846 140.653 339.382 140.515 338.905 140.463C338.725 140.43 338.542 140.43 338.363 140.463C338.283 140.487 338.208 140.526 338.141 140.577C337.828 140.741 337.556 141.019 337.228 141.24Z" fill="#FFBF9D"/>
<path d="M339.233 136.589C339.219 136.141 339.11 135.702 338.912 135.301C338.714 134.9 338.431 134.546 338.084 134.263C337.214 133.671 335.645 133.743 334.61 133.971C334.546 135.226 334.61 135.861 334.525 137.117C334.525 137.381 334.603 137.587 334.482 137.83C334.161 138.451 332.799 138.543 332.171 138.864C331.652 139.179 331.274 139.681 331.114 140.266C330.953 140.851 331.023 141.475 331.308 142.01C331.621 142.531 332.078 142.95 332.623 143.22C333.167 143.489 333.778 143.596 334.382 143.53C335.598 143.375 336.712 142.772 337.507 141.839C338.14 141.129 338.62 140.297 338.917 139.394C339.214 138.49 339.321 137.536 339.233 136.589Z" fill="#FFBF9D"/>
<path d="M341.365 147.21C341.365 147.31 337.706 147.71 333.169 148.095C328.632 148.48 324.944 148.716 324.937 148.609C324.93 148.502 328.597 148.109 333.133 147.724C337.67 147.339 341.358 147.103 341.365 147.21Z" fill="#FF9A6C"/>
<path d="M341.366 152.938C340.669 153.152 339.952 153.295 339.226 153.366C337.481 153.626 335.724 153.798 333.961 153.88C331.893 153.987 330.024 153.966 328.669 153.88C327.936 153.884 327.204 153.812 326.486 153.666C327.213 153.594 327.945 153.577 328.676 153.616C330.024 153.616 331.886 153.616 333.94 153.488C335.994 153.359 337.849 153.224 339.19 153.088C339.911 152.988 340.638 152.938 341.366 152.938Z" fill="#FF9A6C"/>
<path d="M341.365 158.538C340.782 158.704 340.181 158.799 339.575 158.823C338.462 158.937 336.921 159.023 335.216 159.045C333.511 159.066 331.971 159.045 330.858 159.045C330.252 159.072 329.645 159.039 329.046 158.945C329.64 158.827 330.245 158.772 330.851 158.781C331.971 158.731 333.511 158.709 335.209 158.681C336.907 158.652 338.448 158.616 339.561 158.567C340.16 158.507 340.764 158.497 341.365 158.538Z" fill="#FF9A6C"/>
<path d="M338.898 138.429C339.036 138.903 338.996 139.411 338.783 139.856C338.353 140.93 337.539 141.806 336.501 142.317C335.954 142.609 335.381 142.848 334.789 143.03C334.308 143.2 333.811 143.318 333.305 143.38C332.946 143.42 332.584 143.337 332.278 143.144C332.071 143.002 332.014 142.866 332.028 142.852C332.397 143.093 332.841 143.189 333.277 143.123C333.763 143.023 334.24 142.882 334.703 142.702C335.27 142.508 335.821 142.269 336.351 141.989C337.321 141.512 338.102 140.723 338.569 139.749C338.716 139.319 338.826 138.878 338.898 138.429Z" fill="#FF9A6C"/>
<path d="M145.242 104.496H22.8125V274.669H145.242V104.496Z" fill="white"/>
<path d="M145.242 104.496H22.8125V166.092H145.242V104.496Z" fill="#455A64"/>
<path d="M124.048 181.186C124.048 181.293 107.214 181.379 86.4557 181.379C65.6977 181.379 48.863 181.293 48.863 181.186C48.863 181.079 65.6906 181.001 86.4557 181.001C107.221 181.001 124.048 181.065 124.048 181.186Z" fill="#263238"/>
<path d="M124.048 197.757C124.048 197.857 107.214 197.943 86.4557 197.943C65.6977 197.943 48.863 197.857 48.863 197.757C48.863 197.657 65.6906 197.572 86.4557 197.572C107.221 197.572 124.048 197.657 124.048 197.757Z" fill="#263238"/>
<path d="M124.048 214.349C124.048 214.449 107.214 214.535 86.4557 214.535C65.6977 214.535 48.863 214.449 48.863 214.349C48.863 214.249 65.6906 214.157 86.4557 214.157C107.221 214.157 124.048 214.242 124.048 214.349Z" fill="#263238"/>
<path d="M123.735 233.474H50.1971C42.964 233.474 37.1003 239.337 37.1003 246.57V247.933C37.1003 255.166 42.964 261.03 50.1971 261.03H123.735C130.968 261.03 136.831 255.166 136.831 247.933V246.57C136.831 239.337 130.968 233.474 123.735 233.474Z" fill="#455A64"/>
<path d="M72.6604 150.891C72.9281 151.251 73.0664 151.691 73.0527 152.14C73.0651 152.467 72.992 152.791 72.8406 153.081C72.6892 153.372 72.4649 153.617 72.1896 153.794C71.4339 154.226 70.5685 154.427 69.7 154.372H65.3059V146.233H69.4718C70.3017 146.179 71.1281 146.381 71.84 146.811C72.0966 146.98 72.3063 147.211 72.4497 147.483C72.5931 147.755 72.6655 148.059 72.6604 148.366C72.6634 148.733 72.5647 149.093 72.375 149.407C72.1739 149.715 71.8928 149.961 71.5618 150.121C71.9967 150.262 72.3793 150.53 72.6604 150.891ZM67.5814 147.895V149.465H69.1936C69.9711 149.465 70.3563 149.201 70.3563 148.673C70.3563 148.145 69.9711 147.895 69.1936 147.895H67.5814ZM70.7272 151.883C70.7272 151.333 70.3206 151.055 69.5146 151.055H67.5814V152.71H69.5146C70.3206 152.71 70.7272 152.432 70.7272 151.883Z" fill="white"/>
<path d="M79.7082 152.789H76.2628L75.6279 154.372H73.2739L76.8406 146.226H79.109L82.747 154.372H80.3502L79.7082 152.789ZM79.0305 151.091L77.9891 148.487L76.9405 151.091H79.0305Z" fill="white"/>
<path d="M84.3377 154.294C83.7985 154.167 83.2864 153.945 82.8254 153.638L83.5816 151.94C83.9753 152.193 84.4027 152.39 84.8513 152.525C85.3128 152.671 85.7939 152.745 86.278 152.746C87.1625 152.746 87.6048 152.525 87.6048 152.083C87.6035 151.967 87.5664 151.855 87.4987 151.762C87.4309 151.669 87.3359 151.599 87.2267 151.562C86.8327 151.411 86.4272 151.291 86.014 151.205C85.4913 151.101 84.9765 150.96 84.4732 150.784C84.0668 150.639 83.7037 150.394 83.4175 150.071C83.1058 149.693 82.9479 149.212 82.9752 148.723C82.9696 148.242 83.1115 147.772 83.3818 147.375C83.6876 146.949 84.1083 146.62 84.5945 146.426C85.2263 146.181 85.9004 146.065 86.5776 146.083C87.1106 146.082 87.6419 146.141 88.1612 146.262C88.6443 146.367 89.1086 146.545 89.5379 146.79L88.8246 148.502C88.1382 148.105 87.3628 147.889 86.5704 147.874C86.2255 147.848 85.8801 147.917 85.5718 148.074C85.4767 148.125 85.3973 148.201 85.3421 148.294C85.2868 148.387 85.2577 148.493 85.2579 148.601C85.2593 148.712 85.296 148.82 85.3627 148.908C85.4295 148.997 85.5227 149.062 85.6288 149.094C86.0172 149.242 86.4184 149.354 86.8272 149.429C87.3499 149.537 87.8646 149.68 88.368 149.857C88.7725 150.006 89.1348 150.251 89.4238 150.57C89.7484 150.95 89.9122 151.441 89.8803 151.94C89.8857 152.414 89.7436 152.877 89.4737 153.267C89.1666 153.693 88.7431 154.023 88.2539 154.215C87.624 154.468 86.9492 154.589 86.2708 154.572C85.6171 154.564 84.9672 154.471 84.3377 154.294Z" fill="white"/>
<path d="M90.9285 146.233H93.2325V154.379H90.9285V146.233Z" fill="white"/>
<path d="M96.6356 153.994C95.9714 153.651 95.4157 153.13 95.0306 152.489C94.6517 151.823 94.4524 151.069 94.4524 150.303C94.4524 149.536 94.6517 148.783 95.0306 148.116C95.4152 147.473 95.9709 146.95 96.6356 146.604C97.3456 146.239 98.1346 146.056 98.9325 146.069C99.6231 146.058 100.308 146.191 100.944 146.461C101.527 146.714 102.039 147.106 102.435 147.603L100.966 148.93C100.741 148.633 100.451 148.392 100.118 148.227C99.7853 148.061 99.4186 147.974 99.0467 147.974C98.6356 147.967 98.2299 148.068 97.8697 148.266C97.5259 148.454 97.2454 148.739 97.0636 149.086C96.8667 149.46 96.7685 149.877 96.7783 150.299C96.7694 150.723 96.8676 151.143 97.0636 151.519C97.2474 151.864 97.5274 152.149 97.8697 152.339C98.2299 152.538 98.6356 152.638 99.0467 152.632C99.4186 152.631 99.7853 152.545 100.118 152.379C100.451 152.213 100.741 151.972 100.966 151.676L102.435 153.003C102.037 153.498 101.526 153.889 100.944 154.144C100.308 154.414 99.6231 154.548 98.9325 154.536C98.1336 154.551 97.3438 154.364 96.6356 153.994Z" fill="white"/>
<path d="M68.2801 250.037C67.6672 249.708 67.1584 249.214 66.8106 248.611C66.4597 247.996 66.2751 247.3 66.2751 246.592C66.2751 245.884 66.4597 245.188 66.8106 244.573C67.1739 244.008 67.6811 243.55 68.2801 243.246C68.8788 242.942 69.5359 242.771 70.2068 242.744C70.8777 242.717 71.5465 242.835 72.1677 243.089C72.6843 243.31 73.1413 243.65 73.5017 244.081L72.3746 245.122C72.1458 244.841 71.8562 244.615 71.5276 244.462C71.1989 244.309 70.8397 244.232 70.4771 244.238C70.039 244.228 69.606 244.334 69.2217 244.545C68.8596 244.744 68.5606 245.04 68.3585 245.401C68.1497 245.786 68.0441 246.218 68.0518 246.656C68.0421 247.094 68.1479 247.527 68.3585 247.912C68.5559 248.259 68.8445 248.545 69.1931 248.739C69.5775 248.95 70.0105 249.056 70.4486 249.046C70.8124 249.05 71.1725 248.972 71.5013 248.816C71.8302 248.66 72.1191 248.431 72.3461 248.147L73.4731 249.188C73.1166 249.63 72.6557 249.976 72.1321 250.194C71.5671 250.429 70.9603 250.545 70.3487 250.537C69.6286 250.543 68.9181 250.371 68.2801 250.037Z" fill="white"/>
<path d="M79.8505 245.151C80.0855 245.411 80.2655 245.715 80.3795 246.046C80.4936 246.377 80.5393 246.728 80.5139 247.077V250.38H78.8304V247.305C78.8571 246.937 78.7479 246.572 78.5237 246.278C78.4117 246.16 78.275 246.068 78.1233 246.009C77.9716 245.95 77.8087 245.925 77.6463 245.936C77.4594 245.926 77.2726 245.956 77.0981 246.024C76.9236 246.092 76.7652 246.195 76.6334 246.328C76.3566 246.655 76.2207 247.078 76.2553 247.505V250.358H74.5647V242.383H76.2553V245.194C76.4781 244.968 76.7453 244.791 77.04 244.673C77.3733 244.55 77.7263 244.49 78.0814 244.495C78.4055 244.478 78.7295 244.527 79.0337 244.64C79.3379 244.753 79.6158 244.927 79.8505 245.151Z" fill="white"/>
<path d="M83.2247 250.116C82.7533 249.871 82.3585 249.501 82.0834 249.046C81.8171 248.573 81.6772 248.04 81.6772 247.498C81.6772 246.956 81.8171 246.422 82.0834 245.95C82.3609 245.499 82.7553 245.132 83.2247 244.887C83.7366 244.625 84.3048 244.493 84.8796 244.502C85.45 244.492 86.0139 244.625 86.5203 244.887C86.9895 245.13 87.3821 245.498 87.6545 245.95C87.9255 246.421 88.0682 246.955 88.0682 247.498C88.0682 248.041 87.9255 248.575 87.6545 249.046C87.3831 249.501 86.9904 249.871 86.5203 250.116C86.0132 250.376 85.4494 250.506 84.8796 250.494C84.3054 250.505 83.7371 250.375 83.2247 250.116ZM85.9425 248.689C86.2307 248.367 86.3795 247.944 86.3562 247.512C86.3676 247.3 86.3369 247.087 86.2659 246.886C86.1949 246.685 86.085 246.501 85.9425 246.342C85.8058 246.199 85.6407 246.085 85.4577 246.009C85.2747 245.933 85.0778 245.896 84.8796 245.9C84.6791 245.894 84.4795 245.93 84.2939 246.006C84.1083 246.083 83.9409 246.197 83.8025 246.342C83.6588 246.5 83.5476 246.685 83.4753 246.885C83.4031 247.086 83.3713 247.299 83.3816 247.512C83.3611 247.945 83.5124 248.368 83.8025 248.689C83.9415 248.833 84.1092 248.946 84.2948 249.021C84.4804 249.096 84.6796 249.131 84.8796 249.124C85.0783 249.128 85.2755 249.089 85.4585 249.012C85.6416 248.935 85.8064 248.82 85.9425 248.675V248.689Z" fill="white"/>
<path d="M90.3155 250.116C89.8428 249.873 89.4475 249.502 89.1741 249.046C88.9615 248.702 88.8221 248.317 88.7646 247.917C88.707 247.516 88.7326 247.108 88.8397 246.718C88.9467 246.328 89.1331 245.964 89.387 245.649C89.6409 245.334 89.9569 245.075 90.3155 244.887C90.8278 244.634 91.3917 244.502 91.9633 244.502C92.5349 244.502 93.0987 244.634 93.6111 244.887C94.0802 245.13 94.4729 245.498 94.7453 245.95C95.0163 246.421 95.1589 246.955 95.1589 247.498C95.1589 248.041 95.0163 248.575 94.7453 249.046C94.4739 249.501 94.0812 249.872 93.6111 250.116C93.0974 250.365 92.534 250.494 91.9633 250.494C91.3925 250.494 90.8292 250.365 90.3155 250.116ZM93.0333 248.689C93.3179 248.371 93.4664 247.953 93.447 247.527C93.4584 247.314 93.4276 247.101 93.3566 246.9C93.2857 246.7 93.1758 246.515 93.0333 246.357C92.8957 246.212 92.7295 246.098 92.5452 246.022C92.3609 245.946 92.1626 245.909 91.9633 245.914C91.7639 245.909 91.5657 245.946 91.3814 246.022C91.1971 246.098 91.0308 246.212 90.8933 246.357C90.7495 246.514 90.6383 246.699 90.5661 246.9C90.4939 247.1 90.462 247.313 90.4724 247.527C90.4519 247.959 90.6032 248.382 90.8933 248.704C91.0314 248.847 91.198 248.959 91.3823 249.034C91.5665 249.109 91.7644 249.145 91.9633 249.139C92.1642 249.141 92.3634 249.101 92.5478 249.021C92.7322 248.941 92.8976 248.823 93.0333 248.675V248.689Z" fill="white"/>
<path d="M96.8212 250.316C96.4318 250.231 96.0601 250.079 95.7227 249.866L96.2862 248.661C96.5779 248.841 96.8954 248.976 97.2278 249.06C97.5775 249.164 97.9402 249.217 98.3049 249.217C99.0183 249.217 99.3749 249.046 99.3749 248.689C99.3736 248.606 99.344 248.525 99.2909 248.46C99.2378 248.395 99.1643 248.35 99.0825 248.333C98.7927 248.239 98.4938 248.177 98.1908 248.147C97.7902 248.095 97.3944 248.011 97.0067 247.898C96.7001 247.806 96.4225 247.636 96.2006 247.405C95.9577 247.123 95.8348 246.757 95.8582 246.385C95.8529 246.033 95.9659 245.689 96.1792 245.408C96.4216 245.101 96.7454 244.869 97.1137 244.738C97.5709 244.573 98.0544 244.493 98.5403 244.502C98.9531 244.501 99.3647 244.546 99.7673 244.638C100.122 244.709 100.463 244.834 100.78 245.009L100.217 246.214C99.7063 245.923 99.1278 245.773 98.5403 245.779C98.2612 245.763 97.9824 245.815 97.7271 245.929C97.6502 245.963 97.5841 246.018 97.5363 246.087C97.4885 246.156 97.4607 246.237 97.4561 246.321C97.4563 246.408 97.4852 246.492 97.5381 246.56C97.591 246.628 97.6649 246.677 97.7485 246.699C98.0531 246.796 98.3659 246.866 98.683 246.906C99.0772 246.968 99.4677 247.051 99.8529 247.156C100.155 247.248 100.426 247.421 100.638 247.655C100.756 247.79 100.847 247.947 100.905 248.117C100.962 248.287 100.985 248.467 100.973 248.647C100.978 248.995 100.865 249.334 100.652 249.61C100.402 249.911 100.073 250.138 99.7031 250.266C99.2286 250.43 98.7284 250.508 98.2265 250.494C97.7524 250.495 97.2801 250.435 96.8212 250.316Z" fill="white"/>
<path d="M107.714 247.976H103.312C103.38 248.322 103.579 248.629 103.869 248.832C104.196 249.049 104.582 249.158 104.974 249.146C105.249 249.153 105.523 249.107 105.78 249.01C106.025 248.912 106.248 248.767 106.437 248.582L107.335 249.559C107.028 249.882 106.653 250.133 106.238 250.294C105.822 250.456 105.376 250.524 104.932 250.494C104.33 250.508 103.733 250.378 103.191 250.116C102.706 249.88 102.299 249.508 102.021 249.046C101.752 248.576 101.611 248.043 101.611 247.501C101.611 246.96 101.752 246.427 102.021 245.957C102.289 245.504 102.676 245.134 103.141 244.887C103.628 244.626 104.173 244.494 104.725 244.502C105.264 244.493 105.796 244.621 106.273 244.873C106.729 245.112 107.105 245.479 107.357 245.929C107.616 246.42 107.739 246.972 107.714 247.526C107.714 247.526 107.714 247.698 107.714 247.976ZM103.747 246.1C103.484 246.325 103.316 246.641 103.277 246.984H106.13C106.083 246.641 105.913 246.327 105.652 246.1C105.384 245.877 105.044 245.761 104.696 245.772C104.351 245.762 104.013 245.879 103.747 246.1Z" fill="white"/>
<path d="M41.2089 184.261C40.947 184.263 40.6934 184.169 40.4956 183.997L38.4055 182.149C38.1927 181.96 38.0637 181.694 38.047 181.41C38.0303 181.126 38.1272 180.847 38.3164 180.634C38.5056 180.421 38.7716 180.292 39.0558 180.275C39.3401 180.258 39.6194 180.355 39.8322 180.544L41.1376 181.693L44.0908 178.426C44.2867 178.244 44.5435 178.142 44.8108 178.14C45.078 178.138 45.3364 178.236 45.5349 178.415C45.7335 178.594 45.8579 178.841 45.8837 179.107C45.9095 179.373 45.8349 179.639 45.6744 179.853L42.015 183.897C41.9132 184.01 41.789 184.101 41.6502 184.164C41.5114 184.226 41.3612 184.259 41.2089 184.261Z" fill="#455A64"/>
<path d="M41.2092 200.846C40.9472 200.848 40.6936 200.754 40.4958 200.582L38.4058 198.742C38.2999 198.648 38.2135 198.534 38.1516 198.407C38.0897 198.28 38.0533 198.142 38.0447 198.001C38.0273 197.716 38.1238 197.436 38.313 197.222C38.5022 197.009 38.7686 196.879 39.0535 196.861C39.3385 196.844 39.6187 196.94 39.8324 197.13L41.1307 198.307L44.0839 195.047C44.1731 194.928 44.2861 194.829 44.4156 194.756C44.5451 194.683 44.6884 194.638 44.8362 194.624C44.9841 194.61 45.1333 194.626 45.2744 194.673C45.4155 194.719 45.5454 194.795 45.6558 194.894C45.7661 194.994 45.8546 195.115 45.9155 195.25C45.9764 195.386 46.0085 195.533 46.0096 195.681C46.0107 195.83 45.9808 195.977 45.9219 196.113C45.863 196.25 45.7764 196.372 45.6675 196.473L42.0081 200.518C41.905 200.625 41.7808 200.71 41.6432 200.766C41.5057 200.823 41.3578 200.85 41.2092 200.846Z" fill="#455A64"/>
<path d="M41.2089 217.438C40.947 217.44 40.6934 217.346 40.4956 217.174L38.4055 215.326C38.3002 215.233 38.2143 215.119 38.1527 214.992C38.0912 214.866 38.0553 214.728 38.047 214.587C38.0387 214.446 38.0583 214.305 38.1045 214.172C38.1507 214.039 38.2227 213.916 38.3164 213.811C38.4101 213.705 38.5236 213.619 38.6504 213.558C38.7773 213.496 38.9151 213.46 39.0558 213.452C39.1966 213.444 39.3376 213.463 39.4708 213.51C39.604 213.556 39.7268 213.628 39.8322 213.721L41.1376 214.87L44.0908 211.603C44.18 211.484 44.293 211.385 44.4225 211.312C44.552 211.24 44.6953 211.195 44.8431 211.18C44.991 211.166 45.1402 211.183 45.2813 211.229C45.4224 211.276 45.5523 211.351 45.6627 211.45C45.773 211.55 45.8615 211.671 45.9224 211.807C45.9833 211.942 46.0154 212.089 46.0165 212.237C46.0176 212.386 45.9877 212.533 45.9288 212.669C45.8699 212.806 45.7833 212.928 45.6744 213.03L42.015 217.074C41.9132 217.187 41.789 217.278 41.6502 217.341C41.5114 217.403 41.3612 217.436 41.2089 217.438Z" fill="#455A64"/>
<path d="M88.6676 135.69L84.0309 133.186L79.3372 135.583L80.2859 130.404L76.5552 126.681L81.7768 125.982L84.1664 121.281L86.4491 126.032L91.6564 126.852L87.8401 130.49L88.6676 135.69Z" fill="white"/>
<path d="M145.242 274.669C145.242 273.171 145.178 205.083 145.078 104.496L145.242 104.667L22.8271 104.681L23.0125 104.496C23.0125 168.168 23.0125 227.082 22.9769 274.669L22.8271 274.519L145.256 274.669L22.8271 274.819H22.6773V274.669C22.6773 227.082 22.6773 168.168 22.6416 104.496V104.311H22.8271H145.242H145.413V104.475C145.314 205.083 145.249 273.206 145.242 274.669Z" fill="#263238"/>
</svg>
