<svg width="53" height="57" viewBox="0 0 53 57" fill="none" xmlns="http://www.w3.org/2000/svg">
<path d="M28.1802 7V55.9878C28.1802 56.3114 27.9835 56.6036 27.6489 56.7839C27.3949 56.9211 27.0742 57.0083 26.721 56.9994L25.9153 56.9796C25.101 56.9591 24.3665 56.4628 24.3665 55.8959V7.08298L28.1802 7Z" fill="url(#paint0_linear_643_48143)"/>
<path d="M30.0871 3.87021C30.0871 5.28687 29.3835 6.55501 28.3239 7.30086C27.7276 7.72104 27.0188 7.97505 26.2602 7.99826C25.8836 8.00976 25.5192 7.96418 25.176 7.86746C24.9176 7.79529 24.6711 7.69442 24.4387 7.56854C24.3801 7.53587 24.3214 7.50319 24.2639 7.46681C23.1801 6.79908 22.4595 5.56505 22.4595 4.13103C22.4595 1.92959 24.1584 0.0821092 26.2602 0.00264774C28.37 -0.0770812 30.0871 1.65358 30.0871 3.87021Z" fill="url(#paint1_linear_643_48143)"/>
<path d="M0.554987 10.1814L0.850978 10.3418L6.45939 6.7352L33.9254 10.9937L37.7671 11.4548L37.5404 12.2069C37.5097 12.2878 33.1388 15.6283 33.1388 15.6283L36.5407 20.3112L36.377 20.7927C36.3576 20.8499 36.3043 20.8846 36.2496 20.8757L32.7177 20.3019L5.23627 15.8369C5.15939 15.8244 5.08847 15.7853 5.03381 15.7253L0.614299 10.8727C0.556352 10.8091 0.526043 10.7211 0.530901 10.6307L0.554987 10.1814Z" fill="url(#paint2_linear_643_48143)"/>
<path d="M6.76932 6.41828L37.7671 11.4546C37.7959 11.4593 37.8042 11.5001 37.7802 11.5186L33.4122 14.8699C33.353 14.9153 33.3372 15.0038 33.3765 15.0689L36.5004 20.2443C36.5158 20.2699 36.4959 20.3038 36.4681 20.2992L5.45086 15.2598C5.36243 15.2454 5.2806 15.2012 5.21673 15.1334L0.594047 10.2228C0.574524 10.202 0.578938 10.1662 0.602875 10.1513L6.48977 6.47617C6.57482 6.42307 6.6733 6.40268 6.76932 6.41828Z" fill="url(#paint3_linear_643_48143)"/>
<path d="M3.2511 40.586L3.56557 40.6667L8.07097 35.9021L34.9284 33.3217L38.5127 32.852C38.5872 32.8423 38.6519 32.9055 38.6479 32.984L38.6169 33.5988C38.6057 33.6828 35.1993 37.8986 35.1993 37.8986L39.4343 41.513L39.3852 42.0083C39.3793 42.067 39.3366 42.1128 39.2831 42.1175L35.8237 42.4245L8.90656 44.8132C8.83125 44.8199 8.75576 44.8 8.69106 44.7563L3.45824 41.2263C3.38963 41.18 3.34181 41.1041 3.32661 41.0172L3.2511 40.586Z" fill="#8FB3FF"/>
<path d="M8.29435 35.5266L38.5656 32.8402C38.6277 32.8347 38.6652 32.9107 38.625 32.9607L35.2919 37.1136C35.2463 37.1704 35.2506 37.2592 35.3014 37.3109L39.3832 41.4599C39.4032 41.4802 39.3911 41.5157 39.3634 41.5182L8.98306 44.2142C8.89643 44.2219 8.80954 44.1998 8.73441 44.1509L3.29726 40.615C3.27377 40.5997 3.27016 40.5654 3.28986 40.5451L8.04313 35.6487C8.1118 35.5779 8.20029 35.5349 8.29435 35.5266Z" fill="#C4DAFF"/>
<path opacity="0.56" d="M26.2732 37.5336L9.40067 38.9169C9.33839 38.922 9.28347 38.8727 9.27861 38.8074L9.21787 37.9923C9.21302 37.927 9.25997 37.8694 9.32225 37.8643L26.1948 36.4811C26.2571 36.476 26.312 36.5252 26.3169 36.5905L26.3776 37.4056C26.3825 37.4709 26.3355 37.5285 26.2732 37.5336Z" fill="white"/>
<path opacity="0.56" d="M26.2853 40.3263L9.54752 41.6985C9.48524 41.7036 9.43032 41.6543 9.42546 41.589L9.36875 40.8284C9.3639 40.7631 9.41085 40.7055 9.47313 40.7004L26.2109 39.3282C26.2732 39.3231 26.3281 39.3723 26.333 39.4376L26.3897 40.1983C26.3946 40.2636 26.3476 40.3212 26.2853 40.3263Z" fill="white"/>
<path d="M52.117 24.6713L51.7908 24.8075L46.1368 20.9684L16.7113 23.3365L12.614 23.5818L12.7812 24.2541C12.8073 24.3342 17.1773 27.8619 17.1773 27.8619L13.2036 32.1679L13.3388 32.6434C13.3548 32.6998 13.4085 32.7367 13.4671 32.7316L17.2531 32.4018L46.7113 29.8353C46.7937 29.8282 46.8719 29.7949 46.9345 29.7404L51.9993 25.3351C52.0657 25.2773 52.1048 25.1944 52.1068 25.1067L52.117 24.6713Z" fill="url(#paint4_linear_643_48143)"/>
<path d="M45.8337 20.6426L12.6753 23.5314C12.6207 23.5362 12.6003 23.6089 12.6437 23.6439L16.9478 27.1121C17.0063 27.1592 17.0161 27.2469 16.9696 27.3069L13.2529 32.1043C13.2345 32.1281 13.2523 32.1635 13.2815 32.161L46.5298 29.2643C46.6246 29.2561 46.7147 29.2186 46.7878 29.1571L52.0725 24.7086C52.0943 24.6902 52.0924 24.6547 52.0687 24.6391L46.1252 20.7163C46.0393 20.6596 45.9366 20.6337 45.8337 20.6426Z" fill="#8FB3FF"/>
<path opacity="0.7" d="M45.3721 24.0291L28.8924 25.3801C28.8301 25.3852 28.7752 25.336 28.7703 25.2707L28.7071 24.4229C28.7023 24.3576 28.7492 24.3 28.8115 24.2949L45.2912 22.9438C45.3535 22.9387 45.4084 22.988 45.4133 23.0533L45.4765 23.9011C45.4814 23.9663 45.4344 24.0239 45.3721 24.0291Z" fill="white"/>
<path opacity="0.7" d="M45.3951 26.9084L29.047 28.2487C28.9848 28.2538 28.9298 28.2045 28.925 28.1392L28.866 27.3476C28.8611 27.2822 28.9081 27.2246 28.9704 27.2195L45.3184 25.8793C45.3807 25.8742 45.4356 25.9235 45.4405 25.9888L45.4995 26.7804C45.5043 26.8457 45.4574 26.9033 45.3951 26.9084Z" fill="white"/>
<path opacity="0.56" d="M22.9623 12.3641L7.88182 9.86833C7.82011 9.85811 7.77759 9.79683 7.78734 9.73211L7.90152 8.97317C7.91127 8.90845 7.96969 8.86386 8.0314 8.87408L23.1119 11.3698C23.1736 11.38 23.2161 11.4413 23.2063 11.506L23.0922 12.265C23.0824 12.3297 23.024 12.3743 22.9623 12.3641Z" fill="white"/>
<path opacity="0.56" d="M22.3933 14.9574L7.43345 12.4816C7.37174 12.4714 7.32923 12.4101 7.33898 12.3454L7.44542 11.6378C7.45517 11.5731 7.51359 11.5285 7.5753 11.5387L22.5351 14.0145C22.5968 14.0247 22.6394 14.086 22.6296 14.1507L22.5232 14.8582C22.5135 14.923 22.455 14.9676 22.3933 14.9574Z" fill="white"/>
<defs>
<linearGradient id="paint0_linear_643_48143" x1="24.3665" y1="32" x2="37.7146" y2="32" gradientUnits="userSpaceOnUse">
<stop stop-color="#3B495E"/>
<stop offset="1" stop-color="#7E8DA4"/>
</linearGradient>
<linearGradient id="paint1_linear_643_48143" x1="21.7728" y1="-3.7073" x2="31.4917" y2="12.1947" gradientUnits="userSpaceOnUse">
<stop stop-color="#3B495E"/>
<stop offset="1" stop-color="#3B495E"/>
</linearGradient>
<linearGradient id="paint2_linear_643_48143" x1="20.8121" y1="-1.75835" x2="17.0067" y2="24.9106" gradientUnits="userSpaceOnUse">
<stop stop-color="#2F0084"/>
<stop offset="1" stop-color="#BD99FF"/>
</linearGradient>
<linearGradient id="paint3_linear_643_48143" x1="19.5208" y1="6.3486" x2="17.8516" y2="29.0096" gradientUnits="userSpaceOnUse">
<stop stop-color="#BD99FF"/>
<stop offset="1" stop-color="#BD99FF"/>
</linearGradient>
<linearGradient id="paint4_linear_643_48143" x1="31.9363" y1="-26.742" x2="32.1546" y2="-3.21847" gradientUnits="userSpaceOnUse">
<stop stop-color="#4276E1"/>
<stop offset="0.951923" stop-color="#4E7BD8"/>
</linearGradient>
</defs>
</svg>
