<svg width="18" height="18" viewBox="0 0 18 18" fill="none" xmlns="http://www.w3.org/2000/svg">
<path d="M11.2501 17.0625H6.75011C5.76011 17.0625 4.93511 16.965 4.23761 16.755C3.98261 16.68 3.81761 16.4325 3.83261 16.17C4.02011 13.9275 6.29261 12.165 9.00011 12.165C11.7076 12.165 13.9726 13.92 14.1676 16.17C14.1901 16.44 14.0251 16.68 13.7626 16.755C13.0651 16.965 12.2401 17.0625 11.2501 17.0625ZM5.04011 15.795C5.53511 15.8925 6.09761 15.9375 6.75011 15.9375H11.2501C11.9026 15.9375 12.4651 15.8925 12.9601 15.795C12.5626 14.355 10.9201 13.29 9.00011 13.29C7.08011 13.29 5.43761 14.355 5.04011 15.795Z" fill="#292D32"/>
<path d="M11.25 1.5H6.75C3 1.5 1.5 3 1.5 6.75V11.25C1.5 14.085 2.355 15.6375 4.395 16.215C4.56 14.265 6.5625 12.7275 9 12.7275C11.4375 12.7275 13.44 14.265 13.605 16.215C15.645 15.6375 16.5 14.085 16.5 11.25V6.75C16.5 3 15 1.5 11.25 1.5ZM9 10.6275C7.515 10.6275 6.315 9.42001 6.315 7.93501C6.315 6.45001 7.515 5.25 9 5.25C10.485 5.25 11.685 6.45001 11.685 7.93501C11.685 9.42001 10.485 10.6275 9 10.6275Z" stroke="#292D32" stroke-width="1.5" stroke-linecap="round" stroke-linejoin="round"/>
<path d="M8.99994 11.19C7.20744 11.19 5.75244 9.72751 5.75244 7.93501C5.75244 6.14251 7.20744 4.6875 8.99994 4.6875C10.7924 4.6875 12.2474 6.14251 12.2474 7.93501C12.2474 9.72751 10.7924 11.19 8.99994 11.19ZM8.99994 5.8125C7.82994 5.8125 6.87744 6.76501 6.87744 7.93501C6.87744 9.11251 7.82994 10.065 8.99994 10.065C10.1699 10.065 11.1224 9.11251 11.1224 7.93501C11.1224 6.76501 10.1699 5.8125 8.99994 5.8125Z" fill="#292D32"/>
</svg>
