<svg width="16" height="17" viewBox="0 0 16 17" fill="none" xmlns="http://www.w3.org/2000/svg">
<path d="M13.9497 9.28334C13.9831 9.03334 13.9997 8.775 13.9997 8.5C13.9997 8.23334 13.9831 7.96667 13.9414 7.71667L15.6331 6.4C15.706 6.33992 15.7558 6.25642 15.774 6.16372C15.7922 6.07103 15.7778 5.97489 15.7331 5.89167L14.1331 3.125C14.086 3.04131 14.0107 2.97698 13.9208 2.94343C13.8308 2.90987 13.7318 2.90925 13.6414 2.94167L11.6497 3.74167C11.2331 3.425 10.7914 3.15834 10.2997 2.95834L9.99973 0.841669C9.98497 0.746277 9.93649 0.659342 9.86309 0.596649C9.7897 0.533957 9.69625 0.499665 9.59973 0.500002H6.39973C6.19973 0.500002 6.04139 0.641669 6.00806 0.841669L5.70806 2.95834C5.21639 3.15834 4.76639 3.43334 4.35806 3.74167L2.36639 2.94167C2.18306 2.875 1.97473 2.94167 1.87473 3.125L0.283059 5.89167C0.183059 6.06667 0.216393 6.28334 0.383059 6.4L2.07473 7.71667C2.03306 7.96667 1.99973 8.24167 1.99973 8.5C1.99973 8.75834 2.01639 9.03334 2.05806 9.28334L0.366393 10.6C0.293496 10.6601 0.243687 10.7436 0.225453 10.8363C0.207219 10.929 0.221687 11.0251 0.266393 11.1083L1.86639 13.875C1.96639 14.0583 2.17473 14.1167 2.35806 14.0583L4.34973 13.2583C4.76639 13.575 5.20806 13.8417 5.69973 14.0417L5.99973 16.1583C6.04139 16.3583 6.19973 16.5 6.39973 16.5H9.59973C9.79973 16.5 9.96639 16.3583 9.99139 16.1583L10.2914 14.0417C10.7831 13.8417 11.2331 13.575 11.6414 13.2583L13.6331 14.0583C13.8164 14.125 14.0247 14.0583 14.1247 13.875L15.7247 11.1083C15.8247 10.925 15.7831 10.7167 15.6247 10.6L13.9497 9.28334ZM7.99973 11.5C6.34973 11.5 4.99973 10.15 4.99973 8.5C4.99973 6.85 6.34973 5.5 7.99973 5.5C9.64973 5.5 10.9997 6.85 10.9997 8.5C10.9997 10.15 9.64973 11.5 7.99973 11.5Z" fill="#4A4A4A"/>
</svg>
