<svg width="18" height="21" viewBox="0 0 18 21" fill="none" xmlns="http://www.w3.org/2000/svg">
<path d="M16 2.5H11.82C11.4 1.34 10.3 0.5 9 0.5C7.7 0.5 6.6 1.34 6.18 2.5H2C1.86 2.5 1.73 2.51 1.6 2.54C1.28151 2.60682 0.98404 2.75005 0.733191 2.95735C0.482341 3.16465 0.285632 3.42981 0.16 3.73C0.0600001 3.96 0 4.22 0 4.5V18.5C0 18.77 0.0600001 19.04 0.16 19.28C0.26 19.52 0.41 19.73 0.59 19.92C0.86 20.19 1.21 20.39 1.6 20.47C1.73 20.49 1.86 20.5 2 20.5H16C17.1 20.5 18 19.6 18 18.5V4.5C18 3.4 17.1 2.5 16 2.5ZM8 13.67L6.59 15.09L3 11.5L6.59 7.91L8 9.33L5.83 11.5L8 13.67ZM9 3.75C8.59 3.75 8.25 3.41 8.25 3C8.25 2.59 8.59 2.25 9 2.25C9.41 2.25 9.75 2.59 9.75 3C9.75 3.41 9.41 3.75 9 3.75ZM11.41 15.09L10 13.67L12.17 11.5L10 9.33L11.41 7.91L15 11.5L11.41 15.09Z" fill="#4A4A4A"/>
</svg>
