<svg width="18" height="19" viewBox="0 0 18 19" fill="none" xmlns="http://www.w3.org/2000/svg">
<path d="M16 0.5H2C0.9 0.5 0 1.4 0 2.5V16.5C0 17.6 0.9 18.5 2 18.5H16C17.1 18.5 18 17.6 18 16.5V2.5C18 1.4 17.1 0.5 16 0.5ZM9 3.5C10.93 3.5 12.5 5.07 12.5 7C12.5 8.93 10.93 10.5 9 10.5C7.07 10.5 5.5 8.93 5.5 7C5.5 5.07 7.07 3.5 9 3.5ZM16 16.5H2V16.27C2 15.65 2.28 15.07 2.76 14.69C4.47 13.32 6.64 12.5 9 12.5C11.36 12.5 13.53 13.32 15.24 14.69C15.72 15.07 16 15.66 16 16.27V16.5Z" fill="#4A4A4A"/>
</svg>
