<svg width="20" height="17" viewBox="0 0 20 17" fill="none" xmlns="http://www.w3.org/2000/svg">
<path d="M18 2.5H10L8.59 1.09C8.21 0.71 7.7 0.5 7.17 0.5H2C0.9 0.5 0.00999999 1.4 0.00999999 2.5L0 14.5C0 15.6 0.9 16.5 2 16.5H18C19.1 16.5 20 15.6 20 14.5V4.5C20 3.4 19.1 2.5 18 2.5ZM5.12 11.79L3.71 10.38C3.52302 10.193 3.41798 9.93943 3.41798 9.675C3.41798 9.41057 3.52302 9.15698 3.71 8.97C3.89698 8.78302 4.15057 8.67798 4.415 8.67798C4.67943 8.67798 4.93302 8.78302 5.12 8.97L5.83 9.68L8.66 6.85C8.75258 6.75742 8.86249 6.68398 8.98346 6.63387C9.10442 6.58377 9.23407 6.55798 9.365 6.55798C9.49593 6.55798 9.62558 6.58377 9.74654 6.63387C9.86751 6.68398 9.97742 6.75742 10.07 6.85C10.1626 6.94258 10.236 7.05249 10.2861 7.17346C10.3362 7.29442 10.362 7.42407 10.362 7.555C10.362 7.68593 10.3362 7.81558 10.2861 7.93654C10.236 8.05751 10.1626 8.16742 10.07 8.26L6.53 11.8C6.14 12.18 5.51 12.18 5.12 11.79ZM15.41 9.5L16.29 10.38C16.3826 10.4726 16.456 10.5825 16.5061 10.7035C16.5562 10.8244 16.582 10.9541 16.582 11.085C16.582 11.2159 16.5562 11.3456 16.5061 11.4665C16.456 11.5875 16.3826 11.6974 16.29 11.79C16.1974 11.8826 16.0875 11.956 15.9665 12.0061C15.8456 12.0562 15.7159 12.082 15.585 12.082C15.4541 12.082 15.3244 12.0562 15.2035 12.0061C15.0825 11.956 14.9726 11.8826 14.88 11.79L14 10.91L13.12 11.79C13.0274 11.8826 12.9175 11.956 12.7965 12.0061C12.6756 12.0562 12.5459 12.082 12.415 12.082C12.2841 12.082 12.1544 12.0562 12.0335 12.0061C11.9125 11.956 11.8026 11.8826 11.71 11.79C11.6174 11.6974 11.544 11.5875 11.4939 11.4665C11.4438 11.3456 11.418 11.2159 11.418 11.085C11.418 10.9541 11.4438 10.8244 11.4939 10.7035C11.544 10.5825 11.6174 10.4726 11.71 10.38L12.59 9.5L11.71 8.62C11.6174 8.52742 11.544 8.41751 11.4939 8.29654C11.4438 8.17558 11.418 8.04593 11.418 7.915C11.418 7.78407 11.4438 7.65442 11.4939 7.53346C11.544 7.41249 11.6174 7.30258 11.71 7.21C11.8026 7.11742 11.9125 7.04398 12.0335 6.99387C12.1544 6.94377 12.2841 6.91798 12.415 6.91798C12.5459 6.91798 12.6756 6.94377 12.7965 6.99387C12.9175 7.04398 13.0274 7.11742 13.12 7.21L14 8.09L14.88 7.21C14.9726 7.11742 15.0825 7.04398 15.2035 6.99387C15.3244 6.94377 15.4541 6.91798 15.585 6.91798C15.7159 6.91798 15.8456 6.94377 15.9665 6.99387C16.0875 7.04398 16.1974 7.11742 16.29 7.21C16.3826 7.30258 16.456 7.41249 16.5061 7.53346C16.5562 7.65442 16.582 7.78407 16.582 7.915C16.582 8.04593 16.5562 8.17558 16.5061 8.29654C16.456 8.41751 16.3826 8.52742 16.29 8.62L15.41 9.5Z" fill="#4A4A4A"/>
</svg>
