<svg width="56" height="18" viewBox="0 0 56 18" fill="none" xmlns="http://www.w3.org/2000/svg">
<path d="M36.4751 0C32.4991 0 28.9457 2.04473 28.9457 5.82168C28.9457 10.1536 35.2475 10.4528 35.2475 12.6293C35.2475 13.5457 34.1892 14.366 32.3808 14.366C29.8151 14.366 27.8974 13.2199 27.8974 13.2199L27.0768 17.0319C27.0768 17.0319 29.2859 18 32.2188 18C36.5659 18 39.987 15.8552 39.987 12.0132C39.987 7.43545 33.6589 7.14517 33.6589 5.12546C33.6589 4.40755 34.5277 3.62124 36.3305 3.62124C38.3648 3.62124 40.024 4.45482 40.024 4.45482L40.8273 0.773518C40.8273 0.773518 39.0212 0 36.4746 0H36.4751ZM0.0964164 0.278044L0 0.833575C0 0.833575 1.67271 1.1372 3.1795 1.74333C5.1196 2.43789 5.2575 2.84272 5.5843 4.09837L9.14442 17.7131H13.917L21.2693 0.278044H16.5079L11.7835 12.1322L9.85578 2.08366C9.6792 0.933671 8.78342 0.277488 7.68753 0.277488H0.096977L0.0964164 0.278044ZM23.1842 0.278044L19.4492 17.7131H23.9897L27.7113 0.278044H23.1842ZM48.5081 0.278044C47.4133 0.278044 46.8332 0.859711 46.4077 1.87568L39.7555 17.7131H44.5169L45.4379 15.0733H51.2386L51.7986 17.7131H56L52.3351 0.278044H48.5081ZM49.1275 4.98866L50.539 11.531H46.758L49.1281 4.98866H49.1275Z" fill="#1434CB"/>
</svg>
