<svg width="14" height="14" viewBox="0 0 14 14" fill="none" xmlns="http://www.w3.org/2000/svg">
<path fill-rule="evenodd" clip-rule="evenodd" d="M5.37868 11.835C5.50772 12.0769 5.63695 12.2949 5.76047 12.488C4.44809 12.1929 3.30929 11.439 2.52129 10.4037C3.04136 10.1108 3.70746 9.80725 4.50824 9.5851C4.73584 10.4777 5.05693 11.2317 5.37868 11.835ZM6.37135 11.3056C6.09183 10.7816 5.8117 10.1271 5.60987 9.3517C6.04435 9.2872 6.50815 9.25 7.00008 9.25C7.49193 9.25 7.95573 9.2872 8.39013 9.35163C8.1883 10.1271 7.90817 10.7816 7.62865 11.3056C7.40455 11.7258 7.18127 12.0613 7 12.3068C6.81873 12.0613 6.59545 11.7258 6.37135 11.3056ZM5.3125 7C5.3125 7.43808 5.34197 7.85387 5.39395 8.24642C5.89517 8.16955 6.43105 8.125 7.00008 8.125C7.56903 8.125 8.1049 8.16947 8.60605 8.24642C8.65802 7.8538 8.6875 7.43808 8.6875 7C8.6875 6.56192 8.65802 6.1462 8.60605 5.75358C8.1049 5.83045 7.56903 5.875 7.00008 5.875C6.43105 5.875 5.89517 5.83045 5.39395 5.75358C5.34197 6.14613 5.3125 6.56192 5.3125 7ZM4.29016 5.5216C4.22483 5.98585 4.1875 6.47905 4.1875 7C4.1875 7.52095 4.22483 8.01415 4.29016 8.4784C3.33503 8.73483 2.54411 9.0964 1.93243 9.44432C1.57523 8.7052 1.375 7.876 1.375 7C1.375 6.124 1.57523 5.29483 1.93242 4.55566C2.54404 4.90354 3.33498 5.26514 4.29016 5.5216ZM5.60987 4.64834C6.04435 4.71282 6.50815 4.75 7.00008 4.75C7.49193 4.75 7.95573 4.71282 8.39013 4.64835C8.1883 3.87291 7.90817 3.21845 7.62865 2.6944C7.40455 2.2742 7.18127 1.93867 7 1.69324C6.81873 1.93867 6.59545 2.2742 6.37135 2.69439C6.09183 3.21843 5.8117 3.8729 5.60987 4.64834ZM9.70983 5.52168C9.77515 5.98593 9.8125 6.47913 9.8125 7C9.8125 7.52095 9.77515 8.01407 9.70983 8.47832C10.665 8.73483 11.4559 9.0964 12.0676 9.44432C12.4247 8.70512 12.625 7.87593 12.625 7C12.625 6.12407 12.4247 5.29485 12.0676 4.5557C11.456 4.90358 10.665 5.26517 9.70983 5.52168ZM11.4787 3.59633C10.9586 3.88923 10.2925 4.19279 9.4918 4.41496C9.26418 3.52228 8.9431 2.76827 8.62135 2.16499C8.49228 1.92308 8.36305 1.70519 8.23953 1.51203C9.55195 1.80717 10.6908 2.56102 11.4787 3.59633ZM4.50824 4.41494C3.70751 4.19276 3.04142 3.8892 2.52129 3.5963C3.30929 2.561 4.44809 1.80717 5.7604 1.51203C5.63695 1.70519 5.50773 1.92307 5.37867 2.16497C5.05693 2.76825 4.73584 3.52226 4.50824 4.41494ZM9.4918 9.58502C9.26418 10.4777 8.9431 11.2317 8.62135 11.835C8.49228 12.0769 8.36305 12.2949 8.23953 12.488C9.55195 12.1929 10.6908 11.439 11.4788 10.4037C10.9587 10.1108 10.2926 9.80725 9.4918 9.58502ZM7 13.75C10.728 13.75 13.75 10.728 13.75 7C13.75 3.27208 10.728 0.25 7 0.25C3.27208 0.25 0.25 3.27208 0.25 7C0.25 10.728 3.27208 13.75 7 13.75Z" fill="#5052B2"/>
</svg>
