<svg width="540" height="82" viewBox="0 0 540 82" fill="none" xmlns="http://www.w3.org/2000/svg">
<path d="M539.575 30.8607V38.5669C530.13 36.8238 520.922 32.9796 511.475 26.9588C509.726 25.8444 507.938 24.6773 506.21 23.5482C491.196 13.7448 475.67 3.60724 458.156 9.16198C440.644 14.7167 431.568 28.6496 421.96 43.4028C418.552 48.6342 415.03 54.0427 411.077 59.1276C403.029 69.4819 394.313 75.6725 385.173 77.5278C384.048 77.7554 382.908 77.918 381.766 78.0156C379.346 78.2196 376.914 78.1167 374.51 77.8042C373.327 77.6506 372.147 77.4555 370.976 77.2244C368.343 76.6697 365.711 76.0898 363.071 75.568C362.461 75.4468 361.852 75.3276 361.242 75.2068L360.668 78.1277L357.889 77.5785L358.463 74.6556C357.757 74.5166 357.05 74.3773 356.344 74.2383L355.77 77.1593L352.991 76.6101L353.565 73.6872C352.595 73.4956 351.625 73.3043 350.653 73.1109L350.053 76.1673L342 74.5741C344.688 72.5 345.539 71.5463 346 69.1927C346.443 66.9364 346.5 64.9785 344.688 61.3061L352.661 62.8831L352.114 65.674C352.123 65.6759 352.132 65.6775 352.141 65.6794C352.426 65.7355 352.708 65.7913 352.993 65.8474C353.318 65.9125 353.646 65.9756 353.972 66.0406C354.325 66.1111 354.676 66.1796 355.027 66.2485L355.574 63.4594L358.353 64.0103L357.806 66.7993C358.112 66.8589 358.419 66.9204 358.726 66.9817C359.125 67.0594 359.525 67.1389 359.923 67.2182L360.471 64.4292L363.251 64.9785L362.703 67.7675C363.022 67.8306 363.341 67.894 363.659 67.9572C364.019 68.0276 364.381 68.1 364.741 68.1704C364.818 68.1867 364.896 68.201 364.973 68.2173C366.51 68.5208 368.044 68.8622 369.579 69.1927C371.106 69.5214 372.627 69.8558 374.168 70.1086C374.789 70.2097 375.411 70.2983 376.038 70.3687C376.659 70.4392 377.282 70.4915 377.904 70.524C378.533 70.5546 379.163 70.5638 379.791 70.5476C380.433 70.5313 381.074 70.488 381.713 70.4175C382.372 70.3435 383.029 70.2406 383.679 70.1086C391.005 68.6218 398.221 63.3616 405.131 54.4721C408.889 49.6382 412.324 44.3617 415.647 39.2603C425.556 24.0465 435.803 8.3144 455.882 1.94515C476.794 -4.68613 494.607 6.9436 510.323 17.2039C512.035 18.3222 513.804 19.4765 515.518 20.5693C523.757 25.8208 531.659 29.2024 539.575 30.8607Z" fill="url(#paint0_linear_4905_14117)"/>
<path d="M191 33.9551C190.537 36.3089 191 37.9637 192.715 40.8159L184.662 39.2226L185.261 36.168L182.351 35.5917L181.776 38.5146L178.997 37.9637L179.57 35.0427L177.453 34.6235L176.878 37.5445L174.099 36.9953L174.674 34.0724C174.476 34.0345 174.278 33.9946 174.082 33.9551C173.253 33.7925 172.426 33.628 171.598 33.4638C170.037 33.1568 168.493 32.7864 166.937 32.4558C164.099 31.8543 161.246 31.2799 158.395 30.7507C156.155 30.3353 153.907 29.9649 151.646 29.685C149.427 29.4105 147.195 29.2224 144.959 29.181C142.803 29.1411 140.639 29.2352 138.503 29.5368C136.437 29.8294 134.395 30.3152 132.442 31.0541C130.487 31.7947 128.63 32.7883 126.947 34.0312C121.149 38.316 117.821 44.9042 114.298 51.8823C112.341 55.757 110.318 59.7638 107.811 63.4163C104.195 68.6839 99.7001 72.9271 94.4532 76.0251C89.1774 79.1411 83.2717 81.0216 76.9032 81.6142C60.4872 83.1425 46.9999 75.4831 33.9552 68.0769C22.7753 61.7269 12.177 55.7099 0 55.2059V47.6317C14.1391 48.1267 26.0893 54.9151 37.6704 61.4906C50.2559 68.6367 62.1431 75.3875 76.2066 74.0777C86.7798 73.0949 95.5602 67.9233 101.601 59.1224C103.82 55.889 105.642 52.2798 107.571 48.4608C111.337 41.0004 115.232 33.2869 122.477 27.9362C135.614 18.2338 153.022 21.8522 167.009 24.7586C170.049 25.3945 173.088 26.0321 176.133 26.6356L176.682 23.8446L179.461 24.3955L178.914 27.1845L181.031 27.6037L181.578 24.8147L184.359 25.3639L183.81 28.1529L186.723 28.7293L187.27 25.9403L195.246 27.5173C193 28.9927 191.584 30.9839 191 33.9551Z" fill="url(#paint1_linear_4905_14117)"/>
<path d="M340.617 61.7907L332.741 60.0438C330.023 59.4407 327.33 61.156 326.727 63.8745L326.496 64.9173C325.893 67.6362 327.608 70.329 330.327 70.9316L338.202 72.6787C340.921 73.2816 343.614 71.5668 344.216 68.8481L344.448 67.8051C345.051 65.0863 343.336 62.3938 340.617 61.7907Z" fill="#5CA6FD"/>
<path d="M297.279 43.3713L271.306 37.6102C269.946 37.3082 268.6 38.166 268.299 39.5257L268.238 39.7988C267.937 41.1579 268.794 42.5046 270.153 42.8057L296.126 48.5668C297.486 48.8687 298.832 48.0109 299.134 46.6516L299.194 46.3782C299.495 45.0191 298.638 43.6727 297.279 43.3713Z" fill="#C1DFFE"/>
<path d="M292.983 62.743L267.01 56.9819C265.65 56.6804 264.304 57.5382 264.003 58.8971L263.942 59.1705C263.641 60.5301 264.498 61.8763 265.857 62.1779L291.83 67.939C293.19 68.2405 294.536 67.3827 294.838 66.0238L294.898 65.7504C295.2 64.3911 294.343 63.0444 292.983 62.743Z" fill="#C1DFFE"/>
<path d="M329.306 49.0697L308.255 44.4006C305.537 43.7975 302.844 45.5128 302.241 48.2312L297.982 67.4342C297.379 70.153 299.094 72.8455 301.812 73.4486L322.863 78.1182C325.582 78.7208 328.274 77.006 328.877 74.2876L333.137 55.0841C333.74 52.3656 332.025 49.6728 329.306 49.0697Z" fill="#74B3FD"/>
<path d="M311.884 43.3154L290.834 38.6461C288.115 38.0427 285.422 39.758 284.82 42.4768L279.738 65.3872C279.135 68.1056 280.849 70.7981 283.569 71.4011L304.619 76.0704C307.337 76.6735 310.03 74.9585 310.633 72.2397L315.715 49.3298C316.318 46.6109 314.603 43.9181 311.884 43.3154Z" fill="#5CA6FD"/>
<path d="M316.572 41.2379L316.407 41.2015C314.595 40.7991 312.8 41.9429 312.398 43.7552L305.279 75.85C304.877 77.6623 306.02 79.4572 307.833 79.8596L307.998 79.8961C309.81 80.2984 311.605 79.1547 312.007 77.3423L319.126 45.2475C319.528 43.4352 318.385 41.6398 316.572 41.2379Z" fill="#3898FC"/>
<path d="M207.128 31.3221L199.131 29.4868C196.371 28.8538 193.62 30.5779 192.986 33.3382L192.743 34.3975C192.11 37.1577 193.834 39.9095 196.595 40.5425L204.592 42.3774C207.352 43.0108 210.103 41.2868 210.736 38.5257L210.979 37.4672C211.612 34.7066 209.888 31.9551 207.128 31.3221Z" fill="#5CA6FD"/>
<path d="M224.923 27.9182L213.072 25.1992C210.312 24.5657 207.56 26.2894 206.927 29.0505L203.423 44.3193C202.79 47.0795 204.514 49.8309 207.275 50.4643L219.126 53.1834C221.887 53.8172 224.638 52.0931 225.271 49.332L228.775 34.0633C229.408 31.303 227.683 28.5517 224.923 27.9182Z" fill="#74B3FD"/>
<path d="M246.963 28.9399L229.289 24.8846C226.529 24.2512 223.778 25.9757 223.144 28.736L217.807 51.9986C217.174 54.7592 218.898 57.5102 221.658 58.1437L239.332 62.199C242.092 62.8319 244.843 61.1079 245.477 58.3476L250.815 35.085C251.448 32.3247 249.724 29.5734 246.963 28.9399Z" fill="#5CA6FD"/>
<defs>
<linearGradient id="paint0_linear_4905_14117" x1="345.578" y1="70.0248" x2="539.669" y2="35.2708" gradientUnits="userSpaceOnUse">
<stop stop-color="#88C1FD"/>
<stop offset="1" stop-color="#88C1FD" stop-opacity="0"/>
</linearGradient>
<linearGradient id="paint1_linear_4905_14117" x1="9.5226e-08" y1="51.7142" x2="192.021" y2="35.534" gradientUnits="userSpaceOnUse">
<stop stop-color="#88C1FD" stop-opacity="0"/>
<stop offset="1" stop-color="#88C1FD"/>
</linearGradient>
</defs>
</svg>
