<svg width="32" height="32" viewBox="0 0 32 32" fill="none" xmlns="http://www.w3.org/2000/svg">
<g clip-path="url(#clip0_3224_15085)">
<path d="M25.3333 23.6643C25.2667 22.1977 25.1333 20.7977 24.9333 19.5977H18.4C18.2 20.7977 18.0667 22.1977 18 23.6643H25.3333Z" fill="#3898FC" fill-opacity="0.8"/>
<path d="M16.3333 19.5977H11.1333C10.5333 20.8643 10.1333 22.1977 10 23.6643H16C16 22.2643 16.1333 20.931 16.3333 19.5977Z" fill="#3898FC" fill-opacity="0.8"/>
<path d="M21.7336 12.9336C20.8669 12.9336 19.6669 14.6003 18.9336 17.5336H24.5336C23.7336 14.6003 22.6003 12.9336 21.7336 12.9336Z" fill="#3898FC" fill-opacity="0.8"/>
<path d="M18.2004 13.4648C15.8671 14.1982 13.8671 15.5982 12.4004 17.4648H16.7337C17.1337 15.9315 17.6004 14.5982 18.2004 13.4648Z" fill="#3898FC" fill-opacity="0.8"/>
<path d="M27.934 0.332031H4.06732C2.00065 0.332031 0.333984 1.9987 0.333984 4.06536V9.5987V27.932C0.333984 29.9987 2.00065 31.6654 4.06732 31.6654H28.0007C30.0673 31.6654 31.734 29.9987 31.734 27.932V9.66537V4.06536C31.6673 1.9987 30.0007 0.332031 27.934 0.332031ZM10.4673 4.46536H26.4673V6.46536H10.4673V4.46536ZM5.46732 4.46536H8.13398V6.46536H5.46732V4.46536ZM2.33398 27.932V10.6654H29.6673V16.0654C28.4007 14.8654 26.8673 13.9987 25.2007 13.4654C25.8007 14.532 26.334 15.932 26.6673 17.4654H29.6673V19.532H27.0673C27.2673 20.8654 27.4007 22.1987 27.4007 23.5987H29.6007V25.6654H27.4007C27.334 26.9987 27.2673 28.332 27.0673 29.5987H24.934C25.134 28.332 25.2673 27.0654 25.2673 25.6654H18.0673C18.134 26.9987 18.2007 28.332 18.4007 29.5987H16.2673C16.0673 28.332 15.934 27.0654 15.934 25.6654H9.93398C10.0673 26.9987 10.4007 28.332 11.0007 29.5987H4.06732C3.13398 29.6654 2.33398 28.8654 2.33398 27.932Z" fill="#3898FC" fill-opacity="0.8"/>
</g>
<defs>
<clipPath id="clip0_3224_15085">
<rect width="32" height="32" fill="white"/>
</clipPath>
</defs>
</svg>
