<svg width="24" height="24" viewBox="0 0 24 24" fill="none" xmlns="http://www.w3.org/2000/svg">
<g id="Group">
<path id="Vector" d="M18.375 0H5.625C2.5184 0 0 2.5184 0 5.625V18.375C0 21.4816 2.5184 24 5.625 24H18.375C21.4816 24 24 21.4816 24 18.375V5.625C24 2.5184 21.4816 0 18.375 0Z" fill="#0073AA"/>
<path id="Vector_2" d="M3.95703 11.9999C3.95703 15.1832 5.807 17.9342 8.48956 19.2379L4.65331 8.72698C4.19345 9.75678 3.95618 10.8721 3.95703 11.9999ZM17.4283 11.594C17.4283 10.6002 17.0713 9.91188 16.7652 9.3761C16.3574 8.71366 15.9753 8.15266 15.9753 7.49023C15.9753 6.75091 16.536 6.06279 17.3258 6.06279C17.3615 6.06279 17.3953 6.0672 17.43 6.06916C15.9992 4.75835 14.093 3.95801 11.9992 3.95801C9.18969 3.95801 6.71778 5.39951 5.27985 7.58294C5.46847 7.58857 5.64631 7.5926 5.79735 7.5926C6.63856 7.5926 7.94066 7.49041 7.94066 7.49041C8.37416 7.46491 8.42535 8.10166 7.99222 8.15295C7.99222 8.15295 7.55656 8.20423 7.07178 8.22963L10.0003 16.9407L11.7603 11.6623L10.5073 8.22935C10.0743 8.20395 9.66406 8.15266 9.66406 8.15266C9.23066 8.12726 9.28147 7.46463 9.71488 7.49023C9.71488 7.49023 11.0429 7.59223 11.8332 7.59223C12.6743 7.59223 13.9765 7.49023 13.9765 7.49023C14.4103 7.46463 14.4613 8.10138 14.028 8.15266C14.028 8.15266 13.5914 8.20395 13.1076 8.22935L16.0139 16.8744L16.8161 14.1939C17.1638 13.0815 17.4283 12.2825 17.4283 11.594Z" fill="white"/>
<path id="Vector_3" d="M12.141 12.7035L9.72803 19.715C10.4657 19.9323 11.2308 20.0427 11.9999 20.0427C12.9095 20.043 13.8125 19.8889 14.6704 19.5868C14.6481 19.5516 14.629 19.5145 14.6132 19.476L12.141 12.7035ZM19.0565 8.1416C19.0931 8.4157 19.1112 8.69195 19.1107 8.96848C19.1107 9.78457 18.9583 10.702 18.4992 11.8491L16.0427 18.9515C18.4336 17.5573 20.0417 14.9671 20.0417 12.0002C20.0418 10.6019 19.6847 9.28704 19.0565 8.1416Z" fill="white"/>
<path id="Vector_4" d="M11.9998 2.625C6.83063 2.625 2.625 6.83034 2.625 11.9994C2.625 17.1692 6.83063 21.3743 11.9998 21.3743C17.1687 21.3743 21.375 17.1692 21.375 11.9994C21.3748 6.83034 17.1687 2.625 11.9998 2.625ZM11.9998 20.9447C7.06763 20.9447 3.05484 16.9318 3.05484 11.9994C3.05484 7.06734 7.06753 3.05484 11.9998 3.05484C16.9317 3.05484 20.9442 7.06734 20.9442 11.9994C20.9442 16.9318 16.9317 20.9447 11.9998 20.9447Z" fill="white"/>
</g>
</svg>
