<svg width="24" height="24" viewBox="0 0 24 24" fill="none" xmlns="http://www.w3.org/2000/svg">
<g id="Group 427318147">
<rect id="Rectangle 27486" width="24" height="24" fill="white"/>
<g id="vuesax/outline/edit-2">
<g id="edit-2">
<path id="Vector" d="M6.61617 18.267C6.10783 18.267 5.63283 18.092 5.29117 17.767C4.85783 17.3587 4.6495 16.742 4.7245 16.0753L5.03283 13.3753C5.09117 12.867 5.3995 12.192 5.75783 11.8253L12.5995 4.58366C14.3078 2.77533 16.0912 2.72533 17.8995 4.43366C19.7078 6.14199 19.7578 7.92533 18.0495 9.73366L11.2078 16.9753C10.8578 17.3503 10.2078 17.7003 9.6995 17.7837L7.01617 18.242C6.8745 18.2503 6.7495 18.267 6.61617 18.267ZM15.2745 4.42533C14.6328 4.42533 14.0745 4.82533 13.5078 5.42533L6.66617 12.6753C6.4995 12.8503 6.30783 13.267 6.2745 13.5087L5.96617 16.2087C5.93283 16.4837 5.9995 16.7087 6.1495 16.8503C6.2995 16.992 6.5245 17.042 6.7995 17.0003L9.48283 16.542C9.7245 16.5003 10.1245 16.2837 10.2912 16.1087L17.1328 8.86699C18.1662 7.76699 18.5412 6.75033 17.0328 5.33366C16.3662 4.69199 15.7912 4.42533 15.2745 4.42533Z" fill="#5052B2"/>
<path id="Vector_2" d="M16.4502 11.1251C16.4335 11.1251 16.4085 11.1251 16.3919 11.1251C13.7919 10.8668 11.7002 8.89177 11.3002 6.30843C11.2502 5.96677 11.4835 5.6501 11.8252 5.59177C12.1669 5.54177 12.4835 5.7751 12.5419 6.11677C12.8585 8.13343 14.4919 9.68343 16.5252 9.88343C16.8669 9.91677 17.1169 10.2251 17.0835 10.5668C17.0419 10.8834 16.7669 11.1251 16.4502 11.1251Z" fill="#5052B2"/>
<path id="Vector_3" d="M19.5 20.9582H4.5C4.15833 20.9582 3.875 20.6748 3.875 20.3332C3.875 19.9915 4.15833 19.7082 4.5 19.7082H19.5C19.8417 19.7082 20.125 19.9915 20.125 20.3332C20.125 20.6748 19.8417 20.9582 19.5 20.9582Z" fill="#5052B2"/>
</g>
</g>
</g>
</svg>
