<svg width="43" height="40" viewBox="0 0 43 40" fill="none" xmlns="http://www.w3.org/2000/svg">
<path d="M26.6625 19L9.875 16V38.167C9.875 39.1794 10.6854 40 11.6851 40H40.6525C41.6522 40 42.4626 39.1794 42.4626 38.167V30L26.6625 19Z" fill="#185C37"/>
<path d="M26.6625 0H11.6851C10.6854 0 9.875 0.820659 9.875 1.833V10L26.6625 20L35.55 23L42.4626 20V10L26.6625 0Z" fill="#21A366"/>
<path d="M9.875 10H26.6625V20H9.875V10Z" fill="#107C41"/>
<path opacity="0.1" d="M21.8899 8H9.875V33H21.8899C22.8883 32.9968 23.6968 32.178 23.7 31.167V9.833C23.6968 8.82203 22.8883 8.00329 21.8899 8Z" fill="black"/>
<path opacity="0.2" d="M20.9024 9H9.875V34H20.9024C21.9008 33.9968 22.7093 33.178 22.7125 32.167V10.833C22.7093 9.82203 21.9008 9.00329 20.9024 9Z" fill="black"/>
<path opacity="0.2" d="M20.9024 9H9.875V32H20.9024C21.9008 31.9968 22.7093 31.178 22.7125 30.167V10.833C22.7093 9.82203 21.9008 9.00329 20.9024 9Z" fill="black"/>
<path opacity="0.2" d="M19.9149 9H9.875V32H19.9149C20.9133 31.9968 21.7218 31.178 21.725 30.167V10.833C21.7218 9.82203 20.9133 9.00329 19.9149 9Z" fill="black"/>
<path d="M1.81009 9H19.9149C20.9146 9 21.725 9.82066 21.725 10.833V29.167C21.725 30.1794 20.9146 31 19.9149 31H1.81009C0.8104 31 0 30.1794 0 29.167V10.833C0 9.82066 0.8104 9 1.81009 9Z" fill="url(#paint0_linear_3_122475)"/>
<path d="M5.60596 25.9581L9.41376 19.983L5.92492 14.041H8.7314L10.6353 17.841C10.8111 18.202 10.9316 18.47 10.9967 18.647H11.0214C11.1445 18.3633 11.2762 18.0835 11.4164 17.808L13.4517 14.043H16.028L12.4503 19.95L16.1189 25.958H13.3776L11.1784 21.787C11.0748 21.6096 10.9869 21.4232 10.9158 21.23H10.8832C10.8188 21.4192 10.7333 21.6004 10.6284 21.77L8.36406 25.9581H5.60596Z" fill="white"/>
<path d="M40.6525 0H26.6626V10H42.4626V1.833C42.4626 0.820659 41.6522 0 40.6525 0Z" fill="#33C481"/>
<path d="M26.6626 20H42.4626V30H26.6626V20Z" fill="#107C41"/>
<defs>
<linearGradient id="paint0_linear_3_122475" x1="3.77407" y1="7.56773" x2="18.2201" y2="32.2749" gradientUnits="userSpaceOnUse">
<stop stop-color="#18884F"/>
<stop offset="0.5" stop-color="#117E43"/>
<stop offset="1" stop-color="#0B6631"/>
</linearGradient>
</defs>
</svg>
