<svg width="24" height="24" viewBox="0 0 24 24" fill="none" xmlns="http://www.w3.org/2000/svg">
<path id="Vector" d="M15.0005 12.0041C15.001 12.8701 14.8447 13.729 14.5392 14.5392C13.729 14.8448 12.8701 15.0011 12.0041 15.0005H11.9959C11.1299 15.001 10.271 14.8447 9.4608 14.5392C9.15554 13.7289 8.99927 12.87 8.99953 12.0041V11.9959C8.99953 11.1018 9.16379 10.2498 9.4608 9.4608C10.271 9.15527 11.1299 8.99899 11.9959 8.99953H12.0041C12.8982 8.99953 13.7539 9.16379 14.5392 9.4608C14.8447 10.271 15.001 11.1299 15.0005 11.9959V12.0041ZM23.8365 10.0001H16.8283L21.7777 5.04691C21.3902 4.5014 20.9577 3.98934 20.4846 3.51611C20.0116 3.04171 19.4995 2.60792 18.9538 2.21932L14.0007 7.16872V0.164255C13.3407 0.0574511 12.6734 0.00253125 12.0049 0L11.9929 0C11.3126 0 10.6488 0.0622519 10.0008 0.164255V7.17247L5.05141 2.22307C4.5018 2.60704 3.98795 3.0398 3.51611 3.51611C3.04045 3.98797 2.60657 4.50015 2.21932 5.04691L7.16872 10.0001H0.164255C0.164255 10.0001 0 11.3164 0 11.9959V12.0041C0 12.6844 0.0622519 13.3519 0.164255 13.9999H7.17247L2.22307 18.9493C2.99699 20.0466 3.95188 21.0043 5.04691 21.7814L10.0001 16.832V23.8365C10.6481 23.9415 11.3119 24.0007 11.9921 24.0007H12.0079C12.6881 24.0007 13.3519 23.9415 13.9999 23.8365V16.832L18.9493 21.7814C19.5006 21.4064 20.0121 20.9692 20.4801 20.4921H20.4839C20.9617 20.0223 21.3957 19.5099 21.7807 18.9613L16.8313 14.0119H23.8357C23.9407 13.3669 24 12.7069 24 12.0311V12.0004C24 11.3201 23.9407 10.6563 23.8357 10.0121L23.8365 10.0001Z" fill="#F24E1E"/>
</svg>
