<svg viewBox="0 0 16 16" xmlns="http://www.w3.org/2000/svg"><path d="m9.99993719 8.00351925c-.00025138.59450119-.10909663 1.16336213-.30717994 1.68898663-.52537313.19808331-1.09473681.30692856-1.68948938.30768262h-.00678712c-.59424981-.00075406-1.1636135-.10934794-1.68898663-.30743125-.19808328-.52537312-.3071799-1.09473681-.30743128-1.689238v-.0070385c.00025138-.59424981.10909663-1.1636135.30692853-1.68873525.52537313-.19833466 1.09498819-.30743128 1.68948938-.30768266h.00678712c.59475257.00025138 1.16411625.109348 1.68948938.30768266.19808331.52512175.30692856 1.09448544.30717994 1.68873525zm5.88895521-1.33681069h-4.6697879l3.3018067-3.30205813c-.2594186-.36449332-.548751-.70636292-.8642262-1.02183817v-.00025138c-.3154752-.31522388-.6573449-.60405342-1.0215868-.86347211l-3.30205814 3.30205813v-4.66978791c-.43211312-.07264729-.87604087-.11110762-1.32901806-.11135899h-.00829538c-.45297718.00025137-.89665356.0387117-1.32901806.11135899v4.66978791l-3.30205813-3.30205813c-.36449332.25941869-.70611154.54849961-1.02108405.86397486l-.00175962.00125687c-.31497251.31497251-.60355067.65633936-.86296937 1.02032993l3.30230951 3.30205813h-4.66978791s-.11135899.87704638-.11135899 1.33052632v.00553024c0 .45347994.03846033.89791044.11135899 1.33052632h4.66978791l-3.30230951 3.30205816c.51934014.7287352 1.15707777 1.3667242 1.88581304 1.885813l3.30205813-3.3023095v4.6700393c.43211313.0723959.87528675.1106048 1.32750981.1111076h.01131188c.45247444-.0005028.89615081-.0387117 1.32750981-.1111076v-4.6700393l3.30230954 3.3023095c.3642419-.2594187.7058602-.5484996 1.0213354-.8637235l.0007541-.0007541c.3149725-.3154752.6043048-.6573449.8634721-1.0213354l-3.3023095-3.30205816h4.6702907c.0726473-.43186175.1106048-.87503538.1111076-1.32750982v-.01156325c-.0005028-.45247443-.0384603-.89564806-.1111076-1.32750981z" fill="#fff"/></svg>